<?xml version="1.0" encoding="UTF-8" standalone="no"?>
<!DOCTYPE svg PUBLIC "-//W3C//DTD SVG 1.1//EN"
 "http://www.w3.org/Graphics/SVG/1.1/DTD/svg11.dtd">
<!-- Generated by graphviz version 2.40.1 (20161225.0304)
 -->
<!-- Title: G Pages: 1 -->
<svg width="676pt" height="885pt"
 viewBox="0.00 0.00 676.00 885.00" xmlns="http://www.w3.org/2000/svg" xmlns:xlink="http://www.w3.org/1999/xlink">
<g id="graph0" class="graph" transform="scale(1 1) rotate(0) translate(4 881)">
<title>G</title>
<polygon fill="#000000" stroke="transparent" points="-4,4 -4,-881 672,-881 672,4 -4,4"/>
<!-- 94178550630352 -->
<g id="node1" class="node">
<title>94178550630352</title>
<polygon fill="none" stroke="#ffffff" points="517,-877 73,-877 73,-809 517,-809 517,-877"/>
<text text-anchor="middle" x="295" y="-861.8" font-family="Times,serif" font-size="14.00" fill="#ffffff">Alias [(100 * SUM(CASE WHEN p_type &gt;= &#39;PROMO&#39; AND </text>
<text text-anchor="middle" x="295" y="-846.8" font-family="Times,serif" font-size="14.00" fill="#ffffff">p_type &lt; &#39;PROMP&#39; THEN l_extendedprice * (1 &#45; </text>
<text text-anchor="middle" x="295" y="-831.8" font-family="Times,serif" font-size="14.00" fill="#ffffff">l_discount) ELSE 0 END)) / SUM(l_extendedprice * </text>
<text text-anchor="middle" x="295" y="-816.8" font-family="Times,serif" font-size="14.00" fill="#ffffff">(1 &#45; l_discount)) AS promo_revenue] </text>
</g>
<!-- 94178550635008 -->
<g id="node2" class="node">
<title>94178550635008</title>
<polygon fill="none" stroke="#ffffff" points="511.5,-758 78.5,-758 78.5,-690 511.5,-690 511.5,-758"/>
<text text-anchor="middle" x="295" y="-742.8" font-family="Times,serif" font-size="14.00" fill="#ffffff">[Projection] (100 * SUM(CASE WHEN p_type &gt;= </text>
<text text-anchor="middle" x="295" y="-727.8" font-family="Times,serif" font-size="14.00" fill="#ffffff">&#39;PROMO&#39; AND p_type &lt; &#39;PROMP&#39; THEN l_extendedprice </text>
<text text-anchor="middle" x="295" y="-712.8" font-family="Times,serif" font-size="14.00" fill="#ffffff">* (1 &#45; l_discount) ELSE 0 END)) / </text>
<text text-anchor="middle" x="295" y="-697.8" font-family="Times,serif" font-size="14.00" fill="#ffffff">SUM(l_extendedprice * (1 &#45; l_discount)) </text>
</g>
<!-- 94178550635008&#45;&gt;94178550630352 -->
<g id="edge1" class="edge">
<title>94178550635008&#45;&gt;94178550630352</title>
<path fill="none" stroke="#ffffff" stroke-width="4" d="M295,-758.1006C295,-770.7979 295,-785.3949 295,-798.8643"/>
<polygon fill="#ffffff" stroke="#ffffff" stroke-width="4" points="291.5001,-798.8944 295,-808.8944 298.5001,-798.8944 291.5001,-798.8944"/>
<text text-anchor="middle" x="414" y="-779.8" font-family="Times,serif" font-size="14.00" fill="#ffffff"> 6001214.5 row(s) | 100.0% estd.</text>
</g>
<!-- 94178550632448 -->
<g id="node3" class="node">
<title>94178550632448</title>
<polygon fill="none" stroke="#ffffff" points="504.5,-639 85.5,-639 85.5,-556 504.5,-556 504.5,-639"/>
<text text-anchor="middle" x="295" y="-623.8" font-family="Times,serif" font-size="14.00" fill="#ffffff">[Aggregate] GroupBy: [] Aggregates: </text>
<text text-anchor="middle" x="295" y="-608.8" font-family="Times,serif" font-size="14.00" fill="#ffffff">[SUM(l_extendedprice * (1 &#45; l_discount)), </text>
<text text-anchor="middle" x="295" y="-593.8" font-family="Times,serif" font-size="14.00" fill="#ffffff">SUM(CASE WHEN p_type &gt;= &#39;PROMO&#39; AND p_type &lt; </text>
<text text-anchor="middle" x="295" y="-578.8" font-family="Times,serif" font-size="14.00" fill="#ffffff">&#39;PROMP&#39; THEN l_extendedprice * (1 &#45; l_discount) </text>
<text text-anchor="middle" x="295" y="-563.8" font-family="Times,serif" font-size="14.00" fill="#ffffff">ELSE 0 END)] </text>
</g>
<!-- 94178550632448&#45;&gt;94178550635008 -->
<g id="edge2" class="edge">
<title>94178550632448&#45;&gt;94178550635008</title>
<path fill="none" stroke="#ffffff" stroke-width="4" d="M295,-639.2714C295,-652.2186 295,-666.5282 295,-679.6443"/>
<polygon fill="#ffffff" stroke="#ffffff" stroke-width="4" points="291.5001,-679.8584 295,-689.8584 298.5001,-679.8585 291.5001,-679.8584"/>
<text text-anchor="middle" x="414" y="-660.8" font-family="Times,serif" font-size="14.00" fill="#ffffff"> 6001214.5 row(s) | 100.0% estd.</text>
</g>
<!-- 94178550628016 -->
<g id="node4" class="node">
<title>94178550628016</title>
<polygon fill="none" stroke="#ffffff" points="518,-505 72,-505 72,-437 518,-437 518,-505"/>
<text text-anchor="middle" x="295" y="-489.8" font-family="Times,serif" font-size="14.00" fill="#ffffff">[Projection] l_extendedprice * (1 &#45; l_discount), </text>
<text text-anchor="middle" x="295" y="-474.8" font-family="Times,serif" font-size="14.00" fill="#ffffff">CASE WHEN p_type &gt;= &#39;PROMO&#39; AND p_type &lt; &#39;PROMP&#39; </text>
<text text-anchor="middle" x="295" y="-459.8" font-family="Times,serif" font-size="14.00" fill="#ffffff">THEN l_extendedprice * (1 &#45; l_discount) ELSE 0 </text>
<text text-anchor="middle" x="295" y="-444.8" font-family="Times,serif" font-size="14.00" fill="#ffffff">END </text>
</g>
<!-- 94178550628016&#45;&gt;94178550632448 -->
<g id="edge3" class="edge">
<title>94178550628016&#45;&gt;94178550632448</title>
<path fill="none" stroke="#ffffff" stroke-width="4" d="M295,-505.2327C295,-517.594 295,-531.8432 295,-545.3886"/>
<polygon fill="#ffffff" stroke="#ffffff" stroke-width="4" points="291.5001,-545.5667 295,-555.5668 298.5001,-545.5668 291.5001,-545.5667"/>
<text text-anchor="middle" x="414" y="-526.8" font-family="Times,serif" font-size="14.00" fill="#ffffff"> 6001214.5 row(s) | 100.0% estd.</text>
</g>
<!-- 94178550627536 -->
<g id="node5" class="node">
<title>94178550627536</title>
<polygon fill="none" stroke="#ffffff" points="451,-386 139,-386 139,-350 451,-350 451,-386"/>
<text text-anchor="middle" x="295" y="-364.3" font-family="Times,serif" font-size="14.00" fill="#ffffff">[Join] Mode: Inner l_partkey = p_partkey</text>
</g>
<!-- 94178550627536&#45;&gt;94178550628016 -->
<g id="edge4" class="edge">
<title>94178550627536&#45;&gt;94178550628016</title>
<path fill="none" stroke="#ffffff" stroke-width="4" d="M295,-386.4143C295,-397.6825 295,-412.6152 295,-426.795"/>
<polygon fill="#ffffff" stroke="#ffffff" stroke-width="4" points="291.5001,-426.9237 295,-436.9237 298.5001,-426.9238 291.5001,-426.9237"/>
<text text-anchor="middle" x="405" y="-407.8" font-family="Times,serif" font-size="14.00" fill="#ffffff"> 6001214.5 row(s) | 0.0% estd.</text>
</g>
<!-- 94179147130992 -->
<g id="node6" class="node">
<title>94179147130992</title>
<polygon fill="none" stroke="#ffffff" points="304,-299 0,-299 0,-261 304,-261 304,-299"/>
<text text-anchor="middle" x="152" y="-283.8" font-family="Times,serif" font-size="14.00" fill="#ffffff">[Projection] l_partkey, l_extendedprice, </text>
<text text-anchor="middle" x="152" y="-268.8" font-family="Times,serif" font-size="14.00" fill="#ffffff">l_discount, l_shipdate </text>
</g>
<!-- 94179147130992&#45;&gt;94178550627536 -->
<g id="edge5" class="edge">
<title>94179147130992&#45;&gt;94178550627536</title>
<path fill="none" stroke="#ffffff" stroke-width="4" d="M155.0431,-299.2007C157.7369,-310.2063 162.7498,-323.4826 172,-332 177.74,-337.2853 189.5673,-342.3767 203.7155,-346.9838"/>
<polygon fill="#ffffff" stroke="#ffffff" stroke-width="4" points="202.7201,-350.3394 213.3073,-349.9385 204.7809,-343.6496 202.7201,-350.3394"/>
<text text-anchor="middle" x="291" y="-320.8" font-family="Times,serif" font-size="14.00" fill="#ffffff"> 6001215.0 row(s) | 100.0% estd.</text>
</g>
<!-- 94179084306032 -->
<g id="node7" class="node">
<title>94179084306032</title>
<polygon fill="none" stroke="#ffffff" points="294,-210 10,-210 10,-174 294,-174 294,-210"/>
<text text-anchor="middle" x="152" y="-188.3" font-family="Times,serif" font-size="14.00" fill="#ffffff">[Predicate] l_shipdate &lt; &#39;1994&#45;05&#45;20&#39;</text>
</g>
<!-- 94179084306032&#45;&gt;94179147130992 -->
<g id="edge6" class="edge">
<title>94179084306032&#45;&gt;94179147130992</title>
<path fill="none" stroke="#ffffff" stroke-width="4" d="M152,-210.2337C152,-221.9125 152,-237.3308 152,-250.7022"/>
<polygon fill="#ffffff" stroke="#ffffff" stroke-width="4" points="148.5001,-250.8765 152,-260.8765 155.5001,-250.8765 148.5001,-250.8765"/>
<text text-anchor="middle" x="271" y="-231.8" font-family="Times,serif" font-size="14.00" fill="#ffffff"> 6001215.0 row(s) | 100.0% estd.</text>
</g>
<!-- 94179085085152 -->
<g id="node8" class="node">
<title>94179085085152</title>
<polygon fill="none" stroke="#ffffff" points="300,-123 4,-123 4,-87 300,-87 300,-123"/>
<text text-anchor="middle" x="152" y="-101.3" font-family="Times,serif" font-size="14.00" fill="#ffffff">[Predicate] l_shipdate &gt;= &#39;1994&#45;04&#45;20&#39;</text>
</g>
<!-- 94179085085152&#45;&gt;94179084306032 -->
<g id="edge7" class="edge">
<title>94179085085152&#45;&gt;94179084306032</title>
<path fill="none" stroke="#ffffff" stroke-width="4" d="M152,-123.0265C152,-134.8082 152,-150.4393 152,-163.8419"/>
<polygon fill="#ffffff" stroke="#ffffff" stroke-width="4" points="148.5001,-163.9966 152,-173.9966 155.5001,-163.9967 148.5001,-163.9966"/>
<text text-anchor="middle" x="271" y="-144.8" font-family="Times,serif" font-size="14.00" fill="#ffffff"> 6001215.0 row(s) | 100.0% estd.</text>
</g>
<!-- 94177799767488 -->
<g id="node9" class="node">
<title>94177799767488</title>
<polygon fill="none" stroke="#ffffff" points="270,-36 34,-36 34,0 270,0 270,-36"/>
<text text-anchor="middle" x="152" y="-14.3" font-family="Times,serif" font-size="14.00" fill="#ffffff">[StoredTable] Name: &#39;lineitem&#39;</text>
</g>
<!-- 94177799767488&#45;&gt;94179085085152 -->
<g id="edge8" class="edge">
<title>94177799767488&#45;&gt;94179085085152</title>
<path fill="none" stroke="#ffffff" stroke-width="4" d="M152,-36.0265C152,-47.8082 152,-63.4393 152,-76.8419"/>
<polygon fill="#ffffff" stroke="#ffffff" stroke-width="4" points="148.5001,-76.9966 152,-86.9966 155.5001,-76.9967 148.5001,-76.9966"/>
<text text-anchor="middle" x="271" y="-57.8" font-family="Times,serif" font-size="14.00" fill="#ffffff"> 6001215.0 row(s) | 100.0% estd.</text>
</g>
<!-- 94178563740912 -->
<g id="node10" class="node">
<title>94178563740912</title>
<polygon fill="none" stroke="#ffffff" points="555.5,-298 322.5,-298 322.5,-262 555.5,-262 555.5,-298"/>
<text text-anchor="middle" x="439" y="-276.3" font-family="Times,serif" font-size="14.00" fill="#ffffff">[Projection] p_partkey, p_type</text>
</g>
<!-- 94178563740912&#45;&gt;94178550627536 -->
<g id="edge9" class="edge">
<title>94178563740912&#45;&gt;94178550627536</title>
<path fill="none" stroke="#ffffff" stroke-width="3" d="M432.8408,-298.2191C428.1885,-309.4234 420.7466,-323.2611 410,-332 403.4668,-337.3126 396.1452,-341.8446 388.4446,-345.7101"/>
<polygon fill="#ffffff" stroke="#ffffff" stroke-width="3" points="386.8699,-342.5819 379.2551,-349.9485 389.8017,-348.9384 386.8699,-342.5819"/>
<text text-anchor="middle" x="537.5" y="-320.8" font-family="Times,serif" font-size="14.00" fill="#ffffff"> 200000.0 row(s) | 100.0% estd.</text>
</g>
<!-- 94177804926864 -->
<g id="node11" class="node">
<title>94177804926864</title>
<polygon fill="none" stroke="#ffffff" points="543,-210 335,-210 335,-174 543,-174 543,-210"/>
<text text-anchor="middle" x="439" y="-188.3" font-family="Times,serif" font-size="14.00" fill="#ffffff">[StoredTable] Name: &#39;part&#39;</text>
</g>
<!-- 94177804926864&#45;&gt;94178563740912 -->
<g id="edge10" class="edge">
<title>94177804926864&#45;&gt;94178563740912</title>
<path fill="none" stroke="#ffffff" stroke-width="3" d="M439,-210.2337C439,-222.1508 439,-237.9616 439,-251.5183"/>
<polygon fill="#ffffff" stroke="#ffffff" stroke-width="3" points="435.5001,-251.7897 439,-261.7897 442.5001,-251.7897 435.5001,-251.7897"/>
<text text-anchor="middle" x="553.5" y="-231.8" font-family="Times,serif" font-size="14.00" fill="#ffffff"> 200000.0 row(s) | 100.0% estd.</text>
</g>
</g>
</svg>
