<?xml version="1.0" encoding="UTF-8" standalone="no"?>
<!DOCTYPE svg PUBLIC "-//W3C//DTD SVG 1.1//EN"
 "http://www.w3.org/Graphics/SVG/1.1/DTD/svg11.dtd">
<!-- Generated by graphviz version 2.40.1 (20161225.0304)
 -->
<!-- Title: G Pages: 1 -->
<svg width="639pt" height="1052pt"
 viewBox="0.00 0.00 638.50 1052.00" xmlns="http://www.w3.org/2000/svg" xmlns:xlink="http://www.w3.org/1999/xlink">
<g id="graph0" class="graph" transform="scale(1 1) rotate(0) translate(4 1048)">
<title>G</title>
<polygon fill="#000000" stroke="transparent" points="-4,4 -4,-1048 634.5,-1048 634.5,4 -4,4"/>
<!-- 93940281947504 -->
<g id="node1" class="node">
<title>93940281947504</title>
<polygon fill="none" stroke="#ffffff" points="317.5,-1044 139.5,-1044 139.5,-990 317.5,-990 317.5,-1044"/>
<text text-anchor="middle" x="228.5" y="-1028.8" font-family="Times,serif" font-size="14.00" fill="#ffffff">Alias [promo_revenue]</text>
<text text-anchor="middle" x="228.5" y="-997.8" font-family="Times,serif" font-size="14.00" fill="#ffffff">2 µs 0 ns</text>
</g>
<!-- 93940281959328 -->
<g id="node2" class="node">
<title>93940281959328</title>
<polygon fill="none" stroke="#ffffff" points="273.5,-939 183.5,-939 183.5,-885 273.5,-885 273.5,-939"/>
<text text-anchor="middle" x="228.5" y="-923.8" font-family="Times,serif" font-size="14.00" fill="#ffffff">Projection</text>
<text text-anchor="middle" x="228.5" y="-892.8" font-family="Times,serif" font-size="14.00" fill="#ffffff">52 µs 0 ns</text>
</g>
<!-- 93940281959328&#45;&gt;93940281947504 -->
<g id="edge1" class="edge">
<title>93940281959328&#45;&gt;93940281947504</title>
<path fill="none" stroke="#ffffff" d="M228.5,-939.0401C228.5,-951.3143 228.5,-966.0382 228.5,-979.3683"/>
<polygon fill="#ffffff" stroke="#ffffff" points="225.0001,-979.6866 228.5,-989.6866 232.0001,-979.6866 225.0001,-979.6866"/>
<text text-anchor="middle" x="319" y="-960.8" font-family="Times,serif" font-size="14.00" fill="#ffffff">1 row(s)/1 chunk(s)/570B</text>
</g>
<!-- 93940281948624 -->
<g id="node3" class="node">
<title>93940281948624</title>
<polygon fill="none" stroke="#ffffff" stroke-width="2" points="408,-834 49,-834 49,-765 408,-765 408,-834"/>
<text text-anchor="middle" x="228.5" y="-818.8" font-family="Times,serif" font-size="14.00" fill="#ffffff">[Aggregate] GroupBy ColumnIDs: &#160;Aggregates: </text>
<text text-anchor="middle" x="228.5" y="-803.8" font-family="Times,serif" font-size="14.00" fill="#ffffff">SUM(Column #0), SUM(Column #1)</text>
<text text-anchor="middle" x="228.5" y="-772.8" font-family="Times,serif" font-size="14.00" fill="#ffffff">2 ms 610 µs </text>
</g>
<!-- 93940281948624&#45;&gt;93940281959328 -->
<g id="edge2" class="edge">
<title>93940281948624&#45;&gt;93940281959328</title>
<path fill="none" stroke="#ffffff" d="M228.5,-834.1717C228.5,-847.0092 228.5,-861.6141 228.5,-874.6774"/>
<polygon fill="#ffffff" stroke="#ffffff" points="225.0001,-874.7601 228.5,-884.7602 232.0001,-874.7602 225.0001,-874.7601"/>
<text text-anchor="middle" x="319" y="-855.8" font-family="Times,serif" font-size="14.00" fill="#ffffff">1 row(s)/1 chunk(s)/737B</text>
</g>
<!-- 93940281953632 -->
<g id="node4" class="node">
<title>93940281953632</title>
<polygon fill="none" stroke="#ffffff" stroke-width="3" points="285,-714 172,-714 172,-660 285,-660 285,-714"/>
<text text-anchor="middle" x="228.5" y="-698.8" font-family="Times,serif" font-size="14.00" fill="#ffffff">Projection</text>
<text text-anchor="middle" x="228.5" y="-667.8" font-family="Times,serif" font-size="14.00" fill="#ffffff">31 ms 833 µs</text>
</g>
<!-- 93940281953632&#45;&gt;93940281948624 -->
<g id="edge3" class="edge">
<title>93940281953632&#45;&gt;93940281948624</title>
<path fill="none" stroke="#ffffff" stroke-width="3" d="M228.5,-714.2331C228.5,-726.3589 228.5,-740.9621 228.5,-754.6298"/>
<polygon fill="#ffffff" stroke="#ffffff" stroke-width="3" points="225.0001,-754.8427 228.5,-764.8427 232.0001,-754.8428 225.0001,-754.8427"/>
<text text-anchor="middle" x="362.5" y="-735.8" font-family="Times,serif" font-size="14.00" fill="#ffffff">75278 row(s)/16 chunk(s)/685.171KB</text>
</g>
<!-- 93940281950496 -->
<g id="node5" class="node">
<title>93940281950496</title>
<polygon fill="none" stroke="#ffffff" stroke-width="3" points="346,-609 111,-609 111,-525 346,-525 346,-609"/>
<text text-anchor="middle" x="228.5" y="-593.8" font-family="Times,serif" font-size="14.00" fill="#ffffff">JoinHash</text>
<text text-anchor="middle" x="228.5" y="-578.8" font-family="Times,serif" font-size="14.00" fill="#ffffff">(Inner Join where l_partkey = </text>
<text text-anchor="middle" x="228.5" y="-563.8" font-family="Times,serif" font-size="14.00" fill="#ffffff">p_partkey)</text>
<text text-anchor="middle" x="228.5" y="-532.8" font-family="Times,serif" font-size="14.00" fill="#ffffff">29 ms 646 µs </text>
</g>
<!-- 93940281950496&#45;&gt;93940281953632 -->
<g id="edge4" class="edge">
<title>93940281950496&#45;&gt;93940281953632</title>
<path fill="none" stroke="#ffffff" stroke-width="3" d="M228.5,-609.3075C228.5,-622.3814 228.5,-636.686 228.5,-649.4178"/>
<polygon fill="#ffffff" stroke="#ffffff" stroke-width="3" points="225.0001,-649.681 228.5,-659.681 232.0001,-649.6811 225.0001,-649.681"/>
<text text-anchor="middle" x="355.5" y="-630.8" font-family="Times,serif" font-size="14.00" fill="#ffffff">75278 row(s)/16 chunk(s)/3.620MB</text>
</g>
<!-- 93940281955920 -->
<g id="node6" class="node">
<title>93940281955920</title>
<polygon fill="none" stroke="#ffffff" points="135.5,-474 45.5,-474 45.5,-420 135.5,-420 135.5,-474"/>
<text text-anchor="middle" x="90.5" y="-458.8" font-family="Times,serif" font-size="14.00" fill="#ffffff">Projection</text>
<text text-anchor="middle" x="90.5" y="-427.8" font-family="Times,serif" font-size="14.00" fill="#ffffff">78 µs 0 ns</text>
</g>
<!-- 93940281955920&#45;&gt;93940281950496 -->
<g id="edge5" class="edge">
<title>93940281955920&#45;&gt;93940281950496</title>
<path fill="none" stroke="#ffffff" stroke-width="3" d="M84.8859,-474.2801C84.0919,-485.2667 85.2073,-497.5472 91.5,-507 94.9106,-512.1233 98.8641,-516.8122 103.2307,-521.1033"/>
<polygon fill="#ffffff" stroke="#ffffff" stroke-width="3" points="101.1454,-523.9324 110.9466,-527.9558 105.7937,-518.6984 101.1454,-523.9324"/>
<text text-anchor="middle" x="218.5" y="-495.8" font-family="Times,serif" font-size="14.00" fill="#ffffff">75278 row(s)/61 chunk(s)/2.430MB</text>
</g>
<!-- 93939432836320 -->
<g id="node7" class="node">
<title>93939432836320</title>
<polygon fill="none" stroke="#ffffff" stroke-width="2" points="181,-369 0,-369 0,-270 181,-270 181,-369"/>
<text text-anchor="middle" x="90.5" y="-353.8" font-family="Times,serif" font-size="14.00" fill="#ffffff">TableScan</text>
<text text-anchor="middle" x="90.5" y="-338.8" font-family="Times,serif" font-size="14.00" fill="#ffffff">Impl: LiteralTableScan</text>
<text text-anchor="middle" x="90.5" y="-323.8" font-family="Times,serif" font-size="14.00" fill="#ffffff">l_shipdate &lt; </text>
<text text-anchor="middle" x="90.5" y="-308.8" font-family="Times,serif" font-size="14.00" fill="#ffffff">&#39;1994&#45;05&#45;20&#39;</text>
<text text-anchor="middle" x="90.5" y="-277.8" font-family="Times,serif" font-size="14.00" fill="#ffffff">7 ms 202 µs </text>
</g>
<!-- 93939432836320&#45;&gt;93940281955920 -->
<g id="edge6" class="edge">
<title>93939432836320&#45;&gt;93940281955920</title>
<path fill="none" stroke="#ffffff" stroke-width="3" d="M90.5,-369.1599C90.5,-382.598 90.5,-396.9153 90.5,-409.5584"/>
<polygon fill="#ffffff" stroke="#ffffff" stroke-width="3" points="87.0001,-409.7287 90.5,-419.7287 94.0001,-409.7288 87.0001,-409.7287"/>
<text text-anchor="middle" x="217.5" y="-390.8" font-family="Times,serif" font-size="14.00" fill="#ffffff">75278 row(s)/61 chunk(s)/9.698MB</text>
</g>
<!-- 93939433222464 -->
<g id="node8" class="node">
<title>93939433222464</title>
<polygon fill="none" stroke="#ffffff" stroke-width="3" points="181,-219 0,-219 0,-120 181,-120 181,-219"/>
<text text-anchor="middle" x="90.5" y="-203.8" font-family="Times,serif" font-size="14.00" fill="#ffffff">TableScan</text>
<text text-anchor="middle" x="90.5" y="-188.8" font-family="Times,serif" font-size="14.00" fill="#ffffff">Impl: LiteralTableScan</text>
<text text-anchor="middle" x="90.5" y="-173.8" font-family="Times,serif" font-size="14.00" fill="#ffffff">l_shipdate &gt;= </text>
<text text-anchor="middle" x="90.5" y="-158.8" font-family="Times,serif" font-size="14.00" fill="#ffffff">&#39;1994&#45;04&#45;20&#39;</text>
<text text-anchor="middle" x="90.5" y="-127.8" font-family="Times,serif" font-size="14.00" fill="#ffffff">22 ms 618 µs </text>
</g>
<!-- 93939433222464&#45;&gt;93939432836320 -->
<g id="edge7" class="edge">
<title>93939433222464&#45;&gt;93939432836320</title>
<path fill="none" stroke="#ffffff" stroke-width="4" d="M90.5,-219.0313C90.5,-232.0196 90.5,-246.1643 90.5,-259.63"/>
<polygon fill="#ffffff" stroke="#ffffff" stroke-width="4" points="87.0001,-259.7646 90.5,-269.7646 94.0001,-259.7646 87.0001,-259.7646"/>
<text text-anchor="middle" x="235.5" y="-240.8" font-family="Times,serif" font-size="14.00" fill="#ffffff">4064717 row(s)/61 chunk(s)/520.346MB</text>
</g>
<!-- 93940281933584 -->
<g id="node9" class="node">
<title>93940281933584</title>
<polygon fill="none" stroke="#ffffff" points="133.5,-69 47.5,-69 47.5,0 133.5,0 133.5,-69"/>
<text text-anchor="middle" x="90.5" y="-53.8" font-family="Times,serif" font-size="14.00" fill="#ffffff">GetTable</text>
<text text-anchor="middle" x="90.5" y="-38.8" font-family="Times,serif" font-size="14.00" fill="#ffffff">(lineitem)</text>
<text text-anchor="middle" x="90.5" y="-7.8" font-family="Times,serif" font-size="14.00" fill="#ffffff">1 µs 0 ns</text>
</g>
<!-- 93940281933584&#45;&gt;93939433222464 -->
<g id="edge8" class="edge">
<title>93940281933584&#45;&gt;93939433222464</title>
<path fill="none" stroke="#ffffff" stroke-width="4" d="M90.5,-69.2659C90.5,-81.5301 90.5,-95.6967 90.5,-109.446"/>
<polygon fill="#ffffff" stroke="#ffffff" stroke-width="4" points="87.0001,-109.8405 90.5,-119.8405 94.0001,-109.8406 87.0001,-109.8405"/>
<text text-anchor="middle" x="235.5" y="-90.8" font-family="Times,serif" font-size="14.00" fill="#ffffff">6001215 row(s)/61 chunk(s)/500.660MB</text>
</g>
<!-- 93940281946624 -->
<g id="node10" class="node">
<title>93940281946624</title>
<polygon fill="none" stroke="#ffffff" stroke-width="2" points="417,-474 318,-474 318,-420 417,-420 417,-474"/>
<text text-anchor="middle" x="367.5" y="-458.8" font-family="Times,serif" font-size="14.00" fill="#ffffff">Projection</text>
<text text-anchor="middle" x="367.5" y="-427.8" font-family="Times,serif" font-size="14.00" fill="#ffffff">291 µs 0 ns</text>
</g>
<!-- 93940281946624&#45;&gt;93940281950496 -->
<g id="edge9" class="edge">
<title>93940281946624&#45;&gt;93940281950496</title>
<path fill="none" stroke="#ffffff" stroke-width="3" d="M362.1743,-474.0633C358.879,-485.2701 353.6593,-497.7755 345.5,-507 341.8608,-511.1144 337.872,-514.9854 333.6315,-518.6225"/>
<polygon fill="#ffffff" stroke="#ffffff" stroke-width="3" points="331.3777,-515.9432 325.748,-524.9185 335.7461,-521.4129 331.3777,-515.9432"/>
<text text-anchor="middle" x="481.5" y="-495.8" font-family="Times,serif" font-size="14.00" fill="#ffffff">200000 row(s)/2 chunk(s)/4.210MB</text>
</g>
<!-- 93940281943248 -->
<g id="node11" class="node">
<title>93940281943248</title>
<polygon fill="none" stroke="#ffffff" points="408,-354 327,-354 327,-285 408,-285 408,-354"/>
<text text-anchor="middle" x="367.5" y="-338.8" font-family="Times,serif" font-size="14.00" fill="#ffffff">GetTable</text>
<text text-anchor="middle" x="367.5" y="-323.8" font-family="Times,serif" font-size="14.00" fill="#ffffff">(part)</text>
<text text-anchor="middle" x="367.5" y="-292.8" font-family="Times,serif" font-size="14.00" fill="#ffffff">1 µs 0 ns</text>
</g>
<!-- 93940281943248&#45;&gt;93940281946624 -->
<g id="edge10" class="edge">
<title>93940281943248&#45;&gt;93940281946624</title>
<path fill="none" stroke="#ffffff" stroke-width="3" d="M367.5,-354.0033C367.5,-371.104 367.5,-391.7892 367.5,-409.3049"/>
<polygon fill="#ffffff" stroke="#ffffff" stroke-width="3" points="364.0001,-409.7409 367.5,-419.7409 371.0001,-409.741 364.0001,-409.7409"/>
<text text-anchor="middle" x="499" y="-390.8" font-family="Times,serif" font-size="14.00" fill="#ffffff">200000 row(s)/2 chunk(s)/18.202MB</text>
</g>
</g>
</svg>
