<?xml version="1.0" encoding="UTF-8" standalone="no"?>
<!DOCTYPE svg PUBLIC "-//W3C//DTD SVG 1.1//EN"
 "http://www.w3.org/Graphics/SVG/1.1/DTD/svg11.dtd">
<!-- Generated by graphviz version 2.40.1 (20161225.0304)
 -->
<!-- Title: G Pages: 1 -->
<svg width="754pt" height="770pt"
 viewBox="0.00 0.00 753.50 770.00" xmlns="http://www.w3.org/2000/svg" xmlns:xlink="http://www.w3.org/1999/xlink">
<g id="graph0" class="graph" transform="scale(1 1) rotate(0) translate(4 766)">
<title>G</title>
<polygon fill="#000000" stroke="transparent" points="-4,4 -4,-766 749.5,-766 749.5,4 -4,4"/>
<!-- 94911043016704 -->
<g id="node1" class="node">
<title>94911043016704</title>
<polygon fill="none" stroke="#ffffff" points="577,-762 146,-762 146,-694 577,-694 577,-762"/>
<text text-anchor="middle" x="361.5" y="-746.8" font-family="Times,serif" font-size="14.00" fill="#ffffff">Alias [(100 * SUM(CASE WHEN p_type LIKE &#39;PROMO%&#39; </text>
<text text-anchor="middle" x="361.5" y="-731.8" font-family="Times,serif" font-size="14.00" fill="#ffffff">THEN l_extendedprice * (1 &#45; l_discount) ELSE 0 </text>
<text text-anchor="middle" x="361.5" y="-716.8" font-family="Times,serif" font-size="14.00" fill="#ffffff">END)) / SUM(l_extendedprice * (1 &#45; l_discount)) </text>
<text text-anchor="middle" x="361.5" y="-701.8" font-family="Times,serif" font-size="14.00" fill="#ffffff">AS promo_revenue] </text>
</g>
<!-- 94911043016368 -->
<g id="node2" class="node">
<title>94911043016368</title>
<polygon fill="none" stroke="#ffffff" points="558,-643 165,-643 165,-575 558,-575 558,-643"/>
<text text-anchor="middle" x="361.5" y="-627.8" font-family="Times,serif" font-size="14.00" fill="#ffffff">[Projection] (100 * SUM(CASE WHEN p_type LIKE </text>
<text text-anchor="middle" x="361.5" y="-612.8" font-family="Times,serif" font-size="14.00" fill="#ffffff">&#39;PROMO%&#39; THEN l_extendedprice * (1 &#45; l_discount) </text>
<text text-anchor="middle" x="361.5" y="-597.8" font-family="Times,serif" font-size="14.00" fill="#ffffff">ELSE 0 END)) / SUM(l_extendedprice * (1 &#45; </text>
<text text-anchor="middle" x="361.5" y="-582.8" font-family="Times,serif" font-size="14.00" fill="#ffffff">l_discount)) </text>
</g>
<!-- 94911043016368&#45;&gt;94911043016704 -->
<g id="edge1" class="edge">
<title>94911043016368&#45;&gt;94911043016704</title>
<path fill="none" stroke="#ffffff" stroke-width="4" d="M361.5,-643.1006C361.5,-655.7979 361.5,-670.3949 361.5,-683.8643"/>
<polygon fill="#ffffff" stroke="#ffffff" stroke-width="4" points="358.0001,-683.8944 361.5,-693.8944 365.0001,-683.8944 358.0001,-683.8944"/>
<text text-anchor="middle" x="480.5" y="-664.8" font-family="Times,serif" font-size="14.00" fill="#ffffff"> 6001214.5 row(s) | 100.0% estd.</text>
</g>
<!-- 94910800983088 -->
<g id="node3" class="node">
<title>94910800983088</title>
<polygon fill="none" stroke="#ffffff" points="555.5,-524 167.5,-524 167.5,-456 555.5,-456 555.5,-524"/>
<text text-anchor="middle" x="361.5" y="-508.8" font-family="Times,serif" font-size="14.00" fill="#ffffff">[Aggregate] GroupBy: [] Aggregates: </text>
<text text-anchor="middle" x="361.5" y="-493.8" font-family="Times,serif" font-size="14.00" fill="#ffffff">[SUM(l_extendedprice * (1 &#45; l_discount)), </text>
<text text-anchor="middle" x="361.5" y="-478.8" font-family="Times,serif" font-size="14.00" fill="#ffffff">SUM(CASE WHEN p_type LIKE &#39;PROMO%&#39; THEN </text>
<text text-anchor="middle" x="361.5" y="-463.8" font-family="Times,serif" font-size="14.00" fill="#ffffff">l_extendedprice * (1 &#45; l_discount) ELSE 0 END)] </text>
</g>
<!-- 94910800983088&#45;&gt;94911043016368 -->
<g id="edge2" class="edge">
<title>94910800983088&#45;&gt;94911043016368</title>
<path fill="none" stroke="#ffffff" stroke-width="4" d="M361.5,-524.1006C361.5,-536.7979 361.5,-551.3949 361.5,-564.8643"/>
<polygon fill="#ffffff" stroke="#ffffff" stroke-width="4" points="358.0001,-564.8944 361.5,-574.8944 365.0001,-564.8944 358.0001,-564.8944"/>
<text text-anchor="middle" x="480.5" y="-545.8" font-family="Times,serif" font-size="14.00" fill="#ffffff"> 6001214.5 row(s) | 100.0% estd.</text>
</g>
<!-- 94911042996368 -->
<g id="node4" class="node">
<title>94911042996368</title>
<polygon fill="none" stroke="#ffffff" points="539.5,-405 183.5,-405 183.5,-352 539.5,-352 539.5,-405"/>
<text text-anchor="middle" x="361.5" y="-389.8" font-family="Times,serif" font-size="14.00" fill="#ffffff">[Projection] l_extendedprice * (1 &#45; l_discount), </text>
<text text-anchor="middle" x="361.5" y="-374.8" font-family="Times,serif" font-size="14.00" fill="#ffffff">CASE WHEN p_type LIKE &#39;PROMO%&#39; THEN </text>
<text text-anchor="middle" x="361.5" y="-359.8" font-family="Times,serif" font-size="14.00" fill="#ffffff">l_extendedprice * (1 &#45; l_discount) ELSE 0 END </text>
</g>
<!-- 94911042996368&#45;&gt;94910800983088 -->
<g id="edge3" class="edge">
<title>94911042996368&#45;&gt;94910800983088</title>
<path fill="none" stroke="#ffffff" stroke-width="4" d="M361.5,-405.207C361.5,-417.3232 361.5,-431.9786 361.5,-445.6731"/>
<polygon fill="#ffffff" stroke="#ffffff" stroke-width="4" points="358.0001,-445.9001 361.5,-455.9001 365.0001,-445.9002 358.0001,-445.9001"/>
<text text-anchor="middle" x="480.5" y="-426.8" font-family="Times,serif" font-size="14.00" fill="#ffffff"> 6001214.5 row(s) | 100.0% estd.</text>
</g>
<!-- 94910582283648 -->
<g id="node5" class="node">
<title>94910582283648</title>
<polygon fill="none" stroke="#ffffff" points="517.5,-301 205.5,-301 205.5,-265 517.5,-265 517.5,-301"/>
<text text-anchor="middle" x="361.5" y="-279.3" font-family="Times,serif" font-size="14.00" fill="#ffffff">[Join] Mode: Inner l_partkey = p_partkey</text>
</g>
<!-- 94910582283648&#45;&gt;94911042996368 -->
<g id="edge4" class="edge">
<title>94910582283648&#45;&gt;94911042996368</title>
<path fill="none" stroke="#ffffff" stroke-width="4" d="M361.5,-301.4134C361.5,-312.816 361.5,-327.8627 361.5,-341.6338"/>
<polygon fill="#ffffff" stroke="#ffffff" stroke-width="4" points="358.0001,-341.8344 361.5,-351.8345 365.0001,-341.8345 358.0001,-341.8344"/>
<text text-anchor="middle" x="471.5" y="-322.8" font-family="Times,serif" font-size="14.00" fill="#ffffff"> 6001214.5 row(s) | 0.0% estd.</text>
</g>
<!-- 94911127450160 -->
<g id="node6" class="node">
<title>94911127450160</title>
<polygon fill="none" stroke="#ffffff" points="370.5,-214 66.5,-214 66.5,-176 370.5,-176 370.5,-214"/>
<text text-anchor="middle" x="218.5" y="-198.8" font-family="Times,serif" font-size="14.00" fill="#ffffff">[Projection] l_partkey, l_extendedprice, </text>
<text text-anchor="middle" x="218.5" y="-183.8" font-family="Times,serif" font-size="14.00" fill="#ffffff">l_discount, l_shipdate </text>
</g>
<!-- 94911127450160&#45;&gt;94910582283648 -->
<g id="edge5" class="edge">
<title>94911127450160&#45;&gt;94910582283648</title>
<path fill="none" stroke="#ffffff" stroke-width="4" d="M223.1322,-214.2243C226.7123,-225.2382 232.749,-238.5151 242.5,-247 248.4105,-252.1431 260.5388,-257.2643 274.883,-261.9624"/>
<polygon fill="#ffffff" stroke="#ffffff" stroke-width="4" points="273.9976,-265.3524 284.586,-264.9846 276.0793,-258.6691 273.9976,-265.3524"/>
<text text-anchor="middle" x="361.5" y="-235.8" font-family="Times,serif" font-size="14.00" fill="#ffffff"> 6001215.0 row(s) | 100.0% estd.</text>
</g>
<!-- 94911043017744 -->
<g id="node7" class="node">
<title>94911043017744</title>
<polygon fill="none" stroke="#ffffff" points="395,-125 0,-125 0,-87 395,-87 395,-125"/>
<text text-anchor="middle" x="197.5" y="-109.8" font-family="Times,serif" font-size="14.00" fill="#ffffff">[Predicate] l_shipdate BETWEEN &#39;1995&#45;09&#45;01&#39; AND </text>
<text text-anchor="middle" x="197.5" y="-94.8" font-family="Times,serif" font-size="14.00" fill="#ffffff">&#39;1995&#45;10&#45;00&#39; </text>
</g>
<!-- 94911043017744&#45;&gt;94911127450160 -->
<g id="edge6" class="edge">
<title>94911043017744&#45;&gt;94911127450160</title>
<path fill="none" stroke="#ffffff" stroke-width="4" d="M202.0567,-125.3117C204.8361,-137.091 208.4439,-152.3813 211.5717,-165.6372"/>
<polygon fill="#ffffff" stroke="#ffffff" stroke-width="4" points="208.2492,-166.7971 213.9522,-175.726 215.0621,-165.1895 208.2492,-166.7971"/>
<text text-anchor="middle" x="328.5" y="-146.8" font-family="Times,serif" font-size="14.00" fill="#ffffff"> 6001215.0 row(s) | 100.0% estd.</text>
</g>
<!-- 94911017993584 -->
<g id="node8" class="node">
<title>94911017993584</title>
<polygon fill="none" stroke="#ffffff" points="315.5,-36 79.5,-36 79.5,0 315.5,0 315.5,-36"/>
<text text-anchor="middle" x="197.5" y="-14.3" font-family="Times,serif" font-size="14.00" fill="#ffffff">[StoredTable] Name: &#39;lineitem&#39;</text>
</g>
<!-- 94911017993584&#45;&gt;94911043017744 -->
<g id="edge7" class="edge">
<title>94911017993584&#45;&gt;94911043017744</title>
<path fill="none" stroke="#ffffff" stroke-width="4" d="M197.5,-36.2337C197.5,-47.9125 197.5,-63.3308 197.5,-76.7022"/>
<polygon fill="#ffffff" stroke="#ffffff" stroke-width="4" points="194.0001,-76.8765 197.5,-86.8765 201.0001,-76.8765 194.0001,-76.8765"/>
<text text-anchor="middle" x="316.5" y="-57.8" font-family="Times,serif" font-size="14.00" fill="#ffffff"> 6001215.0 row(s) | 100.0% estd.</text>
</g>
<!-- 94911043015232 -->
<g id="node9" class="node">
<title>94911043015232</title>
<polygon fill="none" stroke="#ffffff" points="630,-213 397,-213 397,-177 630,-177 630,-213"/>
<text text-anchor="middle" x="513.5" y="-191.3" font-family="Times,serif" font-size="14.00" fill="#ffffff">[Projection] p_partkey, p_type</text>
</g>
<!-- 94911043015232&#45;&gt;94910582283648 -->
<g id="edge8" class="edge">
<title>94911043015232&#45;&gt;94910582283648</title>
<path fill="none" stroke="#ffffff" stroke-width="3" d="M506.0563,-213.0182C500.5435,-224.2864 491.9951,-238.2697 480.5,-247 473.4438,-252.3591 465.5906,-256.9251 457.3776,-260.8147"/>
<polygon fill="#ffffff" stroke="#ffffff" stroke-width="3" points="455.736,-257.7124 447.9752,-264.9249 458.5399,-264.1263 455.736,-257.7124"/>
<text text-anchor="middle" x="609" y="-235.8" font-family="Times,serif" font-size="14.00" fill="#ffffff"> 200000.0 row(s) | 100.0% estd.</text>
</g>
<!-- 94910106504656 -->
<g id="node10" class="node">
<title>94910106504656</title>
<polygon fill="none" stroke="#ffffff" points="621.5,-124 413.5,-124 413.5,-88 621.5,-88 621.5,-124"/>
<text text-anchor="middle" x="517.5" y="-102.3" font-family="Times,serif" font-size="14.00" fill="#ffffff">[StoredTable] Name: &#39;part&#39;</text>
</g>
<!-- 94910106504656&#45;&gt;94911043015232 -->
<g id="edge9" class="edge">
<title>94910106504656&#45;&gt;94911043015232</title>
<path fill="none" stroke="#ffffff" stroke-width="3" d="M516.6905,-124.0105C516.1412,-136.2342 515.4033,-152.6505 514.7756,-166.6176"/>
<polygon fill="#ffffff" stroke="#ffffff" stroke-width="3" points="511.2746,-166.5637 514.322,-176.7108 518.2675,-166.8781 511.2746,-166.5637"/>
<text text-anchor="middle" x="631" y="-146.8" font-family="Times,serif" font-size="14.00" fill="#ffffff"> 200000.0 row(s) | 100.0% estd.</text>
</g>
</g>
</svg>
