<?xml version="1.0" encoding="UTF-8" standalone="no"?>
<!DOCTYPE svg PUBLIC "-//W3C//DTD SVG 1.1//EN"
 "http://www.w3.org/Graphics/SVG/1.1/DTD/svg11.dtd">
<!-- Generated by graphviz version 2.40.1 (20161225.0304)
 -->
<!-- Title: G Pages: 1 -->
<svg width="670pt" height="1247pt"
 viewBox="0.00 0.00 670.00 1247.00" xmlns="http://www.w3.org/2000/svg" xmlns:xlink="http://www.w3.org/1999/xlink">
<g id="graph0" class="graph" transform="scale(1 1) rotate(0) translate(4 1243)">
<title>G</title>
<polygon fill="#000000" stroke="transparent" points="-4,4 -4,-1243 666,-1243 666,4 -4,4"/>
<!-- 94910579465904 -->
<g id="node1" class="node">
<title>94910579465904</title>
<polygon fill="none" stroke="#ffffff" points="313.5,-1239 188.5,-1239 188.5,-1185 313.5,-1185 313.5,-1239"/>
<text text-anchor="middle" x="251" y="-1223.8" font-family="Times,serif" font-size="14.00" fill="#ffffff">Alias [revenue]</text>
<text text-anchor="middle" x="251" y="-1192.8" font-family="Times,serif" font-size="14.00" fill="#ffffff">1 µs 0 ns</text>
</g>
<!-- 94910351908048 -->
<g id="node2" class="node">
<title>94910351908048</title>
<polygon fill="none" stroke="#ffffff" points="430.5,-1134 71.5,-1134 71.5,-1065 430.5,-1065 430.5,-1134"/>
<text text-anchor="middle" x="251" y="-1118.8" font-family="Times,serif" font-size="14.00" fill="#ffffff">[Aggregate] GroupBy ColumnIDs: &#160;Aggregates: </text>
<text text-anchor="middle" x="251" y="-1103.8" font-family="Times,serif" font-size="14.00" fill="#ffffff">SUM(Column #0)</text>
<text text-anchor="middle" x="251" y="-1072.8" font-family="Times,serif" font-size="14.00" fill="#ffffff">40 µs 0 ns </text>
</g>
<!-- 94910351908048&#45;&gt;94910579465904 -->
<g id="edge1" class="edge">
<title>94910351908048&#45;&gt;94910579465904</title>
<path fill="none" stroke="#ffffff" d="M251,-1134.1717C251,-1147.0092 251,-1161.6141 251,-1174.6774"/>
<polygon fill="#ffffff" stroke="#ffffff" points="247.5001,-1174.7601 251,-1184.7602 254.5001,-1174.7602 247.5001,-1174.7601"/>
<text text-anchor="middle" x="341.5" y="-1155.8" font-family="Times,serif" font-size="14.00" fill="#ffffff">1 row(s)/1 chunk(s)/456B</text>
</g>
<!-- 94911039251632 -->
<g id="node3" class="node">
<title>94911039251632</title>
<polygon fill="none" stroke="#ffffff" stroke-width="2" points="300.5,-1014 201.5,-1014 201.5,-960 300.5,-960 300.5,-1014"/>
<text text-anchor="middle" x="251" y="-998.8" font-family="Times,serif" font-size="14.00" fill="#ffffff">Projection</text>
<text text-anchor="middle" x="251" y="-967.8" font-family="Times,serif" font-size="14.00" fill="#ffffff">349 µs 0 ns</text>
</g>
<!-- 94911039251632&#45;&gt;94910351908048 -->
<g id="edge2" class="edge">
<title>94911039251632&#45;&gt;94910351908048</title>
<path fill="none" stroke="#ffffff" stroke-width="2" d="M251,-1014.2331C251,-1026.3589 251,-1040.9621 251,-1054.6298"/>
<polygon fill="#ffffff" stroke="#ffffff" stroke-width="2" points="247.5001,-1054.8427 251,-1064.8427 254.5001,-1054.8428 247.5001,-1054.8427"/>
<text text-anchor="middle" x="371.5" y="-1035.8" font-family="Times,serif" font-size="14.00" fill="#ffffff">121 row(s)/51 chunk(s)/15.726KB</text>
</g>
<!-- 94911042979088 -->
<g id="node4" class="node">
<title>94911042979088</title>
<polygon fill="none" stroke="#ffffff" stroke-width="3" points="469.5,-909 32.5,-909 32.5,-660 469.5,-660 469.5,-909"/>
<text text-anchor="middle" x="251" y="-893.8" font-family="Times,serif" font-size="14.00" fill="#ffffff">TableScan</text>
<text text-anchor="middle" x="251" y="-878.8" font-family="Times,serif" font-size="14.00" fill="#ffffff">Impl: ExpressionEvaluator</text>
<text text-anchor="middle" x="251" y="-863.8" font-family="Times,serif" font-size="14.00" fill="#ffffff">((((p_size </text>
<text text-anchor="middle" x="251" y="-848.8" font-family="Times,serif" font-size="14.00" fill="#ffffff">BETWEEN 1 AND 15 AND l_quantity BETWEEN 20 AND </text>
<text text-anchor="middle" x="251" y="-833.8" font-family="Times,serif" font-size="14.00" fill="#ffffff">30) AND (p_container) IN (&#39;LG CASE&#39;, &#39;LG BOX&#39;, </text>
<text text-anchor="middle" x="251" y="-818.8" font-family="Times,serif" font-size="14.00" fill="#ffffff">&#39;LG PACK&#39;, &#39;LG PKG&#39;)) AND p_brand = &#39;Brand#34&#39;) </text>
<text text-anchor="middle" x="251" y="-803.8" font-family="Times,serif" font-size="14.00" fill="#ffffff">OR (((p_size BETWEEN 1 AND 5 AND l_quantity </text>
<text text-anchor="middle" x="251" y="-788.8" font-family="Times,serif" font-size="14.00" fill="#ffffff">BETWEEN 1 AND 11) AND (p_container) IN (&#39;SM </text>
<text text-anchor="middle" x="251" y="-773.8" font-family="Times,serif" font-size="14.00" fill="#ffffff">CASE&#39;, &#39;SM BOX&#39;, &#39;SM PACK&#39;, &#39;SM PKG&#39;)) AND </text>
<text text-anchor="middle" x="251" y="-758.8" font-family="Times,serif" font-size="14.00" fill="#ffffff">p_brand = &#39;Brand#12&#39;)) OR (((p_size BETWEEN 1 AND </text>
<text text-anchor="middle" x="251" y="-743.8" font-family="Times,serif" font-size="14.00" fill="#ffffff">10 AND l_quantity BETWEEN 10 AND 20) AND </text>
<text text-anchor="middle" x="251" y="-728.8" font-family="Times,serif" font-size="14.00" fill="#ffffff">(p_container) IN (&#39;MED BAG&#39;, &#39;MED BOX&#39;, &#39;MED </text>
<text text-anchor="middle" x="251" y="-713.8" font-family="Times,serif" font-size="14.00" fill="#ffffff">PKG&#39;, &#39;MED PACK&#39;)) AND p_brand = &#39;Brand#23&#39;)</text>
<text text-anchor="middle" x="251" y="-682.8" font-family="Times,serif" font-size="14.00" fill="#ffffff">114 </text>
<text text-anchor="middle" x="251" y="-667.8" font-family="Times,serif" font-size="14.00" fill="#ffffff">ms 302 µs </text>
</g>
<!-- 94911042979088&#45;&gt;94911039251632 -->
<g id="edge3" class="edge">
<title>94911042979088&#45;&gt;94911039251632</title>
<path fill="none" stroke="#ffffff" stroke-width="2" d="M251,-909.2873C251,-923.869 251,-937.7611 251,-949.6609"/>
<polygon fill="#ffffff" stroke="#ffffff" stroke-width="2" points="247.5001,-949.9918 251,-959.9918 254.5001,-949.9918 247.5001,-949.9918"/>
<text text-anchor="middle" x="371.5" y="-930.8" font-family="Times,serif" font-size="14.00" fill="#ffffff">121 row(s)/51 chunk(s)/44.981KB</text>
</g>
<!-- 94911048952224 -->
<g id="node5" class="node">
<title>94911048952224</title>
<polygon fill="none" stroke="#ffffff" stroke-width="3" points="368.5,-609 133.5,-609 133.5,-525 368.5,-525 368.5,-609"/>
<text text-anchor="middle" x="251" y="-593.8" font-family="Times,serif" font-size="14.00" fill="#ffffff">JoinHash</text>
<text text-anchor="middle" x="251" y="-578.8" font-family="Times,serif" font-size="14.00" fill="#ffffff">(Inner Join where l_partkey = </text>
<text text-anchor="middle" x="251" y="-563.8" font-family="Times,serif" font-size="14.00" fill="#ffffff">p_partkey)</text>
<text text-anchor="middle" x="251" y="-532.8" font-family="Times,serif" font-size="14.00" fill="#ffffff">39 ms 666 µs </text>
</g>
<!-- 94911048952224&#45;&gt;94911042979088 -->
<g id="edge4" class="edge">
<title>94911048952224&#45;&gt;94911042979088</title>
<path fill="none" stroke="#ffffff" stroke-width="3" d="M251,-609.1941C251,-621.2388 251,-635.0534 251,-649.527"/>
<polygon fill="#ffffff" stroke="#ffffff" stroke-width="3" points="247.5001,-649.6387 251,-659.6388 254.5001,-649.6388 247.5001,-649.6387"/>
<text text-anchor="middle" x="387" y="-630.8" font-family="Times,serif" font-size="14.00" fill="#ffffff">214377 row(s)/64 chunk(s)/17.194MB</text>
</g>
<!-- 94911160075584 -->
<g id="node6" class="node">
<title>94911160075584</title>
<polygon fill="none" stroke="#ffffff" points="149,-474 59,-474 59,-420 149,-420 149,-474"/>
<text text-anchor="middle" x="104" y="-458.8" font-family="Times,serif" font-size="14.00" fill="#ffffff">Projection</text>
<text text-anchor="middle" x="104" y="-427.8" font-family="Times,serif" font-size="14.00" fill="#ffffff">79 µs 0 ns</text>
</g>
<!-- 94911160075584&#45;&gt;94911048952224 -->
<g id="edge5" class="edge">
<title>94911160075584&#45;&gt;94911048952224</title>
<path fill="none" stroke="#ffffff" stroke-width="3" d="M98.3021,-474.0496C97.4479,-485.1247 98.5409,-497.5338 105,-507 110.4446,-514.9794 117.158,-521.899 124.6875,-527.8993"/>
<polygon fill="#ffffff" stroke="#ffffff" stroke-width="3" points="123.0102,-531.0069 133.1568,-534.0561 127.1262,-525.3449 123.0102,-531.0069"/>
<text text-anchor="middle" x="241" y="-495.8" font-family="Times,serif" font-size="14.00" fill="#ffffff">214377 row(s)/61 chunk(s)/10.318MB</text>
</g>
<!-- 94911042995280 -->
<g id="node7" class="node">
<title>94911042995280</title>
<polygon fill="none" stroke="#ffffff" stroke-width="3" points="208,-369 0,-369 0,-270 208,-270 208,-369"/>
<text text-anchor="middle" x="104" y="-353.8" font-family="Times,serif" font-size="14.00" fill="#ffffff">TableScan</text>
<text text-anchor="middle" x="104" y="-338.8" font-family="Times,serif" font-size="14.00" fill="#ffffff">Impl: ExpressionEvaluator</text>
<text text-anchor="middle" x="104" y="-323.8" font-family="Times,serif" font-size="14.00" fill="#ffffff">(l_shipmode) </text>
<text text-anchor="middle" x="104" y="-308.8" font-family="Times,serif" font-size="14.00" fill="#ffffff">IN (&#39;AIR&#39;, &#39;AIR REG&#39;)</text>
<text text-anchor="middle" x="104" y="-277.8" font-family="Times,serif" font-size="14.00" fill="#ffffff">99 ms 493 µs </text>
</g>
<!-- 94911042995280&#45;&gt;94911160075584 -->
<g id="edge6" class="edge">
<title>94911042995280&#45;&gt;94911160075584</title>
<path fill="none" stroke="#ffffff" stroke-width="3" d="M104,-369.1599C104,-382.598 104,-396.9153 104,-409.5584"/>
<polygon fill="#ffffff" stroke="#ffffff" stroke-width="3" points="100.5001,-409.7287 104,-419.7287 107.5001,-409.7288 100.5001,-409.7287"/>
<text text-anchor="middle" x="240" y="-390.8" font-family="Times,serif" font-size="14.00" fill="#ffffff">214377 row(s)/61 chunk(s)/27.503MB</text>
</g>
<!-- 94911034721088 -->
<g id="node8" class="node">
<title>94911034721088</title>
<polygon fill="none" stroke="#ffffff" stroke-width="3" points="197,-219 11,-219 11,-120 197,-120 197,-219"/>
<text text-anchor="middle" x="104" y="-203.8" font-family="Times,serif" font-size="14.00" fill="#ffffff">TableScan</text>
<text text-anchor="middle" x="104" y="-188.8" font-family="Times,serif" font-size="14.00" fill="#ffffff">Impl: LiteralTableScan</text>
<text text-anchor="middle" x="104" y="-173.8" font-family="Times,serif" font-size="14.00" fill="#ffffff">l_shipinstruct = </text>
<text text-anchor="middle" x="104" y="-158.8" font-family="Times,serif" font-size="14.00" fill="#ffffff">&#39;DELIVER IN PERSON&#39;</text>
<text text-anchor="middle" x="104" y="-127.8" font-family="Times,serif" font-size="14.00" fill="#ffffff">161 ms 605 µs </text>
</g>
<!-- 94911034721088&#45;&gt;94911042995280 -->
<g id="edge7" class="edge">
<title>94911034721088&#45;&gt;94911042995280</title>
<path fill="none" stroke="#ffffff" stroke-width="4" d="M104,-219.0313C104,-232.0196 104,-246.1643 104,-259.63"/>
<polygon fill="#ffffff" stroke="#ffffff" stroke-width="4" points="100.5001,-259.7646 104,-269.7646 107.5001,-259.7646 100.5001,-259.7646"/>
<text text-anchor="middle" x="249" y="-240.8" font-family="Times,serif" font-size="14.00" fill="#ffffff">1500048 row(s)/61 chunk(s)/192.068MB</text>
</g>
<!-- 94910579466096 -->
<g id="node9" class="node">
<title>94910579466096</title>
<polygon fill="none" stroke="#ffffff" points="147,-69 61,-69 61,0 147,0 147,-69"/>
<text text-anchor="middle" x="104" y="-53.8" font-family="Times,serif" font-size="14.00" fill="#ffffff">GetTable</text>
<text text-anchor="middle" x="104" y="-38.8" font-family="Times,serif" font-size="14.00" fill="#ffffff">(lineitem)</text>
<text text-anchor="middle" x="104" y="-7.8" font-family="Times,serif" font-size="14.00" fill="#ffffff">1 µs 0 ns</text>
</g>
<!-- 94910579466096&#45;&gt;94911034721088 -->
<g id="edge8" class="edge">
<title>94910579466096&#45;&gt;94911034721088</title>
<path fill="none" stroke="#ffffff" stroke-width="4" d="M104,-69.2659C104,-81.5301 104,-95.6967 104,-109.446"/>
<polygon fill="#ffffff" stroke="#ffffff" stroke-width="4" points="100.5001,-109.8405 104,-119.8405 107.5001,-109.8406 100.5001,-109.8405"/>
<text text-anchor="middle" x="238.5" y="-90.8" font-family="Times,serif" font-size="14.00" fill="#ffffff">6001215 row(s)/61 chunk(s)/1.800GB</text>
</g>
<!-- 94911047756320 -->
<g id="node10" class="node">
<title>94911047756320</title>
<polygon fill="none" stroke="#ffffff" stroke-width="2" points="448.5,-474 349.5,-474 349.5,-420 448.5,-420 448.5,-474"/>
<text text-anchor="middle" x="399" y="-458.8" font-family="Times,serif" font-size="14.00" fill="#ffffff">Projection</text>
<text text-anchor="middle" x="399" y="-427.8" font-family="Times,serif" font-size="14.00" fill="#ffffff">256 µs 0 ns</text>
</g>
<!-- 94911047756320&#45;&gt;94911048952224 -->
<g id="edge9" class="edge">
<title>94911047756320&#45;&gt;94911048952224</title>
<path fill="none" stroke="#ffffff" stroke-width="3" d="M393.8041,-474.1798C390.5318,-485.4073 385.2941,-497.8965 377,-507 373.2266,-511.1416 369.1067,-515.0246 364.7338,-518.6619"/>
<polygon fill="#ffffff" stroke="#ffffff" stroke-width="3" points="362.3778,-516.0594 356.6095,-524.9464 366.6607,-521.5963 362.3778,-516.0594"/>
<text text-anchor="middle" x="517.5" y="-495.8" font-family="Times,serif" font-size="14.00" fill="#ffffff">200000 row(s)/2 chunk(s)/16.802MB</text>
</g>
<!-- 94910579465712 -->
<g id="node11" class="node">
<title>94910579465712</title>
<polygon fill="none" stroke="#ffffff" points="439.5,-354 358.5,-354 358.5,-285 439.5,-285 439.5,-354"/>
<text text-anchor="middle" x="399" y="-338.8" font-family="Times,serif" font-size="14.00" fill="#ffffff">GetTable</text>
<text text-anchor="middle" x="399" y="-323.8" font-family="Times,serif" font-size="14.00" fill="#ffffff">(part)</text>
<text text-anchor="middle" x="399" y="-292.8" font-family="Times,serif" font-size="14.00" fill="#ffffff">1 µs 0 ns</text>
</g>
<!-- 94910579465712&#45;&gt;94911047756320 -->
<g id="edge10" class="edge">
<title>94910579465712&#45;&gt;94911047756320</title>
<path fill="none" stroke="#ffffff" stroke-width="3" d="M399,-354.0033C399,-371.104 399,-391.7892 399,-409.3049"/>
<polygon fill="#ffffff" stroke="#ffffff" stroke-width="3" points="395.5001,-409.7409 399,-419.7409 402.5001,-409.741 395.5001,-409.7409"/>
<text text-anchor="middle" x="530.5" y="-390.8" font-family="Times,serif" font-size="14.00" fill="#ffffff">200000 row(s)/2 chunk(s)/43.203MB</text>
</g>
</g>
</svg>
