<?xml version="1.0" encoding="UTF-8" standalone="no"?>
<!DOCTYPE svg PUBLIC "-//W3C//DTD SVG 1.1//EN"
 "http://www.w3.org/Graphics/SVG/1.1/DTD/svg11.dtd">
<!-- Generated by graphviz version 2.40.1 (20161225.0304)
 -->
<!-- Title: G Pages: 1 -->
<svg width="1655pt" height="1637pt"
 viewBox="0.00 0.00 1655.00 1637.00" xmlns="http://www.w3.org/2000/svg" xmlns:xlink="http://www.w3.org/1999/xlink">
<g id="graph0" class="graph" transform="scale(1 1) rotate(0) translate(4 1633)">
<title>G</title>
<polygon fill="#000000" stroke="transparent" points="-4,4 -4,-1633 1651,-1633 1651,4 -4,4"/>
<!-- 94911335396640 -->
<g id="node1" class="node">
<title>94911335396640</title>
<polygon fill="none" stroke="#ffffff" points="250.5,-1629 133.5,-1629 133.5,-1560 250.5,-1560 250.5,-1629"/>
<text text-anchor="middle" x="192" y="-1613.8" font-family="Times,serif" font-size="14.00" fill="#ffffff">Alias [n_name</text>
<text text-anchor="middle" x="192" y="-1598.8" font-family="Times,serif" font-size="14.00" fill="#ffffff">revenue]</text>
<text text-anchor="middle" x="192" y="-1567.8" font-family="Times,serif" font-size="14.00" fill="#ffffff">3 µs 0 ns</text>
</g>
<!-- 94911397550208 -->
<g id="node2" class="node">
<title>94911397550208</title>
<polygon fill="none" stroke="#ffffff" points="237,-1509 147,-1509 147,-1455 237,-1455 237,-1509"/>
<text text-anchor="middle" x="192" y="-1493.8" font-family="Times,serif" font-size="14.00" fill="#ffffff">Sort</text>
<text text-anchor="middle" x="192" y="-1462.8" font-family="Times,serif" font-size="14.00" fill="#ffffff">35 µs 0 ns</text>
</g>
<!-- 94911397550208&#45;&gt;94911335396640 -->
<g id="edge1" class="edge">
<title>94911397550208&#45;&gt;94911335396640</title>
<path fill="none" stroke="#ffffff" d="M192,-1509.2331C192,-1521.3589 192,-1535.9621 192,-1549.6298"/>
<polygon fill="#ffffff" stroke="#ffffff" points="188.5001,-1549.8427 192,-1559.8427 195.5001,-1549.8428 188.5001,-1549.8427"/>
<text text-anchor="middle" x="282.5" y="-1530.8" font-family="Times,serif" font-size="14.00" fill="#ffffff">5 row(s)/1 chunk(s)/831B</text>
</g>
<!-- 94911146554320 -->
<g id="node3" class="node">
<title>94911146554320</title>
<polygon fill="none" stroke="#ffffff" stroke-width="2" points="376,-1404 8,-1404 8,-1335 376,-1335 376,-1404"/>
<text text-anchor="middle" x="192" y="-1388.8" font-family="Times,serif" font-size="14.00" fill="#ffffff">[Aggregate] GroupBy ColumnIDs: 1 Aggregates: </text>
<text text-anchor="middle" x="192" y="-1373.8" font-family="Times,serif" font-size="14.00" fill="#ffffff">SUM(Column #0)</text>
<text text-anchor="middle" x="192" y="-1342.8" font-family="Times,serif" font-size="14.00" fill="#ffffff">702 µs 0 ns </text>
</g>
<!-- 94911146554320&#45;&gt;94911397550208 -->
<g id="edge2" class="edge">
<title>94911146554320&#45;&gt;94911397550208</title>
<path fill="none" stroke="#ffffff" d="M192,-1404.1717C192,-1417.0092 192,-1431.6141 192,-1444.6774"/>
<polygon fill="#ffffff" stroke="#ffffff" points="188.5001,-1444.7601 192,-1454.7602 195.5001,-1444.7602 188.5001,-1444.7601"/>
<text text-anchor="middle" x="282.5" y="-1425.8" font-family="Times,serif" font-size="14.00" fill="#ffffff">5 row(s)/1 chunk(s)/831B</text>
</g>
<!-- 94911334649056 -->
<g id="node4" class="node">
<title>94911334649056</title>
<polygon fill="none" stroke="#ffffff" stroke-width="2" points="244,-1284 140,-1284 140,-1230 244,-1230 244,-1284"/>
<text text-anchor="middle" x="192" y="-1268.8" font-family="Times,serif" font-size="14.00" fill="#ffffff">Projection</text>
<text text-anchor="middle" x="192" y="-1237.8" font-family="Times,serif" font-size="14.00" fill="#ffffff">4 ms 705 µs</text>
</g>
<!-- 94911334649056&#45;&gt;94911146554320 -->
<g id="edge3" class="edge">
<title>94911334649056&#45;&gt;94911146554320</title>
<path fill="none" stroke="#ffffff" stroke-width="2" d="M192,-1284.2331C192,-1296.3589 192,-1310.9621 192,-1324.6298"/>
<polygon fill="#ffffff" stroke="#ffffff" stroke-width="2" points="188.5001,-1324.8427 192,-1334.8427 195.5001,-1324.8428 188.5001,-1324.8427"/>
<text text-anchor="middle" x="321.5" y="-1305.8" font-family="Times,serif" font-size="14.00" fill="#ffffff">7375 row(s)/32 chunk(s)/280.500KB</text>
</g>
<!-- 94911397615296 -->
<g id="node5" class="node">
<title>94911397615296</title>
<polygon fill="none" stroke="#ffffff" stroke-width="2" points="292,-1179 92,-1179 92,-1080 292,-1080 292,-1179"/>
<text text-anchor="middle" x="192" y="-1163.8" font-family="Times,serif" font-size="14.00" fill="#ffffff">TableScan</text>
<text text-anchor="middle" x="192" y="-1148.8" font-family="Times,serif" font-size="14.00" fill="#ffffff">Impl: ColumnComparison</text>
<text text-anchor="middle" x="192" y="-1133.8" font-family="Times,serif" font-size="14.00" fill="#ffffff">c_nationkey = </text>
<text text-anchor="middle" x="192" y="-1118.8" font-family="Times,serif" font-size="14.00" fill="#ffffff">s_nationkey</text>
<text text-anchor="middle" x="192" y="-1087.8" font-family="Times,serif" font-size="14.00" fill="#ffffff">5 ms 252 µs </text>
</g>
<!-- 94911397615296&#45;&gt;94911334649056 -->
<g id="edge4" class="edge">
<title>94911397615296&#45;&gt;94911334649056</title>
<path fill="none" stroke="#ffffff" stroke-width="2" d="M192,-1179.1599C192,-1192.598 192,-1206.9153 192,-1219.5584"/>
<polygon fill="#ffffff" stroke="#ffffff" stroke-width="2" points="188.5001,-1219.7287 192,-1229.7287 195.5001,-1219.7288 188.5001,-1219.7287"/>
<text text-anchor="middle" x="321.5" y="-1200.8" font-family="Times,serif" font-size="14.00" fill="#ffffff">7375 row(s)/32 chunk(s)/977.039KB</text>
</g>
<!-- 94911334799056 -->
<g id="node6" class="node">
<title>94911334799056</title>
<polygon fill="none" stroke="#ffffff" stroke-width="3" points="311.5,-1029 72.5,-1029 72.5,-945 311.5,-945 311.5,-1029"/>
<text text-anchor="middle" x="192" y="-1013.8" font-family="Times,serif" font-size="14.00" fill="#ffffff">JoinHash</text>
<text text-anchor="middle" x="192" y="-998.8" font-family="Times,serif" font-size="14.00" fill="#ffffff">(Inner Join where c_custkey = </text>
<text text-anchor="middle" x="192" y="-983.8" font-family="Times,serif" font-size="14.00" fill="#ffffff">o_custkey)</text>
<text text-anchor="middle" x="192" y="-952.8" font-family="Times,serif" font-size="14.00" fill="#ffffff">39 ms 852 µs </text>
</g>
<!-- 94911334799056&#45;&gt;94911397615296 -->
<g id="edge5" class="edge">
<title>94911334799056&#45;&gt;94911397615296</title>
<path fill="none" stroke="#ffffff" stroke-width="3" d="M192,-1029.3689C192,-1041.9866 192,-1056.0589 192,-1069.5734"/>
<polygon fill="#ffffff" stroke="#ffffff" stroke-width="3" points="188.5001,-1069.7659 192,-1079.7659 195.5001,-1069.766 188.5001,-1069.7659"/>
<text text-anchor="middle" x="328" y="-1050.8" font-family="Times,serif" font-size="14.00" fill="#ffffff">184970 row(s)/32 chunk(s)/23.709MB</text>
</g>
<!-- 94911146559328 -->
<g id="node7" class="node">
<title>94911146559328</title>
<polygon fill="none" stroke="#ffffff" stroke-width="2" points="104,-879 0,-879 0,-825 104,-825 104,-879"/>
<text text-anchor="middle" x="52" y="-863.8" font-family="Times,serif" font-size="14.00" fill="#ffffff">Projection</text>
<text text-anchor="middle" x="52" y="-832.8" font-family="Times,serif" font-size="14.00" fill="#ffffff">1 ms 162 µs</text>
</g>
<!-- 94911146559328&#45;&gt;94911334799056 -->
<g id="edge6" class="edge">
<title>94911146559328&#45;&gt;94911334799056</title>
<path fill="none" stroke="#ffffff" stroke-width="3" d="M47.3277,-879.2286C46.1869,-894.5548 47.4369,-913.3048 57,-927 59.6741,-930.8295 62.6509,-934.4178 65.8737,-937.7799"/>
<polygon fill="#ffffff" stroke="#ffffff" stroke-width="3" points="63.6241,-940.4692 73.3004,-944.7843 68.427,-935.3768 63.6241,-940.4692"/>
<text text-anchor="middle" x="184" y="-915.8" font-family="Times,serif" font-size="14.00" fill="#ffffff">150000 row(s)/2 chunk(s)/3.001MB</text>
</g>
<!-- 94911146548944 -->
<g id="node8" class="node">
<title>94911146548944</title>
<polygon fill="none" stroke="#ffffff" points="95.5,-751.5 .5,-751.5 .5,-682.5 95.5,-682.5 95.5,-751.5"/>
<text text-anchor="middle" x="48" y="-736.3" font-family="Times,serif" font-size="14.00" fill="#ffffff">GetTable</text>
<text text-anchor="middle" x="48" y="-721.3" font-family="Times,serif" font-size="14.00" fill="#ffffff">(customer)</text>
<text text-anchor="middle" x="48" y="-690.3" font-family="Times,serif" font-size="14.00" fill="#ffffff">1 µs 0 ns</text>
</g>
<!-- 94911146548944&#45;&gt;94911146559328 -->
<g id="edge7" class="edge">
<title>94911146548944&#45;&gt;94911146559328</title>
<path fill="none" stroke="#ffffff" stroke-width="3" d="M49.0301,-751.7659C49.5991,-770.9703 50.3063,-794.8393 50.8879,-814.4668"/>
<polygon fill="#ffffff" stroke="#ffffff" stroke-width="3" points="47.393,-814.6948 51.1878,-824.5867 54.39,-814.4874 47.393,-814.6948"/>
<text text-anchor="middle" x="182.5" y="-780.8" font-family="Times,serif" font-size="14.00" fill="#ffffff">150000 row(s)/2 chunk(s)/27.603MB</text>
</g>
<!-- 94911397273648 -->
<g id="node9" class="node">
<title>94911397273648</title>
<polygon fill="none" stroke="#ffffff" stroke-width="3" points="458,-894 210,-894 210,-810 458,-810 458,-894"/>
<text text-anchor="middle" x="334" y="-878.8" font-family="Times,serif" font-size="14.00" fill="#ffffff">JoinHash</text>
<text text-anchor="middle" x="334" y="-863.8" font-family="Times,serif" font-size="14.00" fill="#ffffff">(Inner Join where o_orderkey = </text>
<text text-anchor="middle" x="334" y="-848.8" font-family="Times,serif" font-size="14.00" fill="#ffffff">l_orderkey)</text>
<text text-anchor="middle" x="334" y="-817.8" font-family="Times,serif" font-size="14.00" fill="#ffffff">90 ms 863 µs </text>
</g>
<!-- 94911397273648&#45;&gt;94911334799056 -->
<g id="edge8" class="edge">
<title>94911397273648&#45;&gt;94911334799056</title>
<path fill="none" stroke="#ffffff" stroke-width="3" d="M327.3838,-894.2794C323.976,-905.8465 318.815,-917.7345 311,-927 307.5911,-931.0416 303.8427,-934.8397 299.8424,-938.4056"/>
<polygon fill="#ffffff" stroke="#ffffff" stroke-width="3" points="297.3549,-935.9201 291.8621,-944.9799 301.8058,-941.3228 297.3549,-935.9201"/>
<text text-anchor="middle" x="457" y="-915.8" font-family="Times,serif" font-size="14.00" fill="#ffffff">184970 row(s)/16 chunk(s)/20.731MB</text>
</g>
<!-- 94911334492032 -->
<g id="node10" class="node">
<title>94911334492032</title>
<polygon fill="none" stroke="#ffffff" points="377,-744 287,-744 287,-690 377,-690 377,-744"/>
<text text-anchor="middle" x="332" y="-728.8" font-family="Times,serif" font-size="14.00" fill="#ffffff">Projection</text>
<text text-anchor="middle" x="332" y="-697.8" font-family="Times,serif" font-size="14.00" fill="#ffffff">33 µs 0 ns</text>
</g>
<!-- 94911334492032&#45;&gt;94911397273648 -->
<g id="edge9" class="edge">
<title>94911334492032&#45;&gt;94911397273648</title>
<path fill="none" stroke="#ffffff" stroke-width="3" d="M332.4047,-744.3193C332.6408,-760.2545 332.9465,-780.8871 333.227,-799.8217"/>
<polygon fill="#ffffff" stroke="#ffffff" stroke-width="3" points="329.7274,-799.8819 333.3752,-809.8289 336.7266,-799.7781 329.7274,-799.8819"/>
<text text-anchor="middle" x="465.5" y="-780.8" font-family="Times,serif" font-size="14.00" fill="#ffffff">227597 row(s)/15 chunk(s)/5.466MB</text>
</g>
<!-- 94911335465296 -->
<g id="node11" class="node">
<title>94911335465296</title>
<polygon fill="none" stroke="#ffffff" stroke-width="3" points="443.5,-624 206.5,-624 206.5,-525 443.5,-525 443.5,-624"/>
<text text-anchor="middle" x="325" y="-608.8" font-family="Times,serif" font-size="14.00" fill="#ffffff">TableScan</text>
<text text-anchor="middle" x="325" y="-593.8" font-family="Times,serif" font-size="14.00" fill="#ffffff">Impl: BetweenScan</text>
<text text-anchor="middle" x="325" y="-578.8" font-family="Times,serif" font-size="14.00" fill="#ffffff">o_orderdate BETWEEN </text>
<text text-anchor="middle" x="325" y="-563.8" font-family="Times,serif" font-size="14.00" fill="#ffffff">&#39;1994&#45;01&#45;01&#39; AND &#39;1995&#45;01&#45;00&#39;</text>
<text text-anchor="middle" x="325" y="-532.8" font-family="Times,serif" font-size="14.00" fill="#ffffff">36 ms 359 µs </text>
</g>
<!-- 94911335465296&#45;&gt;94911334492032 -->
<g id="edge10" class="edge">
<title>94911335465296&#45;&gt;94911334492032</title>
<path fill="none" stroke="#ffffff" stroke-width="3" d="M327.4483,-624.3396C328.3429,-642.551 329.3385,-662.8196 330.1699,-679.7453"/>
<polygon fill="#ffffff" stroke="#ffffff" stroke-width="3" points="326.6775,-679.9874 330.664,-689.8036 333.6691,-679.6439 326.6775,-679.9874"/>
<text text-anchor="middle" x="465" y="-645.8" font-family="Times,serif" font-size="14.00" fill="#ffffff">227597 row(s)/15 chunk(s)/16.396MB</text>
</g>
<!-- 94911146567744 -->
<g id="node12" class="node">
<title>94911146567744</title>
<polygon fill="none" stroke="#ffffff" points="356.5,-466.5 275.5,-466.5 275.5,-397.5 356.5,-397.5 356.5,-466.5"/>
<text text-anchor="middle" x="316" y="-451.3" font-family="Times,serif" font-size="14.00" fill="#ffffff">GetTable</text>
<text text-anchor="middle" x="316" y="-436.3" font-family="Times,serif" font-size="14.00" fill="#ffffff">(orders)</text>
<text text-anchor="middle" x="316" y="-405.3" font-family="Times,serif" font-size="14.00" fill="#ffffff">1 µs 0 ns</text>
</g>
<!-- 94911146567744&#45;&gt;94911335465296 -->
<g id="edge11" class="edge">
<title>94911146567744&#45;&gt;94911335465296</title>
<path fill="none" stroke="#ffffff" stroke-width="4" d="M318.2016,-466.8594C319.1153,-481.3251 320.2017,-498.5265 321.2349,-514.8865"/>
<polygon fill="#ffffff" stroke="#ffffff" stroke-width="4" points="317.746,-515.1728 321.8694,-524.9323 324.732,-514.7315 317.746,-515.1728"/>
<text text-anchor="middle" x="466" y="-495.8" font-family="Times,serif" font-size="14.00" fill="#ffffff">1500000 row(s)/15 chunk(s)/282.028MB</text>
</g>
<!-- 94910814168272 -->
<g id="node13" class="node">
<title>94910814168272</title>
<polygon fill="none" stroke="#ffffff" stroke-width="3" points="745.5,-759 506.5,-759 506.5,-675 745.5,-675 745.5,-759"/>
<text text-anchor="middle" x="626" y="-743.8" font-family="Times,serif" font-size="14.00" fill="#ffffff">JoinHash</text>
<text text-anchor="middle" x="626" y="-728.8" font-family="Times,serif" font-size="14.00" fill="#ffffff">(Inner Join where l_suppkey = </text>
<text text-anchor="middle" x="626" y="-713.8" font-family="Times,serif" font-size="14.00" fill="#ffffff">s_suppkey)</text>
<text text-anchor="middle" x="626" y="-682.8" font-family="Times,serif" font-size="14.00" fill="#ffffff">123 ms 860 µs </text>
</g>
<!-- 94910814168272&#45;&gt;94911397273648 -->
<g id="edge12" class="edge">
<title>94910814168272&#45;&gt;94911397273648</title>
<path fill="none" stroke="#ffffff" stroke-width="4" d="M620.0169,-759.0865C616.357,-771.2013 610.4686,-783.4399 601,-792 580.5948,-810.4473 524.0198,-824.4823 468.1717,-834.3222"/>
<polygon fill="#ffffff" stroke="#ffffff" stroke-width="4" points="467.3901,-830.9051 458.1279,-836.0493 468.5764,-837.8039 467.3901,-830.9051"/>
<text text-anchor="middle" x="753.5" y="-780.8" font-family="Times,serif" font-size="14.00" fill="#ffffff">1222276 row(s)/1 chunk(s)/107.561MB</text>
</g>
<!-- 94911335283376 -->
<g id="node14" class="node">
<title>94911335283376</title>
<polygon fill="none" stroke="#ffffff" stroke-width="2" points="679,-601.5 575,-601.5 575,-547.5 679,-547.5 679,-601.5"/>
<text text-anchor="middle" x="627" y="-586.3" font-family="Times,serif" font-size="14.00" fill="#ffffff">Projection</text>
<text text-anchor="middle" x="627" y="-555.3" font-family="Times,serif" font-size="14.00" fill="#ffffff">4 ms 369 µs</text>
</g>
<!-- 94911335283376&#45;&gt;94910814168272 -->
<g id="edge13" class="edge">
<title>94911335283376&#45;&gt;94910814168272</title>
<path fill="none" stroke="#ffffff" stroke-width="4" d="M626.8096,-601.6386C626.6849,-619.404 626.5179,-643.2016 626.3679,-664.5675"/>
<polygon fill="#ffffff" stroke="#ffffff" stroke-width="4" points="622.8663,-664.7993 626.296,-674.8237 629.8662,-664.8485 622.8663,-664.7993"/>
<text text-anchor="middle" x="772" y="-645.8" font-family="Times,serif" font-size="14.00" fill="#ffffff">6001215 row(s)/61 chunk(s)/168.096MB</text>
</g>
<!-- 94911146569056 -->
<g id="node15" class="node">
<title>94911146569056</title>
<polygon fill="none" stroke="#ffffff" points="672,-466.5 586,-466.5 586,-397.5 672,-397.5 672,-466.5"/>
<text text-anchor="middle" x="629" y="-451.3" font-family="Times,serif" font-size="14.00" fill="#ffffff">GetTable</text>
<text text-anchor="middle" x="629" y="-436.3" font-family="Times,serif" font-size="14.00" fill="#ffffff">(lineitem)</text>
<text text-anchor="middle" x="629" y="-405.3" font-family="Times,serif" font-size="14.00" fill="#ffffff">1 µs 0 ns</text>
</g>
<!-- 94911146569056&#45;&gt;94911335283376 -->
<g id="edge14" class="edge">
<title>94911146569056&#45;&gt;94911335283376</title>
<path fill="none" stroke="#ffffff" stroke-width="4" d="M628.5107,-466.8594C628.2126,-488.1022 627.8317,-515.2444 627.5269,-536.9586"/>
<polygon fill="#ffffff" stroke="#ffffff" stroke-width="4" points="624.0249,-537.0845 627.3841,-547.1326 631.0242,-537.1828 624.0249,-537.0845"/>
<text text-anchor="middle" x="763.5" y="-495.8" font-family="Times,serif" font-size="14.00" fill="#ffffff">6001215 row(s)/61 chunk(s)/1.800GB</text>
</g>
<!-- 94911334719216 -->
<g id="node16" class="node">
<title>94911334719216</title>
<polygon fill="none" stroke="#ffffff" stroke-width="2" points="1065.5,-616.5 812.5,-616.5 812.5,-532.5 1065.5,-532.5 1065.5,-616.5"/>
<text text-anchor="middle" x="939" y="-601.3" font-family="Times,serif" font-size="14.00" fill="#ffffff">JoinHash</text>
<text text-anchor="middle" x="939" y="-586.3" font-family="Times,serif" font-size="14.00" fill="#ffffff">(Inner Join where s_nationkey = </text>
<text text-anchor="middle" x="939" y="-571.3" font-family="Times,serif" font-size="14.00" fill="#ffffff">n_nationkey)</text>
<text text-anchor="middle" x="939" y="-540.3" font-family="Times,serif" font-size="14.00" fill="#ffffff">264 µs 0 ns </text>
</g>
<!-- 94911334719216&#45;&gt;94910814168272 -->
<g id="edge15" class="edge">
<title>94911334719216&#45;&gt;94910814168272</title>
<path fill="none" stroke="#ffffff" stroke-width="2" d="M936.629,-616.8756C933.7186,-631.4134 927.9931,-646.6191 917,-657 893.2774,-679.4016 821.939,-694.3149 755.8378,-703.6704"/>
<polygon fill="#ffffff" stroke="#ffffff" stroke-width="2" points="755.1345,-700.2342 745.7064,-705.0676 756.0909,-707.1686 755.1345,-700.2342"/>
<text text-anchor="middle" x="1053" y="-645.8" font-family="Times,serif" font-size="14.00" fill="#ffffff">2036 row(s)/1 chunk(s)/114.713KB</text>
</g>
<!-- 94911334614000 -->
<g id="node17" class="node">
<title>94911334614000</title>
<polygon fill="none" stroke="#ffffff" points="975,-459 885,-459 885,-405 975,-405 975,-459"/>
<text text-anchor="middle" x="930" y="-443.8" font-family="Times,serif" font-size="14.00" fill="#ffffff">Projection</text>
<text text-anchor="middle" x="930" y="-412.8" font-family="Times,serif" font-size="14.00" fill="#ffffff">20 µs 0 ns</text>
</g>
<!-- 94911334614000&#45;&gt;94911334719216 -->
<g id="edge16" class="edge">
<title>94911334614000&#45;&gt;94911334719216</title>
<path fill="none" stroke="#ffffff" stroke-width="2" d="M929.6785,-459.1046C929.6818,-473.3709 929.9578,-491.1474 931,-507 931.3302,-512.0229 931.7725,-517.246 932.2804,-522.4632"/>
<polygon fill="#ffffff" stroke="#ffffff" stroke-width="2" points="928.802,-522.8538 933.3255,-532.4344 935.7639,-522.124 928.802,-522.8538"/>
<text text-anchor="middle" x="1060.5" y="-495.8" font-family="Times,serif" font-size="14.00" fill="#ffffff">10000 row(s)/1 chunk(s)/200.812KB</text>
</g>
<!-- 94911146553200 -->
<g id="node18" class="node">
<title>94911146553200</title>
<polygon fill="none" stroke="#ffffff" points="973,-339 887,-339 887,-270 973,-270 973,-339"/>
<text text-anchor="middle" x="930" y="-323.8" font-family="Times,serif" font-size="14.00" fill="#ffffff">GetTable</text>
<text text-anchor="middle" x="930" y="-308.8" font-family="Times,serif" font-size="14.00" fill="#ffffff">(supplier)</text>
<text text-anchor="middle" x="930" y="-277.8" font-family="Times,serif" font-size="14.00" fill="#ffffff">1 µs 0 ns</text>
</g>
<!-- 94911146553200&#45;&gt;94911334614000 -->
<g id="edge17" class="edge">
<title>94911146553200&#45;&gt;94911334614000</title>
<path fill="none" stroke="#ffffff" stroke-width="2" d="M930,-339.0033C930,-356.104 930,-376.7892 930,-394.3049"/>
<polygon fill="#ffffff" stroke="#ffffff" stroke-width="2" points="926.5001,-394.7409 930,-404.7409 933.5001,-394.741 926.5001,-394.7409"/>
<text text-anchor="middle" x="1052.5" y="-360.8" font-family="Times,serif" font-size="14.00" fill="#ffffff">10000 row(s)/1 chunk(s)/1.521MB</text>
</g>
<!-- 94911396832736 -->
<g id="node19" class="node">
<title>94911396832736</title>
<polygon fill="none" stroke="#ffffff" points="1339.5,-474 1084.5,-474 1084.5,-390 1339.5,-390 1339.5,-474"/>
<text text-anchor="middle" x="1212" y="-458.8" font-family="Times,serif" font-size="14.00" fill="#ffffff">JoinHash</text>
<text text-anchor="middle" x="1212" y="-443.8" font-family="Times,serif" font-size="14.00" fill="#ffffff">(Inner Join where n_regionkey = </text>
<text text-anchor="middle" x="1212" y="-428.8" font-family="Times,serif" font-size="14.00" fill="#ffffff">r_regionkey)</text>
<text text-anchor="middle" x="1212" y="-397.8" font-family="Times,serif" font-size="14.00" fill="#ffffff">99 µs 0 ns </text>
</g>
<!-- 94911396832736&#45;&gt;94911334719216 -->
<g id="edge18" class="edge">
<title>94911396832736&#45;&gt;94911334719216</title>
<path fill="none" stroke="#ffffff" d="M1207.4723,-474.1584C1204.2787,-486.1322 1198.9267,-498.273 1190,-507 1172.4928,-524.1156 1124.7276,-538.8495 1075.5022,-550.1455"/>
<polygon fill="#ffffff" stroke="#ffffff" points="1074.6365,-546.7527 1065.6462,-552.3586 1076.1701,-553.5826 1074.6365,-546.7527"/>
<text text-anchor="middle" x="1290.5" y="-495.8" font-family="Times,serif" font-size="14.00" fill="#ffffff">5 row(s)/1 chunk(s)/765B</text>
</g>
<!-- 94911334999248 -->
<g id="node20" class="node">
<title>94911334999248</title>
<polygon fill="none" stroke="#ffffff" points="1250,-331.5 1160,-331.5 1160,-277.5 1250,-277.5 1250,-331.5"/>
<text text-anchor="middle" x="1205" y="-316.3" font-family="Times,serif" font-size="14.00" fill="#ffffff">Projection</text>
<text text-anchor="middle" x="1205" y="-285.3" font-family="Times,serif" font-size="14.00" fill="#ffffff">7 µs 0 ns</text>
</g>
<!-- 94911334999248&#45;&gt;94911396832736 -->
<g id="edge19" class="edge">
<title>94911334999248&#45;&gt;94911396832736</title>
<path fill="none" stroke="#ffffff" d="M1204.8782,-331.7786C1204.9587,-344.0769 1205.2423,-358.7781 1206,-372 1206.1441,-374.5149 1206.3141,-377.0871 1206.5039,-379.6836"/>
<polygon fill="#ffffff" stroke="#ffffff" points="1203.0233,-380.0654 1207.321,-389.7494 1210.0004,-379.499 1203.0233,-380.0654"/>
<text text-anchor="middle" x="1313" y="-360.8" font-family="Times,serif" font-size="14.00" fill="#ffffff">25 row(s)/1 chunk(s)/2.288KB</text>
</g>
<!-- 94911146554736 -->
<g id="node21" class="node">
<title>94911146554736</title>
<polygon fill="none" stroke="#ffffff" points="1245.5,-204 1164.5,-204 1164.5,-135 1245.5,-135 1245.5,-204"/>
<text text-anchor="middle" x="1205" y="-188.8" font-family="Times,serif" font-size="14.00" fill="#ffffff">GetTable</text>
<text text-anchor="middle" x="1205" y="-173.8" font-family="Times,serif" font-size="14.00" fill="#ffffff">(nation)</text>
<text text-anchor="middle" x="1205" y="-142.8" font-family="Times,serif" font-size="14.00" fill="#ffffff">1 µs 0 ns</text>
</g>
<!-- 94911146554736&#45;&gt;94911334999248 -->
<g id="edge20" class="edge">
<title>94911146554736&#45;&gt;94911334999248</title>
<path fill="none" stroke="#ffffff" d="M1205,-204.2659C1205,-223.4703 1205,-247.3393 1205,-266.9668"/>
<polygon fill="#ffffff" stroke="#ffffff" points="1201.5001,-267.0867 1205,-277.0867 1208.5001,-267.0867 1201.5001,-267.0867"/>
<text text-anchor="middle" x="1312" y="-240.8" font-family="Times,serif" font-size="14.00" fill="#ffffff">25 row(s)/1 chunk(s)/3.265KB</text>
</g>
<!-- 94911397102080 -->
<g id="node22" class="node">
<title>94911397102080</title>
<polygon fill="none" stroke="#ffffff" points="1487,-331.5 1397,-331.5 1397,-277.5 1487,-277.5 1487,-331.5"/>
<text text-anchor="middle" x="1442" y="-316.3" font-family="Times,serif" font-size="14.00" fill="#ffffff">Projection</text>
<text text-anchor="middle" x="1442" y="-285.3" font-family="Times,serif" font-size="14.00" fill="#ffffff">2 µs 0 ns</text>
</g>
<!-- 94911397102080&#45;&gt;94911396832736 -->
<g id="edge21" class="edge">
<title>94911397102080&#45;&gt;94911396832736</title>
<path fill="none" stroke="#ffffff" d="M1439.1835,-331.696C1436.4064,-345.4712 1430.9019,-361.4651 1420,-372 1408.3047,-383.3016 1380.744,-393.8193 1349.382,-402.7914"/>
<polygon fill="#ffffff" stroke="#ffffff" points="1348.2386,-399.4765 1339.5403,-405.5254 1350.1123,-406.2211 1348.2386,-399.4765"/>
<text text-anchor="middle" x="1521.5" y="-360.8" font-family="Times,serif" font-size="14.00" fill="#ffffff">1 row(s)/1 chunk(s)/385B</text>
</g>
<!-- 94911334918512 -->
<g id="node23" class="node">
<title>94911334918512</title>
<polygon fill="none" stroke="#ffffff" points="1532.5,-219 1351.5,-219 1351.5,-120 1532.5,-120 1532.5,-219"/>
<text text-anchor="middle" x="1442" y="-203.8" font-family="Times,serif" font-size="14.00" fill="#ffffff">TableScan</text>
<text text-anchor="middle" x="1442" y="-188.8" font-family="Times,serif" font-size="14.00" fill="#ffffff">Impl: LiteralTableScan</text>
<text text-anchor="middle" x="1442" y="-173.8" font-family="Times,serif" font-size="14.00" fill="#ffffff">r_name = </text>
<text text-anchor="middle" x="1442" y="-158.8" font-family="Times,serif" font-size="14.00" fill="#ffffff">&#39;AMERICA&#39;</text>
<text text-anchor="middle" x="1442" y="-127.8" font-family="Times,serif" font-size="14.00" fill="#ffffff">51 µs 0 ns </text>
</g>
<!-- 94911334918512&#45;&gt;94911397102080 -->
<g id="edge22" class="edge">
<title>94911334918512&#45;&gt;94911397102080</title>
<path fill="none" stroke="#ffffff" d="M1442,-219.0024C1442,-234.8677 1442,-252.1639 1442,-267.0225"/>
<polygon fill="#ffffff" stroke="#ffffff" points="1438.5001,-267.3558 1442,-277.3558 1445.5001,-267.3558 1438.5001,-267.3558"/>
<text text-anchor="middle" x="1532.5" y="-240.8" font-family="Times,serif" font-size="14.00" fill="#ffffff">1 row(s)/1 chunk(s)/458B</text>
</g>
<!-- 94911334287168 -->
<g id="node24" class="node">
<title>94911334287168</title>
<polygon fill="none" stroke="#ffffff" points="1482.5,-69 1401.5,-69 1401.5,0 1482.5,0 1482.5,-69"/>
<text text-anchor="middle" x="1442" y="-53.8" font-family="Times,serif" font-size="14.00" fill="#ffffff">GetTable</text>
<text text-anchor="middle" x="1442" y="-38.8" font-family="Times,serif" font-size="14.00" fill="#ffffff">(region)</text>
<text text-anchor="middle" x="1442" y="-7.8" font-family="Times,serif" font-size="14.00" fill="#ffffff">0 ns</text>
</g>
<!-- 94911334287168&#45;&gt;94911334918512 -->
<g id="edge23" class="edge">
<title>94911334287168&#45;&gt;94911334918512</title>
<path fill="none" stroke="#ffffff" d="M1442,-69.2659C1442,-81.5301 1442,-95.6967 1442,-109.446"/>
<polygon fill="#ffffff" stroke="#ffffff" points="1438.5001,-109.8405 1442,-119.8405 1445.5001,-109.8406 1438.5001,-109.8405"/>
<text text-anchor="middle" x="1544.5" y="-90.8" font-family="Times,serif" font-size="14.00" fill="#ffffff">5 row(s)/1 chunk(s)/1.386KB</text>
</g>
</g>
</svg>
