<?xml version="1.0" encoding="UTF-8" standalone="no"?>
<!DOCTYPE svg PUBLIC "-//W3C//DTD SVG 1.1//EN"
 "http://www.w3.org/Graphics/SVG/1.1/DTD/svg11.dtd">
<!-- Generated by graphviz version 2.40.1 (20161225.0304)
 -->
<!-- Title: G Pages: 1 -->
<svg width="1655pt" height="1652pt"
 viewBox="0.00 0.00 1654.50 1652.00" xmlns="http://www.w3.org/2000/svg" xmlns:xlink="http://www.w3.org/1999/xlink">
<g id="graph0" class="graph" transform="scale(1 1) rotate(0) translate(4 1648)">
<title>G</title>
<polygon fill="#000000" stroke="transparent" points="-4,4 -4,-1648 1650.5,-1648 1650.5,4 -4,4"/>
<!-- 94837501795296 -->
<g id="node1" class="node">
<title>94837501795296</title>
<polygon fill="none" stroke="#ffffff" points="250,-1644 133,-1644 133,-1575 250,-1575 250,-1644"/>
<text text-anchor="middle" x="191.5" y="-1628.8" font-family="Times,serif" font-size="14.00" fill="#ffffff">Alias [n_name</text>
<text text-anchor="middle" x="191.5" y="-1613.8" font-family="Times,serif" font-size="14.00" fill="#ffffff">revenue]</text>
<text text-anchor="middle" x="191.5" y="-1582.8" font-family="Times,serif" font-size="14.00" fill="#ffffff">2 µs 0 ns</text>
</g>
<!-- 94837933979936 -->
<g id="node2" class="node">
<title>94837933979936</title>
<polygon fill="none" stroke="#ffffff" points="236.5,-1524 146.5,-1524 146.5,-1470 236.5,-1470 236.5,-1524"/>
<text text-anchor="middle" x="191.5" y="-1508.8" font-family="Times,serif" font-size="14.00" fill="#ffffff">Sort</text>
<text text-anchor="middle" x="191.5" y="-1477.8" font-family="Times,serif" font-size="14.00" fill="#ffffff">27 µs 0 ns</text>
</g>
<!-- 94837933979936&#45;&gt;94837501795296 -->
<g id="edge1" class="edge">
<title>94837933979936&#45;&gt;94837501795296</title>
<path fill="none" stroke="#ffffff" d="M191.5,-1524.2331C191.5,-1536.3589 191.5,-1550.9621 191.5,-1564.6298"/>
<polygon fill="#ffffff" stroke="#ffffff" points="188.0001,-1564.8427 191.5,-1574.8427 195.0001,-1564.8428 188.0001,-1564.8427"/>
<text text-anchor="middle" x="282" y="-1545.8" font-family="Times,serif" font-size="14.00" fill="#ffffff">5 row(s)/1 chunk(s)/831B</text>
</g>
<!-- 94837437347760 -->
<g id="node3" class="node">
<title>94837437347760</title>
<polygon fill="none" stroke="#ffffff" stroke-width="2" points="375.5,-1419 7.5,-1419 7.5,-1350 375.5,-1350 375.5,-1419"/>
<text text-anchor="middle" x="191.5" y="-1403.8" font-family="Times,serif" font-size="14.00" fill="#ffffff">[Aggregate] GroupBy ColumnIDs: 1 Aggregates: </text>
<text text-anchor="middle" x="191.5" y="-1388.8" font-family="Times,serif" font-size="14.00" fill="#ffffff">SUM(Column #0)</text>
<text text-anchor="middle" x="191.5" y="-1357.8" font-family="Times,serif" font-size="14.00" fill="#ffffff">630 µs 0 ns </text>
</g>
<!-- 94837437347760&#45;&gt;94837933979936 -->
<g id="edge2" class="edge">
<title>94837437347760&#45;&gt;94837933979936</title>
<path fill="none" stroke="#ffffff" d="M191.5,-1419.1717C191.5,-1432.0092 191.5,-1446.6141 191.5,-1459.6774"/>
<polygon fill="#ffffff" stroke="#ffffff" points="188.0001,-1459.7601 191.5,-1469.7602 195.0001,-1459.7602 188.0001,-1459.7601"/>
<text text-anchor="middle" x="282" y="-1440.8" font-family="Times,serif" font-size="14.00" fill="#ffffff">5 row(s)/1 chunk(s)/831B</text>
</g>
<!-- 94837933443072 -->
<g id="node4" class="node">
<title>94837933443072</title>
<polygon fill="none" stroke="#ffffff" stroke-width="2" points="243.5,-1299 139.5,-1299 139.5,-1245 243.5,-1245 243.5,-1299"/>
<text text-anchor="middle" x="191.5" y="-1283.8" font-family="Times,serif" font-size="14.00" fill="#ffffff">Projection</text>
<text text-anchor="middle" x="191.5" y="-1252.8" font-family="Times,serif" font-size="14.00" fill="#ffffff">4 ms 212 µs</text>
</g>
<!-- 94837933443072&#45;&gt;94837437347760 -->
<g id="edge3" class="edge">
<title>94837933443072&#45;&gt;94837437347760</title>
<path fill="none" stroke="#ffffff" stroke-width="2" d="M191.5,-1299.2331C191.5,-1311.3589 191.5,-1325.9621 191.5,-1339.6298"/>
<polygon fill="#ffffff" stroke="#ffffff" stroke-width="2" points="188.0001,-1339.8427 191.5,-1349.8427 195.0001,-1339.8428 188.0001,-1339.8427"/>
<text text-anchor="middle" x="321" y="-1320.8" font-family="Times,serif" font-size="14.00" fill="#ffffff">7375 row(s)/32 chunk(s)/280.500KB</text>
</g>
<!-- 94837932081584 -->
<g id="node5" class="node">
<title>94837932081584</title>
<polygon fill="none" stroke="#ffffff" stroke-width="2" points="291.5,-1194 91.5,-1194 91.5,-1095 291.5,-1095 291.5,-1194"/>
<text text-anchor="middle" x="191.5" y="-1178.8" font-family="Times,serif" font-size="14.00" fill="#ffffff">TableScan</text>
<text text-anchor="middle" x="191.5" y="-1163.8" font-family="Times,serif" font-size="14.00" fill="#ffffff">Impl: ColumnComparison</text>
<text text-anchor="middle" x="191.5" y="-1148.8" font-family="Times,serif" font-size="14.00" fill="#ffffff">c_nationkey = </text>
<text text-anchor="middle" x="191.5" y="-1133.8" font-family="Times,serif" font-size="14.00" fill="#ffffff">s_nationkey</text>
<text text-anchor="middle" x="191.5" y="-1102.8" font-family="Times,serif" font-size="14.00" fill="#ffffff">4 ms 714 µs </text>
</g>
<!-- 94837932081584&#45;&gt;94837933443072 -->
<g id="edge4" class="edge">
<title>94837932081584&#45;&gt;94837933443072</title>
<path fill="none" stroke="#ffffff" stroke-width="2" d="M191.5,-1194.1599C191.5,-1207.598 191.5,-1221.9153 191.5,-1234.5584"/>
<polygon fill="#ffffff" stroke="#ffffff" stroke-width="2" points="188.0001,-1234.7287 191.5,-1244.7287 195.0001,-1234.7288 188.0001,-1234.7287"/>
<text text-anchor="middle" x="321" y="-1215.8" font-family="Times,serif" font-size="14.00" fill="#ffffff">7375 row(s)/32 chunk(s)/977.039KB</text>
</g>
<!-- 94837934005792 -->
<g id="node6" class="node">
<title>94837934005792</title>
<polygon fill="none" stroke="#ffffff" stroke-width="3" points="311,-1044 72,-1044 72,-960 311,-960 311,-1044"/>
<text text-anchor="middle" x="191.5" y="-1028.8" font-family="Times,serif" font-size="14.00" fill="#ffffff">JoinHash</text>
<text text-anchor="middle" x="191.5" y="-1013.8" font-family="Times,serif" font-size="14.00" fill="#ffffff">(Inner Join where c_custkey = </text>
<text text-anchor="middle" x="191.5" y="-998.8" font-family="Times,serif" font-size="14.00" fill="#ffffff">o_custkey)</text>
<text text-anchor="middle" x="191.5" y="-967.8" font-family="Times,serif" font-size="14.00" fill="#ffffff">38 ms 938 µs </text>
</g>
<!-- 94837934005792&#45;&gt;94837932081584 -->
<g id="edge5" class="edge">
<title>94837934005792&#45;&gt;94837932081584</title>
<path fill="none" stroke="#ffffff" stroke-width="3" d="M191.5,-1044.3689C191.5,-1056.9866 191.5,-1071.0589 191.5,-1084.5734"/>
<polygon fill="#ffffff" stroke="#ffffff" stroke-width="3" points="188.0001,-1084.7659 191.5,-1094.7659 195.0001,-1084.766 188.0001,-1084.7659"/>
<text text-anchor="middle" x="327.5" y="-1065.8" font-family="Times,serif" font-size="14.00" fill="#ffffff">184970 row(s)/32 chunk(s)/23.709MB</text>
</g>
<!-- 94837437352768 -->
<g id="node7" class="node">
<title>94837437352768</title>
<polygon fill="none" stroke="#ffffff" stroke-width="2" points="99,-894 4,-894 4,-840 99,-840 99,-894"/>
<text text-anchor="middle" x="51.5" y="-878.8" font-family="Times,serif" font-size="14.00" fill="#ffffff">Projection</text>
<text text-anchor="middle" x="51.5" y="-847.8" font-family="Times,serif" font-size="14.00" fill="#ffffff">1 ms 83 µs</text>
</g>
<!-- 94837437352768&#45;&gt;94837934005792 -->
<g id="edge6" class="edge">
<title>94837437352768&#45;&gt;94837934005792</title>
<path fill="none" stroke="#ffffff" stroke-width="3" d="M46.8277,-894.2286C45.6869,-909.5548 46.9369,-928.3048 56.5,-942 59.1741,-945.8295 62.1509,-949.4178 65.3737,-952.7799"/>
<polygon fill="#ffffff" stroke="#ffffff" stroke-width="3" points="63.1241,-955.4692 72.8004,-959.7843 67.927,-950.3768 63.1241,-955.4692"/>
<text text-anchor="middle" x="183.5" y="-930.8" font-family="Times,serif" font-size="14.00" fill="#ffffff">150000 row(s)/2 chunk(s)/3.001MB</text>
</g>
<!-- 94837437342384 -->
<g id="node8" class="node">
<title>94837437342384</title>
<polygon fill="none" stroke="#ffffff" points="95,-766.5 0,-766.5 0,-697.5 95,-697.5 95,-766.5"/>
<text text-anchor="middle" x="47.5" y="-751.3" font-family="Times,serif" font-size="14.00" fill="#ffffff">GetTable</text>
<text text-anchor="middle" x="47.5" y="-736.3" font-family="Times,serif" font-size="14.00" fill="#ffffff">(customer)</text>
<text text-anchor="middle" x="47.5" y="-705.3" font-family="Times,serif" font-size="14.00" fill="#ffffff">11 µs 0 ns</text>
</g>
<!-- 94837437342384&#45;&gt;94837437352768 -->
<g id="edge7" class="edge">
<title>94837437342384&#45;&gt;94837437352768</title>
<path fill="none" stroke="#ffffff" stroke-width="3" d="M48.5301,-766.7659C49.0991,-785.9703 49.8063,-809.8393 50.3879,-829.4668"/>
<polygon fill="#ffffff" stroke="#ffffff" stroke-width="3" points="46.893,-829.6948 50.6878,-839.5867 53.89,-829.4874 46.893,-829.6948"/>
<text text-anchor="middle" x="182" y="-795.8" font-family="Times,serif" font-size="14.00" fill="#ffffff">150000 row(s)/2 chunk(s)/27.603MB</text>
</g>
<!-- 94837934029984 -->
<g id="node9" class="node">
<title>94837934029984</title>
<polygon fill="none" stroke="#ffffff" stroke-width="3" points="457.5,-909 209.5,-909 209.5,-825 457.5,-825 457.5,-909"/>
<text text-anchor="middle" x="333.5" y="-893.8" font-family="Times,serif" font-size="14.00" fill="#ffffff">JoinHash</text>
<text text-anchor="middle" x="333.5" y="-878.8" font-family="Times,serif" font-size="14.00" fill="#ffffff">(Inner Join where o_orderkey = </text>
<text text-anchor="middle" x="333.5" y="-863.8" font-family="Times,serif" font-size="14.00" fill="#ffffff">l_orderkey)</text>
<text text-anchor="middle" x="333.5" y="-832.8" font-family="Times,serif" font-size="14.00" fill="#ffffff">85 ms 717 µs </text>
</g>
<!-- 94837934029984&#45;&gt;94837934005792 -->
<g id="edge8" class="edge">
<title>94837934029984&#45;&gt;94837934005792</title>
<path fill="none" stroke="#ffffff" stroke-width="3" d="M326.8838,-909.2794C323.476,-920.8465 318.315,-932.7345 310.5,-942 307.0911,-946.0416 303.3427,-949.8397 299.3424,-953.4056"/>
<polygon fill="#ffffff" stroke="#ffffff" stroke-width="3" points="296.8549,-950.9201 291.3621,-959.9799 301.3058,-956.3228 296.8549,-950.9201"/>
<text text-anchor="middle" x="456.5" y="-930.8" font-family="Times,serif" font-size="14.00" fill="#ffffff">184970 row(s)/16 chunk(s)/20.731MB</text>
</g>
<!-- 94837501692928 -->
<g id="node10" class="node">
<title>94837501692928</title>
<polygon fill="none" stroke="#ffffff" points="376.5,-759 286.5,-759 286.5,-705 376.5,-705 376.5,-759"/>
<text text-anchor="middle" x="331.5" y="-743.8" font-family="Times,serif" font-size="14.00" fill="#ffffff">Projection</text>
<text text-anchor="middle" x="331.5" y="-712.8" font-family="Times,serif" font-size="14.00" fill="#ffffff">21 µs 0 ns</text>
</g>
<!-- 94837501692928&#45;&gt;94837934029984 -->
<g id="edge9" class="edge">
<title>94837501692928&#45;&gt;94837934029984</title>
<path fill="none" stroke="#ffffff" stroke-width="3" d="M331.9047,-759.3193C332.1408,-775.2545 332.4465,-795.8871 332.727,-814.8217"/>
<polygon fill="#ffffff" stroke="#ffffff" stroke-width="3" points="329.2274,-814.8819 332.8752,-824.8289 336.2266,-814.7781 329.2274,-814.8819"/>
<text text-anchor="middle" x="465" y="-795.8" font-family="Times,serif" font-size="14.00" fill="#ffffff">227597 row(s)/15 chunk(s)/5.466MB</text>
</g>
<!-- 94837932037744 -->
<g id="node11" class="node">
<title>94837932037744</title>
<polygon fill="none" stroke="#ffffff" stroke-width="3" points="418,-639 237,-639 237,-540 418,-540 418,-639"/>
<text text-anchor="middle" x="327.5" y="-623.8" font-family="Times,serif" font-size="14.00" fill="#ffffff">TableScan</text>
<text text-anchor="middle" x="327.5" y="-608.8" font-family="Times,serif" font-size="14.00" fill="#ffffff">Impl: LiteralTableScan</text>
<text text-anchor="middle" x="327.5" y="-593.8" font-family="Times,serif" font-size="14.00" fill="#ffffff">o_orderdate &lt; </text>
<text text-anchor="middle" x="327.5" y="-578.8" font-family="Times,serif" font-size="14.00" fill="#ffffff">&#39;1995&#45;01&#45;01&#39;</text>
<text text-anchor="middle" x="327.5" y="-547.8" font-family="Times,serif" font-size="14.00" fill="#ffffff">21 ms 361 µs </text>
</g>
<!-- 94837932037744&#45;&gt;94837501692928 -->
<g id="edge10" class="edge">
<title>94837932037744&#45;&gt;94837501692928</title>
<path fill="none" stroke="#ffffff" stroke-width="3" d="M328.899,-639.3396C329.4102,-657.551 329.9791,-677.8196 330.4543,-694.7453"/>
<polygon fill="#ffffff" stroke="#ffffff" stroke-width="3" points="326.9573,-694.9058 330.7366,-704.8036 333.9545,-694.7093 326.9573,-694.9058"/>
<text text-anchor="middle" x="466.5" y="-660.8" font-family="Times,serif" font-size="14.00" fill="#ffffff">227597 row(s)/15 chunk(s)/16.396MB</text>
</g>
<!-- 94837995162688 -->
<g id="node12" class="node">
<title>94837995162688</title>
<polygon fill="none" stroke="#ffffff" stroke-width="3" points="414,-489 233,-489 233,-390 414,-390 414,-489"/>
<text text-anchor="middle" x="323.5" y="-473.8" font-family="Times,serif" font-size="14.00" fill="#ffffff">TableScan</text>
<text text-anchor="middle" x="323.5" y="-458.8" font-family="Times,serif" font-size="14.00" fill="#ffffff">Impl: LiteralTableScan</text>
<text text-anchor="middle" x="323.5" y="-443.8" font-family="Times,serif" font-size="14.00" fill="#ffffff">o_orderdate &gt;= </text>
<text text-anchor="middle" x="323.5" y="-428.8" font-family="Times,serif" font-size="14.00" fill="#ffffff">&#39;1994&#45;01&#45;01&#39;</text>
<text text-anchor="middle" x="323.5" y="-397.8" font-family="Times,serif" font-size="14.00" fill="#ffffff">30 ms 249 µs </text>
</g>
<!-- 94837995162688&#45;&gt;94837932037744 -->
<g id="edge11" class="edge">
<title>94837995162688&#45;&gt;94837932037744</title>
<path fill="none" stroke="#ffffff" stroke-width="4" d="M324.8208,-489.0313C325.1672,-502.0196 325.5444,-516.1643 325.9035,-529.63"/>
<polygon fill="#ffffff" stroke="#ffffff" stroke-width="4" points="322.4083,-529.8615 326.1737,-539.7646 329.4058,-529.6748 322.4083,-529.8615"/>
<text text-anchor="middle" x="467" y="-510.8" font-family="Times,serif" font-size="14.00" fill="#ffffff">1046266 row(s)/15 chunk(s)/75.340MB</text>
</g>
<!-- 94837437361184 -->
<g id="node13" class="node">
<title>94837437361184</title>
<polygon fill="none" stroke="#ffffff" points="364,-339 283,-339 283,-270 364,-270 364,-339"/>
<text text-anchor="middle" x="323.5" y="-323.8" font-family="Times,serif" font-size="14.00" fill="#ffffff">GetTable</text>
<text text-anchor="middle" x="323.5" y="-308.8" font-family="Times,serif" font-size="14.00" fill="#ffffff">(orders)</text>
<text text-anchor="middle" x="323.5" y="-277.8" font-family="Times,serif" font-size="14.00" fill="#ffffff">0 ns</text>
</g>
<!-- 94837437361184&#45;&gt;94837995162688 -->
<g id="edge12" class="edge">
<title>94837437361184&#45;&gt;94837995162688</title>
<path fill="none" stroke="#ffffff" stroke-width="4" d="M323.5,-339.2659C323.5,-351.5301 323.5,-365.6967 323.5,-379.446"/>
<polygon fill="#ffffff" stroke="#ffffff" stroke-width="4" points="320.0001,-379.8405 323.5,-389.8405 327.0001,-379.8406 320.0001,-379.8405"/>
<text text-anchor="middle" x="468.5" y="-360.8" font-family="Times,serif" font-size="14.00" fill="#ffffff">1500000 row(s)/15 chunk(s)/282.028MB</text>
</g>
<!-- 94837994845440 -->
<g id="node14" class="node">
<title>94837994845440</title>
<polygon fill="none" stroke="#ffffff" stroke-width="3" points="745,-774 506,-774 506,-690 745,-690 745,-774"/>
<text text-anchor="middle" x="625.5" y="-758.8" font-family="Times,serif" font-size="14.00" fill="#ffffff">JoinHash</text>
<text text-anchor="middle" x="625.5" y="-743.8" font-family="Times,serif" font-size="14.00" fill="#ffffff">(Inner Join where l_suppkey = </text>
<text text-anchor="middle" x="625.5" y="-728.8" font-family="Times,serif" font-size="14.00" fill="#ffffff">s_suppkey)</text>
<text text-anchor="middle" x="625.5" y="-697.8" font-family="Times,serif" font-size="14.00" fill="#ffffff">117 ms 685 µs </text>
</g>
<!-- 94837994845440&#45;&gt;94837934029984 -->
<g id="edge13" class="edge">
<title>94837994845440&#45;&gt;94837934029984</title>
<path fill="none" stroke="#ffffff" stroke-width="4" d="M619.5169,-774.0865C615.857,-786.2013 609.9686,-798.4399 600.5,-807 580.0948,-825.4473 523.5198,-839.4823 467.6717,-849.3222"/>
<polygon fill="#ffffff" stroke="#ffffff" stroke-width="4" points="466.8901,-845.9051 457.6279,-851.0493 468.0764,-852.8039 466.8901,-845.9051"/>
<text text-anchor="middle" x="753" y="-795.8" font-family="Times,serif" font-size="14.00" fill="#ffffff">1222276 row(s)/1 chunk(s)/107.561MB</text>
</g>
<!-- 94837933495600 -->
<g id="node15" class="node">
<title>94837933495600</title>
<polygon fill="none" stroke="#ffffff" stroke-width="2" points="678.5,-616.5 574.5,-616.5 574.5,-562.5 678.5,-562.5 678.5,-616.5"/>
<text text-anchor="middle" x="626.5" y="-601.3" font-family="Times,serif" font-size="14.00" fill="#ffffff">Projection</text>
<text text-anchor="middle" x="626.5" y="-570.3" font-family="Times,serif" font-size="14.00" fill="#ffffff">3 ms 829 µs</text>
</g>
<!-- 94837933495600&#45;&gt;94837994845440 -->
<g id="edge14" class="edge">
<title>94837933495600&#45;&gt;94837994845440</title>
<path fill="none" stroke="#ffffff" stroke-width="4" d="M626.3096,-616.6386C626.1849,-634.404 626.0179,-658.2016 625.8679,-679.5675"/>
<polygon fill="#ffffff" stroke="#ffffff" stroke-width="4" points="622.3663,-679.7993 625.796,-689.8237 629.3662,-679.8485 622.3663,-679.7993"/>
<text text-anchor="middle" x="771.5" y="-660.8" font-family="Times,serif" font-size="14.00" fill="#ffffff">6001215 row(s)/61 chunk(s)/168.096MB</text>
</g>
<!-- 94837437362496 -->
<g id="node16" class="node">
<title>94837437362496</title>
<polygon fill="none" stroke="#ffffff" points="670.5,-474 584.5,-474 584.5,-405 670.5,-405 670.5,-474"/>
<text text-anchor="middle" x="627.5" y="-458.8" font-family="Times,serif" font-size="14.00" fill="#ffffff">GetTable</text>
<text text-anchor="middle" x="627.5" y="-443.8" font-family="Times,serif" font-size="14.00" fill="#ffffff">(lineitem)</text>
<text text-anchor="middle" x="627.5" y="-412.8" font-family="Times,serif" font-size="14.00" fill="#ffffff">1 µs 0 ns</text>
</g>
<!-- 94837437362496&#45;&gt;94837933495600 -->
<g id="edge15" class="edge">
<title>94837437362496&#45;&gt;94837933495600</title>
<path fill="none" stroke="#ffffff" stroke-width="4" d="M627.2681,-474.29C627.1123,-497.6608 626.9072,-528.4273 626.7481,-552.2872"/>
<polygon fill="#ffffff" stroke="#ffffff" stroke-width="4" points="623.2476,-552.3564 626.6808,-562.3796 630.2475,-552.4032 623.2476,-552.3564"/>
<text text-anchor="middle" x="762" y="-510.8" font-family="Times,serif" font-size="14.00" fill="#ffffff">6001215 row(s)/61 chunk(s)/1.800GB</text>
</g>
<!-- 94837932055808 -->
<g id="node17" class="node">
<title>94837932055808</title>
<polygon fill="none" stroke="#ffffff" stroke-width="2" points="1065,-631.5 812,-631.5 812,-547.5 1065,-547.5 1065,-631.5"/>
<text text-anchor="middle" x="938.5" y="-616.3" font-family="Times,serif" font-size="14.00" fill="#ffffff">JoinHash</text>
<text text-anchor="middle" x="938.5" y="-601.3" font-family="Times,serif" font-size="14.00" fill="#ffffff">(Inner Join where s_nationkey = </text>
<text text-anchor="middle" x="938.5" y="-586.3" font-family="Times,serif" font-size="14.00" fill="#ffffff">n_nationkey)</text>
<text text-anchor="middle" x="938.5" y="-555.3" font-family="Times,serif" font-size="14.00" fill="#ffffff">204 µs 0 ns </text>
</g>
<!-- 94837932055808&#45;&gt;94837994845440 -->
<g id="edge16" class="edge">
<title>94837932055808&#45;&gt;94837994845440</title>
<path fill="none" stroke="#ffffff" stroke-width="2" d="M936.129,-631.8756C933.2186,-646.4134 927.4931,-661.6191 916.5,-672 892.7774,-694.4016 821.439,-709.3149 755.3378,-718.6704"/>
<polygon fill="#ffffff" stroke="#ffffff" stroke-width="2" points="754.6345,-715.2342 745.2064,-720.0676 755.5909,-722.1686 754.6345,-715.2342"/>
<text text-anchor="middle" x="1052.5" y="-660.8" font-family="Times,serif" font-size="14.00" fill="#ffffff">2036 row(s)/1 chunk(s)/114.713KB</text>
</g>
<!-- 94837933686224 -->
<g id="node18" class="node">
<title>94837933686224</title>
<polygon fill="none" stroke="#ffffff" points="974.5,-466.5 884.5,-466.5 884.5,-412.5 974.5,-412.5 974.5,-466.5"/>
<text text-anchor="middle" x="929.5" y="-451.3" font-family="Times,serif" font-size="14.00" fill="#ffffff">Projection</text>
<text text-anchor="middle" x="929.5" y="-420.3" font-family="Times,serif" font-size="14.00" fill="#ffffff">20 µs 0 ns</text>
</g>
<!-- 94837933686224&#45;&gt;94837932055808 -->
<g id="edge17" class="edge">
<title>94837933686224&#45;&gt;94837932055808</title>
<path fill="none" stroke="#ffffff" stroke-width="2" d="M929.1074,-466.6527C929.0544,-482.7567 929.299,-503.5612 930.5,-522 930.8272,-527.0231 931.2675,-532.2464 931.774,-537.4636"/>
<polygon fill="#ffffff" stroke="#ffffff" stroke-width="2" points="928.2956,-537.8536 932.8176,-547.4349 935.2576,-537.1249 928.2956,-537.8536"/>
<text text-anchor="middle" x="1060" y="-510.8" font-family="Times,serif" font-size="14.00" fill="#ffffff">10000 row(s)/1 chunk(s)/200.812KB</text>
</g>
<!-- 94837437346640 -->
<g id="node19" class="node">
<title>94837437346640</title>
<polygon fill="none" stroke="#ffffff" points="972.5,-339 886.5,-339 886.5,-270 972.5,-270 972.5,-339"/>
<text text-anchor="middle" x="929.5" y="-323.8" font-family="Times,serif" font-size="14.00" fill="#ffffff">GetTable</text>
<text text-anchor="middle" x="929.5" y="-308.8" font-family="Times,serif" font-size="14.00" fill="#ffffff">(supplier)</text>
<text text-anchor="middle" x="929.5" y="-277.8" font-family="Times,serif" font-size="14.00" fill="#ffffff">1 µs 0 ns</text>
</g>
<!-- 94837437346640&#45;&gt;94837933686224 -->
<g id="edge18" class="edge">
<title>94837437346640&#45;&gt;94837933686224</title>
<path fill="none" stroke="#ffffff" stroke-width="2" d="M929.5,-339.2659C929.5,-358.4703 929.5,-382.3393 929.5,-401.9668"/>
<polygon fill="#ffffff" stroke="#ffffff" stroke-width="2" points="926.0001,-402.0867 929.5,-412.0867 933.0001,-402.0867 926.0001,-402.0867"/>
<text text-anchor="middle" x="1052" y="-360.8" font-family="Times,serif" font-size="14.00" fill="#ffffff">10000 row(s)/1 chunk(s)/1.521MB</text>
</g>
<!-- 94837933745792 -->
<g id="node20" class="node">
<title>94837933745792</title>
<polygon fill="none" stroke="#ffffff" stroke-width="2" points="1339,-481.5 1084,-481.5 1084,-397.5 1339,-397.5 1339,-481.5"/>
<text text-anchor="middle" x="1211.5" y="-466.3" font-family="Times,serif" font-size="14.00" fill="#ffffff">JoinHash</text>
<text text-anchor="middle" x="1211.5" y="-451.3" font-family="Times,serif" font-size="14.00" fill="#ffffff">(Inner Join where n_regionkey = </text>
<text text-anchor="middle" x="1211.5" y="-436.3" font-family="Times,serif" font-size="14.00" fill="#ffffff">r_regionkey)</text>
<text text-anchor="middle" x="1211.5" y="-405.3" font-family="Times,serif" font-size="14.00" fill="#ffffff">105 µs 0 ns </text>
</g>
<!-- 94837933745792&#45;&gt;94837932055808 -->
<g id="edge19" class="edge">
<title>94837933745792&#45;&gt;94837932055808</title>
<path fill="none" stroke="#ffffff" d="M1208.7892,-481.5264C1205.8421,-496.0263 1200.1801,-511.2974 1189.5,-522 1172.1684,-539.3682 1124.2666,-554.1612 1074.8951,-565.4327"/>
<polygon fill="#ffffff" stroke="#ffffff" points="1074.0068,-562.0447 1065.0098,-567.6397 1075.5322,-568.8765 1074.0068,-562.0447"/>
<text text-anchor="middle" x="1291" y="-510.8" font-family="Times,serif" font-size="14.00" fill="#ffffff">5 row(s)/1 chunk(s)/765B</text>
</g>
<!-- 94837933543920 -->
<g id="node21" class="node">
<title>94837933543920</title>
<polygon fill="none" stroke="#ffffff" points="1249.5,-331.5 1159.5,-331.5 1159.5,-277.5 1249.5,-277.5 1249.5,-331.5"/>
<text text-anchor="middle" x="1204.5" y="-316.3" font-family="Times,serif" font-size="14.00" fill="#ffffff">Projection</text>
<text text-anchor="middle" x="1204.5" y="-285.3" font-family="Times,serif" font-size="14.00" fill="#ffffff">5 µs 0 ns</text>
</g>
<!-- 94837933543920&#45;&gt;94837933745792 -->
<g id="edge20" class="edge">
<title>94837933543920&#45;&gt;94837933745792</title>
<path fill="none" stroke="#ffffff" d="M1204.4464,-331.7749C1204.5401,-344.0725 1204.8151,-358.7741 1205.5,-372 1205.7529,-376.8833 1206.0818,-381.9601 1206.4554,-387.039"/>
<polygon fill="#ffffff" stroke="#ffffff" points="1202.9976,-387.7124 1207.2749,-397.4054 1209.9758,-387.1607 1202.9976,-387.7124"/>
<text text-anchor="middle" x="1312.5" y="-360.8" font-family="Times,serif" font-size="14.00" fill="#ffffff">25 row(s)/1 chunk(s)/2.288KB</text>
</g>
<!-- 94837437348176 -->
<g id="node22" class="node">
<title>94837437348176</title>
<polygon fill="none" stroke="#ffffff" points="1245,-204 1164,-204 1164,-135 1245,-135 1245,-204"/>
<text text-anchor="middle" x="1204.5" y="-188.8" font-family="Times,serif" font-size="14.00" fill="#ffffff">GetTable</text>
<text text-anchor="middle" x="1204.5" y="-173.8" font-family="Times,serif" font-size="14.00" fill="#ffffff">(nation)</text>
<text text-anchor="middle" x="1204.5" y="-142.8" font-family="Times,serif" font-size="14.00" fill="#ffffff">0 ns</text>
</g>
<!-- 94837437348176&#45;&gt;94837933543920 -->
<g id="edge21" class="edge">
<title>94837437348176&#45;&gt;94837933543920</title>
<path fill="none" stroke="#ffffff" d="M1204.5,-204.2659C1204.5,-223.4703 1204.5,-247.3393 1204.5,-266.9668"/>
<polygon fill="#ffffff" stroke="#ffffff" points="1201.0001,-267.0867 1204.5,-277.0867 1208.0001,-267.0867 1201.0001,-267.0867"/>
<text text-anchor="middle" x="1311.5" y="-240.8" font-family="Times,serif" font-size="14.00" fill="#ffffff">25 row(s)/1 chunk(s)/3.265KB</text>
</g>
<!-- 94837932028608 -->
<g id="node23" class="node">
<title>94837932028608</title>
<polygon fill="none" stroke="#ffffff" points="1486.5,-331.5 1396.5,-331.5 1396.5,-277.5 1486.5,-277.5 1486.5,-331.5"/>
<text text-anchor="middle" x="1441.5" y="-316.3" font-family="Times,serif" font-size="14.00" fill="#ffffff">Projection</text>
<text text-anchor="middle" x="1441.5" y="-285.3" font-family="Times,serif" font-size="14.00" fill="#ffffff">4 µs 0 ns</text>
</g>
<!-- 94837932028608&#45;&gt;94837933745792 -->
<g id="edge22" class="edge">
<title>94837932028608&#45;&gt;94837933745792</title>
<path fill="none" stroke="#ffffff" d="M1438.5417,-331.5517C1435.7245,-345.286 1430.2268,-361.2868 1419.5,-372 1407.8757,-383.6095 1380.3381,-395.0841 1348.9754,-405.1881"/>
<polygon fill="#ffffff" stroke="#ffffff" points="1347.625,-401.9436 1339.1327,-408.2785 1349.722,-408.6221 1347.625,-401.9436"/>
<text text-anchor="middle" x="1520" y="-360.8" font-family="Times,serif" font-size="14.00" fill="#ffffff">1 row(s)/1 chunk(s)/385B</text>
</g>
<!-- 94837933062432 -->
<g id="node24" class="node">
<title>94837933062432</title>
<polygon fill="none" stroke="#ffffff" points="1532,-219 1351,-219 1351,-120 1532,-120 1532,-219"/>
<text text-anchor="middle" x="1441.5" y="-203.8" font-family="Times,serif" font-size="14.00" fill="#ffffff">TableScan</text>
<text text-anchor="middle" x="1441.5" y="-188.8" font-family="Times,serif" font-size="14.00" fill="#ffffff">Impl: LiteralTableScan</text>
<text text-anchor="middle" x="1441.5" y="-173.8" font-family="Times,serif" font-size="14.00" fill="#ffffff">r_name = </text>
<text text-anchor="middle" x="1441.5" y="-158.8" font-family="Times,serif" font-size="14.00" fill="#ffffff">&#39;AMERICA&#39;</text>
<text text-anchor="middle" x="1441.5" y="-127.8" font-family="Times,serif" font-size="14.00" fill="#ffffff">24 µs 0 ns </text>
</g>
<!-- 94837933062432&#45;&gt;94837932028608 -->
<g id="edge23" class="edge">
<title>94837933062432&#45;&gt;94837932028608</title>
<path fill="none" stroke="#ffffff" d="M1441.5,-219.0024C1441.5,-234.8677 1441.5,-252.1639 1441.5,-267.0225"/>
<polygon fill="#ffffff" stroke="#ffffff" points="1438.0001,-267.3558 1441.5,-277.3558 1445.0001,-267.3558 1438.0001,-267.3558"/>
<text text-anchor="middle" x="1532" y="-240.8" font-family="Times,serif" font-size="14.00" fill="#ffffff">1 row(s)/1 chunk(s)/458B</text>
</g>
<!-- 94837933701200 -->
<g id="node25" class="node">
<title>94837933701200</title>
<polygon fill="none" stroke="#ffffff" points="1482,-69 1401,-69 1401,0 1482,0 1482,-69"/>
<text text-anchor="middle" x="1441.5" y="-53.8" font-family="Times,serif" font-size="14.00" fill="#ffffff">GetTable</text>
<text text-anchor="middle" x="1441.5" y="-38.8" font-family="Times,serif" font-size="14.00" fill="#ffffff">(region)</text>
<text text-anchor="middle" x="1441.5" y="-7.8" font-family="Times,serif" font-size="14.00" fill="#ffffff">0 ns</text>
</g>
<!-- 94837933701200&#45;&gt;94837933062432 -->
<g id="edge24" class="edge">
<title>94837933701200&#45;&gt;94837933062432</title>
<path fill="none" stroke="#ffffff" d="M1441.5,-69.2659C1441.5,-81.5301 1441.5,-95.6967 1441.5,-109.446"/>
<polygon fill="#ffffff" stroke="#ffffff" points="1438.0001,-109.8405 1441.5,-119.8405 1445.0001,-109.8406 1438.0001,-109.8405"/>
<text text-anchor="middle" x="1544" y="-90.8" font-family="Times,serif" font-size="14.00" fill="#ffffff">5 row(s)/1 chunk(s)/1.386KB</text>
</g>
</g>
</svg>
