<?xml version="1.0" encoding="UTF-8" standalone="no"?>
<!DOCTYPE svg PUBLIC "-//W3C//DTD SVG 1.1//EN"
 "http://www.w3.org/Graphics/SVG/1.1/DTD/svg11.dtd">
<!-- Generated by graphviz version 2.40.1 (20161225.0304)
 -->
<!-- Title: G Pages: 1 -->
<svg width="661pt" height="1562pt"
 viewBox="0.00 0.00 661.00 1562.00" xmlns="http://www.w3.org/2000/svg" xmlns:xlink="http://www.w3.org/1999/xlink">
<g id="graph0" class="graph" transform="scale(1 1) rotate(0) translate(4 1558)">
<title>G</title>
<polygon fill="#000000" stroke="transparent" points="-4,4 -4,-1558 657,-1558 657,4 -4,4"/>
<!-- 94837303644912 -->
<g id="node1" class="node">
<title>94837303644912</title>
<polygon fill="none" stroke="#ffffff" points="273,-1554 143,-1554 143,-1440 273,-1440 273,-1554"/>
<text text-anchor="middle" x="208" y="-1538.8" font-family="Times,serif" font-size="14.00" fill="#ffffff">Alias </text>
<text text-anchor="middle" x="208" y="-1523.8" font-family="Times,serif" font-size="14.00" fill="#ffffff">[l_shipmode</text>
<text text-anchor="middle" x="208" y="-1508.8" font-family="Times,serif" font-size="14.00" fill="#ffffff">high_line_count</text>
<text text-anchor="middle" x="208" y="-1493.8" font-family="Times,serif" font-size="14.00" fill="#ffffff">low_line_count]</text>
<text text-anchor="middle" x="208" y="-1462.8" font-family="Times,serif" font-size="14.00" fill="#ffffff">2 </text>
<text text-anchor="middle" x="208" y="-1447.8" font-family="Times,serif" font-size="14.00" fill="#ffffff">µs 0 ns </text>
</g>
<!-- 94837951267888 -->
<g id="node2" class="node">
<title>94837951267888</title>
<polygon fill="none" stroke="#ffffff" points="253,-1389 163,-1389 163,-1335 253,-1335 253,-1389"/>
<text text-anchor="middle" x="208" y="-1373.8" font-family="Times,serif" font-size="14.00" fill="#ffffff">Sort</text>
<text text-anchor="middle" x="208" y="-1342.8" font-family="Times,serif" font-size="14.00" fill="#ffffff">26 µs 0 ns</text>
</g>
<!-- 94837951267888&#45;&gt;94837303644912 -->
<g id="edge1" class="edge">
<title>94837951267888&#45;&gt;94837303644912</title>
<path fill="none" stroke="#ffffff" d="M208,-1389.3193C208,-1401.0368 208,-1415.2943 208,-1429.5489"/>
<polygon fill="#ffffff" stroke="#ffffff" points="204.5001,-1429.8915 208,-1439.8916 211.5001,-1429.8916 204.5001,-1429.8915"/>
<text text-anchor="middle" x="310.5" y="-1410.8" font-family="Times,serif" font-size="14.00" fill="#ffffff">2 row(s)/1 chunk(s)/1.041KB</text>
</g>
<!-- 94837502472960 -->
<g id="node3" class="node">
<title>94837502472960</title>
<polygon fill="none" stroke="#ffffff" stroke-width="2" points="392,-1284 24,-1284 24,-1215 392,-1215 392,-1284"/>
<text text-anchor="middle" x="208" y="-1268.8" font-family="Times,serif" font-size="14.00" fill="#ffffff">[Aggregate] GroupBy ColumnIDs: 2 Aggregates: </text>
<text text-anchor="middle" x="208" y="-1253.8" font-family="Times,serif" font-size="14.00" fill="#ffffff">SUM(Column #0), SUM(Column #1)</text>
<text text-anchor="middle" x="208" y="-1222.8" font-family="Times,serif" font-size="14.00" fill="#ffffff">2 ms 696 µs </text>
</g>
<!-- 94837502472960&#45;&gt;94837951267888 -->
<g id="edge2" class="edge">
<title>94837502472960&#45;&gt;94837951267888</title>
<path fill="none" stroke="#ffffff" d="M208,-1284.1717C208,-1297.0092 208,-1311.6141 208,-1324.6774"/>
<polygon fill="#ffffff" stroke="#ffffff" points="204.5001,-1324.7601 208,-1334.7602 211.5001,-1324.7602 204.5001,-1324.7601"/>
<text text-anchor="middle" x="310.5" y="-1305.8" font-family="Times,serif" font-size="14.00" fill="#ffffff">2 row(s)/1 chunk(s)/1.041KB</text>
</g>
<!-- 94837180349072 -->
<g id="node4" class="node">
<title>94837180349072</title>
<polygon fill="none" stroke="#ffffff" stroke-width="3" points="260,-1164 156,-1164 156,-1110 260,-1110 260,-1164"/>
<text text-anchor="middle" x="208" y="-1148.8" font-family="Times,serif" font-size="14.00" fill="#ffffff">Projection</text>
<text text-anchor="middle" x="208" y="-1117.8" font-family="Times,serif" font-size="14.00" fill="#ffffff">14 ms 27 µs</text>
</g>
<!-- 94837180349072&#45;&gt;94837502472960 -->
<g id="edge3" class="edge">
<title>94837180349072&#45;&gt;94837502472960</title>
<path fill="none" stroke="#ffffff" stroke-width="3" d="M208,-1164.2331C208,-1176.3589 208,-1190.9621 208,-1204.6298"/>
<polygon fill="#ffffff" stroke="#ffffff" stroke-width="3" points="204.5001,-1204.8427 208,-1214.8427 211.5001,-1204.8428 204.5001,-1204.8427"/>
<text text-anchor="middle" x="330.5" y="-1185.8" font-family="Times,serif" font-size="14.00" fill="#ffffff">30988 row(s)/8 chunk(s)/1.306MB</text>
</g>
<!-- 94837948809920 -->
<g id="node5" class="node">
<title>94837948809920</title>
<polygon fill="none" stroke="#ffffff" stroke-width="3" points="332,-1059 84,-1059 84,-975 332,-975 332,-1059"/>
<text text-anchor="middle" x="208" y="-1043.8" font-family="Times,serif" font-size="14.00" fill="#ffffff">JoinHash</text>
<text text-anchor="middle" x="208" y="-1028.8" font-family="Times,serif" font-size="14.00" fill="#ffffff">(Inner Join where o_orderkey = </text>
<text text-anchor="middle" x="208" y="-1013.8" font-family="Times,serif" font-size="14.00" fill="#ffffff">l_orderkey)</text>
<text text-anchor="middle" x="208" y="-982.8" font-family="Times,serif" font-size="14.00" fill="#ffffff">34 ms 34 µs </text>
</g>
<!-- 94837948809920&#45;&gt;94837180349072 -->
<g id="edge4" class="edge">
<title>94837948809920&#45;&gt;94837180349072</title>
<path fill="none" stroke="#ffffff" stroke-width="3" d="M208,-1059.3075C208,-1072.3814 208,-1086.686 208,-1099.4178"/>
<polygon fill="#ffffff" stroke="#ffffff" stroke-width="3" points="204.5001,-1099.681 208,-1109.681 211.5001,-1099.6811 204.5001,-1099.681"/>
<text text-anchor="middle" x="330.5" y="-1080.8" font-family="Times,serif" font-size="14.00" fill="#ffffff">30988 row(s)/8 chunk(s)/1.739MB</text>
</g>
<!-- 94837176059120 -->
<g id="node6" class="node">
<title>94837176059120</title>
<polygon fill="none" stroke="#ffffff" stroke-width="2" points="104,-924 0,-924 0,-870 104,-870 104,-924"/>
<text text-anchor="middle" x="52" y="-908.8" font-family="Times,serif" font-size="14.00" fill="#ffffff">Projection</text>
<text text-anchor="middle" x="52" y="-877.8" font-family="Times,serif" font-size="14.00" fill="#ffffff">1 ms 151 µs</text>
</g>
<!-- 94837176059120&#45;&gt;94837948809920 -->
<g id="edge5" class="edge">
<title>94837176059120&#45;&gt;94837948809920</title>
<path fill="none" stroke="#ffffff" stroke-width="4" d="M46.7433,-924.1576C46.072,-935.2511 47.3732,-947.6445 54,-957 59.9708,-965.4293 67.3077,-972.6744 75.5084,-978.9016"/>
<polygon fill="#ffffff" stroke="#ffffff" stroke-width="4" points="73.7711,-981.9567 83.9785,-984.7957 77.7695,-976.2109 73.7711,-981.9567"/>
<text text-anchor="middle" x="194.5" y="-945.8" font-family="Times,serif" font-size="14.00" fill="#ffffff">1500000 row(s)/15 chunk(s)/72.010MB</text>
</g>
<!-- 94837956948976 -->
<g id="node7" class="node">
<title>94837956948976</title>
<polygon fill="none" stroke="#ffffff" points="90.5,-804 9.5,-804 9.5,-735 90.5,-735 90.5,-804"/>
<text text-anchor="middle" x="50" y="-788.8" font-family="Times,serif" font-size="14.00" fill="#ffffff">GetTable</text>
<text text-anchor="middle" x="50" y="-773.8" font-family="Times,serif" font-size="14.00" fill="#ffffff">(orders)</text>
<text text-anchor="middle" x="50" y="-742.8" font-family="Times,serif" font-size="14.00" fill="#ffffff">0 ns</text>
</g>
<!-- 94837956948976&#45;&gt;94837176059120 -->
<g id="edge6" class="edge">
<title>94837956948976&#45;&gt;94837176059120</title>
<path fill="none" stroke="#ffffff" stroke-width="4" d="M50.5412,-804.0033C50.8095,-821.104 51.1339,-841.7892 51.4087,-859.3049"/>
<polygon fill="#ffffff" stroke="#ffffff" stroke-width="4" points="47.9159,-859.7971 51.5724,-869.7409 54.915,-859.6872 47.9159,-859.7971"/>
<text text-anchor="middle" x="197" y="-840.8" font-family="Times,serif" font-size="14.00" fill="#ffffff">1500000 row(s)/15 chunk(s)/282.028MB</text>
</g>
<!-- 94837300238000 -->
<g id="node8" class="node">
<title>94837300238000</title>
<polygon fill="none" stroke="#ffffff" points="407,-924 317,-924 317,-870 407,-870 407,-924"/>
<text text-anchor="middle" x="362" y="-908.8" font-family="Times,serif" font-size="14.00" fill="#ffffff">Projection</text>
<text text-anchor="middle" x="362" y="-877.8" font-family="Times,serif" font-size="14.00" fill="#ffffff">50 µs 0 ns</text>
</g>
<!-- 94837300238000&#45;&gt;94837948809920 -->
<g id="edge7" class="edge">
<title>94837300238000&#45;&gt;94837948809920</title>
<path fill="none" stroke="#ffffff" stroke-width="3" d="M356.3782,-924.2511C352.9235,-935.4912 347.4739,-947.9707 339,-957 334.9972,-961.2651 330.6328,-965.2517 326.0061,-968.975"/>
<polygon fill="#ffffff" stroke="#ffffff" stroke-width="3" points="323.8842,-966.1914 317.9897,-974.9951 328.0877,-971.7887 323.8842,-966.1914"/>
<text text-anchor="middle" x="476" y="-945.8" font-family="Times,serif" font-size="14.00" fill="#ffffff">30988 row(s)/61 chunk(s)/1.264MB</text>
</g>
<!-- 94837398090400 -->
<g id="node9" class="node">
<title>94837398090400</title>
<polygon fill="none" stroke="#ffffff" stroke-width="3" points="467,-819 259,-819 259,-720 467,-720 467,-819"/>
<text text-anchor="middle" x="363" y="-803.8" font-family="Times,serif" font-size="14.00" fill="#ffffff">TableScan</text>
<text text-anchor="middle" x="363" y="-788.8" font-family="Times,serif" font-size="14.00" fill="#ffffff">Impl: ExpressionEvaluator</text>
<text text-anchor="middle" x="363" y="-773.8" font-family="Times,serif" font-size="14.00" fill="#ffffff">(l_shipmode) </text>
<text text-anchor="middle" x="363" y="-758.8" font-family="Times,serif" font-size="14.00" fill="#ffffff">IN (&#39;MAIL&#39;, &#39;SHIP&#39;)</text>
<text text-anchor="middle" x="363" y="-727.8" font-family="Times,serif" font-size="14.00" fill="#ffffff">18 ms 935 µs </text>
</g>
<!-- 94837398090400&#45;&gt;94837300238000 -->
<g id="edge8" class="edge">
<title>94837398090400&#45;&gt;94837300238000</title>
<path fill="none" stroke="#ffffff" stroke-width="3" d="M362.6105,-819.1599C362.5051,-832.598 362.3928,-846.9153 362.2937,-859.5584"/>
<polygon fill="#ffffff" stroke="#ffffff" stroke-width="3" points="358.7925,-859.7015 362.2139,-869.7287 365.7923,-859.7565 358.7925,-859.7015"/>
<text text-anchor="middle" x="489" y="-840.8" font-family="Times,serif" font-size="14.00" fill="#ffffff">30988 row(s)/61 chunk(s)/4.029MB</text>
</g>
<!-- 94837999161072 -->
<g id="node10" class="node">
<title>94837999161072</title>
<polygon fill="none" stroke="#ffffff" stroke-width="3" points="463,-669 263,-669 263,-570 463,-570 463,-669"/>
<text text-anchor="middle" x="363" y="-653.8" font-family="Times,serif" font-size="14.00" fill="#ffffff">TableScan</text>
<text text-anchor="middle" x="363" y="-638.8" font-family="Times,serif" font-size="14.00" fill="#ffffff">Impl: ColumnComparison</text>
<text text-anchor="middle" x="363" y="-623.8" font-family="Times,serif" font-size="14.00" fill="#ffffff">l_shipdate &lt; </text>
<text text-anchor="middle" x="363" y="-608.8" font-family="Times,serif" font-size="14.00" fill="#ffffff">l_commitdate</text>
<text text-anchor="middle" x="363" y="-577.8" font-family="Times,serif" font-size="14.00" fill="#ffffff">76 ms 56 µs </text>
</g>
<!-- 94837999161072&#45;&gt;94837398090400 -->
<g id="edge9" class="edge">
<title>94837999161072&#45;&gt;94837398090400</title>
<path fill="none" stroke="#ffffff" stroke-width="3" d="M363,-669.0313C363,-682.0196 363,-696.1643 363,-709.63"/>
<polygon fill="#ffffff" stroke="#ffffff" stroke-width="3" points="359.5001,-709.7646 363,-719.7646 366.5001,-709.7646 359.5001,-709.7646"/>
<text text-anchor="middle" x="499" y="-690.8" font-family="Times,serif" font-size="14.00" fill="#ffffff">108434 row(s)/61 chunk(s)/13.942MB</text>
</g>
<!-- 94837958381920 -->
<g id="node11" class="node">
<title>94837958381920</title>
<polygon fill="none" stroke="#ffffff" stroke-width="3" points="463,-519 263,-519 263,-420 463,-420 463,-519"/>
<text text-anchor="middle" x="363" y="-503.8" font-family="Times,serif" font-size="14.00" fill="#ffffff">TableScan</text>
<text text-anchor="middle" x="363" y="-488.8" font-family="Times,serif" font-size="14.00" fill="#ffffff">Impl: ColumnComparison</text>
<text text-anchor="middle" x="363" y="-473.8" font-family="Times,serif" font-size="14.00" fill="#ffffff">l_commitdate &lt; </text>
<text text-anchor="middle" x="363" y="-458.8" font-family="Times,serif" font-size="14.00" fill="#ffffff">l_receiptdate</text>
<text text-anchor="middle" x="363" y="-427.8" font-family="Times,serif" font-size="14.00" fill="#ffffff">94 ms 239 µs </text>
</g>
<!-- 94837958381920&#45;&gt;94837999161072 -->
<g id="edge10" class="edge">
<title>94837958381920&#45;&gt;94837999161072</title>
<path fill="none" stroke="#ffffff" stroke-width="3" d="M363,-519.0313C363,-532.0196 363,-546.1643 363,-559.63"/>
<polygon fill="#ffffff" stroke="#ffffff" stroke-width="3" points="359.5001,-559.7646 363,-569.7646 366.5001,-559.7646 359.5001,-559.7646"/>
<text text-anchor="middle" x="499" y="-540.8" font-family="Times,serif" font-size="14.00" fill="#ffffff">575457 row(s)/61 chunk(s)/73.721MB</text>
</g>
<!-- 94837938711104 -->
<g id="node12" class="node">
<title>94837938711104</title>
<polygon fill="none" stroke="#ffffff" stroke-width="3" points="453.5,-369 272.5,-369 272.5,-270 453.5,-270 453.5,-369"/>
<text text-anchor="middle" x="363" y="-353.8" font-family="Times,serif" font-size="14.00" fill="#ffffff">TableScan</text>
<text text-anchor="middle" x="363" y="-338.8" font-family="Times,serif" font-size="14.00" fill="#ffffff">Impl: LiteralTableScan</text>
<text text-anchor="middle" x="363" y="-323.8" font-family="Times,serif" font-size="14.00" fill="#ffffff">l_receiptdate &lt; </text>
<text text-anchor="middle" x="363" y="-308.8" font-family="Times,serif" font-size="14.00" fill="#ffffff">&#39;1995&#45;01&#45;01&#39;</text>
<text text-anchor="middle" x="363" y="-277.8" font-family="Times,serif" font-size="14.00" fill="#ffffff">76 ms 897 µs </text>
</g>
<!-- 94837938711104&#45;&gt;94837958381920 -->
<g id="edge11" class="edge">
<title>94837938711104&#45;&gt;94837958381920</title>
<path fill="none" stroke="#ffffff" stroke-width="3" d="M363,-369.0313C363,-382.0196 363,-396.1643 363,-409.63"/>
<polygon fill="#ffffff" stroke="#ffffff" stroke-width="3" points="359.5001,-409.7646 363,-419.7646 366.5001,-409.7646 359.5001,-409.7646"/>
<text text-anchor="middle" x="503.5" y="-390.8" font-family="Times,serif" font-size="14.00" fill="#ffffff">909844 row(s)/61 chunk(s)/116.522MB</text>
</g>
<!-- 94837308255776 -->
<g id="node13" class="node">
<title>94837308255776</title>
<polygon fill="none" stroke="#ffffff" stroke-width="3" points="453.5,-219 272.5,-219 272.5,-120 453.5,-120 453.5,-219"/>
<text text-anchor="middle" x="363" y="-203.8" font-family="Times,serif" font-size="14.00" fill="#ffffff">TableScan</text>
<text text-anchor="middle" x="363" y="-188.8" font-family="Times,serif" font-size="14.00" fill="#ffffff">Impl: LiteralTableScan</text>
<text text-anchor="middle" x="363" y="-173.8" font-family="Times,serif" font-size="14.00" fill="#ffffff">l_receiptdate &gt;= </text>
<text text-anchor="middle" x="363" y="-158.8" font-family="Times,serif" font-size="14.00" fill="#ffffff">&#39;1994&#45;01&#45;01&#39;</text>
<text text-anchor="middle" x="363" y="-127.8" font-family="Times,serif" font-size="14.00" fill="#ffffff">98 ms 605 µs </text>
</g>
<!-- 94837308255776&#45;&gt;94837938711104 -->
<g id="edge12" class="edge">
<title>94837308255776&#45;&gt;94837938711104</title>
<path fill="none" stroke="#ffffff" stroke-width="4" d="M363,-219.0313C363,-232.0196 363,-246.1643 363,-259.63"/>
<polygon fill="#ffffff" stroke="#ffffff" stroke-width="4" points="359.5001,-259.7646 363,-269.7646 366.5001,-259.7646 359.5001,-259.7646"/>
<text text-anchor="middle" x="508" y="-240.8" font-family="Times,serif" font-size="14.00" fill="#ffffff">4374812 row(s)/61 chunk(s)/560.038MB</text>
</g>
<!-- 94837959569776 -->
<g id="node14" class="node">
<title>94837959569776</title>
<polygon fill="none" stroke="#ffffff" points="406,-69 320,-69 320,0 406,0 406,-69"/>
<text text-anchor="middle" x="363" y="-53.8" font-family="Times,serif" font-size="14.00" fill="#ffffff">GetTable</text>
<text text-anchor="middle" x="363" y="-38.8" font-family="Times,serif" font-size="14.00" fill="#ffffff">(lineitem)</text>
<text text-anchor="middle" x="363" y="-7.8" font-family="Times,serif" font-size="14.00" fill="#ffffff">0 ns</text>
</g>
<!-- 94837959569776&#45;&gt;94837308255776 -->
<g id="edge13" class="edge">
<title>94837959569776&#45;&gt;94837308255776</title>
<path fill="none" stroke="#ffffff" stroke-width="4" d="M363,-69.2659C363,-81.5301 363,-95.6967 363,-109.446"/>
<polygon fill="#ffffff" stroke="#ffffff" stroke-width="4" points="359.5001,-109.8405 363,-119.8405 366.5001,-109.8406 359.5001,-109.8405"/>
<text text-anchor="middle" x="497.5" y="-90.8" font-family="Times,serif" font-size="14.00" fill="#ffffff">6001215 row(s)/61 chunk(s)/1.800GB</text>
</g>
</g>
</svg>
