<?xml version="1.0" encoding="UTF-8" standalone="no"?>
<!DOCTYPE svg PUBLIC "-//W3C//DTD SVG 1.1//EN"
 "http://www.w3.org/Graphics/SVG/1.1/DTD/svg11.dtd">
<!-- Generated by graphviz version 2.40.1 (20161225.0304)
 -->
<!-- Title: G Pages: 1 -->
<svg width="722pt" height="1144pt"
 viewBox="0.00 0.00 722.00 1144.00" xmlns="http://www.w3.org/2000/svg" xmlns:xlink="http://www.w3.org/1999/xlink">
<g id="graph0" class="graph" transform="scale(1 1) rotate(0) translate(4 1140)">
<title>G</title>
<polygon fill="#000000" stroke="transparent" points="-4,4 -4,-1140 718,-1140 718,4 -4,4"/>
<!-- 94837938814912 -->
<g id="node1" class="node">
<title>94837938814912</title>
<polygon fill="none" stroke="#ffffff" points="520.5,-1136 105.5,-1136 105.5,-1053 520.5,-1053 520.5,-1136"/>
<text text-anchor="middle" x="313" y="-1120.8" font-family="Times,serif" font-size="14.00" fill="#ffffff">Alias [l_shipmode, SUM(CASE WHEN o_orderpriority </text>
<text text-anchor="middle" x="313" y="-1105.8" font-family="Times,serif" font-size="14.00" fill="#ffffff">= &#39;1&#45;URGENT&#39; OR o_orderpriority = &#39;2&#45;HIGH&#39; THEN 1 </text>
<text text-anchor="middle" x="313" y="-1090.8" font-family="Times,serif" font-size="14.00" fill="#ffffff">ELSE 0 END) AS high_line_count, SUM(CASE WHEN </text>
<text text-anchor="middle" x="313" y="-1075.8" font-family="Times,serif" font-size="14.00" fill="#ffffff">o_orderpriority != &#39;1&#45;URGENT&#39; AND o_orderpriority </text>
<text text-anchor="middle" x="313" y="-1060.8" font-family="Times,serif" font-size="14.00" fill="#ffffff">!= &#39;2&#45;HIGH&#39; THEN 1 ELSE 0 END) AS low_line_count] </text>
</g>
<!-- 94837956994944 -->
<g id="node2" class="node">
<title>94837956994944</title>
<polygon fill="none" stroke="#ffffff" points="429.5,-1002 196.5,-1002 196.5,-966 429.5,-966 429.5,-1002"/>
<text text-anchor="middle" x="313" y="-980.3" font-family="Times,serif" font-size="14.00" fill="#ffffff">[Sort] l_shipmode (Ascending)</text>
</g>
<!-- 94837956994944&#45;&gt;94837938814912 -->
<g id="edge1" class="edge">
<title>94837956994944&#45;&gt;94837938814912</title>
<path fill="none" stroke="#ffffff" stroke-width="4" d="M313,-1002.2468C313,-1013.296 313,-1027.9992 313,-1042.4143"/>
<polygon fill="#ffffff" stroke="#ffffff" stroke-width="4" points="309.5001,-1042.8034 313,-1052.8034 316.5001,-1042.8035 309.5001,-1042.8034"/>
<text text-anchor="middle" x="432" y="-1023.8" font-family="Times,serif" font-size="14.00" fill="#ffffff"> 6001215.0 row(s) | 100.0% estd.</text>
</g>
<!-- 94837504482416 -->
<g id="node3" class="node">
<title>94837504482416</title>
<polygon fill="none" stroke="#ffffff" points="526.5,-915 99.5,-915 99.5,-832 526.5,-832 526.5,-915"/>
<text text-anchor="middle" x="313" y="-899.8" font-family="Times,serif" font-size="14.00" fill="#ffffff">[Aggregate] GroupBy: [l_shipmode] Aggregates: </text>
<text text-anchor="middle" x="313" y="-884.8" font-family="Times,serif" font-size="14.00" fill="#ffffff">[SUM(CASE WHEN o_orderpriority = &#39;1&#45;URGENT&#39; OR </text>
<text text-anchor="middle" x="313" y="-869.8" font-family="Times,serif" font-size="14.00" fill="#ffffff">o_orderpriority = &#39;2&#45;HIGH&#39; THEN 1 ELSE 0 END), </text>
<text text-anchor="middle" x="313" y="-854.8" font-family="Times,serif" font-size="14.00" fill="#ffffff">SUM(CASE WHEN o_orderpriority != &#39;1&#45;URGENT&#39; AND </text>
<text text-anchor="middle" x="313" y="-839.8" font-family="Times,serif" font-size="14.00" fill="#ffffff">o_orderpriority != &#39;2&#45;HIGH&#39; THEN 1 ELSE 0 END)] </text>
</g>
<!-- 94837504482416&#45;&gt;94837956994944 -->
<g id="edge2" class="edge">
<title>94837504482416&#45;&gt;94837956994944</title>
<path fill="none" stroke="#ffffff" stroke-width="4" d="M313,-915.2753C313,-928.7945 313,-943.46 313,-955.7578"/>
<polygon fill="#ffffff" stroke="#ffffff" stroke-width="4" points="309.5001,-955.8672 313,-965.8673 316.5001,-955.8673 309.5001,-955.8672"/>
<text text-anchor="middle" x="432" y="-936.8" font-family="Times,serif" font-size="14.00" fill="#ffffff"> 6001215.0 row(s) | 100.0% estd.</text>
</g>
<!-- 94837641549792 -->
<g id="node4" class="node">
<title>94837641549792</title>
<polygon fill="none" stroke="#ffffff" points="521,-781 105,-781 105,-698 521,-698 521,-781"/>
<text text-anchor="middle" x="313" y="-765.8" font-family="Times,serif" font-size="14.00" fill="#ffffff">[Projection] CASE WHEN o_orderpriority = </text>
<text text-anchor="middle" x="313" y="-750.8" font-family="Times,serif" font-size="14.00" fill="#ffffff">&#39;1&#45;URGENT&#39; OR o_orderpriority = &#39;2&#45;HIGH&#39; THEN 1 </text>
<text text-anchor="middle" x="313" y="-735.8" font-family="Times,serif" font-size="14.00" fill="#ffffff">ELSE 0 END, CASE WHEN o_orderpriority != </text>
<text text-anchor="middle" x="313" y="-720.8" font-family="Times,serif" font-size="14.00" fill="#ffffff">&#39;1&#45;URGENT&#39; AND o_orderpriority != &#39;2&#45;HIGH&#39; THEN 1 </text>
<text text-anchor="middle" x="313" y="-705.8" font-family="Times,serif" font-size="14.00" fill="#ffffff">ELSE 0 END, l_shipmode </text>
</g>
<!-- 94837641549792&#45;&gt;94837504482416 -->
<g id="edge3" class="edge">
<title>94837641549792&#45;&gt;94837504482416</title>
<path fill="none" stroke="#ffffff" stroke-width="4" d="M313,-781.1639C313,-794.0206 313,-808.337 313,-821.7855"/>
<polygon fill="#ffffff" stroke="#ffffff" stroke-width="4" points="309.5001,-821.8618 313,-831.8619 316.5001,-821.8619 309.5001,-821.8618"/>
<text text-anchor="middle" x="432" y="-802.8" font-family="Times,serif" font-size="14.00" fill="#ffffff"> 6001215.0 row(s) | 100.0% estd.</text>
</g>
<!-- 94837161919472 -->
<g id="node5" class="node">
<title>94837161919472</title>
<polygon fill="none" stroke="#ffffff" points="477.5,-647 148.5,-647 148.5,-611 477.5,-611 477.5,-647"/>
<text text-anchor="middle" x="313" y="-625.3" font-family="Times,serif" font-size="14.00" fill="#ffffff">[Join] Mode: Inner o_orderkey = l_orderkey</text>
</g>
<!-- 94837161919472&#45;&gt;94837641549792 -->
<g id="edge4" class="edge">
<title>94837161919472&#45;&gt;94837641549792</title>
<path fill="none" stroke="#ffffff" stroke-width="4" d="M313,-647.2468C313,-658.296 313,-672.9992 313,-687.4143"/>
<polygon fill="#ffffff" stroke="#ffffff" stroke-width="4" points="309.5001,-687.8034 313,-697.8034 316.5001,-687.8035 309.5001,-687.8034"/>
<text text-anchor="middle" x="423" y="-668.8" font-family="Times,serif" font-size="14.00" fill="#ffffff"> 6001215.0 row(s) | 0.0% estd.</text>
</g>
<!-- 94837504482880 -->
<g id="node6" class="node">
<title>94837504482880</title>
<polygon fill="none" stroke="#ffffff" points="302,-559 0,-559 0,-523 302,-523 302,-559"/>
<text text-anchor="middle" x="151" y="-537.3" font-family="Times,serif" font-size="14.00" fill="#ffffff">[Projection] o_orderkey, o_orderpriority</text>
</g>
<!-- 94837504482880&#45;&gt;94837161919472 -->
<g id="edge5" class="edge">
<title>94837504482880&#45;&gt;94837161919472</title>
<path fill="none" stroke="#ffffff" stroke-width="4" d="M164.1939,-559.1407C173.1666,-570.3137 185.9325,-584.146 200,-593 208.7154,-598.4855 218.3386,-603.2016 228.1822,-607.2398"/>
<polygon fill="#ffffff" stroke="#ffffff" stroke-width="4" points="227.0757,-610.5644 237.665,-610.9066 229.6003,-604.0355 227.0757,-610.5644"/>
<text text-anchor="middle" x="319" y="-581.8" font-family="Times,serif" font-size="14.00" fill="#ffffff"> 1500000.0 row(s) | 100.0% estd.</text>
</g>
<!-- 94837398082704 -->
<g id="node7" class="node">
<title>94837398082704</title>
<polygon fill="none" stroke="#ffffff" points="263,-471 39,-471 39,-435 263,-435 263,-471"/>
<text text-anchor="middle" x="151" y="-449.3" font-family="Times,serif" font-size="14.00" fill="#ffffff">[StoredTable] Name: &#39;orders&#39;</text>
</g>
<!-- 94837398082704&#45;&gt;94837504482880 -->
<g id="edge6" class="edge">
<title>94837398082704&#45;&gt;94837504482880</title>
<path fill="none" stroke="#ffffff" stroke-width="4" d="M151,-471.2337C151,-483.1508 151,-498.9616 151,-512.5183"/>
<polygon fill="#ffffff" stroke="#ffffff" stroke-width="4" points="147.5001,-512.7897 151,-522.7897 154.5001,-512.7897 147.5001,-512.7897"/>
<text text-anchor="middle" x="270" y="-492.8" font-family="Times,serif" font-size="14.00" fill="#ffffff"> 1500000.0 row(s) | 100.0% estd.</text>
</g>
<!-- 94837603191344 -->
<g id="node8" class="node">
<title>94837603191344</title>
<polygon fill="none" stroke="#ffffff" points="632,-560 320,-560 320,-522 632,-522 632,-560"/>
<text text-anchor="middle" x="476" y="-544.8" font-family="Times,serif" font-size="14.00" fill="#ffffff">[Projection] l_orderkey, l_shipdate, </text>
<text text-anchor="middle" x="476" y="-529.8" font-family="Times,serif" font-size="14.00" fill="#ffffff">l_commitdate, l_receiptdate, l_shipmode </text>
</g>
<!-- 94837603191344&#45;&gt;94837161919472 -->
<g id="edge7" class="edge">
<title>94837603191344&#45;&gt;94837161919472</title>
<path fill="none" stroke="#ffffff" stroke-width="4" d="M466.2548,-560.0837C459.6745,-571.1882 450.0054,-584.6081 438,-593 430.1695,-598.4736 421.5135,-603.1213 412.5187,-607.0665"/>
<polygon fill="#ffffff" stroke="#ffffff" stroke-width="4" points="410.9821,-603.9131 403.0428,-610.9287 413.6242,-610.3954 410.9821,-603.9131"/>
<text text-anchor="middle" x="572" y="-581.8" font-family="Times,serif" font-size="14.00" fill="#ffffff"> 6001215.0 row(s) | 100.0% estd.</text>
</g>
<!-- 94837603191200 -->
<g id="node9" class="node">
<title>94837603191200</title>
<polygon fill="none" stroke="#ffffff" points="642.5,-471 309.5,-471 309.5,-435 642.5,-435 642.5,-471"/>
<text text-anchor="middle" x="476" y="-449.3" font-family="Times,serif" font-size="14.00" fill="#ffffff">[Predicate] (l_shipmode) IN (&#39;MAIL&#39;, &#39;SHIP&#39;)</text>
</g>
<!-- 94837603191200&#45;&gt;94837603191344 -->
<g id="edge8" class="edge">
<title>94837603191200&#45;&gt;94837603191344</title>
<path fill="none" stroke="#ffffff" stroke-width="4" d="M476,-471.2337C476,-482.9125 476,-498.3308 476,-511.7022"/>
<polygon fill="#ffffff" stroke="#ffffff" stroke-width="4" points="472.5001,-511.8765 476,-521.8765 479.5001,-511.8765 472.5001,-511.8765"/>
<text text-anchor="middle" x="595" y="-492.8" font-family="Times,serif" font-size="14.00" fill="#ffffff"> 6001215.0 row(s) | 100.0% estd.</text>
</g>
<!-- 94837223197120 -->
<g id="node10" class="node">
<title>94837223197120</title>
<polygon fill="none" stroke="#ffffff" points="622.5,-384 329.5,-384 329.5,-348 622.5,-348 622.5,-384"/>
<text text-anchor="middle" x="476" y="-362.3" font-family="Times,serif" font-size="14.00" fill="#ffffff">[Predicate] l_shipdate &lt; l_commitdate</text>
</g>
<!-- 94837223197120&#45;&gt;94837603191200 -->
<g id="edge9" class="edge">
<title>94837223197120&#45;&gt;94837603191200</title>
<path fill="none" stroke="#ffffff" stroke-width="4" d="M476,-384.0265C476,-395.8082 476,-411.4393 476,-424.8419"/>
<polygon fill="#ffffff" stroke="#ffffff" stroke-width="4" points="472.5001,-424.9966 476,-434.9966 479.5001,-424.9967 472.5001,-424.9966"/>
<text text-anchor="middle" x="595" y="-405.8" font-family="Times,serif" font-size="14.00" fill="#ffffff"> 6001215.0 row(s) | 100.0% estd.</text>
</g>
<!-- 94837223196976 -->
<g id="node11" class="node">
<title>94837223196976</title>
<polygon fill="none" stroke="#ffffff" points="633,-297 319,-297 319,-261 633,-261 633,-297"/>
<text text-anchor="middle" x="476" y="-275.3" font-family="Times,serif" font-size="14.00" fill="#ffffff">[Predicate] l_commitdate &lt; l_receiptdate</text>
</g>
<!-- 94837223196976&#45;&gt;94837223197120 -->
<g id="edge10" class="edge">
<title>94837223196976&#45;&gt;94837223197120</title>
<path fill="none" stroke="#ffffff" stroke-width="4" d="M476,-297.0265C476,-308.8082 476,-324.4393 476,-337.8419"/>
<polygon fill="#ffffff" stroke="#ffffff" stroke-width="4" points="472.5001,-337.9966 476,-347.9966 479.5001,-337.9967 472.5001,-337.9966"/>
<text text-anchor="middle" x="595" y="-318.8" font-family="Times,serif" font-size="14.00" fill="#ffffff"> 6001215.0 row(s) | 100.0% estd.</text>
</g>
<!-- 94837604570832 -->
<g id="node12" class="node">
<title>94837604570832</title>
<polygon fill="none" stroke="#ffffff" points="628.5,-210 323.5,-210 323.5,-174 628.5,-174 628.5,-210"/>
<text text-anchor="middle" x="476" y="-188.3" font-family="Times,serif" font-size="14.00" fill="#ffffff">[Predicate] l_receiptdate &lt; &#39;1995&#45;01&#45;01&#39;</text>
</g>
<!-- 94837604570832&#45;&gt;94837223196976 -->
<g id="edge11" class="edge">
<title>94837604570832&#45;&gt;94837223196976</title>
<path fill="none" stroke="#ffffff" stroke-width="4" d="M476,-210.0265C476,-221.8082 476,-237.4393 476,-250.8419"/>
<polygon fill="#ffffff" stroke="#ffffff" stroke-width="4" points="472.5001,-250.9966 476,-260.9966 479.5001,-250.9967 472.5001,-250.9966"/>
<text text-anchor="middle" x="595" y="-231.8" font-family="Times,serif" font-size="14.00" fill="#ffffff"> 6001215.0 row(s) | 100.0% estd.</text>
</g>
<!-- 94837398664400 -->
<g id="node13" class="node">
<title>94837398664400</title>
<polygon fill="none" stroke="#ffffff" points="634.5,-123 317.5,-123 317.5,-87 634.5,-87 634.5,-123"/>
<text text-anchor="middle" x="476" y="-101.3" font-family="Times,serif" font-size="14.00" fill="#ffffff">[Predicate] l_receiptdate &gt;= &#39;1994&#45;01&#45;01&#39;</text>
</g>
<!-- 94837398664400&#45;&gt;94837604570832 -->
<g id="edge12" class="edge">
<title>94837398664400&#45;&gt;94837604570832</title>
<path fill="none" stroke="#ffffff" stroke-width="4" d="M476,-123.0265C476,-134.8082 476,-150.4393 476,-163.8419"/>
<polygon fill="#ffffff" stroke="#ffffff" stroke-width="4" points="472.5001,-163.9966 476,-173.9966 479.5001,-163.9967 472.5001,-163.9966"/>
<text text-anchor="middle" x="595" y="-144.8" font-family="Times,serif" font-size="14.00" fill="#ffffff"> 6001215.0 row(s) | 100.0% estd.</text>
</g>
<!-- 94837604570240 -->
<g id="node14" class="node">
<title>94837604570240</title>
<polygon fill="none" stroke="#ffffff" points="594,-36 358,-36 358,0 594,0 594,-36"/>
<text text-anchor="middle" x="476" y="-14.3" font-family="Times,serif" font-size="14.00" fill="#ffffff">[StoredTable] Name: &#39;lineitem&#39;</text>
</g>
<!-- 94837604570240&#45;&gt;94837398664400 -->
<g id="edge13" class="edge">
<title>94837604570240&#45;&gt;94837398664400</title>
<path fill="none" stroke="#ffffff" stroke-width="4" d="M476,-36.0265C476,-47.8082 476,-63.4393 476,-76.8419"/>
<polygon fill="#ffffff" stroke="#ffffff" stroke-width="4" points="472.5001,-76.9966 476,-86.9966 479.5001,-76.9967 472.5001,-76.9966"/>
<text text-anchor="middle" x="595" y="-57.8" font-family="Times,serif" font-size="14.00" fill="#ffffff"> 6001215.0 row(s) | 100.0% estd.</text>
</g>
</g>
</svg>
