<?xml version="1.0" encoding="UTF-8" standalone="no"?>
<!DOCTYPE svg PUBLIC "-//W3C//DTD SVG 1.1//EN"
 "http://www.w3.org/Graphics/SVG/1.1/DTD/svg11.dtd">
<!-- Generated by graphviz version 2.40.1 (20161225.0304)
 -->
<!-- Title: G Pages: 1 -->
<svg width="478pt" height="1112pt"
 viewBox="0.00 0.00 477.50 1112.00" xmlns="http://www.w3.org/2000/svg" xmlns:xlink="http://www.w3.org/1999/xlink">
<g id="graph0" class="graph" transform="scale(1 1) rotate(0) translate(4 1108)">
<title>G</title>
<polygon fill="#000000" stroke="transparent" points="-4,4 -4,-1108 473.5,-1108 473.5,4 -4,4"/>
<!-- 94837994755888 -->
<g id="node1" class="node">
<title>94837994755888</title>
<polygon fill="none" stroke="#ffffff" points="251.5,-1104 107.5,-1104 107.5,-1050 251.5,-1050 251.5,-1104"/>
<text text-anchor="middle" x="179.5" y="-1088.8" font-family="Times,serif" font-size="14.00" fill="#ffffff">Alias [REVENUE]</text>
<text text-anchor="middle" x="179.5" y="-1057.8" font-family="Times,serif" font-size="14.00" fill="#ffffff">3 µs 0 ns</text>
</g>
<!-- 94837437355392 -->
<g id="node2" class="node">
<title>94837437355392</title>
<polygon fill="none" stroke="#ffffff" stroke-width="2" points="359,-999 0,-999 0,-930 359,-930 359,-999"/>
<text text-anchor="middle" x="179.5" y="-983.8" font-family="Times,serif" font-size="14.00" fill="#ffffff">[Aggregate] GroupBy ColumnIDs: &#160;Aggregates: </text>
<text text-anchor="middle" x="179.5" y="-968.8" font-family="Times,serif" font-size="14.00" fill="#ffffff">SUM(Column #0)</text>
<text text-anchor="middle" x="179.5" y="-937.8" font-family="Times,serif" font-size="14.00" fill="#ffffff">2 ms 111 µs </text>
</g>
<!-- 94837437355392&#45;&gt;94837994755888 -->
<g id="edge1" class="edge">
<title>94837437355392&#45;&gt;94837994755888</title>
<path fill="none" stroke="#ffffff" d="M179.5,-999.1717C179.5,-1012.0092 179.5,-1026.6141 179.5,-1039.6774"/>
<polygon fill="#ffffff" stroke="#ffffff" points="176.0001,-1039.7601 179.5,-1049.7602 183.0001,-1039.7602 176.0001,-1039.7601"/>
<text text-anchor="middle" x="270" y="-1020.8" font-family="Times,serif" font-size="14.00" fill="#ffffff">1 row(s)/1 chunk(s)/450B</text>
</g>
<!-- 94836648860592 -->
<g id="node3" class="node">
<title>94836648860592</title>
<polygon fill="none" stroke="#ffffff" stroke-width="2" points="231.5,-879 127.5,-879 127.5,-825 231.5,-825 231.5,-879"/>
<text text-anchor="middle" x="179.5" y="-863.8" font-family="Times,serif" font-size="14.00" fill="#ffffff">Projection</text>
<text text-anchor="middle" x="179.5" y="-832.8" font-family="Times,serif" font-size="14.00" fill="#ffffff">6 ms 128 µs</text>
</g>
<!-- 94836648860592&#45;&gt;94837437355392 -->
<g id="edge2" class="edge">
<title>94836648860592&#45;&gt;94837437355392</title>
<path fill="none" stroke="#ffffff" stroke-width="3" d="M179.5,-879.2331C179.5,-891.3589 179.5,-905.9621 179.5,-919.6298"/>
<polygon fill="#ffffff" stroke="#ffffff" stroke-width="3" points="176.0001,-919.8427 179.5,-929.8427 183.0001,-919.8428 176.0001,-919.8427"/>
<text text-anchor="middle" x="318" y="-900.8" font-family="Times,serif" font-size="14.00" fill="#ffffff">114160 row(s)/61 chunk(s)/474.836KB</text>
</g>
<!-- 94837932843280 -->
<g id="node4" class="node">
<title>94837932843280</title>
<polygon fill="none" stroke="#ffffff" points="224.5,-774 134.5,-774 134.5,-720 224.5,-720 224.5,-774"/>
<text text-anchor="middle" x="179.5" y="-758.8" font-family="Times,serif" font-size="14.00" fill="#ffffff">Projection</text>
<text text-anchor="middle" x="179.5" y="-727.8" font-family="Times,serif" font-size="14.00" fill="#ffffff">86 µs 0 ns</text>
</g>
<!-- 94837932843280&#45;&gt;94836648860592 -->
<g id="edge3" class="edge">
<title>94837932843280&#45;&gt;94836648860592</title>
<path fill="none" stroke="#ffffff" stroke-width="3" d="M179.5,-774.0401C179.5,-786.3143 179.5,-801.0382 179.5,-814.3683"/>
<polygon fill="#ffffff" stroke="#ffffff" stroke-width="3" points="176.0001,-814.6866 179.5,-824.6866 183.0001,-814.6866 176.0001,-814.6866"/>
<text text-anchor="middle" x="311" y="-795.8" font-family="Times,serif" font-size="14.00" fill="#ffffff">114160 row(s)/61 chunk(s)/3.674MB</text>
</g>
<!-- 94837933839728 -->
<g id="node5" class="node">
<title>94837933839728</title>
<polygon fill="none" stroke="#ffffff" stroke-width="3" points="270,-669 89,-669 89,-570 270,-570 270,-669"/>
<text text-anchor="middle" x="179.5" y="-653.8" font-family="Times,serif" font-size="14.00" fill="#ffffff">TableScan</text>
<text text-anchor="middle" x="179.5" y="-638.8" font-family="Times,serif" font-size="14.00" fill="#ffffff">Impl: LiteralTableScan</text>
<text text-anchor="middle" x="179.5" y="-623.8" font-family="Times,serif" font-size="14.00" fill="#ffffff">l_shipdate &lt; </text>
<text text-anchor="middle" x="179.5" y="-608.8" font-family="Times,serif" font-size="14.00" fill="#ffffff">&#39;1995&#45;01&#45;01&#39;</text>
<text text-anchor="middle" x="179.5" y="-577.8" font-family="Times,serif" font-size="14.00" fill="#ffffff">28 ms 456 µs </text>
</g>
<!-- 94837933839728&#45;&gt;94837932843280 -->
<g id="edge4" class="edge">
<title>94837933839728&#45;&gt;94837932843280</title>
<path fill="none" stroke="#ffffff" stroke-width="3" d="M179.5,-669.1599C179.5,-682.598 179.5,-696.9153 179.5,-709.5584"/>
<polygon fill="#ffffff" stroke="#ffffff" stroke-width="3" points="176.0001,-709.7287 179.5,-719.7287 183.0001,-709.7288 176.0001,-709.7287"/>
<text text-anchor="middle" x="315.5" y="-690.8" font-family="Times,serif" font-size="14.00" fill="#ffffff">114160 row(s)/61 chunk(s)/14.675MB</text>
</g>
<!-- 94837932920624 -->
<g id="node6" class="node">
<title>94837932920624</title>
<polygon fill="none" stroke="#ffffff" stroke-width="3" points="270,-519 89,-519 89,-420 270,-420 270,-519"/>
<text text-anchor="middle" x="179.5" y="-503.8" font-family="Times,serif" font-size="14.00" fill="#ffffff">TableScan</text>
<text text-anchor="middle" x="179.5" y="-488.8" font-family="Times,serif" font-size="14.00" fill="#ffffff">Impl: LiteralTableScan</text>
<text text-anchor="middle" x="179.5" y="-473.8" font-family="Times,serif" font-size="14.00" fill="#ffffff">l_shipdate &gt;= </text>
<text text-anchor="middle" x="179.5" y="-458.8" font-family="Times,serif" font-size="14.00" fill="#ffffff">&#39;1994&#45;01&#45;01&#39;</text>
<text text-anchor="middle" x="179.5" y="-427.8" font-family="Times,serif" font-size="14.00" fill="#ffffff">36 ms 346 µs </text>
</g>
<!-- 94837932920624&#45;&gt;94837933839728 -->
<g id="edge5" class="edge">
<title>94837932920624&#45;&gt;94837933839728</title>
<path fill="none" stroke="#ffffff" stroke-width="3" d="M179.5,-519.0313C179.5,-532.0196 179.5,-546.1643 179.5,-559.63"/>
<polygon fill="#ffffff" stroke="#ffffff" stroke-width="3" points="176.0001,-559.7646 179.5,-569.7646 183.0001,-559.7646 176.0001,-559.7646"/>
<text text-anchor="middle" x="315.5" y="-540.8" font-family="Times,serif" font-size="14.00" fill="#ffffff">543718 row(s)/61 chunk(s)/69.658MB</text>
</g>
<!-- 94837932786128 -->
<g id="node7" class="node">
<title>94837932786128</title>
<polygon fill="none" stroke="#ffffff" stroke-width="3" points="270,-369 89,-369 89,-270 270,-270 270,-369"/>
<text text-anchor="middle" x="179.5" y="-353.8" font-family="Times,serif" font-size="14.00" fill="#ffffff">TableScan</text>
<text text-anchor="middle" x="179.5" y="-338.8" font-family="Times,serif" font-size="14.00" fill="#ffffff">Impl: LiteralTableScan</text>
<text text-anchor="middle" x="179.5" y="-323.8" font-family="Times,serif" font-size="14.00" fill="#ffffff">l_quantity &lt; </text>
<text text-anchor="middle" x="179.5" y="-308.8" font-family="Times,serif" font-size="14.00" fill="#ffffff">24</text>
<text text-anchor="middle" x="179.5" y="-277.8" font-family="Times,serif" font-size="14.00" fill="#ffffff">20 ms 152 µs </text>
</g>
<!-- 94837932786128&#45;&gt;94837932920624 -->
<g id="edge6" class="edge">
<title>94837932786128&#45;&gt;94837932920624</title>
<path fill="none" stroke="#ffffff" stroke-width="3" d="M179.5,-369.0313C179.5,-382.0196 179.5,-396.1643 179.5,-409.63"/>
<polygon fill="#ffffff" stroke="#ffffff" stroke-width="3" points="176.0001,-409.7646 179.5,-419.7646 183.0001,-409.7646 176.0001,-409.7646"/>
<text text-anchor="middle" x="315.5" y="-390.8" font-family="Times,serif" font-size="14.00" fill="#ffffff">752249 row(s)/61 chunk(s)/96.350MB</text>
</g>
<!-- 94837932846640 -->
<g id="node8" class="node">
<title>94837932846640</title>
<polygon fill="none" stroke="#ffffff" stroke-width="3" points="269,-219 90,-219 90,-120 269,-120 269,-219"/>
<text text-anchor="middle" x="179.5" y="-203.8" font-family="Times,serif" font-size="14.00" fill="#ffffff">TableScan</text>
<text text-anchor="middle" x="179.5" y="-188.8" font-family="Times,serif" font-size="14.00" fill="#ffffff">Impl: BetweenScan</text>
<text text-anchor="middle" x="179.5" y="-173.8" font-family="Times,serif" font-size="14.00" fill="#ffffff">l_discount BETWEEN </text>
<text text-anchor="middle" x="179.5" y="-158.8" font-family="Times,serif" font-size="14.00" fill="#ffffff">0.05 AND 0.07001</text>
<text text-anchor="middle" x="179.5" y="-127.8" font-family="Times,serif" font-size="14.00" fill="#ffffff">50 ms 166 µs </text>
</g>
<!-- 94837932846640&#45;&gt;94837932786128 -->
<g id="edge7" class="edge">
<title>94837932846640&#45;&gt;94837932786128</title>
<path fill="none" stroke="#ffffff" stroke-width="4" d="M179.5,-219.0313C179.5,-232.0196 179.5,-246.1643 179.5,-259.63"/>
<polygon fill="#ffffff" stroke="#ffffff" stroke-width="4" points="176.0001,-259.7646 179.5,-269.7646 183.0001,-259.7646 176.0001,-259.7646"/>
<text text-anchor="middle" x="324.5" y="-240.8" font-family="Times,serif" font-size="14.00" fill="#ffffff">1637557 row(s)/61 chunk(s)/209.670MB</text>
</g>
<!-- 94837933648496 -->
<g id="node9" class="node">
<title>94837933648496</title>
<polygon fill="none" stroke="#ffffff" points="222.5,-69 136.5,-69 136.5,0 222.5,0 222.5,-69"/>
<text text-anchor="middle" x="179.5" y="-53.8" font-family="Times,serif" font-size="14.00" fill="#ffffff">GetTable</text>
<text text-anchor="middle" x="179.5" y="-38.8" font-family="Times,serif" font-size="14.00" fill="#ffffff">(lineitem)</text>
<text text-anchor="middle" x="179.5" y="-7.8" font-family="Times,serif" font-size="14.00" fill="#ffffff">1 µs 0 ns</text>
</g>
<!-- 94837933648496&#45;&gt;94837932846640 -->
<g id="edge8" class="edge">
<title>94837933648496&#45;&gt;94837932846640</title>
<path fill="none" stroke="#ffffff" stroke-width="4" d="M179.5,-69.2659C179.5,-81.5301 179.5,-95.6967 179.5,-109.446"/>
<polygon fill="#ffffff" stroke="#ffffff" stroke-width="4" points="176.0001,-109.8405 179.5,-119.8405 183.0001,-109.8406 176.0001,-109.8405"/>
<text text-anchor="middle" x="314" y="-90.8" font-family="Times,serif" font-size="14.00" fill="#ffffff">6001215 row(s)/61 chunk(s)/1.800GB</text>
</g>
</g>
</svg>
