<?xml version="1.0" encoding="UTF-8" standalone="no"?>
<!DOCTYPE svg PUBLIC "-//W3C//DTD SVG 1.1//EN"
 "http://www.w3.org/Graphics/SVG/1.1/DTD/svg11.dtd">
<!-- Generated by graphviz version 2.40.1 (20161225.0304)
 -->
<!-- Title: G Pages: 1 -->
<svg width="722pt" height="1059pt"
 viewBox="0.00 0.00 722.00 1059.00" xmlns="http://www.w3.org/2000/svg" xmlns:xlink="http://www.w3.org/1999/xlink">
<g id="graph0" class="graph" transform="scale(1 1) rotate(0) translate(4 1055)">
<title>G</title>
<polygon fill="#000000" stroke="transparent" points="-4,4 -4,-1055 718,-1055 718,4 -4,4"/>
<!-- 94911052207856 -->
<g id="node1" class="node">
<title>94911052207856</title>
<polygon fill="none" stroke="#ffffff" points="520.5,-1051 105.5,-1051 105.5,-968 520.5,-968 520.5,-1051"/>
<text text-anchor="middle" x="313" y="-1035.8" font-family="Times,serif" font-size="14.00" fill="#ffffff">Alias [l_shipmode, SUM(CASE WHEN o_orderpriority </text>
<text text-anchor="middle" x="313" y="-1020.8" font-family="Times,serif" font-size="14.00" fill="#ffffff">= &#39;1&#45;URGENT&#39; OR o_orderpriority = &#39;2&#45;HIGH&#39; THEN 1 </text>
<text text-anchor="middle" x="313" y="-1005.8" font-family="Times,serif" font-size="14.00" fill="#ffffff">ELSE 0 END) AS high_line_count, SUM(CASE WHEN </text>
<text text-anchor="middle" x="313" y="-990.8" font-family="Times,serif" font-size="14.00" fill="#ffffff">o_orderpriority != &#39;1&#45;URGENT&#39; AND o_orderpriority </text>
<text text-anchor="middle" x="313" y="-975.8" font-family="Times,serif" font-size="14.00" fill="#ffffff">!= &#39;2&#45;HIGH&#39; THEN 1 ELSE 0 END) AS low_line_count] </text>
</g>
<!-- 94911175797664 -->
<g id="node2" class="node">
<title>94911175797664</title>
<polygon fill="none" stroke="#ffffff" points="429.5,-917 196.5,-917 196.5,-881 429.5,-881 429.5,-917"/>
<text text-anchor="middle" x="313" y="-895.3" font-family="Times,serif" font-size="14.00" fill="#ffffff">[Sort] l_shipmode (Ascending)</text>
</g>
<!-- 94911175797664&#45;&gt;94911052207856 -->
<g id="edge1" class="edge">
<title>94911175797664&#45;&gt;94911052207856</title>
<path fill="none" stroke="#ffffff" stroke-width="4" d="M313,-917.2468C313,-928.296 313,-942.9992 313,-957.4143"/>
<polygon fill="#ffffff" stroke="#ffffff" stroke-width="4" points="309.5001,-957.8034 313,-967.8034 316.5001,-957.8035 309.5001,-957.8034"/>
<text text-anchor="middle" x="432" y="-938.8" font-family="Times,serif" font-size="14.00" fill="#ffffff"> 6001215.0 row(s) | 100.0% estd.</text>
</g>
<!-- 94911141057280 -->
<g id="node3" class="node">
<title>94911141057280</title>
<polygon fill="none" stroke="#ffffff" points="526.5,-830 99.5,-830 99.5,-747 526.5,-747 526.5,-830"/>
<text text-anchor="middle" x="313" y="-814.8" font-family="Times,serif" font-size="14.00" fill="#ffffff">[Aggregate] GroupBy: [l_shipmode] Aggregates: </text>
<text text-anchor="middle" x="313" y="-799.8" font-family="Times,serif" font-size="14.00" fill="#ffffff">[SUM(CASE WHEN o_orderpriority = &#39;1&#45;URGENT&#39; OR </text>
<text text-anchor="middle" x="313" y="-784.8" font-family="Times,serif" font-size="14.00" fill="#ffffff">o_orderpriority = &#39;2&#45;HIGH&#39; THEN 1 ELSE 0 END), </text>
<text text-anchor="middle" x="313" y="-769.8" font-family="Times,serif" font-size="14.00" fill="#ffffff">SUM(CASE WHEN o_orderpriority != &#39;1&#45;URGENT&#39; AND </text>
<text text-anchor="middle" x="313" y="-754.8" font-family="Times,serif" font-size="14.00" fill="#ffffff">o_orderpriority != &#39;2&#45;HIGH&#39; THEN 1 ELSE 0 END)] </text>
</g>
<!-- 94911141057280&#45;&gt;94911175797664 -->
<g id="edge2" class="edge">
<title>94911141057280&#45;&gt;94911175797664</title>
<path fill="none" stroke="#ffffff" stroke-width="4" d="M313,-830.2753C313,-843.7945 313,-858.46 313,-870.7578"/>
<polygon fill="#ffffff" stroke="#ffffff" stroke-width="4" points="309.5001,-870.8672 313,-880.8673 316.5001,-870.8673 309.5001,-870.8672"/>
<text text-anchor="middle" x="432" y="-851.8" font-family="Times,serif" font-size="14.00" fill="#ffffff"> 6001215.0 row(s) | 100.0% estd.</text>
</g>
<!-- 94911141057840 -->
<g id="node4" class="node">
<title>94911141057840</title>
<polygon fill="none" stroke="#ffffff" points="521,-696 105,-696 105,-613 521,-613 521,-696"/>
<text text-anchor="middle" x="313" y="-680.8" font-family="Times,serif" font-size="14.00" fill="#ffffff">[Projection] CASE WHEN o_orderpriority = </text>
<text text-anchor="middle" x="313" y="-665.8" font-family="Times,serif" font-size="14.00" fill="#ffffff">&#39;1&#45;URGENT&#39; OR o_orderpriority = &#39;2&#45;HIGH&#39; THEN 1 </text>
<text text-anchor="middle" x="313" y="-650.8" font-family="Times,serif" font-size="14.00" fill="#ffffff">ELSE 0 END, CASE WHEN o_orderpriority != </text>
<text text-anchor="middle" x="313" y="-635.8" font-family="Times,serif" font-size="14.00" fill="#ffffff">&#39;1&#45;URGENT&#39; AND o_orderpriority != &#39;2&#45;HIGH&#39; THEN 1 </text>
<text text-anchor="middle" x="313" y="-620.8" font-family="Times,serif" font-size="14.00" fill="#ffffff">ELSE 0 END, l_shipmode </text>
</g>
<!-- 94911141057840&#45;&gt;94911141057280 -->
<g id="edge3" class="edge">
<title>94911141057840&#45;&gt;94911141057280</title>
<path fill="none" stroke="#ffffff" stroke-width="4" d="M313,-696.1639C313,-709.0206 313,-723.337 313,-736.7855"/>
<polygon fill="#ffffff" stroke="#ffffff" stroke-width="4" points="309.5001,-736.8618 313,-746.8619 316.5001,-736.8619 309.5001,-736.8618"/>
<text text-anchor="middle" x="432" y="-717.8" font-family="Times,serif" font-size="14.00" fill="#ffffff"> 6001215.0 row(s) | 100.0% estd.</text>
</g>
<!-- 94911165862496 -->
<g id="node5" class="node">
<title>94911165862496</title>
<polygon fill="none" stroke="#ffffff" points="477.5,-562 148.5,-562 148.5,-526 477.5,-526 477.5,-562"/>
<text text-anchor="middle" x="313" y="-540.3" font-family="Times,serif" font-size="14.00" fill="#ffffff">[Join] Mode: Inner o_orderkey = l_orderkey</text>
</g>
<!-- 94911165862496&#45;&gt;94911141057840 -->
<g id="edge4" class="edge">
<title>94911165862496&#45;&gt;94911141057840</title>
<path fill="none" stroke="#ffffff" stroke-width="4" d="M313,-562.2468C313,-573.296 313,-587.9992 313,-602.4143"/>
<polygon fill="#ffffff" stroke="#ffffff" stroke-width="4" points="309.5001,-602.8034 313,-612.8034 316.5001,-602.8035 309.5001,-602.8034"/>
<text text-anchor="middle" x="423" y="-583.8" font-family="Times,serif" font-size="14.00" fill="#ffffff"> 6001215.0 row(s) | 0.0% estd.</text>
</g>
<!-- 94910824609840 -->
<g id="node6" class="node">
<title>94910824609840</title>
<polygon fill="none" stroke="#ffffff" points="302,-474 0,-474 0,-438 302,-438 302,-474"/>
<text text-anchor="middle" x="151" y="-452.3" font-family="Times,serif" font-size="14.00" fill="#ffffff">[Projection] o_orderkey, o_orderpriority</text>
</g>
<!-- 94910824609840&#45;&gt;94911165862496 -->
<g id="edge5" class="edge">
<title>94910824609840&#45;&gt;94911165862496</title>
<path fill="none" stroke="#ffffff" stroke-width="4" d="M164.1939,-474.1407C173.1666,-485.3137 185.9325,-499.146 200,-508 208.7154,-513.4855 218.3386,-518.2016 228.1822,-522.2398"/>
<polygon fill="#ffffff" stroke="#ffffff" stroke-width="4" points="227.0757,-525.5644 237.665,-525.9066 229.6003,-519.0355 227.0757,-525.5644"/>
<text text-anchor="middle" x="319" y="-496.8" font-family="Times,serif" font-size="14.00" fill="#ffffff"> 1500000.0 row(s) | 100.0% estd.</text>
</g>
<!-- 94911334475360 -->
<g id="node7" class="node">
<title>94911334475360</title>
<polygon fill="none" stroke="#ffffff" points="263,-386 39,-386 39,-350 263,-350 263,-386"/>
<text text-anchor="middle" x="151" y="-364.3" font-family="Times,serif" font-size="14.00" fill="#ffffff">[StoredTable] Name: &#39;orders&#39;</text>
</g>
<!-- 94911334475360&#45;&gt;94910824609840 -->
<g id="edge6" class="edge">
<title>94911334475360&#45;&gt;94910824609840</title>
<path fill="none" stroke="#ffffff" stroke-width="4" d="M151,-386.2337C151,-398.1508 151,-413.9616 151,-427.5183"/>
<polygon fill="#ffffff" stroke="#ffffff" stroke-width="4" points="147.5001,-427.7897 151,-437.7897 154.5001,-427.7897 147.5001,-427.7897"/>
<text text-anchor="middle" x="270" y="-407.8" font-family="Times,serif" font-size="14.00" fill="#ffffff"> 1500000.0 row(s) | 100.0% estd.</text>
</g>
<!-- 94910824824640 -->
<g id="node8" class="node">
<title>94910824824640</title>
<polygon fill="none" stroke="#ffffff" points="632,-475 320,-475 320,-437 632,-437 632,-475"/>
<text text-anchor="middle" x="476" y="-459.8" font-family="Times,serif" font-size="14.00" fill="#ffffff">[Projection] l_orderkey, l_shipdate, </text>
<text text-anchor="middle" x="476" y="-444.8" font-family="Times,serif" font-size="14.00" fill="#ffffff">l_commitdate, l_receiptdate, l_shipmode </text>
</g>
<!-- 94910824824640&#45;&gt;94911165862496 -->
<g id="edge7" class="edge">
<title>94910824824640&#45;&gt;94911165862496</title>
<path fill="none" stroke="#ffffff" stroke-width="4" d="M466.2548,-475.0837C459.6745,-486.1882 450.0054,-499.6081 438,-508 430.1695,-513.4736 421.5135,-518.1213 412.5187,-522.0665"/>
<polygon fill="#ffffff" stroke="#ffffff" stroke-width="4" points="410.9821,-518.9131 403.0428,-525.9287 413.6242,-525.3954 410.9821,-518.9131"/>
<text text-anchor="middle" x="572" y="-496.8" font-family="Times,serif" font-size="14.00" fill="#ffffff"> 6001215.0 row(s) | 100.0% estd.</text>
</g>
<!-- 94910824609984 -->
<g id="node9" class="node">
<title>94910824609984</title>
<polygon fill="none" stroke="#ffffff" points="642.5,-386 309.5,-386 309.5,-350 642.5,-350 642.5,-386"/>
<text text-anchor="middle" x="476" y="-364.3" font-family="Times,serif" font-size="14.00" fill="#ffffff">[Predicate] (l_shipmode) IN (&#39;MAIL&#39;, &#39;SHIP&#39;)</text>
</g>
<!-- 94910824609984&#45;&gt;94910824824640 -->
<g id="edge8" class="edge">
<title>94910824609984&#45;&gt;94910824824640</title>
<path fill="none" stroke="#ffffff" stroke-width="4" d="M476,-386.2337C476,-397.9125 476,-413.3308 476,-426.7022"/>
<polygon fill="#ffffff" stroke="#ffffff" stroke-width="4" points="472.5001,-426.8765 476,-436.8765 479.5001,-426.8765 472.5001,-426.8765"/>
<text text-anchor="middle" x="595" y="-407.8" font-family="Times,serif" font-size="14.00" fill="#ffffff"> 6001215.0 row(s) | 100.0% estd.</text>
</g>
<!-- 94911017992384 -->
<g id="node10" class="node">
<title>94911017992384</title>
<polygon fill="none" stroke="#ffffff" points="664.5,-299 287.5,-299 287.5,-261 664.5,-261 664.5,-299"/>
<text text-anchor="middle" x="476" y="-283.8" font-family="Times,serif" font-size="14.00" fill="#ffffff">[Predicate] l_receiptdate BETWEEN &#39;1994&#45;01&#45;01&#39; </text>
<text text-anchor="middle" x="476" y="-268.8" font-family="Times,serif" font-size="14.00" fill="#ffffff">AND &#39;1995&#45;01&#45;00&#39; </text>
</g>
<!-- 94911017992384&#45;&gt;94910824609984 -->
<g id="edge9" class="edge">
<title>94911017992384&#45;&gt;94910824609984</title>
<path fill="none" stroke="#ffffff" stroke-width="4" d="M476,-299.0947C476,-310.981 476,-326.483 476,-339.7725"/>
<polygon fill="#ffffff" stroke="#ffffff" stroke-width="4" points="472.5001,-339.8447 476,-349.8447 479.5001,-339.8448 472.5001,-339.8447"/>
<text text-anchor="middle" x="595" y="-320.8" font-family="Times,serif" font-size="14.00" fill="#ffffff"> 6001215.0 row(s) | 100.0% estd.</text>
</g>
<!-- 94911017992240 -->
<g id="node11" class="node">
<title>94911017992240</title>
<polygon fill="none" stroke="#ffffff" points="622.5,-210 329.5,-210 329.5,-174 622.5,-174 622.5,-210"/>
<text text-anchor="middle" x="476" y="-188.3" font-family="Times,serif" font-size="14.00" fill="#ffffff">[Predicate] l_shipdate &lt; l_commitdate</text>
</g>
<!-- 94911017992240&#45;&gt;94911017992384 -->
<g id="edge10" class="edge">
<title>94911017992240&#45;&gt;94911017992384</title>
<path fill="none" stroke="#ffffff" stroke-width="4" d="M476,-210.2337C476,-221.9125 476,-237.3308 476,-250.7022"/>
<polygon fill="#ffffff" stroke="#ffffff" stroke-width="4" points="472.5001,-250.8765 476,-260.8765 479.5001,-250.8765 472.5001,-250.8765"/>
<text text-anchor="middle" x="595" y="-231.8" font-family="Times,serif" font-size="14.00" fill="#ffffff"> 6001215.0 row(s) | 100.0% estd.</text>
</g>
<!-- 94910824824496 -->
<g id="node12" class="node">
<title>94910824824496</title>
<polygon fill="none" stroke="#ffffff" points="633,-123 319,-123 319,-87 633,-87 633,-123"/>
<text text-anchor="middle" x="476" y="-101.3" font-family="Times,serif" font-size="14.00" fill="#ffffff">[Predicate] l_commitdate &lt; l_receiptdate</text>
</g>
<!-- 94910824824496&#45;&gt;94911017992240 -->
<g id="edge11" class="edge">
<title>94910824824496&#45;&gt;94911017992240</title>
<path fill="none" stroke="#ffffff" stroke-width="4" d="M476,-123.0265C476,-134.8082 476,-150.4393 476,-163.8419"/>
<polygon fill="#ffffff" stroke="#ffffff" stroke-width="4" points="472.5001,-163.9966 476,-173.9966 479.5001,-163.9967 472.5001,-163.9966"/>
<text text-anchor="middle" x="595" y="-144.8" font-family="Times,serif" font-size="14.00" fill="#ffffff"> 6001215.0 row(s) | 100.0% estd.</text>
</g>
<!-- 94911034743488 -->
<g id="node13" class="node">
<title>94911034743488</title>
<polygon fill="none" stroke="#ffffff" points="594,-36 358,-36 358,0 594,0 594,-36"/>
<text text-anchor="middle" x="476" y="-14.3" font-family="Times,serif" font-size="14.00" fill="#ffffff">[StoredTable] Name: &#39;lineitem&#39;</text>
</g>
<!-- 94911034743488&#45;&gt;94910824824496 -->
<g id="edge12" class="edge">
<title>94911034743488&#45;&gt;94910824824496</title>
<path fill="none" stroke="#ffffff" stroke-width="4" d="M476,-36.0265C476,-47.8082 476,-63.4393 476,-76.8419"/>
<polygon fill="#ffffff" stroke="#ffffff" stroke-width="4" points="472.5001,-76.9966 476,-86.9966 479.5001,-76.9967 472.5001,-76.9966"/>
<text text-anchor="middle" x="595" y="-57.8" font-family="Times,serif" font-size="14.00" fill="#ffffff"> 6001215.0 row(s) | 100.0% estd.</text>
</g>
</g>
</svg>
