<?xml version="1.0" encoding="UTF-8" standalone="no"?>
<!DOCTYPE svg PUBLIC "-//W3C//DTD SVG 1.1//EN"
 "http://www.w3.org/Graphics/SVG/1.1/DTD/svg11.dtd">
<!-- Generated by graphviz version 2.40.1 (20161225.0304)
 -->
<!-- Title: G Pages: 1 -->
<svg width="444pt" height="661pt"
 viewBox="0.00 0.00 444.00 661.00" xmlns="http://www.w3.org/2000/svg" xmlns:xlink="http://www.w3.org/1999/xlink">
<g id="graph0" class="graph" transform="scale(1 1) rotate(0) translate(4 657)">
<title>G</title>
<polygon fill="#000000" stroke="transparent" points="-4,4 -4,-657 440,-657 440,4 -4,4"/>
<!-- 94911397010016 -->
<g id="node1" class="node">
<title>94911397010016</title>
<polygon fill="none" stroke="#ffffff" points="369,-653 27,-653 27,-615 369,-615 369,-653"/>
<text text-anchor="middle" x="198" y="-637.8" font-family="Times,serif" font-size="14.00" fill="#ffffff">Alias [SUM(l_extendedprice * l_discount) AS </text>
<text text-anchor="middle" x="198" y="-622.8" font-family="Times,serif" font-size="14.00" fill="#ffffff">REVENUE] </text>
</g>
<!-- 94910349873088 -->
<g id="node2" class="node">
<title>94910349873088</title>
<polygon fill="none" stroke="#ffffff" points="340.5,-564 55.5,-564 55.5,-526 340.5,-526 340.5,-564"/>
<text text-anchor="middle" x="198" y="-548.8" font-family="Times,serif" font-size="14.00" fill="#ffffff">[Aggregate] GroupBy: [] Aggregates: </text>
<text text-anchor="middle" x="198" y="-533.8" font-family="Times,serif" font-size="14.00" fill="#ffffff">[SUM(l_extendedprice * l_discount)] </text>
</g>
<!-- 94910349873088&#45;&gt;94911397010016 -->
<g id="edge1" class="edge">
<title>94910349873088&#45;&gt;94911397010016</title>
<path fill="none" stroke="#ffffff" stroke-width="3" d="M198,-564.3117C198,-576.091 198,-591.3813 198,-604.6372"/>
<polygon fill="#ffffff" stroke="#ffffff" stroke-width="3" points="194.5001,-604.726 198,-614.726 201.5001,-604.726 194.5001,-604.726"/>
<text text-anchor="middle" x="312.5" y="-585.8" font-family="Times,serif" font-size="14.00" fill="#ffffff"> 563661.0 row(s) | 100.0% estd.</text>
</g>
<!-- 94910814003072 -->
<g id="node3" class="node">
<title>94910814003072</title>
<polygon fill="none" stroke="#ffffff" points="353,-475 43,-475 43,-439 353,-439 353,-475"/>
<text text-anchor="middle" x="198" y="-453.3" font-family="Times,serif" font-size="14.00" fill="#ffffff">[Projection] l_extendedprice * l_discount</text>
</g>
<!-- 94910814003072&#45;&gt;94910349873088 -->
<g id="edge2" class="edge">
<title>94910814003072&#45;&gt;94910349873088</title>
<path fill="none" stroke="#ffffff" stroke-width="3" d="M198,-475.2337C198,-486.9125 198,-502.3308 198,-515.7022"/>
<polygon fill="#ffffff" stroke="#ffffff" stroke-width="3" points="194.5001,-515.8765 198,-525.8765 201.5001,-515.8765 194.5001,-515.8765"/>
<text text-anchor="middle" x="312.5" y="-496.8" font-family="Times,serif" font-size="14.00" fill="#ffffff"> 563661.0 row(s) | 100.0% estd.</text>
</g>
<!-- 94911335125776 -->
<g id="node4" class="node">
<title>94911335125776</title>
<polygon fill="none" stroke="#ffffff" points="352,-388 44,-388 44,-350 352,-350 352,-388"/>
<text text-anchor="middle" x="198" y="-372.8" font-family="Times,serif" font-size="14.00" fill="#ffffff">[Projection] l_quantity, l_extendedprice, </text>
<text text-anchor="middle" x="198" y="-357.8" font-family="Times,serif" font-size="14.00" fill="#ffffff">l_discount, l_shipdate </text>
</g>
<!-- 94911335125776&#45;&gt;94910814003072 -->
<g id="edge3" class="edge">
<title>94911335125776&#45;&gt;94910814003072</title>
<path fill="none" stroke="#ffffff" stroke-width="3" d="M198,-388.0947C198,-399.981 198,-415.483 198,-428.7725"/>
<polygon fill="#ffffff" stroke="#ffffff" stroke-width="3" points="194.5001,-428.8447 198,-438.8447 201.5001,-428.8448 194.5001,-428.8447"/>
<text text-anchor="middle" x="312.5" y="-409.8" font-family="Times,serif" font-size="14.00" fill="#ffffff"> 563661.0 row(s) | 100.0% estd.</text>
</g>
<!-- 94910349829568 -->
<g id="node5" class="node">
<title>94910349829568</title>
<polygon fill="none" stroke="#ffffff" points="395.5,-299 .5,-299 .5,-261 395.5,-261 395.5,-299"/>
<text text-anchor="middle" x="198" y="-283.8" font-family="Times,serif" font-size="14.00" fill="#ffffff">[Predicate] l_shipdate BETWEEN &#39;1994&#45;01&#45;01&#39; AND </text>
<text text-anchor="middle" x="198" y="-268.8" font-family="Times,serif" font-size="14.00" fill="#ffffff">&#39;1995&#45;01&#45;00&#39; </text>
</g>
<!-- 94910349829568&#45;&gt;94911335125776 -->
<g id="edge4" class="edge">
<title>94910349829568&#45;&gt;94911335125776</title>
<path fill="none" stroke="#ffffff" stroke-width="3" d="M198,-299.3117C198,-311.091 198,-326.3813 198,-339.6372"/>
<polygon fill="#ffffff" stroke="#ffffff" stroke-width="3" points="194.5001,-339.726 198,-349.726 201.5001,-339.726 194.5001,-339.726"/>
<text text-anchor="middle" x="312.5" y="-320.8" font-family="Times,serif" font-size="14.00" fill="#ffffff"> 563661.0 row(s) | 100.0% estd.</text>
</g>
<!-- 94911334606016 -->
<g id="node6" class="node">
<title>94911334606016</title>
<polygon fill="none" stroke="#ffffff" points="304,-210 92,-210 92,-174 304,-174 304,-210"/>
<text text-anchor="middle" x="198" y="-188.3" font-family="Times,serif" font-size="14.00" fill="#ffffff">[Predicate] l_quantity &lt; 24</text>
</g>
<!-- 94911334606016&#45;&gt;94910349829568 -->
<g id="edge5" class="edge">
<title>94911334606016&#45;&gt;94910349829568</title>
<path fill="none" stroke="#ffffff" stroke-width="3" d="M198,-210.2337C198,-221.9125 198,-237.3308 198,-250.7022"/>
<polygon fill="#ffffff" stroke="#ffffff" stroke-width="3" points="194.5001,-250.8765 198,-260.8765 201.5001,-250.8765 194.5001,-250.8765"/>
<text text-anchor="middle" x="308" y="-231.8" font-family="Times,serif" font-size="14.00" fill="#ffffff"> 563661.0 row(s) | 46.9% estd.</text>
</g>
<!-- 94911397073936 -->
<g id="node7" class="node">
<title>94911397073936</title>
<polygon fill="none" stroke="#ffffff" points="396,-123 0,-123 0,-87 396,-87 396,-123"/>
<text text-anchor="middle" x="198" y="-101.3" font-family="Times,serif" font-size="14.00" fill="#ffffff">[Predicate] l_discount BETWEEN 0.05 AND 0.07001</text>
</g>
<!-- 94911397073936&#45;&gt;94911334606016 -->
<g id="edge6" class="edge">
<title>94911397073936&#45;&gt;94911334606016</title>
<path fill="none" stroke="#ffffff" stroke-width="4" d="M198,-123.0265C198,-134.8082 198,-150.4393 198,-163.8419"/>
<polygon fill="#ffffff" stroke="#ffffff" stroke-width="4" points="194.5001,-163.9966 198,-173.9966 201.5001,-163.9967 194.5001,-163.9966"/>
<text text-anchor="middle" x="312.5" y="-144.8" font-family="Times,serif" font-size="14.00" fill="#ffffff"> 1200843.0 row(s) | 20.0% estd.</text>
</g>
<!-- 94911397035168 -->
<g id="node8" class="node">
<title>94911397035168</title>
<polygon fill="none" stroke="#ffffff" points="316,-36 80,-36 80,0 316,0 316,-36"/>
<text text-anchor="middle" x="198" y="-14.3" font-family="Times,serif" font-size="14.00" fill="#ffffff">[StoredTable] Name: &#39;lineitem&#39;</text>
</g>
<!-- 94911397035168&#45;&gt;94911397073936 -->
<g id="edge7" class="edge">
<title>94911397035168&#45;&gt;94911397073936</title>
<path fill="none" stroke="#ffffff" stroke-width="4" d="M198,-36.0265C198,-47.8082 198,-63.4393 198,-76.8419"/>
<polygon fill="#ffffff" stroke="#ffffff" stroke-width="4" points="194.5001,-76.9966 198,-86.9966 201.5001,-76.9967 194.5001,-76.9966"/>
<text text-anchor="middle" x="317" y="-57.8" font-family="Times,serif" font-size="14.00" fill="#ffffff"> 6001215.0 row(s) | 100.0% estd.</text>
</g>
</g>
</svg>
