<?xml version="1.0" encoding="UTF-8" standalone="no"?>
<!DOCTYPE svg PUBLIC "-//W3C//DTD SVG 1.1//EN"
 "http://www.w3.org/Graphics/SVG/1.1/DTD/svg11.dtd">
<!-- Generated by graphviz version 2.40.1 (20161225.0304)
 -->
<!-- Title: G Pages: 1 -->
<svg width="569pt" height="1059pt"
 viewBox="0.00 0.00 569.00 1059.00" xmlns="http://www.w3.org/2000/svg" xmlns:xlink="http://www.w3.org/1999/xlink">
<g id="graph0" class="graph" transform="scale(1 1) rotate(0) translate(4 1055)">
<title>G</title>
<polygon fill="#000000" stroke="transparent" points="-4,4 -4,-1055 565,-1055 565,4 -4,4"/>
<!-- 94334812460944 -->
<g id="node1" class="node">
<title>94334812460944</title>
<polygon fill="none" stroke="#ffffff" points="413.5,-1051 80.5,-1051 80.5,-968 413.5,-968 413.5,-1051"/>
<text text-anchor="middle" x="247" y="-1035.8" font-family="Times,serif" font-size="14.00" fill="#ffffff">Alias [l_shipmode, SUM(CASE WHEN o_orderpriority </text>
<text text-anchor="middle" x="247" y="-1020.8" font-family="Times,serif" font-size="14.00" fill="#ffffff">= &#39;1&#45;URGENT&#39; OR o_orderpriority = &#39;2&#45;HIGH&#39; THEN 1 </text>
<text text-anchor="middle" x="247" y="-1005.8" font-family="Times,serif" font-size="14.00" fill="#ffffff">ELSE 0 END) AS high_line_count, SUM(CASE WHEN </text>
<text text-anchor="middle" x="247" y="-990.8" font-family="Times,serif" font-size="14.00" fill="#ffffff">o_orderpriority != &#39;1&#45;URGENT&#39; AND o_orderpriority </text>
<text text-anchor="middle" x="247" y="-975.8" font-family="Times,serif" font-size="14.00" fill="#ffffff">!= &#39;2&#45;HIGH&#39; THEN 1 ELSE 0 END) AS low_line_count] </text>
</g>
<!-- 94334732529376 -->
<g id="node2" class="node">
<title>94334732529376</title>
<polygon fill="none" stroke="#ffffff" points="340,-917 154,-917 154,-881 340,-881 340,-917"/>
<text text-anchor="middle" x="247" y="-895.3" font-family="Times,serif" font-size="14.00" fill="#ffffff">[Sort] l_shipmode (Ascending)</text>
</g>
<!-- 94334732529376&#45;&gt;94334812460944 -->
<g id="edge1" class="edge">
<title>94334732529376&#45;&gt;94334812460944</title>
<path fill="none" stroke="#ffffff" stroke-width="4" d="M247,-917.2468C247,-928.296 247,-942.9992 247,-957.4143"/>
<polygon fill="#ffffff" stroke="#ffffff" stroke-width="4" points="243.5001,-957.8034 247,-967.8034 250.5001,-957.8035 243.5001,-957.8034"/>
<text text-anchor="middle" x="339" y="-938.8" font-family="Times,serif" font-size="14.00" fill="#ffffff"> 6001215.0 row(s) | 100.0% estd.</text>
</g>
<!-- 94334847097632 -->
<g id="node3" class="node">
<title>94334847097632</title>
<polygon fill="none" stroke="#ffffff" points="419,-830 75,-830 75,-747 419,-747 419,-830"/>
<text text-anchor="middle" x="247" y="-814.8" font-family="Times,serif" font-size="14.00" fill="#ffffff">[Aggregate] GroupBy: [l_shipmode] Aggregates: </text>
<text text-anchor="middle" x="247" y="-799.8" font-family="Times,serif" font-size="14.00" fill="#ffffff">[SUM(CASE WHEN o_orderpriority = &#39;1&#45;URGENT&#39; OR </text>
<text text-anchor="middle" x="247" y="-784.8" font-family="Times,serif" font-size="14.00" fill="#ffffff">o_orderpriority = &#39;2&#45;HIGH&#39; THEN 1 ELSE 0 END), </text>
<text text-anchor="middle" x="247" y="-769.8" font-family="Times,serif" font-size="14.00" fill="#ffffff">SUM(CASE WHEN o_orderpriority != &#39;1&#45;URGENT&#39; AND </text>
<text text-anchor="middle" x="247" y="-754.8" font-family="Times,serif" font-size="14.00" fill="#ffffff">o_orderpriority != &#39;2&#45;HIGH&#39; THEN 1 ELSE 0 END)] </text>
</g>
<!-- 94334847097632&#45;&gt;94334732529376 -->
<g id="edge2" class="edge">
<title>94334847097632&#45;&gt;94334732529376</title>
<path fill="none" stroke="#ffffff" stroke-width="4" d="M247,-830.2753C247,-843.7945 247,-858.46 247,-870.7578"/>
<polygon fill="#ffffff" stroke="#ffffff" stroke-width="4" points="243.5001,-870.8672 247,-880.8673 250.5001,-870.8673 243.5001,-870.8672"/>
<text text-anchor="middle" x="339" y="-851.8" font-family="Times,serif" font-size="14.00" fill="#ffffff"> 6001215.0 row(s) | 100.0% estd.</text>
</g>
<!-- 94334847097072 -->
<g id="node4" class="node">
<title>94334847097072</title>
<polygon fill="none" stroke="#ffffff" points="412,-696 82,-696 82,-613 412,-613 412,-696"/>
<text text-anchor="middle" x="247" y="-680.8" font-family="Times,serif" font-size="14.00" fill="#ffffff">[Projection] CASE WHEN o_orderpriority = </text>
<text text-anchor="middle" x="247" y="-665.8" font-family="Times,serif" font-size="14.00" fill="#ffffff">&#39;1&#45;URGENT&#39; OR o_orderpriority = &#39;2&#45;HIGH&#39; THEN 1 </text>
<text text-anchor="middle" x="247" y="-650.8" font-family="Times,serif" font-size="14.00" fill="#ffffff">ELSE 0 END, CASE WHEN o_orderpriority != </text>
<text text-anchor="middle" x="247" y="-635.8" font-family="Times,serif" font-size="14.00" fill="#ffffff">&#39;1&#45;URGENT&#39; AND o_orderpriority != &#39;2&#45;HIGH&#39; THEN 1 </text>
<text text-anchor="middle" x="247" y="-620.8" font-family="Times,serif" font-size="14.00" fill="#ffffff">ELSE 0 END, l_shipmode </text>
</g>
<!-- 94334847097072&#45;&gt;94334847097632 -->
<g id="edge3" class="edge">
<title>94334847097072&#45;&gt;94334847097632</title>
<path fill="none" stroke="#ffffff" stroke-width="4" d="M247,-696.1639C247,-709.0206 247,-723.337 247,-736.7855"/>
<polygon fill="#ffffff" stroke="#ffffff" stroke-width="4" points="243.5001,-736.8618 247,-746.8619 250.5001,-736.8619 243.5001,-736.8618"/>
<text text-anchor="middle" x="339" y="-717.8" font-family="Times,serif" font-size="14.00" fill="#ffffff"> 6001215.0 row(s) | 100.0% estd.</text>
</g>
<!-- 94334788491472 -->
<g id="node5" class="node">
<title>94334788491472</title>
<polygon fill="none" stroke="#ffffff" points="377,-562 117,-562 117,-526 377,-526 377,-562"/>
<text text-anchor="middle" x="247" y="-540.3" font-family="Times,serif" font-size="14.00" fill="#ffffff">[Join] Mode: Inner o_orderkey = l_orderkey</text>
</g>
<!-- 94334788491472&#45;&gt;94334847097072 -->
<g id="edge4" class="edge">
<title>94334788491472&#45;&gt;94334847097072</title>
<path fill="none" stroke="#ffffff" stroke-width="4" d="M247,-562.2468C247,-573.296 247,-587.9992 247,-602.4143"/>
<polygon fill="#ffffff" stroke="#ffffff" stroke-width="4" points="243.5001,-602.8034 247,-612.8034 250.5001,-602.8035 243.5001,-602.8034"/>
<text text-anchor="middle" x="332" y="-583.8" font-family="Times,serif" font-size="14.00" fill="#ffffff"> 6001215.0 row(s) | 0.0% estd.</text>
</g>
<!-- 94334847108688 -->
<g id="node6" class="node">
<title>94334847108688</title>
<polygon fill="none" stroke="#ffffff" points="236,-474 0,-474 0,-438 236,-438 236,-474"/>
<text text-anchor="middle" x="118" y="-452.3" font-family="Times,serif" font-size="14.00" fill="#ffffff">[Projection] o_orderkey, o_orderpriority</text>
</g>
<!-- 94334847108688&#45;&gt;94334788491472 -->
<g id="edge5" class="edge">
<title>94334847108688&#45;&gt;94334788491472</title>
<path fill="none" stroke="#ffffff" stroke-width="4" d="M128.6369,-474.3797C135.7683,-485.3635 146.0289,-498.9045 158,-508 164.7726,-513.1457 172.3816,-517.6705 180.2245,-521.6174"/>
<polygon fill="#ffffff" stroke="#ffffff" stroke-width="4" points="178.9646,-524.8927 189.5027,-525.9878 181.9476,-518.5601 178.9646,-524.8927"/>
<text text-anchor="middle" x="250" y="-496.8" font-family="Times,serif" font-size="14.00" fill="#ffffff"> 1500000.0 row(s) | 100.0% estd.</text>
</g>
<!-- 94334803762528 -->
<g id="node7" class="node">
<title>94334803762528</title>
<polygon fill="none" stroke="#ffffff" points="205,-386 31,-386 31,-350 205,-350 205,-386"/>
<text text-anchor="middle" x="118" y="-364.3" font-family="Times,serif" font-size="14.00" fill="#ffffff">[StoredTable] Name: &#39;orders&#39;</text>
</g>
<!-- 94334803762528&#45;&gt;94334847108688 -->
<g id="edge6" class="edge">
<title>94334803762528&#45;&gt;94334847108688</title>
<path fill="none" stroke="#ffffff" stroke-width="4" d="M118,-386.2337C118,-398.1508 118,-413.9616 118,-427.5183"/>
<polygon fill="#ffffff" stroke="#ffffff" stroke-width="4" points="114.5001,-427.7897 118,-437.7897 121.5001,-427.7897 114.5001,-427.7897"/>
<text text-anchor="middle" x="210" y="-407.8" font-family="Times,serif" font-size="14.00" fill="#ffffff"> 1500000.0 row(s) | 100.0% estd.</text>
</g>
<!-- 94334711519824 -->
<g id="node8" class="node">
<title>94334711519824</title>
<polygon fill="none" stroke="#ffffff" points="499.5,-475 254.5,-475 254.5,-437 499.5,-437 499.5,-475"/>
<text text-anchor="middle" x="377" y="-459.8" font-family="Times,serif" font-size="14.00" fill="#ffffff">[Projection] l_orderkey, l_shipdate, </text>
<text text-anchor="middle" x="377" y="-444.8" font-family="Times,serif" font-size="14.00" fill="#ffffff">l_commitdate, l_receiptdate, l_shipmode </text>
</g>
<!-- 94334711519824&#45;&gt;94334788491472 -->
<g id="edge7" class="edge">
<title>94334711519824&#45;&gt;94334788491472</title>
<path fill="none" stroke="#ffffff" stroke-width="4" d="M367.9669,-475.0038C361.9384,-485.9396 353.086,-499.2117 342,-508 335.4435,-513.1976 328.0548,-517.7051 320.3675,-521.5998"/>
<polygon fill="#ffffff" stroke="#ffffff" stroke-width="4" points="318.7967,-518.4707 311.2381,-525.8949 321.7767,-524.8048 318.7967,-518.4707"/>
<text text-anchor="middle" x="448" y="-496.8" font-family="Times,serif" font-size="14.00" fill="#ffffff"> 6001215.0 row(s) | 100.0% estd.</text>
</g>
<!-- 94334711520384 -->
<g id="node9" class="node">
<title>94334711520384</title>
<polygon fill="none" stroke="#ffffff" points="509,-386 245,-386 245,-350 509,-350 509,-386"/>
<text text-anchor="middle" x="377" y="-364.3" font-family="Times,serif" font-size="14.00" fill="#ffffff">[Predicate] (l_shipmode) IN (&#39;MAIL&#39;, &#39;SHIP&#39;)</text>
</g>
<!-- 94334711520384&#45;&gt;94334711519824 -->
<g id="edge8" class="edge">
<title>94334711520384&#45;&gt;94334711519824</title>
<path fill="none" stroke="#ffffff" stroke-width="4" d="M377,-386.2337C377,-397.9125 377,-413.3308 377,-426.7022"/>
<polygon fill="#ffffff" stroke="#ffffff" stroke-width="4" points="373.5001,-426.8765 377,-436.8765 380.5001,-426.8765 373.5001,-426.8765"/>
<text text-anchor="middle" x="469" y="-407.8" font-family="Times,serif" font-size="14.00" fill="#ffffff"> 6001215.0 row(s) | 100.0% estd.</text>
</g>
<!-- 94334774507280 -->
<g id="node10" class="node">
<title>94334774507280</title>
<polygon fill="none" stroke="#ffffff" points="523.5,-299 230.5,-299 230.5,-261 523.5,-261 523.5,-299"/>
<text text-anchor="middle" x="377" y="-283.8" font-family="Times,serif" font-size="14.00" fill="#ffffff">[Predicate] l_receiptdate BETWEEN &#39;1994&#45;01&#45;01&#39; </text>
<text text-anchor="middle" x="377" y="-268.8" font-family="Times,serif" font-size="14.00" fill="#ffffff">AND &#39;1995&#45;01&#45;00&#39; </text>
</g>
<!-- 94334774507280&#45;&gt;94334711520384 -->
<g id="edge9" class="edge">
<title>94334774507280&#45;&gt;94334711520384</title>
<path fill="none" stroke="#ffffff" stroke-width="4" d="M377,-299.0947C377,-310.981 377,-326.483 377,-339.7725"/>
<polygon fill="#ffffff" stroke="#ffffff" stroke-width="4" points="373.5001,-339.8447 377,-349.8447 380.5001,-339.8448 373.5001,-339.8447"/>
<text text-anchor="middle" x="469" y="-320.8" font-family="Times,serif" font-size="14.00" fill="#ffffff"> 6001215.0 row(s) | 100.0% estd.</text>
</g>
<!-- 94334711534720 -->
<g id="node11" class="node">
<title>94334711534720</title>
<polygon fill="none" stroke="#ffffff" points="490.5,-210 263.5,-210 263.5,-174 490.5,-174 490.5,-210"/>
<text text-anchor="middle" x="377" y="-188.3" font-family="Times,serif" font-size="14.00" fill="#ffffff">[Predicate] l_shipdate &lt; l_commitdate</text>
</g>
<!-- 94334711534720&#45;&gt;94334774507280 -->
<g id="edge10" class="edge">
<title>94334711534720&#45;&gt;94334774507280</title>
<path fill="none" stroke="#ffffff" stroke-width="4" d="M377,-210.2337C377,-221.9125 377,-237.3308 377,-250.7022"/>
<polygon fill="#ffffff" stroke="#ffffff" stroke-width="4" points="373.5001,-250.8765 377,-260.8765 380.5001,-250.8765 373.5001,-250.8765"/>
<text text-anchor="middle" x="469" y="-231.8" font-family="Times,serif" font-size="14.00" fill="#ffffff"> 6001215.0 row(s) | 100.0% estd.</text>
</g>
<!-- 94334711520528 -->
<g id="node12" class="node">
<title>94334711520528</title>
<polygon fill="none" stroke="#ffffff" points="497.5,-123 256.5,-123 256.5,-87 497.5,-87 497.5,-123"/>
<text text-anchor="middle" x="377" y="-101.3" font-family="Times,serif" font-size="14.00" fill="#ffffff">[Predicate] l_commitdate &lt; l_receiptdate</text>
</g>
<!-- 94334711520528&#45;&gt;94334711534720 -->
<g id="edge11" class="edge">
<title>94334711520528&#45;&gt;94334711534720</title>
<path fill="none" stroke="#ffffff" stroke-width="4" d="M377,-123.0265C377,-134.8082 377,-150.4393 377,-163.8419"/>
<polygon fill="#ffffff" stroke="#ffffff" stroke-width="4" points="373.5001,-163.9966 377,-173.9966 380.5001,-163.9967 373.5001,-163.9966"/>
<text text-anchor="middle" x="469" y="-144.8" font-family="Times,serif" font-size="14.00" fill="#ffffff"> 6001215.0 row(s) | 100.0% estd.</text>
</g>
<!-- 94334807419024 -->
<g id="node13" class="node">
<title>94334807419024</title>
<polygon fill="none" stroke="#ffffff" points="469.5,-36 284.5,-36 284.5,0 469.5,0 469.5,-36"/>
<text text-anchor="middle" x="377" y="-14.3" font-family="Times,serif" font-size="14.00" fill="#ffffff">[StoredTable] Name: &#39;lineitem&#39;</text>
</g>
<!-- 94334807419024&#45;&gt;94334711520528 -->
<g id="edge12" class="edge">
<title>94334807419024&#45;&gt;94334711520528</title>
<path fill="none" stroke="#ffffff" stroke-width="4" d="M377,-36.0265C377,-47.8082 377,-63.4393 377,-76.8419"/>
<polygon fill="#ffffff" stroke="#ffffff" stroke-width="4" points="373.5001,-76.9966 377,-86.9966 380.5001,-76.9967 373.5001,-76.9966"/>
<text text-anchor="middle" x="469" y="-57.8" font-family="Times,serif" font-size="14.00" fill="#ffffff"> 6001215.0 row(s) | 100.0% estd.</text>
</g>
</g>
</svg>
