<?xml version="1.0" encoding="UTF-8" standalone="no"?>
<!DOCTYPE svg PUBLIC "-//W3C//DTD SVG 1.1//EN"
 "http://www.w3.org/Graphics/SVG/1.1/DTD/svg11.dtd">
<!-- Generated by graphviz version 2.40.1 (20161225.0304)
 -->
<!-- Title: G Pages: 1 -->
<svg width="349pt" height="746pt"
 viewBox="0.00 0.00 349.00 746.00" xmlns="http://www.w3.org/2000/svg" xmlns:xlink="http://www.w3.org/1999/xlink">
<g id="graph0" class="graph" transform="scale(1 1) rotate(0) translate(4 742)">
<title>G</title>
<polygon fill="#000000" stroke="transparent" points="-4,4 -4,-742 345,-742 345,4 -4,4"/>
<!-- 94378872420272 -->
<g id="node1" class="node">
<title>94378872420272</title>
<polygon fill="none" stroke="#ffffff" points="294,-738 20,-738 20,-700 294,-700 294,-738"/>
<text text-anchor="middle" x="157" y="-722.8" font-family="Times,serif" font-size="14.00" fill="#ffffff">Alias [SUM(l_extendedprice * l_discount) AS </text>
<text text-anchor="middle" x="157" y="-707.8" font-family="Times,serif" font-size="14.00" fill="#ffffff">REVENUE] </text>
</g>
<!-- 94378019221808 -->
<g id="node2" class="node">
<title>94378019221808</title>
<polygon fill="none" stroke="#ffffff" points="269.5,-649 44.5,-649 44.5,-611 269.5,-611 269.5,-649"/>
<text text-anchor="middle" x="157" y="-633.8" font-family="Times,serif" font-size="14.00" fill="#ffffff">[Aggregate] GroupBy: [] Aggregates: </text>
<text text-anchor="middle" x="157" y="-618.8" font-family="Times,serif" font-size="14.00" fill="#ffffff">[SUM(l_extendedprice * l_discount)] </text>
</g>
<!-- 94378019221808&#45;&gt;94378872420272 -->
<g id="edge1" class="edge">
<title>94378019221808&#45;&gt;94378872420272</title>
<path fill="none" stroke="#ffffff" stroke-width="3" d="M157,-649.3117C157,-661.091 157,-676.3813 157,-689.6372"/>
<polygon fill="#ffffff" stroke="#ffffff" stroke-width="3" points="153.5001,-689.726 157,-699.726 160.5001,-689.726 153.5001,-689.726"/>
<text text-anchor="middle" x="245.5" y="-670.8" font-family="Times,serif" font-size="14.00" fill="#ffffff"> 563661.0 row(s) | 100.0% estd.</text>
</g>
<!-- 94378075231600 -->
<g id="node3" class="node">
<title>94378075231600</title>
<polygon fill="none" stroke="#ffffff" points="278,-560 36,-560 36,-524 278,-524 278,-560"/>
<text text-anchor="middle" x="157" y="-538.3" font-family="Times,serif" font-size="14.00" fill="#ffffff">[Projection] l_extendedprice * l_discount</text>
</g>
<!-- 94378075231600&#45;&gt;94378019221808 -->
<g id="edge2" class="edge">
<title>94378075231600&#45;&gt;94378019221808</title>
<path fill="none" stroke="#ffffff" stroke-width="3" d="M157,-560.2337C157,-571.9125 157,-587.3308 157,-600.7022"/>
<polygon fill="#ffffff" stroke="#ffffff" stroke-width="3" points="153.5001,-600.8765 157,-610.8765 160.5001,-600.8765 153.5001,-600.8765"/>
<text text-anchor="middle" x="245.5" y="-581.8" font-family="Times,serif" font-size="14.00" fill="#ffffff"> 563661.0 row(s) | 100.0% estd.</text>
</g>
<!-- 94377838491472 -->
<g id="node4" class="node">
<title>94377838491472</title>
<polygon fill="none" stroke="#ffffff" points="277.5,-473 36.5,-473 36.5,-435 277.5,-435 277.5,-473"/>
<text text-anchor="middle" x="157" y="-457.8" font-family="Times,serif" font-size="14.00" fill="#ffffff">[Projection] l_quantity, l_extendedprice, </text>
<text text-anchor="middle" x="157" y="-442.8" font-family="Times,serif" font-size="14.00" fill="#ffffff">l_discount, l_shipdate </text>
</g>
<!-- 94377838491472&#45;&gt;94378075231600 -->
<g id="edge3" class="edge">
<title>94377838491472&#45;&gt;94378075231600</title>
<path fill="none" stroke="#ffffff" stroke-width="3" d="M157,-473.0947C157,-484.981 157,-500.483 157,-513.7725"/>
<polygon fill="#ffffff" stroke="#ffffff" stroke-width="3" points="153.5001,-513.8447 157,-523.8447 160.5001,-513.8448 153.5001,-513.8447"/>
<text text-anchor="middle" x="245.5" y="-494.8" font-family="Times,serif" font-size="14.00" fill="#ffffff"> 563661.0 row(s) | 100.0% estd.</text>
</g>
<!-- 94377610862144 -->
<g id="node5" class="node">
<title>94377610862144</title>
<polygon fill="none" stroke="#ffffff" points="266,-384 48,-384 48,-348 266,-348 266,-384"/>
<text text-anchor="middle" x="157" y="-362.3" font-family="Times,serif" font-size="14.00" fill="#ffffff">[Predicate] l_shipdate &lt; &#39;1995&#45;01&#45;01&#39;</text>
</g>
<!-- 94377610862144&#45;&gt;94377838491472 -->
<g id="edge4" class="edge">
<title>94377610862144&#45;&gt;94377838491472</title>
<path fill="none" stroke="#ffffff" stroke-width="3" d="M157,-384.2337C157,-395.9125 157,-411.3308 157,-424.7022"/>
<polygon fill="#ffffff" stroke="#ffffff" stroke-width="3" points="153.5001,-424.8765 157,-434.8765 160.5001,-424.8765 153.5001,-424.8765"/>
<text text-anchor="middle" x="245.5" y="-405.8" font-family="Times,serif" font-size="14.00" fill="#ffffff"> 563661.0 row(s) | 100.0% estd.</text>
</g>
<!-- 94377610862000 -->
<g id="node6" class="node">
<title>94377610862000</title>
<polygon fill="none" stroke="#ffffff" points="270.5,-297 43.5,-297 43.5,-261 270.5,-261 270.5,-297"/>
<text text-anchor="middle" x="157" y="-275.3" font-family="Times,serif" font-size="14.00" fill="#ffffff">[Predicate] l_shipdate &gt;= &#39;1994&#45;01&#45;01&#39;</text>
</g>
<!-- 94377610862000&#45;&gt;94377610862144 -->
<g id="edge5" class="edge">
<title>94377610862000&#45;&gt;94377610862144</title>
<path fill="none" stroke="#ffffff" stroke-width="3" d="M157,-297.0265C157,-308.8082 157,-324.4393 157,-337.8419"/>
<polygon fill="#ffffff" stroke="#ffffff" stroke-width="3" points="153.5001,-337.9966 157,-347.9966 160.5001,-337.9967 153.5001,-337.9966"/>
<text text-anchor="middle" x="245.5" y="-318.8" font-family="Times,serif" font-size="14.00" fill="#ffffff"> 563661.0 row(s) | 100.0% estd.</text>
</g>
<!-- 94377610860416 -->
<g id="node7" class="node">
<title>94377610860416</title>
<polygon fill="none" stroke="#ffffff" points="239,-210 75,-210 75,-174 239,-174 239,-210"/>
<text text-anchor="middle" x="157" y="-188.3" font-family="Times,serif" font-size="14.00" fill="#ffffff">[Predicate] l_quantity &lt; 24</text>
</g>
<!-- 94377610860416&#45;&gt;94377610862000 -->
<g id="edge6" class="edge">
<title>94377610860416&#45;&gt;94377610862000</title>
<path fill="none" stroke="#ffffff" stroke-width="3" d="M157,-210.0265C157,-221.8082 157,-237.4393 157,-250.8419"/>
<polygon fill="#ffffff" stroke="#ffffff" stroke-width="3" points="153.5001,-250.9966 157,-260.9966 160.5001,-250.9967 153.5001,-250.9966"/>
<text text-anchor="middle" x="242" y="-231.8" font-family="Times,serif" font-size="14.00" fill="#ffffff"> 563661.0 row(s) | 46.9% estd.</text>
</g>
<!-- 94377610860272 -->
<g id="node8" class="node">
<title>94377610860272</title>
<polygon fill="none" stroke="#ffffff" points="314,-123 0,-123 0,-87 314,-87 314,-123"/>
<text text-anchor="middle" x="157" y="-101.3" font-family="Times,serif" font-size="14.00" fill="#ffffff">[Predicate] l_discount BETWEEN 0.05 AND 0.07001</text>
</g>
<!-- 94377610860272&#45;&gt;94377610860416 -->
<g id="edge7" class="edge">
<title>94377610860272&#45;&gt;94377610860416</title>
<path fill="none" stroke="#ffffff" stroke-width="4" d="M157,-123.0265C157,-134.8082 157,-150.4393 157,-163.8419"/>
<polygon fill="#ffffff" stroke="#ffffff" stroke-width="4" points="153.5001,-163.9966 157,-173.9966 160.5001,-163.9967 153.5001,-163.9966"/>
<text text-anchor="middle" x="245.5" y="-144.8" font-family="Times,serif" font-size="14.00" fill="#ffffff"> 1200843.0 row(s) | 20.0% estd.</text>
</g>
<!-- 94377610739840 -->
<g id="node9" class="node">
<title>94377610739840</title>
<polygon fill="none" stroke="#ffffff" points="249.5,-36 64.5,-36 64.5,0 249.5,0 249.5,-36"/>
<text text-anchor="middle" x="157" y="-14.3" font-family="Times,serif" font-size="14.00" fill="#ffffff">[StoredTable] Name: &#39;lineitem&#39;</text>
</g>
<!-- 94377610739840&#45;&gt;94377610860272 -->
<g id="edge8" class="edge">
<title>94377610739840&#45;&gt;94377610860272</title>
<path fill="none" stroke="#ffffff" stroke-width="4" d="M157,-36.0265C157,-47.8082 157,-63.4393 157,-76.8419"/>
<polygon fill="#ffffff" stroke="#ffffff" stroke-width="4" points="153.5001,-76.9966 157,-86.9966 160.5001,-76.9967 153.5001,-76.9966"/>
<text text-anchor="middle" x="249" y="-57.8" font-family="Times,serif" font-size="14.00" fill="#ffffff"> 6001215.0 row(s) | 100.0% estd.</text>
</g>
</g>
</svg>
