<?xml version="1.0" encoding="UTF-8" standalone="no"?>
<!DOCTYPE svg PUBLIC "-//W3C//DTD SVG 1.1//EN"
 "http://www.w3.org/Graphics/SVG/1.1/DTD/svg11.dtd">
<!-- Generated by graphviz version 2.40.1 (20161225.0304)
 -->
<!-- Title: G Pages: 1 -->
<svg width="1328pt" height="1637pt"
 viewBox="0.00 0.00 1328.00 1637.00" xmlns="http://www.w3.org/2000/svg" xmlns:xlink="http://www.w3.org/1999/xlink">
<g id="graph0" class="graph" transform="scale(1 1) rotate(0) translate(4 1633)">
<title>G</title>
<polygon fill="#000000" stroke="transparent" points="-4,4 -4,-1633 1324,-1633 1324,4 -4,4"/>
<!-- 94334832249952 -->
<g id="node1" class="node">
<title>94334832249952</title>
<polygon fill="none" stroke="#ffffff" points="200.5,-1629 103.5,-1629 103.5,-1560 200.5,-1560 200.5,-1629"/>
<text text-anchor="middle" x="152" y="-1613.8" font-family="Times,serif" font-size="14.00" fill="#ffffff">Alias [n_name</text>
<text text-anchor="middle" x="152" y="-1598.8" font-family="Times,serif" font-size="14.00" fill="#ffffff">revenue]</text>
<text text-anchor="middle" x="152" y="-1567.8" font-family="Times,serif" font-size="14.00" fill="#ffffff">1 µs 0 ns</text>
</g>
<!-- 94334562238928 -->
<g id="node2" class="node">
<title>94334562238928</title>
<polygon fill="none" stroke="#ffffff" points="188,-1509 116,-1509 116,-1455 188,-1455 188,-1509"/>
<text text-anchor="middle" x="152" y="-1493.8" font-family="Times,serif" font-size="14.00" fill="#ffffff">Sort</text>
<text text-anchor="middle" x="152" y="-1462.8" font-family="Times,serif" font-size="14.00" fill="#ffffff">13 µs 0 ns</text>
</g>
<!-- 94334562238928&#45;&gt;94334832249952 -->
<g id="edge1" class="edge">
<title>94334562238928&#45;&gt;94334832249952</title>
<path fill="none" stroke="#ffffff" d="M152,-1509.2331C152,-1521.3589 152,-1535.9621 152,-1549.6298"/>
<polygon fill="#ffffff" stroke="#ffffff" points="148.5001,-1549.8427 152,-1559.8427 155.5001,-1549.8428 148.5001,-1549.8427"/>
<text text-anchor="middle" x="222.5" y="-1530.8" font-family="Times,serif" font-size="14.00" fill="#ffffff">5 row(s)/1 chunk(s)/831B</text>
</g>
<!-- 94334562100560 -->
<g id="node3" class="node">
<title>94334562100560</title>
<polygon fill="none" stroke="#ffffff" stroke-width="2" points="297,-1404 7,-1404 7,-1335 297,-1335 297,-1404"/>
<text text-anchor="middle" x="152" y="-1388.8" font-family="Times,serif" font-size="14.00" fill="#ffffff">[Aggregate] GroupBy ColumnIDs: 1 Aggregates: </text>
<text text-anchor="middle" x="152" y="-1373.8" font-family="Times,serif" font-size="14.00" fill="#ffffff">SUM(Column #0)</text>
<text text-anchor="middle" x="152" y="-1342.8" font-family="Times,serif" font-size="14.00" fill="#ffffff">306 µs 0 ns </text>
</g>
<!-- 94334562100560&#45;&gt;94334562238928 -->
<g id="edge2" class="edge">
<title>94334562100560&#45;&gt;94334562238928</title>
<path fill="none" stroke="#ffffff" d="M152,-1404.1717C152,-1417.0092 152,-1431.6141 152,-1444.6774"/>
<polygon fill="#ffffff" stroke="#ffffff" points="148.5001,-1444.7601 152,-1454.7602 155.5001,-1444.7602 148.5001,-1444.7601"/>
<text text-anchor="middle" x="222.5" y="-1425.8" font-family="Times,serif" font-size="14.00" fill="#ffffff">5 row(s)/1 chunk(s)/831B</text>
</g>
<!-- 94334562251968 -->
<g id="node4" class="node">
<title>94334562251968</title>
<polygon fill="none" stroke="#ffffff" stroke-width="2" points="193.5,-1284 110.5,-1284 110.5,-1230 193.5,-1230 193.5,-1284"/>
<text text-anchor="middle" x="152" y="-1268.8" font-family="Times,serif" font-size="14.00" fill="#ffffff">Projection</text>
<text text-anchor="middle" x="152" y="-1237.8" font-family="Times,serif" font-size="14.00" fill="#ffffff">3 ms 970 µs</text>
</g>
<!-- 94334562251968&#45;&gt;94334562100560 -->
<g id="edge3" class="edge">
<title>94334562251968&#45;&gt;94334562100560</title>
<path fill="none" stroke="#ffffff" stroke-width="2" d="M152,-1284.2331C152,-1296.3589 152,-1310.9621 152,-1324.6298"/>
<polygon fill="#ffffff" stroke="#ffffff" stroke-width="2" points="148.5001,-1324.8427 152,-1334.8427 155.5001,-1324.8428 148.5001,-1324.8427"/>
<text text-anchor="middle" x="253" y="-1305.8" font-family="Times,serif" font-size="14.00" fill="#ffffff">7375 row(s)/32 chunk(s)/280.500KB</text>
</g>
<!-- 94334334501376 -->
<g id="node5" class="node">
<title>94334334501376</title>
<polygon fill="none" stroke="#ffffff" stroke-width="2" points="232.5,-1179 71.5,-1179 71.5,-1080 232.5,-1080 232.5,-1179"/>
<text text-anchor="middle" x="152" y="-1163.8" font-family="Times,serif" font-size="14.00" fill="#ffffff">TableScan</text>
<text text-anchor="middle" x="152" y="-1148.8" font-family="Times,serif" font-size="14.00" fill="#ffffff">Impl: ColumnComparison</text>
<text text-anchor="middle" x="152" y="-1133.8" font-family="Times,serif" font-size="14.00" fill="#ffffff">c_nationkey = </text>
<text text-anchor="middle" x="152" y="-1118.8" font-family="Times,serif" font-size="14.00" fill="#ffffff">s_nationkey</text>
<text text-anchor="middle" x="152" y="-1087.8" font-family="Times,serif" font-size="14.00" fill="#ffffff">3 ms 970 µs </text>
</g>
<!-- 94334334501376&#45;&gt;94334562251968 -->
<g id="edge4" class="edge">
<title>94334334501376&#45;&gt;94334562251968</title>
<path fill="none" stroke="#ffffff" stroke-width="2" d="M152,-1179.1599C152,-1192.598 152,-1206.9153 152,-1219.5584"/>
<polygon fill="#ffffff" stroke="#ffffff" stroke-width="2" points="148.5001,-1219.7287 152,-1229.7287 155.5001,-1219.7288 148.5001,-1219.7287"/>
<text text-anchor="middle" x="253" y="-1200.8" font-family="Times,serif" font-size="14.00" fill="#ffffff">7375 row(s)/32 chunk(s)/977.039KB</text>
</g>
<!-- 94334562250960 -->
<g id="node6" class="node">
<title>94334562250960</title>
<polygon fill="none" stroke="#ffffff" stroke-width="3" points="245,-1029 59,-1029 59,-945 245,-945 245,-1029"/>
<text text-anchor="middle" x="152" y="-1013.8" font-family="Times,serif" font-size="14.00" fill="#ffffff">JoinHash</text>
<text text-anchor="middle" x="152" y="-998.8" font-family="Times,serif" font-size="14.00" fill="#ffffff">(Inner Join where c_custkey = </text>
<text text-anchor="middle" x="152" y="-983.8" font-family="Times,serif" font-size="14.00" fill="#ffffff">o_custkey)</text>
<text text-anchor="middle" x="152" y="-952.8" font-family="Times,serif" font-size="14.00" fill="#ffffff">20 ms 200 µs </text>
</g>
<!-- 94334562250960&#45;&gt;94334334501376 -->
<g id="edge5" class="edge">
<title>94334562250960&#45;&gt;94334334501376</title>
<path fill="none" stroke="#ffffff" stroke-width="3" d="M152,-1029.3689C152,-1041.9866 152,-1056.0589 152,-1069.5734"/>
<polygon fill="#ffffff" stroke="#ffffff" stroke-width="3" points="148.5001,-1069.7659 152,-1079.7659 155.5001,-1069.766 148.5001,-1069.7659"/>
<text text-anchor="middle" x="257.5" y="-1050.8" font-family="Times,serif" font-size="14.00" fill="#ffffff">184970 row(s)/32 chunk(s)/23.709MB</text>
</g>
<!-- 94334562093216 -->
<g id="node7" class="node">
<title>94334562093216</title>
<polygon fill="none" stroke="#ffffff" stroke-width="2" points="80.5,-879 1.5,-879 1.5,-825 80.5,-825 80.5,-879"/>
<text text-anchor="middle" x="41" y="-863.8" font-family="Times,serif" font-size="14.00" fill="#ffffff">Projection</text>
<text text-anchor="middle" x="41" y="-832.8" font-family="Times,serif" font-size="14.00" fill="#ffffff">124 µs 0 ns</text>
</g>
<!-- 94334562093216&#45;&gt;94334562250960 -->
<g id="edge6" class="edge">
<title>94334562093216&#45;&gt;94334562250960</title>
<path fill="none" stroke="#ffffff" stroke-width="3" d="M36.36,-879.2282C35.1998,-894.3709 36.2526,-912.9389 45,-927 47.2781,-930.662 49.8653,-934.1201 52.6985,-937.3836"/>
<polygon fill="#ffffff" stroke="#ffffff" stroke-width="3" points="50.258,-939.8947 59.7259,-944.6497 55.2897,-935.0283 50.258,-939.8947"/>
<text text-anchor="middle" x="144" y="-915.8" font-family="Times,serif" font-size="14.00" fill="#ffffff">150000 row(s)/2 chunk(s)/3.051MB</text>
</g>
<!-- 94334655396960 -->
<g id="node8" class="node">
<title>94334655396960</title>
<polygon fill="none" stroke="#ffffff" points="76,-751.5 0,-751.5 0,-682.5 76,-682.5 76,-751.5"/>
<text text-anchor="middle" x="38" y="-736.3" font-family="Times,serif" font-size="14.00" fill="#ffffff">GetTable</text>
<text text-anchor="middle" x="38" y="-721.3" font-family="Times,serif" font-size="14.00" fill="#ffffff">(customer)</text>
<text text-anchor="middle" x="38" y="-690.3" font-family="Times,serif" font-size="14.00" fill="#ffffff">0 ns</text>
</g>
<!-- 94334655396960&#45;&gt;94334562093216 -->
<g id="edge7" class="edge">
<title>94334655396960&#45;&gt;94334562093216</title>
<path fill="none" stroke="#ffffff" stroke-width="3" d="M38.7726,-751.7659C39.1993,-770.9703 39.7298,-794.8393 40.1659,-814.4668"/>
<polygon fill="#ffffff" stroke="#ffffff" stroke-width="3" points="36.6694,-814.667 40.3908,-824.5867 43.6677,-814.5114 36.6694,-814.667"/>
<text text-anchor="middle" x="142.5" y="-780.8" font-family="Times,serif" font-size="14.00" fill="#ffffff">150000 row(s)/2 chunk(s)/25.479MB</text>
</g>
<!-- 94334562244896 -->
<g id="node9" class="node">
<title>94334562244896</title>
<polygon fill="none" stroke="#ffffff" stroke-width="3" points="363,-894 169,-894 169,-810 363,-810 363,-894"/>
<text text-anchor="middle" x="266" y="-878.8" font-family="Times,serif" font-size="14.00" fill="#ffffff">JoinHash</text>
<text text-anchor="middle" x="266" y="-863.8" font-family="Times,serif" font-size="14.00" fill="#ffffff">(Inner Join where o_orderkey = </text>
<text text-anchor="middle" x="266" y="-848.8" font-family="Times,serif" font-size="14.00" fill="#ffffff">l_orderkey)</text>
<text text-anchor="middle" x="266" y="-817.8" font-family="Times,serif" font-size="14.00" fill="#ffffff">48 ms 277 µs </text>
</g>
<!-- 94334562244896&#45;&gt;94334562250960 -->
<g id="edge8" class="edge">
<title>94334562244896&#45;&gt;94334562250960</title>
<path fill="none" stroke="#ffffff" stroke-width="3" d="M258.5659,-894.111C255.1462,-905.5461 250.1835,-917.4064 243,-927 240.2459,-930.6781 237.1956,-934.1982 233.9301,-937.5572"/>
<polygon fill="#ffffff" stroke="#ffffff" stroke-width="3" points="231.3037,-935.2249 226.4688,-944.6523 236.1274,-940.2976 231.3037,-935.2249"/>
<text text-anchor="middle" x="357.5" y="-915.8" font-family="Times,serif" font-size="14.00" fill="#ffffff">184970 row(s)/16 chunk(s)/20.731MB</text>
</g>
<!-- 94334562101568 -->
<g id="node10" class="node">
<title>94334562101568</title>
<polygon fill="none" stroke="#ffffff" points="300,-744 228,-744 228,-690 300,-690 300,-744"/>
<text text-anchor="middle" x="264" y="-728.8" font-family="Times,serif" font-size="14.00" fill="#ffffff">Projection</text>
<text text-anchor="middle" x="264" y="-697.8" font-family="Times,serif" font-size="14.00" fill="#ffffff">7 µs 0 ns</text>
</g>
<!-- 94334562101568&#45;&gt;94334562244896 -->
<g id="edge9" class="edge">
<title>94334562101568&#45;&gt;94334562244896</title>
<path fill="none" stroke="#ffffff" stroke-width="3" d="M264.4047,-744.3193C264.6408,-760.2545 264.9465,-780.8871 265.227,-799.8217"/>
<polygon fill="#ffffff" stroke="#ffffff" stroke-width="3" points="261.7274,-799.8819 265.3752,-809.8289 268.7266,-799.7781 261.7274,-799.8819"/>
<text text-anchor="middle" x="368.5" y="-780.8" font-family="Times,serif" font-size="14.00" fill="#ffffff">227597 row(s)/15 chunk(s)/5.466MB</text>
</g>
<!-- 94334562099024 -->
<g id="node11" class="node">
<title>94334562099024</title>
<polygon fill="none" stroke="#ffffff" stroke-width="2" points="353,-624 165,-624 165,-525 353,-525 353,-624"/>
<text text-anchor="middle" x="259" y="-608.8" font-family="Times,serif" font-size="14.00" fill="#ffffff">TableScan</text>
<text text-anchor="middle" x="259" y="-593.8" font-family="Times,serif" font-size="14.00" fill="#ffffff">Impl: BetweenScan</text>
<text text-anchor="middle" x="259" y="-578.8" font-family="Times,serif" font-size="14.00" fill="#ffffff">o_orderdate BETWEEN </text>
<text text-anchor="middle" x="259" y="-563.8" font-family="Times,serif" font-size="14.00" fill="#ffffff">&#39;1994&#45;01&#45;01&#39; AND &#39;1995&#45;01&#45;00&#39;</text>
<text text-anchor="middle" x="259" y="-532.8" font-family="Times,serif" font-size="14.00" fill="#ffffff">3 ms 87 µs </text>
</g>
<!-- 94334562099024&#45;&gt;94334562101568 -->
<g id="edge10" class="edge">
<title>94334562099024&#45;&gt;94334562101568</title>
<path fill="none" stroke="#ffffff" stroke-width="3" d="M260.7488,-624.3396C261.3878,-642.551 262.0989,-662.8196 262.6928,-679.7453"/>
<polygon fill="#ffffff" stroke="#ffffff" stroke-width="3" points="259.1971,-679.9325 263.0457,-689.8036 266.1928,-679.687 259.1971,-679.9325"/>
<text text-anchor="middle" x="367.5" y="-645.8" font-family="Times,serif" font-size="14.00" fill="#ffffff">227597 row(s)/15 chunk(s)/16.396MB</text>
</g>
<!-- 94334655415968 -->
<g id="node12" class="node">
<title>94334655415968</title>
<polygon fill="none" stroke="#ffffff" points="285.5,-466.5 218.5,-466.5 218.5,-397.5 285.5,-397.5 285.5,-466.5"/>
<text text-anchor="middle" x="252" y="-451.3" font-family="Times,serif" font-size="14.00" fill="#ffffff">GetTable</text>
<text text-anchor="middle" x="252" y="-436.3" font-family="Times,serif" font-size="14.00" fill="#ffffff">(orders)</text>
<text text-anchor="middle" x="252" y="-405.3" font-family="Times,serif" font-size="14.00" fill="#ffffff">0 ns</text>
</g>
<!-- 94334655415968&#45;&gt;94334562099024 -->
<g id="edge11" class="edge">
<title>94334655415968&#45;&gt;94334562099024</title>
<path fill="none" stroke="#ffffff" stroke-width="4" d="M253.7124,-466.8594C254.423,-481.3251 255.268,-498.5265 256.0716,-514.8865"/>
<polygon fill="#ffffff" stroke="#ffffff" stroke-width="4" points="252.5786,-515.1161 256.5651,-524.9323 259.5701,-514.7726 252.5786,-515.1161"/>
<text text-anchor="middle" x="368.5" y="-495.8" font-family="Times,serif" font-size="14.00" fill="#ffffff">1500000 row(s)/15 chunk(s)/114.197MB</text>
</g>
<!-- 94334562098752 -->
<g id="node13" class="node">
<title>94334562098752</title>
<polygon fill="none" stroke="#ffffff" stroke-width="3" points="594,-759 406,-759 406,-675 594,-675 594,-759"/>
<text text-anchor="middle" x="500" y="-743.8" font-family="Times,serif" font-size="14.00" fill="#ffffff">JoinHash</text>
<text text-anchor="middle" x="500" y="-728.8" font-family="Times,serif" font-size="14.00" fill="#ffffff">(Inner Join where l_suppkey = </text>
<text text-anchor="middle" x="500" y="-713.8" font-family="Times,serif" font-size="14.00" fill="#ffffff">s_suppkey)</text>
<text text-anchor="middle" x="500" y="-682.8" font-family="Times,serif" font-size="14.00" fill="#ffffff">88 ms 35 µs </text>
</g>
<!-- 94334562098752&#45;&gt;94334562244896 -->
<g id="edge12" class="edge">
<title>94334562098752&#45;&gt;94334562244896</title>
<path fill="none" stroke="#ffffff" stroke-width="4" d="M493.5881,-759.1444C489.9075,-771.1176 484.1151,-783.2616 475,-792 459.4193,-806.9369 416.0565,-820.5013 372.8402,-830.939"/>
<polygon fill="#ffffff" stroke="#ffffff" stroke-width="4" points="371.9764,-827.5467 363.0494,-833.2528 373.5864,-834.359 371.9764,-827.5467"/>
<text text-anchor="middle" x="595" y="-780.8" font-family="Times,serif" font-size="14.00" fill="#ffffff">1222276 row(s)/1 chunk(s)/107.561MB</text>
</g>
<!-- 94334832251024 -->
<g id="node14" class="node">
<title>94334832251024</title>
<polygon fill="none" stroke="#ffffff" stroke-width="2" points="541.5,-601.5 458.5,-601.5 458.5,-547.5 541.5,-547.5 541.5,-601.5"/>
<text text-anchor="middle" x="500" y="-586.3" font-family="Times,serif" font-size="14.00" fill="#ffffff">Projection</text>
<text text-anchor="middle" x="500" y="-555.3" font-family="Times,serif" font-size="14.00" fill="#ffffff">1 ms 462 µs</text>
</g>
<!-- 94334832251024&#45;&gt;94334562098752 -->
<g id="edge13" class="edge">
<title>94334832251024&#45;&gt;94334562098752</title>
<path fill="none" stroke="#ffffff" stroke-width="4" d="M500,-601.6386C500,-619.404 500,-643.2016 500,-664.5675"/>
<polygon fill="#ffffff" stroke="#ffffff" stroke-width="4" points="496.5001,-664.8237 500,-674.8237 503.5001,-664.8237 496.5001,-664.8237"/>
<text text-anchor="middle" x="612.5" y="-645.8" font-family="Times,serif" font-size="14.00" fill="#ffffff">6001215 row(s)/61 chunk(s)/156.234MB</text>
</g>
<!-- 94334655429248 -->
<g id="node15" class="node">
<title>94334655429248</title>
<polygon fill="none" stroke="#ffffff" points="535.5,-466.5 464.5,-466.5 464.5,-397.5 535.5,-397.5 535.5,-466.5"/>
<text text-anchor="middle" x="500" y="-451.3" font-family="Times,serif" font-size="14.00" fill="#ffffff">GetTable</text>
<text text-anchor="middle" x="500" y="-436.3" font-family="Times,serif" font-size="14.00" fill="#ffffff">(lineitem)</text>
<text text-anchor="middle" x="500" y="-405.3" font-family="Times,serif" font-size="14.00" fill="#ffffff">0 ns</text>
</g>
<!-- 94334655429248&#45;&gt;94334832251024 -->
<g id="edge14" class="edge">
<title>94334655429248&#45;&gt;94334832251024</title>
<path fill="none" stroke="#ffffff" stroke-width="4" d="M500,-466.8594C500,-488.1022 500,-515.2444 500,-536.9586"/>
<polygon fill="#ffffff" stroke="#ffffff" stroke-width="4" points="496.5001,-537.1326 500,-547.1326 503.5001,-537.1327 496.5001,-537.1326"/>
<text text-anchor="middle" x="612.5" y="-495.8" font-family="Times,serif" font-size="14.00" fill="#ffffff">6001215 row(s)/61 chunk(s)/500.660MB</text>
</g>
<!-- 94334562247856 -->
<g id="node16" class="node">
<title>94334562247856</title>
<polygon fill="none" stroke="#ffffff" stroke-width="2" points="846.5,-616.5 649.5,-616.5 649.5,-532.5 846.5,-532.5 846.5,-616.5"/>
<text text-anchor="middle" x="748" y="-601.3" font-family="Times,serif" font-size="14.00" fill="#ffffff">JoinHash</text>
<text text-anchor="middle" x="748" y="-586.3" font-family="Times,serif" font-size="14.00" fill="#ffffff">(Inner Join where s_nationkey = </text>
<text text-anchor="middle" x="748" y="-571.3" font-family="Times,serif" font-size="14.00" fill="#ffffff">n_nationkey)</text>
<text text-anchor="middle" x="748" y="-540.3" font-family="Times,serif" font-size="14.00" fill="#ffffff">146 µs 0 ns </text>
</g>
<!-- 94334562247856&#45;&gt;94334562098752 -->
<g id="edge15" class="edge">
<title>94334562247856&#45;&gt;94334562098752</title>
<path fill="none" stroke="#ffffff" stroke-width="2" d="M745.3078,-616.545C742.3627,-631.0469 736.6973,-646.3145 726,-657 708.1952,-674.7852 654.6261,-689.4167 604.1112,-699.7777"/>
<polygon fill="#ffffff" stroke="#ffffff" stroke-width="2" points="603.1774,-696.3952 594.0605,-701.7926 604.5534,-703.2586 603.1774,-696.3952"/>
<text text-anchor="middle" x="834.5" y="-645.8" font-family="Times,serif" font-size="14.00" fill="#ffffff">2036 row(s)/1 chunk(s)/114.713KB</text>
</g>
<!-- 94334562097216 -->
<g id="node17" class="node">
<title>94334562097216</title>
<polygon fill="none" stroke="#ffffff" points="784,-459 712,-459 712,-405 784,-405 784,-459"/>
<text text-anchor="middle" x="748" y="-443.8" font-family="Times,serif" font-size="14.00" fill="#ffffff">Projection</text>
<text text-anchor="middle" x="748" y="-412.8" font-family="Times,serif" font-size="14.00" fill="#ffffff">22 µs 0 ns</text>
</g>
<!-- 94334562097216&#45;&gt;94334562247856 -->
<g id="edge16" class="edge">
<title>94334562097216&#45;&gt;94334562247856</title>
<path fill="none" stroke="#ffffff" stroke-width="2" d="M748,-459.1386C748,-476.904 748,-500.7016 748,-522.0675"/>
<polygon fill="#ffffff" stroke="#ffffff" stroke-width="2" points="744.5001,-522.3237 748,-532.3237 751.5001,-522.3237 744.5001,-522.3237"/>
<text text-anchor="middle" x="849" y="-495.8" font-family="Times,serif" font-size="14.00" fill="#ffffff">10000 row(s)/1 chunk(s)/190.704KB</text>
</g>
<!-- 94334655397216 -->
<g id="node18" class="node">
<title>94334655397216</title>
<polygon fill="none" stroke="#ffffff" points="782.5,-339 713.5,-339 713.5,-270 782.5,-270 782.5,-339"/>
<text text-anchor="middle" x="748" y="-323.8" font-family="Times,serif" font-size="14.00" fill="#ffffff">GetTable</text>
<text text-anchor="middle" x="748" y="-308.8" font-family="Times,serif" font-size="14.00" fill="#ffffff">(supplier)</text>
<text text-anchor="middle" x="748" y="-277.8" font-family="Times,serif" font-size="14.00" fill="#ffffff">0 ns</text>
</g>
<!-- 94334655397216&#45;&gt;94334562097216 -->
<g id="edge17" class="edge">
<title>94334655397216&#45;&gt;94334562097216</title>
<path fill="none" stroke="#ffffff" stroke-width="2" d="M748,-339.0033C748,-356.104 748,-376.7892 748,-394.3049"/>
<polygon fill="#ffffff" stroke="#ffffff" stroke-width="2" points="744.5001,-394.7409 748,-404.7409 751.5001,-394.741 744.5001,-394.7409"/>
<text text-anchor="middle" x="843.5" y="-360.8" font-family="Times,serif" font-size="14.00" fill="#ffffff">10000 row(s)/1 chunk(s)/1.610MB</text>
</g>
<!-- 94334562098480 -->
<g id="node19" class="node">
<title>94334562098480</title>
<polygon fill="none" stroke="#ffffff" points="1073,-474 873,-474 873,-390 1073,-390 1073,-474"/>
<text text-anchor="middle" x="973" y="-458.8" font-family="Times,serif" font-size="14.00" fill="#ffffff">JoinHash</text>
<text text-anchor="middle" x="973" y="-443.8" font-family="Times,serif" font-size="14.00" fill="#ffffff">(Inner Join where n_regionkey = </text>
<text text-anchor="middle" x="973" y="-428.8" font-family="Times,serif" font-size="14.00" fill="#ffffff">r_regionkey)</text>
<text text-anchor="middle" x="973" y="-397.8" font-family="Times,serif" font-size="14.00" fill="#ffffff">47 µs 0 ns </text>
</g>
<!-- 94334562098480&#45;&gt;94334562247856 -->
<g id="edge18" class="edge">
<title>94334562098480&#45;&gt;94334562247856</title>
<path fill="none" stroke="#ffffff" d="M968.0492,-474.2328C964.8327,-486.0687 959.5743,-498.1141 951,-507 936.7643,-521.7529 897.054,-536.3348 856.4883,-548.1495"/>
<polygon fill="#ffffff" stroke="#ffffff" points="855.3829,-544.8252 846.7281,-550.9363 857.3048,-551.5562 855.3829,-544.8252"/>
<text text-anchor="middle" x="1031.5" y="-495.8" font-family="Times,serif" font-size="14.00" fill="#ffffff">5 row(s)/1 chunk(s)/765B</text>
</g>
<!-- 94334562251264 -->
<g id="node20" class="node">
<title>94334562251264</title>
<polygon fill="none" stroke="#ffffff" points="1004,-331.5 932,-331.5 932,-277.5 1004,-277.5 1004,-331.5"/>
<text text-anchor="middle" x="968" y="-316.3" font-family="Times,serif" font-size="14.00" fill="#ffffff">Projection</text>
<text text-anchor="middle" x="968" y="-285.3" font-family="Times,serif" font-size="14.00" fill="#ffffff">2 µs 0 ns</text>
</g>
<!-- 94334562251264&#45;&gt;94334562098480 -->
<g id="edge19" class="edge">
<title>94334562251264&#45;&gt;94334562098480</title>
<path fill="none" stroke="#ffffff" d="M968.0832,-331.7686C968.2033,-344.065 968.4613,-358.7673 969,-372 969.1022,-374.51 969.2205,-377.0782 969.351,-379.6716"/>
<polygon fill="#ffffff" stroke="#ffffff" points="965.8603,-379.937 969.9065,-389.7287 972.8496,-379.5509 965.8603,-379.937"/>
<text text-anchor="middle" x="1053" y="-360.8" font-family="Times,serif" font-size="14.00" fill="#ffffff">25 row(s)/1 chunk(s)/1.971KB</text>
</g>
<!-- 94334655404336 -->
<g id="node21" class="node">
<title>94334655404336</title>
<polygon fill="none" stroke="#ffffff" points="1001.5,-204 934.5,-204 934.5,-135 1001.5,-135 1001.5,-204"/>
<text text-anchor="middle" x="968" y="-188.8" font-family="Times,serif" font-size="14.00" fill="#ffffff">GetTable</text>
<text text-anchor="middle" x="968" y="-173.8" font-family="Times,serif" font-size="14.00" fill="#ffffff">(nation)</text>
<text text-anchor="middle" x="968" y="-142.8" font-family="Times,serif" font-size="14.00" fill="#ffffff">0 ns</text>
</g>
<!-- 94334655404336&#45;&gt;94334562251264 -->
<g id="edge20" class="edge">
<title>94334655404336&#45;&gt;94334562251264</title>
<path fill="none" stroke="#ffffff" d="M968,-204.2659C968,-223.4703 968,-247.3393 968,-266.9668"/>
<polygon fill="#ffffff" stroke="#ffffff" points="964.5001,-267.0867 968,-277.0867 971.5001,-267.0867 964.5001,-267.0867"/>
<text text-anchor="middle" x="1052" y="-240.8" font-family="Times,serif" font-size="14.00" fill="#ffffff">25 row(s)/1 chunk(s)/2.869KB</text>
</g>
<!-- 94334562094432 -->
<g id="node22" class="node">
<title>94334562094432</title>
<polygon fill="none" stroke="#ffffff" points="1195,-331.5 1123,-331.5 1123,-277.5 1195,-277.5 1195,-331.5"/>
<text text-anchor="middle" x="1159" y="-316.3" font-family="Times,serif" font-size="14.00" fill="#ffffff">Projection</text>
<text text-anchor="middle" x="1159" y="-285.3" font-family="Times,serif" font-size="14.00" fill="#ffffff">0 ns</text>
</g>
<!-- 94334562094432&#45;&gt;94334562098480 -->
<g id="edge21" class="edge">
<title>94334562094432&#45;&gt;94334562098480</title>
<path fill="none" stroke="#ffffff" d="M1155.8097,-331.7271C1152.9275,-345.342 1147.4416,-361.1793 1137,-372 1122.0972,-387.4439 1102.8963,-398.9345 1082.9138,-407.4772"/>
<polygon fill="#ffffff" stroke="#ffffff" points="1081.3439,-404.3362 1073.375,-411.3182 1083.9586,-410.8296 1081.3439,-404.3362"/>
<text text-anchor="middle" x="1217.5" y="-360.8" font-family="Times,serif" font-size="14.00" fill="#ffffff">1 row(s)/1 chunk(s)/385B</text>
</g>
<!-- 94334562244048 -->
<g id="node23" class="node">
<title>94334562244048</title>
<polygon fill="none" stroke="#ffffff" points="1230.5,-219 1087.5,-219 1087.5,-120 1230.5,-120 1230.5,-219"/>
<text text-anchor="middle" x="1159" y="-203.8" font-family="Times,serif" font-size="14.00" fill="#ffffff">TableScan</text>
<text text-anchor="middle" x="1159" y="-188.8" font-family="Times,serif" font-size="14.00" fill="#ffffff">Impl: LiteralTableScan</text>
<text text-anchor="middle" x="1159" y="-173.8" font-family="Times,serif" font-size="14.00" fill="#ffffff">r_name = </text>
<text text-anchor="middle" x="1159" y="-158.8" font-family="Times,serif" font-size="14.00" fill="#ffffff">&#39;AMERICA&#39;</text>
<text text-anchor="middle" x="1159" y="-127.8" font-family="Times,serif" font-size="14.00" fill="#ffffff">15 µs 0 ns </text>
</g>
<!-- 94334562244048&#45;&gt;94334562094432 -->
<g id="edge22" class="edge">
<title>94334562244048&#45;&gt;94334562094432</title>
<path fill="none" stroke="#ffffff" d="M1159,-219.0024C1159,-234.8677 1159,-252.1639 1159,-267.0225"/>
<polygon fill="#ffffff" stroke="#ffffff" points="1155.5001,-267.3558 1159,-277.3558 1162.5001,-267.3558 1155.5001,-267.3558"/>
<text text-anchor="middle" x="1229.5" y="-240.8" font-family="Times,serif" font-size="14.00" fill="#ffffff">1 row(s)/1 chunk(s)/458B</text>
</g>
<!-- 94334510715312 -->
<g id="node24" class="node">
<title>94334510715312</title>
<polygon fill="none" stroke="#ffffff" points="1192.5,-69 1125.5,-69 1125.5,0 1192.5,0 1192.5,-69"/>
<text text-anchor="middle" x="1159" y="-53.8" font-family="Times,serif" font-size="14.00" fill="#ffffff">GetTable</text>
<text text-anchor="middle" x="1159" y="-38.8" font-family="Times,serif" font-size="14.00" fill="#ffffff">(region)</text>
<text text-anchor="middle" x="1159" y="-7.8" font-family="Times,serif" font-size="14.00" fill="#ffffff">0 ns</text>
</g>
<!-- 94334510715312&#45;&gt;94334562244048 -->
<g id="edge23" class="edge">
<title>94334510715312&#45;&gt;94334562244048</title>
<path fill="none" stroke="#ffffff" d="M1159,-69.2659C1159,-81.5301 1159,-95.6967 1159,-109.446"/>
<polygon fill="#ffffff" stroke="#ffffff" points="1155.5001,-109.8405 1159,-119.8405 1162.5001,-109.8406 1155.5001,-109.8405"/>
<text text-anchor="middle" x="1239.5" y="-90.8" font-family="Times,serif" font-size="14.00" fill="#ffffff">5 row(s)/1 chunk(s)/1.089KB</text>
</g>
</g>
</svg>
