<?xml version="1.0" encoding="UTF-8" standalone="no"?>
<!DOCTYPE svg PUBLIC "-//W3C//DTD SVG 1.1//EN"
 "http://www.w3.org/Graphics/SVG/1.1/DTD/svg11.dtd">
<!-- Generated by graphviz version 2.40.1 (20161225.0304)
 -->
<!-- Title: G Pages: 1 -->
<svg width="1327pt" height="1652pt"
 viewBox="0.00 0.00 1327.00 1652.00" xmlns="http://www.w3.org/2000/svg" xmlns:xlink="http://www.w3.org/1999/xlink">
<g id="graph0" class="graph" transform="scale(1 1) rotate(0) translate(4 1648)">
<title>G</title>
<polygon fill="#000000" stroke="transparent" points="-4,4 -4,-1648 1323,-1648 1323,4 -4,4"/>
<!-- 94377838391568 -->
<g id="node1" class="node">
<title>94377838391568</title>
<polygon fill="none" stroke="#ffffff" points="200.5,-1644 103.5,-1644 103.5,-1575 200.5,-1575 200.5,-1644"/>
<text text-anchor="middle" x="152" y="-1628.8" font-family="Times,serif" font-size="14.00" fill="#ffffff">Alias [n_name</text>
<text text-anchor="middle" x="152" y="-1613.8" font-family="Times,serif" font-size="14.00" fill="#ffffff">revenue]</text>
<text text-anchor="middle" x="152" y="-1582.8" font-family="Times,serif" font-size="14.00" fill="#ffffff">0 ns</text>
</g>
<!-- 94377838528160 -->
<g id="node2" class="node">
<title>94377838528160</title>
<polygon fill="none" stroke="#ffffff" points="188,-1524 116,-1524 116,-1470 188,-1470 188,-1524"/>
<text text-anchor="middle" x="152" y="-1508.8" font-family="Times,serif" font-size="14.00" fill="#ffffff">Sort</text>
<text text-anchor="middle" x="152" y="-1477.8" font-family="Times,serif" font-size="14.00" fill="#ffffff">16 µs 0 ns</text>
</g>
<!-- 94377838528160&#45;&gt;94377838391568 -->
<g id="edge1" class="edge">
<title>94377838528160&#45;&gt;94377838391568</title>
<path fill="none" stroke="#ffffff" d="M152,-1524.2331C152,-1536.3589 152,-1550.9621 152,-1564.6298"/>
<polygon fill="#ffffff" stroke="#ffffff" points="148.5001,-1564.8427 152,-1574.8427 155.5001,-1564.8428 148.5001,-1564.8427"/>
<text text-anchor="middle" x="222.5" y="-1545.8" font-family="Times,serif" font-size="14.00" fill="#ffffff">5 row(s)/1 chunk(s)/831B</text>
</g>
<!-- 94377838535232 -->
<g id="node3" class="node">
<title>94377838535232</title>
<polygon fill="none" stroke="#ffffff" stroke-width="2" points="297,-1419 7,-1419 7,-1350 297,-1350 297,-1419"/>
<text text-anchor="middle" x="152" y="-1403.8" font-family="Times,serif" font-size="14.00" fill="#ffffff">[Aggregate] GroupBy ColumnIDs: 1 Aggregates: </text>
<text text-anchor="middle" x="152" y="-1388.8" font-family="Times,serif" font-size="14.00" fill="#ffffff">SUM(Column #0)</text>
<text text-anchor="middle" x="152" y="-1357.8" font-family="Times,serif" font-size="14.00" fill="#ffffff">308 µs 0 ns </text>
</g>
<!-- 94377838535232&#45;&gt;94377838528160 -->
<g id="edge2" class="edge">
<title>94377838535232&#45;&gt;94377838528160</title>
<path fill="none" stroke="#ffffff" d="M152,-1419.1717C152,-1432.0092 152,-1446.6141 152,-1459.6774"/>
<polygon fill="#ffffff" stroke="#ffffff" points="148.5001,-1459.7601 152,-1469.7602 155.5001,-1459.7602 148.5001,-1459.7601"/>
<text text-anchor="middle" x="222.5" y="-1440.8" font-family="Times,serif" font-size="14.00" fill="#ffffff">5 row(s)/1 chunk(s)/831B</text>
</g>
<!-- 94377838544112 -->
<g id="node4" class="node">
<title>94377838544112</title>
<polygon fill="none" stroke="#ffffff" stroke-width="2" points="193.5,-1299 110.5,-1299 110.5,-1245 193.5,-1245 193.5,-1299"/>
<text text-anchor="middle" x="152" y="-1283.8" font-family="Times,serif" font-size="14.00" fill="#ffffff">Projection</text>
<text text-anchor="middle" x="152" y="-1252.8" font-family="Times,serif" font-size="14.00" fill="#ffffff">4 ms 107 µs</text>
</g>
<!-- 94377838544112&#45;&gt;94377838535232 -->
<g id="edge3" class="edge">
<title>94377838544112&#45;&gt;94377838535232</title>
<path fill="none" stroke="#ffffff" stroke-width="2" d="M152,-1299.2331C152,-1311.3589 152,-1325.9621 152,-1339.6298"/>
<polygon fill="#ffffff" stroke="#ffffff" stroke-width="2" points="148.5001,-1339.8427 152,-1349.8427 155.5001,-1339.8428 148.5001,-1339.8427"/>
<text text-anchor="middle" x="253" y="-1320.8" font-family="Times,serif" font-size="14.00" fill="#ffffff">7375 row(s)/32 chunk(s)/280.500KB</text>
</g>
<!-- 94377838544272 -->
<g id="node5" class="node">
<title>94377838544272</title>
<polygon fill="none" stroke="#ffffff" stroke-width="2" points="232.5,-1194 71.5,-1194 71.5,-1095 232.5,-1095 232.5,-1194"/>
<text text-anchor="middle" x="152" y="-1178.8" font-family="Times,serif" font-size="14.00" fill="#ffffff">TableScan</text>
<text text-anchor="middle" x="152" y="-1163.8" font-family="Times,serif" font-size="14.00" fill="#ffffff">Impl: ColumnComparison</text>
<text text-anchor="middle" x="152" y="-1148.8" font-family="Times,serif" font-size="14.00" fill="#ffffff">c_nationkey = </text>
<text text-anchor="middle" x="152" y="-1133.8" font-family="Times,serif" font-size="14.00" fill="#ffffff">s_nationkey</text>
<text text-anchor="middle" x="152" y="-1102.8" font-family="Times,serif" font-size="14.00" fill="#ffffff">3 ms 796 µs </text>
</g>
<!-- 94377838544272&#45;&gt;94377838544112 -->
<g id="edge4" class="edge">
<title>94377838544272&#45;&gt;94377838544112</title>
<path fill="none" stroke="#ffffff" stroke-width="2" d="M152,-1194.1599C152,-1207.598 152,-1221.9153 152,-1234.5584"/>
<polygon fill="#ffffff" stroke="#ffffff" stroke-width="2" points="148.5001,-1234.7287 152,-1244.7287 155.5001,-1234.7288 148.5001,-1234.7287"/>
<text text-anchor="middle" x="253" y="-1215.8" font-family="Times,serif" font-size="14.00" fill="#ffffff">7375 row(s)/32 chunk(s)/977.039KB</text>
</g>
<!-- 94377838543104 -->
<g id="node6" class="node">
<title>94377838543104</title>
<polygon fill="none" stroke="#ffffff" stroke-width="3" points="245,-1044 59,-1044 59,-960 245,-960 245,-1044"/>
<text text-anchor="middle" x="152" y="-1028.8" font-family="Times,serif" font-size="14.00" fill="#ffffff">JoinHash</text>
<text text-anchor="middle" x="152" y="-1013.8" font-family="Times,serif" font-size="14.00" fill="#ffffff">(Inner Join where c_custkey = </text>
<text text-anchor="middle" x="152" y="-998.8" font-family="Times,serif" font-size="14.00" fill="#ffffff">o_custkey)</text>
<text text-anchor="middle" x="152" y="-967.8" font-family="Times,serif" font-size="14.00" fill="#ffffff">21 ms 304 µs </text>
</g>
<!-- 94377838543104&#45;&gt;94377838544272 -->
<g id="edge5" class="edge">
<title>94377838543104&#45;&gt;94377838544272</title>
<path fill="none" stroke="#ffffff" stroke-width="3" d="M152,-1044.3689C152,-1056.9866 152,-1071.0589 152,-1084.5734"/>
<polygon fill="#ffffff" stroke="#ffffff" stroke-width="3" points="148.5001,-1084.7659 152,-1094.7659 155.5001,-1084.766 148.5001,-1084.7659"/>
<text text-anchor="middle" x="257.5" y="-1065.8" font-family="Times,serif" font-size="14.00" fill="#ffffff">184970 row(s)/32 chunk(s)/23.709MB</text>
</g>
<!-- 94377838380640 -->
<g id="node7" class="node">
<title>94377838380640</title>
<polygon fill="none" stroke="#ffffff" stroke-width="2" points="80.5,-894 1.5,-894 1.5,-840 80.5,-840 80.5,-894"/>
<text text-anchor="middle" x="41" y="-878.8" font-family="Times,serif" font-size="14.00" fill="#ffffff">Projection</text>
<text text-anchor="middle" x="41" y="-847.8" font-family="Times,serif" font-size="14.00" fill="#ffffff">120 µs 0 ns</text>
</g>
<!-- 94377838380640&#45;&gt;94377838543104 -->
<g id="edge6" class="edge">
<title>94377838380640&#45;&gt;94377838543104</title>
<path fill="none" stroke="#ffffff" stroke-width="3" d="M36.36,-894.2282C35.1998,-909.3709 36.2526,-927.9389 45,-942 47.2781,-945.662 49.8653,-949.1201 52.6985,-952.3836"/>
<polygon fill="#ffffff" stroke="#ffffff" stroke-width="3" points="50.258,-954.8947 59.7259,-959.6497 55.2897,-950.0283 50.258,-954.8947"/>
<text text-anchor="middle" x="144" y="-930.8" font-family="Times,serif" font-size="14.00" fill="#ffffff">150000 row(s)/2 chunk(s)/3.051MB</text>
</g>
<!-- 94377931689088 -->
<g id="node8" class="node">
<title>94377931689088</title>
<polygon fill="none" stroke="#ffffff" points="76,-766.5 0,-766.5 0,-697.5 76,-697.5 76,-766.5"/>
<text text-anchor="middle" x="38" y="-751.3" font-family="Times,serif" font-size="14.00" fill="#ffffff">GetTable</text>
<text text-anchor="middle" x="38" y="-736.3" font-family="Times,serif" font-size="14.00" fill="#ffffff">(customer)</text>
<text text-anchor="middle" x="38" y="-705.3" font-family="Times,serif" font-size="14.00" fill="#ffffff">0 ns</text>
</g>
<!-- 94377931689088&#45;&gt;94377838380640 -->
<g id="edge7" class="edge">
<title>94377931689088&#45;&gt;94377838380640</title>
<path fill="none" stroke="#ffffff" stroke-width="3" d="M38.7726,-766.7659C39.1993,-785.9703 39.7298,-809.8393 40.1659,-829.4668"/>
<polygon fill="#ffffff" stroke="#ffffff" stroke-width="3" points="36.6694,-829.667 40.3908,-839.5867 43.6677,-829.5114 36.6694,-829.667"/>
<text text-anchor="middle" x="142.5" y="-795.8" font-family="Times,serif" font-size="14.00" fill="#ffffff">150000 row(s)/2 chunk(s)/25.479MB</text>
</g>
<!-- 94377838537040 -->
<g id="node9" class="node">
<title>94377838537040</title>
<polygon fill="none" stroke="#ffffff" stroke-width="3" points="363,-909 169,-909 169,-825 363,-825 363,-909"/>
<text text-anchor="middle" x="266" y="-893.8" font-family="Times,serif" font-size="14.00" fill="#ffffff">JoinHash</text>
<text text-anchor="middle" x="266" y="-878.8" font-family="Times,serif" font-size="14.00" fill="#ffffff">(Inner Join where o_orderkey = </text>
<text text-anchor="middle" x="266" y="-863.8" font-family="Times,serif" font-size="14.00" fill="#ffffff">l_orderkey)</text>
<text text-anchor="middle" x="266" y="-832.8" font-family="Times,serif" font-size="14.00" fill="#ffffff">50 ms 23 µs </text>
</g>
<!-- 94377838537040&#45;&gt;94377838543104 -->
<g id="edge8" class="edge">
<title>94377838537040&#45;&gt;94377838543104</title>
<path fill="none" stroke="#ffffff" stroke-width="3" d="M258.5659,-909.111C255.1462,-920.5461 250.1835,-932.4064 243,-942 240.2459,-945.6781 237.1956,-949.1982 233.9301,-952.5572"/>
<polygon fill="#ffffff" stroke="#ffffff" stroke-width="3" points="231.3037,-950.2249 226.4688,-959.6523 236.1274,-955.2976 231.3037,-950.2249"/>
<text text-anchor="middle" x="357.5" y="-930.8" font-family="Times,serif" font-size="14.00" fill="#ffffff">184970 row(s)/16 chunk(s)/20.731MB</text>
</g>
<!-- 94377838393408 -->
<g id="node10" class="node">
<title>94377838393408</title>
<polygon fill="none" stroke="#ffffff" points="301,-759 229,-759 229,-705 301,-705 301,-759"/>
<text text-anchor="middle" x="265" y="-743.8" font-family="Times,serif" font-size="14.00" fill="#ffffff">Projection</text>
<text text-anchor="middle" x="265" y="-712.8" font-family="Times,serif" font-size="14.00" fill="#ffffff">9 µs 0 ns</text>
</g>
<!-- 94377838393408&#45;&gt;94377838537040 -->
<g id="edge9" class="edge">
<title>94377838393408&#45;&gt;94377838537040</title>
<path fill="none" stroke="#ffffff" stroke-width="3" d="M265.2024,-759.3193C265.3204,-775.2545 265.4732,-795.8871 265.6135,-814.8217"/>
<polygon fill="#ffffff" stroke="#ffffff" stroke-width="3" points="262.1135,-814.8551 265.6876,-824.8289 269.1134,-814.8032 262.1135,-814.8551"/>
<text text-anchor="middle" x="368.5" y="-795.8" font-family="Times,serif" font-size="14.00" fill="#ffffff">227597 row(s)/15 chunk(s)/5.466MB</text>
</g>
<!-- 94377838536192 -->
<g id="node11" class="node">
<title>94377838536192</title>
<polygon fill="none" stroke="#ffffff" stroke-width="2" points="332.5,-639 189.5,-639 189.5,-540 332.5,-540 332.5,-639"/>
<text text-anchor="middle" x="261" y="-623.8" font-family="Times,serif" font-size="14.00" fill="#ffffff">TableScan</text>
<text text-anchor="middle" x="261" y="-608.8" font-family="Times,serif" font-size="14.00" fill="#ffffff">Impl: LiteralTableScan</text>
<text text-anchor="middle" x="261" y="-593.8" font-family="Times,serif" font-size="14.00" fill="#ffffff">o_orderdate &lt; </text>
<text text-anchor="middle" x="261" y="-578.8" font-family="Times,serif" font-size="14.00" fill="#ffffff">&#39;1995&#45;01&#45;01&#39;</text>
<text text-anchor="middle" x="261" y="-547.8" font-family="Times,serif" font-size="14.00" fill="#ffffff">3 ms 592 µs </text>
</g>
<!-- 94377838536192&#45;&gt;94377838393408 -->
<g id="edge10" class="edge">
<title>94377838536192&#45;&gt;94377838393408</title>
<path fill="none" stroke="#ffffff" stroke-width="3" d="M262.399,-639.3396C262.9102,-657.551 263.4791,-677.8196 263.9543,-694.7453"/>
<polygon fill="#ffffff" stroke="#ffffff" stroke-width="3" points="260.4573,-694.9058 264.2366,-704.8036 267.4545,-694.7093 260.4573,-694.9058"/>
<text text-anchor="middle" x="369.5" y="-660.8" font-family="Times,serif" font-size="14.00" fill="#ffffff">227597 row(s)/15 chunk(s)/16.396MB</text>
</g>
<!-- 94377838386448 -->
<g id="node12" class="node">
<title>94377838386448</title>
<polygon fill="none" stroke="#ffffff" stroke-width="2" points="329.5,-489 186.5,-489 186.5,-390 329.5,-390 329.5,-489"/>
<text text-anchor="middle" x="258" y="-473.8" font-family="Times,serif" font-size="14.00" fill="#ffffff">TableScan</text>
<text text-anchor="middle" x="258" y="-458.8" font-family="Times,serif" font-size="14.00" fill="#ffffff">Impl: LiteralTableScan</text>
<text text-anchor="middle" x="258" y="-443.8" font-family="Times,serif" font-size="14.00" fill="#ffffff">o_orderdate &gt;= </text>
<text text-anchor="middle" x="258" y="-428.8" font-family="Times,serif" font-size="14.00" fill="#ffffff">&#39;1994&#45;01&#45;01&#39;</text>
<text text-anchor="middle" x="258" y="-397.8" font-family="Times,serif" font-size="14.00" fill="#ffffff">7 ms 432 µs </text>
</g>
<!-- 94377838386448&#45;&gt;94377838536192 -->
<g id="edge11" class="edge">
<title>94377838386448&#45;&gt;94377838536192</title>
<path fill="none" stroke="#ffffff" stroke-width="4" d="M258.9906,-489.0313C259.2504,-502.0196 259.5333,-516.1643 259.8026,-529.63"/>
<polygon fill="#ffffff" stroke="#ffffff" stroke-width="4" points="256.3059,-529.8366 260.0053,-539.7646 263.3045,-529.6966 256.3059,-529.8366"/>
<text text-anchor="middle" x="369" y="-510.8" font-family="Times,serif" font-size="14.00" fill="#ffffff">1046266 row(s)/15 chunk(s)/75.340MB</text>
</g>
<!-- 94377931708096 -->
<g id="node13" class="node">
<title>94377931708096</title>
<polygon fill="none" stroke="#ffffff" points="291.5,-339 224.5,-339 224.5,-270 291.5,-270 291.5,-339"/>
<text text-anchor="middle" x="258" y="-323.8" font-family="Times,serif" font-size="14.00" fill="#ffffff">GetTable</text>
<text text-anchor="middle" x="258" y="-308.8" font-family="Times,serif" font-size="14.00" fill="#ffffff">(orders)</text>
<text text-anchor="middle" x="258" y="-277.8" font-family="Times,serif" font-size="14.00" fill="#ffffff">0 ns</text>
</g>
<!-- 94377931708096&#45;&gt;94377838386448 -->
<g id="edge12" class="edge">
<title>94377931708096&#45;&gt;94377838386448</title>
<path fill="none" stroke="#ffffff" stroke-width="4" d="M258,-339.2659C258,-351.5301 258,-365.6967 258,-379.446"/>
<polygon fill="#ffffff" stroke="#ffffff" stroke-width="4" points="254.5001,-379.8405 258,-389.8405 261.5001,-379.8406 254.5001,-379.8405"/>
<text text-anchor="middle" x="370.5" y="-360.8" font-family="Times,serif" font-size="14.00" fill="#ffffff">1500000 row(s)/15 chunk(s)/114.197MB</text>
</g>
<!-- 94377838386176 -->
<g id="node14" class="node">
<title>94377838386176</title>
<polygon fill="none" stroke="#ffffff" stroke-width="3" points="593,-774 405,-774 405,-690 593,-690 593,-774"/>
<text text-anchor="middle" x="499" y="-758.8" font-family="Times,serif" font-size="14.00" fill="#ffffff">JoinHash</text>
<text text-anchor="middle" x="499" y="-743.8" font-family="Times,serif" font-size="14.00" fill="#ffffff">(Inner Join where l_suppkey = </text>
<text text-anchor="middle" x="499" y="-728.8" font-family="Times,serif" font-size="14.00" fill="#ffffff">s_suppkey)</text>
<text text-anchor="middle" x="499" y="-697.8" font-family="Times,serif" font-size="14.00" fill="#ffffff">87 ms 281 µs </text>
</g>
<!-- 94377838386176&#45;&gt;94377838537040 -->
<g id="edge13" class="edge">
<title>94377838386176&#45;&gt;94377838537040</title>
<path fill="none" stroke="#ffffff" stroke-width="4" d="M493.1847,-774.1195C489.6651,-786.0917 484.0267,-798.2414 475,-807 459.5095,-822.0305 416.1564,-835.6049 372.9231,-846.025"/>
<polygon fill="#ffffff" stroke="#ffffff" stroke-width="4" points="372.058,-842.6329 363.128,-848.3343 373.6644,-849.4461 372.058,-842.6329"/>
<text text-anchor="middle" x="595" y="-795.8" font-family="Times,serif" font-size="14.00" fill="#ffffff">1222276 row(s)/1 chunk(s)/107.561MB</text>
</g>
<!-- 94377838393248 -->
<g id="node15" class="node">
<title>94377838393248</title>
<polygon fill="none" stroke="#ffffff" stroke-width="2" points="540.5,-616.5 457.5,-616.5 457.5,-562.5 540.5,-562.5 540.5,-616.5"/>
<text text-anchor="middle" x="499" y="-601.3" font-family="Times,serif" font-size="14.00" fill="#ffffff">Projection</text>
<text text-anchor="middle" x="499" y="-570.3" font-family="Times,serif" font-size="14.00" fill="#ffffff">1 ms 510 µs</text>
</g>
<!-- 94377838393248&#45;&gt;94377838386176 -->
<g id="edge14" class="edge">
<title>94377838393248&#45;&gt;94377838386176</title>
<path fill="none" stroke="#ffffff" stroke-width="4" d="M499,-616.6386C499,-634.404 499,-658.2016 499,-679.5675"/>
<polygon fill="#ffffff" stroke="#ffffff" stroke-width="4" points="495.5001,-679.8237 499,-689.8237 502.5001,-679.8237 495.5001,-679.8237"/>
<text text-anchor="middle" x="611.5" y="-660.8" font-family="Times,serif" font-size="14.00" fill="#ffffff">6001215 row(s)/61 chunk(s)/156.234MB</text>
</g>
<!-- 94377931721376 -->
<g id="node16" class="node">
<title>94377931721376</title>
<polygon fill="none" stroke="#ffffff" points="534.5,-474 463.5,-474 463.5,-405 534.5,-405 534.5,-474"/>
<text text-anchor="middle" x="499" y="-458.8" font-family="Times,serif" font-size="14.00" fill="#ffffff">GetTable</text>
<text text-anchor="middle" x="499" y="-443.8" font-family="Times,serif" font-size="14.00" fill="#ffffff">(lineitem)</text>
<text text-anchor="middle" x="499" y="-412.8" font-family="Times,serif" font-size="14.00" fill="#ffffff">0 ns</text>
</g>
<!-- 94377931721376&#45;&gt;94377838393248 -->
<g id="edge15" class="edge">
<title>94377931721376&#45;&gt;94377838393248</title>
<path fill="none" stroke="#ffffff" stroke-width="4" d="M499,-474.29C499,-497.6608 499,-528.4273 499,-552.2872"/>
<polygon fill="#ffffff" stroke="#ffffff" stroke-width="4" points="495.5001,-552.3795 499,-562.3796 502.5001,-552.3796 495.5001,-552.3795"/>
<text text-anchor="middle" x="611.5" y="-510.8" font-family="Times,serif" font-size="14.00" fill="#ffffff">6001215 row(s)/61 chunk(s)/500.660MB</text>
</g>
<!-- 94377838540528 -->
<g id="node17" class="node">
<title>94377838540528</title>
<polygon fill="none" stroke="#ffffff" stroke-width="2" points="845.5,-631.5 648.5,-631.5 648.5,-547.5 845.5,-547.5 845.5,-631.5"/>
<text text-anchor="middle" x="747" y="-616.3" font-family="Times,serif" font-size="14.00" fill="#ffffff">JoinHash</text>
<text text-anchor="middle" x="747" y="-601.3" font-family="Times,serif" font-size="14.00" fill="#ffffff">(Inner Join where s_nationkey = </text>
<text text-anchor="middle" x="747" y="-586.3" font-family="Times,serif" font-size="14.00" fill="#ffffff">n_nationkey)</text>
<text text-anchor="middle" x="747" y="-555.3" font-family="Times,serif" font-size="14.00" fill="#ffffff">148 µs 0 ns </text>
</g>
<!-- 94377838540528&#45;&gt;94377838386176 -->
<g id="edge16" class="edge">
<title>94377838540528&#45;&gt;94377838386176</title>
<path fill="none" stroke="#ffffff" stroke-width="2" d="M744.3078,-631.545C741.3627,-646.0469 735.6973,-661.3145 725,-672 707.1952,-689.7852 653.6261,-704.4167 603.1112,-714.7777"/>
<polygon fill="#ffffff" stroke="#ffffff" stroke-width="2" points="602.1774,-711.3952 593.0605,-716.7926 603.5534,-718.2586 602.1774,-711.3952"/>
<text text-anchor="middle" x="833.5" y="-660.8" font-family="Times,serif" font-size="14.00" fill="#ffffff">2036 row(s)/1 chunk(s)/114.713KB</text>
</g>
<!-- 94377838384640 -->
<g id="node18" class="node">
<title>94377838384640</title>
<polygon fill="none" stroke="#ffffff" points="783,-466.5 711,-466.5 711,-412.5 783,-412.5 783,-466.5"/>
<text text-anchor="middle" x="747" y="-451.3" font-family="Times,serif" font-size="14.00" fill="#ffffff">Projection</text>
<text text-anchor="middle" x="747" y="-420.3" font-family="Times,serif" font-size="14.00" fill="#ffffff">24 µs 0 ns</text>
</g>
<!-- 94377838384640&#45;&gt;94377838540528 -->
<g id="edge17" class="edge">
<title>94377838384640&#45;&gt;94377838540528</title>
<path fill="none" stroke="#ffffff" stroke-width="2" d="M747,-466.6639C747,-486.2262 747,-513.2404 747,-536.9551"/>
<polygon fill="#ffffff" stroke="#ffffff" stroke-width="2" points="743.5001,-537.2315 747,-547.2316 750.5001,-537.2316 743.5001,-537.2315"/>
<text text-anchor="middle" x="848" y="-510.8" font-family="Times,serif" font-size="14.00" fill="#ffffff">10000 row(s)/1 chunk(s)/190.704KB</text>
</g>
<!-- 94377931689344 -->
<g id="node19" class="node">
<title>94377931689344</title>
<polygon fill="none" stroke="#ffffff" points="781.5,-339 712.5,-339 712.5,-270 781.5,-270 781.5,-339"/>
<text text-anchor="middle" x="747" y="-323.8" font-family="Times,serif" font-size="14.00" fill="#ffffff">GetTable</text>
<text text-anchor="middle" x="747" y="-308.8" font-family="Times,serif" font-size="14.00" fill="#ffffff">(supplier)</text>
<text text-anchor="middle" x="747" y="-277.8" font-family="Times,serif" font-size="14.00" fill="#ffffff">0 ns</text>
</g>
<!-- 94377931689344&#45;&gt;94377838384640 -->
<g id="edge18" class="edge">
<title>94377931689344&#45;&gt;94377838384640</title>
<path fill="none" stroke="#ffffff" stroke-width="2" d="M747,-339.2659C747,-358.4703 747,-382.3393 747,-401.9668"/>
<polygon fill="#ffffff" stroke="#ffffff" stroke-width="2" points="743.5001,-402.0867 747,-412.0867 750.5001,-402.0867 743.5001,-402.0867"/>
<text text-anchor="middle" x="842.5" y="-360.8" font-family="Times,serif" font-size="14.00" fill="#ffffff">10000 row(s)/1 chunk(s)/1.610MB</text>
</g>
<!-- 94377838385904 -->
<g id="node20" class="node">
<title>94377838385904</title>
<polygon fill="none" stroke="#ffffff" points="1072,-481.5 872,-481.5 872,-397.5 1072,-397.5 1072,-481.5"/>
<text text-anchor="middle" x="972" y="-466.3" font-family="Times,serif" font-size="14.00" fill="#ffffff">JoinHash</text>
<text text-anchor="middle" x="972" y="-451.3" font-family="Times,serif" font-size="14.00" fill="#ffffff">(Inner Join where n_regionkey = </text>
<text text-anchor="middle" x="972" y="-436.3" font-family="Times,serif" font-size="14.00" fill="#ffffff">r_regionkey)</text>
<text text-anchor="middle" x="972" y="-405.3" font-family="Times,serif" font-size="14.00" fill="#ffffff">50 µs 0 ns </text>
</g>
<!-- 94377838385904&#45;&gt;94377838540528 -->
<g id="edge19" class="edge">
<title>94377838385904&#45;&gt;94377838540528</title>
<path fill="none" stroke="#ffffff" d="M968.8571,-481.619C965.8511,-495.9575 960.262,-511.0985 950,-522 935.9183,-536.9591 896.0962,-551.595 855.411,-563.3933"/>
<polygon fill="#ffffff" stroke="#ffffff" points="854.2846,-560.0747 845.6221,-566.1749 856.198,-566.8082 854.2846,-560.0747"/>
<text text-anchor="middle" x="1030.5" y="-510.8" font-family="Times,serif" font-size="14.00" fill="#ffffff">5 row(s)/1 chunk(s)/765B</text>
</g>
<!-- 94377838543408 -->
<g id="node21" class="node">
<title>94377838543408</title>
<polygon fill="none" stroke="#ffffff" points="1003,-331.5 931,-331.5 931,-277.5 1003,-277.5 1003,-331.5"/>
<text text-anchor="middle" x="967" y="-316.3" font-family="Times,serif" font-size="14.00" fill="#ffffff">Projection</text>
<text text-anchor="middle" x="967" y="-285.3" font-family="Times,serif" font-size="14.00" fill="#ffffff">2 µs 0 ns</text>
</g>
<!-- 94377838543408&#45;&gt;94377838385904 -->
<g id="edge20" class="edge">
<title>94377838543408&#45;&gt;94377838385904</title>
<path fill="none" stroke="#ffffff" d="M967.1289,-331.7668C967.2578,-344.0628 967.5101,-358.7654 968,-372 968.1805,-376.8758 968.4078,-381.9476 968.662,-387.0233"/>
<polygon fill="#ffffff" stroke="#ffffff" points="965.187,-387.5863 969.2151,-397.3855 972.177,-387.2132 965.187,-387.5863"/>
<text text-anchor="middle" x="1052" y="-360.8" font-family="Times,serif" font-size="14.00" fill="#ffffff">25 row(s)/1 chunk(s)/1.971KB</text>
</g>
<!-- 94377931696464 -->
<g id="node22" class="node">
<title>94377931696464</title>
<polygon fill="none" stroke="#ffffff" points="1000.5,-204 933.5,-204 933.5,-135 1000.5,-135 1000.5,-204"/>
<text text-anchor="middle" x="967" y="-188.8" font-family="Times,serif" font-size="14.00" fill="#ffffff">GetTable</text>
<text text-anchor="middle" x="967" y="-173.8" font-family="Times,serif" font-size="14.00" fill="#ffffff">(nation)</text>
<text text-anchor="middle" x="967" y="-142.8" font-family="Times,serif" font-size="14.00" fill="#ffffff">0 ns</text>
</g>
<!-- 94377931696464&#45;&gt;94377838543408 -->
<g id="edge21" class="edge">
<title>94377931696464&#45;&gt;94377838543408</title>
<path fill="none" stroke="#ffffff" d="M967,-204.2659C967,-223.4703 967,-247.3393 967,-266.9668"/>
<polygon fill="#ffffff" stroke="#ffffff" points="963.5001,-267.0867 967,-277.0867 970.5001,-267.0867 963.5001,-267.0867"/>
<text text-anchor="middle" x="1051" y="-240.8" font-family="Times,serif" font-size="14.00" fill="#ffffff">25 row(s)/1 chunk(s)/2.869KB</text>
</g>
<!-- 94377838381856 -->
<g id="node23" class="node">
<title>94377838381856</title>
<polygon fill="none" stroke="#ffffff" points="1194,-331.5 1122,-331.5 1122,-277.5 1194,-277.5 1194,-331.5"/>
<text text-anchor="middle" x="1158" y="-316.3" font-family="Times,serif" font-size="14.00" fill="#ffffff">Projection</text>
<text text-anchor="middle" x="1158" y="-285.3" font-family="Times,serif" font-size="14.00" fill="#ffffff">0 ns</text>
</g>
<!-- 94377838381856&#45;&gt;94377838385904 -->
<g id="edge22" class="edge">
<title>94377838381856&#45;&gt;94377838385904</title>
<path fill="none" stroke="#ffffff" d="M1154.6313,-331.5584C1151.7003,-345.1272 1146.2246,-360.9741 1136,-372 1121.022,-388.1519 1101.6072,-400.5478 1081.4052,-410.0256"/>
<polygon fill="#ffffff" stroke="#ffffff" points="1079.7922,-406.9124 1072.0809,-414.1779 1082.6399,-413.307 1079.7922,-406.9124"/>
<text text-anchor="middle" x="1216.5" y="-360.8" font-family="Times,serif" font-size="14.00" fill="#ffffff">1 row(s)/1 chunk(s)/385B</text>
</g>
<!-- 94377610793472 -->
<g id="node24" class="node">
<title>94377610793472</title>
<polygon fill="none" stroke="#ffffff" points="1229.5,-219 1086.5,-219 1086.5,-120 1229.5,-120 1229.5,-219"/>
<text text-anchor="middle" x="1158" y="-203.8" font-family="Times,serif" font-size="14.00" fill="#ffffff">TableScan</text>
<text text-anchor="middle" x="1158" y="-188.8" font-family="Times,serif" font-size="14.00" fill="#ffffff">Impl: LiteralTableScan</text>
<text text-anchor="middle" x="1158" y="-173.8" font-family="Times,serif" font-size="14.00" fill="#ffffff">r_name = </text>
<text text-anchor="middle" x="1158" y="-158.8" font-family="Times,serif" font-size="14.00" fill="#ffffff">&#39;AMERICA&#39;</text>
<text text-anchor="middle" x="1158" y="-127.8" font-family="Times,serif" font-size="14.00" fill="#ffffff">4 µs 0 ns </text>
</g>
<!-- 94377610793472&#45;&gt;94377838381856 -->
<g id="edge23" class="edge">
<title>94377610793472&#45;&gt;94377838381856</title>
<path fill="none" stroke="#ffffff" d="M1158,-219.0024C1158,-234.8677 1158,-252.1639 1158,-267.0225"/>
<polygon fill="#ffffff" stroke="#ffffff" points="1154.5001,-267.3558 1158,-277.3558 1161.5001,-267.3558 1154.5001,-267.3558"/>
<text text-anchor="middle" x="1228.5" y="-240.8" font-family="Times,serif" font-size="14.00" fill="#ffffff">1 row(s)/1 chunk(s)/458B</text>
</g>
<!-- 94377787008032 -->
<g id="node25" class="node">
<title>94377787008032</title>
<polygon fill="none" stroke="#ffffff" points="1191.5,-69 1124.5,-69 1124.5,0 1191.5,0 1191.5,-69"/>
<text text-anchor="middle" x="1158" y="-53.8" font-family="Times,serif" font-size="14.00" fill="#ffffff">GetTable</text>
<text text-anchor="middle" x="1158" y="-38.8" font-family="Times,serif" font-size="14.00" fill="#ffffff">(region)</text>
<text text-anchor="middle" x="1158" y="-7.8" font-family="Times,serif" font-size="14.00" fill="#ffffff">0 ns</text>
</g>
<!-- 94377787008032&#45;&gt;94377610793472 -->
<g id="edge24" class="edge">
<title>94377787008032&#45;&gt;94377610793472</title>
<path fill="none" stroke="#ffffff" d="M1158,-69.2659C1158,-81.5301 1158,-95.6967 1158,-109.446"/>
<polygon fill="#ffffff" stroke="#ffffff" points="1154.5001,-109.8405 1158,-119.8405 1161.5001,-109.8406 1154.5001,-109.8405"/>
<text text-anchor="middle" x="1238.5" y="-90.8" font-family="Times,serif" font-size="14.00" fill="#ffffff">5 row(s)/1 chunk(s)/1.089KB</text>
</g>
</g>
</svg>
