<?xml version="1.0" encoding="UTF-8" standalone="no"?>
<!DOCTYPE svg PUBLIC "-//W3C//DTD SVG 1.1//EN"
 "http://www.w3.org/Graphics/SVG/1.1/DTD/svg11.dtd">
<!-- Generated by graphviz version 2.40.1 (20161225.0304)
 -->
<!-- Title: G Pages: 1 -->
<svg width="532pt" height="855pt"
 viewBox="0.00 0.00 531.50 855.00" xmlns="http://www.w3.org/2000/svg" xmlns:xlink="http://www.w3.org/1999/xlink">
<g id="graph0" class="graph" transform="scale(1 1) rotate(0) translate(4 851)">
<title>G</title>
<polygon fill="#000000" stroke="transparent" points="-4,4 -4,-851 527.5,-851 527.5,4 -4,4"/>
<!-- 94379035024624 -->
<g id="node1" class="node">
<title>94379035024624</title>
<polygon fill="none" stroke="#ffffff" points="408.5,-847 54.5,-847 54.5,-779 408.5,-779 408.5,-847"/>
<text text-anchor="middle" x="231.5" y="-831.8" font-family="Times,serif" font-size="14.00" fill="#ffffff">Alias [(100 * SUM(CASE WHEN p_type LIKE &#39;PROMO%&#39; </text>
<text text-anchor="middle" x="231.5" y="-816.8" font-family="Times,serif" font-size="14.00" fill="#ffffff">THEN l_extendedprice * (1 &#45; l_discount) ELSE 0 </text>
<text text-anchor="middle" x="231.5" y="-801.8" font-family="Times,serif" font-size="14.00" fill="#ffffff">END)) / SUM(l_extendedprice * (1 &#45; l_discount)) </text>
<text text-anchor="middle" x="231.5" y="-786.8" font-family="Times,serif" font-size="14.00" fill="#ffffff">AS promo_revenue] </text>
</g>
<!-- 94379035023904 -->
<g id="node2" class="node">
<title>94379035023904</title>
<polygon fill="none" stroke="#ffffff" points="390,-728 73,-728 73,-660 390,-660 390,-728"/>
<text text-anchor="middle" x="231.5" y="-712.8" font-family="Times,serif" font-size="14.00" fill="#ffffff">[Projection] (100 * SUM(CASE WHEN p_type LIKE </text>
<text text-anchor="middle" x="231.5" y="-697.8" font-family="Times,serif" font-size="14.00" fill="#ffffff">&#39;PROMO%&#39; THEN l_extendedprice * (1 &#45; l_discount) </text>
<text text-anchor="middle" x="231.5" y="-682.8" font-family="Times,serif" font-size="14.00" fill="#ffffff">ELSE 0 END)) / SUM(l_extendedprice * (1 &#45; </text>
<text text-anchor="middle" x="231.5" y="-667.8" font-family="Times,serif" font-size="14.00" fill="#ffffff">l_discount)) </text>
</g>
<!-- 94379035023904&#45;&gt;94379035024624 -->
<g id="edge1" class="edge">
<title>94379035023904&#45;&gt;94379035024624</title>
<path fill="none" stroke="#ffffff" stroke-width="4" d="M231.5,-728.1006C231.5,-740.7979 231.5,-755.3949 231.5,-768.8643"/>
<polygon fill="#ffffff" stroke="#ffffff" stroke-width="4" points="228.0001,-768.8944 231.5,-778.8944 235.0001,-768.8944 228.0001,-768.8944"/>
<text text-anchor="middle" x="323.5" y="-749.8" font-family="Times,serif" font-size="14.00" fill="#ffffff"> 6001214.5 row(s) | 100.0% estd.</text>
</g>
<!-- 94379035023408 -->
<g id="node3" class="node">
<title>94379035023408</title>
<polygon fill="none" stroke="#ffffff" points="390.5,-609 72.5,-609 72.5,-541 390.5,-541 390.5,-609"/>
<text text-anchor="middle" x="231.5" y="-593.8" font-family="Times,serif" font-size="14.00" fill="#ffffff">[Aggregate] GroupBy: [] Aggregates: </text>
<text text-anchor="middle" x="231.5" y="-578.8" font-family="Times,serif" font-size="14.00" fill="#ffffff">[SUM(l_extendedprice * (1 &#45; l_discount)), </text>
<text text-anchor="middle" x="231.5" y="-563.8" font-family="Times,serif" font-size="14.00" fill="#ffffff">SUM(CASE WHEN p_type LIKE &#39;PROMO%&#39; THEN </text>
<text text-anchor="middle" x="231.5" y="-548.8" font-family="Times,serif" font-size="14.00" fill="#ffffff">l_extendedprice * (1 &#45; l_discount) ELSE 0 END)] </text>
</g>
<!-- 94379035023408&#45;&gt;94379035023904 -->
<g id="edge2" class="edge">
<title>94379035023408&#45;&gt;94379035023904</title>
<path fill="none" stroke="#ffffff" stroke-width="4" d="M231.5,-609.1006C231.5,-621.7979 231.5,-636.3949 231.5,-649.8643"/>
<polygon fill="#ffffff" stroke="#ffffff" stroke-width="4" points="228.0001,-649.8944 231.5,-659.8944 235.0001,-649.8944 228.0001,-649.8944"/>
<text text-anchor="middle" x="323.5" y="-630.8" font-family="Times,serif" font-size="14.00" fill="#ffffff"> 6001214.5 row(s) | 100.0% estd.</text>
</g>
<!-- 94378962359744 -->
<g id="node4" class="node">
<title>94378962359744</title>
<polygon fill="none" stroke="#ffffff" points="373.5,-490 89.5,-490 89.5,-437 373.5,-437 373.5,-490"/>
<text text-anchor="middle" x="231.5" y="-474.8" font-family="Times,serif" font-size="14.00" fill="#ffffff">[Projection] l_extendedprice * (1 &#45; l_discount), </text>
<text text-anchor="middle" x="231.5" y="-459.8" font-family="Times,serif" font-size="14.00" fill="#ffffff">CASE WHEN p_type LIKE &#39;PROMO%&#39; THEN </text>
<text text-anchor="middle" x="231.5" y="-444.8" font-family="Times,serif" font-size="14.00" fill="#ffffff">l_extendedprice * (1 &#45; l_discount) ELSE 0 END </text>
</g>
<!-- 94378962359744&#45;&gt;94379035023408 -->
<g id="edge3" class="edge">
<title>94378962359744&#45;&gt;94379035023408</title>
<path fill="none" stroke="#ffffff" stroke-width="4" d="M231.5,-490.207C231.5,-502.3232 231.5,-516.9786 231.5,-530.6731"/>
<polygon fill="#ffffff" stroke="#ffffff" stroke-width="4" points="228.0001,-530.9001 231.5,-540.9001 235.0001,-530.9002 228.0001,-530.9001"/>
<text text-anchor="middle" x="323.5" y="-511.8" font-family="Times,serif" font-size="14.00" fill="#ffffff"> 6001214.5 row(s) | 100.0% estd.</text>
</g>
<!-- 94378998322752 -->
<g id="node5" class="node">
<title>94378998322752</title>
<polygon fill="none" stroke="#ffffff" points="354,-386 109,-386 109,-350 354,-350 354,-386"/>
<text text-anchor="middle" x="231.5" y="-364.3" font-family="Times,serif" font-size="14.00" fill="#ffffff">[Join] Mode: Inner l_partkey = p_partkey</text>
</g>
<!-- 94378998322752&#45;&gt;94378962359744 -->
<g id="edge4" class="edge">
<title>94378998322752&#45;&gt;94378962359744</title>
<path fill="none" stroke="#ffffff" stroke-width="4" d="M231.5,-386.4134C231.5,-397.816 231.5,-412.8627 231.5,-426.6338"/>
<polygon fill="#ffffff" stroke="#ffffff" stroke-width="4" points="228.0001,-426.8344 231.5,-436.8345 235.0001,-426.8345 228.0001,-426.8344"/>
<text text-anchor="middle" x="316.5" y="-407.8" font-family="Times,serif" font-size="14.00" fill="#ffffff"> 6001214.5 row(s) | 0.0% estd.</text>
</g>
<!-- 94378010627344 -->
<g id="node6" class="node">
<title>94378010627344</title>
<polygon fill="none" stroke="#ffffff" points="237,-299 0,-299 0,-261 237,-261 237,-299"/>
<text text-anchor="middle" x="118.5" y="-283.8" font-family="Times,serif" font-size="14.00" fill="#ffffff">[Projection] l_partkey, l_extendedprice, </text>
<text text-anchor="middle" x="118.5" y="-268.8" font-family="Times,serif" font-size="14.00" fill="#ffffff">l_discount, l_shipdate </text>
</g>
<!-- 94378010627344&#45;&gt;94378998322752 -->
<g id="edge5" class="edge">
<title>94378010627344&#45;&gt;94378998322752</title>
<path fill="none" stroke="#ffffff" stroke-width="4" d="M120.2284,-299.1557C122.1353,-310.0079 126.1326,-323.1426 134.5,-332 139.1411,-336.9129 144.5133,-341.1593 150.3014,-344.829"/>
<polygon fill="#ffffff" stroke="#ffffff" stroke-width="4" points="148.6202,-347.8993 159.0425,-349.8034 152.0824,-341.8154 148.6202,-347.8993"/>
<text text-anchor="middle" x="226.5" y="-320.8" font-family="Times,serif" font-size="14.00" fill="#ffffff"> 6001215.0 row(s) | 100.0% estd.</text>
</g>
<!-- 94378864632096 -->
<g id="node7" class="node">
<title>94378864632096</title>
<polygon fill="none" stroke="#ffffff" points="227.5,-210 9.5,-210 9.5,-174 227.5,-174 227.5,-210"/>
<text text-anchor="middle" x="118.5" y="-188.3" font-family="Times,serif" font-size="14.00" fill="#ffffff">[Predicate] l_shipdate &lt; &#39;1995&#45;10&#45;01&#39;</text>
</g>
<!-- 94378864632096&#45;&gt;94378010627344 -->
<g id="edge6" class="edge">
<title>94378864632096&#45;&gt;94378010627344</title>
<path fill="none" stroke="#ffffff" stroke-width="4" d="M118.5,-210.2337C118.5,-221.9125 118.5,-237.3308 118.5,-250.7022"/>
<polygon fill="#ffffff" stroke="#ffffff" stroke-width="4" points="115.0001,-250.8765 118.5,-260.8765 122.0001,-250.8765 115.0001,-250.8765"/>
<text text-anchor="middle" x="210.5" y="-231.8" font-family="Times,serif" font-size="14.00" fill="#ffffff"> 6001215.0 row(s) | 100.0% estd.</text>
</g>
<!-- 94378981403696 -->
<g id="node8" class="node">
<title>94378981403696</title>
<polygon fill="none" stroke="#ffffff" points="232,-123 5,-123 5,-87 232,-87 232,-123"/>
<text text-anchor="middle" x="118.5" y="-101.3" font-family="Times,serif" font-size="14.00" fill="#ffffff">[Predicate] l_shipdate &gt;= &#39;1995&#45;09&#45;01&#39;</text>
</g>
<!-- 94378981403696&#45;&gt;94378864632096 -->
<g id="edge7" class="edge">
<title>94378981403696&#45;&gt;94378864632096</title>
<path fill="none" stroke="#ffffff" stroke-width="4" d="M118.5,-123.0265C118.5,-134.8082 118.5,-150.4393 118.5,-163.8419"/>
<polygon fill="#ffffff" stroke="#ffffff" stroke-width="4" points="115.0001,-163.9966 118.5,-173.9966 122.0001,-163.9967 115.0001,-163.9966"/>
<text text-anchor="middle" x="210.5" y="-144.8" font-family="Times,serif" font-size="14.00" fill="#ffffff"> 6001215.0 row(s) | 100.0% estd.</text>
</g>
<!-- 94378080754800 -->
<g id="node9" class="node">
<title>94378080754800</title>
<polygon fill="none" stroke="#ffffff" points="211,-36 26,-36 26,0 211,0 211,-36"/>
<text text-anchor="middle" x="118.5" y="-14.3" font-family="Times,serif" font-size="14.00" fill="#ffffff">[StoredTable] Name: &#39;lineitem&#39;</text>
</g>
<!-- 94378080754800&#45;&gt;94378981403696 -->
<g id="edge8" class="edge">
<title>94378080754800&#45;&gt;94378981403696</title>
<path fill="none" stroke="#ffffff" stroke-width="4" d="M118.5,-36.0265C118.5,-47.8082 118.5,-63.4393 118.5,-76.8419"/>
<polygon fill="#ffffff" stroke="#ffffff" stroke-width="4" points="115.0001,-76.9966 118.5,-86.9966 122.0001,-76.9967 115.0001,-76.9966"/>
<text text-anchor="middle" x="210.5" y="-57.8" font-family="Times,serif" font-size="14.00" fill="#ffffff"> 6001215.0 row(s) | 100.0% estd.</text>
</g>
<!-- 94378010626576 -->
<g id="node10" class="node">
<title>94378010626576</title>
<polygon fill="none" stroke="#ffffff" points="438,-298 255,-298 255,-262 438,-262 438,-298"/>
<text text-anchor="middle" x="346.5" y="-276.3" font-family="Times,serif" font-size="14.00" fill="#ffffff">[Projection] p_partkey, p_type</text>
</g>
<!-- 94378010626576&#45;&gt;94378998322752 -->
<g id="edge9" class="edge">
<title>94378010626576&#45;&gt;94378998322752</title>
<path fill="none" stroke="#ffffff" stroke-width="3" d="M340.2255,-298.3963C335.6744,-309.3863 328.5439,-322.928 318.5,-332 312.9958,-336.9716 306.7095,-341.3118 300.0914,-345.0882"/>
<polygon fill="#ffffff" stroke="#ffffff" stroke-width="3" points="298.1418,-342.1581 290.9033,-349.8948 301.3865,-348.3606 298.1418,-342.1581"/>
<text text-anchor="middle" x="420" y="-320.8" font-family="Times,serif" font-size="14.00" fill="#ffffff"> 200000.0 row(s) | 100.0% estd.</text>
</g>
<!-- 94378867275184 -->
<g id="node11" class="node">
<title>94378867275184</title>
<polygon fill="none" stroke="#ffffff" points="427,-210 266,-210 266,-174 427,-174 427,-210"/>
<text text-anchor="middle" x="346.5" y="-188.3" font-family="Times,serif" font-size="14.00" fill="#ffffff">[StoredTable] Name: &#39;part&#39;</text>
</g>
<!-- 94378867275184&#45;&gt;94378010626576 -->
<g id="edge10" class="edge">
<title>94378867275184&#45;&gt;94378010626576</title>
<path fill="none" stroke="#ffffff" stroke-width="3" d="M346.5,-210.2337C346.5,-222.1508 346.5,-237.9616 346.5,-251.5183"/>
<polygon fill="#ffffff" stroke="#ffffff" stroke-width="3" points="343.0001,-251.7897 346.5,-261.7897 350.0001,-251.7897 343.0001,-251.7897"/>
<text text-anchor="middle" x="435" y="-231.8" font-family="Times,serif" font-size="14.00" fill="#ffffff"> 200000.0 row(s) | 100.0% estd.</text>
</g>
</g>
</svg>
