<?xml version="1.0" encoding="UTF-8" standalone="no"?>
<!DOCTYPE svg PUBLIC "-//W3C//DTD SVG 1.1//EN"
 "http://www.w3.org/Graphics/SVG/1.1/DTD/svg11.dtd">
<!-- Generated by graphviz version 2.40.1 (20161225.0304)
 -->
<!-- Title: G Pages: 1 -->
<svg width="616pt" height="1453pt"
 viewBox="0.00 0.00 616.00 1453.00" xmlns="http://www.w3.org/2000/svg" xmlns:xlink="http://www.w3.org/1999/xlink">
<g id="graph0" class="graph" transform="scale(1 1) rotate(0) translate(4 1449)">
<title>G</title>
<polygon fill="#000000" stroke="transparent" points="-4,4 -4,-1449 612,-1449 612,4 -4,4"/>
<!-- 94334802571872 -->
<g id="node1" class="node">
<title>94334802571872</title>
<polygon fill="none" stroke="#ffffff" points="367,-1445 295,-1445 295,-1391 367,-1391 367,-1445"/>
<text text-anchor="middle" x="331" y="-1429.8" font-family="Times,serif" font-size="14.00" fill="#ffffff">Projection</text>
<text text-anchor="middle" x="331" y="-1398.8" font-family="Times,serif" font-size="14.00" fill="#ffffff">1 µs 0 ns</text>
</g>
<!-- 94334827815056 -->
<g id="node2" class="node">
<title>94334827815056</title>
<polygon fill="none" stroke="#ffffff" stroke-width="2" points="370.5,-1340 291.5,-1340 291.5,-1286 370.5,-1286 370.5,-1340"/>
<text text-anchor="middle" x="331" y="-1324.8" font-family="Times,serif" font-size="14.00" fill="#ffffff">Sort</text>
<text text-anchor="middle" x="331" y="-1293.8" font-family="Times,serif" font-size="14.00" fill="#ffffff">371 µs 0 ns</text>
</g>
<!-- 94334827815056&#45;&gt;94334802571872 -->
<g id="edge1" class="edge">
<title>94334827815056&#45;&gt;94334802571872</title>
<path fill="none" stroke="#ffffff" stroke-width="2" d="M331,-1340.0401C331,-1352.3143 331,-1367.0382 331,-1380.3683"/>
<polygon fill="#ffffff" stroke="#ffffff" stroke-width="2" points="327.5001,-1380.6866 331,-1390.6866 334.5001,-1380.6866 327.5001,-1380.6866"/>
<text text-anchor="middle" x="421.5" y="-1361.8" font-family="Times,serif" font-size="14.00" fill="#ffffff">186 row(s)/1 chunk(s)/22.504KB</text>
</g>
<!-- 94335649167200 -->
<g id="node3" class="node">
<title>94335649167200</title>
<polygon fill="none" stroke="#ffffff" points="429.5,-1235 232.5,-1235 232.5,-1151 429.5,-1151 429.5,-1235"/>
<text text-anchor="middle" x="331" y="-1219.8" font-family="Times,serif" font-size="14.00" fill="#ffffff">JoinHash</text>
<text text-anchor="middle" x="331" y="-1204.8" font-family="Times,serif" font-size="14.00" fill="#ffffff">(Inner Join where s_nationkey = </text>
<text text-anchor="middle" x="331" y="-1189.8" font-family="Times,serif" font-size="14.00" fill="#ffffff">n_nationkey)</text>
<text text-anchor="middle" x="331" y="-1158.8" font-family="Times,serif" font-size="14.00" fill="#ffffff">83 µs 0 ns </text>
</g>
<!-- 94335649167200&#45;&gt;94334827815056 -->
<g id="edge2" class="edge">
<title>94335649167200&#45;&gt;94334827815056</title>
<path fill="none" stroke="#ffffff" stroke-width="2" d="M331,-1235.3075C331,-1248.3814 331,-1262.686 331,-1275.4178"/>
<polygon fill="#ffffff" stroke="#ffffff" stroke-width="2" points="327.5001,-1275.681 331,-1285.681 334.5001,-1275.6811 327.5001,-1275.681"/>
<text text-anchor="middle" x="418.5" y="-1256.8" font-family="Times,serif" font-size="14.00" fill="#ffffff">186 row(s)/1 chunk(s)/9.556KB</text>
</g>
<!-- 94334760808000 -->
<g id="node4" class="node">
<title>94334760808000</title>
<polygon fill="none" stroke="#ffffff" points="258,-1100 186,-1100 186,-1046 258,-1046 258,-1100"/>
<text text-anchor="middle" x="222" y="-1084.8" font-family="Times,serif" font-size="14.00" fill="#ffffff">Projection</text>
<text text-anchor="middle" x="222" y="-1053.8" font-family="Times,serif" font-size="14.00" fill="#ffffff">2 µs 0 ns</text>
</g>
<!-- 94334760808000&#45;&gt;94335649167200 -->
<g id="edge3" class="edge">
<title>94334760808000&#45;&gt;94335649167200</title>
<path fill="none" stroke="#ffffff" stroke-width="2" d="M216.8141,-1100.2986C216.1313,-1111.164 217.2134,-1123.3505 223,-1133 225.2338,-1136.725 227.79,-1140.2362 230.6036,-1143.5439"/>
<polygon fill="#ffffff" stroke="#ffffff" stroke-width="2" points="228.1748,-1146.0688 237.6051,-1150.898 233.2446,-1141.2421 228.1748,-1146.0688"/>
<text text-anchor="middle" x="320.5" y="-1121.8" font-family="Times,serif" font-size="14.00" fill="#ffffff">4397 row(s)/1 chunk(s)/141.203KB</text>
</g>
<!-- 94334761224112 -->
<g id="node5" class="node">
<title>94334761224112</title>
<polygon fill="none" stroke="#ffffff" stroke-width="4" points="346,-995 98,-995 98,-896 346,-896 346,-995"/>
<text text-anchor="middle" x="222" y="-979.8" font-family="Times,serif" font-size="14.00" fill="#ffffff">TableScan</text>
<text text-anchor="middle" x="222" y="-964.8" font-family="Times,serif" font-size="14.00" fill="#ffffff">Impl: ExpressionEvaluator</text>
<text text-anchor="middle" x="222" y="-949.8" font-family="Times,serif" font-size="14.00" fill="#ffffff">(s_suppkey) </text>
<text text-anchor="middle" x="222" y="-934.8" font-family="Times,serif" font-size="14.00" fill="#ffffff">IN SUBSELECT (PQP, 0x55cc0865b1c0)</text>
<text text-anchor="middle" x="222" y="-903.8" font-family="Times,serif" font-size="14.00" fill="#ffffff">10 s 163 ms </text>
</g>
<!-- 94334761224112&#45;&gt;94334760808000 -->
<g id="edge4" class="edge">
<title>94334761224112&#45;&gt;94334760808000</title>
<path fill="none" stroke="#ffffff" stroke-width="2" d="M222,-995.1599C222,-1008.598 222,-1022.9153 222,-1035.5584"/>
<polygon fill="#ffffff" stroke="#ffffff" stroke-width="2" points="218.5001,-1035.7287 222,-1045.7287 225.5001,-1035.7288 218.5001,-1035.7287"/>
<text text-anchor="middle" x="319.5" y="-1016.8" font-family="Times,serif" font-size="14.00" fill="#ffffff">4397 row(s)/1 chunk(s)/246.924KB</text>
</g>
<!-- 94334726371760 -->
<g id="node6" class="node">
<title>94334726371760</title>
<polygon fill="none" stroke="#ffffff" points="79.5,-845 10.5,-845 10.5,-776 79.5,-776 79.5,-845"/>
<text text-anchor="middle" x="45" y="-829.8" font-family="Times,serif" font-size="14.00" fill="#ffffff">GetTable</text>
<text text-anchor="middle" x="45" y="-814.8" font-family="Times,serif" font-size="14.00" fill="#ffffff">(supplier)</text>
<text text-anchor="middle" x="45" y="-783.8" font-family="Times,serif" font-size="14.00" fill="#ffffff">0 ns</text>
</g>
<!-- 94334726371760&#45;&gt;94334761224112 -->
<g id="edge5" class="edge">
<title>94334726371760&#45;&gt;94334761224112</title>
<path fill="none" stroke="#ffffff" stroke-width="2" d="M38.1568,-845.1375C37.7351,-856.4851 39.4231,-868.5838 46,-878 52.5408,-887.3646 68.6017,-896.6412 88.5043,-905.1814"/>
<polygon fill="#ffffff" stroke="#ffffff" stroke-width="2" points="87.3193,-908.4786 97.8986,-909.0512 89.9854,-902.0062 87.3193,-908.4786"/>
<text text-anchor="middle" x="141.5" y="-866.8" font-family="Times,serif" font-size="14.00" fill="#ffffff">10000 row(s)/1 chunk(s)/1.610MB</text>
</g>
<!-- 94334802571712 -->
<g id="node7" class="node">
<title>94334802571712</title>
<polygon fill="none" stroke="#ffffff" points="295,-828.5 223,-828.5 223,-792.5 295,-792.5 295,-828.5"/>
<text text-anchor="middle" x="259" y="-806.8" font-family="Times,serif" font-size="14.00" fill="#ffffff">Projection</text>
</g>
<!-- 94334802571712&#45;&gt;94334761224112 -->
<g id="edge6" class="edge">
<title>94334802571712&#45;&gt;94334761224112</title>
<path fill="none" stroke="#ffffff" stroke-dasharray="5,2" d="M254.01,-828.7067C249.9402,-843.5561 243.9523,-865.4037 238.2532,-886.1978"/>
<polygon fill="#ffffff" stroke="#ffffff" points="234.8438,-885.3967 235.5759,-895.9662 241.5948,-887.247 234.8438,-885.3967"/>
<text text-anchor="middle" x="304.5" y="-866.8" font-family="Times,serif" font-size="14.00" fill="#ffffff">uncorrelated subquery</text>
</g>
<!-- 94334802165120 -->
<g id="node8" class="node">
<title>94334802165120</title>
<polygon fill="none" stroke="#ffffff" points="346,-739 172,-739 172,-671 346,-671 346,-739"/>
<text text-anchor="middle" x="259" y="-723.8" font-family="Times,serif" font-size="14.00" fill="#ffffff">TableScan</text>
<text text-anchor="middle" x="259" y="-708.8" font-family="Times,serif" font-size="14.00" fill="#ffffff">Impl: Unset</text>
<text text-anchor="middle" x="259" y="-693.8" font-family="Times,serif" font-size="14.00" fill="#ffffff">ps_availqty &gt; SUBSELECT </text>
<text text-anchor="middle" x="259" y="-678.8" font-family="Times,serif" font-size="14.00" fill="#ffffff">(PQP, 0x55cc09972b10) </text>
</g>
<!-- 94334802165120&#45;&gt;94334802571712 -->
<g id="edge7" class="edge">
<title>94334802165120&#45;&gt;94334802571712</title>
<path fill="none" stroke="#ffffff" d="M259,-739.2528C259,-753.0724 259,-768.8312 259,-782.0083"/>
<polygon fill="#ffffff" stroke="#ffffff" points="255.5001,-782.3704 259,-792.3705 262.5001,-782.3705 255.5001,-782.3704"/>
</g>
<!-- 94335649162320 -->
<g id="node9" class="node">
<title>94335649162320</title>
<polygon fill="none" stroke="#ffffff" points="251,-620 179,-620 179,-584 251,-584 251,-620"/>
<text text-anchor="middle" x="215" y="-598.3" font-family="Times,serif" font-size="14.00" fill="#ffffff">Projection</text>
</g>
<!-- 94335649162320&#45;&gt;94334802165120 -->
<g id="edge8" class="edge">
<title>94335649162320&#45;&gt;94334802165120</title>
<path fill="none" stroke="#ffffff" d="M222.8663,-620.4143C227.7734,-631.9013 234.3073,-647.1965 240.4688,-661.6201"/>
<polygon fill="#ffffff" stroke="#ffffff" points="237.2961,-663.1026 244.4432,-670.9237 243.7333,-660.3527 237.2961,-663.1026"/>
</g>
<!-- 94335649166624 -->
<g id="node10" class="node">
<title>94335649166624</title>
<polygon fill="none" stroke="#ffffff" points="186,-547 0,-547 0,-479 186,-479 186,-547"/>
<text text-anchor="middle" x="93" y="-531.8" font-family="Times,serif" font-size="14.00" fill="#ffffff">TableScan</text>
<text text-anchor="middle" x="93" y="-516.8" font-family="Times,serif" font-size="14.00" fill="#ffffff">Impl: Unset</text>
<text text-anchor="middle" x="93" y="-501.8" font-family="Times,serif" font-size="14.00" fill="#ffffff">(ps_partkey) IN SUBSELECT </text>
<text text-anchor="middle" x="93" y="-486.8" font-family="Times,serif" font-size="14.00" fill="#ffffff">(PQP, 0x55cc060bc080) </text>
</g>
<!-- 94335649166624&#45;&gt;94335649162320 -->
<g id="edge9" class="edge">
<title>94335649166624&#45;&gt;94335649162320</title>
<path fill="none" stroke="#ffffff" d="M139.8195,-547.1552C153.9308,-557.4495 169.1139,-568.5257 182.1156,-578.0106"/>
<polygon fill="#ffffff" stroke="#ffffff" points="180.17,-580.9235 190.3115,-583.9895 184.2954,-575.2684 180.17,-580.9235"/>
</g>
<!-- 94334802574976 -->
<g id="node11" class="node">
<title>94334802574976</title>
<polygon fill="none" stroke="#ffffff" points="80,-428 8,-428 8,-390 80,-390 80,-428"/>
<text text-anchor="middle" x="44" y="-412.8" font-family="Times,serif" font-size="14.00" fill="#ffffff">GetTable</text>
<text text-anchor="middle" x="44" y="-397.8" font-family="Times,serif" font-size="14.00" fill="#ffffff">(partsupp)</text>
</g>
<!-- 94334802574976&#45;&gt;94335649166624 -->
<g id="edge10" class="edge">
<title>94334802574976&#45;&gt;94335649166624</title>
<path fill="none" stroke="#ffffff" d="M52.9874,-428.0752C58.4721,-439.7163 65.7188,-455.0971 72.5367,-469.5677"/>
<polygon fill="#ffffff" stroke="#ffffff" points="69.5039,-471.3426 76.9322,-478.897 75.8362,-468.359 69.5039,-471.3426"/>
</g>
<!-- 94334763122816 -->
<g id="node12" class="node">
<title>94334763122816</title>
<polygon fill="none" stroke="#ffffff" points="170,-427 98,-427 98,-391 170,-391 170,-427"/>
<text text-anchor="middle" x="134" y="-405.3" font-family="Times,serif" font-size="14.00" fill="#ffffff">Projection</text>
</g>
<!-- 94334763122816&#45;&gt;94335649166624 -->
<g id="edge11" class="edge">
<title>94334763122816&#45;&gt;94335649166624</title>
<path fill="none" stroke="#ffffff" stroke-dasharray="5,2" d="M126.8583,-427.1154C122.2662,-438.7638 116.09,-454.4303 110.2701,-469.193"/>
<polygon fill="#ffffff" stroke="#ffffff" points="106.9288,-468.1255 106.5172,-478.7124 113.441,-470.6929 106.9288,-468.1255"/>
<text text-anchor="middle" x="179.5" y="-449.8" font-family="Times,serif" font-size="14.00" fill="#ffffff">uncorrelated subquery</text>
</g>
<!-- 94334763128320 -->
<g id="node13" class="node">
<title>94334763128320</title>
<polygon fill="none" stroke="#ffffff" points="170,-337 98,-337 98,-301 170,-301 170,-337"/>
<text text-anchor="middle" x="134" y="-315.3" font-family="Times,serif" font-size="14.00" fill="#ffffff">Projection</text>
</g>
<!-- 94334763128320&#45;&gt;94334763122816 -->
<g id="edge12" class="edge">
<title>94334763128320&#45;&gt;94334763122816</title>
<path fill="none" stroke="#ffffff" d="M134,-337.2128C134,-349.6557 134,-366.3947 134,-380.5789"/>
<polygon fill="#ffffff" stroke="#ffffff" points="130.5001,-380.8142 134,-390.8142 137.5001,-380.8143 130.5001,-380.8142"/>
</g>
<!-- 94334827993760 -->
<g id="node14" class="node">
<title>94334827993760</title>
<polygon fill="none" stroke="#ffffff" points="207,-240.5 61,-240.5 61,-187.5 207,-187.5 207,-240.5"/>
<text text-anchor="middle" x="134" y="-225.3" font-family="Times,serif" font-size="14.00" fill="#ffffff">TableScan</text>
<text text-anchor="middle" x="134" y="-210.3" font-family="Times,serif" font-size="14.00" fill="#ffffff">Impl: Unset</text>
<text text-anchor="middle" x="134" y="-195.3" font-family="Times,serif" font-size="14.00" fill="#ffffff">p_name LIKE &#39;forest%&#39;</text>
</g>
<!-- 94334827993760&#45;&gt;94334763128320 -->
<g id="edge13" class="edge">
<title>94334827993760&#45;&gt;94334763128320</title>
<path fill="none" stroke="#ffffff" d="M134,-240.7676C134,-256.0714 134,-275.2509 134,-290.7892"/>
<polygon fill="#ffffff" stroke="#ffffff" points="130.5001,-290.8723 134,-300.8723 137.5001,-290.8724 130.5001,-290.8723"/>
</g>
<!-- 94334802576400 -->
<g id="node15" class="node">
<title>94334802576400</title>
<polygon fill="none" stroke="#ffffff" points="167.5,-128 100.5,-128 100.5,-90 167.5,-90 167.5,-128"/>
<text text-anchor="middle" x="134" y="-112.8" font-family="Times,serif" font-size="14.00" fill="#ffffff">GetTable</text>
<text text-anchor="middle" x="134" y="-97.8" font-family="Times,serif" font-size="14.00" fill="#ffffff">(part)</text>
</g>
<!-- 94334802576400&#45;&gt;94334827993760 -->
<g id="edge14" class="edge">
<title>94334802576400&#45;&gt;94334827993760</title>
<path fill="none" stroke="#ffffff" d="M134,-128.2586C134,-141.8571 134,-160.5102 134,-176.9462"/>
<polygon fill="#ffffff" stroke="#ffffff" points="130.5001,-177.3513 134,-187.3513 137.5001,-177.3514 130.5001,-177.3513"/>
</g>
<!-- 94334822591248 -->
<g id="node16" class="node">
<title>94334822591248</title>
<polygon fill="none" stroke="#ffffff" points="361,-620 289,-620 289,-584 361,-584 361,-620"/>
<text text-anchor="middle" x="325" y="-598.3" font-family="Times,serif" font-size="14.00" fill="#ffffff">Projection</text>
</g>
<!-- 94334822591248&#45;&gt;94334802165120 -->
<g id="edge15" class="edge">
<title>94334822591248&#45;&gt;94334802165120</title>
<path fill="none" stroke="#ffffff" stroke-dasharray="5,2" d="M313.2005,-620.4143C305.6998,-632.1201 295.6649,-647.7806 286.2693,-662.4433"/>
<polygon fill="#ffffff" stroke="#ffffff" points="283.2836,-660.6157 280.8353,-670.9237 289.1774,-664.3923 283.2836,-660.6157"/>
<text text-anchor="middle" x="356" y="-641.8" font-family="Times,serif" font-size="14.00" fill="#ffffff">correlated subquery</text>
</g>
<!-- 94334831969952 -->
<g id="node17" class="node">
<title>94334831969952</title>
<polygon fill="none" stroke="#ffffff" points="488,-532 204,-532 204,-494 488,-494 488,-532"/>
<text text-anchor="middle" x="346" y="-516.8" font-family="Times,serif" font-size="14.00" fill="#ffffff">[Aggregate] GroupBy ColumnIDs: &#160;Aggregates: </text>
<text text-anchor="middle" x="346" y="-501.8" font-family="Times,serif" font-size="14.00" fill="#ffffff">SUM(Column #2) </text>
</g>
<!-- 94334831969952&#45;&gt;94334822591248 -->
<g id="edge16" class="edge">
<title>94334831969952&#45;&gt;94334822591248</title>
<path fill="none" stroke="#ffffff" d="M341.4433,-532.3117C338.5595,-544.5336 334.7838,-560.5352 331.5779,-574.1223"/>
<polygon fill="#ffffff" stroke="#ffffff" points="328.1516,-573.4027 329.2615,-583.9393 334.9645,-575.0103 328.1516,-573.4027"/>
</g>
<!-- 94334788482208 -->
<g id="node18" class="node">
<title>94334788482208</title>
<polygon fill="none" stroke="#ffffff" points="382,-427 310,-427 310,-391 382,-391 382,-427"/>
<text text-anchor="middle" x="346" y="-405.3" font-family="Times,serif" font-size="14.00" fill="#ffffff">Projection</text>
</g>
<!-- 94334788482208&#45;&gt;94334831969952 -->
<g id="edge17" class="edge">
<title>94334788482208&#45;&gt;94334831969952</title>
<path fill="none" stroke="#ffffff" d="M346,-427.1154C346,-442.683 346,-465.4272 346,-483.5996"/>
<polygon fill="#ffffff" stroke="#ffffff" points="342.5001,-483.6821 346,-493.6821 349.5001,-483.6822 342.5001,-483.6821"/>
</g>
<!-- 94334763078240 -->
<g id="node19" class="node">
<title>94334763078240</title>
<polygon fill="none" stroke="#ffffff" points="442,-353 250,-353 250,-285 442,-285 442,-353"/>
<text text-anchor="middle" x="346" y="-337.8" font-family="Times,serif" font-size="14.00" fill="#ffffff">TableScan</text>
<text text-anchor="middle" x="346" y="-322.8" font-family="Times,serif" font-size="14.00" fill="#ffffff">Impl: Unset</text>
<text text-anchor="middle" x="346" y="-307.8" font-family="Times,serif" font-size="14.00" fill="#ffffff">l_shipdate BETWEEN </text>
<text text-anchor="middle" x="346" y="-292.8" font-family="Times,serif" font-size="14.00" fill="#ffffff">&#39;1994&#45;01&#45;01&#39; AND &#39;1995&#45;01&#45;00&#39; </text>
</g>
<!-- 94334763078240&#45;&gt;94334788482208 -->
<g id="edge18" class="edge">
<title>94334763078240&#45;&gt;94334788482208</title>
<path fill="none" stroke="#ffffff" d="M346,-353.0251C346,-362.0848 346,-371.7764 346,-380.5061"/>
<polygon fill="#ffffff" stroke="#ffffff" points="342.5001,-380.5699 346,-390.57 349.5001,-380.57 342.5001,-380.5699"/>
</g>
<!-- 94335648092880 -->
<g id="node20" class="node">
<title>94335648092880</title>
<polygon fill="none" stroke="#ffffff" points="454,-248 238,-248 238,-180 454,-180 454,-248"/>
<text text-anchor="middle" x="346" y="-232.8" font-family="Times,serif" font-size="14.00" fill="#ffffff">TableScan</text>
<text text-anchor="middle" x="346" y="-217.8" font-family="Times,serif" font-size="14.00" fill="#ffffff">Impl: Unset</text>
<text text-anchor="middle" x="346" y="-202.8" font-family="Times,serif" font-size="14.00" fill="#ffffff">l_suppkey = </text>
<text text-anchor="middle" x="346" y="-187.8" font-family="Times,serif" font-size="14.00" fill="#ffffff">Parameter[name=ps_suppkey;id=1] </text>
</g>
<!-- 94335648092880&#45;&gt;94334763078240 -->
<g id="edge19" class="edge">
<title>94335648092880&#45;&gt;94334763078240</title>
<path fill="none" stroke="#ffffff" d="M346,-248.0905C346,-256.5263 346,-265.6882 346,-274.538"/>
<polygon fill="#ffffff" stroke="#ffffff" points="342.5001,-274.7212 346,-284.7212 349.5001,-274.7213 342.5001,-274.7212"/>
</g>
<!-- 94335648092304 -->
<g id="node21" class="node">
<title>94335648092304</title>
<polygon fill="none" stroke="#ffffff" points="452,-143 240,-143 240,-75 452,-75 452,-143"/>
<text text-anchor="middle" x="346" y="-127.8" font-family="Times,serif" font-size="14.00" fill="#ffffff">TableScan</text>
<text text-anchor="middle" x="346" y="-112.8" font-family="Times,serif" font-size="14.00" fill="#ffffff">Impl: Unset</text>
<text text-anchor="middle" x="346" y="-97.8" font-family="Times,serif" font-size="14.00" fill="#ffffff">l_partkey = </text>
<text text-anchor="middle" x="346" y="-82.8" font-family="Times,serif" font-size="14.00" fill="#ffffff">Parameter[name=ps_partkey;id=0] </text>
</g>
<!-- 94335648092304&#45;&gt;94335648092880 -->
<g id="edge20" class="edge">
<title>94335648092304&#45;&gt;94335648092880</title>
<path fill="none" stroke="#ffffff" d="M346,-143.0905C346,-151.5263 346,-160.6882 346,-169.538"/>
<polygon fill="#ffffff" stroke="#ffffff" points="342.5001,-169.7212 346,-179.7212 349.5001,-169.7213 342.5001,-169.7212"/>
</g>
<!-- 94334829911296 -->
<g id="node22" class="node">
<title>94334829911296</title>
<polygon fill="none" stroke="#ffffff" points="381.5,-38 310.5,-38 310.5,0 381.5,0 381.5,-38"/>
<text text-anchor="middle" x="346" y="-22.8" font-family="Times,serif" font-size="14.00" fill="#ffffff">GetTable</text>
<text text-anchor="middle" x="346" y="-7.8" font-family="Times,serif" font-size="14.00" fill="#ffffff">(lineitem)</text>
</g>
<!-- 94334829911296&#45;&gt;94335648092304 -->
<g id="edge21" class="edge">
<title>94334829911296&#45;&gt;94335648092304</title>
<path fill="none" stroke="#ffffff" d="M346,-38.0867C346,-45.8926 346,-55.2767 346,-64.6248"/>
<polygon fill="#ffffff" stroke="#ffffff" points="342.5001,-64.6779 346,-74.678 349.5001,-64.678 342.5001,-64.6779"/>
</g>
<!-- 94334829910000 -->
<g id="node23" class="node">
<title>94334829910000</title>
<polygon fill="none" stroke="#ffffff" points="476,-1100 404,-1100 404,-1046 476,-1046 476,-1100"/>
<text text-anchor="middle" x="440" y="-1084.8" font-family="Times,serif" font-size="14.00" fill="#ffffff">Projection</text>
<text text-anchor="middle" x="440" y="-1053.8" font-family="Times,serif" font-size="14.00" fill="#ffffff">1 µs 0 ns</text>
</g>
<!-- 94334829910000&#45;&gt;94335649167200 -->
<g id="edge22" class="edge">
<title>94334829910000&#45;&gt;94335649167200</title>
<path fill="none" stroke="#ffffff" d="M433.8961,-1100.1748C430.4953,-1111.1444 425.4074,-1123.4408 418,-1133 415.064,-1136.7889 411.8211,-1140.4294 408.3647,-1143.9123"/>
<polygon fill="#ffffff" stroke="#ffffff" points="405.8877,-1141.437 400.9997,-1150.837 410.6827,-1146.5369 405.8877,-1141.437"/>
<text text-anchor="middle" x="497.5" y="-1121.8" font-family="Times,serif" font-size="14.00" fill="#ffffff">1 row(s)/1 chunk(s)/385B</text>
</g>
<!-- 94334802845968 -->
<g id="node24" class="node">
<title>94334802845968</title>
<polygon fill="none" stroke="#ffffff" points="511.5,-995 368.5,-995 368.5,-896 511.5,-896 511.5,-995"/>
<text text-anchor="middle" x="440" y="-979.8" font-family="Times,serif" font-size="14.00" fill="#ffffff">TableScan</text>
<text text-anchor="middle" x="440" y="-964.8" font-family="Times,serif" font-size="14.00" fill="#ffffff">Impl: LiteralTableScan</text>
<text text-anchor="middle" x="440" y="-949.8" font-family="Times,serif" font-size="14.00" fill="#ffffff">n_name = </text>
<text text-anchor="middle" x="440" y="-934.8" font-family="Times,serif" font-size="14.00" fill="#ffffff">&#39;CANADA&#39;</text>
<text text-anchor="middle" x="440" y="-903.8" font-family="Times,serif" font-size="14.00" fill="#ffffff">5 µs 0 ns </text>
</g>
<!-- 94334802845968&#45;&gt;94334829910000 -->
<g id="edge23" class="edge">
<title>94334802845968&#45;&gt;94334829910000</title>
<path fill="none" stroke="#ffffff" d="M440,-995.1599C440,-1008.598 440,-1022.9153 440,-1035.5584"/>
<polygon fill="#ffffff" stroke="#ffffff" points="436.5001,-1035.7287 440,-1045.7287 443.5001,-1035.7288 436.5001,-1035.7287"/>
<text text-anchor="middle" x="510.5" y="-1016.8" font-family="Times,serif" font-size="14.00" fill="#ffffff">1 row(s)/1 chunk(s)/533B</text>
</g>
<!-- 94334802571520 -->
<g id="node25" class="node">
<title>94334802571520</title>
<polygon fill="none" stroke="#ffffff" points="473.5,-845 406.5,-845 406.5,-776 473.5,-776 473.5,-845"/>
<text text-anchor="middle" x="440" y="-829.8" font-family="Times,serif" font-size="14.00" fill="#ffffff">GetTable</text>
<text text-anchor="middle" x="440" y="-814.8" font-family="Times,serif" font-size="14.00" fill="#ffffff">(nation)</text>
<text text-anchor="middle" x="440" y="-783.8" font-family="Times,serif" font-size="14.00" fill="#ffffff">0 ns</text>
</g>
<!-- 94334802571520&#45;&gt;94334802845968 -->
<g id="edge24" class="edge">
<title>94334802571520&#45;&gt;94334802845968</title>
<path fill="none" stroke="#ffffff" d="M440,-845.2659C440,-857.5301 440,-871.6967 440,-885.446"/>
<polygon fill="#ffffff" stroke="#ffffff" points="436.5001,-885.8405 440,-895.8405 443.5001,-885.8406 436.5001,-885.8405"/>
<text text-anchor="middle" x="524" y="-866.8" font-family="Times,serif" font-size="14.00" fill="#ffffff">25 row(s)/1 chunk(s)/2.869KB</text>
</g>
</g>
</svg>
