<?xml version="1.0" encoding="UTF-8" standalone="no"?>
<!DOCTYPE svg PUBLIC "-//W3C//DTD SVG 1.1//EN"
 "http://www.w3.org/Graphics/SVG/1.1/DTD/svg11.dtd">
<!-- Generated by graphviz version 2.40.1 (20161225.0304)
 -->
<!-- Title: G Pages: 1 -->
<svg width="375pt" height="962pt"
 viewBox="0.00 0.00 375.00 962.00" xmlns="http://www.w3.org/2000/svg" xmlns:xlink="http://www.w3.org/1999/xlink">
<g id="graph0" class="graph" transform="scale(1 1) rotate(0) translate(4 958)">
<title>G</title>
<polygon fill="#000000" stroke="transparent" points="-4,4 -4,-958 371,-958 371,4 -4,4"/>
<!-- 94335636255264 -->
<g id="node1" class="node">
<title>94335636255264</title>
<polygon fill="none" stroke="#ffffff" points="202.5,-954 81.5,-954 81.5,-900 202.5,-900 202.5,-954"/>
<text text-anchor="middle" x="142" y="-938.8" font-family="Times,serif" font-size="14.00" fill="#ffffff">Alias [REVENUE]</text>
<text text-anchor="middle" x="142" y="-907.8" font-family="Times,serif" font-size="14.00" fill="#ffffff">1 µs 0 ns</text>
</g>
<!-- 94334562256672 -->
<g id="node2" class="node">
<title>94334562256672</title>
<polygon fill="none" stroke="#ffffff" stroke-width="2" points="284,-849 0,-849 0,-780 284,-780 284,-849"/>
<text text-anchor="middle" x="142" y="-833.8" font-family="Times,serif" font-size="14.00" fill="#ffffff">[Aggregate] GroupBy ColumnIDs: &#160;Aggregates: </text>
<text text-anchor="middle" x="142" y="-818.8" font-family="Times,serif" font-size="14.00" fill="#ffffff">SUM(Column #0)</text>
<text text-anchor="middle" x="142" y="-787.8" font-family="Times,serif" font-size="14.00" fill="#ffffff">1 ms 164 µs </text>
</g>
<!-- 94334562256672&#45;&gt;94335636255264 -->
<g id="edge1" class="edge">
<title>94334562256672&#45;&gt;94335636255264</title>
<path fill="none" stroke="#ffffff" d="M142,-849.1717C142,-862.0092 142,-876.6141 142,-889.6774"/>
<polygon fill="#ffffff" stroke="#ffffff" points="138.5001,-889.7601 142,-899.7602 145.5001,-889.7602 138.5001,-889.7601"/>
<text text-anchor="middle" x="212.5" y="-870.8" font-family="Times,serif" font-size="14.00" fill="#ffffff">1 row(s)/1 chunk(s)/450B</text>
</g>
<!-- 94334702209424 -->
<g id="node3" class="node">
<title>94334702209424</title>
<polygon fill="none" stroke="#ffffff" stroke-width="2" points="183.5,-729 100.5,-729 100.5,-675 183.5,-675 183.5,-729"/>
<text text-anchor="middle" x="142" y="-713.8" font-family="Times,serif" font-size="14.00" fill="#ffffff">Projection</text>
<text text-anchor="middle" x="142" y="-682.8" font-family="Times,serif" font-size="14.00" fill="#ffffff">4 ms 160 µs</text>
</g>
<!-- 94334702209424&#45;&gt;94334562256672 -->
<g id="edge2" class="edge">
<title>94334702209424&#45;&gt;94334562256672</title>
<path fill="none" stroke="#ffffff" stroke-width="3" d="M142,-729.2331C142,-741.3589 142,-755.9621 142,-769.6298"/>
<polygon fill="#ffffff" stroke="#ffffff" stroke-width="3" points="138.5001,-769.8427 142,-779.8427 145.5001,-769.8428 138.5001,-769.8427"/>
<text text-anchor="middle" x="249.5" y="-750.8" font-family="Times,serif" font-size="14.00" fill="#ffffff">114160 row(s)/61 chunk(s)/474.836KB</text>
</g>
<!-- 94334702209264 -->
<g id="node4" class="node">
<title>94334702209264</title>
<polygon fill="none" stroke="#ffffff" points="178,-624 106,-624 106,-570 178,-570 178,-624"/>
<text text-anchor="middle" x="142" y="-608.8" font-family="Times,serif" font-size="14.00" fill="#ffffff">Projection</text>
<text text-anchor="middle" x="142" y="-577.8" font-family="Times,serif" font-size="14.00" fill="#ffffff">31 µs 0 ns</text>
</g>
<!-- 94334702209264&#45;&gt;94334702209424 -->
<g id="edge3" class="edge">
<title>94334702209264&#45;&gt;94334702209424</title>
<path fill="none" stroke="#ffffff" stroke-width="3" d="M142,-624.0401C142,-636.3143 142,-651.0382 142,-664.3683"/>
<polygon fill="#ffffff" stroke="#ffffff" stroke-width="3" points="138.5001,-664.6866 142,-674.6866 145.5001,-664.6866 138.5001,-664.6866"/>
<text text-anchor="middle" x="244.5" y="-645.8" font-family="Times,serif" font-size="14.00" fill="#ffffff">114160 row(s)/61 chunk(s)/3.674MB</text>
</g>
<!-- 94334562220912 -->
<g id="node5" class="node">
<title>94334562220912</title>
<polygon fill="none" stroke="#ffffff" stroke-width="2" points="236,-519 48,-519 48,-420 236,-420 236,-519"/>
<text text-anchor="middle" x="142" y="-503.8" font-family="Times,serif" font-size="14.00" fill="#ffffff">TableScan</text>
<text text-anchor="middle" x="142" y="-488.8" font-family="Times,serif" font-size="14.00" fill="#ffffff">Impl: BetweenScan</text>
<text text-anchor="middle" x="142" y="-473.8" font-family="Times,serif" font-size="14.00" fill="#ffffff">l_shipdate BETWEEN </text>
<text text-anchor="middle" x="142" y="-458.8" font-family="Times,serif" font-size="14.00" fill="#ffffff">&#39;1994&#45;01&#45;01&#39; AND &#39;1995&#45;01&#45;00&#39;</text>
<text text-anchor="middle" x="142" y="-427.8" font-family="Times,serif" font-size="14.00" fill="#ffffff">2 ms 628 µs </text>
</g>
<!-- 94334562220912&#45;&gt;94334702209264 -->
<g id="edge4" class="edge">
<title>94334562220912&#45;&gt;94334702209264</title>
<path fill="none" stroke="#ffffff" stroke-width="3" d="M142,-519.1599C142,-532.598 142,-546.9153 142,-559.5584"/>
<polygon fill="#ffffff" stroke="#ffffff" stroke-width="3" points="138.5001,-559.7287 142,-569.7287 145.5001,-559.7288 138.5001,-559.7287"/>
<text text-anchor="middle" x="247.5" y="-540.8" font-family="Times,serif" font-size="14.00" fill="#ffffff">114160 row(s)/61 chunk(s)/14.675MB</text>
</g>
<!-- 94334562252128 -->
<g id="node6" class="node">
<title>94334562252128</title>
<polygon fill="none" stroke="#ffffff" stroke-width="3" points="213.5,-369 70.5,-369 70.5,-270 213.5,-270 213.5,-369"/>
<text text-anchor="middle" x="142" y="-353.8" font-family="Times,serif" font-size="14.00" fill="#ffffff">TableScan</text>
<text text-anchor="middle" x="142" y="-338.8" font-family="Times,serif" font-size="14.00" fill="#ffffff">Impl: LiteralTableScan</text>
<text text-anchor="middle" x="142" y="-323.8" font-family="Times,serif" font-size="14.00" fill="#ffffff">l_quantity &lt; </text>
<text text-anchor="middle" x="142" y="-308.8" font-family="Times,serif" font-size="14.00" fill="#ffffff">24</text>
<text text-anchor="middle" x="142" y="-277.8" font-family="Times,serif" font-size="14.00" fill="#ffffff">10 ms 485 µs </text>
</g>
<!-- 94334562252128&#45;&gt;94334562220912 -->
<g id="edge5" class="edge">
<title>94334562252128&#45;&gt;94334562220912</title>
<path fill="none" stroke="#ffffff" stroke-width="3" d="M142,-369.0313C142,-382.0196 142,-396.1643 142,-409.63"/>
<polygon fill="#ffffff" stroke="#ffffff" stroke-width="3" points="138.5001,-409.7646 142,-419.7646 145.5001,-409.7646 138.5001,-409.7646"/>
<text text-anchor="middle" x="247.5" y="-390.8" font-family="Times,serif" font-size="14.00" fill="#ffffff">752249 row(s)/61 chunk(s)/96.350MB</text>
</g>
<!-- 94335126824576 -->
<g id="node7" class="node">
<title>94335126824576</title>
<polygon fill="none" stroke="#ffffff" stroke-width="3" points="215,-219 69,-219 69,-120 215,-120 215,-219"/>
<text text-anchor="middle" x="142" y="-203.8" font-family="Times,serif" font-size="14.00" fill="#ffffff">TableScan</text>
<text text-anchor="middle" x="142" y="-188.8" font-family="Times,serif" font-size="14.00" fill="#ffffff">Impl: BetweenScan</text>
<text text-anchor="middle" x="142" y="-173.8" font-family="Times,serif" font-size="14.00" fill="#ffffff">l_discount BETWEEN </text>
<text text-anchor="middle" x="142" y="-158.8" font-family="Times,serif" font-size="14.00" fill="#ffffff">0.05 AND 0.07001</text>
<text text-anchor="middle" x="142" y="-127.8" font-family="Times,serif" font-size="14.00" fill="#ffffff">19 ms 173 µs </text>
</g>
<!-- 94335126824576&#45;&gt;94334562252128 -->
<g id="edge6" class="edge">
<title>94335126824576&#45;&gt;94334562252128</title>
<path fill="none" stroke="#ffffff" stroke-width="4" d="M142,-219.0313C142,-232.0196 142,-246.1643 142,-259.63"/>
<polygon fill="#ffffff" stroke="#ffffff" stroke-width="4" points="138.5001,-259.7646 142,-269.7646 145.5001,-259.7646 138.5001,-259.7646"/>
<text text-anchor="middle" x="254.5" y="-240.8" font-family="Times,serif" font-size="14.00" fill="#ffffff">1637557 row(s)/61 chunk(s)/209.670MB</text>
</g>
<!-- 94335636255456 -->
<g id="node8" class="node">
<title>94335636255456</title>
<polygon fill="none" stroke="#ffffff" points="177.5,-69 106.5,-69 106.5,0 177.5,0 177.5,-69"/>
<text text-anchor="middle" x="142" y="-53.8" font-family="Times,serif" font-size="14.00" fill="#ffffff">GetTable</text>
<text text-anchor="middle" x="142" y="-38.8" font-family="Times,serif" font-size="14.00" fill="#ffffff">(lineitem)</text>
<text text-anchor="middle" x="142" y="-7.8" font-family="Times,serif" font-size="14.00" fill="#ffffff">0 ns</text>
</g>
<!-- 94335636255456&#45;&gt;94335126824576 -->
<g id="edge7" class="edge">
<title>94335636255456&#45;&gt;94335126824576</title>
<path fill="none" stroke="#ffffff" stroke-width="4" d="M142,-69.2659C142,-81.5301 142,-95.6967 142,-109.446"/>
<polygon fill="#ffffff" stroke="#ffffff" stroke-width="4" points="138.5001,-109.8405 142,-119.8405 145.5001,-109.8406 138.5001,-109.8405"/>
<text text-anchor="middle" x="254.5" y="-90.8" font-family="Times,serif" font-size="14.00" fill="#ffffff">6001215 row(s)/61 chunk(s)/500.660MB</text>
</g>
</g>
</svg>
