<?xml version="1.0" encoding="UTF-8" standalone="no"?>
<!DOCTYPE svg PUBLIC "-//W3C//DTD SVG 1.1//EN"
 "http://www.w3.org/Graphics/SVG/1.1/DTD/svg11.dtd">
<!-- Generated by graphviz version 2.40.1 (20161225.0304)
 -->
<!-- Title: G Pages: 1 -->
<svg width="569pt" height="1144pt"
 viewBox="0.00 0.00 569.00 1144.00" xmlns="http://www.w3.org/2000/svg" xmlns:xlink="http://www.w3.org/1999/xlink">
<g id="graph0" class="graph" transform="scale(1 1) rotate(0) translate(4 1140)">
<title>G</title>
<polygon fill="#000000" stroke="transparent" points="-4,4 -4,-1140 565,-1140 565,4 -4,4"/>
<!-- 94378095754320 -->
<g id="node1" class="node">
<title>94378095754320</title>
<polygon fill="none" stroke="#ffffff" points="413.5,-1136 80.5,-1136 80.5,-1053 413.5,-1053 413.5,-1136"/>
<text text-anchor="middle" x="247" y="-1120.8" font-family="Times,serif" font-size="14.00" fill="#ffffff">Alias [l_shipmode, SUM(CASE WHEN o_orderpriority </text>
<text text-anchor="middle" x="247" y="-1105.8" font-family="Times,serif" font-size="14.00" fill="#ffffff">= &#39;1&#45;URGENT&#39; OR o_orderpriority = &#39;2&#45;HIGH&#39; THEN 1 </text>
<text text-anchor="middle" x="247" y="-1090.8" font-family="Times,serif" font-size="14.00" fill="#ffffff">ELSE 0 END) AS high_line_count, SUM(CASE WHEN </text>
<text text-anchor="middle" x="247" y="-1075.8" font-family="Times,serif" font-size="14.00" fill="#ffffff">o_orderpriority != &#39;1&#45;URGENT&#39; AND o_orderpriority </text>
<text text-anchor="middle" x="247" y="-1060.8" font-family="Times,serif" font-size="14.00" fill="#ffffff">!= &#39;2&#45;HIGH&#39; THEN 1 ELSE 0 END) AS low_line_count] </text>
</g>
<!-- 94378084119504 -->
<g id="node2" class="node">
<title>94378084119504</title>
<polygon fill="none" stroke="#ffffff" points="340,-1002 154,-1002 154,-966 340,-966 340,-1002"/>
<text text-anchor="middle" x="247" y="-980.3" font-family="Times,serif" font-size="14.00" fill="#ffffff">[Sort] l_shipmode (Ascending)</text>
</g>
<!-- 94378084119504&#45;&gt;94378095754320 -->
<g id="edge1" class="edge">
<title>94378084119504&#45;&gt;94378095754320</title>
<path fill="none" stroke="#ffffff" stroke-width="4" d="M247,-1002.2468C247,-1013.296 247,-1027.9992 247,-1042.4143"/>
<polygon fill="#ffffff" stroke="#ffffff" stroke-width="4" points="243.5001,-1042.8034 247,-1052.8034 250.5001,-1042.8035 243.5001,-1042.8034"/>
<text text-anchor="middle" x="339" y="-1023.8" font-family="Times,serif" font-size="14.00" fill="#ffffff"> 6001215.0 row(s) | 100.0% estd.</text>
</g>
<!-- 94378016569728 -->
<g id="node3" class="node">
<title>94378016569728</title>
<polygon fill="none" stroke="#ffffff" points="419,-915 75,-915 75,-832 419,-832 419,-915"/>
<text text-anchor="middle" x="247" y="-899.8" font-family="Times,serif" font-size="14.00" fill="#ffffff">[Aggregate] GroupBy: [l_shipmode] Aggregates: </text>
<text text-anchor="middle" x="247" y="-884.8" font-family="Times,serif" font-size="14.00" fill="#ffffff">[SUM(CASE WHEN o_orderpriority = &#39;1&#45;URGENT&#39; OR </text>
<text text-anchor="middle" x="247" y="-869.8" font-family="Times,serif" font-size="14.00" fill="#ffffff">o_orderpriority = &#39;2&#45;HIGH&#39; THEN 1 ELSE 0 END), </text>
<text text-anchor="middle" x="247" y="-854.8" font-family="Times,serif" font-size="14.00" fill="#ffffff">SUM(CASE WHEN o_orderpriority != &#39;1&#45;URGENT&#39; AND </text>
<text text-anchor="middle" x="247" y="-839.8" font-family="Times,serif" font-size="14.00" fill="#ffffff">o_orderpriority != &#39;2&#45;HIGH&#39; THEN 1 ELSE 0 END)] </text>
</g>
<!-- 94378016569728&#45;&gt;94378084119504 -->
<g id="edge2" class="edge">
<title>94378016569728&#45;&gt;94378084119504</title>
<path fill="none" stroke="#ffffff" stroke-width="4" d="M247,-915.2753C247,-928.7945 247,-943.46 247,-955.7578"/>
<polygon fill="#ffffff" stroke="#ffffff" stroke-width="4" points="243.5001,-955.8672 247,-965.8673 250.5001,-955.8673 243.5001,-955.8672"/>
<text text-anchor="middle" x="339" y="-936.8" font-family="Times,serif" font-size="14.00" fill="#ffffff"> 6001215.0 row(s) | 100.0% estd.</text>
</g>
<!-- 94378857577024 -->
<g id="node4" class="node">
<title>94378857577024</title>
<polygon fill="none" stroke="#ffffff" points="412,-781 82,-781 82,-698 412,-698 412,-781"/>
<text text-anchor="middle" x="247" y="-765.8" font-family="Times,serif" font-size="14.00" fill="#ffffff">[Projection] CASE WHEN o_orderpriority = </text>
<text text-anchor="middle" x="247" y="-750.8" font-family="Times,serif" font-size="14.00" fill="#ffffff">&#39;1&#45;URGENT&#39; OR o_orderpriority = &#39;2&#45;HIGH&#39; THEN 1 </text>
<text text-anchor="middle" x="247" y="-735.8" font-family="Times,serif" font-size="14.00" fill="#ffffff">ELSE 0 END, CASE WHEN o_orderpriority != </text>
<text text-anchor="middle" x="247" y="-720.8" font-family="Times,serif" font-size="14.00" fill="#ffffff">&#39;1&#45;URGENT&#39; AND o_orderpriority != &#39;2&#45;HIGH&#39; THEN 1 </text>
<text text-anchor="middle" x="247" y="-705.8" font-family="Times,serif" font-size="14.00" fill="#ffffff">ELSE 0 END, l_shipmode </text>
</g>
<!-- 94378857577024&#45;&gt;94378016569728 -->
<g id="edge3" class="edge">
<title>94378857577024&#45;&gt;94378016569728</title>
<path fill="none" stroke="#ffffff" stroke-width="4" d="M247,-781.1639C247,-794.0206 247,-808.337 247,-821.7855"/>
<polygon fill="#ffffff" stroke="#ffffff" stroke-width="4" points="243.5001,-821.8618 247,-831.8619 250.5001,-821.8619 243.5001,-821.8618"/>
<text text-anchor="middle" x="339" y="-802.8" font-family="Times,serif" font-size="14.00" fill="#ffffff"> 6001215.0 row(s) | 100.0% estd.</text>
</g>
<!-- 94377997034752 -->
<g id="node5" class="node">
<title>94377997034752</title>
<polygon fill="none" stroke="#ffffff" points="377,-647 117,-647 117,-611 377,-611 377,-647"/>
<text text-anchor="middle" x="247" y="-625.3" font-family="Times,serif" font-size="14.00" fill="#ffffff">[Join] Mode: Inner o_orderkey = l_orderkey</text>
</g>
<!-- 94377997034752&#45;&gt;94378857577024 -->
<g id="edge4" class="edge">
<title>94377997034752&#45;&gt;94378857577024</title>
<path fill="none" stroke="#ffffff" stroke-width="4" d="M247,-647.2468C247,-658.296 247,-672.9992 247,-687.4143"/>
<polygon fill="#ffffff" stroke="#ffffff" stroke-width="4" points="243.5001,-687.8034 247,-697.8034 250.5001,-687.8035 243.5001,-687.8034"/>
<text text-anchor="middle" x="332" y="-668.8" font-family="Times,serif" font-size="14.00" fill="#ffffff"> 6001215.0 row(s) | 0.0% estd.</text>
</g>
<!-- 94378862491552 -->
<g id="node6" class="node">
<title>94378862491552</title>
<polygon fill="none" stroke="#ffffff" points="236,-559 0,-559 0,-523 236,-523 236,-559"/>
<text text-anchor="middle" x="118" y="-537.3" font-family="Times,serif" font-size="14.00" fill="#ffffff">[Projection] o_orderkey, o_orderpriority</text>
</g>
<!-- 94378862491552&#45;&gt;94377997034752 -->
<g id="edge5" class="edge">
<title>94378862491552&#45;&gt;94377997034752</title>
<path fill="none" stroke="#ffffff" stroke-width="4" d="M128.6369,-559.3797C135.7683,-570.3635 146.0289,-583.9045 158,-593 164.7726,-598.1457 172.3816,-602.6705 180.2245,-606.6174"/>
<polygon fill="#ffffff" stroke="#ffffff" stroke-width="4" points="178.9646,-609.8927 189.5027,-610.9878 181.9476,-603.5601 178.9646,-609.8927"/>
<text text-anchor="middle" x="250" y="-581.8" font-family="Times,serif" font-size="14.00" fill="#ffffff"> 1500000.0 row(s) | 100.0% estd.</text>
</g>
<!-- 94378013487504 -->
<g id="node7" class="node">
<title>94378013487504</title>
<polygon fill="none" stroke="#ffffff" points="205,-471 31,-471 31,-435 205,-435 205,-471"/>
<text text-anchor="middle" x="118" y="-449.3" font-family="Times,serif" font-size="14.00" fill="#ffffff">[StoredTable] Name: &#39;orders&#39;</text>
</g>
<!-- 94378013487504&#45;&gt;94378862491552 -->
<g id="edge6" class="edge">
<title>94378013487504&#45;&gt;94378862491552</title>
<path fill="none" stroke="#ffffff" stroke-width="4" d="M118,-471.2337C118,-483.1508 118,-498.9616 118,-512.5183"/>
<polygon fill="#ffffff" stroke="#ffffff" stroke-width="4" points="114.5001,-512.7897 118,-522.7897 121.5001,-512.7897 114.5001,-512.7897"/>
<text text-anchor="middle" x="210" y="-492.8" font-family="Times,serif" font-size="14.00" fill="#ffffff"> 1500000.0 row(s) | 100.0% estd.</text>
</g>
<!-- 94378016156080 -->
<g id="node8" class="node">
<title>94378016156080</title>
<polygon fill="none" stroke="#ffffff" points="499.5,-560 254.5,-560 254.5,-522 499.5,-522 499.5,-560"/>
<text text-anchor="middle" x="377" y="-544.8" font-family="Times,serif" font-size="14.00" fill="#ffffff">[Projection] l_orderkey, l_shipdate, </text>
<text text-anchor="middle" x="377" y="-529.8" font-family="Times,serif" font-size="14.00" fill="#ffffff">l_commitdate, l_receiptdate, l_shipmode </text>
</g>
<!-- 94378016156080&#45;&gt;94377997034752 -->
<g id="edge7" class="edge">
<title>94378016156080&#45;&gt;94377997034752</title>
<path fill="none" stroke="#ffffff" stroke-width="4" d="M367.9669,-560.0038C361.9384,-570.9396 353.086,-584.2117 342,-593 335.4435,-598.1976 328.0548,-602.7051 320.3675,-606.5998"/>
<polygon fill="#ffffff" stroke="#ffffff" stroke-width="4" points="318.7967,-603.4707 311.2381,-610.8949 321.7767,-609.8048 318.7967,-603.4707"/>
<text text-anchor="middle" x="448" y="-581.8" font-family="Times,serif" font-size="14.00" fill="#ffffff"> 6001215.0 row(s) | 100.0% estd.</text>
</g>
<!-- 94378862490992 -->
<g id="node9" class="node">
<title>94378862490992</title>
<polygon fill="none" stroke="#ffffff" points="509,-471 245,-471 245,-435 509,-435 509,-471"/>
<text text-anchor="middle" x="377" y="-449.3" font-family="Times,serif" font-size="14.00" fill="#ffffff">[Predicate] (l_shipmode) IN (&#39;MAIL&#39;, &#39;SHIP&#39;)</text>
</g>
<!-- 94378862490992&#45;&gt;94378016156080 -->
<g id="edge8" class="edge">
<title>94378862490992&#45;&gt;94378016156080</title>
<path fill="none" stroke="#ffffff" stroke-width="4" d="M377,-471.2337C377,-482.9125 377,-498.3308 377,-511.7022"/>
<polygon fill="#ffffff" stroke="#ffffff" stroke-width="4" points="373.5001,-511.8765 377,-521.8765 380.5001,-511.8765 373.5001,-511.8765"/>
<text text-anchor="middle" x="469" y="-492.8" font-family="Times,serif" font-size="14.00" fill="#ffffff"> 6001215.0 row(s) | 100.0% estd.</text>
</g>
<!-- 94378063080576 -->
<g id="node10" class="node">
<title>94378063080576</title>
<polygon fill="none" stroke="#ffffff" points="490.5,-384 263.5,-384 263.5,-348 490.5,-348 490.5,-384"/>
<text text-anchor="middle" x="377" y="-362.3" font-family="Times,serif" font-size="14.00" fill="#ffffff">[Predicate] l_shipdate &lt; l_commitdate</text>
</g>
<!-- 94378063080576&#45;&gt;94378862490992 -->
<g id="edge9" class="edge">
<title>94378063080576&#45;&gt;94378862490992</title>
<path fill="none" stroke="#ffffff" stroke-width="4" d="M377,-384.0265C377,-395.8082 377,-411.4393 377,-424.8419"/>
<polygon fill="#ffffff" stroke="#ffffff" stroke-width="4" points="373.5001,-424.9966 377,-434.9966 380.5001,-424.9967 373.5001,-424.9966"/>
<text text-anchor="middle" x="469" y="-405.8" font-family="Times,serif" font-size="14.00" fill="#ffffff"> 6001215.0 row(s) | 100.0% estd.</text>
</g>
<!-- 94377838471584 -->
<g id="node11" class="node">
<title>94377838471584</title>
<polygon fill="none" stroke="#ffffff" points="497.5,-297 256.5,-297 256.5,-261 497.5,-261 497.5,-297"/>
<text text-anchor="middle" x="377" y="-275.3" font-family="Times,serif" font-size="14.00" fill="#ffffff">[Predicate] l_commitdate &lt; l_receiptdate</text>
</g>
<!-- 94377838471584&#45;&gt;94378063080576 -->
<g id="edge10" class="edge">
<title>94377838471584&#45;&gt;94378063080576</title>
<path fill="none" stroke="#ffffff" stroke-width="4" d="M377,-297.0265C377,-308.8082 377,-324.4393 377,-337.8419"/>
<polygon fill="#ffffff" stroke="#ffffff" stroke-width="4" points="373.5001,-337.9966 377,-347.9966 380.5001,-337.9967 373.5001,-337.9966"/>
<text text-anchor="middle" x="469" y="-318.8" font-family="Times,serif" font-size="14.00" fill="#ffffff"> 6001215.0 row(s) | 100.0% estd.</text>
</g>
<!-- 94378065487072 -->
<g id="node12" class="node">
<title>94378065487072</title>
<polygon fill="none" stroke="#ffffff" points="493.5,-210 260.5,-210 260.5,-174 493.5,-174 493.5,-210"/>
<text text-anchor="middle" x="377" y="-188.3" font-family="Times,serif" font-size="14.00" fill="#ffffff">[Predicate] l_receiptdate &lt; &#39;1995&#45;01&#45;01&#39;</text>
</g>
<!-- 94378065487072&#45;&gt;94377838471584 -->
<g id="edge11" class="edge">
<title>94378065487072&#45;&gt;94377838471584</title>
<path fill="none" stroke="#ffffff" stroke-width="4" d="M377,-210.0265C377,-221.8082 377,-237.4393 377,-250.8419"/>
<polygon fill="#ffffff" stroke="#ffffff" stroke-width="4" points="373.5001,-250.9966 377,-260.9966 380.5001,-250.9967 373.5001,-250.9966"/>
<text text-anchor="middle" x="469" y="-231.8" font-family="Times,serif" font-size="14.00" fill="#ffffff"> 6001215.0 row(s) | 100.0% estd.</text>
</g>
<!-- 94378071716896 -->
<g id="node13" class="node">
<title>94378071716896</title>
<polygon fill="none" stroke="#ffffff" points="497.5,-123 256.5,-123 256.5,-87 497.5,-87 497.5,-123"/>
<text text-anchor="middle" x="377" y="-101.3" font-family="Times,serif" font-size="14.00" fill="#ffffff">[Predicate] l_receiptdate &gt;= &#39;1994&#45;01&#45;01&#39;</text>
</g>
<!-- 94378071716896&#45;&gt;94378065487072 -->
<g id="edge12" class="edge">
<title>94378071716896&#45;&gt;94378065487072</title>
<path fill="none" stroke="#ffffff" stroke-width="4" d="M377,-123.0265C377,-134.8082 377,-150.4393 377,-163.8419"/>
<polygon fill="#ffffff" stroke="#ffffff" stroke-width="4" points="373.5001,-163.9966 377,-173.9966 380.5001,-163.9967 373.5001,-163.9966"/>
<text text-anchor="middle" x="469" y="-144.8" font-family="Times,serif" font-size="14.00" fill="#ffffff"> 6001215.0 row(s) | 100.0% estd.</text>
</g>
<!-- 94378864636144 -->
<g id="node14" class="node">
<title>94378864636144</title>
<polygon fill="none" stroke="#ffffff" points="469.5,-36 284.5,-36 284.5,0 469.5,0 469.5,-36"/>
<text text-anchor="middle" x="377" y="-14.3" font-family="Times,serif" font-size="14.00" fill="#ffffff">[StoredTable] Name: &#39;lineitem&#39;</text>
</g>
<!-- 94378864636144&#45;&gt;94378071716896 -->
<g id="edge13" class="edge">
<title>94378864636144&#45;&gt;94378071716896</title>
<path fill="none" stroke="#ffffff" stroke-width="4" d="M377,-36.0265C377,-47.8082 377,-63.4393 377,-76.8419"/>
<polygon fill="#ffffff" stroke="#ffffff" stroke-width="4" points="373.5001,-76.9966 377,-86.9966 380.5001,-76.9967 373.5001,-76.9966"/>
<text text-anchor="middle" x="469" y="-57.8" font-family="Times,serif" font-size="14.00" fill="#ffffff"> 6001215.0 row(s) | 100.0% estd.</text>
</g>
</g>
</svg>
