<?xml version="1.0" encoding="UTF-8" standalone="no"?>
<!DOCTYPE svg PUBLIC "-//W3C//DTD SVG 1.1//EN"
 "http://www.w3.org/Graphics/SVG/1.1/DTD/svg11.dtd">
<!-- Generated by graphviz version 2.40.1 (20161225.0304)
 -->
<!-- Title: G Pages: 1 -->
<svg width="792pt" height="1291pt"
 viewBox="0.00 0.00 791.50 1291.00" xmlns="http://www.w3.org/2000/svg" xmlns:xlink="http://www.w3.org/1999/xlink">
<g id="graph0" class="graph" transform="scale(1 1) rotate(0) translate(4 1287)">
<title>G</title>
<polygon fill="#000000" stroke="transparent" points="-4,4 -4,-1287 787.5,-1287 787.5,4 -4,4"/>
<!-- 94379035879456 -->
<g id="node1" class="node">
<title>94379035879456</title>
<polygon fill="none" stroke="#ffffff" points="599,-1283 412,-1283 412,-1247 599,-1247 599,-1283"/>
<text text-anchor="middle" x="505.5" y="-1261.3" font-family="Times,serif" font-size="14.00" fill="#ffffff">[Projection] s_name, s_address</text>
</g>
<!-- 94379030191152 -->
<g id="node2" class="node">
<title>94379030191152</title>
<polygon fill="none" stroke="#ffffff" points="587.5,-1196 423.5,-1196 423.5,-1160 587.5,-1160 587.5,-1196"/>
<text text-anchor="middle" x="505.5" y="-1174.3" font-family="Times,serif" font-size="14.00" fill="#ffffff">[Sort] s_name (Ascending)</text>
</g>
<!-- 94379030191152&#45;&gt;94379035879456 -->
<g id="edge1" class="edge">
<title>94379030191152&#45;&gt;94379035879456</title>
<path fill="none" stroke="#ffffff" stroke-width="2" d="M505.5,-1196.0265C505.5,-1207.8082 505.5,-1223.4393 505.5,-1236.8419"/>
<polygon fill="#ffffff" stroke="#ffffff" stroke-width="2" points="502.0001,-1236.9966 505.5,-1246.9966 509.0001,-1236.9967 502.0001,-1236.9966"/>
<text text-anchor="middle" x="584" y="-1217.8" font-family="Times,serif" font-size="14.00" fill="#ffffff"> 400.0 row(s) | 100.0% estd.</text>
</g>
<!-- 94379016776912 -->
<g id="node3" class="node">
<title>94379016776912</title>
<polygon fill="none" stroke="#ffffff" points="641.5,-1109 369.5,-1109 369.5,-1073 641.5,-1073 641.5,-1109"/>
<text text-anchor="middle" x="505.5" y="-1087.3" font-family="Times,serif" font-size="14.00" fill="#ffffff">[Join] Mode: Inner s_nationkey = n_nationkey</text>
</g>
<!-- 94379016776912&#45;&gt;94379030191152 -->
<g id="edge2" class="edge">
<title>94379016776912&#45;&gt;94379030191152</title>
<path fill="none" stroke="#ffffff" stroke-width="2" d="M505.5,-1109.0265C505.5,-1120.8082 505.5,-1136.4393 505.5,-1149.8419"/>
<polygon fill="#ffffff" stroke="#ffffff" stroke-width="2" points="502.0001,-1149.9966 505.5,-1159.9966 509.0001,-1149.9967 502.0001,-1149.9966"/>
<text text-anchor="middle" x="577" y="-1130.8" font-family="Times,serif" font-size="14.00" fill="#ffffff"> 400.0 row(s) | 4.0% estd.</text>
</g>
<!-- 94379039750544 -->
<g id="node4" class="node">
<title>94379039750544</title>
<polygon fill="none" stroke="#ffffff" points="511,-1022 252,-1022 252,-984 511,-984 511,-1022"/>
<text text-anchor="middle" x="381.5" y="-1006.8" font-family="Times,serif" font-size="14.00" fill="#ffffff">[Projection] s_suppkey, s_name, s_address, </text>
<text text-anchor="middle" x="381.5" y="-991.8" font-family="Times,serif" font-size="14.00" fill="#ffffff">s_nationkey </text>
</g>
<!-- 94379039750544&#45;&gt;94379016776912 -->
<g id="edge3" class="edge">
<title>94379039750544&#45;&gt;94379016776912</title>
<path fill="none" stroke="#ffffff" stroke-width="2" d="M394.0407,-1022.2027C401.8043,-1032.9369 412.5543,-1045.9369 424.5,-1055 430.9651,-1059.905 438.2038,-1064.3168 445.623,-1068.2305"/>
<polygon fill="#ffffff" stroke="#ffffff" stroke-width="2" points="444.5591,-1071.6098 455.0725,-1072.921 447.6715,-1065.3398 444.5591,-1071.6098"/>
<text text-anchor="middle" x="509.5" y="-1043.8" font-family="Times,serif" font-size="14.00" fill="#ffffff"> 10000.0 row(s) | 100.0% estd.</text>
</g>
<!-- 94378962038992 -->
<g id="node5" class="node">
<title>94378962038992</title>
<polygon fill="none" stroke="#ffffff" points="514.5,-933 230.5,-933 230.5,-895 514.5,-895 514.5,-933"/>
<text text-anchor="middle" x="372.5" y="-917.8" font-family="Times,serif" font-size="14.00" fill="#ffffff">[Predicate] (s_suppkey) IN SUBSELECT (LQP, </text>
<text text-anchor="middle" x="372.5" y="-902.8" font-family="Times,serif" font-size="14.00" fill="#ffffff">0x55d654db7080) </text>
</g>
<!-- 94378962038992&#45;&gt;94379039750544 -->
<g id="edge4" class="edge">
<title>94378962038992&#45;&gt;94379039750544</title>
<path fill="none" stroke="#ffffff" stroke-width="2" d="M374.4529,-933.3117C375.644,-945.091 377.1902,-960.3813 378.5307,-973.6372"/>
<polygon fill="#ffffff" stroke="#ffffff" stroke-width="2" points="375.0625,-974.1289 379.5509,-983.726 382.027,-973.4246 375.0625,-974.1289"/>
<text text-anchor="middle" x="463.5" y="-954.8" font-family="Times,serif" font-size="14.00" fill="#ffffff"> 10000.0 row(s) | 100.0% estd.</text>
</g>
<!-- 94378010105936 -->
<g id="node6" class="node">
<title>94378010105936</title>
<polygon fill="none" stroke="#ffffff" points="312.5,-844 128.5,-844 128.5,-808 312.5,-808 312.5,-844"/>
<text text-anchor="middle" x="220.5" y="-822.3" font-family="Times,serif" font-size="14.00" fill="#ffffff">[StoredTable] Name: &#39;supplier&#39;</text>
</g>
<!-- 94378010105936&#45;&gt;94378962038992 -->
<g id="edge5" class="edge">
<title>94378010105936&#45;&gt;94378962038992</title>
<path fill="none" stroke="#ffffff" stroke-width="2" d="M213.8431,-844.3251C211.241,-854.9395 210.3558,-867.9497 217.5,-877 221.9636,-882.6545 231.0256,-887.5396 242.6304,-891.7343"/>
<polygon fill="#ffffff" stroke="#ffffff" stroke-width="2" points="241.8503,-895.1618 252.4431,-894.9519 244.0314,-888.5103 241.8503,-895.1618"/>
<text text-anchor="middle" x="302.5" y="-865.8" font-family="Times,serif" font-size="14.00" fill="#ffffff"> 10000.0 row(s) | 100.0% estd.</text>
</g>
<!-- 94379035029632 -->
<g id="node7" class="node">
<title>94379035029632</title>
<polygon fill="none" stroke="#ffffff" points="488,-844 339,-844 339,-808 488,-808 488,-844"/>
<text text-anchor="middle" x="413.5" y="-822.3" font-family="Times,serif" font-size="14.00" fill="#ffffff">[Projection] ps_suppkey</text>
</g>
<!-- 94379035029632&#45;&gt;94378962038992 -->
<g id="edge6" class="edge">
<title>94379035029632&#45;&gt;94378962038992</title>
<path fill="none" stroke="#ffffff" stroke-dasharray="5,2" d="M406.0539,-844.0696C401.923,-853.8825 396.602,-866.186 391.5,-877 390.1568,-879.847 388.7201,-882.7973 387.2607,-885.7331"/>
<polygon fill="#ffffff" stroke="#ffffff" points="384.0048,-884.4155 382.6083,-894.9179 390.2494,-887.5787 384.0048,-884.4155"/>
<text text-anchor="middle" x="459" y="-865.8" font-family="Times,serif" font-size="14.00" fill="#ffffff">uncorrelated subquery</text>
</g>
<!-- 94378007798336 -->
<g id="node8" class="node">
<title>94378007798336</title>
<polygon fill="none" stroke="#ffffff" points="563,-757 264,-757 264,-704 563,-704 563,-757"/>
<text text-anchor="middle" x="413.5" y="-741.8" font-family="Times,serif" font-size="14.00" fill="#ffffff">[Predicate] ps_availqty &gt; SUBSELECT (LQP, </text>
<text text-anchor="middle" x="413.5" y="-726.8" font-family="Times,serif" font-size="14.00" fill="#ffffff">0x55d652a98c30, Parameters: [ps_suppkey, id=1], </text>
<text text-anchor="middle" x="413.5" y="-711.8" font-family="Times,serif" font-size="14.00" fill="#ffffff">[ps_partkey, id=0]) </text>
</g>
<!-- 94378007798336&#45;&gt;94379035029632 -->
<g id="edge7" class="edge">
<title>94378007798336&#45;&gt;94379035029632</title>
<path fill="none" stroke="#ffffff" stroke-width="3" d="M413.5,-757.1021C413.5,-769.7787 413.5,-784.9473 413.5,-797.8209"/>
<polygon fill="#ffffff" stroke="#ffffff" stroke-width="3" points="410.0001,-797.9898 413.5,-807.9898 417.0001,-797.9899 410.0001,-797.9898"/>
<text text-anchor="middle" x="502" y="-778.8" font-family="Times,serif" font-size="14.00" fill="#ffffff"> 800000.0 row(s) | 100.0% estd.</text>
</g>
<!-- 94378981843136 -->
<g id="node9" class="node">
<title>94378981843136</title>
<polygon fill="none" stroke="#ffffff" points="423,-653 138,-653 138,-617 423,-617 423,-653"/>
<text text-anchor="middle" x="280.5" y="-631.3" font-family="Times,serif" font-size="14.00" fill="#ffffff">[Projection] ps_partkey, ps_suppkey, ps_availqty</text>
</g>
<!-- 94378981843136&#45;&gt;94378007798336 -->
<g id="edge8" class="edge">
<title>94378981843136&#45;&gt;94378007798336</title>
<path fill="none" stroke="#ffffff" stroke-width="3" d="M296.3675,-653.3087C305.9067,-663.6616 318.6567,-676.4116 331.5,-686 337.3893,-690.3968 343.767,-694.633 350.275,-698.6273"/>
<polygon fill="#ffffff" stroke="#ffffff" stroke-width="3" points="348.8098,-701.8275 359.1966,-703.9167 352.3797,-695.8062 348.8098,-701.8275"/>
<text text-anchor="middle" x="420" y="-674.8" font-family="Times,serif" font-size="14.00" fill="#ffffff"> 800000.0 row(s) | 100.0% estd.</text>
</g>
<!-- 94379035715264 -->
<g id="node10" class="node">
<title>94379035715264</title>
<polygon fill="none" stroke="#ffffff" points="418,-566 131,-566 131,-528 418,-528 418,-566"/>
<text text-anchor="middle" x="274.5" y="-550.8" font-family="Times,serif" font-size="14.00" fill="#ffffff">[Predicate] (ps_partkey) IN SUBSELECT (LQP, </text>
<text text-anchor="middle" x="274.5" y="-535.8" font-family="Times,serif" font-size="14.00" fill="#ffffff">0x55d654e85ae0) </text>
</g>
<!-- 94379035715264&#45;&gt;94378981843136 -->
<g id="edge9" class="edge">
<title>94379035715264&#45;&gt;94378981843136</title>
<path fill="none" stroke="#ffffff" stroke-width="3" d="M275.8019,-566.0947C276.6123,-577.981 277.6693,-593.483 278.5754,-606.7725"/>
<polygon fill="#ffffff" stroke="#ffffff" stroke-width="3" points="275.0899,-607.106 279.2621,-616.8447 282.0737,-606.6298 275.0899,-607.106"/>
<text text-anchor="middle" x="367" y="-587.8" font-family="Times,serif" font-size="14.00" fill="#ffffff"> 800000.0 row(s) | 100.0% estd.</text>
</g>
<!-- 94378998316176 -->
<g id="node11" class="node">
<title>94378998316176</title>
<polygon fill="none" stroke="#ffffff" points="187,-476 0,-476 0,-440 187,-440 187,-476"/>
<text text-anchor="middle" x="93.5" y="-454.3" font-family="Times,serif" font-size="14.00" fill="#ffffff">[StoredTable] Name: &#39;partsupp&#39;</text>
</g>
<!-- 94378998316176&#45;&gt;94379035715264 -->
<g id="edge10" class="edge">
<title>94378998316176&#45;&gt;94379035715264</title>
<path fill="none" stroke="#ffffff" stroke-width="3" d="M91.89,-476.1398C91.9291,-487.3125 93.9964,-501.1448 102.5,-510 108.0866,-515.8176 118.6883,-520.8095 131.9982,-525.0689"/>
<polygon fill="#ffffff" stroke="#ffffff" stroke-width="3" points="131.0356,-528.434 141.6171,-527.9018 133.0133,-521.7191 131.0356,-528.434"/>
<text text-anchor="middle" x="191" y="-498.8" font-family="Times,serif" font-size="14.00" fill="#ffffff"> 800000.0 row(s) | 100.0% estd.</text>
</g>
<!-- 94379035876064 -->
<g id="node12" class="node">
<title>94379035876064</title>
<polygon fill="none" stroke="#ffffff" points="363,-476 224,-476 224,-440 363,-440 363,-476"/>
<text text-anchor="middle" x="293.5" y="-454.3" font-family="Times,serif" font-size="14.00" fill="#ffffff">[Projection] p_partkey</text>
</g>
<!-- 94379035876064&#45;&gt;94379035715264 -->
<g id="edge11" class="edge">
<title>94379035876064&#45;&gt;94379035715264</title>
<path fill="none" stroke="#ffffff" stroke-dasharray="5,2" d="M289.6551,-476.0105C287.0974,-487.9913 283.6798,-503.9999 280.7375,-517.7822"/>
<polygon fill="#ffffff" stroke="#ffffff" points="277.2672,-517.2738 278.6022,-527.7842 284.113,-518.7353 277.2672,-517.2738"/>
<text text-anchor="middle" x="346" y="-498.8" font-family="Times,serif" font-size="14.00" fill="#ffffff">uncorrelated subquery</text>
</g>
<!-- 94378047200624 -->
<g id="node13" class="node">
<title>94378047200624</title>
<polygon fill="none" stroke="#ffffff" points="388.5,-388 198.5,-388 198.5,-352 388.5,-352 388.5,-388"/>
<text text-anchor="middle" x="293.5" y="-366.3" font-family="Times,serif" font-size="14.00" fill="#ffffff">[Projection] p_partkey, p_name</text>
</g>
<!-- 94378047200624&#45;&gt;94379035876064 -->
<g id="edge12" class="edge">
<title>94378047200624&#45;&gt;94379035876064</title>
<path fill="none" stroke="#ffffff" stroke-width="3" d="M293.5,-388.2337C293.5,-400.1508 293.5,-415.9616 293.5,-429.5183"/>
<polygon fill="#ffffff" stroke="#ffffff" stroke-width="3" points="290.0001,-429.7897 293.5,-439.7897 297.0001,-429.7897 290.0001,-429.7897"/>
<text text-anchor="middle" x="378.5" y="-409.8" font-family="Times,serif" font-size="14.00" fill="#ffffff"> 20000.0 row(s) | 100.0% estd.</text>
</g>
<!-- 94378009165216 -->
<g id="node14" class="node">
<title>94378009165216</title>
<polygon fill="none" stroke="#ffffff" points="398,-301 189,-301 189,-265 398,-265 398,-301"/>
<text text-anchor="middle" x="293.5" y="-279.3" font-family="Times,serif" font-size="14.00" fill="#ffffff">[Predicate] p_name LIKE &#39;forest%&#39;</text>
</g>
<!-- 94378009165216&#45;&gt;94378047200624 -->
<g id="edge13" class="edge">
<title>94378009165216&#45;&gt;94378047200624</title>
<path fill="none" stroke="#ffffff" stroke-width="3" d="M293.5,-301.0265C293.5,-312.8082 293.5,-328.4393 293.5,-341.8419"/>
<polygon fill="#ffffff" stroke="#ffffff" stroke-width="3" points="290.0001,-341.9966 293.5,-351.9966 297.0001,-341.9967 290.0001,-341.9966"/>
<text text-anchor="middle" x="375" y="-322.8" font-family="Times,serif" font-size="14.00" fill="#ffffff"> 20000.0 row(s) | 10.0% estd.</text>
</g>
<!-- 94378998209440 -->
<g id="node15" class="node">
<title>94378998209440</title>
<polygon fill="none" stroke="#ffffff" points="374,-213 213,-213 213,-177 374,-177 374,-213"/>
<text text-anchor="middle" x="293.5" y="-191.3" font-family="Times,serif" font-size="14.00" fill="#ffffff">[StoredTable] Name: &#39;part&#39;</text>
</g>
<!-- 94378998209440&#45;&gt;94378009165216 -->
<g id="edge14" class="edge">
<title>94378998209440&#45;&gt;94378009165216</title>
<path fill="none" stroke="#ffffff" stroke-width="3" d="M293.5,-213.2337C293.5,-225.1508 293.5,-240.9616 293.5,-254.5183"/>
<polygon fill="#ffffff" stroke="#ffffff" stroke-width="3" points="290.0001,-254.7897 293.5,-264.7897 297.0001,-254.7897 290.0001,-254.7897"/>
<text text-anchor="middle" x="382" y="-235.8" font-family="Times,serif" font-size="14.00" fill="#ffffff"> 200000.0 row(s) | 100.0% estd.</text>
</g>
<!-- 94378998205488 -->
<g id="node16" class="node">
<title>94378998205488</title>
<polygon fill="none" stroke="#ffffff" points="652.5,-653 442.5,-653 442.5,-617 652.5,-617 652.5,-653"/>
<text text-anchor="middle" x="547.5" y="-631.3" font-family="Times,serif" font-size="14.00" fill="#ffffff">[Projection] 0.5 * SUM(l_quantity)</text>
</g>
<!-- 94378998205488&#45;&gt;94378007798336 -->
<g id="edge15" class="edge">
<title>94378998205488&#45;&gt;94378007798336</title>
<path fill="none" stroke="#ffffff" stroke-dasharray="5,2" d="M536.6586,-653.2971C529.6661,-663.9016 519.7853,-676.9111 508.5,-686 502.7464,-690.6338 496.431,-694.9164 489.8764,-698.8427"/>
<polygon fill="#ffffff" stroke="#ffffff" points="487.7943,-695.9997 480.8202,-703.9755 491.2459,-702.0896 487.7943,-695.9997"/>
<text text-anchor="middle" x="577.5" y="-674.8" font-family="Times,serif" font-size="14.00" fill="#ffffff">correlated subquery</text>
</g>
<!-- 94379016515552 -->
<g id="node17" class="node">
<title>94379016515552</title>
<polygon fill="none" stroke="#ffffff" points="661,-566 436,-566 436,-528 661,-528 661,-566"/>
<text text-anchor="middle" x="548.5" y="-550.8" font-family="Times,serif" font-size="14.00" fill="#ffffff">[Aggregate] GroupBy: [] Aggregates: </text>
<text text-anchor="middle" x="548.5" y="-535.8" font-family="Times,serif" font-size="14.00" fill="#ffffff">[SUM(l_quantity)] </text>
</g>
<!-- 94379016515552&#45;&gt;94378998205488 -->
<g id="edge16" class="edge">
<title>94379016515552&#45;&gt;94378998205488</title>
<path fill="none" stroke="#ffffff" d="M548.283,-566.0947C548.1479,-577.981 547.9718,-593.483 547.8208,-606.7725"/>
<polygon fill="#ffffff" stroke="#ffffff" points="544.3203,-606.8056 547.7063,-616.8447 551.3198,-606.8852 544.3203,-606.8056"/>
<text text-anchor="middle" x="620" y="-587.8" font-family="Times,serif" font-size="14.00" fill="#ffffff"> 0.0 row(s) | 100.0% estd.</text>
</g>
<!-- 94378862269424 -->
<g id="node18" class="node">
<title>94378862269424</title>
<polygon fill="none" stroke="#ffffff" points="683,-477 414,-477 414,-439 683,-439 683,-477"/>
<text text-anchor="middle" x="548.5" y="-461.8" font-family="Times,serif" font-size="14.00" fill="#ffffff">[Projection] l_partkey, l_suppkey, l_quantity, </text>
<text text-anchor="middle" x="548.5" y="-446.8" font-family="Times,serif" font-size="14.00" fill="#ffffff">l_shipdate </text>
</g>
<!-- 94378862269424&#45;&gt;94379016515552 -->
<g id="edge17" class="edge">
<title>94378862269424&#45;&gt;94379016515552</title>
<path fill="none" stroke="#ffffff" d="M548.5,-477.3117C548.5,-489.091 548.5,-504.3813 548.5,-517.6372"/>
<polygon fill="#ffffff" stroke="#ffffff" points="545.0001,-517.726 548.5,-527.726 552.0001,-517.726 545.0001,-517.726"/>
<text text-anchor="middle" x="620" y="-498.8" font-family="Times,serif" font-size="14.00" fill="#ffffff"> 0.0 row(s) | 100.0% estd.</text>
</g>
<!-- 94378089201920 -->
<g id="node19" class="node">
<title>94378089201920</title>
<polygon fill="none" stroke="#ffffff" points="657.5,-388 439.5,-388 439.5,-352 657.5,-352 657.5,-388"/>
<text text-anchor="middle" x="548.5" y="-366.3" font-family="Times,serif" font-size="14.00" fill="#ffffff">[Predicate] l_shipdate &lt; &#39;1995&#45;01&#45;01&#39;</text>
</g>
<!-- 94378089201920&#45;&gt;94378862269424 -->
<g id="edge18" class="edge">
<title>94378089201920&#45;&gt;94378862269424</title>
<path fill="none" stroke="#ffffff" d="M548.5,-388.2337C548.5,-399.9125 548.5,-415.3308 548.5,-428.7022"/>
<polygon fill="#ffffff" stroke="#ffffff" points="545.0001,-428.8765 548.5,-438.8765 552.0001,-428.8765 545.0001,-428.8765"/>
<text text-anchor="middle" x="620" y="-409.8" font-family="Times,serif" font-size="14.00" fill="#ffffff"> 0.0 row(s) | 100.0% estd.</text>
</g>
<!-- 94378063063104 -->
<g id="node20" class="node">
<title>94378063063104</title>
<polygon fill="none" stroke="#ffffff" points="662,-301 435,-301 435,-265 662,-265 662,-301"/>
<text text-anchor="middle" x="548.5" y="-279.3" font-family="Times,serif" font-size="14.00" fill="#ffffff">[Predicate] l_shipdate &gt;= &#39;1994&#45;01&#45;01&#39;</text>
</g>
<!-- 94378063063104&#45;&gt;94378089201920 -->
<g id="edge19" class="edge">
<title>94378063063104&#45;&gt;94378089201920</title>
<path fill="none" stroke="#ffffff" d="M548.5,-301.0265C548.5,-312.8082 548.5,-328.4393 548.5,-341.8419"/>
<polygon fill="#ffffff" stroke="#ffffff" points="545.0001,-341.9966 548.5,-351.9966 552.0001,-341.9967 545.0001,-341.9966"/>
<text text-anchor="middle" x="620" y="-322.8" font-family="Times,serif" font-size="14.00" fill="#ffffff"> 0.0 row(s) | 100.0% estd.</text>
</g>
<!-- 94378997533088 -->
<g id="node21" class="node">
<title>94378997533088</title>
<polygon fill="none" stroke="#ffffff" points="656.5,-214 440.5,-214 440.5,-176 656.5,-176 656.5,-214"/>
<text text-anchor="middle" x="548.5" y="-198.8" font-family="Times,serif" font-size="14.00" fill="#ffffff">[Predicate] l_suppkey = </text>
<text text-anchor="middle" x="548.5" y="-183.8" font-family="Times,serif" font-size="14.00" fill="#ffffff">Parameter[name=ps_suppkey;id=1] </text>
</g>
<!-- 94378997533088&#45;&gt;94378063063104 -->
<g id="edge20" class="edge">
<title>94378997533088&#45;&gt;94378063063104</title>
<path fill="none" stroke="#ffffff" d="M548.5,-214.0947C548.5,-225.981 548.5,-241.483 548.5,-254.7725"/>
<polygon fill="#ffffff" stroke="#ffffff" points="545.0001,-254.8447 548.5,-264.8447 552.0001,-254.8448 545.0001,-254.8447"/>
<text text-anchor="middle" x="613.5" y="-235.8" font-family="Times,serif" font-size="14.00" fill="#ffffff"> 0.0 row(s) | 0.0% estd.</text>
</g>
<!-- 94379035878512 -->
<g id="node22" class="node">
<title>94379035878512</title>
<polygon fill="none" stroke="#ffffff" points="654.5,-125 442.5,-125 442.5,-87 654.5,-87 654.5,-125"/>
<text text-anchor="middle" x="548.5" y="-109.8" font-family="Times,serif" font-size="14.00" fill="#ffffff">[Predicate] l_partkey = </text>
<text text-anchor="middle" x="548.5" y="-94.8" font-family="Times,serif" font-size="14.00" fill="#ffffff">Parameter[name=ps_partkey;id=0] </text>
</g>
<!-- 94379035878512&#45;&gt;94378997533088 -->
<g id="edge21" class="edge">
<title>94379035878512&#45;&gt;94378997533088</title>
<path fill="none" stroke="#ffffff" d="M548.5,-125.3117C548.5,-137.091 548.5,-152.3813 548.5,-165.6372"/>
<polygon fill="#ffffff" stroke="#ffffff" points="545.0001,-165.726 548.5,-175.726 552.0001,-165.726 545.0001,-165.726"/>
<text text-anchor="middle" x="616.5" y="-146.8" font-family="Times,serif" font-size="14.00" fill="#ffffff"> 30.0 row(s) | 0.0% estd.</text>
</g>
<!-- 94378998316592 -->
<g id="node23" class="node">
<title>94378998316592</title>
<polygon fill="none" stroke="#ffffff" points="641,-36 456,-36 456,0 641,0 641,-36"/>
<text text-anchor="middle" x="548.5" y="-14.3" font-family="Times,serif" font-size="14.00" fill="#ffffff">[StoredTable] Name: &#39;lineitem&#39;</text>
</g>
<!-- 94378998316592&#45;&gt;94379035878512 -->
<g id="edge22" class="edge">
<title>94378998316592&#45;&gt;94379035878512</title>
<path fill="none" stroke="#ffffff" stroke-width="4" d="M548.5,-36.2337C548.5,-47.9125 548.5,-63.3308 548.5,-76.7022"/>
<polygon fill="#ffffff" stroke="#ffffff" stroke-width="4" points="545.0001,-76.8765 548.5,-86.8765 552.0001,-76.8765 545.0001,-76.8765"/>
<text text-anchor="middle" x="640.5" y="-57.8" font-family="Times,serif" font-size="14.00" fill="#ffffff"> 6001215.0 row(s) | 100.0% estd.</text>
</g>
<!-- 94378009178832 -->
<g id="node24" class="node">
<title>94378009178832</title>
<polygon fill="none" stroke="#ffffff" points="733,-1021 530,-1021 530,-985 733,-985 733,-1021"/>
<text text-anchor="middle" x="631.5" y="-999.3" font-family="Times,serif" font-size="14.00" fill="#ffffff">[Projection] n_nationkey, n_name</text>
</g>
<!-- 94378009178832&#45;&gt;94379016776912 -->
<g id="edge23" class="edge">
<title>94378009178832&#45;&gt;94379016776912</title>
<path fill="none" stroke="#ffffff" d="M621.9461,-1021.4022C615.457,-1032.3945 605.9785,-1045.9365 594.5,-1055 588.1536,-1060.0112 581.0161,-1064.416 573.6154,-1068.2642"/>
<polygon fill="#ffffff" stroke="#ffffff" points="571.62,-1065.3412 564.1401,-1072.8447 574.6666,-1071.6435 571.62,-1065.3412"/>
<text text-anchor="middle" x="680" y="-1043.8" font-family="Times,serif" font-size="14.00" fill="#ffffff"> 1.0 row(s) | 100.0% estd.</text>
</g>
<!-- 94378009175536 -->
<g id="node25" class="node">
<title>94378009175536</title>
<polygon fill="none" stroke="#ffffff" points="734,-932 533,-932 533,-896 734,-896 734,-932"/>
<text text-anchor="middle" x="633.5" y="-910.3" font-family="Times,serif" font-size="14.00" fill="#ffffff">[Predicate] n_name = &#39;CANADA&#39;</text>
</g>
<!-- 94378009175536&#45;&gt;94378009178832 -->
<g id="edge24" class="edge">
<title>94378009175536&#45;&gt;94378009178832</title>
<path fill="none" stroke="#ffffff" d="M633.0953,-932.0105C632.8206,-944.2342 632.4517,-960.6505 632.1378,-974.6176"/>
<polygon fill="#ffffff" stroke="#ffffff" points="628.6366,-974.6347 631.911,-984.7108 635.6349,-974.792 628.6366,-974.6347"/>
<text text-anchor="middle" x="697.5" y="-954.8" font-family="Times,serif" font-size="14.00" fill="#ffffff"> 1.0 row(s) | 4.0% estd.</text>
</g>
<!-- 94378998315808 -->
<g id="node26" class="node">
<title>94378998315808</title>
<polygon fill="none" stroke="#ffffff" points="720.5,-844 546.5,-844 546.5,-808 720.5,-808 720.5,-844"/>
<text text-anchor="middle" x="633.5" y="-822.3" font-family="Times,serif" font-size="14.00" fill="#ffffff">[StoredTable] Name: &#39;nation&#39;</text>
</g>
<!-- 94378998315808&#45;&gt;94378009175536 -->
<g id="edge25" class="edge">
<title>94378998315808&#45;&gt;94378009175536</title>
<path fill="none" stroke="#ffffff" d="M633.5,-844.2337C633.5,-856.1508 633.5,-871.9616 633.5,-885.5183"/>
<polygon fill="#ffffff" stroke="#ffffff" points="630.0001,-885.7897 633.5,-895.7897 637.0001,-885.7897 630.0001,-885.7897"/>
<text text-anchor="middle" x="708.5" y="-865.8" font-family="Times,serif" font-size="14.00" fill="#ffffff"> 25.0 row(s) | 100.0% estd.</text>
</g>
</g>
</svg>
