<?xml version="1.0" encoding="UTF-8" standalone="no"?>
<!DOCTYPE svg PUBLIC "-//W3C//DTD SVG 1.1//EN"
 "http://www.w3.org/Graphics/SVG/1.1/DTD/svg11.dtd">
<!-- Generated by graphviz version 2.40.1 (20161225.0304)
 -->
<!-- Title: G Pages: 1 -->
<svg width="375pt" height="1112pt"
 viewBox="0.00 0.00 375.00 1112.00" xmlns="http://www.w3.org/2000/svg" xmlns:xlink="http://www.w3.org/1999/xlink">
<g id="graph0" class="graph" transform="scale(1 1) rotate(0) translate(4 1108)">
<title>G</title>
<polygon fill="#000000" stroke="transparent" points="-4,4 -4,-1108 371,-1108 371,4 -4,4"/>
<!-- 94378075635120 -->
<g id="node1" class="node">
<title>94378075635120</title>
<polygon fill="none" stroke="#ffffff" points="202.5,-1104 81.5,-1104 81.5,-1050 202.5,-1050 202.5,-1104"/>
<text text-anchor="middle" x="142" y="-1088.8" font-family="Times,serif" font-size="14.00" fill="#ffffff">Alias [REVENUE]</text>
<text text-anchor="middle" x="142" y="-1057.8" font-family="Times,serif" font-size="14.00" fill="#ffffff">1 µs 0 ns</text>
</g>
<!-- 94377838380160 -->
<g id="node2" class="node">
<title>94377838380160</title>
<polygon fill="none" stroke="#ffffff" stroke-width="2" points="284,-999 0,-999 0,-930 284,-930 284,-999"/>
<text text-anchor="middle" x="142" y="-983.8" font-family="Times,serif" font-size="14.00" fill="#ffffff">[Aggregate] GroupBy ColumnIDs: &#160;Aggregates: </text>
<text text-anchor="middle" x="142" y="-968.8" font-family="Times,serif" font-size="14.00" fill="#ffffff">SUM(Column #0)</text>
<text text-anchor="middle" x="142" y="-937.8" font-family="Times,serif" font-size="14.00" fill="#ffffff">1 ms 159 µs </text>
</g>
<!-- 94377838380160&#45;&gt;94378075635120 -->
<g id="edge1" class="edge">
<title>94377838380160&#45;&gt;94378075635120</title>
<path fill="none" stroke="#ffffff" d="M142,-999.1717C142,-1012.0092 142,-1026.6141 142,-1039.6774"/>
<polygon fill="#ffffff" stroke="#ffffff" points="138.5001,-1039.7601 142,-1049.7602 145.5001,-1039.7602 138.5001,-1039.7601"/>
<text text-anchor="middle" x="212.5" y="-1020.8" font-family="Times,serif" font-size="14.00" fill="#ffffff">1 row(s)/1 chunk(s)/450B</text>
</g>
<!-- 94378872400128 -->
<g id="node3" class="node">
<title>94378872400128</title>
<polygon fill="none" stroke="#ffffff" stroke-width="2" points="183.5,-879 100.5,-879 100.5,-825 183.5,-825 183.5,-879"/>
<text text-anchor="middle" x="142" y="-863.8" font-family="Times,serif" font-size="14.00" fill="#ffffff">Projection</text>
<text text-anchor="middle" x="142" y="-832.8" font-family="Times,serif" font-size="14.00" fill="#ffffff">4 ms 104 µs</text>
</g>
<!-- 94378872400128&#45;&gt;94377838380160 -->
<g id="edge2" class="edge">
<title>94378872400128&#45;&gt;94377838380160</title>
<path fill="none" stroke="#ffffff" stroke-width="3" d="M142,-879.2331C142,-891.3589 142,-905.9621 142,-919.6298"/>
<polygon fill="#ffffff" stroke="#ffffff" stroke-width="3" points="138.5001,-919.8427 142,-929.8427 145.5001,-919.8428 138.5001,-919.8427"/>
<text text-anchor="middle" x="249.5" y="-900.8" font-family="Times,serif" font-size="14.00" fill="#ffffff">114160 row(s)/61 chunk(s)/474.836KB</text>
</g>
<!-- 94378872400352 -->
<g id="node4" class="node">
<title>94378872400352</title>
<polygon fill="none" stroke="#ffffff" points="178,-774 106,-774 106,-720 178,-720 178,-774"/>
<text text-anchor="middle" x="142" y="-758.8" font-family="Times,serif" font-size="14.00" fill="#ffffff">Projection</text>
<text text-anchor="middle" x="142" y="-727.8" font-family="Times,serif" font-size="14.00" fill="#ffffff">31 µs 0 ns</text>
</g>
<!-- 94378872400352&#45;&gt;94378872400128 -->
<g id="edge3" class="edge">
<title>94378872400352&#45;&gt;94378872400128</title>
<path fill="none" stroke="#ffffff" stroke-width="3" d="M142,-774.0401C142,-786.3143 142,-801.0382 142,-814.3683"/>
<polygon fill="#ffffff" stroke="#ffffff" stroke-width="3" points="138.5001,-814.6866 142,-824.6866 145.5001,-814.6866 138.5001,-814.6866"/>
<text text-anchor="middle" x="244.5" y="-795.8" font-family="Times,serif" font-size="14.00" fill="#ffffff">114160 row(s)/61 chunk(s)/3.674MB</text>
</g>
<!-- 94377610689552 -->
<g id="node5" class="node">
<title>94377610689552</title>
<polygon fill="none" stroke="#ffffff" stroke-width="2" points="213.5,-669 70.5,-669 70.5,-570 213.5,-570 213.5,-669"/>
<text text-anchor="middle" x="142" y="-653.8" font-family="Times,serif" font-size="14.00" fill="#ffffff">TableScan</text>
<text text-anchor="middle" x="142" y="-638.8" font-family="Times,serif" font-size="14.00" fill="#ffffff">Impl: LiteralTableScan</text>
<text text-anchor="middle" x="142" y="-623.8" font-family="Times,serif" font-size="14.00" fill="#ffffff">l_shipdate &lt; </text>
<text text-anchor="middle" x="142" y="-608.8" font-family="Times,serif" font-size="14.00" fill="#ffffff">&#39;1995&#45;01&#45;01&#39;</text>
<text text-anchor="middle" x="142" y="-577.8" font-family="Times,serif" font-size="14.00" fill="#ffffff">2 ms 336 µs </text>
</g>
<!-- 94377610689552&#45;&gt;94378872400352 -->
<g id="edge4" class="edge">
<title>94377610689552&#45;&gt;94378872400352</title>
<path fill="none" stroke="#ffffff" stroke-width="3" d="M142,-669.1599C142,-682.598 142,-696.9153 142,-709.5584"/>
<polygon fill="#ffffff" stroke="#ffffff" stroke-width="3" points="138.5001,-709.7287 142,-719.7287 145.5001,-709.7288 138.5001,-709.7287"/>
<text text-anchor="middle" x="247.5" y="-690.8" font-family="Times,serif" font-size="14.00" fill="#ffffff">114160 row(s)/61 chunk(s)/14.675MB</text>
</g>
<!-- 94377838548080 -->
<g id="node6" class="node">
<title>94377838548080</title>
<polygon fill="none" stroke="#ffffff" stroke-width="2" points="213.5,-519 70.5,-519 70.5,-420 213.5,-420 213.5,-519"/>
<text text-anchor="middle" x="142" y="-503.8" font-family="Times,serif" font-size="14.00" fill="#ffffff">TableScan</text>
<text text-anchor="middle" x="142" y="-488.8" font-family="Times,serif" font-size="14.00" fill="#ffffff">Impl: LiteralTableScan</text>
<text text-anchor="middle" x="142" y="-473.8" font-family="Times,serif" font-size="14.00" fill="#ffffff">l_shipdate &gt;= </text>
<text text-anchor="middle" x="142" y="-458.8" font-family="Times,serif" font-size="14.00" fill="#ffffff">&#39;1994&#45;01&#45;01&#39;</text>
<text text-anchor="middle" x="142" y="-427.8" font-family="Times,serif" font-size="14.00" fill="#ffffff">5 ms 456 µs </text>
</g>
<!-- 94377838548080&#45;&gt;94377610689552 -->
<g id="edge5" class="edge">
<title>94377838548080&#45;&gt;94377610689552</title>
<path fill="none" stroke="#ffffff" stroke-width="3" d="M142,-519.0313C142,-532.0196 142,-546.1643 142,-559.63"/>
<polygon fill="#ffffff" stroke="#ffffff" stroke-width="3" points="138.5001,-559.7646 142,-569.7646 145.5001,-559.7646 138.5001,-559.7646"/>
<text text-anchor="middle" x="247.5" y="-540.8" font-family="Times,serif" font-size="14.00" fill="#ffffff">543718 row(s)/61 chunk(s)/69.658MB</text>
</g>
<!-- 94377838536656 -->
<g id="node7" class="node">
<title>94377838536656</title>
<polygon fill="none" stroke="#ffffff" stroke-width="3" points="213.5,-369 70.5,-369 70.5,-270 213.5,-270 213.5,-369"/>
<text text-anchor="middle" x="142" y="-353.8" font-family="Times,serif" font-size="14.00" fill="#ffffff">TableScan</text>
<text text-anchor="middle" x="142" y="-338.8" font-family="Times,serif" font-size="14.00" fill="#ffffff">Impl: LiteralTableScan</text>
<text text-anchor="middle" x="142" y="-323.8" font-family="Times,serif" font-size="14.00" fill="#ffffff">l_quantity &lt; </text>
<text text-anchor="middle" x="142" y="-308.8" font-family="Times,serif" font-size="14.00" fill="#ffffff">24</text>
<text text-anchor="middle" x="142" y="-277.8" font-family="Times,serif" font-size="14.00" fill="#ffffff">10 ms 611 µs </text>
</g>
<!-- 94377838536656&#45;&gt;94377838548080 -->
<g id="edge6" class="edge">
<title>94377838536656&#45;&gt;94377838548080</title>
<path fill="none" stroke="#ffffff" stroke-width="3" d="M142,-369.0313C142,-382.0196 142,-396.1643 142,-409.63"/>
<polygon fill="#ffffff" stroke="#ffffff" stroke-width="3" points="138.5001,-409.7646 142,-419.7646 145.5001,-409.7646 138.5001,-409.7646"/>
<text text-anchor="middle" x="247.5" y="-390.8" font-family="Times,serif" font-size="14.00" fill="#ffffff">752249 row(s)/61 chunk(s)/96.350MB</text>
</g>
<!-- 94377838549488 -->
<g id="node8" class="node">
<title>94377838549488</title>
<polygon fill="none" stroke="#ffffff" stroke-width="3" points="215,-219 69,-219 69,-120 215,-120 215,-219"/>
<text text-anchor="middle" x="142" y="-203.8" font-family="Times,serif" font-size="14.00" fill="#ffffff">TableScan</text>
<text text-anchor="middle" x="142" y="-188.8" font-family="Times,serif" font-size="14.00" fill="#ffffff">Impl: BetweenScan</text>
<text text-anchor="middle" x="142" y="-173.8" font-family="Times,serif" font-size="14.00" fill="#ffffff">l_discount BETWEEN </text>
<text text-anchor="middle" x="142" y="-158.8" font-family="Times,serif" font-size="14.00" fill="#ffffff">0.05 AND 0.07001</text>
<text text-anchor="middle" x="142" y="-127.8" font-family="Times,serif" font-size="14.00" fill="#ffffff">22 ms 307 µs </text>
</g>
<!-- 94377838549488&#45;&gt;94377838536656 -->
<g id="edge7" class="edge">
<title>94377838549488&#45;&gt;94377838536656</title>
<path fill="none" stroke="#ffffff" stroke-width="4" d="M142,-219.0313C142,-232.0196 142,-246.1643 142,-259.63"/>
<polygon fill="#ffffff" stroke="#ffffff" stroke-width="4" points="138.5001,-259.7646 142,-269.7646 145.5001,-259.7646 138.5001,-259.7646"/>
<text text-anchor="middle" x="254.5" y="-240.8" font-family="Times,serif" font-size="14.00" fill="#ffffff">1637557 row(s)/61 chunk(s)/209.670MB</text>
</g>
<!-- 94378075634928 -->
<g id="node9" class="node">
<title>94378075634928</title>
<polygon fill="none" stroke="#ffffff" points="177.5,-69 106.5,-69 106.5,0 177.5,0 177.5,-69"/>
<text text-anchor="middle" x="142" y="-53.8" font-family="Times,serif" font-size="14.00" fill="#ffffff">GetTable</text>
<text text-anchor="middle" x="142" y="-38.8" font-family="Times,serif" font-size="14.00" fill="#ffffff">(lineitem)</text>
<text text-anchor="middle" x="142" y="-7.8" font-family="Times,serif" font-size="14.00" fill="#ffffff">0 ns</text>
</g>
<!-- 94378075634928&#45;&gt;94377838549488 -->
<g id="edge8" class="edge">
<title>94378075634928&#45;&gt;94377838549488</title>
<path fill="none" stroke="#ffffff" stroke-width="4" d="M142,-69.2659C142,-81.5301 142,-95.6967 142,-109.446"/>
<polygon fill="#ffffff" stroke="#ffffff" stroke-width="4" points="138.5001,-109.8405 142,-119.8405 145.5001,-109.8406 138.5001,-109.8405"/>
<text text-anchor="middle" x="254.5" y="-90.8" font-family="Times,serif" font-size="14.00" fill="#ffffff">6001215 row(s)/61 chunk(s)/500.660MB</text>
</g>
</g>
</svg>
