<?xml version="1.0" encoding="UTF-8" standalone="no"?>
<!DOCTYPE svg PUBLIC "-//W3C//DTD SVG 1.1//EN"
 "http://www.w3.org/Graphics/SVG/1.1/DTD/svg11.dtd">
<!-- Generated by graphviz version 2.40.1 (20161225.0304)
 -->
<!-- Title: G Pages: 1 -->
<svg width="929pt" height="1322pt"
 viewBox="0.00 0.00 929.00 1322.00" xmlns="http://www.w3.org/2000/svg" xmlns:xlink="http://www.w3.org/1999/xlink">
<g id="graph0" class="graph" transform="scale(1 1) rotate(0) translate(4 1318)">
<title>G</title>
<polygon fill="#000000" stroke="transparent" points="-4,4 -4,-1318 925,-1318 925,4 -4,4"/>
<!-- 94334847049136 -->
<g id="node1" class="node">
<title>94334847049136</title>
<polygon fill="none" stroke="#ffffff" points="628,-1314 542,-1314 542,-1125 628,-1125 628,-1314"/>
<text text-anchor="middle" x="585" y="-1298.8" font-family="Times,serif" font-size="14.00" fill="#ffffff">Alias </text>
<text text-anchor="middle" x="585" y="-1283.8" font-family="Times,serif" font-size="14.00" fill="#ffffff">[c_custkey</text>
<text text-anchor="middle" x="585" y="-1268.8" font-family="Times,serif" font-size="14.00" fill="#ffffff">c_name</text>
<text text-anchor="middle" x="585" y="-1253.8" font-family="Times,serif" font-size="14.00" fill="#ffffff">revenue</text>
<text text-anchor="middle" x="585" y="-1238.8" font-family="Times,serif" font-size="14.00" fill="#ffffff">c_acctbal</text>
<text text-anchor="middle" x="585" y="-1223.8" font-family="Times,serif" font-size="14.00" fill="#ffffff">n_name</text>
<text text-anchor="middle" x="585" y="-1208.8" font-family="Times,serif" font-size="14.00" fill="#ffffff">c_address</text>
<text text-anchor="middle" x="585" y="-1193.8" font-family="Times,serif" font-size="14.00" fill="#ffffff">c_phone</text>
<text text-anchor="middle" x="585" y="-1178.8" font-family="Times,serif" font-size="14.00" fill="#ffffff">c_comment]</text>
<text text-anchor="middle" x="585" y="-1147.8" font-family="Times,serif" font-size="14.00" fill="#ffffff">2 </text>
<text text-anchor="middle" x="585" y="-1132.8" font-family="Times,serif" font-size="14.00" fill="#ffffff">µs 0 ns </text>
</g>
<!-- 94335573222992 -->
<g id="node2" class="node">
<title>94335573222992</title>
<polygon fill="none" stroke="#ffffff" points="621,-1074 549,-1074 549,-1020 621,-1020 621,-1074"/>
<text text-anchor="middle" x="585" y="-1058.8" font-family="Times,serif" font-size="14.00" fill="#ffffff">Projection</text>
<text text-anchor="middle" x="585" y="-1027.8" font-family="Times,serif" font-size="14.00" fill="#ffffff">7 µs 0 ns</text>
</g>
<!-- 94335573222992&#45;&gt;94334847049136 -->
<g id="edge1" class="edge">
<title>94335573222992&#45;&gt;94334847049136</title>
<path fill="none" stroke="#ffffff" stroke-width="3" d="M585,-1074.3331C585,-1085.6798 585,-1099.6323 585,-1114.3574"/>
<polygon fill="#ffffff" stroke="#ffffff" stroke-width="3" points="581.5001,-1114.6526 585,-1124.6526 588.5001,-1114.6527 581.5001,-1114.6526"/>
<text text-anchor="middle" x="680.5" y="-1095.8" font-family="Times,serif" font-size="14.00" fill="#ffffff">37967 row(s)/1 chunk(s)/6.987MB</text>
</g>
<!-- 94335573226080 -->
<g id="node3" class="node">
<title>94335573226080</title>
<polygon fill="none" stroke="#ffffff" stroke-width="3" points="630,-969 540,-969 540,-915 630,-915 630,-969"/>
<text text-anchor="middle" x="585" y="-953.8" font-family="Times,serif" font-size="14.00" fill="#ffffff">Sort</text>
<text text-anchor="middle" x="585" y="-922.8" font-family="Times,serif" font-size="14.00" fill="#ffffff">32 ms 223 µs</text>
</g>
<!-- 94335573226080&#45;&gt;94335573222992 -->
<g id="edge2" class="edge">
<title>94335573226080&#45;&gt;94335573222992</title>
<path fill="none" stroke="#ffffff" stroke-width="3" d="M585,-969.0401C585,-981.3143 585,-996.0382 585,-1009.3683"/>
<polygon fill="#ffffff" stroke="#ffffff" stroke-width="3" points="581.5001,-1009.6866 585,-1019.6866 588.5001,-1009.6866 581.5001,-1009.6866"/>
<text text-anchor="middle" x="680.5" y="-990.8" font-family="Times,serif" font-size="14.00" fill="#ffffff">37967 row(s)/1 chunk(s)/6.987MB</text>
</g>
<!-- 94334562090112 -->
<g id="node4" class="node">
<title>94334562090112</title>
<polygon fill="none" stroke="#ffffff" stroke-width="3" points="733,-864 437,-864 437,-795 733,-795 733,-864"/>
<text text-anchor="middle" x="585" y="-848.8" font-family="Times,serif" font-size="14.00" fill="#ffffff">[Aggregate] GroupBy ColumnIDs: 1, 2, 3, 4, 5, 6, </text>
<text text-anchor="middle" x="585" y="-833.8" font-family="Times,serif" font-size="14.00" fill="#ffffff">7 Aggregates: SUM(Column #0)</text>
<text text-anchor="middle" x="585" y="-802.8" font-family="Times,serif" font-size="14.00" fill="#ffffff">91 ms 32 µs </text>
</g>
<!-- 94334562090112&#45;&gt;94335573226080 -->
<g id="edge3" class="edge">
<title>94334562090112&#45;&gt;94335573226080</title>
<path fill="none" stroke="#ffffff" stroke-width="3" d="M585,-864.1717C585,-877.0092 585,-891.6141 585,-904.6774"/>
<polygon fill="#ffffff" stroke="#ffffff" stroke-width="3" points="581.5001,-904.7601 585,-914.7602 588.5001,-904.7602 581.5001,-904.7601"/>
<text text-anchor="middle" x="680.5" y="-885.8" font-family="Times,serif" font-size="14.00" fill="#ffffff">37967 row(s)/1 chunk(s)/6.987MB</text>
</g>
<!-- 94335573225664 -->
<g id="node5" class="node">
<title>94335573225664</title>
<polygon fill="none" stroke="#ffffff" stroke-width="3" points="630,-744 540,-744 540,-690 630,-690 630,-744"/>
<text text-anchor="middle" x="585" y="-728.8" font-family="Times,serif" font-size="14.00" fill="#ffffff">Projection</text>
<text text-anchor="middle" x="585" y="-697.8" font-family="Times,serif" font-size="14.00" fill="#ffffff">97 ms 241 µs</text>
</g>
<!-- 94335573225664&#45;&gt;94334562090112 -->
<g id="edge4" class="edge">
<title>94335573225664&#45;&gt;94334562090112</title>
<path fill="none" stroke="#ffffff" stroke-width="3" d="M585,-744.2331C585,-756.3589 585,-770.9621 585,-784.6298"/>
<polygon fill="#ffffff" stroke="#ffffff" stroke-width="3" points="581.5001,-784.8427 585,-794.8427 588.5001,-784.8428 581.5001,-784.8427"/>
<text text-anchor="middle" x="687.5" y="-765.8" font-family="Times,serif" font-size="14.00" fill="#ffffff">114705 row(s)/8 chunk(s)/19.741MB</text>
</g>
<!-- 94334846992048 -->
<g id="node6" class="node">
<title>94334846992048</title>
<polygon fill="none" stroke="#ffffff" stroke-width="3" points="682,-639 488,-639 488,-555 682,-555 682,-639"/>
<text text-anchor="middle" x="585" y="-623.8" font-family="Times,serif" font-size="14.00" fill="#ffffff">JoinHash</text>
<text text-anchor="middle" x="585" y="-608.8" font-family="Times,serif" font-size="14.00" fill="#ffffff">(Inner Join where o_orderkey = </text>
<text text-anchor="middle" x="585" y="-593.8" font-family="Times,serif" font-size="14.00" fill="#ffffff">l_orderkey)</text>
<text text-anchor="middle" x="585" y="-562.8" font-family="Times,serif" font-size="14.00" fill="#ffffff">34 ms 66 µs </text>
</g>
<!-- 94334846992048&#45;&gt;94335573225664 -->
<g id="edge5" class="edge">
<title>94334846992048&#45;&gt;94335573225664</title>
<path fill="none" stroke="#ffffff" stroke-width="3" d="M585,-639.3075C585,-652.3814 585,-666.686 585,-679.4178"/>
<polygon fill="#ffffff" stroke="#ffffff" stroke-width="3" points="581.5001,-679.681 585,-689.681 588.5001,-679.6811 581.5001,-679.681"/>
<text text-anchor="middle" x="687.5" y="-660.8" font-family="Times,serif" font-size="14.00" fill="#ffffff">114705 row(s)/8 chunk(s)/14.690MB</text>
</g>
<!-- 94334704227616 -->
<g id="node7" class="node">
<title>94334704227616</title>
<polygon fill="none" stroke="#ffffff" stroke-width="2" points="568,-504 382,-504 382,-420 568,-420 568,-504"/>
<text text-anchor="middle" x="475" y="-488.8" font-family="Times,serif" font-size="14.00" fill="#ffffff">JoinHash</text>
<text text-anchor="middle" x="475" y="-473.8" font-family="Times,serif" font-size="14.00" fill="#ffffff">(Inner Join where c_custkey = </text>
<text text-anchor="middle" x="475" y="-458.8" font-family="Times,serif" font-size="14.00" fill="#ffffff">o_custkey)</text>
<text text-anchor="middle" x="475" y="-427.8" font-family="Times,serif" font-size="14.00" fill="#ffffff">9 ms 186 µs </text>
</g>
<!-- 94334704227616&#45;&gt;94334846992048 -->
<g id="edge6" class="edge">
<title>94334704227616&#45;&gt;94334846992048</title>
<path fill="none" stroke="#ffffff" stroke-width="3" d="M468.1107,-504.2006C468.1881,-515.512 470.1708,-527.2856 476,-537 478.2507,-540.7508 480.8274,-544.2836 483.6643,-547.6094"/>
<polygon fill="#ffffff" stroke="#ffffff" stroke-width="3" points="481.2864,-550.1872 490.7254,-554.9994 486.3476,-545.3513 481.2864,-550.1872"/>
<text text-anchor="middle" x="575" y="-525.8" font-family="Times,serif" font-size="14.00" fill="#ffffff">57069 row(s)/16 chunk(s)/5.491MB</text>
</g>
<!-- 94334846991872 -->
<g id="node8" class="node">
<title>94334846991872</title>
<polygon fill="none" stroke="#ffffff" stroke-width="2" points="346,-361.5 148,-361.5 148,-277.5 346,-277.5 346,-361.5"/>
<text text-anchor="middle" x="247" y="-346.3" font-family="Times,serif" font-size="14.00" fill="#ffffff">JoinHash</text>
<text text-anchor="middle" x="247" y="-331.3" font-family="Times,serif" font-size="14.00" fill="#ffffff">(Inner Join where c_nationkey = </text>
<text text-anchor="middle" x="247" y="-316.3" font-family="Times,serif" font-size="14.00" fill="#ffffff">n_nationkey)</text>
<text text-anchor="middle" x="247" y="-285.3" font-family="Times,serif" font-size="14.00" fill="#ffffff">1 ms 400 µs </text>
</g>
<!-- 94334846991872&#45;&gt;94334704227616 -->
<g id="edge7" class="edge">
<title>94334846991872&#45;&gt;94334704227616</title>
<path fill="none" stroke="#ffffff" stroke-width="3" d="M248.2282,-361.761C250.6741,-376.1138 255.7861,-391.2276 266,-402 281.366,-418.2061 327.173,-432.2486 372.0002,-442.6656"/>
<polygon fill="#ffffff" stroke="#ffffff" stroke-width="3" points="371.3128,-446.0986 381.8396,-444.8995 372.8627,-439.2723 371.3128,-446.0986"/>
<text text-anchor="middle" x="368.5" y="-390.8" font-family="Times,serif" font-size="14.00" fill="#ffffff">150000 row(s)/1 chunk(s)/10.800MB</text>
</g>
<!-- 94335573304704 -->
<g id="node9" class="node">
<title>94335573304704</title>
<polygon fill="none" stroke="#ffffff" points="74,-196.5 2,-196.5 2,-142.5 74,-142.5 74,-196.5"/>
<text text-anchor="middle" x="38" y="-181.3" font-family="Times,serif" font-size="14.00" fill="#ffffff">Projection</text>
<text text-anchor="middle" x="38" y="-150.3" font-family="Times,serif" font-size="14.00" fill="#ffffff">95 µs 0 ns</text>
</g>
<!-- 94335573304704&#45;&gt;94334846991872 -->
<g id="edge8" class="edge">
<title>94335573304704&#45;&gt;94334846991872</title>
<path fill="none" stroke="#ffffff" stroke-width="3" d="M33.9873,-196.8199C32.9522,-214.3974 34.725,-236.7265 47,-252 59.619,-267.7015 98.2835,-282.3656 138.2963,-293.9876"/>
<polygon fill="#ffffff" stroke="#ffffff" stroke-width="3" points="137.3572,-297.3592 147.9329,-296.723 139.2688,-290.6253 137.3572,-297.3592"/>
<text text-anchor="middle" x="149.5" y="-240.8" font-family="Times,serif" font-size="14.00" fill="#ffffff">150000 row(s)/2 chunk(s)/25.329MB</text>
</g>
<!-- 94335573222800 -->
<g id="node10" class="node">
<title>94335573222800</title>
<polygon fill="none" stroke="#ffffff" points="76,-69 0,-69 0,0 76,0 76,-69"/>
<text text-anchor="middle" x="38" y="-53.8" font-family="Times,serif" font-size="14.00" fill="#ffffff">GetTable</text>
<text text-anchor="middle" x="38" y="-38.8" font-family="Times,serif" font-size="14.00" fill="#ffffff">(customer)</text>
<text text-anchor="middle" x="38" y="-7.8" font-family="Times,serif" font-size="14.00" fill="#ffffff">0 ns</text>
</g>
<!-- 94335573222800&#45;&gt;94335573304704 -->
<g id="edge9" class="edge">
<title>94335573222800&#45;&gt;94335573304704</title>
<path fill="none" stroke="#ffffff" stroke-width="3" d="M38,-69.2659C38,-88.4703 38,-112.3393 38,-131.9668"/>
<polygon fill="#ffffff" stroke="#ffffff" stroke-width="3" points="34.5001,-132.0867 38,-142.0867 41.5001,-132.0867 34.5001,-132.0867"/>
<text text-anchor="middle" x="140.5" y="-90.8" font-family="Times,serif" font-size="14.00" fill="#ffffff">150000 row(s)/2 chunk(s)/25.479MB</text>
</g>
<!-- 94335584255296 -->
<g id="node11" class="node">
<title>94335584255296</title>
<polygon fill="none" stroke="#ffffff" points="302,-196.5 230,-196.5 230,-142.5 302,-142.5 302,-196.5"/>
<text text-anchor="middle" x="266" y="-181.3" font-family="Times,serif" font-size="14.00" fill="#ffffff">Projection</text>
<text text-anchor="middle" x="266" y="-150.3" font-family="Times,serif" font-size="14.00" fill="#ffffff">1 µs 0 ns</text>
</g>
<!-- 94335584255296&#45;&gt;94334846991872 -->
<g id="edge10" class="edge">
<title>94335584255296&#45;&gt;94334846991872</title>
<path fill="none" stroke="#ffffff" d="M262.5592,-196.6639C260.0702,-216.3139 256.6288,-243.4829 253.6153,-267.274"/>
<polygon fill="#ffffff" stroke="#ffffff" points="250.1385,-266.871 252.354,-277.2316 257.083,-267.7507 250.1385,-266.871"/>
<text text-anchor="middle" x="342" y="-240.8" font-family="Times,serif" font-size="14.00" fill="#ffffff">25 row(s)/1 chunk(s)/1.851KB</text>
</g>
<!-- 94335597703072 -->
<g id="node12" class="node">
<title>94335597703072</title>
<polygon fill="none" stroke="#ffffff" points="299.5,-69 232.5,-69 232.5,0 299.5,0 299.5,-69"/>
<text text-anchor="middle" x="266" y="-53.8" font-family="Times,serif" font-size="14.00" fill="#ffffff">GetTable</text>
<text text-anchor="middle" x="266" y="-38.8" font-family="Times,serif" font-size="14.00" fill="#ffffff">(nation)</text>
<text text-anchor="middle" x="266" y="-7.8" font-family="Times,serif" font-size="14.00" fill="#ffffff">0 ns</text>
</g>
<!-- 94335597703072&#45;&gt;94335584255296 -->
<g id="edge11" class="edge">
<title>94335597703072&#45;&gt;94335584255296</title>
<path fill="none" stroke="#ffffff" d="M266,-69.2659C266,-88.4703 266,-112.3393 266,-131.9668"/>
<polygon fill="#ffffff" stroke="#ffffff" points="262.5001,-132.0867 266,-142.0867 269.5001,-132.0867 262.5001,-132.0867"/>
<text text-anchor="middle" x="350" y="-90.8" font-family="Times,serif" font-size="14.00" fill="#ffffff">25 row(s)/1 chunk(s)/2.869KB</text>
</g>
<!-- 94334847001792 -->
<g id="node13" class="node">
<title>94334847001792</title>
<polygon fill="none" stroke="#ffffff" points="511,-346.5 439,-346.5 439,-292.5 511,-292.5 511,-346.5"/>
<text text-anchor="middle" x="475" y="-331.3" font-family="Times,serif" font-size="14.00" fill="#ffffff">Projection</text>
<text text-anchor="middle" x="475" y="-300.3" font-family="Times,serif" font-size="14.00" fill="#ffffff">7 µs 0 ns</text>
</g>
<!-- 94334847001792&#45;&gt;94334704227616 -->
<g id="edge12" class="edge">
<title>94334847001792&#45;&gt;94334704227616</title>
<path fill="none" stroke="#ffffff" stroke-width="3" d="M475,-346.6386C475,-364.404 475,-388.2016 475,-409.5675"/>
<polygon fill="#ffffff" stroke="#ffffff" stroke-width="3" points="471.5001,-409.8237 475,-419.8237 478.5001,-409.8237 471.5001,-409.8237"/>
<text text-anchor="middle" x="574" y="-390.8" font-family="Times,serif" font-size="14.00" fill="#ffffff">57069 row(s)/15 chunk(s)/1.374MB</text>
</g>
<!-- 94334562224688 -->
<g id="node14" class="node">
<title>94334562224688</title>
<polygon fill="none" stroke="#ffffff" stroke-width="2" points="569,-219 381,-219 381,-120 569,-120 569,-219"/>
<text text-anchor="middle" x="475" y="-203.8" font-family="Times,serif" font-size="14.00" fill="#ffffff">TableScan</text>
<text text-anchor="middle" x="475" y="-188.8" font-family="Times,serif" font-size="14.00" fill="#ffffff">Impl: BetweenScan</text>
<text text-anchor="middle" x="475" y="-173.8" font-family="Times,serif" font-size="14.00" fill="#ffffff">o_orderdate BETWEEN </text>
<text text-anchor="middle" x="475" y="-158.8" font-family="Times,serif" font-size="14.00" fill="#ffffff">&#39;1993&#45;10&#45;01&#39; AND &#39;1994&#45;01&#45;00&#39;</text>
<text text-anchor="middle" x="475" y="-127.8" font-family="Times,serif" font-size="14.00" fill="#ffffff">1 ms 307 µs </text>
</g>
<!-- 94334562224688&#45;&gt;94334847001792 -->
<g id="edge13" class="edge">
<title>94334562224688&#45;&gt;94334847001792</title>
<path fill="none" stroke="#ffffff" stroke-width="3" d="M475,-219.0313C475,-239.6238 475,-263.123 475,-282.2146"/>
<polygon fill="#ffffff" stroke="#ffffff" stroke-width="3" points="471.5001,-282.3212 475,-292.3212 478.5001,-282.3212 471.5001,-282.3212"/>
<text text-anchor="middle" x="574" y="-240.8" font-family="Times,serif" font-size="14.00" fill="#ffffff">57069 row(s)/15 chunk(s)/4.118MB</text>
</g>
<!-- 94335594682064 -->
<g id="node15" class="node">
<title>94335594682064</title>
<polygon fill="none" stroke="#ffffff" points="508.5,-69 441.5,-69 441.5,0 508.5,0 508.5,-69"/>
<text text-anchor="middle" x="475" y="-53.8" font-family="Times,serif" font-size="14.00" fill="#ffffff">GetTable</text>
<text text-anchor="middle" x="475" y="-38.8" font-family="Times,serif" font-size="14.00" fill="#ffffff">(orders)</text>
<text text-anchor="middle" x="475" y="-7.8" font-family="Times,serif" font-size="14.00" fill="#ffffff">0 ns</text>
</g>
<!-- 94335594682064&#45;&gt;94334562224688 -->
<g id="edge14" class="edge">
<title>94335594682064&#45;&gt;94334562224688</title>
<path fill="none" stroke="#ffffff" stroke-width="4" d="M475,-69.2659C475,-81.5301 475,-95.6967 475,-109.446"/>
<polygon fill="#ffffff" stroke="#ffffff" stroke-width="4" points="471.5001,-109.8405 475,-119.8405 478.5001,-109.8406 471.5001,-109.8405"/>
<text text-anchor="middle" x="587.5" y="-90.8" font-family="Times,serif" font-size="14.00" fill="#ffffff">1500000 row(s)/15 chunk(s)/114.197MB</text>
</g>
<!-- 94335570115360 -->
<g id="node16" class="node">
<title>94335570115360</title>
<polygon fill="none" stroke="#ffffff" points="732,-489 660,-489 660,-435 732,-435 732,-489"/>
<text text-anchor="middle" x="696" y="-473.8" font-family="Times,serif" font-size="14.00" fill="#ffffff">Projection</text>
<text text-anchor="middle" x="696" y="-442.8" font-family="Times,serif" font-size="14.00" fill="#ffffff">31 µs 0 ns</text>
</g>
<!-- 94335570115360&#45;&gt;94334846992048 -->
<g id="edge15" class="edge">
<title>94335570115360&#45;&gt;94334846992048</title>
<path fill="none" stroke="#ffffff" stroke-width="4" d="M692.6208,-489.3434C689.6673,-504.5233 684.1734,-523.0901 674,-537 671.2653,-540.7391 668.2224,-544.3179 664.9571,-547.7321"/>
<polygon fill="#ffffff" stroke="#ffffff" stroke-width="4" points="662.2514,-545.4791 657.4864,-554.942 667.1125,-550.516 662.2514,-545.4791"/>
<text text-anchor="middle" x="791" y="-525.8" font-family="Times,serif" font-size="14.00" fill="#ffffff">1478870 row(s)/61 chunk(s)/47.345MB</text>
</g>
<!-- 94335594670960 -->
<g id="node17" class="node">
<title>94335594670960</title>
<polygon fill="none" stroke="#ffffff" stroke-width="3" points="767.5,-369 624.5,-369 624.5,-270 767.5,-270 767.5,-369"/>
<text text-anchor="middle" x="696" y="-353.8" font-family="Times,serif" font-size="14.00" fill="#ffffff">TableScan</text>
<text text-anchor="middle" x="696" y="-338.8" font-family="Times,serif" font-size="14.00" fill="#ffffff">Impl: LiteralTableScan</text>
<text text-anchor="middle" x="696" y="-323.8" font-family="Times,serif" font-size="14.00" fill="#ffffff">l_returnflag = </text>
<text text-anchor="middle" x="696" y="-308.8" font-family="Times,serif" font-size="14.00" fill="#ffffff">&#39;R&#39;</text>
<text text-anchor="middle" x="696" y="-277.8" font-family="Times,serif" font-size="14.00" fill="#ffffff">16 ms 657 µs </text>
</g>
<!-- 94335594670960&#45;&gt;94335570115360 -->
<g id="edge16" class="edge">
<title>94335594670960&#45;&gt;94335570115360</title>
<path fill="none" stroke="#ffffff" stroke-width="4" d="M696,-369.3396C696,-387.551 696,-407.8196 696,-424.7453"/>
<polygon fill="#ffffff" stroke="#ffffff" stroke-width="4" points="692.5001,-424.8036 696,-434.8036 699.5001,-424.8037 692.5001,-424.8036"/>
<text text-anchor="middle" x="808.5" y="-390.8" font-family="Times,serif" font-size="14.00" fill="#ffffff">1478870 row(s)/61 chunk(s)/189.358MB</text>
</g>
<!-- 94335594686544 -->
<g id="node18" class="node">
<title>94335594686544</title>
<polygon fill="none" stroke="#ffffff" points="731.5,-204 660.5,-204 660.5,-135 731.5,-135 731.5,-204"/>
<text text-anchor="middle" x="696" y="-188.8" font-family="Times,serif" font-size="14.00" fill="#ffffff">GetTable</text>
<text text-anchor="middle" x="696" y="-173.8" font-family="Times,serif" font-size="14.00" fill="#ffffff">(lineitem)</text>
<text text-anchor="middle" x="696" y="-142.8" font-family="Times,serif" font-size="14.00" fill="#ffffff">0 ns</text>
</g>
<!-- 94335594686544&#45;&gt;94335594670960 -->
<g id="edge17" class="edge">
<title>94335594686544&#45;&gt;94335594670960</title>
<path fill="none" stroke="#ffffff" stroke-width="4" d="M696,-204.29C696,-220.7963 696,-240.9918 696,-259.8376"/>
<polygon fill="#ffffff" stroke="#ffffff" stroke-width="4" points="692.5001,-259.8386 696,-269.8386 699.5001,-259.8386 692.5001,-259.8386"/>
<text text-anchor="middle" x="808.5" y="-240.8" font-family="Times,serif" font-size="14.00" fill="#ffffff">6001215 row(s)/61 chunk(s)/500.660MB</text>
</g>
</g>
</svg>
