<?xml version="1.0" encoding="UTF-8" standalone="no"?>
<!DOCTYPE svg PUBLIC "-//W3C//DTD SVG 1.1//EN"
 "http://www.w3.org/Graphics/SVG/1.1/DTD/svg11.dtd">
<!-- Generated by graphviz version 2.40.1 (20161225.0304)
 -->
<!-- Title: G Pages: 1 -->
<svg width="349pt" height="661pt"
 viewBox="0.00 0.00 349.00 661.00" xmlns="http://www.w3.org/2000/svg" xmlns:xlink="http://www.w3.org/1999/xlink">
<g id="graph0" class="graph" transform="scale(1 1) rotate(0) translate(4 657)">
<title>G</title>
<polygon fill="#000000" stroke="transparent" points="-4,4 -4,-657 345,-657 345,4 -4,4"/>
<!-- 94334848149936 -->
<g id="node1" class="node">
<title>94334848149936</title>
<polygon fill="none" stroke="#ffffff" points="294,-653 20,-653 20,-615 294,-615 294,-653"/>
<text text-anchor="middle" x="157" y="-637.8" font-family="Times,serif" font-size="14.00" fill="#ffffff">Alias [SUM(l_extendedprice * l_discount) AS </text>
<text text-anchor="middle" x="157" y="-622.8" font-family="Times,serif" font-size="14.00" fill="#ffffff">REVENUE] </text>
</g>
<!-- 94335573406832 -->
<g id="node2" class="node">
<title>94335573406832</title>
<polygon fill="none" stroke="#ffffff" points="269.5,-564 44.5,-564 44.5,-526 269.5,-526 269.5,-564"/>
<text text-anchor="middle" x="157" y="-548.8" font-family="Times,serif" font-size="14.00" fill="#ffffff">[Aggregate] GroupBy: [] Aggregates: </text>
<text text-anchor="middle" x="157" y="-533.8" font-family="Times,serif" font-size="14.00" fill="#ffffff">[SUM(l_extendedprice * l_discount)] </text>
</g>
<!-- 94335573406832&#45;&gt;94334848149936 -->
<g id="edge1" class="edge">
<title>94335573406832&#45;&gt;94334848149936</title>
<path fill="none" stroke="#ffffff" stroke-width="3" d="M157,-564.3117C157,-576.091 157,-591.3813 157,-604.6372"/>
<polygon fill="#ffffff" stroke="#ffffff" stroke-width="3" points="153.5001,-604.726 157,-614.726 160.5001,-604.726 153.5001,-604.726"/>
<text text-anchor="middle" x="245.5" y="-585.8" font-family="Times,serif" font-size="14.00" fill="#ffffff"> 563661.0 row(s) | 100.0% estd.</text>
</g>
<!-- 94334702219344 -->
<g id="node3" class="node">
<title>94334702219344</title>
<polygon fill="none" stroke="#ffffff" points="278,-475 36,-475 36,-439 278,-439 278,-475"/>
<text text-anchor="middle" x="157" y="-453.3" font-family="Times,serif" font-size="14.00" fill="#ffffff">[Projection] l_extendedprice * l_discount</text>
</g>
<!-- 94334702219344&#45;&gt;94335573406832 -->
<g id="edge2" class="edge">
<title>94334702219344&#45;&gt;94335573406832</title>
<path fill="none" stroke="#ffffff" stroke-width="3" d="M157,-475.2337C157,-486.9125 157,-502.3308 157,-515.7022"/>
<polygon fill="#ffffff" stroke="#ffffff" stroke-width="3" points="153.5001,-515.8765 157,-525.8765 160.5001,-515.8765 153.5001,-515.8765"/>
<text text-anchor="middle" x="245.5" y="-496.8" font-family="Times,serif" font-size="14.00" fill="#ffffff"> 563661.0 row(s) | 100.0% estd.</text>
</g>
<!-- 94335637165808 -->
<g id="node4" class="node">
<title>94335637165808</title>
<polygon fill="none" stroke="#ffffff" points="277.5,-388 36.5,-388 36.5,-350 277.5,-350 277.5,-388"/>
<text text-anchor="middle" x="157" y="-372.8" font-family="Times,serif" font-size="14.00" fill="#ffffff">[Projection] l_quantity, l_extendedprice, </text>
<text text-anchor="middle" x="157" y="-357.8" font-family="Times,serif" font-size="14.00" fill="#ffffff">l_discount, l_shipdate </text>
</g>
<!-- 94335637165808&#45;&gt;94334702219344 -->
<g id="edge3" class="edge">
<title>94335637165808&#45;&gt;94334702219344</title>
<path fill="none" stroke="#ffffff" stroke-width="3" d="M157,-388.0947C157,-399.981 157,-415.483 157,-428.7725"/>
<polygon fill="#ffffff" stroke="#ffffff" stroke-width="3" points="153.5001,-428.8447 157,-438.8447 160.5001,-428.8448 153.5001,-428.8447"/>
<text text-anchor="middle" x="245.5" y="-409.8" font-family="Times,serif" font-size="14.00" fill="#ffffff"> 563661.0 row(s) | 100.0% estd.</text>
</g>
<!-- 94334848120784 -->
<g id="node5" class="node">
<title>94334848120784</title>
<polygon fill="none" stroke="#ffffff" points="313,-299 1,-299 1,-261 313,-261 313,-299"/>
<text text-anchor="middle" x="157" y="-283.8" font-family="Times,serif" font-size="14.00" fill="#ffffff">[Predicate] l_shipdate BETWEEN &#39;1994&#45;01&#45;01&#39; AND </text>
<text text-anchor="middle" x="157" y="-268.8" font-family="Times,serif" font-size="14.00" fill="#ffffff">&#39;1995&#45;01&#45;00&#39; </text>
</g>
<!-- 94334848120784&#45;&gt;94335637165808 -->
<g id="edge4" class="edge">
<title>94334848120784&#45;&gt;94335637165808</title>
<path fill="none" stroke="#ffffff" stroke-width="3" d="M157,-299.3117C157,-311.091 157,-326.3813 157,-339.6372"/>
<polygon fill="#ffffff" stroke="#ffffff" stroke-width="3" points="153.5001,-339.726 157,-349.726 160.5001,-339.726 153.5001,-339.726"/>
<text text-anchor="middle" x="245.5" y="-320.8" font-family="Times,serif" font-size="14.00" fill="#ffffff"> 563661.0 row(s) | 100.0% estd.</text>
</g>
<!-- 94335637166112 -->
<g id="node6" class="node">
<title>94335637166112</title>
<polygon fill="none" stroke="#ffffff" points="239,-210 75,-210 75,-174 239,-174 239,-210"/>
<text text-anchor="middle" x="157" y="-188.3" font-family="Times,serif" font-size="14.00" fill="#ffffff">[Predicate] l_quantity &lt; 24</text>
</g>
<!-- 94335637166112&#45;&gt;94334848120784 -->
<g id="edge5" class="edge">
<title>94335637166112&#45;&gt;94334848120784</title>
<path fill="none" stroke="#ffffff" stroke-width="3" d="M157,-210.2337C157,-221.9125 157,-237.3308 157,-250.7022"/>
<polygon fill="#ffffff" stroke="#ffffff" stroke-width="3" points="153.5001,-250.8765 157,-260.8765 160.5001,-250.8765 153.5001,-250.8765"/>
<text text-anchor="middle" x="242" y="-231.8" font-family="Times,serif" font-size="14.00" fill="#ffffff"> 563661.0 row(s) | 46.9% estd.</text>
</g>
<!-- 94334702219776 -->
<g id="node7" class="node">
<title>94334702219776</title>
<polygon fill="none" stroke="#ffffff" points="314,-123 0,-123 0,-87 314,-87 314,-123"/>
<text text-anchor="middle" x="157" y="-101.3" font-family="Times,serif" font-size="14.00" fill="#ffffff">[Predicate] l_discount BETWEEN 0.05 AND 0.07001</text>
</g>
<!-- 94334702219776&#45;&gt;94335637166112 -->
<g id="edge6" class="edge">
<title>94334702219776&#45;&gt;94335637166112</title>
<path fill="none" stroke="#ffffff" stroke-width="4" d="M157,-123.0265C157,-134.8082 157,-150.4393 157,-163.8419"/>
<polygon fill="#ffffff" stroke="#ffffff" stroke-width="4" points="153.5001,-163.9966 157,-173.9966 160.5001,-163.9967 153.5001,-163.9966"/>
<text text-anchor="middle" x="245.5" y="-144.8" font-family="Times,serif" font-size="14.00" fill="#ffffff"> 1200843.0 row(s) | 20.0% estd.</text>
</g>
<!-- 94334334395712 -->
<g id="node8" class="node">
<title>94334334395712</title>
<polygon fill="none" stroke="#ffffff" points="249.5,-36 64.5,-36 64.5,0 249.5,0 249.5,-36"/>
<text text-anchor="middle" x="157" y="-14.3" font-family="Times,serif" font-size="14.00" fill="#ffffff">[StoredTable] Name: &#39;lineitem&#39;</text>
</g>
<!-- 94334334395712&#45;&gt;94334702219776 -->
<g id="edge7" class="edge">
<title>94334334395712&#45;&gt;94334702219776</title>
<path fill="none" stroke="#ffffff" stroke-width="4" d="M157,-36.0265C157,-47.8082 157,-63.4393 157,-76.8419"/>
<polygon fill="#ffffff" stroke="#ffffff" stroke-width="4" points="153.5001,-76.9966 157,-86.9966 160.5001,-76.9967 153.5001,-76.9966"/>
<text text-anchor="middle" x="249" y="-57.8" font-family="Times,serif" font-size="14.00" fill="#ffffff"> 6001215.0 row(s) | 100.0% estd.</text>
</g>
</g>
</svg>
