<?xml version="1.0" encoding="UTF-8" standalone="no"?>
<!DOCTYPE svg PUBLIC "-//W3C//DTD SVG 1.1//EN"
 "http://www.w3.org/Graphics/SVG/1.1/DTD/svg11.dtd">
<!-- Generated by graphviz version 2.40.1 (20161225.0304)
 -->
<!-- Title: G Pages: 1 -->
<svg width="604pt" height="898pt"
 viewBox="0.00 0.00 603.50 898.00" xmlns="http://www.w3.org/2000/svg" xmlns:xlink="http://www.w3.org/1999/xlink">
<g id="graph0" class="graph" transform="scale(1 1) rotate(0) translate(4 894)">
<title>G</title>
<polygon fill="#000000" stroke="transparent" points="-4,4 -4,-894 599.5,-894 599.5,4 -4,4"/>
<!-- 94379003446448 -->
<g id="node1" class="node">
<title>94379003446448</title>
<polygon fill="none" stroke="#ffffff" points="435.5,-890 133.5,-890 133.5,-852 435.5,-852 435.5,-890"/>
<text text-anchor="middle" x="284.5" y="-874.8" font-family="Times,serif" font-size="14.00" fill="#ffffff">Alias [SUM(l_extendedprice * (1 &#45; l_discount)) AS </text>
<text text-anchor="middle" x="284.5" y="-859.8" font-family="Times,serif" font-size="14.00" fill="#ffffff">revenue] </text>
</g>
<!-- 94379003445168 -->
<g id="node2" class="node">
<title>94379003445168</title>
<polygon fill="none" stroke="#ffffff" points="411,-801 158,-801 158,-763 411,-763 411,-801"/>
<text text-anchor="middle" x="284.5" y="-785.8" font-family="Times,serif" font-size="14.00" fill="#ffffff">[Aggregate] GroupBy: [] Aggregates: </text>
<text text-anchor="middle" x="284.5" y="-770.8" font-family="Times,serif" font-size="14.00" fill="#ffffff">[SUM(l_extendedprice * (1 &#45; l_discount))] </text>
</g>
<!-- 94379003445168&#45;&gt;94379003446448 -->
<g id="edge1" class="edge">
<title>94379003445168&#45;&gt;94379003446448</title>
<path fill="none" stroke="#ffffff" stroke-width="4" d="M284.5,-801.3117C284.5,-813.091 284.5,-828.3813 284.5,-841.6372"/>
<polygon fill="#ffffff" stroke="#ffffff" stroke-width="4" points="281.0001,-841.726 284.5,-851.726 288.0001,-841.726 281.0001,-841.726"/>
<text text-anchor="middle" x="376.5" y="-822.8" font-family="Times,serif" font-size="14.00" fill="#ffffff"> 1500303.6 row(s) | 100.0% estd.</text>
</g>
<!-- 94378998942512 -->
<g id="node3" class="node">
<title>94378998942512</title>
<polygon fill="none" stroke="#ffffff" points="419,-712 150,-712 150,-676 419,-676 419,-712"/>
<text text-anchor="middle" x="284.5" y="-690.3" font-family="Times,serif" font-size="14.00" fill="#ffffff">[Projection] l_extendedprice * (1 &#45; l_discount)</text>
</g>
<!-- 94378998942512&#45;&gt;94379003445168 -->
<g id="edge2" class="edge">
<title>94378998942512&#45;&gt;94379003445168</title>
<path fill="none" stroke="#ffffff" stroke-width="4" d="M284.5,-712.2337C284.5,-723.9125 284.5,-739.3308 284.5,-752.7022"/>
<polygon fill="#ffffff" stroke="#ffffff" stroke-width="4" points="281.0001,-752.8765 284.5,-762.8765 288.0001,-752.8765 281.0001,-752.8765"/>
<text text-anchor="middle" x="376.5" y="-733.8" font-family="Times,serif" font-size="14.00" fill="#ffffff"> 1500303.6 row(s) | 100.0% estd.</text>
</g>
<!-- 94379035761840 -->
<g id="node4" class="node">
<title>94379035761840</title>
<polygon fill="none" stroke="#ffffff" points="453,-625 116,-625 116,-452 453,-452 453,-625"/>
<text text-anchor="middle" x="284.5" y="-609.8" font-family="Times,serif" font-size="14.00" fill="#ffffff">[Predicate] (((((p_size BETWEEN 1 AND 15 AND </text>
<text text-anchor="middle" x="284.5" y="-594.8" font-family="Times,serif" font-size="14.00" fill="#ffffff">l_quantity &lt;= 30) AND l_quantity &gt;= 20) AND </text>
<text text-anchor="middle" x="284.5" y="-579.8" font-family="Times,serif" font-size="14.00" fill="#ffffff">(p_container) IN (&#39;LG CASE&#39;, &#39;LG BOX&#39;, &#39;LG PACK&#39;, </text>
<text text-anchor="middle" x="284.5" y="-564.8" font-family="Times,serif" font-size="14.00" fill="#ffffff">&#39;LG PKG&#39;)) AND p_brand = &#39;Brand#34&#39;) OR </text>
<text text-anchor="middle" x="284.5" y="-549.8" font-family="Times,serif" font-size="14.00" fill="#ffffff">((((p_size BETWEEN 1 AND 5 AND l_quantity &lt;= 11) </text>
<text text-anchor="middle" x="284.5" y="-534.8" font-family="Times,serif" font-size="14.00" fill="#ffffff">AND l_quantity &gt;= 1) AND (p_container) IN (&#39;SM </text>
<text text-anchor="middle" x="284.5" y="-519.8" font-family="Times,serif" font-size="14.00" fill="#ffffff">CASE&#39;, &#39;SM BOX&#39;, &#39;SM PACK&#39;, &#39;SM PKG&#39;)) AND </text>
<text text-anchor="middle" x="284.5" y="-504.8" font-family="Times,serif" font-size="14.00" fill="#ffffff">p_brand = &#39;Brand#12&#39;)) OR ((((p_size BETWEEN 1 </text>
<text text-anchor="middle" x="284.5" y="-489.8" font-family="Times,serif" font-size="14.00" fill="#ffffff">AND 10 AND l_quantity &lt;= 20) AND l_quantity &gt;= </text>
<text text-anchor="middle" x="284.5" y="-474.8" font-family="Times,serif" font-size="14.00" fill="#ffffff">10) AND (p_container) IN (&#39;MED BAG&#39;, &#39;MED BOX&#39;, </text>
<text text-anchor="middle" x="284.5" y="-459.8" font-family="Times,serif" font-size="14.00" fill="#ffffff">&#39;MED PKG&#39;, &#39;MED PACK&#39;)) AND p_brand = &#39;Brand#23&#39;) </text>
</g>
<!-- 94379035761840&#45;&gt;94378998942512 -->
<g id="edge3" class="edge">
<title>94379035761840&#45;&gt;94378998942512</title>
<path fill="none" stroke="#ffffff" stroke-width="4" d="M284.5,-625.3428C284.5,-639.8935 284.5,-654.0135 284.5,-665.6265"/>
<polygon fill="#ffffff" stroke="#ffffff" stroke-width="4" points="281.0001,-665.9246 284.5,-675.9246 288.0001,-665.9246 281.0001,-665.9246"/>
<text text-anchor="middle" x="376.5" y="-646.8" font-family="Times,serif" font-size="14.00" fill="#ffffff"> 1500303.6 row(s) | 100.0% estd.</text>
</g>
<!-- 94379006546640 -->
<g id="node5" class="node">
<title>94379006546640</title>
<polygon fill="none" stroke="#ffffff" points="407,-401 162,-401 162,-365 407,-365 407,-401"/>
<text text-anchor="middle" x="284.5" y="-379.3" font-family="Times,serif" font-size="14.00" fill="#ffffff">[Join] Mode: Inner p_partkey = l_partkey</text>
</g>
<!-- 94379006546640&#45;&gt;94379035761840 -->
<g id="edge4" class="edge">
<title>94379006546640&#45;&gt;94379035761840</title>
<path fill="none" stroke="#ffffff" stroke-width="4" d="M284.5,-401.1422C284.5,-411.7888 284.5,-426.1621 284.5,-441.6104"/>
<polygon fill="#ffffff" stroke="#ffffff" stroke-width="4" points="281.0001,-441.8889 284.5,-451.8889 288.0001,-441.889 281.0001,-441.8889"/>
<text text-anchor="middle" x="369.5" y="-422.8" font-family="Times,serif" font-size="14.00" fill="#ffffff"> 1500303.6 row(s) | 0.0% estd.</text>
</g>
<!-- 94379035761136 -->
<g id="node6" class="node">
<title>94379035761136</title>
<polygon fill="none" stroke="#ffffff" points="280,-314 25,-314 25,-261 280,-261 280,-314"/>
<text text-anchor="middle" x="152.5" y="-298.8" font-family="Times,serif" font-size="14.00" fill="#ffffff">[Projection] l_partkey, l_quantity, </text>
<text text-anchor="middle" x="152.5" y="-283.8" font-family="Times,serif" font-size="14.00" fill="#ffffff">l_extendedprice, l_discount, l_shipinstruct, </text>
<text text-anchor="middle" x="152.5" y="-268.8" font-family="Times,serif" font-size="14.00" fill="#ffffff">l_shipmode </text>
</g>
<!-- 94379035761136&#45;&gt;94379006546640 -->
<g id="edge5" class="edge">
<title>94379035761136&#45;&gt;94379006546640</title>
<path fill="none" stroke="#ffffff" stroke-width="4" d="M168.0959,-314.0798C175.7937,-325.4108 185.9187,-338.0523 197.5,-347 204.1011,-352.1 211.5275,-356.5972 219.1879,-360.5293"/>
<polygon fill="#ffffff" stroke="#ffffff" stroke-width="4" points="217.7237,-363.7088 228.2527,-364.888 220.7571,-357.4002 217.7237,-363.7088"/>
<text text-anchor="middle" x="289.5" y="-335.8" font-family="Times,serif" font-size="14.00" fill="#ffffff"> 1500303.8 row(s) | 100.0% estd.</text>
</g>
<!-- 94379035760928 -->
<g id="node7" class="node">
<title>94379035760928</title>
<polygon fill="none" stroke="#ffffff" points="291,-210 14,-210 14,-174 291,-174 291,-210"/>
<text text-anchor="middle" x="152.5" y="-188.3" font-family="Times,serif" font-size="14.00" fill="#ffffff">[Predicate] (l_shipmode) IN (&#39;AIR&#39;, &#39;AIR REG&#39;)</text>
</g>
<!-- 94379035760928&#45;&gt;94379035761136 -->
<g id="edge6" class="edge">
<title>94379035760928&#45;&gt;94379035761136</title>
<path fill="none" stroke="#ffffff" stroke-width="4" d="M152.5,-210.4134C152.5,-221.816 152.5,-236.8627 152.5,-250.6338"/>
<polygon fill="#ffffff" stroke="#ffffff" stroke-width="4" points="149.0001,-250.8344 152.5,-260.8345 156.0001,-250.8345 149.0001,-250.8344"/>
<text text-anchor="middle" x="244.5" y="-231.8" font-family="Times,serif" font-size="14.00" fill="#ffffff"> 1500303.8 row(s) | 100.0% estd.</text>
</g>
<!-- 94379035761376 -->
<g id="node8" class="node">
<title>94379035761376</title>
<polygon fill="none" stroke="#ffffff" points="305,-123 0,-123 0,-87 305,-87 305,-123"/>
<text text-anchor="middle" x="152.5" y="-101.3" font-family="Times,serif" font-size="14.00" fill="#ffffff">[Predicate] l_shipinstruct = &#39;DELIVER IN PERSON&#39;</text>
</g>
<!-- 94379035761376&#45;&gt;94379035760928 -->
<g id="edge7" class="edge">
<title>94379035761376&#45;&gt;94379035760928</title>
<path fill="none" stroke="#ffffff" stroke-width="4" d="M152.5,-123.0265C152.5,-134.8082 152.5,-150.4393 152.5,-163.8419"/>
<polygon fill="#ffffff" stroke="#ffffff" stroke-width="4" points="149.0001,-163.9966 152.5,-173.9966 156.0001,-163.9967 149.0001,-163.9966"/>
<text text-anchor="middle" x="241" y="-144.8" font-family="Times,serif" font-size="14.00" fill="#ffffff"> 1500303.8 row(s) | 25.0% estd.</text>
</g>
<!-- 94379035831504 -->
<g id="node9" class="node">
<title>94379035831504</title>
<polygon fill="none" stroke="#ffffff" points="245,-36 60,-36 60,0 245,0 245,-36"/>
<text text-anchor="middle" x="152.5" y="-14.3" font-family="Times,serif" font-size="14.00" fill="#ffffff">[StoredTable] Name: &#39;lineitem&#39;</text>
</g>
<!-- 94379035831504&#45;&gt;94379035761376 -->
<g id="edge8" class="edge">
<title>94379035831504&#45;&gt;94379035761376</title>
<path fill="none" stroke="#ffffff" stroke-width="4" d="M152.5,-36.0265C152.5,-47.8082 152.5,-63.4393 152.5,-76.8419"/>
<polygon fill="#ffffff" stroke="#ffffff" stroke-width="4" points="149.0001,-76.9966 152.5,-86.9966 156.0001,-76.9967 149.0001,-76.9966"/>
<text text-anchor="middle" x="244.5" y="-57.8" font-family="Times,serif" font-size="14.00" fill="#ffffff"> 6001215.0 row(s) | 100.0% estd.</text>
</g>
<!-- 94379003444608 -->
<g id="node10" class="node">
<title>94379003444608</title>
<polygon fill="none" stroke="#ffffff" points="538.5,-306.5 298.5,-306.5 298.5,-268.5 538.5,-268.5 538.5,-306.5"/>
<text text-anchor="middle" x="418.5" y="-291.3" font-family="Times,serif" font-size="14.00" fill="#ffffff">[Projection] p_partkey, p_brand, p_size, </text>
<text text-anchor="middle" x="418.5" y="-276.3" font-family="Times,serif" font-size="14.00" fill="#ffffff">p_container </text>
</g>
<!-- 94379003444608&#45;&gt;94379006546640 -->
<g id="edge9" class="edge">
<title>94379003444608&#45;&gt;94379006546640</title>
<path fill="none" stroke="#ffffff" stroke-width="3" d="M410.5846,-306.7218C404.3778,-319.6813 394.5949,-336.3036 381.5,-347 375.2398,-352.1135 368.1833,-356.5417 360.8038,-360.3675"/>
<polygon fill="#ffffff" stroke="#ffffff" stroke-width="3" points="358.8344,-357.4293 351.3193,-364.8975 361.8514,-363.7458 358.8344,-357.4293"/>
<text text-anchor="middle" x="484" y="-335.8" font-family="Times,serif" font-size="14.00" fill="#ffffff"> 200000.0 row(s) | 100.0% estd.</text>
</g>
<!-- 94378047207120 -->
<g id="node11" class="node">
<title>94378047207120</title>
<polygon fill="none" stroke="#ffffff" points="499,-210 338,-210 338,-174 499,-174 499,-210"/>
<text text-anchor="middle" x="418.5" y="-188.3" font-family="Times,serif" font-size="14.00" fill="#ffffff">[StoredTable] Name: &#39;part&#39;</text>
</g>
<!-- 94378047207120&#45;&gt;94379003444608 -->
<g id="edge10" class="edge">
<title>94378047207120&#45;&gt;94379003444608</title>
<path fill="none" stroke="#ffffff" stroke-width="3" d="M418.5,-210.4134C418.5,-223.9773 418.5,-242.6976 418.5,-258.2934"/>
<polygon fill="#ffffff" stroke="#ffffff" stroke-width="3" points="415.0001,-258.4895 418.5,-268.4895 422.0001,-258.4895 415.0001,-258.4895"/>
<text text-anchor="middle" x="507" y="-231.8" font-family="Times,serif" font-size="14.00" fill="#ffffff"> 200000.0 row(s) | 100.0% estd.</text>
</g>
</g>
</svg>
