<?xml version="1.0" encoding="UTF-8" standalone="no"?>
<!DOCTYPE svg PUBLIC "-//W3C//DTD SVG 1.1//EN"
 "http://www.w3.org/Graphics/SVG/1.1/DTD/svg11.dtd">
<!-- Generated by graphviz version 2.40.1 (20161225.0304)
 -->
<!-- Title: G Pages: 1 -->
<svg width="529pt" height="1247pt"
 viewBox="0.00 0.00 528.50 1247.00" xmlns="http://www.w3.org/2000/svg" xmlns:xlink="http://www.w3.org/1999/xlink">
<g id="graph0" class="graph" transform="scale(1 1) rotate(0) translate(4 1243)">
<title>G</title>
<polygon fill="#000000" stroke="transparent" points="-4,4 -4,-1243 524.5,-1243 524.5,4 -4,4"/>
<!-- 94334829910848 -->
<g id="node1" class="node">
<title>94334829910848</title>
<polygon fill="none" stroke="#ffffff" points="249,-1239 148,-1239 148,-1185 249,-1185 249,-1239"/>
<text text-anchor="middle" x="198.5" y="-1223.8" font-family="Times,serif" font-size="14.00" fill="#ffffff">Alias [revenue]</text>
<text text-anchor="middle" x="198.5" y="-1192.8" font-family="Times,serif" font-size="14.00" fill="#ffffff">0 ns</text>
</g>
<!-- 94335594683248 -->
<g id="node2" class="node">
<title>94335594683248</title>
<polygon fill="none" stroke="#ffffff" points="340.5,-1134 56.5,-1134 56.5,-1065 340.5,-1065 340.5,-1134"/>
<text text-anchor="middle" x="198.5" y="-1118.8" font-family="Times,serif" font-size="14.00" fill="#ffffff">[Aggregate] GroupBy ColumnIDs: &#160;Aggregates: </text>
<text text-anchor="middle" x="198.5" y="-1103.8" font-family="Times,serif" font-size="14.00" fill="#ffffff">SUM(Column #0)</text>
<text text-anchor="middle" x="198.5" y="-1072.8" font-family="Times,serif" font-size="14.00" fill="#ffffff">26 µs 0 ns </text>
</g>
<!-- 94335594683248&#45;&gt;94334829910848 -->
<g id="edge1" class="edge">
<title>94335594683248&#45;&gt;94334829910848</title>
<path fill="none" stroke="#ffffff" d="M198.5,-1134.1717C198.5,-1147.0092 198.5,-1161.6141 198.5,-1174.6774"/>
<polygon fill="#ffffff" stroke="#ffffff" points="195.0001,-1174.7601 198.5,-1184.7602 202.0001,-1174.7602 195.0001,-1174.7601"/>
<text text-anchor="middle" x="269" y="-1155.8" font-family="Times,serif" font-size="14.00" fill="#ffffff">1 row(s)/1 chunk(s)/456B</text>
</g>
<!-- 94334713559984 -->
<g id="node3" class="node">
<title>94334713559984</title>
<polygon fill="none" stroke="#ffffff" stroke-width="2" points="238,-1014 159,-1014 159,-960 238,-960 238,-1014"/>
<text text-anchor="middle" x="198.5" y="-998.8" font-family="Times,serif" font-size="14.00" fill="#ffffff">Projection</text>
<text text-anchor="middle" x="198.5" y="-967.8" font-family="Times,serif" font-size="14.00" fill="#ffffff">259 µs 0 ns</text>
</g>
<!-- 94334713559984&#45;&gt;94335594683248 -->
<g id="edge2" class="edge">
<title>94334713559984&#45;&gt;94335594683248</title>
<path fill="none" stroke="#ffffff" stroke-width="2" d="M198.5,-1014.2331C198.5,-1026.3589 198.5,-1040.9621 198.5,-1054.6298"/>
<polygon fill="#ffffff" stroke="#ffffff" stroke-width="2" points="195.0001,-1054.8427 198.5,-1064.8427 202.0001,-1054.8428 195.0001,-1054.8427"/>
<text text-anchor="middle" x="292.5" y="-1035.8" font-family="Times,serif" font-size="14.00" fill="#ffffff">121 row(s)/51 chunk(s)/15.726KB</text>
</g>
<!-- 94334827809504 -->
<g id="node4" class="node">
<title>94334827809504</title>
<polygon fill="none" stroke="#ffffff" stroke-width="3" points="377,-909 20,-909 20,-660 377,-660 377,-909"/>
<text text-anchor="middle" x="198.5" y="-893.8" font-family="Times,serif" font-size="14.00" fill="#ffffff">TableScan</text>
<text text-anchor="middle" x="198.5" y="-878.8" font-family="Times,serif" font-size="14.00" fill="#ffffff">Impl: ExpressionEvaluator</text>
<text text-anchor="middle" x="198.5" y="-863.8" font-family="Times,serif" font-size="14.00" fill="#ffffff">((((p_size </text>
<text text-anchor="middle" x="198.5" y="-848.8" font-family="Times,serif" font-size="14.00" fill="#ffffff">BETWEEN 1 AND 15 AND l_quantity BETWEEN 20 AND </text>
<text text-anchor="middle" x="198.5" y="-833.8" font-family="Times,serif" font-size="14.00" fill="#ffffff">30) AND (p_container) IN (&#39;LG CASE&#39;, &#39;LG BOX&#39;, </text>
<text text-anchor="middle" x="198.5" y="-818.8" font-family="Times,serif" font-size="14.00" fill="#ffffff">&#39;LG PACK&#39;, &#39;LG PKG&#39;)) AND p_brand = &#39;Brand#34&#39;) </text>
<text text-anchor="middle" x="198.5" y="-803.8" font-family="Times,serif" font-size="14.00" fill="#ffffff">OR (((p_size BETWEEN 1 AND 5 AND l_quantity </text>
<text text-anchor="middle" x="198.5" y="-788.8" font-family="Times,serif" font-size="14.00" fill="#ffffff">BETWEEN 1 AND 11) AND (p_container) IN (&#39;SM </text>
<text text-anchor="middle" x="198.5" y="-773.8" font-family="Times,serif" font-size="14.00" fill="#ffffff">CASE&#39;, &#39;SM BOX&#39;, &#39;SM PACK&#39;, &#39;SM PKG&#39;)) AND </text>
<text text-anchor="middle" x="198.5" y="-758.8" font-family="Times,serif" font-size="14.00" fill="#ffffff">p_brand = &#39;Brand#12&#39;)) OR (((p_size BETWEEN 1 AND </text>
<text text-anchor="middle" x="198.5" y="-743.8" font-family="Times,serif" font-size="14.00" fill="#ffffff">10 AND l_quantity BETWEEN 10 AND 20) AND </text>
<text text-anchor="middle" x="198.5" y="-728.8" font-family="Times,serif" font-size="14.00" fill="#ffffff">(p_container) IN (&#39;MED BAG&#39;, &#39;MED BOX&#39;, &#39;MED </text>
<text text-anchor="middle" x="198.5" y="-713.8" font-family="Times,serif" font-size="14.00" fill="#ffffff">PKG&#39;, &#39;MED PACK&#39;)) AND p_brand = &#39;Brand#23&#39;)</text>
<text text-anchor="middle" x="198.5" y="-682.8" font-family="Times,serif" font-size="14.00" fill="#ffffff">59 </text>
<text text-anchor="middle" x="198.5" y="-667.8" font-family="Times,serif" font-size="14.00" fill="#ffffff">ms 984 µs </text>
</g>
<!-- 94334827809504&#45;&gt;94334713559984 -->
<g id="edge3" class="edge">
<title>94334827809504&#45;&gt;94334713559984</title>
<path fill="none" stroke="#ffffff" stroke-width="2" d="M198.5,-909.2873C198.5,-923.869 198.5,-937.7611 198.5,-949.6609"/>
<polygon fill="#ffffff" stroke="#ffffff" stroke-width="2" points="195.0001,-949.9918 198.5,-959.9918 202.0001,-949.9918 195.0001,-949.9918"/>
<text text-anchor="middle" x="292.5" y="-930.8" font-family="Times,serif" font-size="14.00" fill="#ffffff">121 row(s)/51 chunk(s)/44.981KB</text>
</g>
<!-- 94334827810736 -->
<g id="node5" class="node">
<title>94334827810736</title>
<polygon fill="none" stroke="#ffffff" stroke-width="3" points="290,-609 107,-609 107,-525 290,-525 290,-609"/>
<text text-anchor="middle" x="198.5" y="-593.8" font-family="Times,serif" font-size="14.00" fill="#ffffff">JoinHash</text>
<text text-anchor="middle" x="198.5" y="-578.8" font-family="Times,serif" font-size="14.00" fill="#ffffff">(Inner Join where l_partkey = </text>
<text text-anchor="middle" x="198.5" y="-563.8" font-family="Times,serif" font-size="14.00" fill="#ffffff">p_partkey)</text>
<text text-anchor="middle" x="198.5" y="-532.8" font-family="Times,serif" font-size="14.00" fill="#ffffff">20 ms 797 µs </text>
</g>
<!-- 94334827810736&#45;&gt;94334827809504 -->
<g id="edge4" class="edge">
<title>94334827810736&#45;&gt;94334827809504</title>
<path fill="none" stroke="#ffffff" stroke-width="3" d="M198.5,-609.1941C198.5,-621.2388 198.5,-635.0534 198.5,-649.527"/>
<polygon fill="#ffffff" stroke="#ffffff" stroke-width="3" points="195.0001,-649.6387 198.5,-659.6388 202.0001,-649.6388 195.0001,-649.6387"/>
<text text-anchor="middle" x="304" y="-630.8" font-family="Times,serif" font-size="14.00" fill="#ffffff">214377 row(s)/64 chunk(s)/17.194MB</text>
</g>
<!-- 94334713560256 -->
<g id="node6" class="node">
<title>94334713560256</title>
<polygon fill="none" stroke="#ffffff" points="117.5,-474 45.5,-474 45.5,-420 117.5,-420 117.5,-474"/>
<text text-anchor="middle" x="81.5" y="-458.8" font-family="Times,serif" font-size="14.00" fill="#ffffff">Projection</text>
<text text-anchor="middle" x="81.5" y="-427.8" font-family="Times,serif" font-size="14.00" fill="#ffffff">47 µs 0 ns</text>
</g>
<!-- 94334713560256&#45;&gt;94334827810736 -->
<g id="edge5" class="edge">
<title>94334713560256&#45;&gt;94334827810736</title>
<path fill="none" stroke="#ffffff" stroke-width="3" d="M76.1909,-474.0841C75.446,-485.0392 76.5156,-497.3491 82.5,-507 86.9658,-514.2019 92.6002,-520.5799 98.9667,-526.2209"/>
<polygon fill="#ffffff" stroke="#ffffff" stroke-width="3" points="96.7725,-528.9477 106.7506,-532.5096 101.1716,-523.5027 96.7725,-528.9477"/>
<text text-anchor="middle" x="188" y="-495.8" font-family="Times,serif" font-size="14.00" fill="#ffffff">214377 row(s)/61 chunk(s)/10.318MB</text>
</g>
<!-- 94334780042032 -->
<g id="node7" class="node">
<title>94334780042032</title>
<polygon fill="none" stroke="#ffffff" stroke-width="3" points="163,-369 0,-369 0,-270 163,-270 163,-369"/>
<text text-anchor="middle" x="81.5" y="-353.8" font-family="Times,serif" font-size="14.00" fill="#ffffff">TableScan</text>
<text text-anchor="middle" x="81.5" y="-338.8" font-family="Times,serif" font-size="14.00" fill="#ffffff">Impl: ExpressionEvaluator</text>
<text text-anchor="middle" x="81.5" y="-323.8" font-family="Times,serif" font-size="14.00" fill="#ffffff">(l_shipmode) </text>
<text text-anchor="middle" x="81.5" y="-308.8" font-family="Times,serif" font-size="14.00" fill="#ffffff">IN (&#39;AIR&#39;, &#39;AIR REG&#39;)</text>
<text text-anchor="middle" x="81.5" y="-277.8" font-family="Times,serif" font-size="14.00" fill="#ffffff">46 ms 521 µs </text>
</g>
<!-- 94334780042032&#45;&gt;94334713560256 -->
<g id="edge6" class="edge">
<title>94334780042032&#45;&gt;94334713560256</title>
<path fill="none" stroke="#ffffff" stroke-width="3" d="M81.5,-369.1599C81.5,-382.598 81.5,-396.9153 81.5,-409.5584"/>
<polygon fill="#ffffff" stroke="#ffffff" stroke-width="3" points="78.0001,-409.7287 81.5,-419.7287 85.0001,-409.7288 78.0001,-409.7287"/>
<text text-anchor="middle" x="187" y="-390.8" font-family="Times,serif" font-size="14.00" fill="#ffffff">214377 row(s)/61 chunk(s)/27.503MB</text>
</g>
<!-- 94334758876288 -->
<g id="node8" class="node">
<title>94334758876288</title>
<polygon fill="none" stroke="#ffffff" stroke-width="3" points="157.5,-219 5.5,-219 5.5,-120 157.5,-120 157.5,-219"/>
<text text-anchor="middle" x="81.5" y="-203.8" font-family="Times,serif" font-size="14.00" fill="#ffffff">TableScan</text>
<text text-anchor="middle" x="81.5" y="-188.8" font-family="Times,serif" font-size="14.00" fill="#ffffff">Impl: LiteralTableScan</text>
<text text-anchor="middle" x="81.5" y="-173.8" font-family="Times,serif" font-size="14.00" fill="#ffffff">l_shipinstruct = </text>
<text text-anchor="middle" x="81.5" y="-158.8" font-family="Times,serif" font-size="14.00" fill="#ffffff">&#39;DELIVER IN PERSON&#39;</text>
<text text-anchor="middle" x="81.5" y="-127.8" font-family="Times,serif" font-size="14.00" fill="#ffffff">17 ms 319 µs </text>
</g>
<!-- 94334758876288&#45;&gt;94334780042032 -->
<g id="edge7" class="edge">
<title>94334758876288&#45;&gt;94334780042032</title>
<path fill="none" stroke="#ffffff" stroke-width="4" d="M81.5,-219.0313C81.5,-232.0196 81.5,-246.1643 81.5,-259.63"/>
<polygon fill="#ffffff" stroke="#ffffff" stroke-width="4" points="78.0001,-259.7646 81.5,-269.7646 85.0001,-259.7646 78.0001,-259.7646"/>
<text text-anchor="middle" x="194" y="-240.8" font-family="Times,serif" font-size="14.00" fill="#ffffff">1500048 row(s)/61 chunk(s)/192.068MB</text>
</g>
<!-- 94334827953968 -->
<g id="node9" class="node">
<title>94334827953968</title>
<polygon fill="none" stroke="#ffffff" points="117,-69 46,-69 46,0 117,0 117,-69"/>
<text text-anchor="middle" x="81.5" y="-53.8" font-family="Times,serif" font-size="14.00" fill="#ffffff">GetTable</text>
<text text-anchor="middle" x="81.5" y="-38.8" font-family="Times,serif" font-size="14.00" fill="#ffffff">(lineitem)</text>
<text text-anchor="middle" x="81.5" y="-7.8" font-family="Times,serif" font-size="14.00" fill="#ffffff">0 ns</text>
</g>
<!-- 94334827953968&#45;&gt;94334758876288 -->
<g id="edge8" class="edge">
<title>94334827953968&#45;&gt;94334758876288</title>
<path fill="none" stroke="#ffffff" stroke-width="4" d="M81.5,-69.2659C81.5,-81.5301 81.5,-95.6967 81.5,-109.446"/>
<polygon fill="#ffffff" stroke="#ffffff" stroke-width="4" points="78.0001,-109.8405 81.5,-119.8405 85.0001,-109.8406 78.0001,-109.8405"/>
<text text-anchor="middle" x="194" y="-90.8" font-family="Times,serif" font-size="14.00" fill="#ffffff">6001215 row(s)/61 chunk(s)/500.660MB</text>
</g>
<!-- 94334790543120 -->
<g id="node10" class="node">
<title>94334790543120</title>
<polygon fill="none" stroke="#ffffff" stroke-width="2" points="355,-474 276,-474 276,-420 355,-420 355,-474"/>
<text text-anchor="middle" x="315.5" y="-458.8" font-family="Times,serif" font-size="14.00" fill="#ffffff">Projection</text>
<text text-anchor="middle" x="315.5" y="-427.8" font-family="Times,serif" font-size="14.00" fill="#ffffff">103 µs 0 ns</text>
</g>
<!-- 94334790543120&#45;&gt;94334827810736 -->
<g id="edge9" class="edge">
<title>94334790543120&#45;&gt;94334827810736</title>
<path fill="none" stroke="#ffffff" stroke-width="3" d="M309.678,-474.0226C306.3092,-485.0932 301.1689,-497.5061 293.5,-507 290.4432,-510.7842 287.0805,-514.4005 283.5005,-517.8457"/>
<polygon fill="#ffffff" stroke="#ffffff" stroke-width="3" points="280.9886,-515.3969 275.8751,-524.6761 285.6591,-520.611 280.9886,-515.3969"/>
<text text-anchor="middle" x="401.5" y="-495.8" font-family="Times,serif" font-size="14.00" fill="#ffffff">200000 row(s)/2 chunk(s)/4.605MB</text>
</g>
<!-- 94334795595024 -->
<g id="node11" class="node">
<title>94334795595024</title>
<polygon fill="none" stroke="#ffffff" points="349,-354 282,-354 282,-285 349,-285 349,-354"/>
<text text-anchor="middle" x="315.5" y="-338.8" font-family="Times,serif" font-size="14.00" fill="#ffffff">GetTable</text>
<text text-anchor="middle" x="315.5" y="-323.8" font-family="Times,serif" font-size="14.00" fill="#ffffff">(part)</text>
<text text-anchor="middle" x="315.5" y="-292.8" font-family="Times,serif" font-size="14.00" fill="#ffffff">0 ns</text>
</g>
<!-- 94334795595024&#45;&gt;94334790543120 -->
<g id="edge10" class="edge">
<title>94334795595024&#45;&gt;94334790543120</title>
<path fill="none" stroke="#ffffff" stroke-width="3" d="M315.5,-354.0033C315.5,-371.104 315.5,-391.7892 315.5,-409.3049"/>
<polygon fill="#ffffff" stroke="#ffffff" stroke-width="3" points="312.0001,-409.7409 315.5,-419.7409 319.0001,-409.741 312.0001,-409.7409"/>
<text text-anchor="middle" x="418" y="-390.8" font-family="Times,serif" font-size="14.00" fill="#ffffff">200000 row(s)/2 chunk(s)/18.202MB</text>
</g>
</g>
</svg>
