<?xml version="1.0" encoding="UTF-8" standalone="no"?>
<!DOCTYPE svg PUBLIC "-//W3C//DTD SVG 1.1//EN"
 "http://www.w3.org/Graphics/SVG/1.1/DTD/svg11.dtd">
<!-- Generated by graphviz version 2.40.1 (20161225.0304)
 -->
<!-- Title: G Pages: 1 -->
<svg width="1547pt" height="1098pt"
 viewBox="0.00 0.00 1547.00 1098.00" xmlns="http://www.w3.org/2000/svg" xmlns:xlink="http://www.w3.org/1999/xlink">
<g id="graph0" class="graph" transform="scale(1 1) rotate(0) translate(4 1094)">
<title>G</title>
<polygon fill="#000000" stroke="transparent" points="-4,4 -4,-1094 1543,-1094 1543,4 -4,4"/>
<!-- 94334562101280 -->
<g id="node1" class="node">
<title>94334562101280</title>
<polygon fill="none" stroke="#ffffff" points="364.5,-1090 101.5,-1090 101.5,-1052 364.5,-1052 364.5,-1090"/>
<text text-anchor="middle" x="233" y="-1074.8" font-family="Times,serif" font-size="14.00" fill="#ffffff">Alias [n_name, SUM(l_extendedprice * (1 &#45; </text>
<text text-anchor="middle" x="233" y="-1059.8" font-family="Times,serif" font-size="14.00" fill="#ffffff">l_discount)) AS revenue] </text>
</g>
<!-- 94334562101728 -->
<g id="node2" class="node">
<title>94334562101728</title>
<polygon fill="none" stroke="#ffffff" points="372.5,-1001 93.5,-1001 93.5,-963 372.5,-963 372.5,-1001"/>
<text text-anchor="middle" x="233" y="-985.8" font-family="Times,serif" font-size="14.00" fill="#ffffff">[Sort] SUM(l_extendedprice * (1 &#45; l_discount)) </text>
<text text-anchor="middle" x="233" y="-970.8" font-family="Times,serif" font-size="14.00" fill="#ffffff">(Descending) </text>
</g>
<!-- 94334562101728&#45;&gt;94334562101280 -->
<g id="edge1" class="edge">
<title>94334562101728&#45;&gt;94334562101280</title>
<path fill="none" stroke="#ffffff" stroke-width="3" d="M233,-1001.3117C233,-1013.091 233,-1028.3813 233,-1041.6372"/>
<polygon fill="#ffffff" stroke="#ffffff" stroke-width="3" points="229.5001,-1041.726 233,-1051.726 236.5001,-1041.726 229.5001,-1041.726"/>
<text text-anchor="middle" x="318" y="-1022.8" font-family="Times,serif" font-size="14.00" fill="#ffffff"> 48009.7 row(s) | 100.0% estd.</text>
</g>
<!-- 94334832250816 -->
<g id="node3" class="node">
<title>94334832250816</title>
<polygon fill="none" stroke="#ffffff" points="367.5,-912 98.5,-912 98.5,-874 367.5,-874 367.5,-912"/>
<text text-anchor="middle" x="233" y="-896.8" font-family="Times,serif" font-size="14.00" fill="#ffffff">[Aggregate] GroupBy: [n_name] Aggregates: </text>
<text text-anchor="middle" x="233" y="-881.8" font-family="Times,serif" font-size="14.00" fill="#ffffff">[SUM(l_extendedprice * (1 &#45; l_discount))] </text>
</g>
<!-- 94334832250816&#45;&gt;94334562101728 -->
<g id="edge2" class="edge">
<title>94334832250816&#45;&gt;94334562101728</title>
<path fill="none" stroke="#ffffff" stroke-width="3" d="M233,-912.3117C233,-924.091 233,-939.3813 233,-952.6372"/>
<polygon fill="#ffffff" stroke="#ffffff" stroke-width="3" points="229.5001,-952.726 233,-962.726 236.5001,-952.726 229.5001,-952.726"/>
<text text-anchor="middle" x="318" y="-933.8" font-family="Times,serif" font-size="14.00" fill="#ffffff"> 48009.7 row(s) | 100.0% estd.</text>
</g>
<!-- 94334562108032 -->
<g id="node4" class="node">
<title>94334562108032</title>
<polygon fill="none" stroke="#ffffff" points="371.5,-823 94.5,-823 94.5,-785 371.5,-785 371.5,-823"/>
<text text-anchor="middle" x="233" y="-807.8" font-family="Times,serif" font-size="14.00" fill="#ffffff">[Projection] l_extendedprice * (1 &#45; l_discount), </text>
<text text-anchor="middle" x="233" y="-792.8" font-family="Times,serif" font-size="14.00" fill="#ffffff">n_name </text>
</g>
<!-- 94334562108032&#45;&gt;94334832250816 -->
<g id="edge3" class="edge">
<title>94334562108032&#45;&gt;94334832250816</title>
<path fill="none" stroke="#ffffff" stroke-width="3" d="M233,-823.3117C233,-835.091 233,-850.3813 233,-863.6372"/>
<polygon fill="#ffffff" stroke="#ffffff" stroke-width="3" points="229.5001,-863.726 233,-873.726 236.5001,-863.726 229.5001,-863.726"/>
<text text-anchor="middle" x="318" y="-844.8" font-family="Times,serif" font-size="14.00" fill="#ffffff"> 48009.7 row(s) | 100.0% estd.</text>
</g>
<!-- 94334562099248 -->
<g id="node5" class="node">
<title>94334562099248</title>
<polygon fill="none" stroke="#ffffff" points="346.5,-734 119.5,-734 119.5,-698 346.5,-698 346.5,-734"/>
<text text-anchor="middle" x="233" y="-712.3" font-family="Times,serif" font-size="14.00" fill="#ffffff">[Predicate] c_nationkey = s_nationkey</text>
</g>
<!-- 94334562099248&#45;&gt;94334562108032 -->
<g id="edge4" class="edge">
<title>94334562099248&#45;&gt;94334562108032</title>
<path fill="none" stroke="#ffffff" stroke-width="3" d="M233,-734.2337C233,-745.9125 233,-761.3308 233,-774.7022"/>
<polygon fill="#ffffff" stroke="#ffffff" stroke-width="3" points="229.5001,-774.8765 233,-784.8765 236.5001,-774.8765 229.5001,-774.8765"/>
<text text-anchor="middle" x="311.5" y="-755.8" font-family="Times,serif" font-size="14.00" fill="#ffffff"> 48009.7 row(s) | 4.0% estd.</text>
</g>
<!-- 94334562245424 -->
<g id="node6" class="node">
<title>94334562245424</title>
<polygon fill="none" stroke="#ffffff" points="357,-647 109,-647 109,-611 357,-611 357,-647"/>
<text text-anchor="middle" x="233" y="-625.3" font-family="Times,serif" font-size="14.00" fill="#ffffff">[Join] Mode: Inner c_custkey = o_custkey</text>
</g>
<!-- 94334562245424&#45;&gt;94334562099248 -->
<g id="edge5" class="edge">
<title>94334562245424&#45;&gt;94334562099248</title>
<path fill="none" stroke="#ffffff" stroke-width="4" d="M233,-647.0265C233,-658.8082 233,-674.4393 233,-687.8419"/>
<polygon fill="#ffffff" stroke="#ffffff" stroke-width="4" points="229.5001,-687.9966 233,-697.9966 236.5001,-687.9967 229.5001,-687.9966"/>
<text text-anchor="middle" x="318" y="-668.8" font-family="Times,serif" font-size="14.00" fill="#ffffff"> 1200243.0 row(s) | 0.0% estd.</text>
</g>
<!-- 94334562102672 -->
<g id="node7" class="node">
<title>94334562102672</title>
<polygon fill="none" stroke="#ffffff" points="212,-560 0,-560 0,-524 212,-524 212,-560"/>
<text text-anchor="middle" x="106" y="-538.3" font-family="Times,serif" font-size="14.00" fill="#ffffff">[Projection] c_custkey, c_nationkey</text>
</g>
<!-- 94334562102672&#45;&gt;94334562245424 -->
<g id="edge6" class="edge">
<title>94334562102672&#45;&gt;94334562245424</title>
<path fill="none" stroke="#ffffff" stroke-width="3" d="M117.4431,-560.4492C124.8104,-571.1076 135.1988,-584.1204 147,-593 153.6932,-598.0361 161.1946,-602.5073 168.904,-606.4361"/>
<polygon fill="#ffffff" stroke="#ffffff" stroke-width="3" points="167.4831,-609.6362 178.0138,-610.8003 170.5075,-603.3233 167.4831,-609.6362"/>
<text text-anchor="middle" x="235.5" y="-581.8" font-family="Times,serif" font-size="14.00" fill="#ffffff"> 150000.0 row(s) | 100.0% estd.</text>
</g>
<!-- 94334607132416 -->
<g id="node8" class="node">
<title>94334607132416</title>
<polygon fill="none" stroke="#ffffff" points="201.5,-473 10.5,-473 10.5,-437 201.5,-437 201.5,-473"/>
<text text-anchor="middle" x="106" y="-451.3" font-family="Times,serif" font-size="14.00" fill="#ffffff">[StoredTable] Name: &#39;customer&#39;</text>
</g>
<!-- 94334607132416&#45;&gt;94334562102672 -->
<g id="edge7" class="edge">
<title>94334607132416&#45;&gt;94334562102672</title>
<path fill="none" stroke="#ffffff" stroke-width="3" d="M106,-473.0265C106,-484.8082 106,-500.4393 106,-513.8419"/>
<polygon fill="#ffffff" stroke="#ffffff" stroke-width="3" points="102.5001,-513.9966 106,-523.9966 109.5001,-513.9967 102.5001,-513.9966"/>
<text text-anchor="middle" x="194.5" y="-494.8" font-family="Times,serif" font-size="14.00" fill="#ffffff"> 150000.0 row(s) | 100.0% estd.</text>
</g>
<!-- 94334562095200 -->
<g id="node9" class="node">
<title>94334562095200</title>
<polygon fill="none" stroke="#ffffff" points="490,-560 230,-560 230,-524 490,-524 490,-560"/>
<text text-anchor="middle" x="360" y="-538.3" font-family="Times,serif" font-size="14.00" fill="#ffffff">[Join] Mode: Inner l_orderkey = o_orderkey</text>
</g>
<!-- 94334562095200&#45;&gt;94334562245424 -->
<g id="edge8" class="edge">
<title>94334562095200&#45;&gt;94334562245424</title>
<path fill="none" stroke="#ffffff" stroke-width="4" d="M350.7584,-560.0804C344.4649,-570.8734 335.245,-584.1564 324,-593 317.4729,-598.1333 310.1211,-602.6186 302.4975,-606.5164"/>
<polygon fill="#ffffff" stroke="#ffffff" stroke-width="4" points="300.9774,-603.3636 293.4563,-610.8258 303.9893,-609.6826 300.9774,-603.3636"/>
<text text-anchor="middle" x="424" y="-581.8" font-family="Times,serif" font-size="14.00" fill="#ffffff"> 1200243.0 row(s) | 0.0% estd.</text>
</g>
<!-- 94334562102864 -->
<g id="node10" class="node">
<title>94334562102864</title>
<polygon fill="none" stroke="#ffffff" points="500.5,-473 219.5,-473 219.5,-437 500.5,-437 500.5,-473"/>
<text text-anchor="middle" x="360" y="-451.3" font-family="Times,serif" font-size="14.00" fill="#ffffff">[Projection] o_orderkey, o_custkey, o_orderdate</text>
</g>
<!-- 94334562102864&#45;&gt;94334562095200 -->
<g id="edge9" class="edge">
<title>94334562102864&#45;&gt;94334562095200</title>
<path fill="none" stroke="#ffffff" stroke-width="4" d="M360,-473.0265C360,-484.8082 360,-500.4393 360,-513.8419"/>
<polygon fill="#ffffff" stroke="#ffffff" stroke-width="4" points="356.5001,-513.9966 360,-523.9966 363.5001,-513.9967 356.5001,-513.9966"/>
<text text-anchor="middle" x="452" y="-494.8" font-family="Times,serif" font-size="14.00" fill="#ffffff"> 1500000.0 row(s) | 100.0% estd.</text>
</g>
<!-- 94334562103152 -->
<g id="node11" class="node">
<title>94334562103152</title>
<polygon fill="none" stroke="#ffffff" points="519.5,-386 198.5,-386 198.5,-348 519.5,-348 519.5,-386"/>
<text text-anchor="middle" x="359" y="-370.8" font-family="Times,serif" font-size="14.00" fill="#ffffff">[Predicate] o_orderdate BETWEEN &#39;1994&#45;01&#45;01&#39; AND </text>
<text text-anchor="middle" x="359" y="-355.8" font-family="Times,serif" font-size="14.00" fill="#ffffff">&#39;1995&#45;01&#45;00&#39; </text>
</g>
<!-- 94334562103152&#45;&gt;94334562102864 -->
<g id="edge10" class="edge">
<title>94334562103152&#45;&gt;94334562102864</title>
<path fill="none" stroke="#ffffff" stroke-width="4" d="M359.217,-386.0947C359.3521,-397.981 359.5282,-413.483 359.6792,-426.7725"/>
<polygon fill="#ffffff" stroke="#ffffff" stroke-width="4" points="356.1802,-426.8852 359.7937,-436.8447 363.1797,-426.8056 356.1802,-426.8852"/>
<text text-anchor="middle" x="452" y="-407.8" font-family="Times,serif" font-size="14.00" fill="#ffffff"> 1500000.0 row(s) | 100.0% estd.</text>
</g>
<!-- 94334595403152 -->
<g id="node12" class="node">
<title>94334595403152</title>
<polygon fill="none" stroke="#ffffff" points="446,-297 272,-297 272,-261 446,-261 446,-297"/>
<text text-anchor="middle" x="359" y="-275.3" font-family="Times,serif" font-size="14.00" fill="#ffffff">[StoredTable] Name: &#39;orders&#39;</text>
</g>
<!-- 94334595403152&#45;&gt;94334562103152 -->
<g id="edge11" class="edge">
<title>94334595403152&#45;&gt;94334562103152</title>
<path fill="none" stroke="#ffffff" stroke-width="4" d="M359,-297.2337C359,-308.9125 359,-324.3308 359,-337.7022"/>
<polygon fill="#ffffff" stroke="#ffffff" stroke-width="4" points="355.5001,-337.8765 359,-347.8765 362.5001,-337.8765 355.5001,-337.8765"/>
<text text-anchor="middle" x="451" y="-318.8" font-family="Times,serif" font-size="14.00" fill="#ffffff"> 1500000.0 row(s) | 100.0% estd.</text>
</g>
<!-- 94334562093376 -->
<g id="node13" class="node">
<title>94334562093376</title>
<polygon fill="none" stroke="#ffffff" points="771,-473 519,-473 519,-437 771,-437 771,-473"/>
<text text-anchor="middle" x="645" y="-451.3" font-family="Times,serif" font-size="14.00" fill="#ffffff">[Join] Mode: Inner l_suppkey = s_suppkey</text>
</g>
<!-- 94334562093376&#45;&gt;94334562095200 -->
<g id="edge12" class="edge">
<title>94334562093376&#45;&gt;94334562095200</title>
<path fill="none" stroke="#ffffff" stroke-width="4" d="M615.8815,-473.2181C597.133,-484.2027 571.8844,-497.6418 548,-506 530.3041,-512.1926 511.2775,-517.4041 492.366,-521.7663"/>
<polygon fill="#ffffff" stroke="#ffffff" stroke-width="4" points="491.4914,-518.3753 482.4946,-523.9707 493.0171,-525.207 491.4914,-518.3753"/>
<text text-anchor="middle" x="667" y="-494.8" font-family="Times,serif" font-size="14.00" fill="#ffffff"> 1200243.0 row(s) | 0.0% estd.</text>
</g>
<!-- 94334562102528 -->
<g id="node14" class="node">
<title>94334562102528</title>
<polygon fill="none" stroke="#ffffff" points="752,-386 538,-386 538,-348 752,-348 752,-386"/>
<text text-anchor="middle" x="645" y="-370.8" font-family="Times,serif" font-size="14.00" fill="#ffffff">[Projection] l_orderkey, l_suppkey, </text>
<text text-anchor="middle" x="645" y="-355.8" font-family="Times,serif" font-size="14.00" fill="#ffffff">l_extendedprice, l_discount </text>
</g>
<!-- 94334562102528&#45;&gt;94334562093376 -->
<g id="edge13" class="edge">
<title>94334562102528&#45;&gt;94334562093376</title>
<path fill="none" stroke="#ffffff" stroke-width="4" d="M645,-386.0947C645,-397.981 645,-413.483 645,-426.7725"/>
<polygon fill="#ffffff" stroke="#ffffff" stroke-width="4" points="641.5001,-426.8447 645,-436.8447 648.5001,-426.8448 641.5001,-426.8447"/>
<text text-anchor="middle" x="737" y="-407.8" font-family="Times,serif" font-size="14.00" fill="#ffffff"> 6001215.0 row(s) | 100.0% estd.</text>
</g>
<!-- 94334334570784 -->
<g id="node15" class="node">
<title>94334334570784</title>
<polygon fill="none" stroke="#ffffff" points="737.5,-297 552.5,-297 552.5,-261 737.5,-261 737.5,-297"/>
<text text-anchor="middle" x="645" y="-275.3" font-family="Times,serif" font-size="14.00" fill="#ffffff">[StoredTable] Name: &#39;lineitem&#39;</text>
</g>
<!-- 94334334570784&#45;&gt;94334562102528 -->
<g id="edge14" class="edge">
<title>94334334570784&#45;&gt;94334562102528</title>
<path fill="none" stroke="#ffffff" stroke-width="4" d="M645,-297.2337C645,-308.9125 645,-324.3308 645,-337.7022"/>
<polygon fill="#ffffff" stroke="#ffffff" stroke-width="4" points="641.5001,-337.8765 645,-347.8765 648.5001,-337.8765 641.5001,-337.8765"/>
<text text-anchor="middle" x="737" y="-318.8" font-family="Times,serif" font-size="14.00" fill="#ffffff"> 6001215.0 row(s) | 100.0% estd.</text>
</g>
<!-- 94334562091696 -->
<g id="node16" class="node">
<title>94334562091696</title>
<polygon fill="none" stroke="#ffffff" points="1042,-385 770,-385 770,-349 1042,-349 1042,-385"/>
<text text-anchor="middle" x="906" y="-363.3" font-family="Times,serif" font-size="14.00" fill="#ffffff">[Join] Mode: Inner s_nationkey = n_nationkey</text>
</g>
<!-- 94334562091696&#45;&gt;94334562093376 -->
<g id="edge15" class="edge">
<title>94334562091696&#45;&gt;94334562093376</title>
<path fill="none" stroke="#ffffff" stroke-width="2" d="M885.7435,-385.0812C871.8441,-396.524 852.4577,-410.6798 833,-419 816.6289,-426.0004 798.8756,-431.6474 781.0357,-436.201"/>
<polygon fill="#ffffff" stroke="#ffffff" stroke-width="2" points="780.0091,-432.8487 771.124,-438.6199 781.6687,-439.6492 780.0091,-432.8487"/>
<text text-anchor="middle" x="934" y="-407.8" font-family="Times,serif" font-size="14.00" fill="#ffffff"> 2000.0 row(s) | 4.0% estd.</text>
</g>
<!-- 94334562102336 -->
<g id="node17" class="node">
<title>94334562102336</title>
<polygon fill="none" stroke="#ffffff" points="991.5,-297 776.5,-297 776.5,-261 991.5,-261 991.5,-297"/>
<text text-anchor="middle" x="884" y="-275.3" font-family="Times,serif" font-size="14.00" fill="#ffffff">[Projection] s_suppkey, s_nationkey</text>
</g>
<!-- 94334562102336&#45;&gt;94334562091696 -->
<g id="edge16" class="edge">
<title>94334562102336&#45;&gt;94334562091696</title>
<path fill="none" stroke="#ffffff" stroke-width="2" d="M888.5584,-297.2337C891.5672,-309.2688 895.5688,-325.2751 898.9801,-338.9203"/>
<polygon fill="#ffffff" stroke="#ffffff" stroke-width="2" points="895.6265,-339.9372 901.4474,-348.7897 902.4175,-338.2394 895.6265,-339.9372"/>
<text text-anchor="middle" x="982" y="-318.8" font-family="Times,serif" font-size="14.00" fill="#ffffff"> 10000.0 row(s) | 100.0% estd.</text>
</g>
<!-- 94334334499888 -->
<g id="node18" class="node">
<title>94334334499888</title>
<polygon fill="none" stroke="#ffffff" points="976,-210 792,-210 792,-174 976,-174 976,-210"/>
<text text-anchor="middle" x="884" y="-188.3" font-family="Times,serif" font-size="14.00" fill="#ffffff">[StoredTable] Name: &#39;supplier&#39;</text>
</g>
<!-- 94334334499888&#45;&gt;94334562102336 -->
<g id="edge17" class="edge">
<title>94334334499888&#45;&gt;94334562102336</title>
<path fill="none" stroke="#ffffff" stroke-width="2" d="M884,-210.0265C884,-221.8082 884,-237.4393 884,-250.8419"/>
<polygon fill="#ffffff" stroke="#ffffff" stroke-width="2" points="880.5001,-250.9966 884,-260.9966 887.5001,-250.9967 880.5001,-250.9966"/>
<text text-anchor="middle" x="969" y="-231.8" font-family="Times,serif" font-size="14.00" fill="#ffffff"> 10000.0 row(s) | 100.0% estd.</text>
</g>
<!-- 94334930045056 -->
<g id="node19" class="node">
<title>94334930045056</title>
<polygon fill="none" stroke="#ffffff" points="1282,-297 1010,-297 1010,-261 1282,-261 1282,-297"/>
<text text-anchor="middle" x="1146" y="-275.3" font-family="Times,serif" font-size="14.00" fill="#ffffff">[Join] Mode: Inner n_regionkey = r_regionkey</text>
</g>
<!-- 94334930045056&#45;&gt;94334562091696 -->
<g id="edge18" class="edge">
<title>94334930045056&#45;&gt;94334562091696</title>
<path fill="none" stroke="#ffffff" d="M1124.0041,-297.2402C1109.7087,-308.2333 1090.2159,-321.6736 1071,-330 1056.1656,-336.4278 1040.078,-341.8024 1023.9628,-346.2793"/>
<polygon fill="#ffffff" stroke="#ffffff" points="1022.6972,-342.9944 1013.9363,-348.9523 1024.5004,-349.7582 1022.6972,-342.9944"/>
<text text-anchor="middle" x="1166" y="-318.8" font-family="Times,serif" font-size="14.00" fill="#ffffff"> 5.0 row(s) | 20.0% estd.</text>
</g>
<!-- 94334562100272 -->
<g id="node20" class="node">
<title>94334562100272</title>
<polygon fill="none" stroke="#ffffff" points="1278,-210 1000,-210 1000,-174 1278,-174 1278,-210"/>
<text text-anchor="middle" x="1139" y="-188.3" font-family="Times,serif" font-size="14.00" fill="#ffffff">[Projection] n_nationkey, n_name, n_regionkey</text>
</g>
<!-- 94334562100272&#45;&gt;94334930045056 -->
<g id="edge19" class="edge">
<title>94334562100272&#45;&gt;94334930045056</title>
<path fill="none" stroke="#ffffff" d="M1140.4504,-210.0265C1141.3984,-221.8082 1142.656,-237.4393 1143.7344,-250.8419"/>
<polygon fill="#ffffff" stroke="#ffffff" points="1140.2606,-251.3096 1144.5515,-260.9966 1147.2381,-250.7481 1140.2606,-251.3096"/>
<text text-anchor="middle" x="1218" y="-231.8" font-family="Times,serif" font-size="14.00" fill="#ffffff"> 25.0 row(s) | 100.0% estd.</text>
</g>
<!-- 94334334500384 -->
<g id="node21" class="node">
<title>94334334500384</title>
<polygon fill="none" stroke="#ffffff" points="1226,-123 1052,-123 1052,-87 1226,-87 1226,-123"/>
<text text-anchor="middle" x="1139" y="-101.3" font-family="Times,serif" font-size="14.00" fill="#ffffff">[StoredTable] Name: &#39;nation&#39;</text>
</g>
<!-- 94334334500384&#45;&gt;94334562100272 -->
<g id="edge20" class="edge">
<title>94334334500384&#45;&gt;94334562100272</title>
<path fill="none" stroke="#ffffff" d="M1139,-123.0265C1139,-134.8082 1139,-150.4393 1139,-163.8419"/>
<polygon fill="#ffffff" stroke="#ffffff" points="1135.5001,-163.9966 1139,-173.9966 1142.5001,-163.9967 1135.5001,-163.9966"/>
<text text-anchor="middle" x="1214" y="-144.8" font-family="Times,serif" font-size="14.00" fill="#ffffff"> 25.0 row(s) | 100.0% estd.</text>
</g>
<!-- 94334743179840 -->
<g id="node22" class="node">
<title>94334743179840</title>
<polygon fill="none" stroke="#ffffff" points="1495.5,-210 1296.5,-210 1296.5,-174 1495.5,-174 1495.5,-210"/>
<text text-anchor="middle" x="1396" y="-188.3" font-family="Times,serif" font-size="14.00" fill="#ffffff">[Projection] r_regionkey, r_name</text>
</g>
<!-- 94334743179840&#45;&gt;94334930045056 -->
<g id="edge21" class="edge">
<title>94334743179840&#45;&gt;94334930045056</title>
<path fill="none" stroke="#ffffff" d="M1365.6634,-210.0635C1346.504,-220.8501 1320.9308,-234.1323 1297,-243 1285.5615,-247.2386 1263.3304,-252.9812 1239.3702,-258.6341"/>
<polygon fill="#ffffff" stroke="#ffffff" points="1238.3355,-255.2814 1229.3918,-260.9614 1239.9255,-262.0985 1238.3355,-255.2814"/>
<text text-anchor="middle" x="1402.5" y="-231.8" font-family="Times,serif" font-size="14.00" fill="#ffffff"> 1.0 row(s) | 100.0% estd.</text>
</g>
<!-- 94334562103008 -->
<g id="node23" class="node">
<title>94334562103008</title>
<polygon fill="none" stroke="#ffffff" points="1498,-123 1294,-123 1294,-87 1498,-87 1498,-123"/>
<text text-anchor="middle" x="1396" y="-101.3" font-family="Times,serif" font-size="14.00" fill="#ffffff">[Predicate] r_name = &#39;AMERICA&#39;</text>
</g>
<!-- 94334562103008&#45;&gt;94334743179840 -->
<g id="edge22" class="edge">
<title>94334562103008&#45;&gt;94334743179840</title>
<path fill="none" stroke="#ffffff" d="M1396,-123.0265C1396,-134.8082 1396,-150.4393 1396,-163.8419"/>
<polygon fill="#ffffff" stroke="#ffffff" points="1392.5001,-163.9966 1396,-173.9966 1399.5001,-163.9967 1392.5001,-163.9966"/>
<text text-anchor="middle" x="1464" y="-144.8" font-family="Times,serif" font-size="14.00" fill="#ffffff"> 1.0 row(s) | 20.0% estd.</text>
</g>
<!-- 94334334500880 -->
<g id="node24" class="node">
<title>94334334500880</title>
<polygon fill="none" stroke="#ffffff" points="1483.5,-36 1308.5,-36 1308.5,0 1483.5,0 1483.5,-36"/>
<text text-anchor="middle" x="1396" y="-14.3" font-family="Times,serif" font-size="14.00" fill="#ffffff">[StoredTable] Name: &#39;region&#39;</text>
</g>
<!-- 94334334500880&#45;&gt;94334562103008 -->
<g id="edge23" class="edge">
<title>94334334500880&#45;&gt;94334562103008</title>
<path fill="none" stroke="#ffffff" d="M1396,-36.0265C1396,-47.8082 1396,-63.4393 1396,-76.8419"/>
<polygon fill="#ffffff" stroke="#ffffff" points="1392.5001,-76.9966 1396,-86.9966 1399.5001,-76.9967 1392.5001,-76.9966"/>
<text text-anchor="middle" x="1467.5" y="-57.8" font-family="Times,serif" font-size="14.00" fill="#ffffff"> 5.0 row(s) | 100.0% estd.</text>
</g>
</g>
</svg>
