<?xml version="1.0" encoding="UTF-8" standalone="no"?>
<!DOCTYPE svg PUBLIC "-//W3C//DTD SVG 1.1//EN"
 "http://www.w3.org/Graphics/SVG/1.1/DTD/svg11.dtd">
<!-- Generated by graphviz version 2.40.1 (20161225.0304)
 -->
<!-- Title: G Pages: 1 -->
<svg width="929pt" height="1472pt"
 viewBox="0.00 0.00 929.00 1472.00" xmlns="http://www.w3.org/2000/svg" xmlns:xlink="http://www.w3.org/1999/xlink">
<g id="graph0" class="graph" transform="scale(1 1) rotate(0) translate(4 1468)">
<title>G</title>
<polygon fill="#000000" stroke="transparent" points="-4,4 -4,-1468 925,-1468 925,4 -4,4"/>
<!-- 94378862978848 -->
<g id="node1" class="node">
<title>94378862978848</title>
<polygon fill="none" stroke="#ffffff" points="628,-1464 542,-1464 542,-1275 628,-1275 628,-1464"/>
<text text-anchor="middle" x="585" y="-1448.8" font-family="Times,serif" font-size="14.00" fill="#ffffff">Alias </text>
<text text-anchor="middle" x="585" y="-1433.8" font-family="Times,serif" font-size="14.00" fill="#ffffff">[c_custkey</text>
<text text-anchor="middle" x="585" y="-1418.8" font-family="Times,serif" font-size="14.00" fill="#ffffff">c_name</text>
<text text-anchor="middle" x="585" y="-1403.8" font-family="Times,serif" font-size="14.00" fill="#ffffff">revenue</text>
<text text-anchor="middle" x="585" y="-1388.8" font-family="Times,serif" font-size="14.00" fill="#ffffff">c_acctbal</text>
<text text-anchor="middle" x="585" y="-1373.8" font-family="Times,serif" font-size="14.00" fill="#ffffff">n_name</text>
<text text-anchor="middle" x="585" y="-1358.8" font-family="Times,serif" font-size="14.00" fill="#ffffff">c_address</text>
<text text-anchor="middle" x="585" y="-1343.8" font-family="Times,serif" font-size="14.00" fill="#ffffff">c_phone</text>
<text text-anchor="middle" x="585" y="-1328.8" font-family="Times,serif" font-size="14.00" fill="#ffffff">c_comment]</text>
<text text-anchor="middle" x="585" y="-1297.8" font-family="Times,serif" font-size="14.00" fill="#ffffff">1 </text>
<text text-anchor="middle" x="585" y="-1282.8" font-family="Times,serif" font-size="14.00" fill="#ffffff">µs 0 ns </text>
</g>
<!-- 94378872229488 -->
<g id="node2" class="node">
<title>94378872229488</title>
<polygon fill="none" stroke="#ffffff" points="621,-1224 549,-1224 549,-1170 621,-1170 621,-1224"/>
<text text-anchor="middle" x="585" y="-1208.8" font-family="Times,serif" font-size="14.00" fill="#ffffff">Projection</text>
<text text-anchor="middle" x="585" y="-1177.8" font-family="Times,serif" font-size="14.00" fill="#ffffff">5 µs 0 ns</text>
</g>
<!-- 94378872229488&#45;&gt;94378862978848 -->
<g id="edge1" class="edge">
<title>94378872229488&#45;&gt;94378862978848</title>
<path fill="none" stroke="#ffffff" stroke-width="3" d="M585,-1224.3331C585,-1235.6798 585,-1249.6323 585,-1264.3574"/>
<polygon fill="#ffffff" stroke="#ffffff" stroke-width="3" points="581.5001,-1264.6526 585,-1274.6526 588.5001,-1264.6527 581.5001,-1264.6526"/>
<text text-anchor="middle" x="680.5" y="-1245.8" font-family="Times,serif" font-size="14.00" fill="#ffffff">37967 row(s)/1 chunk(s)/6.987MB</text>
</g>
<!-- 94378870592672 -->
<g id="node3" class="node">
<title>94378870592672</title>
<polygon fill="none" stroke="#ffffff" stroke-width="3" points="630,-1119 540,-1119 540,-1065 630,-1065 630,-1119"/>
<text text-anchor="middle" x="585" y="-1103.8" font-family="Times,serif" font-size="14.00" fill="#ffffff">Sort</text>
<text text-anchor="middle" x="585" y="-1072.8" font-family="Times,serif" font-size="14.00" fill="#ffffff">32 ms 155 µs</text>
</g>
<!-- 94378870592672&#45;&gt;94378872229488 -->
<g id="edge2" class="edge">
<title>94378870592672&#45;&gt;94378872229488</title>
<path fill="none" stroke="#ffffff" stroke-width="3" d="M585,-1119.0401C585,-1131.3143 585,-1146.0382 585,-1159.3683"/>
<polygon fill="#ffffff" stroke="#ffffff" stroke-width="3" points="581.5001,-1159.6866 585,-1169.6866 588.5001,-1159.6866 581.5001,-1159.6866"/>
<text text-anchor="middle" x="680.5" y="-1140.8" font-family="Times,serif" font-size="14.00" fill="#ffffff">37967 row(s)/1 chunk(s)/6.987MB</text>
</g>
<!-- 94377838548816 -->
<g id="node4" class="node">
<title>94377838548816</title>
<polygon fill="none" stroke="#ffffff" stroke-width="3" points="733,-1014 437,-1014 437,-945 733,-945 733,-1014"/>
<text text-anchor="middle" x="585" y="-998.8" font-family="Times,serif" font-size="14.00" fill="#ffffff">[Aggregate] GroupBy ColumnIDs: 1, 2, 3, 4, 5, 6, </text>
<text text-anchor="middle" x="585" y="-983.8" font-family="Times,serif" font-size="14.00" fill="#ffffff">7 Aggregates: SUM(Column #0)</text>
<text text-anchor="middle" x="585" y="-952.8" font-family="Times,serif" font-size="14.00" fill="#ffffff">91 ms 825 µs </text>
</g>
<!-- 94377838548816&#45;&gt;94378870592672 -->
<g id="edge3" class="edge">
<title>94377838548816&#45;&gt;94378870592672</title>
<path fill="none" stroke="#ffffff" stroke-width="3" d="M585,-1014.1717C585,-1027.0092 585,-1041.6141 585,-1054.6774"/>
<polygon fill="#ffffff" stroke="#ffffff" stroke-width="3" points="581.5001,-1054.7601 585,-1064.7602 588.5001,-1054.7602 581.5001,-1054.7601"/>
<text text-anchor="middle" x="680.5" y="-1035.8" font-family="Times,serif" font-size="14.00" fill="#ffffff">37967 row(s)/1 chunk(s)/6.987MB</text>
</g>
<!-- 94378870592208 -->
<g id="node5" class="node">
<title>94378870592208</title>
<polygon fill="none" stroke="#ffffff" stroke-width="3" points="630,-894 540,-894 540,-840 630,-840 630,-894"/>
<text text-anchor="middle" x="585" y="-878.8" font-family="Times,serif" font-size="14.00" fill="#ffffff">Projection</text>
<text text-anchor="middle" x="585" y="-847.8" font-family="Times,serif" font-size="14.00" fill="#ffffff">97 ms 747 µs</text>
</g>
<!-- 94378870592208&#45;&gt;94377838548816 -->
<g id="edge4" class="edge">
<title>94378870592208&#45;&gt;94377838548816</title>
<path fill="none" stroke="#ffffff" stroke-width="3" d="M585,-894.2331C585,-906.3589 585,-920.9621 585,-934.6298"/>
<polygon fill="#ffffff" stroke="#ffffff" stroke-width="3" points="581.5001,-934.8427 585,-944.8427 588.5001,-934.8428 581.5001,-934.8427"/>
<text text-anchor="middle" x="687.5" y="-915.8" font-family="Times,serif" font-size="14.00" fill="#ffffff">114705 row(s)/8 chunk(s)/19.741MB</text>
</g>
<!-- 94378870504656 -->
<g id="node6" class="node">
<title>94378870504656</title>
<polygon fill="none" stroke="#ffffff" stroke-width="3" points="682,-789 488,-789 488,-705 682,-705 682,-789"/>
<text text-anchor="middle" x="585" y="-773.8" font-family="Times,serif" font-size="14.00" fill="#ffffff">JoinHash</text>
<text text-anchor="middle" x="585" y="-758.8" font-family="Times,serif" font-size="14.00" fill="#ffffff">(Inner Join where o_orderkey = </text>
<text text-anchor="middle" x="585" y="-743.8" font-family="Times,serif" font-size="14.00" fill="#ffffff">l_orderkey)</text>
<text text-anchor="middle" x="585" y="-712.8" font-family="Times,serif" font-size="14.00" fill="#ffffff">33 ms 774 µs </text>
</g>
<!-- 94378870504656&#45;&gt;94378870592208 -->
<g id="edge5" class="edge">
<title>94378870504656&#45;&gt;94378870592208</title>
<path fill="none" stroke="#ffffff" stroke-width="3" d="M585,-789.3075C585,-802.3814 585,-816.686 585,-829.4178"/>
<polygon fill="#ffffff" stroke="#ffffff" stroke-width="3" points="581.5001,-829.681 585,-839.681 588.5001,-829.6811 581.5001,-829.681"/>
<text text-anchor="middle" x="687.5" y="-810.8" font-family="Times,serif" font-size="14.00" fill="#ffffff">114705 row(s)/8 chunk(s)/14.690MB</text>
</g>
<!-- 94378017626880 -->
<g id="node7" class="node">
<title>94378017626880</title>
<polygon fill="none" stroke="#ffffff" stroke-width="2" points="568,-654 382,-654 382,-570 568,-570 568,-654"/>
<text text-anchor="middle" x="475" y="-638.8" font-family="Times,serif" font-size="14.00" fill="#ffffff">JoinHash</text>
<text text-anchor="middle" x="475" y="-623.8" font-family="Times,serif" font-size="14.00" fill="#ffffff">(Inner Join where c_custkey = </text>
<text text-anchor="middle" x="475" y="-608.8" font-family="Times,serif" font-size="14.00" fill="#ffffff">o_custkey)</text>
<text text-anchor="middle" x="475" y="-577.8" font-family="Times,serif" font-size="14.00" fill="#ffffff">9 ms 155 µs </text>
</g>
<!-- 94378017626880&#45;&gt;94378870504656 -->
<g id="edge6" class="edge">
<title>94378017626880&#45;&gt;94378870504656</title>
<path fill="none" stroke="#ffffff" stroke-width="3" d="M468.1107,-654.2006C468.1881,-665.512 470.1708,-677.2856 476,-687 478.2507,-690.7508 480.8274,-694.2836 483.6643,-697.6094"/>
<polygon fill="#ffffff" stroke="#ffffff" stroke-width="3" points="481.2864,-700.1872 490.7254,-704.9994 486.3476,-695.3513 481.2864,-700.1872"/>
<text text-anchor="middle" x="575" y="-675.8" font-family="Times,serif" font-size="14.00" fill="#ffffff">57069 row(s)/16 chunk(s)/5.491MB</text>
</g>
<!-- 94378870504480 -->
<g id="node8" class="node">
<title>94378870504480</title>
<polygon fill="none" stroke="#ffffff" stroke-width="2" points="346,-511.5 148,-511.5 148,-427.5 346,-427.5 346,-511.5"/>
<text text-anchor="middle" x="247" y="-496.3" font-family="Times,serif" font-size="14.00" fill="#ffffff">JoinHash</text>
<text text-anchor="middle" x="247" y="-481.3" font-family="Times,serif" font-size="14.00" fill="#ffffff">(Inner Join where c_nationkey = </text>
<text text-anchor="middle" x="247" y="-466.3" font-family="Times,serif" font-size="14.00" fill="#ffffff">n_nationkey)</text>
<text text-anchor="middle" x="247" y="-435.3" font-family="Times,serif" font-size="14.00" fill="#ffffff">1 ms 403 µs </text>
</g>
<!-- 94378870504480&#45;&gt;94378017626880 -->
<g id="edge7" class="edge">
<title>94378870504480&#45;&gt;94378017626880</title>
<path fill="none" stroke="#ffffff" stroke-width="3" d="M248.2282,-511.761C250.6741,-526.1138 255.7861,-541.2276 266,-552 281.366,-568.2061 327.173,-582.2486 372.0002,-592.6656"/>
<polygon fill="#ffffff" stroke="#ffffff" stroke-width="3" points="371.3128,-596.0986 381.8396,-594.8995 372.8627,-589.2723 371.3128,-596.0986"/>
<text text-anchor="middle" x="368.5" y="-540.8" font-family="Times,serif" font-size="14.00" fill="#ffffff">150000 row(s)/1 chunk(s)/10.800MB</text>
</g>
<!-- 94378862503104 -->
<g id="node9" class="node">
<title>94378862503104</title>
<polygon fill="none" stroke="#ffffff" points="74,-346.5 2,-346.5 2,-292.5 74,-292.5 74,-346.5"/>
<text text-anchor="middle" x="38" y="-331.3" font-family="Times,serif" font-size="14.00" fill="#ffffff">Projection</text>
<text text-anchor="middle" x="38" y="-300.3" font-family="Times,serif" font-size="14.00" fill="#ffffff">97 µs 0 ns</text>
</g>
<!-- 94378862503104&#45;&gt;94378870504480 -->
<g id="edge8" class="edge">
<title>94378862503104&#45;&gt;94378870504480</title>
<path fill="none" stroke="#ffffff" stroke-width="3" d="M33.9873,-346.8199C32.9522,-364.3974 34.725,-386.7265 47,-402 59.619,-417.7015 98.2835,-432.3656 138.2963,-443.9876"/>
<polygon fill="#ffffff" stroke="#ffffff" stroke-width="3" points="137.3572,-447.3592 147.9329,-446.723 139.2688,-440.6253 137.3572,-447.3592"/>
<text text-anchor="middle" x="149.5" y="-390.8" font-family="Times,serif" font-size="14.00" fill="#ffffff">150000 row(s)/2 chunk(s)/25.329MB</text>
</g>
<!-- 94378870503424 -->
<g id="node10" class="node">
<title>94378870503424</title>
<polygon fill="none" stroke="#ffffff" points="76,-204 0,-204 0,-135 76,-135 76,-204"/>
<text text-anchor="middle" x="38" y="-188.8" font-family="Times,serif" font-size="14.00" fill="#ffffff">GetTable</text>
<text text-anchor="middle" x="38" y="-173.8" font-family="Times,serif" font-size="14.00" fill="#ffffff">(customer)</text>
<text text-anchor="middle" x="38" y="-142.8" font-family="Times,serif" font-size="14.00" fill="#ffffff">0 ns</text>
</g>
<!-- 94378870503424&#45;&gt;94378862503104 -->
<g id="edge9" class="edge">
<title>94378870503424&#45;&gt;94378862503104</title>
<path fill="none" stroke="#ffffff" stroke-width="3" d="M38,-204.29C38,-227.6608 38,-258.4273 38,-282.2872"/>
<polygon fill="#ffffff" stroke="#ffffff" stroke-width="3" points="34.5001,-282.3795 38,-292.3796 41.5001,-282.3796 34.5001,-282.3795"/>
<text text-anchor="middle" x="140.5" y="-240.8" font-family="Times,serif" font-size="14.00" fill="#ffffff">150000 row(s)/2 chunk(s)/25.479MB</text>
</g>
<!-- 94378870570848 -->
<g id="node11" class="node">
<title>94378870570848</title>
<polygon fill="none" stroke="#ffffff" points="302,-346.5 230,-346.5 230,-292.5 302,-292.5 302,-346.5"/>
<text text-anchor="middle" x="266" y="-331.3" font-family="Times,serif" font-size="14.00" fill="#ffffff">Projection</text>
<text text-anchor="middle" x="266" y="-300.3" font-family="Times,serif" font-size="14.00" fill="#ffffff">1 µs 0 ns</text>
</g>
<!-- 94378870570848&#45;&gt;94378870504480 -->
<g id="edge10" class="edge">
<title>94378870570848&#45;&gt;94378870504480</title>
<path fill="none" stroke="#ffffff" d="M262.5592,-346.6639C260.0702,-366.3139 256.6288,-393.4829 253.6153,-417.274"/>
<polygon fill="#ffffff" stroke="#ffffff" points="250.1385,-416.871 252.354,-427.2316 257.083,-417.7507 250.1385,-416.871"/>
<text text-anchor="middle" x="342" y="-390.8" font-family="Times,serif" font-size="14.00" fill="#ffffff">25 row(s)/1 chunk(s)/1.851KB</text>
</g>
<!-- 94378862462512 -->
<g id="node12" class="node">
<title>94378862462512</title>
<polygon fill="none" stroke="#ffffff" points="299.5,-204 232.5,-204 232.5,-135 299.5,-135 299.5,-204"/>
<text text-anchor="middle" x="266" y="-188.8" font-family="Times,serif" font-size="14.00" fill="#ffffff">GetTable</text>
<text text-anchor="middle" x="266" y="-173.8" font-family="Times,serif" font-size="14.00" fill="#ffffff">(nation)</text>
<text text-anchor="middle" x="266" y="-142.8" font-family="Times,serif" font-size="14.00" fill="#ffffff">0 ns</text>
</g>
<!-- 94378862462512&#45;&gt;94378870570848 -->
<g id="edge11" class="edge">
<title>94378862462512&#45;&gt;94378870570848</title>
<path fill="none" stroke="#ffffff" d="M266,-204.29C266,-227.6608 266,-258.4273 266,-282.2872"/>
<polygon fill="#ffffff" stroke="#ffffff" points="262.5001,-282.3795 266,-292.3796 269.5001,-282.3796 262.5001,-282.3795"/>
<text text-anchor="middle" x="350" y="-240.8" font-family="Times,serif" font-size="14.00" fill="#ffffff">25 row(s)/1 chunk(s)/2.869KB</text>
</g>
<!-- 94378857963936 -->
<g id="node13" class="node">
<title>94378857963936</title>
<polygon fill="none" stroke="#ffffff" points="511,-496.5 439,-496.5 439,-442.5 511,-442.5 511,-496.5"/>
<text text-anchor="middle" x="475" y="-481.3" font-family="Times,serif" font-size="14.00" fill="#ffffff">Projection</text>
<text text-anchor="middle" x="475" y="-450.3" font-family="Times,serif" font-size="14.00" fill="#ffffff">9 µs 0 ns</text>
</g>
<!-- 94378857963936&#45;&gt;94378017626880 -->
<g id="edge12" class="edge">
<title>94378857963936&#45;&gt;94378017626880</title>
<path fill="none" stroke="#ffffff" stroke-width="3" d="M475,-496.6386C475,-514.404 475,-538.2016 475,-559.5675"/>
<polygon fill="#ffffff" stroke="#ffffff" stroke-width="3" points="471.5001,-559.8237 475,-569.8237 478.5001,-559.8237 471.5001,-559.8237"/>
<text text-anchor="middle" x="574" y="-540.8" font-family="Times,serif" font-size="14.00" fill="#ffffff">57069 row(s)/15 chunk(s)/1.374MB</text>
</g>
<!-- 94378870588832 -->
<g id="node14" class="node">
<title>94378870588832</title>
<polygon fill="none" stroke="#ffffff" stroke-width="2" points="546.5,-369 403.5,-369 403.5,-270 546.5,-270 546.5,-369"/>
<text text-anchor="middle" x="475" y="-353.8" font-family="Times,serif" font-size="14.00" fill="#ffffff">TableScan</text>
<text text-anchor="middle" x="475" y="-338.8" font-family="Times,serif" font-size="14.00" fill="#ffffff">Impl: LiteralTableScan</text>
<text text-anchor="middle" x="475" y="-323.8" font-family="Times,serif" font-size="14.00" fill="#ffffff">o_orderdate &lt; </text>
<text text-anchor="middle" x="475" y="-308.8" font-family="Times,serif" font-size="14.00" fill="#ffffff">&#39;1994&#45;01&#45;01&#39;</text>
<text text-anchor="middle" x="475" y="-277.8" font-family="Times,serif" font-size="14.00" fill="#ffffff">1 ms 480 µs </text>
</g>
<!-- 94378870588832&#45;&gt;94378857963936 -->
<g id="edge13" class="edge">
<title>94378870588832&#45;&gt;94378857963936</title>
<path fill="none" stroke="#ffffff" stroke-width="3" d="M475,-369.0313C475,-389.6238 475,-413.123 475,-432.2146"/>
<polygon fill="#ffffff" stroke="#ffffff" stroke-width="3" points="471.5001,-432.3212 475,-442.3212 478.5001,-432.3212 471.5001,-432.3212"/>
<text text-anchor="middle" x="574" y="-390.8" font-family="Times,serif" font-size="14.00" fill="#ffffff">57069 row(s)/15 chunk(s)/4.118MB</text>
</g>
<!-- 94378914556688 -->
<g id="node15" class="node">
<title>94378914556688</title>
<polygon fill="none" stroke="#ffffff" stroke-width="2" points="546.5,-219 403.5,-219 403.5,-120 546.5,-120 546.5,-219"/>
<text text-anchor="middle" x="475" y="-203.8" font-family="Times,serif" font-size="14.00" fill="#ffffff">TableScan</text>
<text text-anchor="middle" x="475" y="-188.8" font-family="Times,serif" font-size="14.00" fill="#ffffff">Impl: LiteralTableScan</text>
<text text-anchor="middle" x="475" y="-173.8" font-family="Times,serif" font-size="14.00" fill="#ffffff">o_orderdate &gt;= </text>
<text text-anchor="middle" x="475" y="-158.8" font-family="Times,serif" font-size="14.00" fill="#ffffff">&#39;1993&#45;10&#45;01&#39;</text>
<text text-anchor="middle" x="475" y="-127.8" font-family="Times,serif" font-size="14.00" fill="#ffffff">7 ms 367 µs </text>
</g>
<!-- 94378914556688&#45;&gt;94378870588832 -->
<g id="edge14" class="edge">
<title>94378914556688&#45;&gt;94378870588832</title>
<path fill="none" stroke="#ffffff" stroke-width="4" d="M475,-219.0313C475,-232.0196 475,-246.1643 475,-259.63"/>
<polygon fill="#ffffff" stroke="#ffffff" stroke-width="4" points="471.5001,-259.7646 475,-269.7646 478.5001,-259.7646 471.5001,-259.7646"/>
<text text-anchor="middle" x="584" y="-240.8" font-family="Times,serif" font-size="14.00" fill="#ffffff">1103335 row(s)/15 chunk(s)/79.449MB</text>
</g>
<!-- 94378856018080 -->
<g id="node16" class="node">
<title>94378856018080</title>
<polygon fill="none" stroke="#ffffff" points="508.5,-69 441.5,-69 441.5,0 508.5,0 508.5,-69"/>
<text text-anchor="middle" x="475" y="-53.8" font-family="Times,serif" font-size="14.00" fill="#ffffff">GetTable</text>
<text text-anchor="middle" x="475" y="-38.8" font-family="Times,serif" font-size="14.00" fill="#ffffff">(orders)</text>
<text text-anchor="middle" x="475" y="-7.8" font-family="Times,serif" font-size="14.00" fill="#ffffff">0 ns</text>
</g>
<!-- 94378856018080&#45;&gt;94378914556688 -->
<g id="edge15" class="edge">
<title>94378856018080&#45;&gt;94378914556688</title>
<path fill="none" stroke="#ffffff" stroke-width="4" d="M475,-69.2659C475,-81.5301 475,-95.6967 475,-109.446"/>
<polygon fill="#ffffff" stroke="#ffffff" stroke-width="4" points="471.5001,-109.8405 475,-119.8405 478.5001,-109.8406 471.5001,-109.8405"/>
<text text-anchor="middle" x="587.5" y="-90.8" font-family="Times,serif" font-size="14.00" fill="#ffffff">1500000 row(s)/15 chunk(s)/114.197MB</text>
</g>
<!-- 94378870590768 -->
<g id="node17" class="node">
<title>94378870590768</title>
<polygon fill="none" stroke="#ffffff" points="732,-639 660,-639 660,-585 732,-585 732,-639"/>
<text text-anchor="middle" x="696" y="-623.8" font-family="Times,serif" font-size="14.00" fill="#ffffff">Projection</text>
<text text-anchor="middle" x="696" y="-592.8" font-family="Times,serif" font-size="14.00" fill="#ffffff">30 µs 0 ns</text>
</g>
<!-- 94378870590768&#45;&gt;94378870504656 -->
<g id="edge16" class="edge">
<title>94378870590768&#45;&gt;94378870504656</title>
<path fill="none" stroke="#ffffff" stroke-width="4" d="M692.6208,-639.3434C689.6673,-654.5233 684.1734,-673.0901 674,-687 671.2653,-690.7391 668.2224,-694.3179 664.9571,-697.7321"/>
<polygon fill="#ffffff" stroke="#ffffff" stroke-width="4" points="662.2514,-695.4791 657.4864,-704.942 667.1125,-700.516 662.2514,-695.4791"/>
<text text-anchor="middle" x="791" y="-675.8" font-family="Times,serif" font-size="14.00" fill="#ffffff">1478870 row(s)/61 chunk(s)/47.345MB</text>
</g>
<!-- 94378870590032 -->
<g id="node18" class="node">
<title>94378870590032</title>
<polygon fill="none" stroke="#ffffff" stroke-width="3" points="767.5,-519 624.5,-519 624.5,-420 767.5,-420 767.5,-519"/>
<text text-anchor="middle" x="696" y="-503.8" font-family="Times,serif" font-size="14.00" fill="#ffffff">TableScan</text>
<text text-anchor="middle" x="696" y="-488.8" font-family="Times,serif" font-size="14.00" fill="#ffffff">Impl: LiteralTableScan</text>
<text text-anchor="middle" x="696" y="-473.8" font-family="Times,serif" font-size="14.00" fill="#ffffff">l_returnflag = </text>
<text text-anchor="middle" x="696" y="-458.8" font-family="Times,serif" font-size="14.00" fill="#ffffff">&#39;R&#39;</text>
<text text-anchor="middle" x="696" y="-427.8" font-family="Times,serif" font-size="14.00" fill="#ffffff">16 ms 667 µs </text>
</g>
<!-- 94378870590032&#45;&gt;94378870590768 -->
<g id="edge17" class="edge">
<title>94378870590032&#45;&gt;94378870590768</title>
<path fill="none" stroke="#ffffff" stroke-width="4" d="M696,-519.3396C696,-537.551 696,-557.8196 696,-574.7453"/>
<polygon fill="#ffffff" stroke="#ffffff" stroke-width="4" points="692.5001,-574.8036 696,-584.8036 699.5001,-574.8037 692.5001,-574.8036"/>
<text text-anchor="middle" x="808.5" y="-540.8" font-family="Times,serif" font-size="14.00" fill="#ffffff">1478870 row(s)/61 chunk(s)/189.358MB</text>
</g>
<!-- 94378958893408 -->
<g id="node19" class="node">
<title>94378958893408</title>
<polygon fill="none" stroke="#ffffff" points="731.5,-354 660.5,-354 660.5,-285 731.5,-285 731.5,-354"/>
<text text-anchor="middle" x="696" y="-338.8" font-family="Times,serif" font-size="14.00" fill="#ffffff">GetTable</text>
<text text-anchor="middle" x="696" y="-323.8" font-family="Times,serif" font-size="14.00" fill="#ffffff">(lineitem)</text>
<text text-anchor="middle" x="696" y="-292.8" font-family="Times,serif" font-size="14.00" fill="#ffffff">1 µs 0 ns</text>
</g>
<!-- 94378958893408&#45;&gt;94378870590032 -->
<g id="edge18" class="edge">
<title>94378958893408&#45;&gt;94378870590032</title>
<path fill="none" stroke="#ffffff" stroke-width="4" d="M696,-354.29C696,-370.7963 696,-390.9918 696,-409.8376"/>
<polygon fill="#ffffff" stroke="#ffffff" stroke-width="4" points="692.5001,-409.8386 696,-419.8386 699.5001,-409.8386 692.5001,-409.8386"/>
<text text-anchor="middle" x="808.5" y="-390.8" font-family="Times,serif" font-size="14.00" fill="#ffffff">6001215 row(s)/61 chunk(s)/500.660MB</text>
</g>
</g>
</svg>
