<?xml version="1.0" encoding="UTF-8" standalone="no"?>
<!DOCTYPE svg PUBLIC "-//W3C//DTD SVG 1.1//EN"
 "http://www.w3.org/Graphics/SVG/1.1/DTD/svg11.dtd">
<!-- Generated by graphviz version 2.40.1 (20161225.0304)
 -->
<!-- Title: G Pages: 1 -->
<svg width="1136pt" height="916pt"
 viewBox="0.00 0.00 1136.00 916.00" xmlns="http://www.w3.org/2000/svg" xmlns:xlink="http://www.w3.org/1999/xlink">
<g id="graph0" class="graph" transform="scale(1 1) rotate(0) translate(4 912)">
<title>G</title>
<polygon fill="#000000" stroke="transparent" points="-4,4 -4,-912 1132,-912 1132,4 -4,4"/>
<!-- 94335573227120 -->
<g id="node1" class="node">
<title>94335573227120</title>
<polygon fill="none" stroke="#ffffff" points="956,-908 656,-908 656,-855 956,-855 956,-908"/>
<text text-anchor="middle" x="806" y="-892.8" font-family="Times,serif" font-size="14.00" fill="#ffffff">Alias [c_custkey, c_name, SUM(l_extendedprice * </text>
<text text-anchor="middle" x="806" y="-877.8" font-family="Times,serif" font-size="14.00" fill="#ffffff">(1 &#45; l_discount)) AS revenue, c_acctbal, n_name, </text>
<text text-anchor="middle" x="806" y="-862.8" font-family="Times,serif" font-size="14.00" fill="#ffffff">c_address, c_phone, c_comment] </text>
</g>
<!-- 94334847004976 -->
<g id="node2" class="node">
<title>94334847004976</title>
<polygon fill="none" stroke="#ffffff" points="960,-804 652,-804 652,-751 960,-751 960,-804"/>
<text text-anchor="middle" x="806" y="-788.8" font-family="Times,serif" font-size="14.00" fill="#ffffff">[Projection] c_custkey, c_name, </text>
<text text-anchor="middle" x="806" y="-773.8" font-family="Times,serif" font-size="14.00" fill="#ffffff">SUM(l_extendedprice * (1 &#45; l_discount)), </text>
<text text-anchor="middle" x="806" y="-758.8" font-family="Times,serif" font-size="14.00" fill="#ffffff">c_acctbal, n_name, c_address, c_phone, c_comment </text>
</g>
<!-- 94334847004976&#45;&gt;94335573227120 -->
<g id="edge1" class="edge">
<title>94334847004976&#45;&gt;94335573227120</title>
<path fill="none" stroke="#ffffff" stroke-width="4" d="M806,-804.0127C806,-816.2642 806,-831.0234 806,-844.3593"/>
<polygon fill="#ffffff" stroke="#ffffff" stroke-width="4" points="802.5001,-844.6741 806,-854.6741 809.5001,-844.6741 802.5001,-844.6741"/>
<text text-anchor="middle" x="898" y="-825.8" font-family="Times,serif" font-size="14.00" fill="#ffffff"> 2000405.0 row(s) | 100.0% estd.</text>
</g>
<!-- 94335573304480 -->
<g id="node3" class="node">
<title>94335573304480</title>
<polygon fill="none" stroke="#ffffff" points="945.5,-700 666.5,-700 666.5,-662 945.5,-662 945.5,-700"/>
<text text-anchor="middle" x="806" y="-684.8" font-family="Times,serif" font-size="14.00" fill="#ffffff">[Sort] SUM(l_extendedprice * (1 &#45; l_discount)) </text>
<text text-anchor="middle" x="806" y="-669.8" font-family="Times,serif" font-size="14.00" fill="#ffffff">(Descending) </text>
</g>
<!-- 94335573304480&#45;&gt;94334847004976 -->
<g id="edge2" class="edge">
<title>94335573304480&#45;&gt;94334847004976</title>
<path fill="none" stroke="#ffffff" stroke-width="4" d="M806,-700.0653C806,-711.6207 806,-726.7534 806,-740.5728"/>
<polygon fill="#ffffff" stroke="#ffffff" stroke-width="4" points="802.5001,-740.8035 806,-750.8035 809.5001,-740.8036 802.5001,-740.8035"/>
<text text-anchor="middle" x="898" y="-721.8" font-family="Times,serif" font-size="14.00" fill="#ffffff"> 2000405.0 row(s) | 100.0% estd.</text>
</g>
<!-- 94334847012704 -->
<g id="node4" class="node">
<title>94334847012704</title>
<polygon fill="none" stroke="#ffffff" points="962.5,-611 649.5,-611 649.5,-543 962.5,-543 962.5,-611"/>
<text text-anchor="middle" x="806" y="-595.8" font-family="Times,serif" font-size="14.00" fill="#ffffff">[Aggregate] GroupBy: [c_custkey, c_name, </text>
<text text-anchor="middle" x="806" y="-580.8" font-family="Times,serif" font-size="14.00" fill="#ffffff">c_acctbal, c_phone, n_name, c_address, c_comment] </text>
<text text-anchor="middle" x="806" y="-565.8" font-family="Times,serif" font-size="14.00" fill="#ffffff">Aggregates: [SUM(l_extendedprice * (1 &#45; </text>
<text text-anchor="middle" x="806" y="-550.8" font-family="Times,serif" font-size="14.00" fill="#ffffff">l_discount))] </text>
</g>
<!-- 94334847012704&#45;&gt;94335573304480 -->
<g id="edge3" class="edge">
<title>94334847012704&#45;&gt;94335573304480</title>
<path fill="none" stroke="#ffffff" stroke-width="4" d="M806,-611.0535C806,-624.1973 806,-639.0848 806,-651.7364"/>
<polygon fill="#ffffff" stroke="#ffffff" stroke-width="4" points="802.5001,-651.7505 806,-661.7505 809.5001,-651.7505 802.5001,-651.7505"/>
<text text-anchor="middle" x="898" y="-632.8" font-family="Times,serif" font-size="14.00" fill="#ffffff"> 2000405.0 row(s) | 100.0% estd.</text>
</g>
<!-- 94334847005120 -->
<g id="node5" class="node">
<title>94334847005120</title>
<polygon fill="none" stroke="#ffffff" points="951.5,-492 660.5,-492 660.5,-439 951.5,-439 951.5,-492"/>
<text text-anchor="middle" x="806" y="-476.8" font-family="Times,serif" font-size="14.00" fill="#ffffff">[Projection] l_extendedprice * (1 &#45; l_discount), </text>
<text text-anchor="middle" x="806" y="-461.8" font-family="Times,serif" font-size="14.00" fill="#ffffff">c_custkey, c_name, c_acctbal, c_phone, n_name, </text>
<text text-anchor="middle" x="806" y="-446.8" font-family="Times,serif" font-size="14.00" fill="#ffffff">c_address, c_comment </text>
</g>
<!-- 94334847005120&#45;&gt;94334847012704 -->
<g id="edge4" class="edge">
<title>94334847005120&#45;&gt;94334847012704</title>
<path fill="none" stroke="#ffffff" stroke-width="4" d="M806,-492.207C806,-504.3232 806,-518.9786 806,-532.6731"/>
<polygon fill="#ffffff" stroke="#ffffff" stroke-width="4" points="802.5001,-532.9001 806,-542.9001 809.5001,-532.9002 802.5001,-532.9001"/>
<text text-anchor="middle" x="898" y="-513.8" font-family="Times,serif" font-size="14.00" fill="#ffffff"> 2000405.0 row(s) | 100.0% estd.</text>
</g>
<!-- 94334846991440 -->
<g id="node6" class="node">
<title>94334846991440</title>
<polygon fill="none" stroke="#ffffff" points="936,-388 676,-388 676,-352 936,-352 936,-388"/>
<text text-anchor="middle" x="806" y="-366.3" font-family="Times,serif" font-size="14.00" fill="#ffffff">[Join] Mode: Inner l_orderkey = o_orderkey</text>
</g>
<!-- 94334846991440&#45;&gt;94334847005120 -->
<g id="edge5" class="edge">
<title>94334846991440&#45;&gt;94334847005120</title>
<path fill="none" stroke="#ffffff" stroke-width="4" d="M806,-388.4134C806,-399.816 806,-414.8627 806,-428.6338"/>
<polygon fill="#ffffff" stroke="#ffffff" stroke-width="4" points="802.5001,-428.8344 806,-438.8345 809.5001,-428.8345 802.5001,-428.8344"/>
<text text-anchor="middle" x="891" y="-409.8" font-family="Times,serif" font-size="14.00" fill="#ffffff"> 2000405.0 row(s) | 0.0% estd.</text>
</g>
<!-- 94334846991264 -->
<g id="node7" class="node">
<title>94334846991264</title>
<polygon fill="none" stroke="#ffffff" points="798,-300 550,-300 550,-264 798,-264 798,-300"/>
<text text-anchor="middle" x="674" y="-278.3" font-family="Times,serif" font-size="14.00" fill="#ffffff">[Join] Mode: Inner c_custkey = o_custkey</text>
</g>
<!-- 94334846991264&#45;&gt;94334846991440 -->
<g id="edge6" class="edge">
<title>94334846991264&#45;&gt;94334846991440</title>
<path fill="none" stroke="#ffffff" stroke-width="4" d="M690.5906,-300.4079C700.9131,-311.1324 714.8754,-324.3917 729,-334 736.1807,-338.8848 744.1293,-343.4262 752.1132,-347.5239"/>
<polygon fill="#ffffff" stroke="#ffffff" stroke-width="4" points="750.5863,-350.6734 761.1032,-351.9566 753.682,-344.3951 750.5863,-350.6734"/>
<text text-anchor="middle" x="814" y="-322.8" font-family="Times,serif" font-size="14.00" fill="#ffffff"> 1500000.0 row(s) | 0.0% estd.</text>
</g>
<!-- 94334848120608 -->
<g id="node8" class="node">
<title>94334848120608</title>
<polygon fill="none" stroke="#ffffff" points="515,-212 243,-212 243,-176 515,-176 515,-212"/>
<text text-anchor="middle" x="379" y="-190.3" font-family="Times,serif" font-size="14.00" fill="#ffffff">[Join] Mode: Inner c_nationkey = n_nationkey</text>
</g>
<!-- 94334848120608&#45;&gt;94334846991264 -->
<g id="edge7" class="edge">
<title>94334848120608&#45;&gt;94334846991264</title>
<path fill="none" stroke="#ffffff" stroke-width="3" d="M419.3284,-212.01C444.2343,-222.6428 477.0499,-235.7814 507,-245 527.2139,-251.2218 549.1061,-256.8455 570.1783,-261.7223"/>
<polygon fill="#ffffff" stroke="#ffffff" stroke-width="3" points="569.5911,-265.1781 580.1183,-263.9825 571.1433,-258.3523 569.5911,-265.1781"/>
<text text-anchor="middle" x="588.5" y="-233.8" font-family="Times,serif" font-size="14.00" fill="#ffffff"> 150000.0 row(s) | 4.0% estd.</text>
</g>
<!-- 94335594681184 -->
<g id="node9" class="node">
<title>94335594681184</title>
<polygon fill="none" stroke="#ffffff" points="270,-125 0,-125 0,-87 270,-87 270,-125"/>
<text text-anchor="middle" x="135" y="-109.8" font-family="Times,serif" font-size="14.00" fill="#ffffff">[Projection] c_custkey, c_name, c_address, </text>
<text text-anchor="middle" x="135" y="-94.8" font-family="Times,serif" font-size="14.00" fill="#ffffff">c_nationkey, c_phone, c_acctbal, c_comment </text>
</g>
<!-- 94335594681184&#45;&gt;94334848120608 -->
<g id="edge8" class="edge">
<title>94335594681184&#45;&gt;94334848120608</title>
<path fill="none" stroke="#ffffff" stroke-width="3" d="M154.8404,-125.0594C167.6252,-136.299 185.1464,-149.8701 203,-158 216.1453,-163.9859 230.2945,-168.9842 244.6542,-173.1563"/>
<polygon fill="#ffffff" stroke="#ffffff" stroke-width="3" points="244.0481,-176.6201 254.6194,-175.9147 245.9155,-169.8738 244.0481,-176.6201"/>
<text text-anchor="middle" x="291.5" y="-146.8" font-family="Times,serif" font-size="14.00" fill="#ffffff"> 150000.0 row(s) | 100.0% estd.</text>
</g>
<!-- 94335563220368 -->
<g id="node10" class="node">
<title>94335563220368</title>
<polygon fill="none" stroke="#ffffff" points="230.5,-36 39.5,-36 39.5,0 230.5,0 230.5,-36"/>
<text text-anchor="middle" x="135" y="-14.3" font-family="Times,serif" font-size="14.00" fill="#ffffff">[StoredTable] Name: &#39;customer&#39;</text>
</g>
<!-- 94335563220368&#45;&gt;94335594681184 -->
<g id="edge9" class="edge">
<title>94335563220368&#45;&gt;94335594681184</title>
<path fill="none" stroke="#ffffff" stroke-width="3" d="M135,-36.2337C135,-47.9125 135,-63.3308 135,-76.7022"/>
<polygon fill="#ffffff" stroke="#ffffff" stroke-width="3" points="131.5001,-76.8765 135,-86.8765 138.5001,-76.8765 131.5001,-76.8765"/>
<text text-anchor="middle" x="223.5" y="-57.8" font-family="Times,serif" font-size="14.00" fill="#ffffff"> 150000.0 row(s) | 100.0% estd.</text>
</g>
<!-- 94334847012992 -->
<g id="node11" class="node">
<title>94334847012992</title>
<polygon fill="none" stroke="#ffffff" points="491.5,-124 288.5,-124 288.5,-88 491.5,-88 491.5,-124"/>
<text text-anchor="middle" x="390" y="-102.3" font-family="Times,serif" font-size="14.00" fill="#ffffff">[Projection] n_nationkey, n_name</text>
</g>
<!-- 94334847012992&#45;&gt;94334848120608 -->
<g id="edge10" class="edge">
<title>94334847012992&#45;&gt;94334848120608</title>
<path fill="none" stroke="#ffffff" d="M387.7208,-124.2337C386.2311,-136.1508 384.2548,-151.9616 382.5602,-165.5183"/>
<polygon fill="#ffffff" stroke="#ffffff" points="379.0437,-165.4328 381.2763,-175.7897 385.9897,-166.3011 379.0437,-165.4328"/>
<text text-anchor="middle" x="461" y="-146.8" font-family="Times,serif" font-size="14.00" fill="#ffffff"> 25.0 row(s) | 100.0% estd.</text>
</g>
<!-- 94334847112112 -->
<g id="node12" class="node">
<title>94334847112112</title>
<polygon fill="none" stroke="#ffffff" points="477,-36 303,-36 303,0 477,0 477,-36"/>
<text text-anchor="middle" x="390" y="-14.3" font-family="Times,serif" font-size="14.00" fill="#ffffff">[StoredTable] Name: &#39;nation&#39;</text>
</g>
<!-- 94334847112112&#45;&gt;94334847012992 -->
<g id="edge11" class="edge">
<title>94334847112112&#45;&gt;94334847012992</title>
<path fill="none" stroke="#ffffff" d="M390,-36.2337C390,-48.1508 390,-63.9616 390,-77.5183"/>
<polygon fill="#ffffff" stroke="#ffffff" points="386.5001,-77.7897 390,-87.7897 393.5001,-77.7897 386.5001,-77.7897"/>
<text text-anchor="middle" x="465" y="-57.8" font-family="Times,serif" font-size="14.00" fill="#ffffff"> 25.0 row(s) | 100.0% estd.</text>
</g>
<!-- 94335594681040 -->
<g id="node13" class="node">
<title>94335594681040</title>
<polygon fill="none" stroke="#ffffff" points="814.5,-212 533.5,-212 533.5,-176 814.5,-176 814.5,-212"/>
<text text-anchor="middle" x="674" y="-190.3" font-family="Times,serif" font-size="14.00" fill="#ffffff">[Projection] o_orderkey, o_custkey, o_orderdate</text>
</g>
<!-- 94335594681040&#45;&gt;94334846991264 -->
<g id="edge12" class="edge">
<title>94335594681040&#45;&gt;94334846991264</title>
<path fill="none" stroke="#ffffff" stroke-width="4" d="M674,-212.2337C674,-224.1508 674,-239.9616 674,-253.5183"/>
<polygon fill="#ffffff" stroke="#ffffff" stroke-width="4" points="670.5001,-253.7897 674,-263.7897 677.5001,-253.7897 670.5001,-253.7897"/>
<text text-anchor="middle" x="766" y="-233.8" font-family="Times,serif" font-size="14.00" fill="#ffffff"> 1500000.0 row(s) | 100.0% estd.</text>
</g>
<!-- 94335594194224 -->
<g id="node14" class="node">
<title>94335594194224</title>
<polygon fill="none" stroke="#ffffff" points="834.5,-125 513.5,-125 513.5,-87 834.5,-87 834.5,-125"/>
<text text-anchor="middle" x="674" y="-109.8" font-family="Times,serif" font-size="14.00" fill="#ffffff">[Predicate] o_orderdate BETWEEN &#39;1993&#45;10&#45;01&#39; AND </text>
<text text-anchor="middle" x="674" y="-94.8" font-family="Times,serif" font-size="14.00" fill="#ffffff">&#39;1994&#45;01&#45;00&#39; </text>
</g>
<!-- 94335594194224&#45;&gt;94335594681040 -->
<g id="edge13" class="edge">
<title>94335594194224&#45;&gt;94335594681040</title>
<path fill="none" stroke="#ffffff" stroke-width="4" d="M674,-125.0947C674,-136.981 674,-152.483 674,-165.7725"/>
<polygon fill="#ffffff" stroke="#ffffff" stroke-width="4" points="670.5001,-165.8447 674,-175.8447 677.5001,-165.8448 670.5001,-165.8447"/>
<text text-anchor="middle" x="766" y="-146.8" font-family="Times,serif" font-size="14.00" fill="#ffffff"> 1500000.0 row(s) | 100.0% estd.</text>
</g>
<!-- 94334563737808 -->
<g id="node15" class="node">
<title>94334563737808</title>
<polygon fill="none" stroke="#ffffff" points="761,-36 587,-36 587,0 761,0 761,-36"/>
<text text-anchor="middle" x="674" y="-14.3" font-family="Times,serif" font-size="14.00" fill="#ffffff">[StoredTable] Name: &#39;orders&#39;</text>
</g>
<!-- 94334563737808&#45;&gt;94335594194224 -->
<g id="edge14" class="edge">
<title>94334563737808&#45;&gt;94335594194224</title>
<path fill="none" stroke="#ffffff" stroke-width="4" d="M674,-36.2337C674,-47.9125 674,-63.3308 674,-76.7022"/>
<polygon fill="#ffffff" stroke="#ffffff" stroke-width="4" points="670.5001,-76.8765 674,-86.8765 677.5001,-76.8765 670.5001,-76.8765"/>
<text text-anchor="middle" x="766" y="-57.8" font-family="Times,serif" font-size="14.00" fill="#ffffff"> 1500000.0 row(s) | 100.0% estd.</text>
</g>
<!-- 94335594680896 -->
<g id="node16" class="node">
<title>94335594680896</title>
<polygon fill="none" stroke="#ffffff" points="1062.5,-301 817.5,-301 817.5,-263 1062.5,-263 1062.5,-301"/>
<text text-anchor="middle" x="940" y="-285.8" font-family="Times,serif" font-size="14.00" fill="#ffffff">[Projection] l_orderkey, l_extendedprice, </text>
<text text-anchor="middle" x="940" y="-270.8" font-family="Times,serif" font-size="14.00" fill="#ffffff">l_discount, l_returnflag </text>
</g>
<!-- 94335594680896&#45;&gt;94334846991440 -->
<g id="edge15" class="edge">
<title>94335594680896&#45;&gt;94334846991440</title>
<path fill="none" stroke="#ffffff" stroke-width="4" d="M928.5475,-301.1894C921.2463,-312.0532 910.9287,-325.1883 899,-334 892.0186,-339.1572 884.205,-343.6751 876.1529,-347.6063"/>
<polygon fill="#ffffff" stroke="#ffffff" stroke-width="4" points="874.6289,-344.4546 866.9922,-351.7983 877.5417,-350.8198 874.6289,-344.4546"/>
<text text-anchor="middle" x="1006" y="-322.8" font-family="Times,serif" font-size="14.00" fill="#ffffff"> 2000405.0 row(s) | 100.0% estd.</text>
</g>
<!-- 94335594194752 -->
<g id="node17" class="node">
<title>94335594194752</title>
<polygon fill="none" stroke="#ffffff" points="1030.5,-212 857.5,-212 857.5,-176 1030.5,-176 1030.5,-212"/>
<text text-anchor="middle" x="944" y="-190.3" font-family="Times,serif" font-size="14.00" fill="#ffffff">[Predicate] l_returnflag = &#39;R&#39;</text>
</g>
<!-- 94335594194752&#45;&gt;94335594680896 -->
<g id="edge16" class="edge">
<title>94335594194752&#45;&gt;94335594680896</title>
<path fill="none" stroke="#ffffff" stroke-width="4" d="M943.1712,-212.2337C942.6403,-223.9125 941.9395,-239.3308 941.3317,-252.7022"/>
<polygon fill="#ffffff" stroke="#ffffff" stroke-width="4" points="937.827,-252.7279 940.8693,-262.8765 944.8198,-253.0458 937.827,-252.7279"/>
<text text-anchor="middle" x="1030.5" y="-233.8" font-family="Times,serif" font-size="14.00" fill="#ffffff"> 2000405.0 row(s) | 33.3% estd.</text>
</g>
<!-- 94334562265360 -->
<g id="node18" class="node">
<title>94334562265360</title>
<polygon fill="none" stroke="#ffffff" points="1037.5,-124 852.5,-124 852.5,-88 1037.5,-88 1037.5,-124"/>
<text text-anchor="middle" x="945" y="-102.3" font-family="Times,serif" font-size="14.00" fill="#ffffff">[StoredTable] Name: &#39;lineitem&#39;</text>
</g>
<!-- 94334562265360&#45;&gt;94335594194752 -->
<g id="edge17" class="edge">
<title>94334562265360&#45;&gt;94335594194752</title>
<path fill="none" stroke="#ffffff" stroke-width="4" d="M944.7928,-124.2337C944.6574,-136.1508 944.4777,-151.9616 944.3237,-165.5183"/>
<polygon fill="#ffffff" stroke="#ffffff" stroke-width="4" points="940.8209,-165.7505 944.2069,-175.7897 947.8204,-165.8302 940.8209,-165.7505"/>
<text text-anchor="middle" x="1036" y="-146.8" font-family="Times,serif" font-size="14.00" fill="#ffffff"> 6001215.0 row(s) | 100.0% estd.</text>
</g>
</g>
</svg>
