<?xml version="1.0" encoding="UTF-8" standalone="no"?>
<!DOCTYPE svg PUBLIC "-//W3C//DTD SVG 1.1//EN"
 "http://www.w3.org/Graphics/SVG/1.1/DTD/svg11.dtd">
<!-- Generated by graphviz version 2.40.1 (20161225.0304)
 -->
<!-- Title: G Pages: 1 -->
<svg width="595pt" height="770pt"
 viewBox="0.00 0.00 595.00 770.00" xmlns="http://www.w3.org/2000/svg" xmlns:xlink="http://www.w3.org/1999/xlink">
<g id="graph0" class="graph" transform="scale(1 1) rotate(0) translate(4 766)">
<title>G</title>
<polygon fill="#000000" stroke="transparent" points="-4,4 -4,-766 591,-766 591,4 -4,4"/>
<!-- 94334831948720 -->
<g id="node1" class="node">
<title>94334831948720</title>
<polygon fill="none" stroke="#ffffff" points="463,-762 109,-762 109,-694 463,-694 463,-762"/>
<text text-anchor="middle" x="286" y="-746.8" font-family="Times,serif" font-size="14.00" fill="#ffffff">Alias [(100 * SUM(CASE WHEN p_type LIKE &#39;PROMO%&#39; </text>
<text text-anchor="middle" x="286" y="-731.8" font-family="Times,serif" font-size="14.00" fill="#ffffff">THEN l_extendedprice * (1 &#45; l_discount) ELSE 0 </text>
<text text-anchor="middle" x="286" y="-716.8" font-family="Times,serif" font-size="14.00" fill="#ffffff">END)) / SUM(l_extendedprice * (1 &#45; l_discount)) </text>
<text text-anchor="middle" x="286" y="-701.8" font-family="Times,serif" font-size="14.00" fill="#ffffff">AS promo_revenue] </text>
</g>
<!-- 94334832173232 -->
<g id="node2" class="node">
<title>94334832173232</title>
<polygon fill="none" stroke="#ffffff" points="444.5,-643 127.5,-643 127.5,-575 444.5,-575 444.5,-643"/>
<text text-anchor="middle" x="286" y="-627.8" font-family="Times,serif" font-size="14.00" fill="#ffffff">[Projection] (100 * SUM(CASE WHEN p_type LIKE </text>
<text text-anchor="middle" x="286" y="-612.8" font-family="Times,serif" font-size="14.00" fill="#ffffff">&#39;PROMO%&#39; THEN l_extendedprice * (1 &#45; l_discount) </text>
<text text-anchor="middle" x="286" y="-597.8" font-family="Times,serif" font-size="14.00" fill="#ffffff">ELSE 0 END)) / SUM(l_extendedprice * (1 &#45; </text>
<text text-anchor="middle" x="286" y="-582.8" font-family="Times,serif" font-size="14.00" fill="#ffffff">l_discount)) </text>
</g>
<!-- 94334832173232&#45;&gt;94334831948720 -->
<g id="edge1" class="edge">
<title>94334832173232&#45;&gt;94334831948720</title>
<path fill="none" stroke="#ffffff" stroke-width="4" d="M286,-643.1006C286,-655.7979 286,-670.3949 286,-683.8643"/>
<polygon fill="#ffffff" stroke="#ffffff" stroke-width="4" points="282.5001,-683.8944 286,-693.8944 289.5001,-683.8944 282.5001,-683.8944"/>
<text text-anchor="middle" x="378" y="-664.8" font-family="Times,serif" font-size="14.00" fill="#ffffff"> 6001214.5 row(s) | 100.0% estd.</text>
</g>
<!-- 94334831974400 -->
<g id="node3" class="node">
<title>94334831974400</title>
<polygon fill="none" stroke="#ffffff" points="445,-524 127,-524 127,-456 445,-456 445,-524"/>
<text text-anchor="middle" x="286" y="-508.8" font-family="Times,serif" font-size="14.00" fill="#ffffff">[Aggregate] GroupBy: [] Aggregates: </text>
<text text-anchor="middle" x="286" y="-493.8" font-family="Times,serif" font-size="14.00" fill="#ffffff">[SUM(l_extendedprice * (1 &#45; l_discount)), </text>
<text text-anchor="middle" x="286" y="-478.8" font-family="Times,serif" font-size="14.00" fill="#ffffff">SUM(CASE WHEN p_type LIKE &#39;PROMO%&#39; THEN </text>
<text text-anchor="middle" x="286" y="-463.8" font-family="Times,serif" font-size="14.00" fill="#ffffff">l_extendedprice * (1 &#45; l_discount) ELSE 0 END)] </text>
</g>
<!-- 94334831974400&#45;&gt;94334832173232 -->
<g id="edge2" class="edge">
<title>94334831974400&#45;&gt;94334832173232</title>
<path fill="none" stroke="#ffffff" stroke-width="4" d="M286,-524.1006C286,-536.7979 286,-551.3949 286,-564.8643"/>
<polygon fill="#ffffff" stroke="#ffffff" stroke-width="4" points="282.5001,-564.8944 286,-574.8944 289.5001,-564.8944 282.5001,-564.8944"/>
<text text-anchor="middle" x="378" y="-545.8" font-family="Times,serif" font-size="14.00" fill="#ffffff"> 6001214.5 row(s) | 100.0% estd.</text>
</g>
<!-- 94335584462800 -->
<g id="node4" class="node">
<title>94335584462800</title>
<polygon fill="none" stroke="#ffffff" points="428,-405 144,-405 144,-352 428,-352 428,-405"/>
<text text-anchor="middle" x="286" y="-389.8" font-family="Times,serif" font-size="14.00" fill="#ffffff">[Projection] l_extendedprice * (1 &#45; l_discount), </text>
<text text-anchor="middle" x="286" y="-374.8" font-family="Times,serif" font-size="14.00" fill="#ffffff">CASE WHEN p_type LIKE &#39;PROMO%&#39; THEN </text>
<text text-anchor="middle" x="286" y="-359.8" font-family="Times,serif" font-size="14.00" fill="#ffffff">l_extendedprice * (1 &#45; l_discount) ELSE 0 END </text>
</g>
<!-- 94335584462800&#45;&gt;94334831974400 -->
<g id="edge3" class="edge">
<title>94335584462800&#45;&gt;94334831974400</title>
<path fill="none" stroke="#ffffff" stroke-width="4" d="M286,-405.207C286,-417.3232 286,-431.9786 286,-445.6731"/>
<polygon fill="#ffffff" stroke="#ffffff" stroke-width="4" points="282.5001,-445.9001 286,-455.9001 289.5001,-445.9002 282.5001,-445.9001"/>
<text text-anchor="middle" x="378" y="-426.8" font-family="Times,serif" font-size="14.00" fill="#ffffff"> 6001214.5 row(s) | 100.0% estd.</text>
</g>
<!-- 94335587718304 -->
<g id="node5" class="node">
<title>94335587718304</title>
<polygon fill="none" stroke="#ffffff" points="408.5,-301 163.5,-301 163.5,-265 408.5,-265 408.5,-301"/>
<text text-anchor="middle" x="286" y="-279.3" font-family="Times,serif" font-size="14.00" fill="#ffffff">[Join] Mode: Inner l_partkey = p_partkey</text>
</g>
<!-- 94335587718304&#45;&gt;94335584462800 -->
<g id="edge4" class="edge">
<title>94335587718304&#45;&gt;94335584462800</title>
<path fill="none" stroke="#ffffff" stroke-width="4" d="M286,-301.4134C286,-312.816 286,-327.8627 286,-341.6338"/>
<polygon fill="#ffffff" stroke="#ffffff" stroke-width="4" points="282.5001,-341.8344 286,-351.8345 289.5001,-341.8345 282.5001,-341.8344"/>
<text text-anchor="middle" x="371" y="-322.8" font-family="Times,serif" font-size="14.00" fill="#ffffff"> 6001214.5 row(s) | 0.0% estd.</text>
</g>
<!-- 94334831948880 -->
<g id="node6" class="node">
<title>94334831948880</title>
<polygon fill="none" stroke="#ffffff" points="291.5,-214 54.5,-214 54.5,-176 291.5,-176 291.5,-214"/>
<text text-anchor="middle" x="173" y="-198.8" font-family="Times,serif" font-size="14.00" fill="#ffffff">[Projection] l_partkey, l_extendedprice, </text>
<text text-anchor="middle" x="173" y="-183.8" font-family="Times,serif" font-size="14.00" fill="#ffffff">l_discount, l_shipdate </text>
</g>
<!-- 94334831948880&#45;&gt;94335587718304 -->
<g id="edge5" class="edge">
<title>94334831948880&#45;&gt;94335587718304</title>
<path fill="none" stroke="#ffffff" stroke-width="4" d="M176.3756,-214.1741C179.177,-225.0326 184.1866,-238.1675 193,-247 197.9299,-251.9405 203.6132,-256.2178 209.6906,-259.9181"/>
<polygon fill="#ffffff" stroke="#ffffff" stroke-width="4" points="208.3841,-263.1935 218.8345,-264.9368 211.7522,-257.0571 208.3841,-263.1935"/>
<text text-anchor="middle" x="285" y="-235.8" font-family="Times,serif" font-size="14.00" fill="#ffffff"> 6001215.0 row(s) | 100.0% estd.</text>
</g>
<!-- 94334847109808 -->
<g id="node7" class="node">
<title>94334847109808</title>
<polygon fill="none" stroke="#ffffff" points="312,-125 0,-125 0,-87 312,-87 312,-125"/>
<text text-anchor="middle" x="156" y="-109.8" font-family="Times,serif" font-size="14.00" fill="#ffffff">[Predicate] l_shipdate BETWEEN &#39;1995&#45;09&#45;01&#39; AND </text>
<text text-anchor="middle" x="156" y="-94.8" font-family="Times,serif" font-size="14.00" fill="#ffffff">&#39;1995&#45;10&#45;00&#39; </text>
</g>
<!-- 94334847109808&#45;&gt;94334831948880 -->
<g id="edge6" class="edge">
<title>94334847109808&#45;&gt;94334831948880</title>
<path fill="none" stroke="#ffffff" stroke-width="4" d="M159.6887,-125.3117C161.9387,-137.091 164.8594,-152.3813 167.3914,-165.6372"/>
<polygon fill="#ffffff" stroke="#ffffff" stroke-width="4" points="164.0043,-166.5603 169.3185,-175.726 170.88,-165.2469 164.0043,-166.5603"/>
<text text-anchor="middle" x="258" y="-146.8" font-family="Times,serif" font-size="14.00" fill="#ffffff"> 6001215.0 row(s) | 100.0% estd.</text>
</g>
<!-- 94334772288592 -->
<g id="node8" class="node">
<title>94334772288592</title>
<polygon fill="none" stroke="#ffffff" points="248.5,-36 63.5,-36 63.5,0 248.5,0 248.5,-36"/>
<text text-anchor="middle" x="156" y="-14.3" font-family="Times,serif" font-size="14.00" fill="#ffffff">[StoredTable] Name: &#39;lineitem&#39;</text>
</g>
<!-- 94334772288592&#45;&gt;94334847109808 -->
<g id="edge7" class="edge">
<title>94334772288592&#45;&gt;94334847109808</title>
<path fill="none" stroke="#ffffff" stroke-width="4" d="M156,-36.2337C156,-47.9125 156,-63.3308 156,-76.7022"/>
<polygon fill="#ffffff" stroke="#ffffff" stroke-width="4" points="152.5001,-76.8765 156,-86.8765 159.5001,-76.8765 152.5001,-76.8765"/>
<text text-anchor="middle" x="248" y="-57.8" font-family="Times,serif" font-size="14.00" fill="#ffffff"> 6001215.0 row(s) | 100.0% estd.</text>
</g>
<!-- 94334845410896 -->
<g id="node9" class="node">
<title>94334845410896</title>
<polygon fill="none" stroke="#ffffff" points="499.5,-213 316.5,-213 316.5,-177 499.5,-177 499.5,-213"/>
<text text-anchor="middle" x="408" y="-191.3" font-family="Times,serif" font-size="14.00" fill="#ffffff">[Projection] p_partkey, p_type</text>
</g>
<!-- 94334845410896&#45;&gt;94335587718304 -->
<g id="edge8" class="edge">
<title>94334845410896&#45;&gt;94335587718304</title>
<path fill="none" stroke="#ffffff" stroke-width="3" d="M400.6637,-213.4539C395.4784,-224.4656 387.5666,-238.0099 377,-247 370.9949,-252.1091 364.1767,-256.5489 357.0375,-260.3941"/>
<polygon fill="#ffffff" stroke="#ffffff" stroke-width="3" points="355.259,-257.3695 347.8598,-264.9524 358.3729,-263.6388 355.259,-257.3695"/>
<text text-anchor="middle" x="479.5" y="-235.8" font-family="Times,serif" font-size="14.00" fill="#ffffff"> 200000.0 row(s) | 100.0% estd.</text>
</g>
<!-- 94334711518992 -->
<g id="node10" class="node">
<title>94334711518992</title>
<polygon fill="none" stroke="#ffffff" points="491.5,-124 330.5,-124 330.5,-88 491.5,-88 491.5,-124"/>
<text text-anchor="middle" x="411" y="-102.3" font-family="Times,serif" font-size="14.00" fill="#ffffff">[StoredTable] Name: &#39;part&#39;</text>
</g>
<!-- 94334711518992&#45;&gt;94334845410896 -->
<g id="edge9" class="edge">
<title>94334711518992&#45;&gt;94334845410896</title>
<path fill="none" stroke="#ffffff" stroke-width="3" d="M410.3929,-124.0105C409.9809,-136.2342 409.4275,-152.6505 408.9567,-166.6176"/>
<polygon fill="#ffffff" stroke="#ffffff" stroke-width="3" points="405.4555,-166.5986 408.6165,-176.7108 412.4515,-166.8345 405.4555,-166.5986"/>
<text text-anchor="middle" x="498.5" y="-146.8" font-family="Times,serif" font-size="14.00" fill="#ffffff"> 200000.0 row(s) | 100.0% estd.</text>
</g>
</g>
</svg>
