<?xml version="1.0" encoding="UTF-8" standalone="no"?>
<!DOCTYPE svg PUBLIC "-//W3C//DTD SVG 1.1//EN"
 "http://www.w3.org/Graphics/SVG/1.1/DTD/svg11.dtd">
<!-- Generated by graphviz version 2.40.1 (20161225.0304)
 -->
<!-- Title: G Pages: 1 -->
<svg width="1524pt" height="1098pt"
 viewBox="0.00 0.00 1524.00 1098.00" xmlns="http://www.w3.org/2000/svg" xmlns:xlink="http://www.w3.org/1999/xlink">
<g id="graph0" class="graph" transform="scale(1 1) rotate(0) translate(4 1094)">
<title>G</title>
<polygon fill="#000000" stroke="transparent" points="-4,4 -4,-1094 1520,-1094 1520,4 -4,4"/>
<!-- 94377838392960 -->
<g id="node1" class="node">
<title>94377838392960</title>
<polygon fill="none" stroke="#ffffff" points="364.5,-1090 101.5,-1090 101.5,-1052 364.5,-1052 364.5,-1090"/>
<text text-anchor="middle" x="233" y="-1074.8" font-family="Times,serif" font-size="14.00" fill="#ffffff">Alias [n_name, SUM(l_extendedprice * (1 &#45; </text>
<text text-anchor="middle" x="233" y="-1059.8" font-family="Times,serif" font-size="14.00" fill="#ffffff">l_discount)) AS revenue] </text>
</g>
<!-- 94378108551520 -->
<g id="node2" class="node">
<title>94378108551520</title>
<polygon fill="none" stroke="#ffffff" points="372.5,-1001 93.5,-1001 93.5,-963 372.5,-963 372.5,-1001"/>
<text text-anchor="middle" x="233" y="-985.8" font-family="Times,serif" font-size="14.00" fill="#ffffff">[Sort] SUM(l_extendedprice * (1 &#45; l_discount)) </text>
<text text-anchor="middle" x="233" y="-970.8" font-family="Times,serif" font-size="14.00" fill="#ffffff">(Descending) </text>
</g>
<!-- 94378108551520&#45;&gt;94377838392960 -->
<g id="edge1" class="edge">
<title>94378108551520&#45;&gt;94377838392960</title>
<path fill="none" stroke="#ffffff" stroke-width="3" d="M233,-1001.3117C233,-1013.091 233,-1028.3813 233,-1041.6372"/>
<polygon fill="#ffffff" stroke="#ffffff" stroke-width="3" points="229.5001,-1041.726 233,-1051.726 236.5001,-1041.726 229.5001,-1041.726"/>
<text text-anchor="middle" x="318" y="-1022.8" font-family="Times,serif" font-size="14.00" fill="#ffffff"> 48009.7 row(s) | 100.0% estd.</text>
</g>
<!-- 94377838392496 -->
<g id="node3" class="node">
<title>94377838392496</title>
<polygon fill="none" stroke="#ffffff" points="367.5,-912 98.5,-912 98.5,-874 367.5,-874 367.5,-912"/>
<text text-anchor="middle" x="233" y="-896.8" font-family="Times,serif" font-size="14.00" fill="#ffffff">[Aggregate] GroupBy: [n_name] Aggregates: </text>
<text text-anchor="middle" x="233" y="-881.8" font-family="Times,serif" font-size="14.00" fill="#ffffff">[SUM(l_extendedprice * (1 &#45; l_discount))] </text>
</g>
<!-- 94377838392496&#45;&gt;94378108551520 -->
<g id="edge2" class="edge">
<title>94377838392496&#45;&gt;94378108551520</title>
<path fill="none" stroke="#ffffff" stroke-width="3" d="M233,-912.3117C233,-924.091 233,-939.3813 233,-952.6372"/>
<polygon fill="#ffffff" stroke="#ffffff" stroke-width="3" points="229.5001,-952.726 233,-962.726 236.5001,-952.726 229.5001,-952.726"/>
<text text-anchor="middle" x="318" y="-933.8" font-family="Times,serif" font-size="14.00" fill="#ffffff"> 48009.7 row(s) | 100.0% estd.</text>
</g>
<!-- 94377838392304 -->
<g id="node4" class="node">
<title>94377838392304</title>
<polygon fill="none" stroke="#ffffff" points="371.5,-823 94.5,-823 94.5,-785 371.5,-785 371.5,-823"/>
<text text-anchor="middle" x="233" y="-807.8" font-family="Times,serif" font-size="14.00" fill="#ffffff">[Projection] l_extendedprice * (1 &#45; l_discount), </text>
<text text-anchor="middle" x="233" y="-792.8" font-family="Times,serif" font-size="14.00" fill="#ffffff">n_name </text>
</g>
<!-- 94377838392304&#45;&gt;94377838392496 -->
<g id="edge3" class="edge">
<title>94377838392304&#45;&gt;94377838392496</title>
<path fill="none" stroke="#ffffff" stroke-width="3" d="M233,-823.3117C233,-835.091 233,-850.3813 233,-863.6372"/>
<polygon fill="#ffffff" stroke="#ffffff" stroke-width="3" points="229.5001,-863.726 233,-873.726 236.5001,-863.726 229.5001,-863.726"/>
<text text-anchor="middle" x="318" y="-844.8" font-family="Times,serif" font-size="14.00" fill="#ffffff"> 48009.7 row(s) | 100.0% estd.</text>
</g>
<!-- 94377838386672 -->
<g id="node5" class="node">
<title>94377838386672</title>
<polygon fill="none" stroke="#ffffff" points="346.5,-734 119.5,-734 119.5,-698 346.5,-698 346.5,-734"/>
<text text-anchor="middle" x="233" y="-712.3" font-family="Times,serif" font-size="14.00" fill="#ffffff">[Predicate] c_nationkey = s_nationkey</text>
</g>
<!-- 94377838386672&#45;&gt;94377838392304 -->
<g id="edge4" class="edge">
<title>94377838386672&#45;&gt;94377838392304</title>
<path fill="none" stroke="#ffffff" stroke-width="3" d="M233,-734.2337C233,-745.9125 233,-761.3308 233,-774.7022"/>
<polygon fill="#ffffff" stroke="#ffffff" stroke-width="3" points="229.5001,-774.8765 233,-784.8765 236.5001,-774.8765 229.5001,-774.8765"/>
<text text-anchor="middle" x="311.5" y="-755.8" font-family="Times,serif" font-size="14.00" fill="#ffffff"> 48009.7 row(s) | 4.0% estd.</text>
</g>
<!-- 94377838537568 -->
<g id="node6" class="node">
<title>94377838537568</title>
<polygon fill="none" stroke="#ffffff" points="357,-647 109,-647 109,-611 357,-611 357,-647"/>
<text text-anchor="middle" x="233" y="-625.3" font-family="Times,serif" font-size="14.00" fill="#ffffff">[Join] Mode: Inner c_custkey = o_custkey</text>
</g>
<!-- 94377838537568&#45;&gt;94377838386672 -->
<g id="edge5" class="edge">
<title>94377838537568&#45;&gt;94377838386672</title>
<path fill="none" stroke="#ffffff" stroke-width="4" d="M233,-647.0265C233,-658.8082 233,-674.4393 233,-687.8419"/>
<polygon fill="#ffffff" stroke="#ffffff" stroke-width="4" points="229.5001,-687.9966 233,-697.9966 236.5001,-687.9967 229.5001,-687.9966"/>
<text text-anchor="middle" x="318" y="-668.8" font-family="Times,serif" font-size="14.00" fill="#ffffff"> 1200243.0 row(s) | 0.0% estd.</text>
</g>
<!-- 94377838393920 -->
<g id="node7" class="node">
<title>94377838393920</title>
<polygon fill="none" stroke="#ffffff" points="212,-560 0,-560 0,-524 212,-524 212,-560"/>
<text text-anchor="middle" x="106" y="-538.3" font-family="Times,serif" font-size="14.00" fill="#ffffff">[Projection] c_custkey, c_nationkey</text>
</g>
<!-- 94377838393920&#45;&gt;94377838537568 -->
<g id="edge6" class="edge">
<title>94377838393920&#45;&gt;94377838537568</title>
<path fill="none" stroke="#ffffff" stroke-width="3" d="M117.4431,-560.4492C124.8104,-571.1076 135.1988,-584.1204 147,-593 153.6932,-598.0361 161.1946,-602.5073 168.904,-606.4361"/>
<polygon fill="#ffffff" stroke="#ffffff" stroke-width="3" points="167.4831,-609.6362 178.0138,-610.8003 170.5075,-603.3233 167.4831,-609.6362"/>
<text text-anchor="middle" x="235.5" y="-581.8" font-family="Times,serif" font-size="14.00" fill="#ffffff"> 150000.0 row(s) | 100.0% estd.</text>
</g>
<!-- 94377871694352 -->
<g id="node8" class="node">
<title>94377871694352</title>
<polygon fill="none" stroke="#ffffff" points="201.5,-473 10.5,-473 10.5,-437 201.5,-437 201.5,-473"/>
<text text-anchor="middle" x="106" y="-451.3" font-family="Times,serif" font-size="14.00" fill="#ffffff">[StoredTable] Name: &#39;customer&#39;</text>
</g>
<!-- 94377871694352&#45;&gt;94377838393920 -->
<g id="edge7" class="edge">
<title>94377871694352&#45;&gt;94377838393920</title>
<path fill="none" stroke="#ffffff" stroke-width="3" d="M106,-473.0265C106,-484.8082 106,-500.4393 106,-513.8419"/>
<polygon fill="#ffffff" stroke="#ffffff" stroke-width="3" points="102.5001,-513.9966 106,-523.9966 109.5001,-513.9967 102.5001,-513.9966"/>
<text text-anchor="middle" x="194.5" y="-494.8" font-family="Times,serif" font-size="14.00" fill="#ffffff"> 150000.0 row(s) | 100.0% estd.</text>
</g>
<!-- 94377838382624 -->
<g id="node9" class="node">
<title>94377838382624</title>
<polygon fill="none" stroke="#ffffff" points="490,-560 230,-560 230,-524 490,-524 490,-560"/>
<text text-anchor="middle" x="360" y="-538.3" font-family="Times,serif" font-size="14.00" fill="#ffffff">[Join] Mode: Inner l_orderkey = o_orderkey</text>
</g>
<!-- 94377838382624&#45;&gt;94377838537568 -->
<g id="edge8" class="edge">
<title>94377838382624&#45;&gt;94377838537568</title>
<path fill="none" stroke="#ffffff" stroke-width="4" d="M350.7584,-560.0804C344.4649,-570.8734 335.245,-584.1564 324,-593 317.4729,-598.1333 310.1211,-602.6186 302.4975,-606.5164"/>
<polygon fill="#ffffff" stroke="#ffffff" stroke-width="4" points="300.9774,-603.3636 293.4563,-610.8258 303.9893,-609.6826 300.9774,-603.3636"/>
<text text-anchor="middle" x="424" y="-581.8" font-family="Times,serif" font-size="14.00" fill="#ffffff"> 1200243.0 row(s) | 0.0% estd.</text>
</g>
<!-- 94377838394112 -->
<g id="node10" class="node">
<title>94377838394112</title>
<polygon fill="none" stroke="#ffffff" points="500.5,-473 219.5,-473 219.5,-437 500.5,-437 500.5,-473"/>
<text text-anchor="middle" x="360" y="-451.3" font-family="Times,serif" font-size="14.00" fill="#ffffff">[Projection] o_orderkey, o_custkey, o_orderdate</text>
</g>
<!-- 94377838394112&#45;&gt;94377838382624 -->
<g id="edge9" class="edge">
<title>94377838394112&#45;&gt;94377838382624</title>
<path fill="none" stroke="#ffffff" stroke-width="4" d="M360,-473.0265C360,-484.8082 360,-500.4393 360,-513.8419"/>
<polygon fill="#ffffff" stroke="#ffffff" stroke-width="4" points="356.5001,-513.9966 360,-523.9966 363.5001,-513.9967 356.5001,-513.9966"/>
<text text-anchor="middle" x="452" y="-494.8" font-family="Times,serif" font-size="14.00" fill="#ffffff"> 1500000.0 row(s) | 100.0% estd.</text>
</g>
<!-- 94377838394560 -->
<g id="node11" class="node">
<title>94377838394560</title>
<polygon fill="none" stroke="#ffffff" points="473.5,-385 246.5,-385 246.5,-349 473.5,-349 473.5,-385"/>
<text text-anchor="middle" x="360" y="-363.3" font-family="Times,serif" font-size="14.00" fill="#ffffff">[Predicate] o_orderdate &lt; &#39;1995&#45;01&#45;01&#39;</text>
</g>
<!-- 94377838394560&#45;&gt;94377838394112 -->
<g id="edge10" class="edge">
<title>94377838394560&#45;&gt;94377838394112</title>
<path fill="none" stroke="#ffffff" stroke-width="4" d="M360,-385.2337C360,-397.1508 360,-412.9616 360,-426.5183"/>
<polygon fill="#ffffff" stroke="#ffffff" stroke-width="4" points="356.5001,-426.7897 360,-436.7897 363.5001,-426.7897 356.5001,-426.7897"/>
<text text-anchor="middle" x="452" y="-407.8" font-family="Times,serif" font-size="14.00" fill="#ffffff"> 1500000.0 row(s) | 100.0% estd.</text>
</g>
<!-- 94377838394256 -->
<g id="node12" class="node">
<title>94377838394256</title>
<polygon fill="none" stroke="#ffffff" points="478,-297 242,-297 242,-261 478,-261 478,-297"/>
<text text-anchor="middle" x="360" y="-275.3" font-family="Times,serif" font-size="14.00" fill="#ffffff">[Predicate] o_orderdate &gt;= &#39;1994&#45;01&#45;01&#39;</text>
</g>
<!-- 94377838394256&#45;&gt;94377838394560 -->
<g id="edge11" class="edge">
<title>94377838394256&#45;&gt;94377838394560</title>
<path fill="none" stroke="#ffffff" stroke-width="4" d="M360,-297.2337C360,-309.1508 360,-324.9616 360,-338.5183"/>
<polygon fill="#ffffff" stroke="#ffffff" stroke-width="4" points="356.5001,-338.7897 360,-348.7897 363.5001,-338.7897 356.5001,-338.7897"/>
<text text-anchor="middle" x="452" y="-318.8" font-family="Times,serif" font-size="14.00" fill="#ffffff"> 1500000.0 row(s) | 100.0% estd.</text>
</g>
<!-- 94377719026048 -->
<g id="node13" class="node">
<title>94377719026048</title>
<polygon fill="none" stroke="#ffffff" points="447,-210 273,-210 273,-174 447,-174 447,-210"/>
<text text-anchor="middle" x="360" y="-188.3" font-family="Times,serif" font-size="14.00" fill="#ffffff">[StoredTable] Name: &#39;orders&#39;</text>
</g>
<!-- 94377719026048&#45;&gt;94377838394256 -->
<g id="edge12" class="edge">
<title>94377719026048&#45;&gt;94377838394256</title>
<path fill="none" stroke="#ffffff" stroke-width="4" d="M360,-210.0265C360,-221.8082 360,-237.4393 360,-250.8419"/>
<polygon fill="#ffffff" stroke="#ffffff" stroke-width="4" points="356.5001,-250.9966 360,-260.9966 363.5001,-250.9967 356.5001,-250.9966"/>
<text text-anchor="middle" x="452" y="-231.8" font-family="Times,serif" font-size="14.00" fill="#ffffff"> 1500000.0 row(s) | 100.0% estd.</text>
</g>
<!-- 94377838380800 -->
<g id="node14" class="node">
<title>94377838380800</title>
<polygon fill="none" stroke="#ffffff" points="771,-473 519,-473 519,-437 771,-437 771,-473"/>
<text text-anchor="middle" x="645" y="-451.3" font-family="Times,serif" font-size="14.00" fill="#ffffff">[Join] Mode: Inner l_suppkey = s_suppkey</text>
</g>
<!-- 94377838380800&#45;&gt;94377838382624 -->
<g id="edge13" class="edge">
<title>94377838380800&#45;&gt;94377838382624</title>
<path fill="none" stroke="#ffffff" stroke-width="4" d="M615.8815,-473.2181C597.133,-484.2027 571.8844,-497.6418 548,-506 530.3041,-512.1926 511.2775,-517.4041 492.366,-521.7663"/>
<polygon fill="#ffffff" stroke="#ffffff" stroke-width="4" points="491.4914,-518.3753 482.4946,-523.9707 493.0171,-525.207 491.4914,-518.3753"/>
<text text-anchor="middle" x="667" y="-494.8" font-family="Times,serif" font-size="14.00" fill="#ffffff"> 1200243.0 row(s) | 0.0% estd.</text>
</g>
<!-- 94377838535824 -->
<g id="node15" class="node">
<title>94377838535824</title>
<polygon fill="none" stroke="#ffffff" points="729,-386 515,-386 515,-348 729,-348 729,-386"/>
<text text-anchor="middle" x="622" y="-370.8" font-family="Times,serif" font-size="14.00" fill="#ffffff">[Projection] l_orderkey, l_suppkey, </text>
<text text-anchor="middle" x="622" y="-355.8" font-family="Times,serif" font-size="14.00" fill="#ffffff">l_extendedprice, l_discount </text>
</g>
<!-- 94377838535824&#45;&gt;94377838380800 -->
<g id="edge14" class="edge">
<title>94377838535824&#45;&gt;94377838380800</title>
<path fill="none" stroke="#ffffff" stroke-width="4" d="M626.9907,-386.0947C630.1281,-398.0987 634.2293,-413.7903 637.7253,-427.1665"/>
<polygon fill="#ffffff" stroke="#ffffff" stroke-width="4" points="634.3398,-428.0548 640.2549,-436.8447 641.1124,-426.2846 634.3398,-428.0548"/>
<text text-anchor="middle" x="728" y="-407.8" font-family="Times,serif" font-size="14.00" fill="#ffffff"> 6001215.0 row(s) | 100.0% estd.</text>
</g>
<!-- 94377683027104 -->
<g id="node16" class="node">
<title>94377683027104</title>
<polygon fill="none" stroke="#ffffff" points="714.5,-297 529.5,-297 529.5,-261 714.5,-261 714.5,-297"/>
<text text-anchor="middle" x="622" y="-275.3" font-family="Times,serif" font-size="14.00" fill="#ffffff">[StoredTable] Name: &#39;lineitem&#39;</text>
</g>
<!-- 94377683027104&#45;&gt;94377838535824 -->
<g id="edge15" class="edge">
<title>94377683027104&#45;&gt;94377838535824</title>
<path fill="none" stroke="#ffffff" stroke-width="4" d="M622,-297.2337C622,-308.9125 622,-324.3308 622,-337.7022"/>
<polygon fill="#ffffff" stroke="#ffffff" stroke-width="4" points="618.5001,-337.8765 622,-347.8765 625.5001,-337.8765 618.5001,-337.8765"/>
<text text-anchor="middle" x="714" y="-318.8" font-family="Times,serif" font-size="14.00" fill="#ffffff"> 6001215.0 row(s) | 100.0% estd.</text>
</g>
<!-- 94377838390320 -->
<g id="node17" class="node">
<title>94377838390320</title>
<polygon fill="none" stroke="#ffffff" points="1019,-385 747,-385 747,-349 1019,-349 1019,-385"/>
<text text-anchor="middle" x="883" y="-363.3" font-family="Times,serif" font-size="14.00" fill="#ffffff">[Join] Mode: Inner s_nationkey = n_nationkey</text>
</g>
<!-- 94377838390320&#45;&gt;94377838380800 -->
<g id="edge16" class="edge">
<title>94377838390320&#45;&gt;94377838380800</title>
<path fill="none" stroke="#ffffff" stroke-width="2" d="M867.2275,-385.1268C856.2467,-396.5889 840.6351,-410.749 824,-419 812.9558,-424.4779 792.0978,-429.9505 768.4093,-434.9153"/>
<polygon fill="#ffffff" stroke="#ffffff" stroke-width="2" points="767.5762,-431.513 758.4751,-436.9372 768.9723,-438.3724 767.5762,-431.513"/>
<text text-anchor="middle" x="921" y="-407.8" font-family="Times,serif" font-size="14.00" fill="#ffffff"> 2000.0 row(s) | 4.0% estd.</text>
</g>
<!-- 94377838535632 -->
<g id="node18" class="node">
<title>94377838535632</title>
<polygon fill="none" stroke="#ffffff" points="968.5,-297 753.5,-297 753.5,-261 968.5,-261 968.5,-297"/>
<text text-anchor="middle" x="861" y="-275.3" font-family="Times,serif" font-size="14.00" fill="#ffffff">[Projection] s_suppkey, s_nationkey</text>
</g>
<!-- 94377838535632&#45;&gt;94377838390320 -->
<g id="edge17" class="edge">
<title>94377838535632&#45;&gt;94377838390320</title>
<path fill="none" stroke="#ffffff" stroke-width="2" d="M865.5584,-297.2337C868.5672,-309.2688 872.5688,-325.2751 875.9801,-338.9203"/>
<polygon fill="#ffffff" stroke="#ffffff" stroke-width="2" points="872.6265,-339.9372 878.4474,-348.7897 879.4175,-338.2394 872.6265,-339.9372"/>
<text text-anchor="middle" x="959" y="-318.8" font-family="Times,serif" font-size="14.00" fill="#ffffff"> 10000.0 row(s) | 100.0% estd.</text>
</g>
<!-- 94377610791984 -->
<g id="node19" class="node">
<title>94377610791984</title>
<polygon fill="none" stroke="#ffffff" points="953,-210 769,-210 769,-174 953,-174 953,-210"/>
<text text-anchor="middle" x="861" y="-188.3" font-family="Times,serif" font-size="14.00" fill="#ffffff">[StoredTable] Name: &#39;supplier&#39;</text>
</g>
<!-- 94377610791984&#45;&gt;94377838535632 -->
<g id="edge18" class="edge">
<title>94377610791984&#45;&gt;94377838535632</title>
<path fill="none" stroke="#ffffff" stroke-width="2" d="M861,-210.0265C861,-221.8082 861,-237.4393 861,-250.8419"/>
<polygon fill="#ffffff" stroke="#ffffff" stroke-width="2" points="857.5001,-250.9966 861,-260.9966 864.5001,-250.9967 857.5001,-250.9966"/>
<text text-anchor="middle" x="946" y="-231.8" font-family="Times,serif" font-size="14.00" fill="#ffffff"> 10000.0 row(s) | 100.0% estd.</text>
</g>
<!-- 94378333496768 -->
<g id="node20" class="node">
<title>94378333496768</title>
<polygon fill="none" stroke="#ffffff" points="1259,-297 987,-297 987,-261 1259,-261 1259,-297"/>
<text text-anchor="middle" x="1123" y="-275.3" font-family="Times,serif" font-size="14.00" fill="#ffffff">[Join] Mode: Inner n_regionkey = r_regionkey</text>
</g>
<!-- 94378333496768&#45;&gt;94377838390320 -->
<g id="edge19" class="edge">
<title>94378333496768&#45;&gt;94377838390320</title>
<path fill="none" stroke="#ffffff" d="M1101.0041,-297.2402C1086.7087,-308.2333 1067.2159,-321.6736 1048,-330 1033.1656,-336.4278 1017.078,-341.8024 1000.9628,-346.2793"/>
<polygon fill="#ffffff" stroke="#ffffff" points="999.6972,-342.9944 990.9363,-348.9523 1001.5004,-349.7582 999.6972,-342.9944"/>
<text text-anchor="middle" x="1143" y="-318.8" font-family="Times,serif" font-size="14.00" fill="#ffffff"> 5.0 row(s) | 20.0% estd.</text>
</g>
<!-- 94378108546336 -->
<g id="node21" class="node">
<title>94378108546336</title>
<polygon fill="none" stroke="#ffffff" points="1255,-210 977,-210 977,-174 1255,-174 1255,-210"/>
<text text-anchor="middle" x="1116" y="-188.3" font-family="Times,serif" font-size="14.00" fill="#ffffff">[Projection] n_nationkey, n_name, n_regionkey</text>
</g>
<!-- 94378108546336&#45;&gt;94378333496768 -->
<g id="edge20" class="edge">
<title>94378108546336&#45;&gt;94378333496768</title>
<path fill="none" stroke="#ffffff" d="M1117.4504,-210.0265C1118.3984,-221.8082 1119.656,-237.4393 1120.7344,-250.8419"/>
<polygon fill="#ffffff" stroke="#ffffff" points="1117.2606,-251.3096 1121.5515,-260.9966 1124.2381,-250.7481 1117.2606,-251.3096"/>
<text text-anchor="middle" x="1195" y="-231.8" font-family="Times,serif" font-size="14.00" fill="#ffffff"> 25.0 row(s) | 100.0% estd.</text>
</g>
<!-- 94377610792480 -->
<g id="node22" class="node">
<title>94377610792480</title>
<polygon fill="none" stroke="#ffffff" points="1203,-123 1029,-123 1029,-87 1203,-87 1203,-123"/>
<text text-anchor="middle" x="1116" y="-101.3" font-family="Times,serif" font-size="14.00" fill="#ffffff">[StoredTable] Name: &#39;nation&#39;</text>
</g>
<!-- 94377610792480&#45;&gt;94378108546336 -->
<g id="edge21" class="edge">
<title>94377610792480&#45;&gt;94378108546336</title>
<path fill="none" stroke="#ffffff" d="M1116,-123.0265C1116,-134.8082 1116,-150.4393 1116,-163.8419"/>
<polygon fill="#ffffff" stroke="#ffffff" points="1112.5001,-163.9966 1116,-173.9966 1119.5001,-163.9967 1112.5001,-163.9966"/>
<text text-anchor="middle" x="1191" y="-144.8" font-family="Times,serif" font-size="14.00" fill="#ffffff"> 25.0 row(s) | 100.0% estd.</text>
</g>
<!-- 94378108547056 -->
<g id="node23" class="node">
<title>94378108547056</title>
<polygon fill="none" stroke="#ffffff" points="1472.5,-210 1273.5,-210 1273.5,-174 1472.5,-174 1472.5,-210"/>
<text text-anchor="middle" x="1373" y="-188.3" font-family="Times,serif" font-size="14.00" fill="#ffffff">[Projection] r_regionkey, r_name</text>
</g>
<!-- 94378108547056&#45;&gt;94378333496768 -->
<g id="edge22" class="edge">
<title>94378108547056&#45;&gt;94378333496768</title>
<path fill="none" stroke="#ffffff" d="M1342.6634,-210.0635C1323.504,-220.8501 1297.9308,-234.1323 1274,-243 1262.5615,-247.2386 1240.3304,-252.9812 1216.3702,-258.6341"/>
<polygon fill="#ffffff" stroke="#ffffff" points="1215.3355,-255.2814 1206.3918,-260.9614 1216.9255,-262.0985 1215.3355,-255.2814"/>
<text text-anchor="middle" x="1379.5" y="-231.8" font-family="Times,serif" font-size="14.00" fill="#ffffff"> 1.0 row(s) | 100.0% estd.</text>
</g>
<!-- 94377838394704 -->
<g id="node24" class="node">
<title>94377838394704</title>
<polygon fill="none" stroke="#ffffff" points="1475,-123 1271,-123 1271,-87 1475,-87 1475,-123"/>
<text text-anchor="middle" x="1373" y="-101.3" font-family="Times,serif" font-size="14.00" fill="#ffffff">[Predicate] r_name = &#39;AMERICA&#39;</text>
</g>
<!-- 94377838394704&#45;&gt;94378108547056 -->
<g id="edge23" class="edge">
<title>94377838394704&#45;&gt;94378108547056</title>
<path fill="none" stroke="#ffffff" d="M1373,-123.0265C1373,-134.8082 1373,-150.4393 1373,-163.8419"/>
<polygon fill="#ffffff" stroke="#ffffff" points="1369.5001,-163.9966 1373,-173.9966 1376.5001,-163.9967 1369.5001,-163.9966"/>
<text text-anchor="middle" x="1441" y="-144.8" font-family="Times,serif" font-size="14.00" fill="#ffffff"> 1.0 row(s) | 20.0% estd.</text>
</g>
<!-- 94377610792976 -->
<g id="node25" class="node">
<title>94377610792976</title>
<polygon fill="none" stroke="#ffffff" points="1460.5,-36 1285.5,-36 1285.5,0 1460.5,0 1460.5,-36"/>
<text text-anchor="middle" x="1373" y="-14.3" font-family="Times,serif" font-size="14.00" fill="#ffffff">[StoredTable] Name: &#39;region&#39;</text>
</g>
<!-- 94377610792976&#45;&gt;94377838394704 -->
<g id="edge24" class="edge">
<title>94377610792976&#45;&gt;94377838394704</title>
<path fill="none" stroke="#ffffff" d="M1373,-36.0265C1373,-47.8082 1373,-63.4393 1373,-76.8419"/>
<polygon fill="#ffffff" stroke="#ffffff" points="1369.5001,-76.9966 1373,-86.9966 1376.5001,-76.9967 1369.5001,-76.9966"/>
<text text-anchor="middle" x="1444.5" y="-57.8" font-family="Times,serif" font-size="14.00" fill="#ffffff"> 5.0 row(s) | 100.0% estd.</text>
</g>
</g>
</svg>
