<?xml version="1.0" encoding="UTF-8" standalone="no"?>
<!DOCTYPE svg PUBLIC "-//W3C//DTD SVG 1.1//EN"
 "http://www.w3.org/Graphics/SVG/1.1/DTD/svg11.dtd">
<!-- Generated by graphviz version 2.40.1 (20161225.0304)
 -->
<!-- Title: G Pages: 1 -->
<svg width="506pt" height="1052pt"
 viewBox="0.00 0.00 505.50 1052.00" xmlns="http://www.w3.org/2000/svg" xmlns:xlink="http://www.w3.org/1999/xlink">
<g id="graph0" class="graph" transform="scale(1 1) rotate(0) translate(4 1048)">
<title>G</title>
<polygon fill="#000000" stroke="transparent" points="-4,4 -4,-1048 501.5,-1048 501.5,4 -4,4"/>
<!-- 94379035023552 -->
<g id="node1" class="node">
<title>94379035023552</title>
<polygon fill="none" stroke="#ffffff" points="253,-1044 110,-1044 110,-990 253,-990 253,-1044"/>
<text text-anchor="middle" x="181.5" y="-1028.8" font-family="Times,serif" font-size="14.00" fill="#ffffff">Alias [promo_revenue]</text>
<text text-anchor="middle" x="181.5" y="-997.8" font-family="Times,serif" font-size="14.00" fill="#ffffff">0 ns</text>
</g>
<!-- 94379035024928 -->
<g id="node2" class="node">
<title>94379035024928</title>
<polygon fill="none" stroke="#ffffff" points="217.5,-939 145.5,-939 145.5,-885 217.5,-885 217.5,-939"/>
<text text-anchor="middle" x="181.5" y="-923.8" font-family="Times,serif" font-size="14.00" fill="#ffffff">Projection</text>
<text text-anchor="middle" x="181.5" y="-892.8" font-family="Times,serif" font-size="14.00" fill="#ffffff">26 µs 0 ns</text>
</g>
<!-- 94379035024928&#45;&gt;94379035023552 -->
<g id="edge1" class="edge">
<title>94379035024928&#45;&gt;94379035023552</title>
<path fill="none" stroke="#ffffff" d="M181.5,-939.0401C181.5,-951.3143 181.5,-966.0382 181.5,-979.3683"/>
<polygon fill="#ffffff" stroke="#ffffff" points="178.0001,-979.6866 181.5,-989.6866 185.0001,-979.6866 178.0001,-979.6866"/>
<text text-anchor="middle" x="252" y="-960.8" font-family="Times,serif" font-size="14.00" fill="#ffffff">1 row(s)/1 chunk(s)/552B</text>
</g>
<!-- 94378868879216 -->
<g id="node3" class="node">
<title>94378868879216</title>
<polygon fill="none" stroke="#ffffff" stroke-width="2" points="323.5,-834 39.5,-834 39.5,-765 323.5,-765 323.5,-834"/>
<text text-anchor="middle" x="181.5" y="-818.8" font-family="Times,serif" font-size="14.00" fill="#ffffff">[Aggregate] GroupBy ColumnIDs: &#160;Aggregates: </text>
<text text-anchor="middle" x="181.5" y="-803.8" font-family="Times,serif" font-size="14.00" fill="#ffffff">SUM(Column #0), SUM(Column #1)</text>
<text text-anchor="middle" x="181.5" y="-772.8" font-family="Times,serif" font-size="14.00" fill="#ffffff">1 ms 527 µs </text>
</g>
<!-- 94378868879216&#45;&gt;94379035024928 -->
<g id="edge2" class="edge">
<title>94378868879216&#45;&gt;94379035024928</title>
<path fill="none" stroke="#ffffff" d="M181.5,-834.1717C181.5,-847.0092 181.5,-861.6141 181.5,-874.6774"/>
<polygon fill="#ffffff" stroke="#ffffff" points="178.0001,-874.7601 181.5,-884.7602 185.0001,-874.7602 178.0001,-874.7601"/>
<text text-anchor="middle" x="252" y="-855.8" font-family="Times,serif" font-size="14.00" fill="#ffffff">1 row(s)/1 chunk(s)/719B</text>
</g>
<!-- 94378063062624 -->
<g id="node4" class="node">
<title>94378063062624</title>
<polygon fill="none" stroke="#ffffff" stroke-width="3" points="226.5,-714 136.5,-714 136.5,-660 226.5,-660 226.5,-714"/>
<text text-anchor="middle" x="181.5" y="-698.8" font-family="Times,serif" font-size="14.00" fill="#ffffff">Projection</text>
<text text-anchor="middle" x="181.5" y="-667.8" font-family="Times,serif" font-size="14.00" fill="#ffffff">14 ms 120 µs</text>
</g>
<!-- 94378063062624&#45;&gt;94378868879216 -->
<g id="edge3" class="edge">
<title>94378063062624&#45;&gt;94378868879216</title>
<path fill="none" stroke="#ffffff" stroke-width="3" d="M181.5,-714.2331C181.5,-726.3589 181.5,-740.9621 181.5,-754.6298"/>
<polygon fill="#ffffff" stroke="#ffffff" stroke-width="3" points="178.0001,-754.8427 181.5,-764.8427 185.0001,-754.8428 178.0001,-754.8427"/>
<text text-anchor="middle" x="285.5" y="-735.8" font-family="Times,serif" font-size="14.00" fill="#ffffff">75983 row(s)/16 chunk(s)/691.498KB</text>
</g>
<!-- 94378080639424 -->
<g id="node5" class="node">
<title>94378080639424</title>
<polygon fill="none" stroke="#ffffff" stroke-width="3" points="273,-609 90,-609 90,-525 273,-525 273,-609"/>
<text text-anchor="middle" x="181.5" y="-593.8" font-family="Times,serif" font-size="14.00" fill="#ffffff">JoinHash</text>
<text text-anchor="middle" x="181.5" y="-578.8" font-family="Times,serif" font-size="14.00" fill="#ffffff">(Inner Join where l_partkey = </text>
<text text-anchor="middle" x="181.5" y="-563.8" font-family="Times,serif" font-size="14.00" fill="#ffffff">p_partkey)</text>
<text text-anchor="middle" x="181.5" y="-532.8" font-family="Times,serif" font-size="14.00" fill="#ffffff">12 ms 835 µs </text>
</g>
<!-- 94378080639424&#45;&gt;94378063062624 -->
<g id="edge4" class="edge">
<title>94378080639424&#45;&gt;94378063062624</title>
<path fill="none" stroke="#ffffff" stroke-width="3" d="M181.5,-609.3075C181.5,-622.3814 181.5,-636.686 181.5,-649.4178"/>
<polygon fill="#ffffff" stroke="#ffffff" stroke-width="3" points="178.0001,-649.681 181.5,-659.681 185.0001,-649.6811 178.0001,-649.681"/>
<text text-anchor="middle" x="280.5" y="-630.8" font-family="Times,serif" font-size="14.00" fill="#ffffff">75983 row(s)/16 chunk(s)/3.654MB</text>
</g>
<!-- 94379035023744 -->
<g id="node6" class="node">
<title>94379035023744</title>
<polygon fill="none" stroke="#ffffff" points="107.5,-474 35.5,-474 35.5,-420 107.5,-420 107.5,-474"/>
<text text-anchor="middle" x="71.5" y="-458.8" font-family="Times,serif" font-size="14.00" fill="#ffffff">Projection</text>
<text text-anchor="middle" x="71.5" y="-427.8" font-family="Times,serif" font-size="14.00" fill="#ffffff">37 µs 0 ns</text>
</g>
<!-- 94379035023744&#45;&gt;94378080639424 -->
<g id="edge5" class="edge">
<title>94379035023744&#45;&gt;94378080639424</title>
<path fill="none" stroke="#ffffff" stroke-width="3" d="M66.3147,-474.0084C65.5898,-484.9513 66.6408,-497.2726 72.5,-507 75.2846,-511.6231 78.5639,-515.9152 82.2148,-519.897"/>
<polygon fill="#ffffff" stroke="#ffffff" stroke-width="3" points="80.0641,-522.6892 89.6614,-527.1773 84.9576,-517.6838 80.0641,-522.6892"/>
<text text-anchor="middle" x="171.5" y="-495.8" font-family="Times,serif" font-size="14.00" fill="#ffffff">75983 row(s)/61 chunk(s)/2.453MB</text>
</g>
<!-- 94378868879520 -->
<g id="node7" class="node">
<title>94378868879520</title>
<polygon fill="none" stroke="#ffffff" stroke-width="2" points="143,-369 0,-369 0,-270 143,-270 143,-369"/>
<text text-anchor="middle" x="71.5" y="-353.8" font-family="Times,serif" font-size="14.00" fill="#ffffff">TableScan</text>
<text text-anchor="middle" x="71.5" y="-338.8" font-family="Times,serif" font-size="14.00" fill="#ffffff">Impl: LiteralTableScan</text>
<text text-anchor="middle" x="71.5" y="-323.8" font-family="Times,serif" font-size="14.00" fill="#ffffff">l_shipdate &lt; </text>
<text text-anchor="middle" x="71.5" y="-308.8" font-family="Times,serif" font-size="14.00" fill="#ffffff">&#39;1995&#45;10&#45;01&#39;</text>
<text text-anchor="middle" x="71.5" y="-277.8" font-family="Times,serif" font-size="14.00" fill="#ffffff">3 ms 298 µs </text>
</g>
<!-- 94378868879520&#45;&gt;94379035023744 -->
<g id="edge6" class="edge">
<title>94378868879520&#45;&gt;94379035023744</title>
<path fill="none" stroke="#ffffff" stroke-width="3" d="M71.5,-369.1599C71.5,-382.598 71.5,-396.9153 71.5,-409.5584"/>
<polygon fill="#ffffff" stroke="#ffffff" stroke-width="3" points="68.0001,-409.7287 71.5,-419.7287 75.0001,-409.7288 68.0001,-409.7287"/>
<text text-anchor="middle" x="170.5" y="-390.8" font-family="Times,serif" font-size="14.00" fill="#ffffff">75983 row(s)/61 chunk(s)/9.788MB</text>
</g>
<!-- 94378872232672 -->
<g id="node8" class="node">
<title>94378872232672</title>
<polygon fill="none" stroke="#ffffff" stroke-width="3" points="143,-219 0,-219 0,-120 143,-120 143,-219"/>
<text text-anchor="middle" x="71.5" y="-203.8" font-family="Times,serif" font-size="14.00" fill="#ffffff">TableScan</text>
<text text-anchor="middle" x="71.5" y="-188.8" font-family="Times,serif" font-size="14.00" fill="#ffffff">Impl: LiteralTableScan</text>
<text text-anchor="middle" x="71.5" y="-173.8" font-family="Times,serif" font-size="14.00" fill="#ffffff">l_shipdate &gt;= </text>
<text text-anchor="middle" x="71.5" y="-158.8" font-family="Times,serif" font-size="14.00" fill="#ffffff">&#39;1995&#45;09&#45;01&#39;</text>
<text text-anchor="middle" x="71.5" y="-127.8" font-family="Times,serif" font-size="14.00" fill="#ffffff">19 ms 427 µs </text>
</g>
<!-- 94378872232672&#45;&gt;94378868879520 -->
<g id="edge7" class="edge">
<title>94378872232672&#45;&gt;94378868879520</title>
<path fill="none" stroke="#ffffff" stroke-width="4" d="M71.5,-219.0313C71.5,-232.0196 71.5,-246.1643 71.5,-259.63"/>
<polygon fill="#ffffff" stroke="#ffffff" stroke-width="4" points="68.0001,-259.7646 71.5,-269.7646 75.0001,-259.7646 68.0001,-259.7646"/>
<text text-anchor="middle" x="184" y="-240.8" font-family="Times,serif" font-size="14.00" fill="#ffffff">2817779 row(s)/61 chunk(s)/360.738MB</text>
</g>
<!-- 94378997556944 -->
<g id="node9" class="node">
<title>94378997556944</title>
<polygon fill="none" stroke="#ffffff" points="107,-69 36,-69 36,0 107,0 107,-69"/>
<text text-anchor="middle" x="71.5" y="-53.8" font-family="Times,serif" font-size="14.00" fill="#ffffff">GetTable</text>
<text text-anchor="middle" x="71.5" y="-38.8" font-family="Times,serif" font-size="14.00" fill="#ffffff">(lineitem)</text>
<text text-anchor="middle" x="71.5" y="-7.8" font-family="Times,serif" font-size="14.00" fill="#ffffff">0 ns</text>
</g>
<!-- 94378997556944&#45;&gt;94378872232672 -->
<g id="edge8" class="edge">
<title>94378997556944&#45;&gt;94378872232672</title>
<path fill="none" stroke="#ffffff" stroke-width="4" d="M71.5,-69.2659C71.5,-81.5301 71.5,-95.6967 71.5,-109.446"/>
<polygon fill="#ffffff" stroke="#ffffff" stroke-width="4" points="68.0001,-109.8405 71.5,-119.8405 75.0001,-109.8406 68.0001,-109.8405"/>
<text text-anchor="middle" x="184" y="-90.8" font-family="Times,serif" font-size="14.00" fill="#ffffff">6001215 row(s)/61 chunk(s)/500.660MB</text>
</g>
<!-- 94378063062784 -->
<g id="node10" class="node">
<title>94378063062784</title>
<polygon fill="none" stroke="#ffffff" points="328.5,-474 256.5,-474 256.5,-420 328.5,-420 328.5,-474"/>
<text text-anchor="middle" x="292.5" y="-458.8" font-family="Times,serif" font-size="14.00" fill="#ffffff">Projection</text>
<text text-anchor="middle" x="292.5" y="-427.8" font-family="Times,serif" font-size="14.00" fill="#ffffff">98 µs 0 ns</text>
</g>
<!-- 94378063062784&#45;&gt;94378080639424 -->
<g id="edge9" class="edge">
<title>94378063062784&#45;&gt;94378080639424</title>
<path fill="none" stroke="#ffffff" stroke-width="3" d="M286.446,-474.2137C283.0533,-485.1896 277.9579,-497.4801 270.5,-507 267.4977,-510.8324 264.1814,-514.5074 260.6463,-518.0173"/>
<polygon fill="#ffffff" stroke="#ffffff" stroke-width="3" points="258.0763,-515.6268 253.1133,-524.9874 262.8304,-520.7648 258.0763,-515.6268"/>
<text text-anchor="middle" x="378.5" y="-495.8" font-family="Times,serif" font-size="14.00" fill="#ffffff">200000 row(s)/2 chunk(s)/4.210MB</text>
</g>
<!-- 94378997555728 -->
<g id="node11" class="node">
<title>94378997555728</title>
<polygon fill="none" stroke="#ffffff" points="326,-354 259,-354 259,-285 326,-285 326,-354"/>
<text text-anchor="middle" x="292.5" y="-338.8" font-family="Times,serif" font-size="14.00" fill="#ffffff">GetTable</text>
<text text-anchor="middle" x="292.5" y="-323.8" font-family="Times,serif" font-size="14.00" fill="#ffffff">(part)</text>
<text text-anchor="middle" x="292.5" y="-292.8" font-family="Times,serif" font-size="14.00" fill="#ffffff">1 µs 0 ns</text>
</g>
<!-- 94378997555728&#45;&gt;94378063062784 -->
<g id="edge10" class="edge">
<title>94378997555728&#45;&gt;94378063062784</title>
<path fill="none" stroke="#ffffff" stroke-width="3" d="M292.5,-354.0033C292.5,-371.104 292.5,-391.7892 292.5,-409.3049"/>
<polygon fill="#ffffff" stroke="#ffffff" stroke-width="3" points="289.0001,-409.7409 292.5,-419.7409 296.0001,-409.741 289.0001,-409.7409"/>
<text text-anchor="middle" x="395" y="-390.8" font-family="Times,serif" font-size="14.00" fill="#ffffff">200000 row(s)/2 chunk(s)/18.202MB</text>
</g>
</g>
</svg>
