<?xml version="1.0" encoding="UTF-8" standalone="no"?>
<!DOCTYPE svg PUBLIC "-//W3C//DTD SVG 1.1//EN"
 "http://www.w3.org/Graphics/SVG/1.1/DTD/svg11.dtd">
<!-- Generated by graphviz version 2.40.1 (20161225.0304)
 -->
<!-- Title: G Pages: 1 -->
<svg width="808pt" height="1206pt"
 viewBox="0.00 0.00 807.50 1206.00" xmlns="http://www.w3.org/2000/svg" xmlns:xlink="http://www.w3.org/1999/xlink">
<g id="graph0" class="graph" transform="scale(1 1) rotate(0) translate(4 1202)">
<title>G</title>
<polygon fill="#000000" stroke="transparent" points="-4,4 -4,-1202 803.5,-1202 803.5,4 -4,4"/>
<!-- 94335573224080 -->
<g id="node1" class="node">
<title>94335573224080</title>
<polygon fill="none" stroke="#ffffff" points="615,-1198 428,-1198 428,-1162 615,-1162 615,-1198"/>
<text text-anchor="middle" x="521.5" y="-1176.3" font-family="Times,serif" font-size="14.00" fill="#ffffff">[Projection] s_name, s_address</text>
</g>
<!-- 94334763122656 -->
<g id="node2" class="node">
<title>94334763122656</title>
<polygon fill="none" stroke="#ffffff" points="603.5,-1111 439.5,-1111 439.5,-1075 603.5,-1075 603.5,-1111"/>
<text text-anchor="middle" x="521.5" y="-1089.3" font-family="Times,serif" font-size="14.00" fill="#ffffff">[Sort] s_name (Ascending)</text>
</g>
<!-- 94334763122656&#45;&gt;94335573224080 -->
<g id="edge1" class="edge">
<title>94334763122656&#45;&gt;94335573224080</title>
<path fill="none" stroke="#ffffff" stroke-width="2" d="M521.5,-1111.0265C521.5,-1122.8082 521.5,-1138.4393 521.5,-1151.8419"/>
<polygon fill="#ffffff" stroke="#ffffff" stroke-width="2" points="518.0001,-1151.9966 521.5,-1161.9966 525.0001,-1151.9967 518.0001,-1151.9966"/>
<text text-anchor="middle" x="600" y="-1132.8" font-family="Times,serif" font-size="14.00" fill="#ffffff"> 400.0 row(s) | 100.0% estd.</text>
</g>
<!-- 94334829921376 -->
<g id="node3" class="node">
<title>94334829921376</title>
<polygon fill="none" stroke="#ffffff" points="657.5,-1024 385.5,-1024 385.5,-988 657.5,-988 657.5,-1024"/>
<text text-anchor="middle" x="521.5" y="-1002.3" font-family="Times,serif" font-size="14.00" fill="#ffffff">[Join] Mode: Inner s_nationkey = n_nationkey</text>
</g>
<!-- 94334829921376&#45;&gt;94334763122656 -->
<g id="edge2" class="edge">
<title>94334829921376&#45;&gt;94334763122656</title>
<path fill="none" stroke="#ffffff" stroke-width="2" d="M521.5,-1024.0265C521.5,-1035.8082 521.5,-1051.4393 521.5,-1064.8419"/>
<polygon fill="#ffffff" stroke="#ffffff" stroke-width="2" points="518.0001,-1064.9966 521.5,-1074.9966 525.0001,-1064.9967 518.0001,-1064.9966"/>
<text text-anchor="middle" x="593" y="-1045.8" font-family="Times,serif" font-size="14.00" fill="#ffffff"> 400.0 row(s) | 4.0% estd.</text>
</g>
<!-- 94334827994416 -->
<g id="node4" class="node">
<title>94334827994416</title>
<polygon fill="none" stroke="#ffffff" points="527,-937 268,-937 268,-899 527,-899 527,-937"/>
<text text-anchor="middle" x="397.5" y="-921.8" font-family="Times,serif" font-size="14.00" fill="#ffffff">[Projection] s_suppkey, s_name, s_address, </text>
<text text-anchor="middle" x="397.5" y="-906.8" font-family="Times,serif" font-size="14.00" fill="#ffffff">s_nationkey </text>
</g>
<!-- 94334827994416&#45;&gt;94334829921376 -->
<g id="edge3" class="edge">
<title>94334827994416&#45;&gt;94334829921376</title>
<path fill="none" stroke="#ffffff" stroke-width="2" d="M410.0407,-937.2027C417.8043,-947.9369 428.5543,-960.9369 440.5,-970 446.9651,-974.905 454.2038,-979.3168 461.623,-983.2305"/>
<polygon fill="#ffffff" stroke="#ffffff" stroke-width="2" points="460.5591,-986.6098 471.0725,-987.921 463.6715,-980.3398 460.5591,-986.6098"/>
<text text-anchor="middle" x="525.5" y="-958.8" font-family="Times,serif" font-size="14.00" fill="#ffffff"> 10000.0 row(s) | 100.0% estd.</text>
</g>
<!-- 94334827838400 -->
<g id="node5" class="node">
<title>94334827838400</title>
<polygon fill="none" stroke="#ffffff" points="530.5,-848 246.5,-848 246.5,-810 530.5,-810 530.5,-848"/>
<text text-anchor="middle" x="388.5" y="-832.8" font-family="Times,serif" font-size="14.00" fill="#ffffff">[Predicate] (s_suppkey) IN SUBSELECT (LQP, </text>
<text text-anchor="middle" x="388.5" y="-817.8" font-family="Times,serif" font-size="14.00" fill="#ffffff">0x55cc02f85b40) </text>
</g>
<!-- 94334827838400&#45;&gt;94334827994416 -->
<g id="edge4" class="edge">
<title>94334827838400&#45;&gt;94334827994416</title>
<path fill="none" stroke="#ffffff" stroke-width="2" d="M390.4529,-848.3117C391.644,-860.091 393.1902,-875.3813 394.5307,-888.6372"/>
<polygon fill="#ffffff" stroke="#ffffff" stroke-width="2" points="391.0625,-889.1289 395.5509,-898.726 398.027,-888.4246 391.0625,-889.1289"/>
<text text-anchor="middle" x="479.5" y="-869.8" font-family="Times,serif" font-size="14.00" fill="#ffffff"> 10000.0 row(s) | 100.0% estd.</text>
</g>
<!-- 94334798415664 -->
<g id="node6" class="node">
<title>94334798415664</title>
<polygon fill="none" stroke="#ffffff" points="328.5,-759 144.5,-759 144.5,-723 328.5,-723 328.5,-759"/>
<text text-anchor="middle" x="236.5" y="-737.3" font-family="Times,serif" font-size="14.00" fill="#ffffff">[StoredTable] Name: &#39;supplier&#39;</text>
</g>
<!-- 94334798415664&#45;&gt;94334827838400 -->
<g id="edge5" class="edge">
<title>94334798415664&#45;&gt;94334827838400</title>
<path fill="none" stroke="#ffffff" stroke-width="2" d="M229.8431,-759.3251C227.241,-769.9395 226.3558,-782.9497 233.5,-792 237.9636,-797.6545 247.0256,-802.5396 258.6304,-806.7343"/>
<polygon fill="#ffffff" stroke="#ffffff" stroke-width="2" points="257.8503,-810.1618 268.4431,-809.9519 260.0314,-803.5103 257.8503,-810.1618"/>
<text text-anchor="middle" x="318.5" y="-780.8" font-family="Times,serif" font-size="14.00" fill="#ffffff"> 10000.0 row(s) | 100.0% estd.</text>
</g>
<!-- 94334711520064 -->
<g id="node7" class="node">
<title>94334711520064</title>
<polygon fill="none" stroke="#ffffff" points="504,-759 355,-759 355,-723 504,-723 504,-759"/>
<text text-anchor="middle" x="429.5" y="-737.3" font-family="Times,serif" font-size="14.00" fill="#ffffff">[Projection] ps_suppkey</text>
</g>
<!-- 94334711520064&#45;&gt;94334827838400 -->
<g id="edge6" class="edge">
<title>94334711520064&#45;&gt;94334827838400</title>
<path fill="none" stroke="#ffffff" stroke-dasharray="5,2" d="M422.0539,-759.0696C417.923,-768.8825 412.602,-781.186 407.5,-792 406.1568,-794.847 404.7201,-797.7973 403.2607,-800.7331"/>
<polygon fill="#ffffff" stroke="#ffffff" points="400.0048,-799.4155 398.6083,-809.9179 406.2494,-802.5787 400.0048,-799.4155"/>
<text text-anchor="middle" x="475" y="-780.8" font-family="Times,serif" font-size="14.00" fill="#ffffff">uncorrelated subquery</text>
</g>
<!-- 94334827814512 -->
<g id="node8" class="node">
<title>94334827814512</title>
<polygon fill="none" stroke="#ffffff" points="578,-672 281,-672 281,-619 578,-619 578,-672"/>
<text text-anchor="middle" x="429.5" y="-656.8" font-family="Times,serif" font-size="14.00" fill="#ffffff">[Predicate] ps_availqty &gt; SUBSELECT (LQP, </text>
<text text-anchor="middle" x="429.5" y="-641.8" font-family="Times,serif" font-size="14.00" fill="#ffffff">0x55cc3adbb8a0, Parameters: [ps_suppkey, id=1], </text>
<text text-anchor="middle" x="429.5" y="-626.8" font-family="Times,serif" font-size="14.00" fill="#ffffff">[ps_partkey, id=0]) </text>
</g>
<!-- 94334827814512&#45;&gt;94334711520064 -->
<g id="edge7" class="edge">
<title>94334827814512&#45;&gt;94334711520064</title>
<path fill="none" stroke="#ffffff" stroke-width="3" d="M429.5,-672.1021C429.5,-684.7787 429.5,-699.9473 429.5,-712.8209"/>
<polygon fill="#ffffff" stroke="#ffffff" stroke-width="3" points="426.0001,-712.9898 429.5,-722.9898 433.0001,-712.9899 426.0001,-712.9898"/>
<text text-anchor="middle" x="518" y="-693.8" font-family="Times,serif" font-size="14.00" fill="#ffffff"> 800000.0 row(s) | 100.0% estd.</text>
</g>
<!-- 94334726370960 -->
<g id="node9" class="node">
<title>94334726370960</title>
<polygon fill="none" stroke="#ffffff" points="439,-568 154,-568 154,-532 439,-532 439,-568"/>
<text text-anchor="middle" x="296.5" y="-546.3" font-family="Times,serif" font-size="14.00" fill="#ffffff">[Projection] ps_partkey, ps_suppkey, ps_availqty</text>
</g>
<!-- 94334726370960&#45;&gt;94334827814512 -->
<g id="edge8" class="edge">
<title>94334726370960&#45;&gt;94334827814512</title>
<path fill="none" stroke="#ffffff" stroke-width="3" d="M312.3675,-568.3087C321.9067,-578.6616 334.6567,-591.4116 347.5,-601 353.3893,-605.3968 359.767,-609.633 366.275,-613.6273"/>
<polygon fill="#ffffff" stroke="#ffffff" stroke-width="3" points="364.8098,-616.8275 375.1966,-618.9167 368.3797,-610.8062 364.8098,-616.8275"/>
<text text-anchor="middle" x="436" y="-589.8" font-family="Times,serif" font-size="14.00" fill="#ffffff"> 800000.0 row(s) | 100.0% estd.</text>
</g>
<!-- 94334829900896 -->
<g id="node10" class="node">
<title>94334829900896</title>
<polygon fill="none" stroke="#ffffff" points="434,-481 147,-481 147,-443 434,-443 434,-481"/>
<text text-anchor="middle" x="290.5" y="-465.8" font-family="Times,serif" font-size="14.00" fill="#ffffff">[Predicate] (ps_partkey) IN SUBSELECT (LQP, </text>
<text text-anchor="middle" x="290.5" y="-450.8" font-family="Times,serif" font-size="14.00" fill="#ffffff">0x55cc3b4a3ac0) </text>
</g>
<!-- 94334829900896&#45;&gt;94334726370960 -->
<g id="edge9" class="edge">
<title>94334829900896&#45;&gt;94334726370960</title>
<path fill="none" stroke="#ffffff" stroke-width="3" d="M291.8019,-481.0947C292.6123,-492.981 293.6693,-508.483 294.5754,-521.7725"/>
<polygon fill="#ffffff" stroke="#ffffff" stroke-width="3" points="291.0899,-522.106 295.2621,-531.8447 298.0737,-521.6298 291.0899,-522.106"/>
<text text-anchor="middle" x="383" y="-502.8" font-family="Times,serif" font-size="14.00" fill="#ffffff"> 800000.0 row(s) | 100.0% estd.</text>
</g>
<!-- 94334728221376 -->
<g id="node11" class="node">
<title>94334728221376</title>
<polygon fill="none" stroke="#ffffff" points="187,-391 0,-391 0,-355 187,-355 187,-391"/>
<text text-anchor="middle" x="93.5" y="-369.3" font-family="Times,serif" font-size="14.00" fill="#ffffff">[StoredTable] Name: &#39;partsupp&#39;</text>
</g>
<!-- 94334728221376&#45;&gt;94334829900896 -->
<g id="edge10" class="edge">
<title>94334728221376&#45;&gt;94334829900896</title>
<path fill="none" stroke="#ffffff" stroke-width="3" d="M95.268,-391.1653C97.3341,-402.4939 101.8098,-416.4892 111.5,-425 118.2132,-430.8962 130.6343,-435.9887 145.9273,-440.3459"/>
<polygon fill="#ffffff" stroke="#ffffff" stroke-width="3" points="145.232,-443.7824 155.7952,-442.9644 147.0274,-437.0166 145.232,-443.7824"/>
<text text-anchor="middle" x="200" y="-413.8" font-family="Times,serif" font-size="14.00" fill="#ffffff"> 800000.0 row(s) | 100.0% estd.</text>
</g>
<!-- 94335656409792 -->
<g id="node12" class="node">
<title>94335656409792</title>
<polygon fill="none" stroke="#ffffff" points="363,-391 224,-391 224,-355 363,-355 363,-391"/>
<text text-anchor="middle" x="293.5" y="-369.3" font-family="Times,serif" font-size="14.00" fill="#ffffff">[Projection] p_partkey</text>
</g>
<!-- 94335656409792&#45;&gt;94334829900896 -->
<g id="edge11" class="edge">
<title>94335656409792&#45;&gt;94334829900896</title>
<path fill="none" stroke="#ffffff" stroke-dasharray="5,2" d="M292.8929,-391.0105C292.4891,-402.9913 291.9494,-418.9999 291.4849,-432.7822"/>
<polygon fill="#ffffff" stroke="#ffffff" points="287.9867,-432.6719 291.1477,-442.7842 294.9827,-432.9078 287.9867,-432.6719"/>
<text text-anchor="middle" x="353" y="-413.8" font-family="Times,serif" font-size="14.00" fill="#ffffff">uncorrelated subquery</text>
</g>
<!-- 94334827814656 -->
<g id="node13" class="node">
<title>94334827814656</title>
<polygon fill="none" stroke="#ffffff" points="388.5,-302 198.5,-302 198.5,-266 388.5,-266 388.5,-302"/>
<text text-anchor="middle" x="293.5" y="-280.3" font-family="Times,serif" font-size="14.00" fill="#ffffff">[Projection] p_partkey, p_name</text>
</g>
<!-- 94334827814656&#45;&gt;94335656409792 -->
<g id="edge12" class="edge">
<title>94334827814656&#45;&gt;94335656409792</title>
<path fill="none" stroke="#ffffff" stroke-width="3" d="M293.5,-302.0105C293.5,-314.2342 293.5,-330.6505 293.5,-344.6176"/>
<polygon fill="#ffffff" stroke="#ffffff" stroke-width="3" points="290.0001,-344.7108 293.5,-354.7108 297.0001,-344.7109 290.0001,-344.7108"/>
<text text-anchor="middle" x="378.5" y="-324.8" font-family="Times,serif" font-size="14.00" fill="#ffffff"> 20000.0 row(s) | 100.0% estd.</text>
</g>
<!-- 94335649162640 -->
<g id="node14" class="node">
<title>94335649162640</title>
<polygon fill="none" stroke="#ffffff" points="398,-213 189,-213 189,-177 398,-177 398,-213"/>
<text text-anchor="middle" x="293.5" y="-191.3" font-family="Times,serif" font-size="14.00" fill="#ffffff">[Predicate] p_name LIKE &#39;forest%&#39;</text>
</g>
<!-- 94335649162640&#45;&gt;94334827814656 -->
<g id="edge13" class="edge">
<title>94335649162640&#45;&gt;94334827814656</title>
<path fill="none" stroke="#ffffff" stroke-width="3" d="M293.5,-213.0105C293.5,-225.2342 293.5,-241.6505 293.5,-255.6176"/>
<polygon fill="#ffffff" stroke="#ffffff" stroke-width="3" points="290.0001,-255.7108 293.5,-265.7108 297.0001,-255.7109 290.0001,-255.7108"/>
<text text-anchor="middle" x="375" y="-235.8" font-family="Times,serif" font-size="14.00" fill="#ffffff"> 20000.0 row(s) | 10.0% estd.</text>
</g>
<!-- 94334827904448 -->
<g id="node15" class="node">
<title>94334827904448</title>
<polygon fill="none" stroke="#ffffff" points="374,-124 213,-124 213,-88 374,-88 374,-124"/>
<text text-anchor="middle" x="293.5" y="-102.3" font-family="Times,serif" font-size="14.00" fill="#ffffff">[StoredTable] Name: &#39;part&#39;</text>
</g>
<!-- 94334827904448&#45;&gt;94335649162640 -->
<g id="edge14" class="edge">
<title>94334827904448&#45;&gt;94335649162640</title>
<path fill="none" stroke="#ffffff" stroke-width="3" d="M293.5,-124.0105C293.5,-136.2342 293.5,-152.6505 293.5,-166.6176"/>
<polygon fill="#ffffff" stroke="#ffffff" stroke-width="3" points="290.0001,-166.7108 293.5,-176.7108 297.0001,-166.7109 290.0001,-166.7108"/>
<text text-anchor="middle" x="382" y="-146.8" font-family="Times,serif" font-size="14.00" fill="#ffffff"> 200000.0 row(s) | 100.0% estd.</text>
</g>
<!-- 94335649167520 -->
<g id="node16" class="node">
<title>94335649167520</title>
<polygon fill="none" stroke="#ffffff" points="668.5,-568 458.5,-568 458.5,-532 668.5,-532 668.5,-568"/>
<text text-anchor="middle" x="563.5" y="-546.3" font-family="Times,serif" font-size="14.00" fill="#ffffff">[Projection] 0.5 * SUM(l_quantity)</text>
</g>
<!-- 94335649167520&#45;&gt;94334827814512 -->
<g id="edge15" class="edge">
<title>94335649167520&#45;&gt;94334827814512</title>
<path fill="none" stroke="#ffffff" stroke-dasharray="5,2" d="M552.6586,-568.2971C545.6661,-578.9016 535.7853,-591.9111 524.5,-601 518.7464,-605.6338 512.431,-609.9164 505.8764,-613.8427"/>
<polygon fill="#ffffff" stroke="#ffffff" points="503.7943,-610.9997 496.8202,-618.9755 507.2459,-617.0896 503.7943,-610.9997"/>
<text text-anchor="middle" x="593.5" y="-589.8" font-family="Times,serif" font-size="14.00" fill="#ffffff">correlated subquery</text>
</g>
<!-- 94334802163536 -->
<g id="node17" class="node">
<title>94334802163536</title>
<polygon fill="none" stroke="#ffffff" points="677,-481 452,-481 452,-443 677,-443 677,-481"/>
<text text-anchor="middle" x="564.5" y="-465.8" font-family="Times,serif" font-size="14.00" fill="#ffffff">[Aggregate] GroupBy: [] Aggregates: </text>
<text text-anchor="middle" x="564.5" y="-450.8" font-family="Times,serif" font-size="14.00" fill="#ffffff">[SUM(l_quantity)] </text>
</g>
<!-- 94334802163536&#45;&gt;94335649167520 -->
<g id="edge16" class="edge">
<title>94334802163536&#45;&gt;94335649167520</title>
<path fill="none" stroke="#ffffff" d="M564.283,-481.0947C564.1479,-492.981 563.9718,-508.483 563.8208,-521.7725"/>
<polygon fill="#ffffff" stroke="#ffffff" points="560.3203,-521.8056 563.7063,-531.8447 567.3198,-521.8852 560.3203,-521.8056"/>
<text text-anchor="middle" x="636" y="-502.8" font-family="Times,serif" font-size="14.00" fill="#ffffff"> 0.0 row(s) | 100.0% estd.</text>
</g>
<!-- 94334790538352 -->
<g id="node18" class="node">
<title>94334790538352</title>
<polygon fill="none" stroke="#ffffff" points="699,-392 430,-392 430,-354 699,-354 699,-392"/>
<text text-anchor="middle" x="564.5" y="-376.8" font-family="Times,serif" font-size="14.00" fill="#ffffff">[Projection] l_partkey, l_suppkey, l_quantity, </text>
<text text-anchor="middle" x="564.5" y="-361.8" font-family="Times,serif" font-size="14.00" fill="#ffffff">l_shipdate </text>
</g>
<!-- 94334790538352&#45;&gt;94334802163536 -->
<g id="edge17" class="edge">
<title>94334790538352&#45;&gt;94334802163536</title>
<path fill="none" stroke="#ffffff" d="M564.5,-392.3117C564.5,-404.091 564.5,-419.3813 564.5,-432.6372"/>
<polygon fill="#ffffff" stroke="#ffffff" points="561.0001,-432.726 564.5,-442.726 568.0001,-432.726 561.0001,-432.726"/>
<text text-anchor="middle" x="636" y="-413.8" font-family="Times,serif" font-size="14.00" fill="#ffffff"> 0.0 row(s) | 100.0% estd.</text>
</g>
<!-- 94334829908480 -->
<g id="node19" class="node">
<title>94334829908480</title>
<polygon fill="none" stroke="#ffffff" points="720.5,-303 408.5,-303 408.5,-265 720.5,-265 720.5,-303"/>
<text text-anchor="middle" x="564.5" y="-287.8" font-family="Times,serif" font-size="14.00" fill="#ffffff">[Predicate] l_shipdate BETWEEN &#39;1994&#45;01&#45;01&#39; AND </text>
<text text-anchor="middle" x="564.5" y="-272.8" font-family="Times,serif" font-size="14.00" fill="#ffffff">&#39;1995&#45;01&#45;00&#39; </text>
</g>
<!-- 94334829908480&#45;&gt;94334790538352 -->
<g id="edge18" class="edge">
<title>94334829908480&#45;&gt;94334790538352</title>
<path fill="none" stroke="#ffffff" d="M564.5,-303.3117C564.5,-315.091 564.5,-330.3813 564.5,-343.6372"/>
<polygon fill="#ffffff" stroke="#ffffff" points="561.0001,-343.726 564.5,-353.726 568.0001,-343.726 561.0001,-343.726"/>
<text text-anchor="middle" x="636" y="-324.8" font-family="Times,serif" font-size="14.00" fill="#ffffff"> 0.0 row(s) | 100.0% estd.</text>
</g>
<!-- 94334832233840 -->
<g id="node20" class="node">
<title>94334832233840</title>
<polygon fill="none" stroke="#ffffff" points="672.5,-214 456.5,-214 456.5,-176 672.5,-176 672.5,-214"/>
<text text-anchor="middle" x="564.5" y="-198.8" font-family="Times,serif" font-size="14.00" fill="#ffffff">[Predicate] l_suppkey = </text>
<text text-anchor="middle" x="564.5" y="-183.8" font-family="Times,serif" font-size="14.00" fill="#ffffff">Parameter[name=ps_suppkey;id=1] </text>
</g>
<!-- 94334832233840&#45;&gt;94334829908480 -->
<g id="edge19" class="edge">
<title>94334832233840&#45;&gt;94334829908480</title>
<path fill="none" stroke="#ffffff" d="M564.5,-214.3117C564.5,-226.091 564.5,-241.3813 564.5,-254.6372"/>
<polygon fill="#ffffff" stroke="#ffffff" points="561.0001,-254.726 564.5,-264.726 568.0001,-254.726 561.0001,-254.726"/>
<text text-anchor="middle" x="629.5" y="-235.8" font-family="Times,serif" font-size="14.00" fill="#ffffff"> 0.0 row(s) | 0.0% estd.</text>
</g>
<!-- 94334798365360 -->
<g id="node21" class="node">
<title>94334798365360</title>
<polygon fill="none" stroke="#ffffff" points="670.5,-125 458.5,-125 458.5,-87 670.5,-87 670.5,-125"/>
<text text-anchor="middle" x="564.5" y="-109.8" font-family="Times,serif" font-size="14.00" fill="#ffffff">[Predicate] l_partkey = </text>
<text text-anchor="middle" x="564.5" y="-94.8" font-family="Times,serif" font-size="14.00" fill="#ffffff">Parameter[name=ps_partkey;id=0] </text>
</g>
<!-- 94334798365360&#45;&gt;94334832233840 -->
<g id="edge20" class="edge">
<title>94334798365360&#45;&gt;94334832233840</title>
<path fill="none" stroke="#ffffff" d="M564.5,-125.3117C564.5,-137.091 564.5,-152.3813 564.5,-165.6372"/>
<polygon fill="#ffffff" stroke="#ffffff" points="561.0001,-165.726 564.5,-175.726 568.0001,-165.726 561.0001,-165.726"/>
<text text-anchor="middle" x="632.5" y="-146.8" font-family="Times,serif" font-size="14.00" fill="#ffffff"> 30.0 row(s) | 0.0% estd.</text>
</g>
<!-- 94334827832192 -->
<g id="node22" class="node">
<title>94334827832192</title>
<polygon fill="none" stroke="#ffffff" points="657,-36 472,-36 472,0 657,0 657,-36"/>
<text text-anchor="middle" x="564.5" y="-14.3" font-family="Times,serif" font-size="14.00" fill="#ffffff">[StoredTable] Name: &#39;lineitem&#39;</text>
</g>
<!-- 94334827832192&#45;&gt;94334798365360 -->
<g id="edge21" class="edge">
<title>94334827832192&#45;&gt;94334798365360</title>
<path fill="none" stroke="#ffffff" stroke-width="4" d="M564.5,-36.2337C564.5,-47.9125 564.5,-63.3308 564.5,-76.7022"/>
<polygon fill="#ffffff" stroke="#ffffff" stroke-width="4" points="561.0001,-76.8765 564.5,-86.8765 568.0001,-76.8765 561.0001,-76.8765"/>
<text text-anchor="middle" x="656.5" y="-57.8" font-family="Times,serif" font-size="14.00" fill="#ffffff"> 6001215.0 row(s) | 100.0% estd.</text>
</g>
<!-- 94334827994272 -->
<g id="node23" class="node">
<title>94334827994272</title>
<polygon fill="none" stroke="#ffffff" points="749,-936 546,-936 546,-900 749,-900 749,-936"/>
<text text-anchor="middle" x="647.5" y="-914.3" font-family="Times,serif" font-size="14.00" fill="#ffffff">[Projection] n_nationkey, n_name</text>
</g>
<!-- 94334827994272&#45;&gt;94334829921376 -->
<g id="edge22" class="edge">
<title>94334827994272&#45;&gt;94334829921376</title>
<path fill="none" stroke="#ffffff" d="M637.9461,-936.4022C631.457,-947.3945 621.9785,-960.9365 610.5,-970 604.1536,-975.0112 597.0161,-979.416 589.6154,-983.2642"/>
<polygon fill="#ffffff" stroke="#ffffff" points="587.62,-980.3412 580.1401,-987.8447 590.6666,-986.6435 587.62,-980.3412"/>
<text text-anchor="middle" x="696" y="-958.8" font-family="Times,serif" font-size="14.00" fill="#ffffff"> 1.0 row(s) | 100.0% estd.</text>
</g>
<!-- 94334788491648 -->
<g id="node24" class="node">
<title>94334788491648</title>
<polygon fill="none" stroke="#ffffff" points="750,-847 549,-847 549,-811 750,-811 750,-847"/>
<text text-anchor="middle" x="649.5" y="-825.3" font-family="Times,serif" font-size="14.00" fill="#ffffff">[Predicate] n_name = &#39;CANADA&#39;</text>
</g>
<!-- 94334788491648&#45;&gt;94334827994272 -->
<g id="edge23" class="edge">
<title>94334788491648&#45;&gt;94334827994272</title>
<path fill="none" stroke="#ffffff" d="M649.0953,-847.0105C648.8206,-859.2342 648.4517,-875.6505 648.1378,-889.6176"/>
<polygon fill="#ffffff" stroke="#ffffff" points="644.6366,-889.6347 647.911,-899.7108 651.6349,-889.792 644.6366,-889.6347"/>
<text text-anchor="middle" x="713.5" y="-869.8" font-family="Times,serif" font-size="14.00" fill="#ffffff"> 1.0 row(s) | 4.0% estd.</text>
</g>
<!-- 94334832223088 -->
<g id="node25" class="node">
<title>94334832223088</title>
<polygon fill="none" stroke="#ffffff" points="736.5,-759 562.5,-759 562.5,-723 736.5,-723 736.5,-759"/>
<text text-anchor="middle" x="649.5" y="-737.3" font-family="Times,serif" font-size="14.00" fill="#ffffff">[StoredTable] Name: &#39;nation&#39;</text>
</g>
<!-- 94334832223088&#45;&gt;94334788491648 -->
<g id="edge24" class="edge">
<title>94334832223088&#45;&gt;94334788491648</title>
<path fill="none" stroke="#ffffff" d="M649.5,-759.2337C649.5,-771.1508 649.5,-786.9616 649.5,-800.5183"/>
<polygon fill="#ffffff" stroke="#ffffff" points="646.0001,-800.7897 649.5,-810.7897 653.0001,-800.7897 646.0001,-800.7897"/>
<text text-anchor="middle" x="724.5" y="-780.8" font-family="Times,serif" font-size="14.00" fill="#ffffff"> 25.0 row(s) | 100.0% estd.</text>
</g>
</g>
</svg>
