<?xml version="1.0" encoding="UTF-8" standalone="no"?>
<!DOCTYPE svg PUBLIC "-//W3C//DTD SVG 1.1//EN"
 "http://www.w3.org/Graphics/SVG/1.1/DTD/svg11.dtd">
<!-- Generated by graphviz version 2.40.1 (20161225.0304)
 -->
<!-- Title: G Pages: 1 -->
<svg width="519pt" height="1412pt"
 viewBox="0.00 0.00 518.50 1412.00" xmlns="http://www.w3.org/2000/svg" xmlns:xlink="http://www.w3.org/1999/xlink">
<g id="graph0" class="graph" transform="scale(1 1) rotate(0) translate(4 1408)">
<title>G</title>
<polygon fill="#000000" stroke="transparent" points="-4,4 -4,-1408 514.5,-1408 514.5,4 -4,4"/>
<!-- 94334816273344 -->
<g id="node1" class="node">
<title>94334816273344</title>
<polygon fill="none" stroke="#ffffff" points="215,-1404 110,-1404 110,-1290 215,-1290 215,-1404"/>
<text text-anchor="middle" x="162.5" y="-1388.8" font-family="Times,serif" font-size="14.00" fill="#ffffff">Alias </text>
<text text-anchor="middle" x="162.5" y="-1373.8" font-family="Times,serif" font-size="14.00" fill="#ffffff">[l_shipmode</text>
<text text-anchor="middle" x="162.5" y="-1358.8" font-family="Times,serif" font-size="14.00" fill="#ffffff">high_line_count</text>
<text text-anchor="middle" x="162.5" y="-1343.8" font-family="Times,serif" font-size="14.00" fill="#ffffff">low_line_count]</text>
<text text-anchor="middle" x="162.5" y="-1312.8" font-family="Times,serif" font-size="14.00" fill="#ffffff">1 </text>
<text text-anchor="middle" x="162.5" y="-1297.8" font-family="Times,serif" font-size="14.00" fill="#ffffff">µs 0 ns </text>
</g>
<!-- 94334794096160 -->
<g id="node2" class="node">
<title>94334794096160</title>
<polygon fill="none" stroke="#ffffff" points="195,-1239 130,-1239 130,-1185 195,-1185 195,-1239"/>
<text text-anchor="middle" x="162.5" y="-1223.8" font-family="Times,serif" font-size="14.00" fill="#ffffff">Sort</text>
<text text-anchor="middle" x="162.5" y="-1192.8" font-family="Times,serif" font-size="14.00" fill="#ffffff">9 µs 0 ns</text>
</g>
<!-- 94334794096160&#45;&gt;94334816273344 -->
<g id="edge1" class="edge">
<title>94334794096160&#45;&gt;94334816273344</title>
<path fill="none" stroke="#ffffff" d="M162.5,-1239.3193C162.5,-1251.0368 162.5,-1265.2943 162.5,-1279.5489"/>
<polygon fill="#ffffff" stroke="#ffffff" points="159.0001,-1279.8915 162.5,-1289.8916 166.0001,-1279.8916 159.0001,-1279.8915"/>
<text text-anchor="middle" x="243" y="-1260.8" font-family="Times,serif" font-size="14.00" fill="#ffffff">2 row(s)/1 chunk(s)/1.041KB</text>
</g>
<!-- 94335594680592 -->
<g id="node3" class="node">
<title>94335594680592</title>
<polygon fill="none" stroke="#ffffff" stroke-width="2" points="307.5,-1134 17.5,-1134 17.5,-1065 307.5,-1065 307.5,-1134"/>
<text text-anchor="middle" x="162.5" y="-1118.8" font-family="Times,serif" font-size="14.00" fill="#ffffff">[Aggregate] GroupBy ColumnIDs: 2 Aggregates: </text>
<text text-anchor="middle" x="162.5" y="-1103.8" font-family="Times,serif" font-size="14.00" fill="#ffffff">SUM(Column #0), SUM(Column #1)</text>
<text text-anchor="middle" x="162.5" y="-1072.8" font-family="Times,serif" font-size="14.00" fill="#ffffff">1 ms 448 µs </text>
</g>
<!-- 94335594680592&#45;&gt;94334794096160 -->
<g id="edge2" class="edge">
<title>94335594680592&#45;&gt;94334794096160</title>
<path fill="none" stroke="#ffffff" d="M162.5,-1134.1717C162.5,-1147.0092 162.5,-1161.6141 162.5,-1174.6774"/>
<polygon fill="#ffffff" stroke="#ffffff" points="159.0001,-1174.7601 162.5,-1184.7602 166.0001,-1174.7602 159.0001,-1174.7601"/>
<text text-anchor="middle" x="243" y="-1155.8" font-family="Times,serif" font-size="14.00" fill="#ffffff">2 row(s)/1 chunk(s)/1.041KB</text>
</g>
<!-- 94335594120048 -->
<g id="node4" class="node">
<title>94335594120048</title>
<polygon fill="none" stroke="#ffffff" stroke-width="2" points="204,-1014 121,-1014 121,-960 204,-960 204,-1014"/>
<text text-anchor="middle" x="162.5" y="-998.8" font-family="Times,serif" font-size="14.00" fill="#ffffff">Projection</text>
<text text-anchor="middle" x="162.5" y="-967.8" font-family="Times,serif" font-size="14.00" fill="#ffffff">5 ms 370 µs</text>
</g>
<!-- 94335594120048&#45;&gt;94335594680592 -->
<g id="edge3" class="edge">
<title>94335594120048&#45;&gt;94335594680592</title>
<path fill="none" stroke="#ffffff" stroke-width="3" d="M162.5,-1014.2331C162.5,-1026.3589 162.5,-1040.9621 162.5,-1054.6298"/>
<polygon fill="#ffffff" stroke="#ffffff" stroke-width="3" points="159.0001,-1054.8427 162.5,-1064.8427 166.0001,-1054.8428 159.0001,-1054.8427"/>
<text text-anchor="middle" x="258" y="-1035.8" font-family="Times,serif" font-size="14.00" fill="#ffffff">30988 row(s)/8 chunk(s)/1.306MB</text>
</g>
<!-- 94335584454560 -->
<g id="node5" class="node">
<title>94335584454560</title>
<polygon fill="none" stroke="#ffffff" stroke-width="3" points="259.5,-909 65.5,-909 65.5,-825 259.5,-825 259.5,-909"/>
<text text-anchor="middle" x="162.5" y="-893.8" font-family="Times,serif" font-size="14.00" fill="#ffffff">JoinHash</text>
<text text-anchor="middle" x="162.5" y="-878.8" font-family="Times,serif" font-size="14.00" fill="#ffffff">(Inner Join where o_orderkey = </text>
<text text-anchor="middle" x="162.5" y="-863.8" font-family="Times,serif" font-size="14.00" fill="#ffffff">l_orderkey)</text>
<text text-anchor="middle" x="162.5" y="-832.8" font-family="Times,serif" font-size="14.00" fill="#ffffff">22 ms 877 µs </text>
</g>
<!-- 94335584454560&#45;&gt;94335594120048 -->
<g id="edge4" class="edge">
<title>94335584454560&#45;&gt;94335594120048</title>
<path fill="none" stroke="#ffffff" stroke-width="3" d="M162.5,-909.3075C162.5,-922.3814 162.5,-936.686 162.5,-949.4178"/>
<polygon fill="#ffffff" stroke="#ffffff" stroke-width="3" points="159.0001,-949.681 162.5,-959.681 166.0001,-949.6811 159.0001,-949.681"/>
<text text-anchor="middle" x="258" y="-930.8" font-family="Times,serif" font-size="14.00" fill="#ffffff">30988 row(s)/8 chunk(s)/1.739MB</text>
</g>
<!-- 94334811159344 -->
<g id="node6" class="node">
<title>94334811159344</title>
<polygon fill="none" stroke="#ffffff" stroke-width="2" points="79,-774 0,-774 0,-720 79,-720 79,-774"/>
<text text-anchor="middle" x="39.5" y="-758.8" font-family="Times,serif" font-size="14.00" fill="#ffffff">Projection</text>
<text text-anchor="middle" x="39.5" y="-727.8" font-family="Times,serif" font-size="14.00" fill="#ffffff">418 µs 0 ns</text>
</g>
<!-- 94334811159344&#45;&gt;94335584454560 -->
<g id="edge5" class="edge">
<title>94334811159344&#45;&gt;94335584454560</title>
<path fill="none" stroke="#ffffff" stroke-width="4" d="M34.0944,-774.1446C33.334,-785.1094 34.4181,-797.4103 40.5,-807 45.1339,-814.3066 50.9422,-820.7509 57.4934,-826.4301"/>
<polygon fill="#ffffff" stroke="#ffffff" stroke-width="4" points="55.482,-829.3014 65.4995,-832.7513 59.8198,-823.8075 55.482,-829.3014"/>
<text text-anchor="middle" x="149.5" y="-795.8" font-family="Times,serif" font-size="14.00" fill="#ffffff">1500000 row(s)/15 chunk(s)/31.509MB</text>
</g>
<!-- 94334721897776 -->
<g id="node7" class="node">
<title>94334721897776</title>
<polygon fill="none" stroke="#ffffff" points="71,-654 4,-654 4,-585 71,-585 71,-654"/>
<text text-anchor="middle" x="37.5" y="-638.8" font-family="Times,serif" font-size="14.00" fill="#ffffff">GetTable</text>
<text text-anchor="middle" x="37.5" y="-623.8" font-family="Times,serif" font-size="14.00" fill="#ffffff">(orders)</text>
<text text-anchor="middle" x="37.5" y="-592.8" font-family="Times,serif" font-size="14.00" fill="#ffffff">0 ns</text>
</g>
<!-- 94334721897776&#45;&gt;94334811159344 -->
<g id="edge6" class="edge">
<title>94334721897776&#45;&gt;94334811159344</title>
<path fill="none" stroke="#ffffff" stroke-width="4" d="M38.0412,-654.0033C38.3095,-671.104 38.6339,-691.7892 38.9087,-709.3049"/>
<polygon fill="#ffffff" stroke="#ffffff" stroke-width="4" points="35.4159,-709.7971 39.0724,-719.7409 42.415,-709.6872 35.4159,-709.7971"/>
<text text-anchor="middle" x="152" y="-690.8" font-family="Times,serif" font-size="14.00" fill="#ffffff">1500000 row(s)/15 chunk(s)/114.197MB</text>
</g>
<!-- 94334711525040 -->
<g id="node8" class="node">
<title>94334711525040</title>
<polygon fill="none" stroke="#ffffff" points="320.5,-774 248.5,-774 248.5,-720 320.5,-720 320.5,-774"/>
<text text-anchor="middle" x="284.5" y="-758.8" font-family="Times,serif" font-size="14.00" fill="#ffffff">Projection</text>
<text text-anchor="middle" x="284.5" y="-727.8" font-family="Times,serif" font-size="14.00" fill="#ffffff">34 µs 0 ns</text>
</g>
<!-- 94334711525040&#45;&gt;94335584454560 -->
<g id="edge7" class="edge">
<title>94334711525040&#45;&gt;94335584454560</title>
<path fill="none" stroke="#ffffff" stroke-width="3" d="M278.7836,-774.1089C275.4326,-785.194 270.2771,-797.5946 262.5,-807 259.3592,-810.7984 255.9115,-814.417 252.2436,-817.8555"/>
<polygon fill="#ffffff" stroke="#ffffff" stroke-width="3" points="249.6736,-815.4526 244.4335,-824.6608 254.2722,-820.7302 249.6736,-815.4526"/>
<text text-anchor="middle" x="371.5" y="-795.8" font-family="Times,serif" font-size="14.00" fill="#ffffff">30988 row(s)/61 chunk(s)/1.264MB</text>
</g>
<!-- 94334793483104 -->
<g id="node9" class="node">
<title>94334793483104</title>
<polygon fill="none" stroke="#ffffff" stroke-width="2" points="367,-669 204,-669 204,-570 367,-570 367,-669"/>
<text text-anchor="middle" x="285.5" y="-653.8" font-family="Times,serif" font-size="14.00" fill="#ffffff">TableScan</text>
<text text-anchor="middle" x="285.5" y="-638.8" font-family="Times,serif" font-size="14.00" fill="#ffffff">Impl: ExpressionEvaluator</text>
<text text-anchor="middle" x="285.5" y="-623.8" font-family="Times,serif" font-size="14.00" fill="#ffffff">(l_shipmode) </text>
<text text-anchor="middle" x="285.5" y="-608.8" font-family="Times,serif" font-size="14.00" fill="#ffffff">IN (&#39;MAIL&#39;, &#39;SHIP&#39;)</text>
<text text-anchor="middle" x="285.5" y="-577.8" font-family="Times,serif" font-size="14.00" fill="#ffffff">4 ms 935 µs </text>
</g>
<!-- 94334793483104&#45;&gt;94334711525040 -->
<g id="edge8" class="edge">
<title>94334793483104&#45;&gt;94334711525040</title>
<path fill="none" stroke="#ffffff" stroke-width="3" d="M285.1105,-669.1599C285.0051,-682.598 284.8928,-696.9153 284.7937,-709.5584"/>
<polygon fill="#ffffff" stroke="#ffffff" stroke-width="3" points="281.2925,-709.7015 284.7139,-719.7287 288.2923,-709.7565 281.2925,-709.7015"/>
<text text-anchor="middle" x="383.5" y="-690.8" font-family="Times,serif" font-size="14.00" fill="#ffffff">30988 row(s)/61 chunk(s)/4.029MB</text>
</g>
<!-- 94335587721856 -->
<g id="node10" class="node">
<title>94335587721856</title>
<polygon fill="none" stroke="#ffffff" stroke-width="2" points="379.5,-519 191.5,-519 191.5,-420 379.5,-420 379.5,-519"/>
<text text-anchor="middle" x="285.5" y="-503.8" font-family="Times,serif" font-size="14.00" fill="#ffffff">TableScan</text>
<text text-anchor="middle" x="285.5" y="-488.8" font-family="Times,serif" font-size="14.00" fill="#ffffff">Impl: BetweenScan</text>
<text text-anchor="middle" x="285.5" y="-473.8" font-family="Times,serif" font-size="14.00" fill="#ffffff">l_receiptdate BETWEEN </text>
<text text-anchor="middle" x="285.5" y="-458.8" font-family="Times,serif" font-size="14.00" fill="#ffffff">&#39;1994&#45;01&#45;01&#39; AND &#39;1995&#45;01&#45;00&#39;</text>
<text text-anchor="middle" x="285.5" y="-427.8" font-family="Times,serif" font-size="14.00" fill="#ffffff">2 ms 646 µs </text>
</g>
<!-- 94335587721856&#45;&gt;94334793483104 -->
<g id="edge9" class="edge">
<title>94335587721856&#45;&gt;94334793483104</title>
<path fill="none" stroke="#ffffff" stroke-width="3" d="M285.5,-519.0313C285.5,-532.0196 285.5,-546.1643 285.5,-559.63"/>
<polygon fill="#ffffff" stroke="#ffffff" stroke-width="3" points="282.0001,-559.7646 285.5,-569.7646 289.0001,-559.7646 282.0001,-559.7646"/>
<text text-anchor="middle" x="391" y="-540.8" font-family="Times,serif" font-size="14.00" fill="#ffffff">108434 row(s)/61 chunk(s)/13.942MB</text>
</g>
<!-- 94334715607408 -->
<g id="node11" class="node">
<title>94334715607408</title>
<polygon fill="none" stroke="#ffffff" stroke-width="3" points="366,-369 205,-369 205,-270 366,-270 366,-369"/>
<text text-anchor="middle" x="285.5" y="-353.8" font-family="Times,serif" font-size="14.00" fill="#ffffff">TableScan</text>
<text text-anchor="middle" x="285.5" y="-338.8" font-family="Times,serif" font-size="14.00" fill="#ffffff">Impl: ColumnComparison</text>
<text text-anchor="middle" x="285.5" y="-323.8" font-family="Times,serif" font-size="14.00" fill="#ffffff">l_shipdate &lt; </text>
<text text-anchor="middle" x="285.5" y="-308.8" font-family="Times,serif" font-size="14.00" fill="#ffffff">l_commitdate</text>
<text text-anchor="middle" x="285.5" y="-277.8" font-family="Times,serif" font-size="14.00" fill="#ffffff">131 ms 375 µs </text>
</g>
<!-- 94334715607408&#45;&gt;94335587721856 -->
<g id="edge10" class="edge">
<title>94334715607408&#45;&gt;94335587721856</title>
<path fill="none" stroke="#ffffff" stroke-width="3" d="M285.5,-369.0313C285.5,-382.0196 285.5,-396.1643 285.5,-409.63"/>
<polygon fill="#ffffff" stroke="#ffffff" stroke-width="3" points="282.0001,-409.7646 285.5,-419.7646 289.0001,-409.7646 282.0001,-409.7646"/>
<text text-anchor="middle" x="391" y="-390.8" font-family="Times,serif" font-size="14.00" fill="#ffffff">718639 row(s)/61 chunk(s)/92.048MB</text>
</g>
<!-- 94334772255952 -->
<g id="node12" class="node">
<title>94334772255952</title>
<polygon fill="none" stroke="#ffffff" stroke-width="3" points="366,-219 205,-219 205,-120 366,-120 366,-219"/>
<text text-anchor="middle" x="285.5" y="-203.8" font-family="Times,serif" font-size="14.00" fill="#ffffff">TableScan</text>
<text text-anchor="middle" x="285.5" y="-188.8" font-family="Times,serif" font-size="14.00" fill="#ffffff">Impl: ColumnComparison</text>
<text text-anchor="middle" x="285.5" y="-173.8" font-family="Times,serif" font-size="14.00" fill="#ffffff">l_commitdate &lt; </text>
<text text-anchor="middle" x="285.5" y="-158.8" font-family="Times,serif" font-size="14.00" fill="#ffffff">l_receiptdate</text>
<text text-anchor="middle" x="285.5" y="-127.8" font-family="Times,serif" font-size="14.00" fill="#ffffff">140 ms 437 µs </text>
</g>
<!-- 94334772255952&#45;&gt;94334715607408 -->
<g id="edge11" class="edge">
<title>94334772255952&#45;&gt;94334715607408</title>
<path fill="none" stroke="#ffffff" stroke-width="4" d="M285.5,-219.0313C285.5,-232.0196 285.5,-246.1643 285.5,-259.63"/>
<polygon fill="#ffffff" stroke="#ffffff" stroke-width="4" points="282.0001,-259.7646 285.5,-269.7646 289.0001,-259.7646 282.0001,-259.7646"/>
<text text-anchor="middle" x="398" y="-240.8" font-family="Times,serif" font-size="14.00" fill="#ffffff">3793296 row(s)/61 chunk(s)/485.604MB</text>
</g>
<!-- 94334788492288 -->
<g id="node13" class="node">
<title>94334788492288</title>
<polygon fill="none" stroke="#ffffff" points="321,-69 250,-69 250,0 321,0 321,-69"/>
<text text-anchor="middle" x="285.5" y="-53.8" font-family="Times,serif" font-size="14.00" fill="#ffffff">GetTable</text>
<text text-anchor="middle" x="285.5" y="-38.8" font-family="Times,serif" font-size="14.00" fill="#ffffff">(lineitem)</text>
<text text-anchor="middle" x="285.5" y="-7.8" font-family="Times,serif" font-size="14.00" fill="#ffffff">0 ns</text>
</g>
<!-- 94334788492288&#45;&gt;94334772255952 -->
<g id="edge12" class="edge">
<title>94334788492288&#45;&gt;94334772255952</title>
<path fill="none" stroke="#ffffff" stroke-width="4" d="M285.5,-69.2659C285.5,-81.5301 285.5,-95.6967 285.5,-109.446"/>
<polygon fill="#ffffff" stroke="#ffffff" stroke-width="4" points="282.0001,-109.8405 285.5,-119.8405 289.0001,-109.8406 282.0001,-109.8405"/>
<text text-anchor="middle" x="398" y="-90.8" font-family="Times,serif" font-size="14.00" fill="#ffffff">6001215 row(s)/61 chunk(s)/500.660MB</text>
</g>
</g>
</svg>
