<?xml version="1.0" encoding="UTF-8" standalone="no"?>
<!DOCTYPE svg PUBLIC "-//W3C//DTD SVG 1.1//EN"
 "http://www.w3.org/Graphics/SVG/1.1/DTD/svg11.dtd">
<!-- Generated by graphviz version 2.40.1 (20161225.0304)
 -->
<!-- Title: G Pages: 1 -->
<svg width="1082pt" height="1003pt"
 viewBox="0.00 0.00 1082.00 1003.00" xmlns="http://www.w3.org/2000/svg" xmlns:xlink="http://www.w3.org/1999/xlink">
<g id="graph0" class="graph" transform="scale(1 1) rotate(0) translate(4 999)">
<title>G</title>
<polygon fill="#000000" stroke="transparent" points="-4,4 -4,-999 1078,-999 1078,4 -4,4"/>
<!-- 94378870571008 -->
<g id="node1" class="node">
<title>94378870571008</title>
<polygon fill="none" stroke="#ffffff" points="907,-995 607,-995 607,-942 907,-942 907,-995"/>
<text text-anchor="middle" x="757" y="-979.8" font-family="Times,serif" font-size="14.00" fill="#ffffff">Alias [c_custkey, c_name, SUM(l_extendedprice * </text>
<text text-anchor="middle" x="757" y="-964.8" font-family="Times,serif" font-size="14.00" fill="#ffffff">(1 &#45; l_discount)) AS revenue, c_acctbal, n_name, </text>
<text text-anchor="middle" x="757" y="-949.8" font-family="Times,serif" font-size="14.00" fill="#ffffff">c_address, c_phone, c_comment] </text>
</g>
<!-- 94378914558240 -->
<g id="node2" class="node">
<title>94378914558240</title>
<polygon fill="none" stroke="#ffffff" points="911,-891 603,-891 603,-838 911,-838 911,-891"/>
<text text-anchor="middle" x="757" y="-875.8" font-family="Times,serif" font-size="14.00" fill="#ffffff">[Projection] c_custkey, c_name, </text>
<text text-anchor="middle" x="757" y="-860.8" font-family="Times,serif" font-size="14.00" fill="#ffffff">SUM(l_extendedprice * (1 &#45; l_discount)), </text>
<text text-anchor="middle" x="757" y="-845.8" font-family="Times,serif" font-size="14.00" fill="#ffffff">c_acctbal, n_name, c_address, c_phone, c_comment </text>
</g>
<!-- 94378914558240&#45;&gt;94378870571008 -->
<g id="edge1" class="edge">
<title>94378914558240&#45;&gt;94378870571008</title>
<path fill="none" stroke="#ffffff" stroke-width="4" d="M757,-891.0127C757,-903.2642 757,-918.0234 757,-931.3593"/>
<polygon fill="#ffffff" stroke="#ffffff" stroke-width="4" points="753.5001,-931.6741 757,-941.6741 760.5001,-931.6741 753.5001,-931.6741"/>
<text text-anchor="middle" x="849" y="-912.8" font-family="Times,serif" font-size="14.00" fill="#ffffff"> 2000405.0 row(s) | 100.0% estd.</text>
</g>
<!-- 94378870622608 -->
<g id="node3" class="node">
<title>94378870622608</title>
<polygon fill="none" stroke="#ffffff" points="896.5,-787 617.5,-787 617.5,-749 896.5,-749 896.5,-787"/>
<text text-anchor="middle" x="757" y="-771.8" font-family="Times,serif" font-size="14.00" fill="#ffffff">[Sort] SUM(l_extendedprice * (1 &#45; l_discount)) </text>
<text text-anchor="middle" x="757" y="-756.8" font-family="Times,serif" font-size="14.00" fill="#ffffff">(Descending) </text>
</g>
<!-- 94378870622608&#45;&gt;94378914558240 -->
<g id="edge2" class="edge">
<title>94378870622608&#45;&gt;94378914558240</title>
<path fill="none" stroke="#ffffff" stroke-width="4" d="M757,-787.0653C757,-798.6207 757,-813.7534 757,-827.5728"/>
<polygon fill="#ffffff" stroke="#ffffff" stroke-width="4" points="753.5001,-827.8035 757,-837.8035 760.5001,-827.8036 753.5001,-827.8035"/>
<text text-anchor="middle" x="849" y="-808.8" font-family="Times,serif" font-size="14.00" fill="#ffffff"> 2000405.0 row(s) | 100.0% estd.</text>
</g>
<!-- 94378914558672 -->
<g id="node4" class="node">
<title>94378914558672</title>
<polygon fill="none" stroke="#ffffff" points="913.5,-698 600.5,-698 600.5,-630 913.5,-630 913.5,-698"/>
<text text-anchor="middle" x="757" y="-682.8" font-family="Times,serif" font-size="14.00" fill="#ffffff">[Aggregate] GroupBy: [c_custkey, c_name, </text>
<text text-anchor="middle" x="757" y="-667.8" font-family="Times,serif" font-size="14.00" fill="#ffffff">c_acctbal, c_phone, n_name, c_address, c_comment] </text>
<text text-anchor="middle" x="757" y="-652.8" font-family="Times,serif" font-size="14.00" fill="#ffffff">Aggregates: [SUM(l_extendedprice * (1 &#45; </text>
<text text-anchor="middle" x="757" y="-637.8" font-family="Times,serif" font-size="14.00" fill="#ffffff">l_discount))] </text>
</g>
<!-- 94378914558672&#45;&gt;94378870622608 -->
<g id="edge3" class="edge">
<title>94378914558672&#45;&gt;94378870622608</title>
<path fill="none" stroke="#ffffff" stroke-width="4" d="M757,-698.0535C757,-711.1973 757,-726.0848 757,-738.7364"/>
<polygon fill="#ffffff" stroke="#ffffff" stroke-width="4" points="753.5001,-738.7505 757,-748.7505 760.5001,-738.7505 753.5001,-738.7505"/>
<text text-anchor="middle" x="849" y="-719.8" font-family="Times,serif" font-size="14.00" fill="#ffffff"> 2000405.0 row(s) | 100.0% estd.</text>
</g>
<!-- 94378914558384 -->
<g id="node5" class="node">
<title>94378914558384</title>
<polygon fill="none" stroke="#ffffff" points="902.5,-579 611.5,-579 611.5,-526 902.5,-526 902.5,-579"/>
<text text-anchor="middle" x="757" y="-563.8" font-family="Times,serif" font-size="14.00" fill="#ffffff">[Projection] l_extendedprice * (1 &#45; l_discount), </text>
<text text-anchor="middle" x="757" y="-548.8" font-family="Times,serif" font-size="14.00" fill="#ffffff">c_custkey, c_name, c_acctbal, c_phone, n_name, </text>
<text text-anchor="middle" x="757" y="-533.8" font-family="Times,serif" font-size="14.00" fill="#ffffff">c_address, c_comment </text>
</g>
<!-- 94378914558384&#45;&gt;94378914558672 -->
<g id="edge4" class="edge">
<title>94378914558384&#45;&gt;94378914558672</title>
<path fill="none" stroke="#ffffff" stroke-width="4" d="M757,-579.207C757,-591.3232 757,-605.9786 757,-619.6731"/>
<polygon fill="#ffffff" stroke="#ffffff" stroke-width="4" points="753.5001,-619.9001 757,-629.9001 760.5001,-619.9002 753.5001,-619.9001"/>
<text text-anchor="middle" x="849" y="-600.8" font-family="Times,serif" font-size="14.00" fill="#ffffff"> 2000405.0 row(s) | 100.0% estd.</text>
</g>
<!-- 94378870504048 -->
<g id="node6" class="node">
<title>94378870504048</title>
<polygon fill="none" stroke="#ffffff" points="887,-475 627,-475 627,-439 887,-439 887,-475"/>
<text text-anchor="middle" x="757" y="-453.3" font-family="Times,serif" font-size="14.00" fill="#ffffff">[Join] Mode: Inner l_orderkey = o_orderkey</text>
</g>
<!-- 94378870504048&#45;&gt;94378914558384 -->
<g id="edge5" class="edge">
<title>94378870504048&#45;&gt;94378914558384</title>
<path fill="none" stroke="#ffffff" stroke-width="4" d="M757,-475.4134C757,-486.816 757,-501.8627 757,-515.6338"/>
<polygon fill="#ffffff" stroke="#ffffff" stroke-width="4" points="753.5001,-515.8344 757,-525.8345 760.5001,-515.8345 753.5001,-515.8344"/>
<text text-anchor="middle" x="842" y="-496.8" font-family="Times,serif" font-size="14.00" fill="#ffffff"> 2000405.0 row(s) | 0.0% estd.</text>
</g>
<!-- 94378870503872 -->
<g id="node7" class="node">
<title>94378870503872</title>
<polygon fill="none" stroke="#ffffff" points="749,-387 501,-387 501,-351 749,-351 749,-387"/>
<text text-anchor="middle" x="625" y="-365.3" font-family="Times,serif" font-size="14.00" fill="#ffffff">[Join] Mode: Inner c_custkey = o_custkey</text>
</g>
<!-- 94378870503872&#45;&gt;94378870504048 -->
<g id="edge6" class="edge">
<title>94378870503872&#45;&gt;94378870504048</title>
<path fill="none" stroke="#ffffff" stroke-width="4" d="M641.5906,-387.4079C651.9131,-398.1324 665.8754,-411.3917 680,-421 687.1807,-425.8848 695.1293,-430.4262 703.1132,-434.5239"/>
<polygon fill="#ffffff" stroke="#ffffff" stroke-width="4" points="701.5863,-437.6734 712.1032,-438.9566 704.682,-431.3951 701.5863,-437.6734"/>
<text text-anchor="middle" x="765" y="-409.8" font-family="Times,serif" font-size="14.00" fill="#ffffff"> 1500000.0 row(s) | 0.0% estd.</text>
</g>
<!-- 94378019263456 -->
<g id="node8" class="node">
<title>94378019263456</title>
<polygon fill="none" stroke="#ffffff" points="481,-299 209,-299 209,-263 481,-263 481,-299"/>
<text text-anchor="middle" x="345" y="-277.3" font-family="Times,serif" font-size="14.00" fill="#ffffff">[Join] Mode: Inner c_nationkey = n_nationkey</text>
</g>
<!-- 94378019263456&#45;&gt;94378870503872 -->
<g id="edge7" class="edge">
<title>94378019263456&#45;&gt;94378870503872</title>
<path fill="none" stroke="#ffffff" stroke-width="3" d="M382.7214,-299.0412C406.0391,-309.6853 436.8009,-322.825 465,-332 484.1054,-338.2162 504.8162,-343.8138 524.8009,-348.6623"/>
<polygon fill="#ffffff" stroke="#ffffff" stroke-width="3" points="524.0043,-352.0704 534.543,-350.9817 525.6256,-345.2607 524.0043,-352.0704"/>
<text text-anchor="middle" x="546.5" y="-320.8" font-family="Times,serif" font-size="14.00" fill="#ffffff"> 150000.0 row(s) | 4.0% estd.</text>
</g>
<!-- 94378914562320 -->
<g id="node9" class="node">
<title>94378914562320</title>
<polygon fill="none" stroke="#ffffff" points="270,-212 0,-212 0,-174 270,-174 270,-212"/>
<text text-anchor="middle" x="135" y="-196.8" font-family="Times,serif" font-size="14.00" fill="#ffffff">[Projection] c_custkey, c_name, c_address, </text>
<text text-anchor="middle" x="135" y="-181.8" font-family="Times,serif" font-size="14.00" fill="#ffffff">c_nationkey, c_phone, c_acctbal, c_comment </text>
</g>
<!-- 94378914562320&#45;&gt;94378019263456 -->
<g id="edge8" class="edge">
<title>94378914562320&#45;&gt;94378019263456</title>
<path fill="none" stroke="#ffffff" stroke-width="3" d="M147.9809,-212.0898C156.6201,-223.3409 168.9425,-236.9134 183,-245 192.4322,-250.4259 210.4026,-255.7841 231.0513,-260.6422"/>
<polygon fill="#ffffff" stroke="#ffffff" stroke-width="3" points="230.5132,-264.109 241.04,-262.911 232.0637,-257.2829 230.5132,-264.109"/>
<text text-anchor="middle" x="271.5" y="-233.8" font-family="Times,serif" font-size="14.00" fill="#ffffff"> 150000.0 row(s) | 100.0% estd.</text>
</g>
<!-- 94378914556464 -->
<g id="node10" class="node">
<title>94378914556464</title>
<polygon fill="none" stroke="#ffffff" points="230.5,-123 39.5,-123 39.5,-87 230.5,-87 230.5,-123"/>
<text text-anchor="middle" x="135" y="-101.3" font-family="Times,serif" font-size="14.00" fill="#ffffff">[StoredTable] Name: &#39;customer&#39;</text>
</g>
<!-- 94378914556464&#45;&gt;94378914562320 -->
<g id="edge9" class="edge">
<title>94378914556464&#45;&gt;94378914562320</title>
<path fill="none" stroke="#ffffff" stroke-width="3" d="M135,-123.2337C135,-134.9125 135,-150.3308 135,-163.7022"/>
<polygon fill="#ffffff" stroke="#ffffff" stroke-width="3" points="131.5001,-163.8765 135,-173.8765 138.5001,-163.8765 131.5001,-163.8765"/>
<text text-anchor="middle" x="223.5" y="-144.8" font-family="Times,serif" font-size="14.00" fill="#ffffff"> 150000.0 row(s) | 100.0% estd.</text>
</g>
<!-- 94378914559024 -->
<g id="node11" class="node">
<title>94378914559024</title>
<polygon fill="none" stroke="#ffffff" points="491.5,-211 288.5,-211 288.5,-175 491.5,-175 491.5,-211"/>
<text text-anchor="middle" x="390" y="-189.3" font-family="Times,serif" font-size="14.00" fill="#ffffff">[Projection] n_nationkey, n_name</text>
</g>
<!-- 94378914559024&#45;&gt;94378019263456 -->
<g id="edge10" class="edge">
<title>94378914559024&#45;&gt;94378019263456</title>
<path fill="none" stroke="#ffffff" d="M380.676,-211.2337C374.4009,-223.5048 366.0148,-239.9043 358.9499,-253.7202"/>
<polygon fill="#ffffff" stroke="#ffffff" points="355.7488,-252.2927 354.3121,-262.7897 361.9812,-255.4798 355.7488,-252.2927"/>
<text text-anchor="middle" x="446" y="-233.8" font-family="Times,serif" font-size="14.00" fill="#ffffff"> 25.0 row(s) | 100.0% estd.</text>
</g>
<!-- 94377838489264 -->
<g id="node12" class="node">
<title>94377838489264</title>
<polygon fill="none" stroke="#ffffff" points="477,-123 303,-123 303,-87 477,-87 477,-123"/>
<text text-anchor="middle" x="390" y="-101.3" font-family="Times,serif" font-size="14.00" fill="#ffffff">[StoredTable] Name: &#39;nation&#39;</text>
</g>
<!-- 94377838489264&#45;&gt;94378914559024 -->
<g id="edge11" class="edge">
<title>94377838489264&#45;&gt;94378914559024</title>
<path fill="none" stroke="#ffffff" d="M390,-123.2337C390,-135.1508 390,-150.9616 390,-164.5183"/>
<polygon fill="#ffffff" stroke="#ffffff" points="386.5001,-164.7897 390,-174.7897 393.5001,-164.7897 386.5001,-164.7897"/>
<text text-anchor="middle" x="465" y="-144.8" font-family="Times,serif" font-size="14.00" fill="#ffffff"> 25.0 row(s) | 100.0% estd.</text>
</g>
<!-- 94378914562176 -->
<g id="node13" class="node">
<title>94378914562176</title>
<polygon fill="none" stroke="#ffffff" points="780.5,-299 499.5,-299 499.5,-263 780.5,-263 780.5,-299"/>
<text text-anchor="middle" x="640" y="-277.3" font-family="Times,serif" font-size="14.00" fill="#ffffff">[Projection] o_orderkey, o_custkey, o_orderdate</text>
</g>
<!-- 94378914562176&#45;&gt;94378870503872 -->
<g id="edge12" class="edge">
<title>94378914562176&#45;&gt;94378870503872</title>
<path fill="none" stroke="#ffffff" stroke-width="4" d="M636.892,-299.2337C634.8405,-311.2688 632.1122,-327.2751 629.7863,-340.9203"/>
<polygon fill="#ffffff" stroke="#ffffff" stroke-width="4" points="626.3342,-340.3437 628.104,-350.7897 633.2347,-341.52 626.3342,-340.3437"/>
<text text-anchor="middle" x="726" y="-320.8" font-family="Times,serif" font-size="14.00" fill="#ffffff"> 1500000.0 row(s) | 100.0% estd.</text>
</g>
<!-- 94378862361936 -->
<g id="node14" class="node">
<title>94378862361936</title>
<polygon fill="none" stroke="#ffffff" points="753.5,-211 526.5,-211 526.5,-175 753.5,-175 753.5,-211"/>
<text text-anchor="middle" x="640" y="-189.3" font-family="Times,serif" font-size="14.00" fill="#ffffff">[Predicate] o_orderdate &lt; &#39;1994&#45;01&#45;01&#39;</text>
</g>
<!-- 94378862361936&#45;&gt;94378914562176 -->
<g id="edge13" class="edge">
<title>94378862361936&#45;&gt;94378914562176</title>
<path fill="none" stroke="#ffffff" stroke-width="4" d="M640,-211.2337C640,-223.1508 640,-238.9616 640,-252.5183"/>
<polygon fill="#ffffff" stroke="#ffffff" stroke-width="4" points="636.5001,-252.7897 640,-262.7897 643.5001,-252.7897 636.5001,-252.7897"/>
<text text-anchor="middle" x="732" y="-233.8" font-family="Times,serif" font-size="14.00" fill="#ffffff"> 1500000.0 row(s) | 100.0% estd.</text>
</g>
<!-- 94378862361568 -->
<g id="node15" class="node">
<title>94378862361568</title>
<polygon fill="none" stroke="#ffffff" points="758,-123 522,-123 522,-87 758,-87 758,-123"/>
<text text-anchor="middle" x="640" y="-101.3" font-family="Times,serif" font-size="14.00" fill="#ffffff">[Predicate] o_orderdate &gt;= &#39;1993&#45;10&#45;01&#39;</text>
</g>
<!-- 94378862361568&#45;&gt;94378862361936 -->
<g id="edge14" class="edge">
<title>94378862361568&#45;&gt;94378862361936</title>
<path fill="none" stroke="#ffffff" stroke-width="4" d="M640,-123.2337C640,-135.1508 640,-150.9616 640,-164.5183"/>
<polygon fill="#ffffff" stroke="#ffffff" stroke-width="4" points="636.5001,-164.7897 640,-174.7897 643.5001,-164.7897 636.5001,-164.7897"/>
<text text-anchor="middle" x="732" y="-144.8" font-family="Times,serif" font-size="14.00" fill="#ffffff"> 1500000.0 row(s) | 100.0% estd.</text>
</g>
<!-- 94378034446032 -->
<g id="node16" class="node">
<title>94378034446032</title>
<polygon fill="none" stroke="#ffffff" points="727,-36 553,-36 553,0 727,0 727,-36"/>
<text text-anchor="middle" x="640" y="-14.3" font-family="Times,serif" font-size="14.00" fill="#ffffff">[StoredTable] Name: &#39;orders&#39;</text>
</g>
<!-- 94378034446032&#45;&gt;94378862361568 -->
<g id="edge15" class="edge">
<title>94378034446032&#45;&gt;94378862361568</title>
<path fill="none" stroke="#ffffff" stroke-width="4" d="M640,-36.0265C640,-47.8082 640,-63.4393 640,-76.8419"/>
<polygon fill="#ffffff" stroke="#ffffff" stroke-width="4" points="636.5001,-76.9966 640,-86.9966 643.5001,-76.9967 636.5001,-76.9966"/>
<text text-anchor="middle" x="732" y="-57.8" font-family="Times,serif" font-size="14.00" fill="#ffffff"> 1500000.0 row(s) | 100.0% estd.</text>
</g>
<!-- 94378914562032 -->
<g id="node17" class="node">
<title>94378914562032</title>
<polygon fill="none" stroke="#ffffff" points="1012.5,-388 767.5,-388 767.5,-350 1012.5,-350 1012.5,-388"/>
<text text-anchor="middle" x="890" y="-372.8" font-family="Times,serif" font-size="14.00" fill="#ffffff">[Projection] l_orderkey, l_extendedprice, </text>
<text text-anchor="middle" x="890" y="-357.8" font-family="Times,serif" font-size="14.00" fill="#ffffff">l_discount, l_returnflag </text>
</g>
<!-- 94378914562032&#45;&gt;94378870504048 -->
<g id="edge16" class="edge">
<title>94378914562032&#45;&gt;94378870504048</title>
<path fill="none" stroke="#ffffff" stroke-width="4" d="M878.9212,-388.1976C871.8305,-399.0643 861.7655,-412.1994 850,-421 843.0496,-426.1989 835.2549,-430.7421 827.2131,-434.6872"/>
<polygon fill="#ffffff" stroke="#ffffff" stroke-width="4" points="825.6875,-431.5363 818.0604,-438.8902 828.6087,-437.8976 825.6875,-431.5363"/>
<text text-anchor="middle" x="957" y="-409.8" font-family="Times,serif" font-size="14.00" fill="#ffffff"> 2000405.0 row(s) | 100.0% estd.</text>
</g>
<!-- 94378862362080 -->
<g id="node18" class="node">
<title>94378862362080</title>
<polygon fill="none" stroke="#ffffff" points="976.5,-299 803.5,-299 803.5,-263 976.5,-263 976.5,-299"/>
<text text-anchor="middle" x="890" y="-277.3" font-family="Times,serif" font-size="14.00" fill="#ffffff">[Predicate] l_returnflag = &#39;R&#39;</text>
</g>
<!-- 94378862362080&#45;&gt;94378914562032 -->
<g id="edge17" class="edge">
<title>94378862362080&#45;&gt;94378914562032</title>
<path fill="none" stroke="#ffffff" stroke-width="4" d="M890,-299.2337C890,-310.9125 890,-326.3308 890,-339.7022"/>
<polygon fill="#ffffff" stroke="#ffffff" stroke-width="4" points="886.5001,-339.8765 890,-349.8765 893.5001,-339.8765 886.5001,-339.8765"/>
<text text-anchor="middle" x="978.5" y="-320.8" font-family="Times,serif" font-size="14.00" fill="#ffffff"> 2000405.0 row(s) | 33.3% estd.</text>
</g>
<!-- 94378913458176 -->
<g id="node19" class="node">
<title>94378913458176</title>
<polygon fill="none" stroke="#ffffff" points="982.5,-211 797.5,-211 797.5,-175 982.5,-175 982.5,-211"/>
<text text-anchor="middle" x="890" y="-189.3" font-family="Times,serif" font-size="14.00" fill="#ffffff">[StoredTable] Name: &#39;lineitem&#39;</text>
</g>
<!-- 94378913458176&#45;&gt;94378862362080 -->
<g id="edge18" class="edge">
<title>94378913458176&#45;&gt;94378862362080</title>
<path fill="none" stroke="#ffffff" stroke-width="4" d="M890,-211.2337C890,-223.1508 890,-238.9616 890,-252.5183"/>
<polygon fill="#ffffff" stroke="#ffffff" stroke-width="4" points="886.5001,-252.7897 890,-262.7897 893.5001,-252.7897 886.5001,-252.7897"/>
<text text-anchor="middle" x="982" y="-233.8" font-family="Times,serif" font-size="14.00" fill="#ffffff"> 6001215.0 row(s) | 100.0% estd.</text>
</g>
</g>
</svg>
