<?xml version="1.0" encoding="UTF-8" standalone="no"?>
<!DOCTYPE svg PUBLIC "-//W3C//DTD SVG 1.1//EN"
 "http://www.w3.org/Graphics/SVG/1.1/DTD/svg11.dtd">
<!-- Generated by graphviz version 2.40.1 (20161225.0304)
 -->
<!-- Title: G Pages: 1 -->
<svg width="528pt" height="902pt"
 viewBox="0.00 0.00 528.00 902.00" xmlns="http://www.w3.org/2000/svg" xmlns:xlink="http://www.w3.org/1999/xlink">
<g id="graph0" class="graph" transform="scale(1 1) rotate(0) translate(4 898)">
<title>G</title>
<polygon fill="#000000" stroke="transparent" points="-4,4 -4,-898 524,-898 524,4 -4,4"/>
<!-- 94334802842144 -->
<g id="node1" class="node">
<title>94334802842144</title>
<polygon fill="none" stroke="#ffffff" points="275.5,-894 132.5,-894 132.5,-840 275.5,-840 275.5,-894"/>
<text text-anchor="middle" x="204" y="-878.8" font-family="Times,serif" font-size="14.00" fill="#ffffff">Alias [promo_revenue]</text>
<text text-anchor="middle" x="204" y="-847.8" font-family="Times,serif" font-size="14.00" fill="#ffffff">0 ns</text>
</g>
<!-- 94334831949024 -->
<g id="node2" class="node">
<title>94334831949024</title>
<polygon fill="none" stroke="#ffffff" points="240,-789 168,-789 168,-735 240,-735 240,-789"/>
<text text-anchor="middle" x="204" y="-773.8" font-family="Times,serif" font-size="14.00" fill="#ffffff">Projection</text>
<text text-anchor="middle" x="204" y="-742.8" font-family="Times,serif" font-size="14.00" fill="#ffffff">25 µs 0 ns</text>
</g>
<!-- 94334831949024&#45;&gt;94334802842144 -->
<g id="edge1" class="edge">
<title>94334831949024&#45;&gt;94334802842144</title>
<path fill="none" stroke="#ffffff" d="M204,-789.0401C204,-801.3143 204,-816.0382 204,-829.3683"/>
<polygon fill="#ffffff" stroke="#ffffff" points="200.5001,-829.6866 204,-839.6866 207.5001,-829.6866 200.5001,-829.6866"/>
<text text-anchor="middle" x="274.5" y="-810.8" font-family="Times,serif" font-size="14.00" fill="#ffffff">1 row(s)/1 chunk(s)/552B</text>
</g>
<!-- 94334846996080 -->
<g id="node3" class="node">
<title>94334846996080</title>
<polygon fill="none" stroke="#ffffff" stroke-width="2" points="346,-684 62,-684 62,-615 346,-615 346,-684"/>
<text text-anchor="middle" x="204" y="-668.8" font-family="Times,serif" font-size="14.00" fill="#ffffff">[Aggregate] GroupBy ColumnIDs: &#160;Aggregates: </text>
<text text-anchor="middle" x="204" y="-653.8" font-family="Times,serif" font-size="14.00" fill="#ffffff">SUM(Column #0), SUM(Column #1)</text>
<text text-anchor="middle" x="204" y="-622.8" font-family="Times,serif" font-size="14.00" fill="#ffffff">1 ms 512 µs </text>
</g>
<!-- 94334846996080&#45;&gt;94334831949024 -->
<g id="edge2" class="edge">
<title>94334846996080&#45;&gt;94334831949024</title>
<path fill="none" stroke="#ffffff" d="M204,-684.1717C204,-697.0092 204,-711.6141 204,-724.6774"/>
<polygon fill="#ffffff" stroke="#ffffff" points="200.5001,-724.7601 204,-734.7602 207.5001,-724.7602 200.5001,-724.7601"/>
<text text-anchor="middle" x="274.5" y="-705.8" font-family="Times,serif" font-size="14.00" fill="#ffffff">1 row(s)/1 chunk(s)/719B</text>
</g>
<!-- 94334832170704 -->
<g id="node4" class="node">
<title>94334832170704</title>
<polygon fill="none" stroke="#ffffff" stroke-width="3" points="249,-564 159,-564 159,-510 249,-510 249,-564"/>
<text text-anchor="middle" x="204" y="-548.8" font-family="Times,serif" font-size="14.00" fill="#ffffff">Projection</text>
<text text-anchor="middle" x="204" y="-517.8" font-family="Times,serif" font-size="14.00" fill="#ffffff">13 ms 873 µs</text>
</g>
<!-- 94334832170704&#45;&gt;94334846996080 -->
<g id="edge3" class="edge">
<title>94334832170704&#45;&gt;94334846996080</title>
<path fill="none" stroke="#ffffff" stroke-width="3" d="M204,-564.2331C204,-576.3589 204,-590.9621 204,-604.6298"/>
<polygon fill="#ffffff" stroke="#ffffff" stroke-width="3" points="200.5001,-604.8427 204,-614.8427 207.5001,-604.8428 200.5001,-604.8427"/>
<text text-anchor="middle" x="308" y="-585.8" font-family="Times,serif" font-size="14.00" fill="#ffffff">75983 row(s)/16 chunk(s)/691.498KB</text>
</g>
<!-- 94334726381264 -->
<g id="node5" class="node">
<title>94334726381264</title>
<polygon fill="none" stroke="#ffffff" stroke-width="3" points="295.5,-459 112.5,-459 112.5,-375 295.5,-375 295.5,-459"/>
<text text-anchor="middle" x="204" y="-443.8" font-family="Times,serif" font-size="14.00" fill="#ffffff">JoinHash</text>
<text text-anchor="middle" x="204" y="-428.8" font-family="Times,serif" font-size="14.00" fill="#ffffff">(Inner Join where l_partkey = </text>
<text text-anchor="middle" x="204" y="-413.8" font-family="Times,serif" font-size="14.00" fill="#ffffff">p_partkey)</text>
<text text-anchor="middle" x="204" y="-382.8" font-family="Times,serif" font-size="14.00" fill="#ffffff">12 ms 974 µs </text>
</g>
<!-- 94334726381264&#45;&gt;94334832170704 -->
<g id="edge4" class="edge">
<title>94334726381264&#45;&gt;94334832170704</title>
<path fill="none" stroke="#ffffff" stroke-width="3" d="M204,-459.3075C204,-472.3814 204,-486.686 204,-499.4178"/>
<polygon fill="#ffffff" stroke="#ffffff" stroke-width="3" points="200.5001,-499.681 204,-509.681 207.5001,-499.6811 200.5001,-499.681"/>
<text text-anchor="middle" x="303" y="-480.8" font-family="Times,serif" font-size="14.00" fill="#ffffff">75983 row(s)/16 chunk(s)/3.654MB</text>
</g>
<!-- 94334802842336 -->
<g id="node6" class="node">
<title>94334802842336</title>
<polygon fill="none" stroke="#ffffff" points="130,-324 58,-324 58,-270 130,-270 130,-324"/>
<text text-anchor="middle" x="94" y="-308.8" font-family="Times,serif" font-size="14.00" fill="#ffffff">Projection</text>
<text text-anchor="middle" x="94" y="-277.8" font-family="Times,serif" font-size="14.00" fill="#ffffff">29 µs 0 ns</text>
</g>
<!-- 94334802842336&#45;&gt;94334726381264 -->
<g id="edge5" class="edge">
<title>94334802842336&#45;&gt;94334726381264</title>
<path fill="none" stroke="#ffffff" stroke-width="3" d="M88.8147,-324.0084C88.0898,-334.9513 89.1408,-347.2726 95,-357 97.7846,-361.6231 101.0639,-365.9152 104.7148,-369.897"/>
<polygon fill="#ffffff" stroke="#ffffff" stroke-width="3" points="102.5641,-372.6892 112.1614,-377.1773 107.4576,-367.6838 102.5641,-372.6892"/>
<text text-anchor="middle" x="194" y="-345.8" font-family="Times,serif" font-size="14.00" fill="#ffffff">75983 row(s)/61 chunk(s)/2.453MB</text>
</g>
<!-- 94334847112448 -->
<g id="node7" class="node">
<title>94334847112448</title>
<polygon fill="none" stroke="#ffffff" stroke-width="2" points="188,-219 0,-219 0,-120 188,-120 188,-219"/>
<text text-anchor="middle" x="94" y="-203.8" font-family="Times,serif" font-size="14.00" fill="#ffffff">TableScan</text>
<text text-anchor="middle" x="94" y="-188.8" font-family="Times,serif" font-size="14.00" fill="#ffffff">Impl: BetweenScan</text>
<text text-anchor="middle" x="94" y="-173.8" font-family="Times,serif" font-size="14.00" fill="#ffffff">l_shipdate BETWEEN </text>
<text text-anchor="middle" x="94" y="-158.8" font-family="Times,serif" font-size="14.00" fill="#ffffff">&#39;1995&#45;09&#45;01&#39; AND &#39;1995&#45;10&#45;00&#39;</text>
<text text-anchor="middle" x="94" y="-127.8" font-family="Times,serif" font-size="14.00" fill="#ffffff">3 ms 697 µs </text>
</g>
<!-- 94334847112448&#45;&gt;94334802842336 -->
<g id="edge6" class="edge">
<title>94334847112448&#45;&gt;94334802842336</title>
<path fill="none" stroke="#ffffff" stroke-width="3" d="M94,-219.1599C94,-232.598 94,-246.9153 94,-259.5584"/>
<polygon fill="#ffffff" stroke="#ffffff" stroke-width="3" points="90.5001,-259.7287 94,-269.7287 97.5001,-259.7288 90.5001,-259.7287"/>
<text text-anchor="middle" x="193" y="-240.8" font-family="Times,serif" font-size="14.00" fill="#ffffff">75983 row(s)/61 chunk(s)/9.788MB</text>
</g>
<!-- 94334827962800 -->
<g id="node8" class="node">
<title>94334827962800</title>
<polygon fill="none" stroke="#ffffff" points="129.5,-69 58.5,-69 58.5,0 129.5,0 129.5,-69"/>
<text text-anchor="middle" x="94" y="-53.8" font-family="Times,serif" font-size="14.00" fill="#ffffff">GetTable</text>
<text text-anchor="middle" x="94" y="-38.8" font-family="Times,serif" font-size="14.00" fill="#ffffff">(lineitem)</text>
<text text-anchor="middle" x="94" y="-7.8" font-family="Times,serif" font-size="14.00" fill="#ffffff">0 ns</text>
</g>
<!-- 94334827962800&#45;&gt;94334847112448 -->
<g id="edge7" class="edge">
<title>94334827962800&#45;&gt;94334847112448</title>
<path fill="none" stroke="#ffffff" stroke-width="4" d="M94,-69.2659C94,-81.5301 94,-95.6967 94,-109.446"/>
<polygon fill="#ffffff" stroke="#ffffff" stroke-width="4" points="90.5001,-109.8405 94,-119.8405 97.5001,-109.8406 90.5001,-109.8405"/>
<text text-anchor="middle" x="206.5" y="-90.8" font-family="Times,serif" font-size="14.00" fill="#ffffff">6001215 row(s)/61 chunk(s)/500.660MB</text>
</g>
<!-- 94334831974736 -->
<g id="node9" class="node">
<title>94334831974736</title>
<polygon fill="none" stroke="#ffffff" points="351,-324 279,-324 279,-270 351,-270 351,-324"/>
<text text-anchor="middle" x="315" y="-308.8" font-family="Times,serif" font-size="14.00" fill="#ffffff">Projection</text>
<text text-anchor="middle" x="315" y="-277.8" font-family="Times,serif" font-size="14.00" fill="#ffffff">95 µs 0 ns</text>
</g>
<!-- 94334831974736&#45;&gt;94334726381264 -->
<g id="edge8" class="edge">
<title>94334831974736&#45;&gt;94334726381264</title>
<path fill="none" stroke="#ffffff" stroke-width="3" d="M308.946,-324.2137C305.5533,-335.1896 300.4579,-347.4801 293,-357 289.9977,-360.8324 286.6814,-364.5074 283.1463,-368.0173"/>
<polygon fill="#ffffff" stroke="#ffffff" stroke-width="3" points="280.5763,-365.6268 275.6133,-374.9874 285.3304,-370.7648 280.5763,-365.6268"/>
<text text-anchor="middle" x="401" y="-345.8" font-family="Times,serif" font-size="14.00" fill="#ffffff">200000 row(s)/2 chunk(s)/4.210MB</text>
</g>
<!-- 94334831929280 -->
<g id="node10" class="node">
<title>94334831929280</title>
<polygon fill="none" stroke="#ffffff" points="348.5,-204 281.5,-204 281.5,-135 348.5,-135 348.5,-204"/>
<text text-anchor="middle" x="315" y="-188.8" font-family="Times,serif" font-size="14.00" fill="#ffffff">GetTable</text>
<text text-anchor="middle" x="315" y="-173.8" font-family="Times,serif" font-size="14.00" fill="#ffffff">(part)</text>
<text text-anchor="middle" x="315" y="-142.8" font-family="Times,serif" font-size="14.00" fill="#ffffff">0 ns</text>
</g>
<!-- 94334831929280&#45;&gt;94334831974736 -->
<g id="edge9" class="edge">
<title>94334831929280&#45;&gt;94334831974736</title>
<path fill="none" stroke="#ffffff" stroke-width="3" d="M315,-204.0033C315,-221.104 315,-241.7892 315,-259.3049"/>
<polygon fill="#ffffff" stroke="#ffffff" stroke-width="3" points="311.5001,-259.7409 315,-269.7409 318.5001,-259.741 311.5001,-259.7409"/>
<text text-anchor="middle" x="417.5" y="-240.8" font-family="Times,serif" font-size="14.00" fill="#ffffff">200000 row(s)/2 chunk(s)/18.202MB</text>
</g>
</g>
</svg>
