<?xml version="1.0" encoding="UTF-8" standalone="no"?>
<!DOCTYPE svg PUBLIC "-//W3C//DTD SVG 1.1//EN"
 "http://www.w3.org/Graphics/SVG/1.1/DTD/svg11.dtd">
<!-- Generated by graphviz version 2.40.1 (20161225.0304)
 -->
<!-- Title: G Pages: 1 -->
<svg width="519pt" height="1547pt"
 viewBox="0.00 0.00 518.50 1547.00" xmlns="http://www.w3.org/2000/svg" xmlns:xlink="http://www.w3.org/1999/xlink">
<g id="graph0" class="graph" transform="scale(1 1) rotate(0) translate(4 1543)">
<title>G</title>
<polygon fill="#000000" stroke="transparent" points="-4,4 -4,-1543 514.5,-1543 514.5,4 -4,4"/>
<!-- 94378080649472 -->
<g id="node1" class="node">
<title>94378080649472</title>
<polygon fill="none" stroke="#ffffff" points="215,-1539 110,-1539 110,-1440 215,-1440 215,-1539"/>
<text text-anchor="middle" x="162.5" y="-1523.8" font-family="Times,serif" font-size="14.00" fill="#ffffff">Alias </text>
<text text-anchor="middle" x="162.5" y="-1508.8" font-family="Times,serif" font-size="14.00" fill="#ffffff">[l_shipmode</text>
<text text-anchor="middle" x="162.5" y="-1493.8" font-family="Times,serif" font-size="14.00" fill="#ffffff">high_line_count</text>
<text text-anchor="middle" x="162.5" y="-1478.8" font-family="Times,serif" font-size="14.00" fill="#ffffff">low_line_count]</text>
<text text-anchor="middle" x="162.5" y="-1447.8" font-family="Times,serif" font-size="14.00" fill="#ffffff">0 ns </text>
</g>
<!-- 94378862449392 -->
<g id="node2" class="node">
<title>94378862449392</title>
<polygon fill="none" stroke="#ffffff" points="195,-1389 130,-1389 130,-1335 195,-1335 195,-1389"/>
<text text-anchor="middle" x="162.5" y="-1373.8" font-family="Times,serif" font-size="14.00" fill="#ffffff">Sort</text>
<text text-anchor="middle" x="162.5" y="-1342.8" font-family="Times,serif" font-size="14.00" fill="#ffffff">9 µs 0 ns</text>
</g>
<!-- 94378862449392&#45;&gt;94378080649472 -->
<g id="edge1" class="edge">
<title>94378862449392&#45;&gt;94378080649472</title>
<path fill="none" stroke="#ffffff" d="M162.5,-1389.0395C162.5,-1400.9214 162.5,-1415.3843 162.5,-1429.5919"/>
<polygon fill="#ffffff" stroke="#ffffff" points="159.0001,-1429.8515 162.5,-1439.8515 166.0001,-1429.8515 159.0001,-1429.8515"/>
<text text-anchor="middle" x="243" y="-1410.8" font-family="Times,serif" font-size="14.00" fill="#ffffff">2 row(s)/1 chunk(s)/1.041KB</text>
</g>
<!-- 94378914561728 -->
<g id="node3" class="node">
<title>94378914561728</title>
<polygon fill="none" stroke="#ffffff" stroke-width="2" points="307.5,-1284 17.5,-1284 17.5,-1215 307.5,-1215 307.5,-1284"/>
<text text-anchor="middle" x="162.5" y="-1268.8" font-family="Times,serif" font-size="14.00" fill="#ffffff">[Aggregate] GroupBy ColumnIDs: 2 Aggregates: </text>
<text text-anchor="middle" x="162.5" y="-1253.8" font-family="Times,serif" font-size="14.00" fill="#ffffff">SUM(Column #0), SUM(Column #1)</text>
<text text-anchor="middle" x="162.5" y="-1222.8" font-family="Times,serif" font-size="14.00" fill="#ffffff">1 ms 434 µs </text>
</g>
<!-- 94378914561728&#45;&gt;94378862449392 -->
<g id="edge2" class="edge">
<title>94378914561728&#45;&gt;94378862449392</title>
<path fill="none" stroke="#ffffff" d="M162.5,-1284.1717C162.5,-1297.0092 162.5,-1311.6141 162.5,-1324.6774"/>
<polygon fill="#ffffff" stroke="#ffffff" points="159.0001,-1324.7601 162.5,-1334.7602 166.0001,-1324.7602 159.0001,-1324.7601"/>
<text text-anchor="middle" x="243" y="-1305.8" font-family="Times,serif" font-size="14.00" fill="#ffffff">2 row(s)/1 chunk(s)/1.041KB</text>
</g>
<!-- 94378862272928 -->
<g id="node4" class="node">
<title>94378862272928</title>
<polygon fill="none" stroke="#ffffff" stroke-width="2" points="204,-1164 121,-1164 121,-1110 204,-1110 204,-1164"/>
<text text-anchor="middle" x="162.5" y="-1148.8" font-family="Times,serif" font-size="14.00" fill="#ffffff">Projection</text>
<text text-anchor="middle" x="162.5" y="-1117.8" font-family="Times,serif" font-size="14.00" fill="#ffffff">5 ms 397 µs</text>
</g>
<!-- 94378862272928&#45;&gt;94378914561728 -->
<g id="edge3" class="edge">
<title>94378862272928&#45;&gt;94378914561728</title>
<path fill="none" stroke="#ffffff" stroke-width="3" d="M162.5,-1164.2331C162.5,-1176.3589 162.5,-1190.9621 162.5,-1204.6298"/>
<polygon fill="#ffffff" stroke="#ffffff" stroke-width="3" points="159.0001,-1204.8427 162.5,-1214.8427 166.0001,-1204.8428 159.0001,-1204.8427"/>
<text text-anchor="middle" x="258" y="-1185.8" font-family="Times,serif" font-size="14.00" fill="#ffffff">30988 row(s)/8 chunk(s)/1.306MB</text>
</g>
<!-- 94378862495920 -->
<g id="node5" class="node">
<title>94378862495920</title>
<polygon fill="none" stroke="#ffffff" stroke-width="3" points="259.5,-1059 65.5,-1059 65.5,-975 259.5,-975 259.5,-1059"/>
<text text-anchor="middle" x="162.5" y="-1043.8" font-family="Times,serif" font-size="14.00" fill="#ffffff">JoinHash</text>
<text text-anchor="middle" x="162.5" y="-1028.8" font-family="Times,serif" font-size="14.00" fill="#ffffff">(Inner Join where o_orderkey = </text>
<text text-anchor="middle" x="162.5" y="-1013.8" font-family="Times,serif" font-size="14.00" fill="#ffffff">l_orderkey)</text>
<text text-anchor="middle" x="162.5" y="-982.8" font-family="Times,serif" font-size="14.00" fill="#ffffff">22 ms 785 µs </text>
</g>
<!-- 94378862495920&#45;&gt;94378862272928 -->
<g id="edge4" class="edge">
<title>94378862495920&#45;&gt;94378862272928</title>
<path fill="none" stroke="#ffffff" stroke-width="3" d="M162.5,-1059.3075C162.5,-1072.3814 162.5,-1086.686 162.5,-1099.4178"/>
<polygon fill="#ffffff" stroke="#ffffff" stroke-width="3" points="159.0001,-1099.681 162.5,-1109.681 166.0001,-1099.6811 159.0001,-1099.681"/>
<text text-anchor="middle" x="258" y="-1080.8" font-family="Times,serif" font-size="14.00" fill="#ffffff">30988 row(s)/8 chunk(s)/1.739MB</text>
</g>
<!-- 94378094452720 -->
<g id="node6" class="node">
<title>94378094452720</title>
<polygon fill="none" stroke="#ffffff" stroke-width="2" points="79,-924 0,-924 0,-870 79,-870 79,-924"/>
<text text-anchor="middle" x="39.5" y="-908.8" font-family="Times,serif" font-size="14.00" fill="#ffffff">Projection</text>
<text text-anchor="middle" x="39.5" y="-877.8" font-family="Times,serif" font-size="14.00" fill="#ffffff">407 µs 0 ns</text>
</g>
<!-- 94378094452720&#45;&gt;94378862495920 -->
<g id="edge5" class="edge">
<title>94378094452720&#45;&gt;94378862495920</title>
<path fill="none" stroke="#ffffff" stroke-width="4" d="M34.0944,-924.1446C33.334,-935.1094 34.4181,-947.4103 40.5,-957 45.1339,-964.3066 50.9422,-970.7509 57.4934,-976.4301"/>
<polygon fill="#ffffff" stroke="#ffffff" stroke-width="4" points="55.482,-979.3014 65.4995,-982.7513 59.8198,-973.8075 55.482,-979.3014"/>
<text text-anchor="middle" x="149.5" y="-945.8" font-family="Times,serif" font-size="14.00" fill="#ffffff">1500000 row(s)/15 chunk(s)/31.509MB</text>
</g>
<!-- 94378010629008 -->
<g id="node7" class="node">
<title>94378010629008</title>
<polygon fill="none" stroke="#ffffff" points="71,-804 4,-804 4,-735 71,-735 71,-804"/>
<text text-anchor="middle" x="37.5" y="-788.8" font-family="Times,serif" font-size="14.00" fill="#ffffff">GetTable</text>
<text text-anchor="middle" x="37.5" y="-773.8" font-family="Times,serif" font-size="14.00" fill="#ffffff">(orders)</text>
<text text-anchor="middle" x="37.5" y="-742.8" font-family="Times,serif" font-size="14.00" fill="#ffffff">0 ns</text>
</g>
<!-- 94378010629008&#45;&gt;94378094452720 -->
<g id="edge6" class="edge">
<title>94378010629008&#45;&gt;94378094452720</title>
<path fill="none" stroke="#ffffff" stroke-width="4" d="M38.0412,-804.0033C38.3095,-821.104 38.6339,-841.7892 38.9087,-859.3049"/>
<polygon fill="#ffffff" stroke="#ffffff" stroke-width="4" points="35.4159,-859.7971 39.0724,-869.7409 42.415,-859.6872 35.4159,-859.7971"/>
<text text-anchor="middle" x="152" y="-840.8" font-family="Times,serif" font-size="14.00" fill="#ffffff">1500000 row(s)/15 chunk(s)/114.197MB</text>
</g>
<!-- 94378093312816 -->
<g id="node8" class="node">
<title>94378093312816</title>
<polygon fill="none" stroke="#ffffff" points="320.5,-924 248.5,-924 248.5,-870 320.5,-870 320.5,-924"/>
<text text-anchor="middle" x="284.5" y="-908.8" font-family="Times,serif" font-size="14.00" fill="#ffffff">Projection</text>
<text text-anchor="middle" x="284.5" y="-877.8" font-family="Times,serif" font-size="14.00" fill="#ffffff">34 µs 0 ns</text>
</g>
<!-- 94378093312816&#45;&gt;94378862495920 -->
<g id="edge7" class="edge">
<title>94378093312816&#45;&gt;94378862495920</title>
<path fill="none" stroke="#ffffff" stroke-width="3" d="M278.7836,-924.1089C275.4326,-935.194 270.2771,-947.5946 262.5,-957 259.3592,-960.7984 255.9115,-964.417 252.2436,-967.8555"/>
<polygon fill="#ffffff" stroke="#ffffff" stroke-width="3" points="249.6736,-965.4526 244.4335,-974.6608 254.2722,-970.7302 249.6736,-965.4526"/>
<text text-anchor="middle" x="371.5" y="-945.8" font-family="Times,serif" font-size="14.00" fill="#ffffff">30988 row(s)/61 chunk(s)/1.264MB</text>
</g>
<!-- 94378063869840 -->
<g id="node9" class="node">
<title>94378063869840</title>
<polygon fill="none" stroke="#ffffff" stroke-width="2" points="367,-819 204,-819 204,-720 367,-720 367,-819"/>
<text text-anchor="middle" x="285.5" y="-803.8" font-family="Times,serif" font-size="14.00" fill="#ffffff">TableScan</text>
<text text-anchor="middle" x="285.5" y="-788.8" font-family="Times,serif" font-size="14.00" fill="#ffffff">Impl: ExpressionEvaluator</text>
<text text-anchor="middle" x="285.5" y="-773.8" font-family="Times,serif" font-size="14.00" fill="#ffffff">(l_shipmode) </text>
<text text-anchor="middle" x="285.5" y="-758.8" font-family="Times,serif" font-size="14.00" fill="#ffffff">IN (&#39;MAIL&#39;, &#39;SHIP&#39;)</text>
<text text-anchor="middle" x="285.5" y="-727.8" font-family="Times,serif" font-size="14.00" fill="#ffffff">4 ms 856 µs </text>
</g>
<!-- 94378063869840&#45;&gt;94378093312816 -->
<g id="edge8" class="edge">
<title>94378063869840&#45;&gt;94378093312816</title>
<path fill="none" stroke="#ffffff" stroke-width="3" d="M285.1105,-819.1599C285.0051,-832.598 284.8928,-846.9153 284.7937,-859.5584"/>
<polygon fill="#ffffff" stroke="#ffffff" stroke-width="3" points="281.2925,-859.7015 284.7139,-869.7287 288.2923,-859.7565 281.2925,-859.7015"/>
<text text-anchor="middle" x="383.5" y="-840.8" font-family="Times,serif" font-size="14.00" fill="#ffffff">30988 row(s)/61 chunk(s)/4.029MB</text>
</g>
<!-- 94378011417136 -->
<g id="node10" class="node">
<title>94378011417136</title>
<polygon fill="none" stroke="#ffffff" stroke-width="3" points="366,-669 205,-669 205,-570 366,-570 366,-669"/>
<text text-anchor="middle" x="285.5" y="-653.8" font-family="Times,serif" font-size="14.00" fill="#ffffff">TableScan</text>
<text text-anchor="middle" x="285.5" y="-638.8" font-family="Times,serif" font-size="14.00" fill="#ffffff">Impl: ColumnComparison</text>
<text text-anchor="middle" x="285.5" y="-623.8" font-family="Times,serif" font-size="14.00" fill="#ffffff">l_shipdate &lt; </text>
<text text-anchor="middle" x="285.5" y="-608.8" font-family="Times,serif" font-size="14.00" fill="#ffffff">l_commitdate</text>
<text text-anchor="middle" x="285.5" y="-577.8" font-family="Times,serif" font-size="14.00" fill="#ffffff">18 ms 914 µs </text>
</g>
<!-- 94378011417136&#45;&gt;94378063869840 -->
<g id="edge9" class="edge">
<title>94378011417136&#45;&gt;94378063869840</title>
<path fill="none" stroke="#ffffff" stroke-width="3" d="M285.5,-669.0313C285.5,-682.0196 285.5,-696.1643 285.5,-709.63"/>
<polygon fill="#ffffff" stroke="#ffffff" stroke-width="3" points="282.0001,-709.7646 285.5,-719.7646 289.0001,-709.7646 282.0001,-709.7646"/>
<text text-anchor="middle" x="391" y="-690.8" font-family="Times,serif" font-size="14.00" fill="#ffffff">108434 row(s)/61 chunk(s)/13.942MB</text>
</g>
<!-- 94378058835824 -->
<g id="node11" class="node">
<title>94378058835824</title>
<polygon fill="none" stroke="#ffffff" stroke-width="3" points="366,-519 205,-519 205,-420 366,-420 366,-519"/>
<text text-anchor="middle" x="285.5" y="-503.8" font-family="Times,serif" font-size="14.00" fill="#ffffff">TableScan</text>
<text text-anchor="middle" x="285.5" y="-488.8" font-family="Times,serif" font-size="14.00" fill="#ffffff">Impl: ColumnComparison</text>
<text text-anchor="middle" x="285.5" y="-473.8" font-family="Times,serif" font-size="14.00" fill="#ffffff">l_commitdate &lt; </text>
<text text-anchor="middle" x="285.5" y="-458.8" font-family="Times,serif" font-size="14.00" fill="#ffffff">l_receiptdate</text>
<text text-anchor="middle" x="285.5" y="-427.8" font-family="Times,serif" font-size="14.00" fill="#ffffff">32 ms 417 µs </text>
</g>
<!-- 94378058835824&#45;&gt;94378011417136 -->
<g id="edge10" class="edge">
<title>94378058835824&#45;&gt;94378011417136</title>
<path fill="none" stroke="#ffffff" stroke-width="3" d="M285.5,-519.0313C285.5,-532.0196 285.5,-546.1643 285.5,-559.63"/>
<polygon fill="#ffffff" stroke="#ffffff" stroke-width="3" points="282.0001,-559.7646 285.5,-569.7646 289.0001,-559.7646 282.0001,-559.7646"/>
<text text-anchor="middle" x="391" y="-540.8" font-family="Times,serif" font-size="14.00" fill="#ffffff">575457 row(s)/61 chunk(s)/73.721MB</text>
</g>
<!-- 94378072921008 -->
<g id="node12" class="node">
<title>94378072921008</title>
<polygon fill="none" stroke="#ffffff" stroke-width="3" points="357,-369 214,-369 214,-270 357,-270 357,-369"/>
<text text-anchor="middle" x="285.5" y="-353.8" font-family="Times,serif" font-size="14.00" fill="#ffffff">TableScan</text>
<text text-anchor="middle" x="285.5" y="-338.8" font-family="Times,serif" font-size="14.00" fill="#ffffff">Impl: LiteralTableScan</text>
<text text-anchor="middle" x="285.5" y="-323.8" font-family="Times,serif" font-size="14.00" fill="#ffffff">l_receiptdate &lt; </text>
<text text-anchor="middle" x="285.5" y="-308.8" font-family="Times,serif" font-size="14.00" fill="#ffffff">&#39;1995&#45;01&#45;01&#39;</text>
<text text-anchor="middle" x="285.5" y="-277.8" font-family="Times,serif" font-size="14.00" fill="#ffffff">11 ms 422 µs </text>
</g>
<!-- 94378072921008&#45;&gt;94378058835824 -->
<g id="edge11" class="edge">
<title>94378072921008&#45;&gt;94378058835824</title>
<path fill="none" stroke="#ffffff" stroke-width="3" d="M285.5,-369.0313C285.5,-382.0196 285.5,-396.1643 285.5,-409.63"/>
<polygon fill="#ffffff" stroke="#ffffff" stroke-width="3" points="282.0001,-409.7646 285.5,-419.7646 289.0001,-409.7646 282.0001,-409.7646"/>
<text text-anchor="middle" x="394.5" y="-390.8" font-family="Times,serif" font-size="14.00" fill="#ffffff">909844 row(s)/61 chunk(s)/116.522MB</text>
</g>
<!-- 94378857958464 -->
<g id="node13" class="node">
<title>94378857958464</title>
<polygon fill="none" stroke="#ffffff" stroke-width="3" points="357,-219 214,-219 214,-120 357,-120 357,-219"/>
<text text-anchor="middle" x="285.5" y="-203.8" font-family="Times,serif" font-size="14.00" fill="#ffffff">TableScan</text>
<text text-anchor="middle" x="285.5" y="-188.8" font-family="Times,serif" font-size="14.00" fill="#ffffff">Impl: LiteralTableScan</text>
<text text-anchor="middle" x="285.5" y="-173.8" font-family="Times,serif" font-size="14.00" fill="#ffffff">l_receiptdate &gt;= </text>
<text text-anchor="middle" x="285.5" y="-158.8" font-family="Times,serif" font-size="14.00" fill="#ffffff">&#39;1994&#45;01&#45;01&#39;</text>
<text text-anchor="middle" x="285.5" y="-127.8" font-family="Times,serif" font-size="14.00" fill="#ffffff">27 ms 423 µs </text>
</g>
<!-- 94378857958464&#45;&gt;94378072921008 -->
<g id="edge12" class="edge">
<title>94378857958464&#45;&gt;94378072921008</title>
<path fill="none" stroke="#ffffff" stroke-width="4" d="M285.5,-219.0313C285.5,-232.0196 285.5,-246.1643 285.5,-259.63"/>
<polygon fill="#ffffff" stroke="#ffffff" stroke-width="4" points="282.0001,-259.7646 285.5,-269.7646 289.0001,-259.7646 282.0001,-259.7646"/>
<text text-anchor="middle" x="398" y="-240.8" font-family="Times,serif" font-size="14.00" fill="#ffffff">4374812 row(s)/61 chunk(s)/560.038MB</text>
</g>
<!-- 94377997160624 -->
<g id="node14" class="node">
<title>94377997160624</title>
<polygon fill="none" stroke="#ffffff" points="321,-69 250,-69 250,0 321,0 321,-69"/>
<text text-anchor="middle" x="285.5" y="-53.8" font-family="Times,serif" font-size="14.00" fill="#ffffff">GetTable</text>
<text text-anchor="middle" x="285.5" y="-38.8" font-family="Times,serif" font-size="14.00" fill="#ffffff">(lineitem)</text>
<text text-anchor="middle" x="285.5" y="-7.8" font-family="Times,serif" font-size="14.00" fill="#ffffff">0 ns</text>
</g>
<!-- 94377997160624&#45;&gt;94378857958464 -->
<g id="edge13" class="edge">
<title>94377997160624&#45;&gt;94378857958464</title>
<path fill="none" stroke="#ffffff" stroke-width="4" d="M285.5,-69.2659C285.5,-81.5301 285.5,-95.6967 285.5,-109.446"/>
<polygon fill="#ffffff" stroke="#ffffff" stroke-width="4" points="282.0001,-109.8405 285.5,-119.8405 289.0001,-109.8406 282.0001,-109.8405"/>
<text text-anchor="middle" x="398" y="-90.8" font-family="Times,serif" font-size="14.00" fill="#ffffff">6001215 row(s)/61 chunk(s)/500.660MB</text>
</g>
</g>
</svg>
