<?xml version="1.0" encoding="UTF-8" standalone="no"?>
<!DOCTYPE svg PUBLIC "-//W3C//DTD SVG 1.1//EN"
 "http://www.w3.org/Graphics/SVG/1.1/DTD/svg11.dtd">
<!-- Generated by graphviz version 2.40.1 (20161225.0304)
 -->
<!-- Title: G Pages: 1 -->
<svg width="616pt" height="1528pt"
 viewBox="0.00 0.00 616.00 1528.00" xmlns="http://www.w3.org/2000/svg" xmlns:xlink="http://www.w3.org/1999/xlink">
<g id="graph0" class="graph" transform="scale(1 1) rotate(0) translate(4 1524)">
<title>G</title>
<polygon fill="#000000" stroke="transparent" points="-4,4 -4,-1524 612,-1524 612,4 -4,4"/>
<!-- 94379002100384 -->
<g id="node1" class="node">
<title>94379002100384</title>
<polygon fill="none" stroke="#ffffff" points="367,-1520 295,-1520 295,-1466 367,-1466 367,-1520"/>
<text text-anchor="middle" x="331" y="-1504.8" font-family="Times,serif" font-size="14.00" fill="#ffffff">Projection</text>
<text text-anchor="middle" x="331" y="-1473.8" font-family="Times,serif" font-size="14.00" fill="#ffffff">1 µs 0 ns</text>
</g>
<!-- 94379006542672 -->
<g id="node2" class="node">
<title>94379006542672</title>
<polygon fill="none" stroke="#ffffff" stroke-width="2" points="370.5,-1415 291.5,-1415 291.5,-1361 370.5,-1361 370.5,-1415"/>
<text text-anchor="middle" x="331" y="-1399.8" font-family="Times,serif" font-size="14.00" fill="#ffffff">Sort</text>
<text text-anchor="middle" x="331" y="-1368.8" font-family="Times,serif" font-size="14.00" fill="#ffffff">398 µs 0 ns</text>
</g>
<!-- 94379006542672&#45;&gt;94379002100384 -->
<g id="edge1" class="edge">
<title>94379006542672&#45;&gt;94379002100384</title>
<path fill="none" stroke="#ffffff" stroke-width="2" d="M331,-1415.0401C331,-1427.3143 331,-1442.0382 331,-1455.3683"/>
<polygon fill="#ffffff" stroke="#ffffff" stroke-width="2" points="327.5001,-1455.6866 331,-1465.6866 334.5001,-1455.6866 327.5001,-1455.6866"/>
<text text-anchor="middle" x="421.5" y="-1436.8" font-family="Times,serif" font-size="14.00" fill="#ffffff">186 row(s)/1 chunk(s)/22.504KB</text>
</g>
<!-- 94379035702864 -->
<g id="node3" class="node">
<title>94379035702864</title>
<polygon fill="none" stroke="#ffffff" points="429.5,-1310 232.5,-1310 232.5,-1226 429.5,-1226 429.5,-1310"/>
<text text-anchor="middle" x="331" y="-1294.8" font-family="Times,serif" font-size="14.00" fill="#ffffff">JoinHash</text>
<text text-anchor="middle" x="331" y="-1279.8" font-family="Times,serif" font-size="14.00" fill="#ffffff">(Inner Join where s_nationkey = </text>
<text text-anchor="middle" x="331" y="-1264.8" font-family="Times,serif" font-size="14.00" fill="#ffffff">n_nationkey)</text>
<text text-anchor="middle" x="331" y="-1233.8" font-family="Times,serif" font-size="14.00" fill="#ffffff">87 µs 0 ns </text>
</g>
<!-- 94379035702864&#45;&gt;94379006542672 -->
<g id="edge2" class="edge">
<title>94379035702864&#45;&gt;94379006542672</title>
<path fill="none" stroke="#ffffff" stroke-width="2" d="M331,-1310.3075C331,-1323.3814 331,-1337.686 331,-1350.4178"/>
<polygon fill="#ffffff" stroke="#ffffff" stroke-width="2" points="327.5001,-1350.681 331,-1360.681 334.5001,-1350.6811 327.5001,-1350.681"/>
<text text-anchor="middle" x="418.5" y="-1331.8" font-family="Times,serif" font-size="14.00" fill="#ffffff">186 row(s)/1 chunk(s)/9.556KB</text>
</g>
<!-- 94379006548464 -->
<g id="node4" class="node">
<title>94379006548464</title>
<polygon fill="none" stroke="#ffffff" points="258,-1175 186,-1175 186,-1121 258,-1121 258,-1175"/>
<text text-anchor="middle" x="222" y="-1159.8" font-family="Times,serif" font-size="14.00" fill="#ffffff">Projection</text>
<text text-anchor="middle" x="222" y="-1128.8" font-family="Times,serif" font-size="14.00" fill="#ffffff">4 µs 0 ns</text>
</g>
<!-- 94379006548464&#45;&gt;94379035702864 -->
<g id="edge3" class="edge">
<title>94379006548464&#45;&gt;94379035702864</title>
<path fill="none" stroke="#ffffff" stroke-width="2" d="M216.8141,-1175.2986C216.1313,-1186.164 217.2134,-1198.3505 223,-1208 225.2338,-1211.725 227.79,-1215.2362 230.6036,-1218.5439"/>
<polygon fill="#ffffff" stroke="#ffffff" stroke-width="2" points="228.1748,-1221.0688 237.6051,-1225.898 233.2446,-1216.2421 228.1748,-1221.0688"/>
<text text-anchor="middle" x="320.5" y="-1196.8" font-family="Times,serif" font-size="14.00" fill="#ffffff">4397 row(s)/1 chunk(s)/141.203KB</text>
</g>
<!-- 94379036244704 -->
<g id="node5" class="node">
<title>94379036244704</title>
<polygon fill="none" stroke="#ffffff" stroke-width="4" points="345,-1070 99,-1070 99,-971 345,-971 345,-1070"/>
<text text-anchor="middle" x="222" y="-1054.8" font-family="Times,serif" font-size="14.00" fill="#ffffff">TableScan</text>
<text text-anchor="middle" x="222" y="-1039.8" font-family="Times,serif" font-size="14.00" fill="#ffffff">Impl: ExpressionEvaluator</text>
<text text-anchor="middle" x="222" y="-1024.8" font-family="Times,serif" font-size="14.00" fill="#ffffff">(s_suppkey) </text>
<text text-anchor="middle" x="222" y="-1009.8" font-family="Times,serif" font-size="14.00" fill="#ffffff">IN SUBSELECT (PQP, 0x55d652e4fa00)</text>
<text text-anchor="middle" x="222" y="-978.8" font-family="Times,serif" font-size="14.00" fill="#ffffff">10 s 670 ms </text>
</g>
<!-- 94379036244704&#45;&gt;94379006548464 -->
<g id="edge4" class="edge">
<title>94379036244704&#45;&gt;94379006548464</title>
<path fill="none" stroke="#ffffff" stroke-width="2" d="M222,-1070.1599C222,-1083.598 222,-1097.9153 222,-1110.5584"/>
<polygon fill="#ffffff" stroke="#ffffff" stroke-width="2" points="218.5001,-1110.7287 222,-1120.7287 225.5001,-1110.7288 218.5001,-1110.7287"/>
<text text-anchor="middle" x="319.5" y="-1091.8" font-family="Times,serif" font-size="14.00" fill="#ffffff">4397 row(s)/1 chunk(s)/246.924KB</text>
</g>
<!-- 94379002094112 -->
<g id="node6" class="node">
<title>94379002094112</title>
<polygon fill="none" stroke="#ffffff" points="79.5,-920 10.5,-920 10.5,-851 79.5,-851 79.5,-920"/>
<text text-anchor="middle" x="45" y="-904.8" font-family="Times,serif" font-size="14.00" fill="#ffffff">GetTable</text>
<text text-anchor="middle" x="45" y="-889.8" font-family="Times,serif" font-size="14.00" fill="#ffffff">(supplier)</text>
<text text-anchor="middle" x="45" y="-858.8" font-family="Times,serif" font-size="14.00" fill="#ffffff">0 ns</text>
</g>
<!-- 94379002094112&#45;&gt;94379036244704 -->
<g id="edge5" class="edge">
<title>94379002094112&#45;&gt;94379036244704</title>
<path fill="none" stroke="#ffffff" stroke-width="2" d="M38.1568,-920.1375C37.7351,-931.4851 39.4231,-943.5838 46,-953 52.6519,-962.5236 69.15,-971.9562 89.5216,-980.6159"/>
<polygon fill="#ffffff" stroke="#ffffff" stroke-width="2" points="88.2196,-983.8648 98.8006,-984.4074 90.8674,-977.3849 88.2196,-983.8648"/>
<text text-anchor="middle" x="141.5" y="-941.8" font-family="Times,serif" font-size="14.00" fill="#ffffff">10000 row(s)/1 chunk(s)/1.610MB</text>
</g>
<!-- 94379002100224 -->
<g id="node7" class="node">
<title>94379002100224</title>
<polygon fill="none" stroke="#ffffff" points="295,-903.5 223,-903.5 223,-867.5 295,-867.5 295,-903.5"/>
<text text-anchor="middle" x="259" y="-881.8" font-family="Times,serif" font-size="14.00" fill="#ffffff">Projection</text>
</g>
<!-- 94379002100224&#45;&gt;94379036244704 -->
<g id="edge6" class="edge">
<title>94379002100224&#45;&gt;94379036244704</title>
<path fill="none" stroke="#ffffff" stroke-dasharray="5,2" d="M254.01,-903.7067C249.9402,-918.5561 243.9523,-940.4037 238.2532,-961.1978"/>
<polygon fill="#ffffff" stroke="#ffffff" points="234.8438,-960.3967 235.5759,-970.9662 241.5948,-962.247 234.8438,-960.3967"/>
<text text-anchor="middle" x="304.5" y="-941.8" font-family="Times,serif" font-size="14.00" fill="#ffffff">uncorrelated subquery</text>
</g>
<!-- 94378009167680 -->
<g id="node8" class="node">
<title>94378009167680</title>
<polygon fill="none" stroke="#ffffff" points="346,-814 172,-814 172,-746 346,-746 346,-814"/>
<text text-anchor="middle" x="259" y="-798.8" font-family="Times,serif" font-size="14.00" fill="#ffffff">TableScan</text>
<text text-anchor="middle" x="259" y="-783.8" font-family="Times,serif" font-size="14.00" fill="#ffffff">Impl: Unset</text>
<text text-anchor="middle" x="259" y="-768.8" font-family="Times,serif" font-size="14.00" fill="#ffffff">ps_availqty &gt; SUBSELECT </text>
<text text-anchor="middle" x="259" y="-753.8" font-family="Times,serif" font-size="14.00" fill="#ffffff">(PQP, 0x55d617cc2f70) </text>
</g>
<!-- 94378009167680&#45;&gt;94379002100224 -->
<g id="edge7" class="edge">
<title>94378009167680&#45;&gt;94379002100224</title>
<path fill="none" stroke="#ffffff" d="M259,-814.2528C259,-828.0724 259,-843.8312 259,-857.0083"/>
<polygon fill="#ffffff" stroke="#ffffff" points="255.5001,-857.3704 259,-867.3705 262.5001,-857.3705 255.5001,-857.3704"/>
</g>
<!-- 94377838473472 -->
<g id="node9" class="node">
<title>94377838473472</title>
<polygon fill="none" stroke="#ffffff" points="251,-695 179,-695 179,-659 251,-659 251,-695"/>
<text text-anchor="middle" x="215" y="-673.3" font-family="Times,serif" font-size="14.00" fill="#ffffff">Projection</text>
</g>
<!-- 94377838473472&#45;&gt;94378009167680 -->
<g id="edge8" class="edge">
<title>94377838473472&#45;&gt;94378009167680</title>
<path fill="none" stroke="#ffffff" d="M222.8663,-695.4143C227.7734,-706.9013 234.3073,-722.1965 240.4688,-736.6201"/>
<polygon fill="#ffffff" stroke="#ffffff" points="237.2961,-738.1026 244.4432,-745.9237 243.7333,-735.3527 237.2961,-738.1026"/>
</g>
<!-- 94379016779328 -->
<g id="node10" class="node">
<title>94379016779328</title>
<polygon fill="none" stroke="#ffffff" points="186,-622 0,-622 0,-554 186,-554 186,-622"/>
<text text-anchor="middle" x="93" y="-606.8" font-family="Times,serif" font-size="14.00" fill="#ffffff">TableScan</text>
<text text-anchor="middle" x="93" y="-591.8" font-family="Times,serif" font-size="14.00" fill="#ffffff">Impl: Unset</text>
<text text-anchor="middle" x="93" y="-576.8" font-family="Times,serif" font-size="14.00" fill="#ffffff">(ps_partkey) IN SUBSELECT </text>
<text text-anchor="middle" x="93" y="-561.8" font-family="Times,serif" font-size="14.00" fill="#ffffff">(PQP, 0x55d65491b2f0) </text>
</g>
<!-- 94379016779328&#45;&gt;94377838473472 -->
<g id="edge9" class="edge">
<title>94379016779328&#45;&gt;94377838473472</title>
<path fill="none" stroke="#ffffff" d="M139.8195,-622.1552C153.9308,-632.4495 169.1139,-643.5257 182.1156,-653.0106"/>
<polygon fill="#ffffff" stroke="#ffffff" points="180.17,-655.9235 190.3115,-658.9895 184.2954,-650.2684 180.17,-655.9235"/>
</g>
<!-- 94379002097584 -->
<g id="node11" class="node">
<title>94379002097584</title>
<polygon fill="none" stroke="#ffffff" points="93,-503 21,-503 21,-465 93,-465 93,-503"/>
<text text-anchor="middle" x="57" y="-487.8" font-family="Times,serif" font-size="14.00" fill="#ffffff">GetTable</text>
<text text-anchor="middle" x="57" y="-472.8" font-family="Times,serif" font-size="14.00" fill="#ffffff">(partsupp)</text>
</g>
<!-- 94379002097584&#45;&gt;94379016779328 -->
<g id="edge10" class="edge">
<title>94379002097584&#45;&gt;94379016779328</title>
<path fill="none" stroke="#ffffff" d="M63.603,-503.0752C67.5942,-514.6054 72.8554,-529.8045 77.8225,-544.154"/>
<polygon fill="#ffffff" stroke="#ffffff" points="74.6165,-545.5921 81.1951,-553.897 81.2314,-543.3022 74.6165,-545.5921"/>
</g>
<!-- 94379030196976 -->
<g id="node12" class="node">
<title>94379030196976</title>
<polygon fill="none" stroke="#ffffff" points="183,-502 111,-502 111,-466 183,-466 183,-502"/>
<text text-anchor="middle" x="147" y="-480.3" font-family="Times,serif" font-size="14.00" fill="#ffffff">Projection</text>
</g>
<!-- 94379030196976&#45;&gt;94379016779328 -->
<g id="edge11" class="edge">
<title>94379030196976&#45;&gt;94379016779328</title>
<path fill="none" stroke="#ffffff" stroke-dasharray="5,2" d="M137.5939,-502.1154C131.4881,-513.8748 123.2561,-529.729 115.5271,-544.6145"/>
<polygon fill="#ffffff" stroke="#ffffff" points="112.3052,-543.2245 110.8032,-553.7124 118.5176,-546.4503 112.3052,-543.2245"/>
<text text-anchor="middle" x="187.5" y="-524.8" font-family="Times,serif" font-size="14.00" fill="#ffffff">uncorrelated subquery</text>
</g>
<!-- 94378010619600 -->
<g id="node13" class="node">
<title>94378010619600</title>
<polygon fill="none" stroke="#ffffff" points="183,-419.5 111,-419.5 111,-383.5 183,-383.5 183,-419.5"/>
<text text-anchor="middle" x="147" y="-397.8" font-family="Times,serif" font-size="14.00" fill="#ffffff">Projection</text>
</g>
<!-- 94378010619600&#45;&gt;94379030196976 -->
<g id="edge12" class="edge">
<title>94378010619600&#45;&gt;94379030196976</title>
<path fill="none" stroke="#ffffff" d="M147,-419.8094C147,-430.2768 147,-443.6338 147,-455.4502"/>
<polygon fill="#ffffff" stroke="#ffffff" points="143.5001,-455.7417 147,-465.7418 150.5001,-455.7418 143.5001,-455.7417"/>
</g>
<!-- 94378006155472 -->
<g id="node14" class="node">
<title>94378006155472</title>
<polygon fill="none" stroke="#ffffff" points="220,-338 74,-338 74,-285 220,-285 220,-338"/>
<text text-anchor="middle" x="147" y="-322.8" font-family="Times,serif" font-size="14.00" fill="#ffffff">TableScan</text>
<text text-anchor="middle" x="147" y="-307.8" font-family="Times,serif" font-size="14.00" fill="#ffffff">Impl: Unset</text>
<text text-anchor="middle" x="147" y="-292.8" font-family="Times,serif" font-size="14.00" fill="#ffffff">p_name LIKE &#39;forest%&#39;</text>
</g>
<!-- 94378006155472&#45;&gt;94378010619600 -->
<g id="edge13" class="edge">
<title>94378006155472&#45;&gt;94378010619600</title>
<path fill="none" stroke="#ffffff" d="M147,-338.0162C147,-349.0969 147,-361.9875 147,-373.2466"/>
<polygon fill="#ffffff" stroke="#ffffff" points="143.5001,-373.4292 147,-383.4292 150.5001,-373.4292 143.5001,-373.4292"/>
</g>
<!-- 94378010611888 -->
<g id="node15" class="node">
<title>94378010611888</title>
<polygon fill="none" stroke="#ffffff" points="180.5,-233 113.5,-233 113.5,-195 180.5,-195 180.5,-233"/>
<text text-anchor="middle" x="147" y="-217.8" font-family="Times,serif" font-size="14.00" fill="#ffffff">GetTable</text>
<text text-anchor="middle" x="147" y="-202.8" font-family="Times,serif" font-size="14.00" fill="#ffffff">(part)</text>
</g>
<!-- 94378010611888&#45;&gt;94378006155472 -->
<g id="edge14" class="edge">
<title>94378010611888&#45;&gt;94378006155472</title>
<path fill="none" stroke="#ffffff" d="M147,-233.2629C147,-245.0265 147,-260.4594 147,-274.5072"/>
<polygon fill="#ffffff" stroke="#ffffff" points="143.5001,-274.8959 147,-284.8959 150.5001,-274.896 143.5001,-274.8959"/>
</g>
<!-- 94378010619760 -->
<g id="node16" class="node">
<title>94378010619760</title>
<polygon fill="none" stroke="#ffffff" points="361,-695 289,-695 289,-659 361,-659 361,-695"/>
<text text-anchor="middle" x="325" y="-673.3" font-family="Times,serif" font-size="14.00" fill="#ffffff">Projection</text>
</g>
<!-- 94378010619760&#45;&gt;94378009167680 -->
<g id="edge15" class="edge">
<title>94378010619760&#45;&gt;94378009167680</title>
<path fill="none" stroke="#ffffff" stroke-dasharray="5,2" d="M313.2005,-695.4143C305.6998,-707.1201 295.6649,-722.7806 286.2693,-737.4433"/>
<polygon fill="#ffffff" stroke="#ffffff" points="283.2836,-735.6157 280.8353,-745.9237 289.1774,-739.3923 283.2836,-735.6157"/>
<text text-anchor="middle" x="356" y="-716.8" font-family="Times,serif" font-size="14.00" fill="#ffffff">correlated subquery</text>
</g>
<!-- 94378981270320 -->
<g id="node17" class="node">
<title>94378981270320</title>
<polygon fill="none" stroke="#ffffff" points="488,-607 204,-607 204,-569 488,-569 488,-607"/>
<text text-anchor="middle" x="346" y="-591.8" font-family="Times,serif" font-size="14.00" fill="#ffffff">[Aggregate] GroupBy ColumnIDs: &#160;Aggregates: </text>
<text text-anchor="middle" x="346" y="-576.8" font-family="Times,serif" font-size="14.00" fill="#ffffff">SUM(Column #2) </text>
</g>
<!-- 94378981270320&#45;&gt;94378010619760 -->
<g id="edge16" class="edge">
<title>94378981270320&#45;&gt;94378010619760</title>
<path fill="none" stroke="#ffffff" d="M341.4433,-607.3117C338.5595,-619.5336 334.7838,-635.5352 331.5779,-649.1223"/>
<polygon fill="#ffffff" stroke="#ffffff" points="328.1516,-648.4027 329.2615,-658.9393 334.9645,-650.0103 328.1516,-648.4027"/>
</g>
<!-- 94379030196816 -->
<g id="node18" class="node">
<title>94379030196816</title>
<polygon fill="none" stroke="#ffffff" points="382,-502 310,-502 310,-466 382,-466 382,-502"/>
<text text-anchor="middle" x="346" y="-480.3" font-family="Times,serif" font-size="14.00" fill="#ffffff">Projection</text>
</g>
<!-- 94379030196816&#45;&gt;94378981270320 -->
<g id="edge17" class="edge">
<title>94379030196816&#45;&gt;94378981270320</title>
<path fill="none" stroke="#ffffff" d="M346,-502.1154C346,-517.683 346,-540.4272 346,-558.5996"/>
<polygon fill="#ffffff" stroke="#ffffff" points="342.5001,-558.6821 346,-568.6821 349.5001,-558.6822 342.5001,-558.6821"/>
</g>
<!-- 94379035701920 -->
<g id="node19" class="node">
<title>94379035701920</title>
<polygon fill="none" stroke="#ffffff" points="423.5,-428 268.5,-428 268.5,-375 423.5,-375 423.5,-428"/>
<text text-anchor="middle" x="346" y="-412.8" font-family="Times,serif" font-size="14.00" fill="#ffffff">TableScan</text>
<text text-anchor="middle" x="346" y="-397.8" font-family="Times,serif" font-size="14.00" fill="#ffffff">Impl: Unset</text>
<text text-anchor="middle" x="346" y="-382.8" font-family="Times,serif" font-size="14.00" fill="#ffffff">l_shipdate &lt; &#39;1995&#45;01&#45;01&#39;</text>
</g>
<!-- 94379035701920&#45;&gt;94379030196816 -->
<g id="edge18" class="edge">
<title>94379035701920&#45;&gt;94379030196816</title>
<path fill="none" stroke="#ffffff" d="M346,-428.0576C346,-436.928 346,-446.8409 346,-455.8296"/>
<polygon fill="#ffffff" stroke="#ffffff" points="342.5001,-455.8392 346,-465.8392 349.5001,-455.8392 342.5001,-455.8392"/>
</g>
<!-- 94379016785056 -->
<g id="node20" class="node">
<title>94379016785056</title>
<polygon fill="none" stroke="#ffffff" points="428,-338 264,-338 264,-285 428,-285 428,-338"/>
<text text-anchor="middle" x="346" y="-322.8" font-family="Times,serif" font-size="14.00" fill="#ffffff">TableScan</text>
<text text-anchor="middle" x="346" y="-307.8" font-family="Times,serif" font-size="14.00" fill="#ffffff">Impl: Unset</text>
<text text-anchor="middle" x="346" y="-292.8" font-family="Times,serif" font-size="14.00" fill="#ffffff">l_shipdate &gt;= &#39;1994&#45;01&#45;01&#39;</text>
</g>
<!-- 94379016785056&#45;&gt;94379035701920 -->
<g id="edge19" class="edge">
<title>94379016785056&#45;&gt;94379035701920</title>
<path fill="none" stroke="#ffffff" d="M346,-338.0162C346,-346.3642 346,-355.7395 346,-364.6704"/>
<polygon fill="#ffffff" stroke="#ffffff" points="342.5001,-364.8623 346,-374.8623 349.5001,-364.8624 342.5001,-364.8623"/>
</g>
<!-- 94379016784448 -->
<g id="node21" class="node">
<title>94379016784448</title>
<polygon fill="none" stroke="#ffffff" points="454,-248 238,-248 238,-180 454,-180 454,-248"/>
<text text-anchor="middle" x="346" y="-232.8" font-family="Times,serif" font-size="14.00" fill="#ffffff">TableScan</text>
<text text-anchor="middle" x="346" y="-217.8" font-family="Times,serif" font-size="14.00" fill="#ffffff">Impl: Unset</text>
<text text-anchor="middle" x="346" y="-202.8" font-family="Times,serif" font-size="14.00" fill="#ffffff">l_suppkey = </text>
<text text-anchor="middle" x="346" y="-187.8" font-family="Times,serif" font-size="14.00" fill="#ffffff">Parameter[name=ps_suppkey;id=1] </text>
</g>
<!-- 94379016784448&#45;&gt;94379016785056 -->
<g id="edge20" class="edge">
<title>94379016784448&#45;&gt;94379016785056</title>
<path fill="none" stroke="#ffffff" d="M346,-248.1008C346,-256.6897 346,-265.9475 346,-274.6639"/>
<polygon fill="#ffffff" stroke="#ffffff" points="342.5001,-274.9462 346,-284.9463 349.5001,-274.9463 342.5001,-274.9462"/>
</g>
<!-- 94378999065072 -->
<g id="node22" class="node">
<title>94378999065072</title>
<polygon fill="none" stroke="#ffffff" points="452,-143 240,-143 240,-75 452,-75 452,-143"/>
<text text-anchor="middle" x="346" y="-127.8" font-family="Times,serif" font-size="14.00" fill="#ffffff">TableScan</text>
<text text-anchor="middle" x="346" y="-112.8" font-family="Times,serif" font-size="14.00" fill="#ffffff">Impl: Unset</text>
<text text-anchor="middle" x="346" y="-97.8" font-family="Times,serif" font-size="14.00" fill="#ffffff">l_partkey = </text>
<text text-anchor="middle" x="346" y="-82.8" font-family="Times,serif" font-size="14.00" fill="#ffffff">Parameter[name=ps_partkey;id=0] </text>
</g>
<!-- 94378999065072&#45;&gt;94379016784448 -->
<g id="edge21" class="edge">
<title>94378999065072&#45;&gt;94379016784448</title>
<path fill="none" stroke="#ffffff" d="M346,-143.0905C346,-151.5263 346,-160.6882 346,-169.538"/>
<polygon fill="#ffffff" stroke="#ffffff" points="342.5001,-169.7212 346,-179.7212 349.5001,-169.7213 342.5001,-169.7212"/>
</g>
<!-- 94379047249392 -->
<g id="node23" class="node">
<title>94379047249392</title>
<polygon fill="none" stroke="#ffffff" points="381.5,-38 310.5,-38 310.5,0 381.5,0 381.5,-38"/>
<text text-anchor="middle" x="346" y="-22.8" font-family="Times,serif" font-size="14.00" fill="#ffffff">GetTable</text>
<text text-anchor="middle" x="346" y="-7.8" font-family="Times,serif" font-size="14.00" fill="#ffffff">(lineitem)</text>
</g>
<!-- 94379047249392&#45;&gt;94378999065072 -->
<g id="edge22" class="edge">
<title>94379047249392&#45;&gt;94378999065072</title>
<path fill="none" stroke="#ffffff" d="M346,-38.0867C346,-45.8926 346,-55.2767 346,-64.6248"/>
<polygon fill="#ffffff" stroke="#ffffff" points="342.5001,-64.6779 346,-74.678 349.5001,-64.678 342.5001,-64.6779"/>
</g>
<!-- 94378009170768 -->
<g id="node24" class="node">
<title>94378009170768</title>
<polygon fill="none" stroke="#ffffff" points="476,-1175 404,-1175 404,-1121 476,-1121 476,-1175"/>
<text text-anchor="middle" x="440" y="-1159.8" font-family="Times,serif" font-size="14.00" fill="#ffffff">Projection</text>
<text text-anchor="middle" x="440" y="-1128.8" font-family="Times,serif" font-size="14.00" fill="#ffffff">1 µs 0 ns</text>
</g>
<!-- 94378009170768&#45;&gt;94379035702864 -->
<g id="edge23" class="edge">
<title>94378009170768&#45;&gt;94379035702864</title>
<path fill="none" stroke="#ffffff" d="M433.8961,-1175.1748C430.4953,-1186.1444 425.4074,-1198.4408 418,-1208 415.064,-1211.7889 411.8211,-1215.4294 408.3647,-1218.9123"/>
<polygon fill="#ffffff" stroke="#ffffff" points="405.8877,-1216.437 400.9997,-1225.837 410.6827,-1221.5369 405.8877,-1216.437"/>
<text text-anchor="middle" x="497.5" y="-1196.8" font-family="Times,serif" font-size="14.00" fill="#ffffff">1 row(s)/1 chunk(s)/385B</text>
</g>
<!-- 94378997556240 -->
<g id="node25" class="node">
<title>94378997556240</title>
<polygon fill="none" stroke="#ffffff" points="511.5,-1070 368.5,-1070 368.5,-971 511.5,-971 511.5,-1070"/>
<text text-anchor="middle" x="440" y="-1054.8" font-family="Times,serif" font-size="14.00" fill="#ffffff">TableScan</text>
<text text-anchor="middle" x="440" y="-1039.8" font-family="Times,serif" font-size="14.00" fill="#ffffff">Impl: LiteralTableScan</text>
<text text-anchor="middle" x="440" y="-1024.8" font-family="Times,serif" font-size="14.00" fill="#ffffff">n_name = </text>
<text text-anchor="middle" x="440" y="-1009.8" font-family="Times,serif" font-size="14.00" fill="#ffffff">&#39;CANADA&#39;</text>
<text text-anchor="middle" x="440" y="-978.8" font-family="Times,serif" font-size="14.00" fill="#ffffff">7 µs 0 ns </text>
</g>
<!-- 94378997556240&#45;&gt;94378009170768 -->
<g id="edge24" class="edge">
<title>94378997556240&#45;&gt;94378009170768</title>
<path fill="none" stroke="#ffffff" d="M440,-1070.1599C440,-1083.598 440,-1097.9153 440,-1110.5584"/>
<polygon fill="#ffffff" stroke="#ffffff" points="436.5001,-1110.7287 440,-1120.7287 443.5001,-1110.7288 436.5001,-1110.7287"/>
<text text-anchor="middle" x="510.5" y="-1091.8" font-family="Times,serif" font-size="14.00" fill="#ffffff">1 row(s)/1 chunk(s)/533B</text>
</g>
<!-- 94378976130352 -->
<g id="node26" class="node">
<title>94378976130352</title>
<polygon fill="none" stroke="#ffffff" points="473.5,-920 406.5,-920 406.5,-851 473.5,-851 473.5,-920"/>
<text text-anchor="middle" x="440" y="-904.8" font-family="Times,serif" font-size="14.00" fill="#ffffff">GetTable</text>
<text text-anchor="middle" x="440" y="-889.8" font-family="Times,serif" font-size="14.00" fill="#ffffff">(nation)</text>
<text text-anchor="middle" x="440" y="-858.8" font-family="Times,serif" font-size="14.00" fill="#ffffff">1 µs 0 ns</text>
</g>
<!-- 94378976130352&#45;&gt;94378997556240 -->
<g id="edge25" class="edge">
<title>94378976130352&#45;&gt;94378997556240</title>
<path fill="none" stroke="#ffffff" d="M440,-920.2659C440,-932.5301 440,-946.6967 440,-960.446"/>
<polygon fill="#ffffff" stroke="#ffffff" points="436.5001,-960.8405 440,-970.8405 443.5001,-960.8406 436.5001,-960.8405"/>
<text text-anchor="middle" x="524" y="-941.8" font-family="Times,serif" font-size="14.00" fill="#ffffff">25 row(s)/1 chunk(s)/2.869KB</text>
</g>
</g>
</svg>
