<?xml version="1.0" encoding="UTF-8" standalone="no"?>
<!DOCTYPE svg PUBLIC "-//W3C//DTD SVG 1.1//EN"
 "http://www.w3.org/Graphics/SVG/1.1/DTD/svg11.dtd">
<!-- Generated by graphviz version 2.40.1 (20161225.0304)
 -->
<!-- Title: G Pages: 1 -->
<svg width="776pt" height="1528pt"
 viewBox="0.00 0.00 775.50 1528.00" xmlns="http://www.w3.org/2000/svg" xmlns:xlink="http://www.w3.org/1999/xlink">
<g id="graph0" class="graph" transform="scale(1 1) rotate(0) translate(4 1524)">
<title>G</title>
<polygon fill="#000000" stroke="transparent" points="-4,4 -4,-1524 771.5,-1524 771.5,4 -4,4"/>
<!-- 94573717734336 -->
<g id="node1" class="node">
<title>94573717734336</title>
<polygon fill="none" stroke="#ffffff" points="461.5,-1520 371.5,-1520 371.5,-1466 461.5,-1466 461.5,-1520"/>
<text text-anchor="middle" x="416.5" y="-1504.8" font-family="Times,serif" font-size="14.00" fill="#ffffff">Projection</text>
<text text-anchor="middle" x="416.5" y="-1473.8" font-family="Times,serif" font-size="14.00" fill="#ffffff">3 µs 0 ns</text>
</g>
<!-- 94573709356752 -->
<g id="node2" class="node">
<title>94573709356752</title>
<polygon fill="none" stroke="#ffffff" stroke-width="2" points="466,-1415 367,-1415 367,-1361 466,-1361 466,-1415"/>
<text text-anchor="middle" x="416.5" y="-1399.8" font-family="Times,serif" font-size="14.00" fill="#ffffff">Sort</text>
<text text-anchor="middle" x="416.5" y="-1368.8" font-family="Times,serif" font-size="14.00" fill="#ffffff">650 µs 0 ns</text>
</g>
<!-- 94573709356752&#45;&gt;94573717734336 -->
<g id="edge1" class="edge">
<title>94573709356752&#45;&gt;94573717734336</title>
<path fill="none" stroke="#ffffff" stroke-width="2" d="M416.5,-1415.0401C416.5,-1427.3143 416.5,-1442.0382 416.5,-1455.3683"/>
<polygon fill="#ffffff" stroke="#ffffff" stroke-width="2" points="413.0001,-1455.6866 416.5,-1465.6866 420.0001,-1455.6866 413.0001,-1455.6866"/>
<text text-anchor="middle" x="532.5" y="-1436.8" font-family="Times,serif" font-size="14.00" fill="#ffffff">186 row(s)/1 chunk(s)/22.504KB</text>
</g>
<!-- 94574499175856 -->
<g id="node3" class="node">
<title>94574499175856</title>
<polygon fill="none" stroke="#ffffff" stroke-width="2" points="543,-1310 290,-1310 290,-1226 543,-1226 543,-1310"/>
<text text-anchor="middle" x="416.5" y="-1294.8" font-family="Times,serif" font-size="14.00" fill="#ffffff">JoinHash</text>
<text text-anchor="middle" x="416.5" y="-1279.8" font-family="Times,serif" font-size="14.00" fill="#ffffff">(Inner Join where s_nationkey = </text>
<text text-anchor="middle" x="416.5" y="-1264.8" font-family="Times,serif" font-size="14.00" fill="#ffffff">n_nationkey)</text>
<text text-anchor="middle" x="416.5" y="-1233.8" font-family="Times,serif" font-size="14.00" fill="#ffffff">113 µs 0 ns </text>
</g>
<!-- 94574499175856&#45;&gt;94573709356752 -->
<g id="edge2" class="edge">
<title>94574499175856&#45;&gt;94573709356752</title>
<path fill="none" stroke="#ffffff" stroke-width="2" d="M416.5,-1310.3075C416.5,-1323.3814 416.5,-1337.686 416.5,-1350.4178"/>
<polygon fill="#ffffff" stroke="#ffffff" stroke-width="2" points="413.0001,-1350.681 416.5,-1360.681 420.0001,-1350.6811 413.0001,-1350.681"/>
<text text-anchor="middle" x="528" y="-1331.8" font-family="Times,serif" font-size="14.00" fill="#ffffff">186 row(s)/1 chunk(s)/9.556KB</text>
</g>
<!-- 94574839948144 -->
<g id="node4" class="node">
<title>94574839948144</title>
<polygon fill="none" stroke="#ffffff" points="325.5,-1175 235.5,-1175 235.5,-1121 325.5,-1121 325.5,-1175"/>
<text text-anchor="middle" x="280.5" y="-1159.8" font-family="Times,serif" font-size="14.00" fill="#ffffff">Projection</text>
<text text-anchor="middle" x="280.5" y="-1128.8" font-family="Times,serif" font-size="14.00" fill="#ffffff">4 µs 0 ns</text>
</g>
<!-- 94574839948144&#45;&gt;94574499175856 -->
<g id="edge3" class="edge">
<title>94574839948144&#45;&gt;94574499175856</title>
<path fill="none" stroke="#ffffff" stroke-width="2" d="M274.9113,-1175.2633C274.1214,-1186.2471 275.233,-1198.5302 281.5,-1208 284.0368,-1211.8332 286.88,-1215.4238 289.9744,-1218.7869"/>
<polygon fill="#ffffff" stroke="#ffffff" stroke-width="2" points="287.5344,-1221.2963 297.1281,-1225.7919 292.4319,-1216.2948 287.5344,-1221.2963"/>
<text text-anchor="middle" x="406.5" y="-1196.8" font-family="Times,serif" font-size="14.00" fill="#ffffff">4397 row(s)/1 chunk(s)/141.203KB</text>
</g>
<!-- 94573922839088 -->
<g id="node5" class="node">
<title>94573922839088</title>
<polygon fill="none" stroke="#ffffff" stroke-width="4" points="436,-1070 125,-1070 125,-971 436,-971 436,-1070"/>
<text text-anchor="middle" x="280.5" y="-1054.8" font-family="Times,serif" font-size="14.00" fill="#ffffff">TableScan</text>
<text text-anchor="middle" x="280.5" y="-1039.8" font-family="Times,serif" font-size="14.00" fill="#ffffff">Impl: ExpressionEvaluator</text>
<text text-anchor="middle" x="280.5" y="-1024.8" font-family="Times,serif" font-size="14.00" fill="#ffffff">(s_suppkey) </text>
<text text-anchor="middle" x="280.5" y="-1009.8" font-family="Times,serif" font-size="14.00" fill="#ffffff">IN SUBSELECT (PQP, 0x5603ebbd62d0)</text>
<text text-anchor="middle" x="280.5" y="-978.8" font-family="Times,serif" font-size="14.00" fill="#ffffff">19 s 576 ms </text>
</g>
<!-- 94573922839088&#45;&gt;94574839948144 -->
<g id="edge4" class="edge">
<title>94573922839088&#45;&gt;94574839948144</title>
<path fill="none" stroke="#ffffff" stroke-width="2" d="M280.5,-1070.1599C280.5,-1083.598 280.5,-1097.9153 280.5,-1110.5584"/>
<polygon fill="#ffffff" stroke="#ffffff" stroke-width="2" points="277.0001,-1110.7287 280.5,-1120.7287 284.0001,-1110.7288 277.0001,-1110.7287"/>
<text text-anchor="middle" x="405.5" y="-1091.8" font-family="Times,serif" font-size="14.00" fill="#ffffff">4397 row(s)/1 chunk(s)/246.924KB</text>
</g>
<!-- 94574245859952 -->
<g id="node6" class="node">
<title>94574245859952</title>
<polygon fill="none" stroke="#ffffff" points="98.5,-920 12.5,-920 12.5,-851 98.5,-851 98.5,-920"/>
<text text-anchor="middle" x="55.5" y="-904.8" font-family="Times,serif" font-size="14.00" fill="#ffffff">GetTable</text>
<text text-anchor="middle" x="55.5" y="-889.8" font-family="Times,serif" font-size="14.00" fill="#ffffff">(supplier)</text>
<text text-anchor="middle" x="55.5" y="-858.8" font-family="Times,serif" font-size="14.00" fill="#ffffff">0 ns</text>
</g>
<!-- 94574245859952&#45;&gt;94573922839088 -->
<g id="edge5" class="edge">
<title>94574245859952&#45;&gt;94573922839088</title>
<path fill="none" stroke="#ffffff" stroke-width="2" d="M46.3357,-920.0259C45.2872,-931.4939 46.5603,-943.6965 53.5,-953 62.7762,-965.436 86.311,-976.4059 114.8914,-985.6934"/>
<polygon fill="#ffffff" stroke="#ffffff" stroke-width="2" points="114.1753,-989.1365 124.764,-988.7783 116.263,-982.455 114.1753,-989.1365"/>
<text text-anchor="middle" x="176" y="-941.8" font-family="Times,serif" font-size="14.00" fill="#ffffff">10000 row(s)/1 chunk(s)/1.610MB</text>
</g>
<!-- 94574839947984 -->
<g id="node7" class="node">
<title>94574839947984</title>
<polygon fill="none" stroke="#ffffff" points="368.5,-903.5 278.5,-903.5 278.5,-867.5 368.5,-867.5 368.5,-903.5"/>
<text text-anchor="middle" x="323.5" y="-881.8" font-family="Times,serif" font-size="14.00" fill="#ffffff">Projection</text>
</g>
<!-- 94574839947984&#45;&gt;94573922839088 -->
<g id="edge6" class="edge">
<title>94574839947984&#45;&gt;94573922839088</title>
<path fill="none" stroke="#ffffff" stroke-dasharray="5,2" d="M317.7008,-903.7067C312.971,-918.5561 306.0122,-940.4037 299.3888,-961.1978"/>
<polygon fill="#ffffff" stroke="#ffffff" points="295.9775,-960.3756 296.2774,-970.9662 302.6474,-962.5001 295.9775,-960.3756"/>
<text text-anchor="middle" x="388.5" y="-941.8" font-family="Times,serif" font-size="14.00" fill="#ffffff">uncorrelated subquery</text>
</g>
<!-- 94574241324976 -->
<g id="node8" class="node">
<title>94574241324976</title>
<polygon fill="none" stroke="#ffffff" points="432,-814 215,-814 215,-746 432,-746 432,-814"/>
<text text-anchor="middle" x="323.5" y="-798.8" font-family="Times,serif" font-size="14.00" fill="#ffffff">TableScan</text>
<text text-anchor="middle" x="323.5" y="-783.8" font-family="Times,serif" font-size="14.00" fill="#ffffff">Impl: Unset</text>
<text text-anchor="middle" x="323.5" y="-768.8" font-family="Times,serif" font-size="14.00" fill="#ffffff">ps_availqty &gt; SUBSELECT </text>
<text text-anchor="middle" x="323.5" y="-753.8" font-family="Times,serif" font-size="14.00" fill="#ffffff">(PQP, 0x5603e9e6eef0) </text>
</g>
<!-- 94574241324976&#45;&gt;94574839947984 -->
<g id="edge7" class="edge">
<title>94574241324976&#45;&gt;94574839947984</title>
<path fill="none" stroke="#ffffff" d="M323.5,-814.2528C323.5,-828.0724 323.5,-843.8312 323.5,-857.0083"/>
<polygon fill="#ffffff" stroke="#ffffff" points="320.0001,-857.3704 323.5,-867.3705 327.0001,-857.3705 320.0001,-857.3704"/>
</g>
<!-- 94573840585184 -->
<g id="node9" class="node">
<title>94573840585184</title>
<polygon fill="none" stroke="#ffffff" points="315.5,-695 225.5,-695 225.5,-659 315.5,-659 315.5,-695"/>
<text text-anchor="middle" x="270.5" y="-673.3" font-family="Times,serif" font-size="14.00" fill="#ffffff">Projection</text>
</g>
<!-- 94573840585184&#45;&gt;94574241324976 -->
<g id="edge8" class="edge">
<title>94573840585184&#45;&gt;94574241324976</title>
<path fill="none" stroke="#ffffff" d="M279.9753,-695.4143C285.8861,-706.9013 293.7565,-722.1965 301.1783,-736.6201"/>
<polygon fill="#ffffff" stroke="#ffffff" points="298.278,-738.6333 305.9656,-745.9237 304.5023,-735.4304 298.278,-738.6333"/>
</g>
<!-- 94574839946416 -->
<g id="node10" class="node">
<title>94574839946416</title>
<polygon fill="none" stroke="#ffffff" points="233,-622 0,-622 0,-554 233,-554 233,-622"/>
<text text-anchor="middle" x="116.5" y="-606.8" font-family="Times,serif" font-size="14.00" fill="#ffffff">TableScan</text>
<text text-anchor="middle" x="116.5" y="-591.8" font-family="Times,serif" font-size="14.00" fill="#ffffff">Impl: Unset</text>
<text text-anchor="middle" x="116.5" y="-576.8" font-family="Times,serif" font-size="14.00" fill="#ffffff">(ps_partkey) IN SUBSELECT </text>
<text text-anchor="middle" x="116.5" y="-561.8" font-family="Times,serif" font-size="14.00" fill="#ffffff">(PQP, 0x5603c854cd20) </text>
</g>
<!-- 94574839946416&#45;&gt;94573840585184 -->
<g id="edge9" class="edge">
<title>94574839946416&#45;&gt;94573840585184</title>
<path fill="none" stroke="#ffffff" d="M175.6,-622.1552C193.9215,-632.7436 213.6744,-644.1592 230.3901,-653.8196"/>
<polygon fill="#ffffff" stroke="#ffffff" points="228.9264,-657.0161 239.3358,-658.9895 232.429,-650.9554 228.9264,-657.0161"/>
</g>
<!-- 94574245863808 -->
<g id="node11" class="node">
<title>94574245863808</title>
<polygon fill="none" stroke="#ffffff" points="122.5,-503 30.5,-503 30.5,-465 122.5,-465 122.5,-503"/>
<text text-anchor="middle" x="76.5" y="-487.8" font-family="Times,serif" font-size="14.00" fill="#ffffff">GetTable</text>
<text text-anchor="middle" x="76.5" y="-472.8" font-family="Times,serif" font-size="14.00" fill="#ffffff">(partsupp)</text>
</g>
<!-- 94574245863808&#45;&gt;94574839946416 -->
<g id="edge10" class="edge">
<title>94574245863808&#45;&gt;94574839946416</title>
<path fill="none" stroke="#ffffff" d="M83.8366,-503.0752C88.2713,-514.6054 94.1171,-529.8045 99.6361,-544.154"/>
<polygon fill="#ffffff" stroke="#ffffff" points="96.5269,-545.82 103.3835,-553.897 103.0603,-543.3071 96.5269,-545.82"/>
</g>
<!-- 94574245891360 -->
<g id="node12" class="node">
<title>94574245891360</title>
<polygon fill="none" stroke="#ffffff" points="230.5,-502 140.5,-502 140.5,-466 230.5,-466 230.5,-502"/>
<text text-anchor="middle" x="185.5" y="-480.3" font-family="Times,serif" font-size="14.00" fill="#ffffff">Projection</text>
</g>
<!-- 94574245891360&#45;&gt;94574839946416 -->
<g id="edge11" class="edge">
<title>94574245891360&#45;&gt;94574839946416</title>
<path fill="none" stroke="#ffffff" stroke-dasharray="5,2" d="M173.4811,-502.1154C165.6056,-513.9857 154.9618,-530.0285 145.0053,-545.0355"/>
<polygon fill="#ffffff" stroke="#ffffff" points="141.8606,-543.4446 139.2485,-553.7124 147.6936,-547.3145 141.8606,-543.4446"/>
<text text-anchor="middle" x="241.5" y="-524.8" font-family="Times,serif" font-size="14.00" fill="#ffffff">uncorrelated subquery</text>
</g>
<!-- 94573775358848 -->
<g id="node13" class="node">
<title>94573775358848</title>
<polygon fill="none" stroke="#ffffff" points="230.5,-419.5 140.5,-419.5 140.5,-383.5 230.5,-383.5 230.5,-419.5"/>
<text text-anchor="middle" x="185.5" y="-397.8" font-family="Times,serif" font-size="14.00" fill="#ffffff">Projection</text>
</g>
<!-- 94573775358848&#45;&gt;94574245891360 -->
<g id="edge12" class="edge">
<title>94573775358848&#45;&gt;94574245891360</title>
<path fill="none" stroke="#ffffff" d="M185.5,-419.8094C185.5,-430.2768 185.5,-443.6338 185.5,-455.4502"/>
<polygon fill="#ffffff" stroke="#ffffff" points="182.0001,-455.7417 185.5,-465.7418 189.0001,-455.7418 182.0001,-455.7417"/>
</g>
<!-- 94574494511888 -->
<g id="node14" class="node">
<title>94574494511888</title>
<polygon fill="none" stroke="#ffffff" points="276,-338 95,-338 95,-285 276,-285 276,-338"/>
<text text-anchor="middle" x="185.5" y="-322.8" font-family="Times,serif" font-size="14.00" fill="#ffffff">TableScan</text>
<text text-anchor="middle" x="185.5" y="-307.8" font-family="Times,serif" font-size="14.00" fill="#ffffff">Impl: Unset</text>
<text text-anchor="middle" x="185.5" y="-292.8" font-family="Times,serif" font-size="14.00" fill="#ffffff">p_name LIKE &#39;forest%&#39;</text>
</g>
<!-- 94574494511888&#45;&gt;94573775358848 -->
<g id="edge13" class="edge">
<title>94574494511888&#45;&gt;94573775358848</title>
<path fill="none" stroke="#ffffff" d="M185.5,-338.0162C185.5,-349.0969 185.5,-361.9875 185.5,-373.2466"/>
<polygon fill="#ffffff" stroke="#ffffff" points="182.0001,-373.4292 185.5,-383.4292 189.0001,-373.4292 182.0001,-373.4292"/>
</g>
<!-- 94573960602928 -->
<g id="node15" class="node">
<title>94573960602928</title>
<polygon fill="none" stroke="#ffffff" points="226,-233 145,-233 145,-195 226,-195 226,-233"/>
<text text-anchor="middle" x="185.5" y="-217.8" font-family="Times,serif" font-size="14.00" fill="#ffffff">GetTable</text>
<text text-anchor="middle" x="185.5" y="-202.8" font-family="Times,serif" font-size="14.00" fill="#ffffff">(part)</text>
</g>
<!-- 94573960602928&#45;&gt;94574494511888 -->
<g id="edge14" class="edge">
<title>94573960602928&#45;&gt;94574494511888</title>
<path fill="none" stroke="#ffffff" d="M185.5,-233.2629C185.5,-245.0265 185.5,-260.4594 185.5,-274.5072"/>
<polygon fill="#ffffff" stroke="#ffffff" points="182.0001,-274.8959 185.5,-284.8959 189.0001,-274.896 182.0001,-274.8959"/>
</g>
<!-- 94574809116400 -->
<g id="node16" class="node">
<title>94574809116400</title>
<polygon fill="none" stroke="#ffffff" points="449.5,-695 359.5,-695 359.5,-659 449.5,-659 449.5,-695"/>
<text text-anchor="middle" x="404.5" y="-673.3" font-family="Times,serif" font-size="14.00" fill="#ffffff">Projection</text>
</g>
<!-- 94574809116400&#45;&gt;94574241324976 -->
<g id="edge15" class="edge">
<title>94574809116400&#45;&gt;94574241324976</title>
<path fill="none" stroke="#ffffff" stroke-dasharray="5,2" d="M390.0188,-695.4143C380.7273,-707.2295 368.2673,-723.0736 356.6438,-737.8541"/>
<polygon fill="#ffffff" stroke="#ffffff" points="353.7283,-735.8996 350.2978,-745.9237 359.2307,-740.2268 353.7283,-735.8996"/>
<text text-anchor="middle" x="449.5" y="-716.8" font-family="Times,serif" font-size="14.00" fill="#ffffff">correlated subquery</text>
</g>
<!-- 94574205146224 -->
<g id="node17" class="node">
<title>94574205146224</title>
<polygon fill="none" stroke="#ffffff" points="610,-607 251,-607 251,-569 610,-569 610,-607"/>
<text text-anchor="middle" x="430.5" y="-591.8" font-family="Times,serif" font-size="14.00" fill="#ffffff">[Aggregate] GroupBy ColumnIDs: &#160;Aggregates: </text>
<text text-anchor="middle" x="430.5" y="-576.8" font-family="Times,serif" font-size="14.00" fill="#ffffff">SUM(Column #2) </text>
</g>
<!-- 94574205146224&#45;&gt;94574809116400 -->
<g id="edge16" class="edge">
<title>94574205146224&#45;&gt;94574809116400</title>
<path fill="none" stroke="#ffffff" d="M424.8584,-607.3117C421.2879,-619.5336 416.6133,-635.5352 412.644,-649.1223"/>
<polygon fill="#ffffff" stroke="#ffffff" points="409.2208,-648.359 409.7762,-658.9393 415.94,-650.3219 409.2208,-648.359"/>
</g>
<!-- 94574809120960 -->
<g id="node18" class="node">
<title>94574809120960</title>
<polygon fill="none" stroke="#ffffff" points="475.5,-502 385.5,-502 385.5,-466 475.5,-466 475.5,-502"/>
<text text-anchor="middle" x="430.5" y="-480.3" font-family="Times,serif" font-size="14.00" fill="#ffffff">Projection</text>
</g>
<!-- 94574809120960&#45;&gt;94574205146224 -->
<g id="edge17" class="edge">
<title>94574809120960&#45;&gt;94574205146224</title>
<path fill="none" stroke="#ffffff" d="M430.5,-502.1154C430.5,-517.683 430.5,-540.4272 430.5,-558.5996"/>
<polygon fill="#ffffff" stroke="#ffffff" points="427.0001,-558.6821 430.5,-568.6821 434.0001,-558.6822 427.0001,-558.6821"/>
</g>
<!-- 94574279753264 -->
<g id="node19" class="node">
<title>94574279753264</title>
<polygon fill="none" stroke="#ffffff" points="530.5,-428 330.5,-428 330.5,-375 530.5,-375 530.5,-428"/>
<text text-anchor="middle" x="430.5" y="-412.8" font-family="Times,serif" font-size="14.00" fill="#ffffff">TableScan</text>
<text text-anchor="middle" x="430.5" y="-397.8" font-family="Times,serif" font-size="14.00" fill="#ffffff">Impl: Unset</text>
<text text-anchor="middle" x="430.5" y="-382.8" font-family="Times,serif" font-size="14.00" fill="#ffffff">l_shipdate &lt; &#39;1995&#45;01&#45;01&#39;</text>
</g>
<!-- 94574279753264&#45;&gt;94574809120960 -->
<g id="edge18" class="edge">
<title>94574279753264&#45;&gt;94574809120960</title>
<path fill="none" stroke="#ffffff" d="M430.5,-428.0576C430.5,-436.928 430.5,-446.8409 430.5,-455.8296"/>
<polygon fill="#ffffff" stroke="#ffffff" points="427.0001,-455.8392 430.5,-465.8392 434.0001,-455.8392 427.0001,-455.8392"/>
</g>
<!-- 94574462886496 -->
<g id="node20" class="node">
<title>94574462886496</title>
<polygon fill="none" stroke="#ffffff" points="536.5,-338 324.5,-338 324.5,-285 536.5,-285 536.5,-338"/>
<text text-anchor="middle" x="430.5" y="-322.8" font-family="Times,serif" font-size="14.00" fill="#ffffff">TableScan</text>
<text text-anchor="middle" x="430.5" y="-307.8" font-family="Times,serif" font-size="14.00" fill="#ffffff">Impl: Unset</text>
<text text-anchor="middle" x="430.5" y="-292.8" font-family="Times,serif" font-size="14.00" fill="#ffffff">l_shipdate &gt;= &#39;1994&#45;01&#45;01&#39;</text>
</g>
<!-- 94574462886496&#45;&gt;94574279753264 -->
<g id="edge19" class="edge">
<title>94574462886496&#45;&gt;94574279753264</title>
<path fill="none" stroke="#ffffff" d="M430.5,-338.0162C430.5,-346.3642 430.5,-355.7395 430.5,-364.6704"/>
<polygon fill="#ffffff" stroke="#ffffff" points="427.0001,-364.8623 430.5,-374.8623 434.0001,-364.8624 427.0001,-364.8623"/>
</g>
<!-- 94574847243904 -->
<g id="node21" class="node">
<title>94574847243904</title>
<polygon fill="none" stroke="#ffffff" points="571,-248 290,-248 290,-180 571,-180 571,-248"/>
<text text-anchor="middle" x="430.5" y="-232.8" font-family="Times,serif" font-size="14.00" fill="#ffffff">TableScan</text>
<text text-anchor="middle" x="430.5" y="-217.8" font-family="Times,serif" font-size="14.00" fill="#ffffff">Impl: Unset</text>
<text text-anchor="middle" x="430.5" y="-202.8" font-family="Times,serif" font-size="14.00" fill="#ffffff">l_suppkey = </text>
<text text-anchor="middle" x="430.5" y="-187.8" font-family="Times,serif" font-size="14.00" fill="#ffffff">Parameter[name=ps_suppkey;id=1] </text>
</g>
<!-- 94574847243904&#45;&gt;94574462886496 -->
<g id="edge20" class="edge">
<title>94574847243904&#45;&gt;94574462886496</title>
<path fill="none" stroke="#ffffff" d="M430.5,-248.1008C430.5,-256.6897 430.5,-265.9475 430.5,-274.6639"/>
<polygon fill="#ffffff" stroke="#ffffff" points="427.0001,-274.9462 430.5,-284.9463 434.0001,-274.9463 427.0001,-274.9462"/>
</g>
<!-- 94574499182080 -->
<g id="node22" class="node">
<title>94574499182080</title>
<polygon fill="none" stroke="#ffffff" points="568.5,-143 292.5,-143 292.5,-75 568.5,-75 568.5,-143"/>
<text text-anchor="middle" x="430.5" y="-127.8" font-family="Times,serif" font-size="14.00" fill="#ffffff">TableScan</text>
<text text-anchor="middle" x="430.5" y="-112.8" font-family="Times,serif" font-size="14.00" fill="#ffffff">Impl: Unset</text>
<text text-anchor="middle" x="430.5" y="-97.8" font-family="Times,serif" font-size="14.00" fill="#ffffff">l_partkey = </text>
<text text-anchor="middle" x="430.5" y="-82.8" font-family="Times,serif" font-size="14.00" fill="#ffffff">Parameter[name=ps_partkey;id=0] </text>
</g>
<!-- 94574499182080&#45;&gt;94574847243904 -->
<g id="edge21" class="edge">
<title>94574499182080&#45;&gt;94574847243904</title>
<path fill="none" stroke="#ffffff" d="M430.5,-143.0905C430.5,-151.5263 430.5,-160.6882 430.5,-169.538"/>
<polygon fill="#ffffff" stroke="#ffffff" points="427.0001,-169.7212 430.5,-179.7212 434.0001,-169.7213 427.0001,-169.7212"/>
</g>
<!-- 94573960605632 -->
<g id="node23" class="node">
<title>94573960605632</title>
<polygon fill="none" stroke="#ffffff" points="473.5,-38 387.5,-38 387.5,0 473.5,0 473.5,-38"/>
<text text-anchor="middle" x="430.5" y="-22.8" font-family="Times,serif" font-size="14.00" fill="#ffffff">GetTable</text>
<text text-anchor="middle" x="430.5" y="-7.8" font-family="Times,serif" font-size="14.00" fill="#ffffff">(lineitem)</text>
</g>
<!-- 94573960605632&#45;&gt;94574499182080 -->
<g id="edge22" class="edge">
<title>94573960605632&#45;&gt;94574499182080</title>
<path fill="none" stroke="#ffffff" d="M430.5,-38.0867C430.5,-45.8926 430.5,-55.2767 430.5,-64.6248"/>
<polygon fill="#ffffff" stroke="#ffffff" points="427.0001,-64.6779 430.5,-74.678 434.0001,-64.678 427.0001,-64.6779"/>
</g>
<!-- 94574680621088 -->
<g id="node24" class="node">
<title>94574680621088</title>
<polygon fill="none" stroke="#ffffff" points="598.5,-1175 508.5,-1175 508.5,-1121 598.5,-1121 598.5,-1175"/>
<text text-anchor="middle" x="553.5" y="-1159.8" font-family="Times,serif" font-size="14.00" fill="#ffffff">Projection</text>
<text text-anchor="middle" x="553.5" y="-1128.8" font-family="Times,serif" font-size="14.00" fill="#ffffff">2 µs 0 ns</text>
</g>
<!-- 94574680621088&#45;&gt;94574499175856 -->
<g id="edge23" class="edge">
<title>94574680621088&#45;&gt;94574499175856</title>
<path fill="none" stroke="#ffffff" d="M548.1431,-1175.0357C544.8422,-1186.2377 539.6268,-1198.7468 531.5,-1208 527.8778,-1212.1243 523.9028,-1216.0071 519.675,-1219.6571"/>
<polygon fill="#ffffff" stroke="#ffffff" points="517.4141,-1216.9839 511.8136,-1225.9775 521.8002,-1222.4394 517.4141,-1216.9839"/>
<text text-anchor="middle" x="632" y="-1196.8" font-family="Times,serif" font-size="14.00" fill="#ffffff">1 row(s)/1 chunk(s)/385B</text>
</g>
<!-- 94574571392384 -->
<g id="node25" class="node">
<title>94574571392384</title>
<polygon fill="none" stroke="#ffffff" points="644,-1070 463,-1070 463,-971 644,-971 644,-1070"/>
<text text-anchor="middle" x="553.5" y="-1054.8" font-family="Times,serif" font-size="14.00" fill="#ffffff">TableScan</text>
<text text-anchor="middle" x="553.5" y="-1039.8" font-family="Times,serif" font-size="14.00" fill="#ffffff">Impl: LiteralTableScan</text>
<text text-anchor="middle" x="553.5" y="-1024.8" font-family="Times,serif" font-size="14.00" fill="#ffffff">n_name = </text>
<text text-anchor="middle" x="553.5" y="-1009.8" font-family="Times,serif" font-size="14.00" fill="#ffffff">&#39;CANADA&#39;</text>
<text text-anchor="middle" x="553.5" y="-978.8" font-family="Times,serif" font-size="14.00" fill="#ffffff">20 µs 0 ns </text>
</g>
<!-- 94574571392384&#45;&gt;94574680621088 -->
<g id="edge24" class="edge">
<title>94574571392384&#45;&gt;94574680621088</title>
<path fill="none" stroke="#ffffff" d="M553.5,-1070.1599C553.5,-1083.598 553.5,-1097.9153 553.5,-1110.5584"/>
<polygon fill="#ffffff" stroke="#ffffff" points="550.0001,-1110.7287 553.5,-1120.7287 557.0001,-1110.7288 550.0001,-1110.7287"/>
<text text-anchor="middle" x="644" y="-1091.8" font-family="Times,serif" font-size="14.00" fill="#ffffff">1 row(s)/1 chunk(s)/533B</text>
</g>
<!-- 94573960606992 -->
<g id="node26" class="node">
<title>94573960606992</title>
<polygon fill="none" stroke="#ffffff" points="594,-920 513,-920 513,-851 594,-851 594,-920"/>
<text text-anchor="middle" x="553.5" y="-904.8" font-family="Times,serif" font-size="14.00" fill="#ffffff">GetTable</text>
<text text-anchor="middle" x="553.5" y="-889.8" font-family="Times,serif" font-size="14.00" fill="#ffffff">(nation)</text>
<text text-anchor="middle" x="553.5" y="-858.8" font-family="Times,serif" font-size="14.00" fill="#ffffff">1 µs 0 ns</text>
</g>
<!-- 94573960606992&#45;&gt;94574571392384 -->
<g id="edge25" class="edge">
<title>94573960606992&#45;&gt;94574571392384</title>
<path fill="none" stroke="#ffffff" d="M553.5,-920.2659C553.5,-932.5301 553.5,-946.6967 553.5,-960.446"/>
<polygon fill="#ffffff" stroke="#ffffff" points="550.0001,-960.8405 553.5,-970.8405 557.0001,-960.8406 550.0001,-960.8405"/>
<text text-anchor="middle" x="660.5" y="-941.8" font-family="Times,serif" font-size="14.00" fill="#ffffff">25 row(s)/1 chunk(s)/2.869KB</text>
</g>
</g>
</svg>
