<?xml version="1.0" encoding="UTF-8" standalone="no"?>
<!DOCTYPE svg PUBLIC "-//W3C//DTD SVG 1.1//EN"
 "http://www.w3.org/Graphics/SVG/1.1/DTD/svg11.dtd">
<!-- Generated by graphviz version 2.40.1 (20161225.0304)
 -->
<!-- Title: G Pages: 1 -->
<svg width="1172pt" height="1322pt"
 viewBox="0.00 0.00 1171.50 1322.00" xmlns="http://www.w3.org/2000/svg" xmlns:xlink="http://www.w3.org/1999/xlink">
<g id="graph0" class="graph" transform="scale(1 1) rotate(0) translate(4 1318)">
<title>G</title>
<polygon fill="#000000" stroke="transparent" points="-4,4 -4,-1318 1167.5,-1318 1167.5,4 -4,4"/>
<!-- 94450929761696 -->
<g id="node1" class="node">
<title>94450929761696</title>
<polygon fill="none" stroke="#ffffff" points="786.5,-1314 682.5,-1314 682.5,-1125 786.5,-1125 786.5,-1314"/>
<text text-anchor="middle" x="734.5" y="-1298.8" font-family="Times,serif" font-size="14.00" fill="#ffffff">Alias </text>
<text text-anchor="middle" x="734.5" y="-1283.8" font-family="Times,serif" font-size="14.00" fill="#ffffff">[c_custkey</text>
<text text-anchor="middle" x="734.5" y="-1268.8" font-family="Times,serif" font-size="14.00" fill="#ffffff">c_name</text>
<text text-anchor="middle" x="734.5" y="-1253.8" font-family="Times,serif" font-size="14.00" fill="#ffffff">revenue</text>
<text text-anchor="middle" x="734.5" y="-1238.8" font-family="Times,serif" font-size="14.00" fill="#ffffff">c_acctbal</text>
<text text-anchor="middle" x="734.5" y="-1223.8" font-family="Times,serif" font-size="14.00" fill="#ffffff">n_name</text>
<text text-anchor="middle" x="734.5" y="-1208.8" font-family="Times,serif" font-size="14.00" fill="#ffffff">c_address</text>
<text text-anchor="middle" x="734.5" y="-1193.8" font-family="Times,serif" font-size="14.00" fill="#ffffff">c_phone</text>
<text text-anchor="middle" x="734.5" y="-1178.8" font-family="Times,serif" font-size="14.00" fill="#ffffff">c_comment]</text>
<text text-anchor="middle" x="734.5" y="-1147.8" font-family="Times,serif" font-size="14.00" fill="#ffffff">3 </text>
<text text-anchor="middle" x="734.5" y="-1132.8" font-family="Times,serif" font-size="14.00" fill="#ffffff">µs 0 ns </text>
</g>
<!-- 94450929279472 -->
<g id="node2" class="node">
<title>94450929279472</title>
<polygon fill="none" stroke="#ffffff" points="779.5,-1074 689.5,-1074 689.5,-1020 779.5,-1020 779.5,-1074"/>
<text text-anchor="middle" x="734.5" y="-1058.8" font-family="Times,serif" font-size="14.00" fill="#ffffff">Projection</text>
<text text-anchor="middle" x="734.5" y="-1027.8" font-family="Times,serif" font-size="14.00" fill="#ffffff">37 µs 0 ns</text>
</g>
<!-- 94450929279472&#45;&gt;94450929761696 -->
<g id="edge1" class="edge">
<title>94450929279472&#45;&gt;94450929761696</title>
<path fill="none" stroke="#ffffff" stroke-width="3" d="M734.5,-1074.3331C734.5,-1085.6798 734.5,-1099.6323 734.5,-1114.3574"/>
<polygon fill="#ffffff" stroke="#ffffff" stroke-width="3" points="731.0001,-1114.6526 734.5,-1124.6526 738.0001,-1114.6527 731.0001,-1114.6526"/>
<text text-anchor="middle" x="857" y="-1095.8" font-family="Times,serif" font-size="14.00" fill="#ffffff">37967 row(s)/1 chunk(s)/6.987MB</text>
</g>
<!-- 94450929278544 -->
<g id="node3" class="node">
<title>94450929278544</title>
<polygon fill="none" stroke="#ffffff" stroke-width="3" points="791,-969 678,-969 678,-915 791,-915 791,-969"/>
<text text-anchor="middle" x="734.5" y="-953.8" font-family="Times,serif" font-size="14.00" fill="#ffffff">Sort</text>
<text text-anchor="middle" x="734.5" y="-922.8" font-family="Times,serif" font-size="14.00" fill="#ffffff">62 ms 535 µs</text>
</g>
<!-- 94450929278544&#45;&gt;94450929279472 -->
<g id="edge2" class="edge">
<title>94450929278544&#45;&gt;94450929279472</title>
<path fill="none" stroke="#ffffff" stroke-width="3" d="M734.5,-969.0401C734.5,-981.3143 734.5,-996.0382 734.5,-1009.3683"/>
<polygon fill="#ffffff" stroke="#ffffff" stroke-width="3" points="731.0001,-1009.6866 734.5,-1019.6866 738.0001,-1009.6866 731.0001,-1009.6866"/>
<text text-anchor="middle" x="857" y="-990.8" font-family="Times,serif" font-size="14.00" fill="#ffffff">37967 row(s)/1 chunk(s)/6.987MB</text>
</g>
<!-- 94450670322176 -->
<g id="node4" class="node">
<title>94450670322176</title>
<polygon fill="none" stroke="#ffffff" stroke-width="3" points="920,-864 549,-864 549,-795 920,-795 920,-864"/>
<text text-anchor="middle" x="734.5" y="-848.8" font-family="Times,serif" font-size="14.00" fill="#ffffff">[Aggregate] GroupBy ColumnIDs: 1, 2, 3, 4, 5, 6, </text>
<text text-anchor="middle" x="734.5" y="-833.8" font-family="Times,serif" font-size="14.00" fill="#ffffff">7 Aggregates: SUM(Column #0)</text>
<text text-anchor="middle" x="734.5" y="-802.8" font-family="Times,serif" font-size="14.00" fill="#ffffff">186 ms 992 µs </text>
</g>
<!-- 94450670322176&#45;&gt;94450929278544 -->
<g id="edge3" class="edge">
<title>94450670322176&#45;&gt;94450929278544</title>
<path fill="none" stroke="#ffffff" stroke-width="3" d="M734.5,-864.1717C734.5,-877.0092 734.5,-891.6141 734.5,-904.6774"/>
<polygon fill="#ffffff" stroke="#ffffff" stroke-width="3" points="731.0001,-904.7601 734.5,-914.7602 738.0001,-904.7602 731.0001,-904.7601"/>
<text text-anchor="middle" x="857" y="-885.8" font-family="Times,serif" font-size="14.00" fill="#ffffff">37967 row(s)/1 chunk(s)/6.987MB</text>
</g>
<!-- 94450929278128 -->
<g id="node5" class="node">
<title>94450929278128</title>
<polygon fill="none" stroke="#ffffff" stroke-width="3" points="795.5,-744 673.5,-744 673.5,-690 795.5,-690 795.5,-744"/>
<text text-anchor="middle" x="734.5" y="-728.8" font-family="Times,serif" font-size="14.00" fill="#ffffff">Projection</text>
<text text-anchor="middle" x="734.5" y="-697.8" font-family="Times,serif" font-size="14.00" fill="#ffffff">185 ms 767 µs</text>
</g>
<!-- 94450929278128&#45;&gt;94450670322176 -->
<g id="edge4" class="edge">
<title>94450929278128&#45;&gt;94450670322176</title>
<path fill="none" stroke="#ffffff" stroke-width="3" d="M734.5,-744.2331C734.5,-756.3589 734.5,-770.9621 734.5,-784.6298"/>
<polygon fill="#ffffff" stroke="#ffffff" stroke-width="3" points="731.0001,-784.8427 734.5,-794.8427 738.0001,-784.8428 731.0001,-784.8427"/>
<text text-anchor="middle" x="866" y="-765.8" font-family="Times,serif" font-size="14.00" fill="#ffffff">114705 row(s)/8 chunk(s)/19.741MB</text>
</g>
<!-- 94449702082096 -->
<g id="node6" class="node">
<title>94449702082096</title>
<polygon fill="none" stroke="#ffffff" stroke-width="3" points="858.5,-639 610.5,-639 610.5,-555 858.5,-555 858.5,-639"/>
<text text-anchor="middle" x="734.5" y="-623.8" font-family="Times,serif" font-size="14.00" fill="#ffffff">JoinHash</text>
<text text-anchor="middle" x="734.5" y="-608.8" font-family="Times,serif" font-size="14.00" fill="#ffffff">(Inner Join where o_orderkey = </text>
<text text-anchor="middle" x="734.5" y="-593.8" font-family="Times,serif" font-size="14.00" fill="#ffffff">l_orderkey)</text>
<text text-anchor="middle" x="734.5" y="-562.8" font-family="Times,serif" font-size="14.00" fill="#ffffff">68 ms 442 µs </text>
</g>
<!-- 94449702082096&#45;&gt;94450929278128 -->
<g id="edge5" class="edge">
<title>94449702082096&#45;&gt;94450929278128</title>
<path fill="none" stroke="#ffffff" stroke-width="3" d="M734.5,-639.3075C734.5,-652.3814 734.5,-666.686 734.5,-679.4178"/>
<polygon fill="#ffffff" stroke="#ffffff" stroke-width="3" points="731.0001,-679.681 734.5,-689.681 738.0001,-679.6811 731.0001,-679.681"/>
<text text-anchor="middle" x="866" y="-660.8" font-family="Times,serif" font-size="14.00" fill="#ffffff">114705 row(s)/8 chunk(s)/14.690MB</text>
</g>
<!-- 94449695516736 -->
<g id="node7" class="node">
<title>94449695516736</title>
<polygon fill="none" stroke="#ffffff" stroke-width="3" points="716,-504 477,-504 477,-420 716,-420 716,-504"/>
<text text-anchor="middle" x="596.5" y="-488.8" font-family="Times,serif" font-size="14.00" fill="#ffffff">JoinHash</text>
<text text-anchor="middle" x="596.5" y="-473.8" font-family="Times,serif" font-size="14.00" fill="#ffffff">(Inner Join where c_custkey = </text>
<text text-anchor="middle" x="596.5" y="-458.8" font-family="Times,serif" font-size="14.00" fill="#ffffff">o_custkey)</text>
<text text-anchor="middle" x="596.5" y="-427.8" font-family="Times,serif" font-size="14.00" fill="#ffffff">20 ms 980 µs </text>
</g>
<!-- 94449695516736&#45;&gt;94449702082096 -->
<g id="edge6" class="edge">
<title>94449695516736&#45;&gt;94449702082096</title>
<path fill="none" stroke="#ffffff" stroke-width="3" d="M589.043,-504.1679C589.0682,-515.6039 591.1658,-527.4504 597.5,-537 600.0723,-540.878 602.9558,-544.5071 606.0945,-547.9031"/>
<polygon fill="#ffffff" stroke="#ffffff" stroke-width="3" points="603.7457,-550.5012 613.3513,-554.9715 608.6299,-545.4868 603.7457,-550.5012"/>
<text text-anchor="middle" x="724.5" y="-525.8" font-family="Times,serif" font-size="14.00" fill="#ffffff">57069 row(s)/16 chunk(s)/5.491MB</text>
</g>
<!-- 94449702081920 -->
<g id="node8" class="node">
<title>94449702081920</title>
<polygon fill="none" stroke="#ffffff" stroke-width="2" points="437.5,-361.5 183.5,-361.5 183.5,-277.5 437.5,-277.5 437.5,-361.5"/>
<text text-anchor="middle" x="310.5" y="-346.3" font-family="Times,serif" font-size="14.00" fill="#ffffff">JoinHash</text>
<text text-anchor="middle" x="310.5" y="-331.3" font-family="Times,serif" font-size="14.00" fill="#ffffff">(Inner Join where c_nationkey = </text>
<text text-anchor="middle" x="310.5" y="-316.3" font-family="Times,serif" font-size="14.00" fill="#ffffff">n_nationkey)</text>
<text text-anchor="middle" x="310.5" y="-285.3" font-family="Times,serif" font-size="14.00" fill="#ffffff">2 ms 546 µs </text>
</g>
<!-- 94449702081920&#45;&gt;94449695516736 -->
<g id="edge7" class="edge">
<title>94449702081920&#45;&gt;94449695516736</title>
<path fill="none" stroke="#ffffff" stroke-width="3" d="M311.3156,-361.6675C313.6958,-376.1827 318.8711,-391.4274 329.5,-402 349.6001,-421.9937 408.9881,-436.3857 466.6639,-446.0536"/>
<polygon fill="#ffffff" stroke="#ffffff" stroke-width="3" points="466.2152,-449.5266 476.6486,-447.6843 467.3435,-442.6182 466.2152,-449.5266"/>
<text text-anchor="middle" x="461" y="-390.8" font-family="Times,serif" font-size="14.00" fill="#ffffff">150000 row(s)/1 chunk(s)/10.800MB</text>
</g>
<!-- 94450929425568 -->
<g id="node9" class="node">
<title>94450929425568</title>
<polygon fill="none" stroke="#ffffff" stroke-width="2" points="99,-196.5 0,-196.5 0,-142.5 99,-142.5 99,-196.5"/>
<text text-anchor="middle" x="49.5" y="-181.3" font-family="Times,serif" font-size="14.00" fill="#ffffff">Projection</text>
<text text-anchor="middle" x="49.5" y="-150.3" font-family="Times,serif" font-size="14.00" fill="#ffffff">926 µs 0 ns</text>
</g>
<!-- 94450929425568&#45;&gt;94449702081920 -->
<g id="edge8" class="edge">
<title>94450929425568&#45;&gt;94449702081920</title>
<path fill="none" stroke="#ffffff" stroke-width="3" d="M44.0433,-196.5892C42.1062,-214.2928 42.9416,-236.8553 55.5,-252 71.7371,-271.5809 121.9011,-286.8785 173.4894,-297.9231"/>
<polygon fill="#ffffff" stroke="#ffffff" stroke-width="3" points="172.9689,-301.3898 183.4729,-300.0055 174.3983,-294.5373 172.9689,-301.3898"/>
<text text-anchor="middle" x="187" y="-240.8" font-family="Times,serif" font-size="14.00" fill="#ffffff">150000 row(s)/2 chunk(s)/25.329MB</text>
</g>
<!-- 94449936556080 -->
<g id="node10" class="node">
<title>94449936556080</title>
<polygon fill="none" stroke="#ffffff" points="97,-69 2,-69 2,0 97,0 97,-69"/>
<text text-anchor="middle" x="49.5" y="-53.8" font-family="Times,serif" font-size="14.00" fill="#ffffff">GetTable</text>
<text text-anchor="middle" x="49.5" y="-38.8" font-family="Times,serif" font-size="14.00" fill="#ffffff">(customer)</text>
<text text-anchor="middle" x="49.5" y="-7.8" font-family="Times,serif" font-size="14.00" fill="#ffffff">1 µs 0 ns</text>
</g>
<!-- 94449936556080&#45;&gt;94450929425568 -->
<g id="edge9" class="edge">
<title>94449936556080&#45;&gt;94450929425568</title>
<path fill="none" stroke="#ffffff" stroke-width="3" d="M49.5,-69.2659C49.5,-88.4703 49.5,-112.3393 49.5,-131.9668"/>
<polygon fill="#ffffff" stroke="#ffffff" stroke-width="3" points="46.0001,-132.0867 49.5,-142.0867 53.0001,-132.0867 46.0001,-132.0867"/>
<text text-anchor="middle" x="181" y="-90.8" font-family="Times,serif" font-size="14.00" fill="#ffffff">150000 row(s)/2 chunk(s)/25.479MB</text>
</g>
<!-- 94450420998768 -->
<g id="node11" class="node">
<title>94450420998768</title>
<polygon fill="none" stroke="#ffffff" points="380.5,-196.5 290.5,-196.5 290.5,-142.5 380.5,-142.5 380.5,-196.5"/>
<text text-anchor="middle" x="335.5" y="-181.3" font-family="Times,serif" font-size="14.00" fill="#ffffff">Projection</text>
<text text-anchor="middle" x="335.5" y="-150.3" font-family="Times,serif" font-size="14.00" fill="#ffffff">4 µs 0 ns</text>
</g>
<!-- 94450420998768&#45;&gt;94449702081920 -->
<g id="edge10" class="edge">
<title>94450420998768&#45;&gt;94449702081920</title>
<path fill="none" stroke="#ffffff" d="M330.9727,-196.6639C327.6977,-216.3139 323.1695,-243.4829 319.2043,-267.274"/>
<polygon fill="#ffffff" stroke="#ffffff" points="315.7364,-266.7922 317.5447,-277.2316 322.6412,-267.943 315.7364,-266.7922"/>
<text text-anchor="middle" x="431.5" y="-240.8" font-family="Times,serif" font-size="14.00" fill="#ffffff">25 row(s)/1 chunk(s)/1.851KB</text>
</g>
<!-- 94449705010048 -->
<g id="node12" class="node">
<title>94449705010048</title>
<polygon fill="none" stroke="#ffffff" points="376,-69 295,-69 295,0 376,0 376,-69"/>
<text text-anchor="middle" x="335.5" y="-53.8" font-family="Times,serif" font-size="14.00" fill="#ffffff">GetTable</text>
<text text-anchor="middle" x="335.5" y="-38.8" font-family="Times,serif" font-size="14.00" fill="#ffffff">(nation)</text>
<text text-anchor="middle" x="335.5" y="-7.8" font-family="Times,serif" font-size="14.00" fill="#ffffff">0 ns</text>
</g>
<!-- 94449705010048&#45;&gt;94450420998768 -->
<g id="edge11" class="edge">
<title>94449705010048&#45;&gt;94450420998768</title>
<path fill="none" stroke="#ffffff" d="M335.5,-69.2659C335.5,-88.4703 335.5,-112.3393 335.5,-131.9668"/>
<polygon fill="#ffffff" stroke="#ffffff" points="332.0001,-132.0867 335.5,-142.0867 339.0001,-132.0867 332.0001,-132.0867"/>
<text text-anchor="middle" x="442.5" y="-90.8" font-family="Times,serif" font-size="14.00" fill="#ffffff">25 row(s)/1 chunk(s)/2.869KB</text>
</g>
<!-- 94450929531968 -->
<g id="node13" class="node">
<title>94450929531968</title>
<polygon fill="none" stroke="#ffffff" points="641.5,-346.5 551.5,-346.5 551.5,-292.5 641.5,-292.5 641.5,-346.5"/>
<text text-anchor="middle" x="596.5" y="-331.3" font-family="Times,serif" font-size="14.00" fill="#ffffff">Projection</text>
<text text-anchor="middle" x="596.5" y="-300.3" font-family="Times,serif" font-size="14.00" fill="#ffffff">14 µs 0 ns</text>
</g>
<!-- 94450929531968&#45;&gt;94449695516736 -->
<g id="edge12" class="edge">
<title>94450929531968&#45;&gt;94449695516736</title>
<path fill="none" stroke="#ffffff" stroke-width="3" d="M596.5,-346.6386C596.5,-364.404 596.5,-388.2016 596.5,-409.5675"/>
<polygon fill="#ffffff" stroke="#ffffff" stroke-width="3" points="593.0001,-409.8237 596.5,-419.8237 600.0001,-409.8237 593.0001,-409.8237"/>
<text text-anchor="middle" x="723.5" y="-390.8" font-family="Times,serif" font-size="14.00" fill="#ffffff">57069 row(s)/15 chunk(s)/1.374MB</text>
</g>
<!-- 94450929424304 -->
<g id="node14" class="node">
<title>94450929424304</title>
<polygon fill="none" stroke="#ffffff" stroke-width="2" points="715,-219 478,-219 478,-120 715,-120 715,-219"/>
<text text-anchor="middle" x="596.5" y="-203.8" font-family="Times,serif" font-size="14.00" fill="#ffffff">TableScan</text>
<text text-anchor="middle" x="596.5" y="-188.8" font-family="Times,serif" font-size="14.00" fill="#ffffff">Impl: BetweenScan</text>
<text text-anchor="middle" x="596.5" y="-173.8" font-family="Times,serif" font-size="14.00" fill="#ffffff">o_orderdate BETWEEN </text>
<text text-anchor="middle" x="596.5" y="-158.8" font-family="Times,serif" font-size="14.00" fill="#ffffff">&#39;1993&#45;10&#45;01&#39; AND &#39;1994&#45;01&#45;00&#39;</text>
<text text-anchor="middle" x="596.5" y="-127.8" font-family="Times,serif" font-size="14.00" fill="#ffffff">3 ms 351 µs </text>
</g>
<!-- 94450929424304&#45;&gt;94450929531968 -->
<g id="edge13" class="edge">
<title>94450929424304&#45;&gt;94450929531968</title>
<path fill="none" stroke="#ffffff" stroke-width="3" d="M596.5,-219.0313C596.5,-239.6238 596.5,-263.123 596.5,-282.2146"/>
<polygon fill="#ffffff" stroke="#ffffff" stroke-width="3" points="593.0001,-282.3212 596.5,-292.3212 600.0001,-282.3212 593.0001,-282.3212"/>
<text text-anchor="middle" x="723.5" y="-240.8" font-family="Times,serif" font-size="14.00" fill="#ffffff">57069 row(s)/15 chunk(s)/4.118MB</text>
</g>
<!-- 94449705010464 -->
<g id="node15" class="node">
<title>94449705010464</title>
<polygon fill="none" stroke="#ffffff" points="637,-69 556,-69 556,0 637,0 637,-69"/>
<text text-anchor="middle" x="596.5" y="-53.8" font-family="Times,serif" font-size="14.00" fill="#ffffff">GetTable</text>
<text text-anchor="middle" x="596.5" y="-38.8" font-family="Times,serif" font-size="14.00" fill="#ffffff">(orders)</text>
<text text-anchor="middle" x="596.5" y="-7.8" font-family="Times,serif" font-size="14.00" fill="#ffffff">0 ns</text>
</g>
<!-- 94449705010464&#45;&gt;94450929424304 -->
<g id="edge14" class="edge">
<title>94449705010464&#45;&gt;94450929424304</title>
<path fill="none" stroke="#ffffff" stroke-width="4" d="M596.5,-69.2659C596.5,-81.5301 596.5,-95.6967 596.5,-109.446"/>
<polygon fill="#ffffff" stroke="#ffffff" stroke-width="4" points="593.0001,-109.8405 596.5,-119.8405 600.0001,-109.8406 593.0001,-109.8405"/>
<text text-anchor="middle" x="741.5" y="-90.8" font-family="Times,serif" font-size="14.00" fill="#ffffff">1500000 row(s)/15 chunk(s)/114.197MB</text>
</g>
<!-- 94450929532128 -->
<g id="node16" class="node">
<title>94450929532128</title>
<polygon fill="none" stroke="#ffffff" points="918.5,-489 828.5,-489 828.5,-435 918.5,-435 918.5,-489"/>
<text text-anchor="middle" x="873.5" y="-473.8" font-family="Times,serif" font-size="14.00" fill="#ffffff">Projection</text>
<text text-anchor="middle" x="873.5" y="-442.8" font-family="Times,serif" font-size="14.00" fill="#ffffff">65 µs 0 ns</text>
</g>
<!-- 94450929532128&#45;&gt;94449702082096 -->
<g id="edge15" class="edge">
<title>94450929532128&#45;&gt;94449702082096</title>
<path fill="none" stroke="#ffffff" stroke-width="4" d="M870.8669,-489.1022C868.1568,-504.5736 862.6577,-523.5123 851.5,-537 848.1749,-541.0194 844.5112,-544.7993 840.5958,-548.3505"/>
<polygon fill="#ffffff" stroke="#ffffff" stroke-width="4" points="838.1959,-545.7952 832.7788,-554.9005 842.6917,-551.1606 838.1959,-545.7952"/>
<text text-anchor="middle" x="1001" y="-525.8" font-family="Times,serif" font-size="14.00" fill="#ffffff">1478870 row(s)/61 chunk(s)/47.345MB</text>
</g>
<!-- 94450929425168 -->
<g id="node17" class="node">
<title>94450929425168</title>
<polygon fill="none" stroke="#ffffff" stroke-width="3" points="964,-369 783,-369 783,-270 964,-270 964,-369"/>
<text text-anchor="middle" x="873.5" y="-353.8" font-family="Times,serif" font-size="14.00" fill="#ffffff">TableScan</text>
<text text-anchor="middle" x="873.5" y="-338.8" font-family="Times,serif" font-size="14.00" fill="#ffffff">Impl: LiteralTableScan</text>
<text text-anchor="middle" x="873.5" y="-323.8" font-family="Times,serif" font-size="14.00" fill="#ffffff">l_returnflag = </text>
<text text-anchor="middle" x="873.5" y="-308.8" font-family="Times,serif" font-size="14.00" fill="#ffffff">&#39;R&#39;</text>
<text text-anchor="middle" x="873.5" y="-277.8" font-family="Times,serif" font-size="14.00" fill="#ffffff">20 ms 790 µs </text>
</g>
<!-- 94450929425168&#45;&gt;94450929532128 -->
<g id="edge16" class="edge">
<title>94450929425168&#45;&gt;94450929532128</title>
<path fill="none" stroke="#ffffff" stroke-width="4" d="M873.5,-369.3396C873.5,-387.551 873.5,-407.8196 873.5,-424.7453"/>
<polygon fill="#ffffff" stroke="#ffffff" stroke-width="4" points="870.0001,-424.8036 873.5,-434.8036 877.0001,-424.8037 870.0001,-424.8036"/>
<text text-anchor="middle" x="1018.5" y="-390.8" font-family="Times,serif" font-size="14.00" fill="#ffffff">1478870 row(s)/61 chunk(s)/189.358MB</text>
</g>
<!-- 94449700082512 -->
<g id="node18" class="node">
<title>94449700082512</title>
<polygon fill="none" stroke="#ffffff" points="916.5,-204 830.5,-204 830.5,-135 916.5,-135 916.5,-204"/>
<text text-anchor="middle" x="873.5" y="-188.8" font-family="Times,serif" font-size="14.00" fill="#ffffff">GetTable</text>
<text text-anchor="middle" x="873.5" y="-173.8" font-family="Times,serif" font-size="14.00" fill="#ffffff">(lineitem)</text>
<text text-anchor="middle" x="873.5" y="-142.8" font-family="Times,serif" font-size="14.00" fill="#ffffff">2 µs 0 ns</text>
</g>
<!-- 94449700082512&#45;&gt;94450929425168 -->
<g id="edge17" class="edge">
<title>94449700082512&#45;&gt;94450929425168</title>
<path fill="none" stroke="#ffffff" stroke-width="4" d="M873.5,-204.29C873.5,-220.7963 873.5,-240.9918 873.5,-259.8376"/>
<polygon fill="#ffffff" stroke="#ffffff" stroke-width="4" points="870.0001,-259.8386 873.5,-269.8386 877.0001,-259.8386 870.0001,-259.8386"/>
<text text-anchor="middle" x="1018.5" y="-240.8" font-family="Times,serif" font-size="14.00" fill="#ffffff">6001215 row(s)/61 chunk(s)/500.660MB</text>
</g>
</g>
</svg>
