<?xml version="1.0" encoding="UTF-8" standalone="no"?>
<!DOCTYPE svg PUBLIC "-//W3C//DTD SVG 1.1//EN"
 "http://www.w3.org/Graphics/SVG/1.1/DTD/svg11.dtd">
<!-- Generated by graphviz version 2.40.1 (20161225.0304)
 -->
<!-- Title: G Pages: 1 -->
<svg width="1914pt" height="1098pt"
 viewBox="0.00 0.00 1913.50 1098.00" xmlns="http://www.w3.org/2000/svg" xmlns:xlink="http://www.w3.org/1999/xlink">
<g id="graph0" class="graph" transform="scale(1 1) rotate(0) translate(4 1094)">
<title>G</title>
<polygon fill="#000000" stroke="transparent" points="-4,4 -4,-1094 1909.5,-1094 1909.5,4 -4,4"/>
<!-- 94574205144224 -->
<g id="node1" class="node">
<title>94574205144224</title>
<polygon fill="none" stroke="#ffffff" points="457.5,-1090 131.5,-1090 131.5,-1052 457.5,-1052 457.5,-1090"/>
<text text-anchor="middle" x="294.5" y="-1074.8" font-family="Times,serif" font-size="14.00" fill="#ffffff">Alias [n_name, SUM(l_extendedprice * (1 &#45; </text>
<text text-anchor="middle" x="294.5" y="-1059.8" font-family="Times,serif" font-size="14.00" fill="#ffffff">l_discount)) AS revenue] </text>
</g>
<!-- 94574205156496 -->
<g id="node2" class="node">
<title>94574205156496</title>
<polygon fill="none" stroke="#ffffff" points="470,-1001 119,-1001 119,-963 470,-963 470,-1001"/>
<text text-anchor="middle" x="294.5" y="-985.8" font-family="Times,serif" font-size="14.00" fill="#ffffff">[Sort] SUM(l_extendedprice * (1 &#45; l_discount)) </text>
<text text-anchor="middle" x="294.5" y="-970.8" font-family="Times,serif" font-size="14.00" fill="#ffffff">(Descending) </text>
</g>
<!-- 94574205156496&#45;&gt;94574205144224 -->
<g id="edge1" class="edge">
<title>94574205156496&#45;&gt;94574205144224</title>
<path fill="none" stroke="#ffffff" stroke-width="3" d="M294.5,-1001.3117C294.5,-1013.091 294.5,-1028.3813 294.5,-1041.6372"/>
<polygon fill="#ffffff" stroke="#ffffff" stroke-width="3" points="291.0001,-1041.726 294.5,-1051.726 298.0001,-1041.726 291.0001,-1041.726"/>
<text text-anchor="middle" x="404.5" y="-1022.8" font-family="Times,serif" font-size="14.00" fill="#ffffff"> 48009.7 row(s) | 100.0% estd.</text>
</g>
<!-- 94574985544320 -->
<g id="node3" class="node">
<title>94574985544320</title>
<polygon fill="none" stroke="#ffffff" points="465,-912 124,-912 124,-874 465,-874 465,-912"/>
<text text-anchor="middle" x="294.5" y="-896.8" font-family="Times,serif" font-size="14.00" fill="#ffffff">[Aggregate] GroupBy: [n_name] Aggregates: </text>
<text text-anchor="middle" x="294.5" y="-881.8" font-family="Times,serif" font-size="14.00" fill="#ffffff">[SUM(l_extendedprice * (1 &#45; l_discount))] </text>
</g>
<!-- 94574985544320&#45;&gt;94574205156496 -->
<g id="edge2" class="edge">
<title>94574985544320&#45;&gt;94574205156496</title>
<path fill="none" stroke="#ffffff" stroke-width="3" d="M294.5,-912.3117C294.5,-924.091 294.5,-939.3813 294.5,-952.6372"/>
<polygon fill="#ffffff" stroke="#ffffff" stroke-width="3" points="291.0001,-952.726 294.5,-962.726 298.0001,-952.726 291.0001,-952.726"/>
<text text-anchor="middle" x="404.5" y="-933.8" font-family="Times,serif" font-size="14.00" fill="#ffffff"> 48009.7 row(s) | 100.0% estd.</text>
</g>
<!-- 94574719105184 -->
<g id="node4" class="node">
<title>94574719105184</title>
<polygon fill="none" stroke="#ffffff" points="470.5,-823 118.5,-823 118.5,-785 470.5,-785 470.5,-823"/>
<text text-anchor="middle" x="294.5" y="-807.8" font-family="Times,serif" font-size="14.00" fill="#ffffff">[Projection] l_extendedprice * (1 &#45; l_discount), </text>
<text text-anchor="middle" x="294.5" y="-792.8" font-family="Times,serif" font-size="14.00" fill="#ffffff">n_name </text>
</g>
<!-- 94574719105184&#45;&gt;94574985544320 -->
<g id="edge3" class="edge">
<title>94574719105184&#45;&gt;94574985544320</title>
<path fill="none" stroke="#ffffff" stroke-width="3" d="M294.5,-823.3117C294.5,-835.091 294.5,-850.3813 294.5,-863.6372"/>
<polygon fill="#ffffff" stroke="#ffffff" stroke-width="3" points="291.0001,-863.726 294.5,-873.726 298.0001,-863.726 291.0001,-863.726"/>
<text text-anchor="middle" x="404.5" y="-844.8" font-family="Times,serif" font-size="14.00" fill="#ffffff"> 48009.7 row(s) | 100.0% estd.</text>
</g>
<!-- 94573930943328 -->
<g id="node5" class="node">
<title>94573930943328</title>
<polygon fill="none" stroke="#ffffff" points="441,-734 148,-734 148,-698 441,-698 441,-734"/>
<text text-anchor="middle" x="294.5" y="-712.3" font-family="Times,serif" font-size="14.00" fill="#ffffff">[Predicate] c_nationkey = s_nationkey</text>
</g>
<!-- 94573930943328&#45;&gt;94574719105184 -->
<g id="edge4" class="edge">
<title>94573930943328&#45;&gt;94574719105184</title>
<path fill="none" stroke="#ffffff" stroke-width="3" d="M294.5,-734.2337C294.5,-745.9125 294.5,-761.3308 294.5,-774.7022"/>
<polygon fill="#ffffff" stroke="#ffffff" stroke-width="3" points="291.0001,-774.8765 294.5,-784.8765 298.0001,-774.8765 291.0001,-774.8765"/>
<text text-anchor="middle" x="395.5" y="-755.8" font-family="Times,serif" font-size="14.00" fill="#ffffff"> 48009.7 row(s) | 4.0% estd.</text>
</g>
<!-- 94574337385360 -->
<g id="node6" class="node">
<title>94574337385360</title>
<polygon fill="none" stroke="#ffffff" points="453,-647 136,-647 136,-611 453,-611 453,-647"/>
<text text-anchor="middle" x="294.5" y="-625.3" font-family="Times,serif" font-size="14.00" fill="#ffffff">[Join] Mode: Inner c_custkey = o_custkey</text>
</g>
<!-- 94574337385360&#45;&gt;94573930943328 -->
<g id="edge5" class="edge">
<title>94574337385360&#45;&gt;94573930943328</title>
<path fill="none" stroke="#ffffff" stroke-width="4" d="M294.5,-647.0265C294.5,-658.8082 294.5,-674.4393 294.5,-687.8419"/>
<polygon fill="#ffffff" stroke="#ffffff" stroke-width="4" points="291.0001,-687.9966 294.5,-697.9966 298.0001,-687.9967 291.0001,-687.9966"/>
<text text-anchor="middle" x="404.5" y="-668.8" font-family="Times,serif" font-size="14.00" fill="#ffffff"> 1200243.0 row(s) | 0.0% estd.</text>
</g>
<!-- 94574544902272 -->
<g id="node7" class="node">
<title>94574544902272</title>
<polygon fill="none" stroke="#ffffff" points="271,-560 0,-560 0,-524 271,-524 271,-560"/>
<text text-anchor="middle" x="135.5" y="-538.3" font-family="Times,serif" font-size="14.00" fill="#ffffff">[Projection] c_custkey, c_nationkey</text>
</g>
<!-- 94574544902272&#45;&gt;94574337385360 -->
<g id="edge6" class="edge">
<title>94574544902272&#45;&gt;94574337385360</title>
<path fill="none" stroke="#ffffff" stroke-width="3" d="M149.9088,-560.1888C159.32,-571.0226 172.4399,-584.3104 186.5,-593 195.2911,-598.4332 204.9967,-603.1488 214.8764,-607.2133"/>
<polygon fill="#ffffff" stroke="#ffffff" stroke-width="3" points="213.7895,-610.5459 224.3779,-610.9128 216.3293,-604.0229 213.7895,-610.5459"/>
<text text-anchor="middle" x="301" y="-581.8" font-family="Times,serif" font-size="14.00" fill="#ffffff"> 150000.0 row(s) | 100.0% estd.</text>
</g>
<!-- 94573707908592 -->
<g id="node8" class="node">
<title>94573707908592</title>
<polygon fill="none" stroke="#ffffff" points="257,-473 12,-473 12,-437 257,-437 257,-473"/>
<text text-anchor="middle" x="134.5" y="-451.3" font-family="Times,serif" font-size="14.00" fill="#ffffff">[StoredTable] Name: &#39;customer&#39;</text>
</g>
<!-- 94573707908592&#45;&gt;94574544902272 -->
<g id="edge7" class="edge">
<title>94573707908592&#45;&gt;94574544902272</title>
<path fill="none" stroke="#ffffff" stroke-width="3" d="M134.7072,-473.0265C134.8426,-484.8082 135.0223,-500.4393 135.1763,-513.8419"/>
<polygon fill="#ffffff" stroke="#ffffff" stroke-width="3" points="131.6783,-514.0376 135.2931,-523.9966 138.6778,-513.957 131.6783,-514.0376"/>
<text text-anchor="middle" x="250" y="-494.8" font-family="Times,serif" font-size="14.00" fill="#ffffff"> 150000.0 row(s) | 100.0% estd.</text>
</g>
<!-- 94573847399264 -->
<g id="node9" class="node">
<title>94573847399264</title>
<polygon fill="none" stroke="#ffffff" points="619,-560 290,-560 290,-524 619,-524 619,-560"/>
<text text-anchor="middle" x="454.5" y="-538.3" font-family="Times,serif" font-size="14.00" fill="#ffffff">[Join] Mode: Inner l_orderkey = o_orderkey</text>
</g>
<!-- 94573847399264&#45;&gt;94574337385360 -->
<g id="edge8" class="edge">
<title>94573847399264&#45;&gt;94574337385360</title>
<path fill="none" stroke="#ffffff" stroke-width="4" d="M444.44,-560.4272C437.6039,-571.3507 427.6136,-584.6491 415.5,-593 407.5984,-598.4472 398.8597,-603.0842 389.8015,-607.0288"/>
<polygon fill="#ffffff" stroke="#ffffff" stroke-width="4" points="388.2202,-603.8931 380.2678,-610.8938 390.8502,-610.3803 388.2202,-603.8931"/>
<text text-anchor="middle" x="541.5" y="-581.8" font-family="Times,serif" font-size="14.00" fill="#ffffff"> 1200243.0 row(s) | 0.0% estd.</text>
</g>
<!-- 94574591930576 -->
<g id="node10" class="node">
<title>94574591930576</title>
<polygon fill="none" stroke="#ffffff" points="634,-473 275,-473 275,-437 634,-437 634,-473"/>
<text text-anchor="middle" x="454.5" y="-451.3" font-family="Times,serif" font-size="14.00" fill="#ffffff">[Projection] o_orderkey, o_custkey, o_orderdate</text>
</g>
<!-- 94574591930576&#45;&gt;94573847399264 -->
<g id="edge9" class="edge">
<title>94574591930576&#45;&gt;94573847399264</title>
<path fill="none" stroke="#ffffff" stroke-width="4" d="M454.5,-473.0265C454.5,-484.8082 454.5,-500.4393 454.5,-513.8419"/>
<polygon fill="#ffffff" stroke="#ffffff" stroke-width="4" points="451.0001,-513.9966 454.5,-523.9966 458.0001,-513.9967 451.0001,-513.9966"/>
<text text-anchor="middle" x="573.5" y="-494.8" font-family="Times,serif" font-size="14.00" fill="#ffffff"> 1500000.0 row(s) | 100.0% estd.</text>
</g>
<!-- 94574423081104 -->
<g id="node11" class="node">
<title>94574423081104</title>
<polygon fill="none" stroke="#ffffff" points="602.5,-385 306.5,-385 306.5,-349 602.5,-349 602.5,-385"/>
<text text-anchor="middle" x="454.5" y="-363.3" font-family="Times,serif" font-size="14.00" fill="#ffffff">[Predicate] o_orderdate &lt; &#39;1995&#45;01&#45;01&#39;</text>
</g>
<!-- 94574423081104&#45;&gt;94574591930576 -->
<g id="edge10" class="edge">
<title>94574423081104&#45;&gt;94574591930576</title>
<path fill="none" stroke="#ffffff" stroke-width="4" d="M454.5,-385.2337C454.5,-397.1508 454.5,-412.9616 454.5,-426.5183"/>
<polygon fill="#ffffff" stroke="#ffffff" stroke-width="4" points="451.0001,-426.7897 454.5,-436.7897 458.0001,-426.7897 451.0001,-426.7897"/>
<text text-anchor="middle" x="573.5" y="-407.8" font-family="Times,serif" font-size="14.00" fill="#ffffff"> 1500000.0 row(s) | 100.0% estd.</text>
</g>
<!-- 94574591929472 -->
<g id="node12" class="node">
<title>94574591929472</title>
<polygon fill="none" stroke="#ffffff" points="608.5,-297 300.5,-297 300.5,-261 608.5,-261 608.5,-297"/>
<text text-anchor="middle" x="454.5" y="-275.3" font-family="Times,serif" font-size="14.00" fill="#ffffff">[Predicate] o_orderdate &gt;= &#39;1994&#45;01&#45;01&#39;</text>
</g>
<!-- 94574591929472&#45;&gt;94574423081104 -->
<g id="edge11" class="edge">
<title>94574591929472&#45;&gt;94574423081104</title>
<path fill="none" stroke="#ffffff" stroke-width="4" d="M454.5,-297.2337C454.5,-309.1508 454.5,-324.9616 454.5,-338.5183"/>
<polygon fill="#ffffff" stroke="#ffffff" stroke-width="4" points="451.0001,-338.7897 454.5,-348.7897 458.0001,-338.7897 451.0001,-338.7897"/>
<text text-anchor="middle" x="573.5" y="-318.8" font-family="Times,serif" font-size="14.00" fill="#ffffff"> 1500000.0 row(s) | 100.0% estd.</text>
</g>
<!-- 94573706459680 -->
<g id="node13" class="node">
<title>94573706459680</title>
<polygon fill="none" stroke="#ffffff" points="566.5,-210 342.5,-210 342.5,-174 566.5,-174 566.5,-210"/>
<text text-anchor="middle" x="454.5" y="-188.3" font-family="Times,serif" font-size="14.00" fill="#ffffff">[StoredTable] Name: &#39;orders&#39;</text>
</g>
<!-- 94573706459680&#45;&gt;94574591929472 -->
<g id="edge12" class="edge">
<title>94573706459680&#45;&gt;94574591929472</title>
<path fill="none" stroke="#ffffff" stroke-width="4" d="M454.5,-210.0265C454.5,-221.8082 454.5,-237.4393 454.5,-250.8419"/>
<polygon fill="#ffffff" stroke="#ffffff" stroke-width="4" points="451.0001,-250.9966 454.5,-260.9966 458.0001,-250.9967 451.0001,-250.9966"/>
<text text-anchor="middle" x="573.5" y="-231.8" font-family="Times,serif" font-size="14.00" fill="#ffffff"> 1500000.0 row(s) | 100.0% estd.</text>
</g>
<!-- 94574283038656 -->
<g id="node14" class="node">
<title>94574283038656</title>
<polygon fill="none" stroke="#ffffff" points="972.5,-473 652.5,-473 652.5,-437 972.5,-437 972.5,-473"/>
<text text-anchor="middle" x="812.5" y="-451.3" font-family="Times,serif" font-size="14.00" fill="#ffffff">[Join] Mode: Inner l_suppkey = s_suppkey</text>
</g>
<!-- 94574283038656&#45;&gt;94573847399264 -->
<g id="edge13" class="edge">
<title>94574283038656&#45;&gt;94573847399264</title>
<path fill="none" stroke="#ffffff" stroke-width="4" d="M778.1254,-473.0153C755.5055,-484.1347 724.929,-497.7959 696.5,-506 674.2708,-512.4149 650.5456,-517.7298 626.9671,-522.1223"/>
<polygon fill="#ffffff" stroke="#ffffff" stroke-width="4" points="626.0926,-518.7236 616.8759,-523.9488 627.3394,-525.6117 626.0926,-518.7236"/>
<text text-anchor="middle" x="846.5" y="-494.8" font-family="Times,serif" font-size="14.00" fill="#ffffff"> 1200243.0 row(s) | 0.0% estd.</text>
</g>
<!-- 94574500843872 -->
<g id="node15" class="node">
<title>94574500843872</title>
<polygon fill="none" stroke="#ffffff" points="918,-386 649,-386 649,-348 918,-348 918,-386"/>
<text text-anchor="middle" x="783.5" y="-370.8" font-family="Times,serif" font-size="14.00" fill="#ffffff">[Projection] l_orderkey, l_suppkey, </text>
<text text-anchor="middle" x="783.5" y="-355.8" font-family="Times,serif" font-size="14.00" fill="#ffffff">l_extendedprice, l_discount </text>
</g>
<!-- 94574500843872&#45;&gt;94574283038656 -->
<g id="edge14" class="edge">
<title>94574500843872&#45;&gt;94574283038656</title>
<path fill="none" stroke="#ffffff" stroke-width="4" d="M789.7926,-386.0947C793.7484,-398.0987 798.9195,-413.7903 803.3276,-427.1665"/>
<polygon fill="#ffffff" stroke="#ffffff" stroke-width="4" points="800.0629,-428.4426 806.517,-436.8447 806.7112,-426.2517 800.0629,-428.4426"/>
<text text-anchor="middle" x="920.5" y="-407.8" font-family="Times,serif" font-size="14.00" fill="#ffffff"> 6001215.0 row(s) | 100.0% estd.</text>
</g>
<!-- 94573705465216 -->
<g id="node16" class="node">
<title>94573705465216</title>
<polygon fill="none" stroke="#ffffff" points="901.5,-297 665.5,-297 665.5,-261 901.5,-261 901.5,-297"/>
<text text-anchor="middle" x="783.5" y="-275.3" font-family="Times,serif" font-size="14.00" fill="#ffffff">[StoredTable] Name: &#39;lineitem&#39;</text>
</g>
<!-- 94573705465216&#45;&gt;94574500843872 -->
<g id="edge15" class="edge">
<title>94573705465216&#45;&gt;94574500843872</title>
<path fill="none" stroke="#ffffff" stroke-width="4" d="M783.5,-297.2337C783.5,-308.9125 783.5,-324.3308 783.5,-337.7022"/>
<polygon fill="#ffffff" stroke="#ffffff" stroke-width="4" points="780.0001,-337.8765 783.5,-347.8765 787.0001,-337.8765 780.0001,-337.8765"/>
<text text-anchor="middle" x="902.5" y="-318.8" font-family="Times,serif" font-size="14.00" fill="#ffffff"> 6001215.0 row(s) | 100.0% estd.</text>
</g>
<!-- 94573981547376 -->
<g id="node17" class="node">
<title>94573981547376</title>
<polygon fill="none" stroke="#ffffff" points="1281,-385 936,-385 936,-349 1281,-349 1281,-385"/>
<text text-anchor="middle" x="1108.5" y="-363.3" font-family="Times,serif" font-size="14.00" fill="#ffffff">[Join] Mode: Inner s_nationkey = n_nationkey</text>
</g>
<!-- 94573981547376&#45;&gt;94574283038656 -->
<g id="edge16" class="edge">
<title>94573981547376&#45;&gt;94574283038656</title>
<path fill="none" stroke="#ffffff" stroke-width="2" d="M1091.1686,-385.0916C1078.962,-396.6919 1061.6206,-411.0234 1043.5,-419 1029.9171,-424.9791 1005.2448,-430.4799 976.927,-435.2877"/>
<polygon fill="#ffffff" stroke="#ffffff" stroke-width="2" points="976.0698,-431.8816 966.7708,-436.959 977.2065,-438.7887 976.0698,-431.8816"/>
<text text-anchor="middle" x="1164" y="-407.8" font-family="Times,serif" font-size="14.00" fill="#ffffff"> 2000.0 row(s) | 4.0% estd.</text>
</g>
<!-- 94574464673104 -->
<g id="node18" class="node">
<title>94574464673104</title>
<polygon fill="none" stroke="#ffffff" points="1219,-297 946,-297 946,-261 1219,-261 1219,-297"/>
<text text-anchor="middle" x="1082.5" y="-275.3" font-family="Times,serif" font-size="14.00" fill="#ffffff">[Projection] s_suppkey, s_nationkey</text>
</g>
<!-- 94574464673104&#45;&gt;94573981547376 -->
<g id="edge17" class="edge">
<title>94574464673104&#45;&gt;94573981547376</title>
<path fill="none" stroke="#ffffff" stroke-width="2" d="M1087.8872,-297.2337C1091.4431,-309.2688 1096.1722,-325.2751 1100.2037,-338.9203"/>
<polygon fill="#ffffff" stroke="#ffffff" stroke-width="2" points="1096.9296,-340.1913 1103.1197,-348.7897 1103.6427,-338.2078 1096.9296,-340.1913"/>
<text text-anchor="middle" x="1207.5" y="-318.8" font-family="Times,serif" font-size="14.00" fill="#ffffff"> 10000.0 row(s) | 100.0% estd.</text>
</g>
<!-- 94573705597536 -->
<g id="node19" class="node">
<title>94573705597536</title>
<polygon fill="none" stroke="#ffffff" points="1200.5,-210 964.5,-210 964.5,-174 1200.5,-174 1200.5,-210"/>
<text text-anchor="middle" x="1082.5" y="-188.3" font-family="Times,serif" font-size="14.00" fill="#ffffff">[StoredTable] Name: &#39;supplier&#39;</text>
</g>
<!-- 94573705597536&#45;&gt;94574464673104 -->
<g id="edge18" class="edge">
<title>94573705597536&#45;&gt;94574464673104</title>
<path fill="none" stroke="#ffffff" stroke-width="2" d="M1082.5,-210.0265C1082.5,-221.8082 1082.5,-237.4393 1082.5,-250.8419"/>
<polygon fill="#ffffff" stroke="#ffffff" stroke-width="2" points="1079.0001,-250.9966 1082.5,-260.9966 1086.0001,-250.9967 1079.0001,-250.9966"/>
<text text-anchor="middle" x="1192.5" y="-231.8" font-family="Times,serif" font-size="14.00" fill="#ffffff"> 10000.0 row(s) | 100.0% estd.</text>
</g>
<!-- 94574205160448 -->
<g id="node20" class="node">
<title>94574205160448</title>
<polygon fill="none" stroke="#ffffff" points="1583.5,-297 1237.5,-297 1237.5,-261 1583.5,-261 1583.5,-297"/>
<text text-anchor="middle" x="1410.5" y="-275.3" font-family="Times,serif" font-size="14.00" fill="#ffffff">[Join] Mode: Inner n_regionkey = r_regionkey</text>
</g>
<!-- 94574205160448&#45;&gt;94573981547376 -->
<g id="edge19" class="edge">
<title>94574205160448&#45;&gt;94573981547376</title>
<path fill="none" stroke="#ffffff" d="M1384.421,-297.1917C1367.2803,-308.3093 1343.9477,-321.9031 1321.5,-330 1302.84,-336.7306 1282.8063,-342.2592 1262.7613,-346.7951"/>
<polygon fill="#ffffff" stroke="#ffffff" points="1261.9491,-343.3899 1252.9261,-348.9431 1263.4427,-350.2288 1261.9491,-343.3899"/>
<text text-anchor="middle" x="1440" y="-318.8" font-family="Times,serif" font-size="14.00" fill="#ffffff"> 5.0 row(s) | 20.0% estd.</text>
</g>
<!-- 94573938511376 -->
<g id="node21" class="node">
<title>94573938511376</title>
<polygon fill="none" stroke="#ffffff" points="1578.5,-210 1226.5,-210 1226.5,-174 1578.5,-174 1578.5,-210"/>
<text text-anchor="middle" x="1402.5" y="-188.3" font-family="Times,serif" font-size="14.00" fill="#ffffff">[Projection] n_nationkey, n_name, n_regionkey</text>
</g>
<!-- 94573938511376&#45;&gt;94574205160448 -->
<g id="edge20" class="edge">
<title>94573938511376&#45;&gt;94574205160448</title>
<path fill="none" stroke="#ffffff" d="M1404.1576,-210.0265C1405.241,-221.8082 1406.6783,-237.4393 1407.9108,-250.8419"/>
<polygon fill="#ffffff" stroke="#ffffff" points="1404.4435,-251.3592 1408.8445,-260.9966 1411.414,-250.7181 1404.4435,-251.3592"/>
<text text-anchor="middle" x="1504" y="-231.8" font-family="Times,serif" font-size="14.00" fill="#ffffff"> 25.0 row(s) | 100.0% estd.</text>
</g>
<!-- 94573701471280 -->
<g id="node22" class="node">
<title>94573701471280</title>
<polygon fill="none" stroke="#ffffff" points="1514,-123 1291,-123 1291,-87 1514,-87 1514,-123"/>
<text text-anchor="middle" x="1402.5" y="-101.3" font-family="Times,serif" font-size="14.00" fill="#ffffff">[StoredTable] Name: &#39;nation&#39;</text>
</g>
<!-- 94573701471280&#45;&gt;94573938511376 -->
<g id="edge21" class="edge">
<title>94573701471280&#45;&gt;94573938511376</title>
<path fill="none" stroke="#ffffff" d="M1402.5,-123.0265C1402.5,-134.8082 1402.5,-150.4393 1402.5,-163.8419"/>
<polygon fill="#ffffff" stroke="#ffffff" points="1399.0001,-163.9966 1402.5,-173.9966 1406.0001,-163.9967 1399.0001,-163.9966"/>
<text text-anchor="middle" x="1499" y="-144.8" font-family="Times,serif" font-size="14.00" fill="#ffffff"> 25.0 row(s) | 100.0% estd.</text>
</g>
<!-- 94574809793456 -->
<g id="node23" class="node">
<title>94574809793456</title>
<polygon fill="none" stroke="#ffffff" points="1847,-210 1596,-210 1596,-174 1847,-174 1847,-210"/>
<text text-anchor="middle" x="1721.5" y="-188.3" font-family="Times,serif" font-size="14.00" fill="#ffffff">[Projection] r_regionkey, r_name</text>
</g>
<!-- 94574809793456&#45;&gt;94574205160448 -->
<g id="edge22" class="edge">
<title>94574809793456&#45;&gt;94574205160448</title>
<path fill="none" stroke="#ffffff" d="M1685.9407,-210.0283C1663.1571,-220.9393 1632.678,-234.3677 1604.5,-243 1584.354,-249.1717 1562.6895,-254.456 1541.3991,-258.9229"/>
<polygon fill="#ffffff" stroke="#ffffff" points="1540.4155,-255.5515 1531.3195,-260.9839 1541.8179,-262.4096 1540.4155,-255.5515"/>
<text text-anchor="middle" x="1736.5" y="-231.8" font-family="Times,serif" font-size="14.00" fill="#ffffff"> 1.0 row(s) | 100.0% estd.</text>
</g>
<!-- 94574241371184 -->
<g id="node24" class="node">
<title>94574241371184</title>
<polygon fill="none" stroke="#ffffff" points="1849.5,-123 1593.5,-123 1593.5,-87 1849.5,-87 1849.5,-123"/>
<text text-anchor="middle" x="1721.5" y="-101.3" font-family="Times,serif" font-size="14.00" fill="#ffffff">[Predicate] r_name = &#39;AMERICA&#39;</text>
</g>
<!-- 94574241371184&#45;&gt;94574809793456 -->
<g id="edge23" class="edge">
<title>94574241371184&#45;&gt;94574809793456</title>
<path fill="none" stroke="#ffffff" d="M1721.5,-123.0265C1721.5,-134.8082 1721.5,-150.4393 1721.5,-163.8419"/>
<polygon fill="#ffffff" stroke="#ffffff" points="1718.0001,-163.9966 1721.5,-173.9966 1725.0001,-163.9967 1718.0001,-163.9966"/>
<text text-anchor="middle" x="1809" y="-144.8" font-family="Times,serif" font-size="14.00" fill="#ffffff"> 1.0 row(s) | 20.0% estd.</text>
</g>
<!-- 94573706405776 -->
<g id="node25" class="node">
<title>94573706405776</title>
<polygon fill="none" stroke="#ffffff" points="1833.5,-36 1609.5,-36 1609.5,0 1833.5,0 1833.5,-36"/>
<text text-anchor="middle" x="1721.5" y="-14.3" font-family="Times,serif" font-size="14.00" fill="#ffffff">[StoredTable] Name: &#39;region&#39;</text>
</g>
<!-- 94573706405776&#45;&gt;94574241371184 -->
<g id="edge24" class="edge">
<title>94573706405776&#45;&gt;94574241371184</title>
<path fill="none" stroke="#ffffff" d="M1721.5,-36.0265C1721.5,-47.8082 1721.5,-63.4393 1721.5,-76.8419"/>
<polygon fill="#ffffff" stroke="#ffffff" points="1718.0001,-76.9966 1721.5,-86.9966 1725.0001,-76.9967 1718.0001,-76.9966"/>
<text text-anchor="middle" x="1813.5" y="-57.8" font-family="Times,serif" font-size="14.00" fill="#ffffff"> 5.0 row(s) | 100.0% estd.</text>
</g>
</g>
</svg>
