<?xml version="1.0" encoding="UTF-8" standalone="no"?>
<!DOCTYPE svg PUBLIC "-//W3C//DTD SVG 1.1//EN"
 "http://www.w3.org/Graphics/SVG/1.1/DTD/svg11.dtd">
<!-- Generated by graphviz version 2.40.1 (20161225.0304)
 -->
<!-- Title: G Pages: 1 -->
<svg width="1667pt" height="1637pt"
 viewBox="0.00 0.00 1666.50 1637.00" xmlns="http://www.w3.org/2000/svg" xmlns:xlink="http://www.w3.org/1999/xlink">
<g id="graph0" class="graph" transform="scale(1 1) rotate(0) translate(4 1633)">
<title>G</title>
<polygon fill="#000000" stroke="transparent" points="-4,4 -4,-1633 1662.5,-1633 1662.5,4 -4,4"/>
<!-- 94449852183264 -->
<g id="node1" class="node">
<title>94449852183264</title>
<polygon fill="none" stroke="#ffffff" points="250,-1629 133,-1629 133,-1560 250,-1560 250,-1629"/>
<text text-anchor="middle" x="191.5" y="-1613.8" font-family="Times,serif" font-size="14.00" fill="#ffffff">Alias [n_name</text>
<text text-anchor="middle" x="191.5" y="-1598.8" font-family="Times,serif" font-size="14.00" fill="#ffffff">revenue]</text>
<text text-anchor="middle" x="191.5" y="-1567.8" font-family="Times,serif" font-size="14.00" fill="#ffffff">2 µs 0 ns</text>
</g>
<!-- 94450233642784 -->
<g id="node2" class="node">
<title>94450233642784</title>
<polygon fill="none" stroke="#ffffff" points="236.5,-1509 146.5,-1509 146.5,-1455 236.5,-1455 236.5,-1509"/>
<text text-anchor="middle" x="191.5" y="-1493.8" font-family="Times,serif" font-size="14.00" fill="#ffffff">Sort</text>
<text text-anchor="middle" x="191.5" y="-1462.8" font-family="Times,serif" font-size="14.00" fill="#ffffff">49 µs 0 ns</text>
</g>
<!-- 94450233642784&#45;&gt;94449852183264 -->
<g id="edge1" class="edge">
<title>94450233642784&#45;&gt;94449852183264</title>
<path fill="none" stroke="#ffffff" d="M191.5,-1509.2331C191.5,-1521.3589 191.5,-1535.9621 191.5,-1549.6298"/>
<polygon fill="#ffffff" stroke="#ffffff" points="188.0001,-1549.8427 191.5,-1559.8427 195.0001,-1549.8428 188.0001,-1549.8427"/>
<text text-anchor="middle" x="282" y="-1530.8" font-family="Times,serif" font-size="14.00" fill="#ffffff">5 row(s)/1 chunk(s)/831B</text>
</g>
<!-- 94449695414336 -->
<g id="node3" class="node">
<title>94449695414336</title>
<polygon fill="none" stroke="#ffffff" stroke-width="2" points="375.5,-1404 7.5,-1404 7.5,-1335 375.5,-1335 375.5,-1404"/>
<text text-anchor="middle" x="191.5" y="-1388.8" font-family="Times,serif" font-size="14.00" fill="#ffffff">[Aggregate] GroupBy ColumnIDs: 1 Aggregates: </text>
<text text-anchor="middle" x="191.5" y="-1373.8" font-family="Times,serif" font-size="14.00" fill="#ffffff">SUM(Column #0)</text>
<text text-anchor="middle" x="191.5" y="-1342.8" font-family="Times,serif" font-size="14.00" fill="#ffffff">691 µs 0 ns </text>
</g>
<!-- 94449695414336&#45;&gt;94450233642784 -->
<g id="edge2" class="edge">
<title>94449695414336&#45;&gt;94450233642784</title>
<path fill="none" stroke="#ffffff" d="M191.5,-1404.1717C191.5,-1417.0092 191.5,-1431.6141 191.5,-1444.6774"/>
<polygon fill="#ffffff" stroke="#ffffff" points="188.0001,-1444.7601 191.5,-1454.7602 195.0001,-1444.7602 188.0001,-1444.7601"/>
<text text-anchor="middle" x="282" y="-1425.8" font-family="Times,serif" font-size="14.00" fill="#ffffff">5 row(s)/1 chunk(s)/831B</text>
</g>
<!-- 94449709885536 -->
<g id="node4" class="node">
<title>94449709885536</title>
<polygon fill="none" stroke="#ffffff" stroke-width="3" points="248,-1284 135,-1284 135,-1230 248,-1230 248,-1284"/>
<text text-anchor="middle" x="191.5" y="-1268.8" font-family="Times,serif" font-size="14.00" fill="#ffffff">Projection</text>
<text text-anchor="middle" x="191.5" y="-1237.8" font-family="Times,serif" font-size="14.00" fill="#ffffff">22 ms 329 µs</text>
</g>
<!-- 94449709885536&#45;&gt;94449695414336 -->
<g id="edge3" class="edge">
<title>94449709885536&#45;&gt;94449695414336</title>
<path fill="none" stroke="#ffffff" stroke-width="2" d="M191.5,-1284.2331C191.5,-1296.3589 191.5,-1310.9621 191.5,-1324.6298"/>
<polygon fill="#ffffff" stroke="#ffffff" stroke-width="2" points="188.0001,-1324.8427 191.5,-1334.8427 195.0001,-1324.8428 188.0001,-1324.8427"/>
<text text-anchor="middle" x="321" y="-1305.8" font-family="Times,serif" font-size="14.00" fill="#ffffff">7375 row(s)/32 chunk(s)/280.500KB</text>
</g>
<!-- 94449695649520 -->
<g id="node5" class="node">
<title>94449695649520</title>
<polygon fill="none" stroke="#ffffff" stroke-width="2" points="291.5,-1179 91.5,-1179 91.5,-1080 291.5,-1080 291.5,-1179"/>
<text text-anchor="middle" x="191.5" y="-1163.8" font-family="Times,serif" font-size="14.00" fill="#ffffff">TableScan</text>
<text text-anchor="middle" x="191.5" y="-1148.8" font-family="Times,serif" font-size="14.00" fill="#ffffff">Impl: ColumnComparison</text>
<text text-anchor="middle" x="191.5" y="-1133.8" font-family="Times,serif" font-size="14.00" fill="#ffffff">c_nationkey = </text>
<text text-anchor="middle" x="191.5" y="-1118.8" font-family="Times,serif" font-size="14.00" fill="#ffffff">s_nationkey</text>
<text text-anchor="middle" x="191.5" y="-1087.8" font-family="Times,serif" font-size="14.00" fill="#ffffff">4 ms 392 µs </text>
</g>
<!-- 94449695649520&#45;&gt;94449709885536 -->
<g id="edge4" class="edge">
<title>94449695649520&#45;&gt;94449709885536</title>
<path fill="none" stroke="#ffffff" stroke-width="2" d="M191.5,-1179.1599C191.5,-1192.598 191.5,-1206.9153 191.5,-1219.5584"/>
<polygon fill="#ffffff" stroke="#ffffff" stroke-width="2" points="188.0001,-1219.7287 191.5,-1229.7287 195.0001,-1219.7288 188.0001,-1219.7287"/>
<text text-anchor="middle" x="321" y="-1200.8" font-family="Times,serif" font-size="14.00" fill="#ffffff">7375 row(s)/32 chunk(s)/977.039KB</text>
</g>
<!-- 94449873199056 -->
<g id="node6" class="node">
<title>94449873199056</title>
<polygon fill="none" stroke="#ffffff" stroke-width="3" points="311,-1029 72,-1029 72,-945 311,-945 311,-1029"/>
<text text-anchor="middle" x="191.5" y="-1013.8" font-family="Times,serif" font-size="14.00" fill="#ffffff">JoinHash</text>
<text text-anchor="middle" x="191.5" y="-998.8" font-family="Times,serif" font-size="14.00" fill="#ffffff">(Inner Join where c_custkey = </text>
<text text-anchor="middle" x="191.5" y="-983.8" font-family="Times,serif" font-size="14.00" fill="#ffffff">o_custkey)</text>
<text text-anchor="middle" x="191.5" y="-952.8" font-family="Times,serif" font-size="14.00" fill="#ffffff">50 ms 316 µs </text>
</g>
<!-- 94449873199056&#45;&gt;94449695649520 -->
<g id="edge5" class="edge">
<title>94449873199056&#45;&gt;94449695649520</title>
<path fill="none" stroke="#ffffff" stroke-width="3" d="M191.5,-1029.3689C191.5,-1041.9866 191.5,-1056.0589 191.5,-1069.5734"/>
<polygon fill="#ffffff" stroke="#ffffff" stroke-width="3" points="188.0001,-1069.7659 191.5,-1079.7659 195.0001,-1069.766 188.0001,-1069.7659"/>
<text text-anchor="middle" x="327.5" y="-1050.8" font-family="Times,serif" font-size="14.00" fill="#ffffff">184970 row(s)/32 chunk(s)/23.709MB</text>
</g>
<!-- 94450670327184 -->
<g id="node7" class="node">
<title>94450670327184</title>
<polygon fill="none" stroke="#ffffff" stroke-width="2" points="101,-879 2,-879 2,-825 101,-825 101,-879"/>
<text text-anchor="middle" x="51.5" y="-863.8" font-family="Times,serif" font-size="14.00" fill="#ffffff">Projection</text>
<text text-anchor="middle" x="51.5" y="-832.8" font-family="Times,serif" font-size="14.00" fill="#ffffff">510 µs 0 ns</text>
</g>
<!-- 94450670327184&#45;&gt;94449873199056 -->
<g id="edge6" class="edge">
<title>94450670327184&#45;&gt;94449873199056</title>
<path fill="none" stroke="#ffffff" stroke-width="3" d="M46.8277,-879.2286C45.6869,-894.5548 46.9369,-913.3048 56.5,-927 59.1741,-930.8295 62.1509,-934.4178 65.3737,-937.7799"/>
<polygon fill="#ffffff" stroke="#ffffff" stroke-width="3" points="63.1241,-940.4692 72.8004,-944.7843 67.927,-935.3768 63.1241,-940.4692"/>
<text text-anchor="middle" x="183.5" y="-915.8" font-family="Times,serif" font-size="14.00" fill="#ffffff">150000 row(s)/2 chunk(s)/3.051MB</text>
</g>
<!-- 94450670316800 -->
<g id="node8" class="node">
<title>94450670316800</title>
<polygon fill="none" stroke="#ffffff" points="95,-751.5 0,-751.5 0,-682.5 95,-682.5 95,-751.5"/>
<text text-anchor="middle" x="47.5" y="-736.3" font-family="Times,serif" font-size="14.00" fill="#ffffff">GetTable</text>
<text text-anchor="middle" x="47.5" y="-721.3" font-family="Times,serif" font-size="14.00" fill="#ffffff">(customer)</text>
<text text-anchor="middle" x="47.5" y="-690.3" font-family="Times,serif" font-size="14.00" fill="#ffffff">1 µs 0 ns</text>
</g>
<!-- 94450670316800&#45;&gt;94450670327184 -->
<g id="edge7" class="edge">
<title>94450670316800&#45;&gt;94450670327184</title>
<path fill="none" stroke="#ffffff" stroke-width="3" d="M48.5301,-751.7659C49.0991,-770.9703 49.8063,-794.8393 50.3879,-814.4668"/>
<polygon fill="#ffffff" stroke="#ffffff" stroke-width="3" points="46.893,-814.6948 50.6878,-824.5867 53.89,-814.4874 46.893,-814.6948"/>
<text text-anchor="middle" x="182" y="-780.8" font-family="Times,serif" font-size="14.00" fill="#ffffff">150000 row(s)/2 chunk(s)/25.479MB</text>
</g>
<!-- 94449698212432 -->
<g id="node9" class="node">
<title>94449698212432</title>
<polygon fill="none" stroke="#ffffff" stroke-width="3" points="457.5,-894 209.5,-894 209.5,-810 457.5,-810 457.5,-894"/>
<text text-anchor="middle" x="333.5" y="-878.8" font-family="Times,serif" font-size="14.00" fill="#ffffff">JoinHash</text>
<text text-anchor="middle" x="333.5" y="-863.8" font-family="Times,serif" font-size="14.00" fill="#ffffff">(Inner Join where o_orderkey = </text>
<text text-anchor="middle" x="333.5" y="-848.8" font-family="Times,serif" font-size="14.00" fill="#ffffff">l_orderkey)</text>
<text text-anchor="middle" x="333.5" y="-817.8" font-family="Times,serif" font-size="14.00" fill="#ffffff">95 ms 279 µs </text>
</g>
<!-- 94449698212432&#45;&gt;94449873199056 -->
<g id="edge8" class="edge">
<title>94449698212432&#45;&gt;94449873199056</title>
<path fill="none" stroke="#ffffff" stroke-width="3" d="M326.8838,-894.2794C323.476,-905.8465 318.315,-917.7345 310.5,-927 307.0911,-931.0416 303.3427,-934.8397 299.3424,-938.4056"/>
<polygon fill="#ffffff" stroke="#ffffff" stroke-width="3" points="296.8549,-935.9201 291.3621,-944.9799 301.3058,-941.3228 296.8549,-935.9201"/>
<text text-anchor="middle" x="456.5" y="-915.8" font-family="Times,serif" font-size="14.00" fill="#ffffff">184970 row(s)/16 chunk(s)/20.731MB</text>
</g>
<!-- 94449696773568 -->
<g id="node10" class="node">
<title>94449696773568</title>
<polygon fill="none" stroke="#ffffff" points="376.5,-744 286.5,-744 286.5,-690 376.5,-690 376.5,-744"/>
<text text-anchor="middle" x="331.5" y="-728.8" font-family="Times,serif" font-size="14.00" fill="#ffffff">Projection</text>
<text text-anchor="middle" x="331.5" y="-697.8" font-family="Times,serif" font-size="14.00" fill="#ffffff">15 µs 0 ns</text>
</g>
<!-- 94449696773568&#45;&gt;94449698212432 -->
<g id="edge9" class="edge">
<title>94449696773568&#45;&gt;94449698212432</title>
<path fill="none" stroke="#ffffff" stroke-width="3" d="M331.9047,-744.3193C332.1408,-760.2545 332.4465,-780.8871 332.727,-799.8217"/>
<polygon fill="#ffffff" stroke="#ffffff" stroke-width="3" points="329.2274,-799.8819 332.8752,-809.8289 336.2266,-799.7781 329.2274,-799.8819"/>
<text text-anchor="middle" x="465" y="-780.8" font-family="Times,serif" font-size="14.00" fill="#ffffff">227597 row(s)/15 chunk(s)/5.466MB</text>
</g>
<!-- 94449695644816 -->
<g id="node11" class="node">
<title>94449695644816</title>
<polygon fill="none" stroke="#ffffff" stroke-width="2" points="443,-624 206,-624 206,-525 443,-525 443,-624"/>
<text text-anchor="middle" x="324.5" y="-608.8" font-family="Times,serif" font-size="14.00" fill="#ffffff">TableScan</text>
<text text-anchor="middle" x="324.5" y="-593.8" font-family="Times,serif" font-size="14.00" fill="#ffffff">Impl: BetweenScan</text>
<text text-anchor="middle" x="324.5" y="-578.8" font-family="Times,serif" font-size="14.00" fill="#ffffff">o_orderdate BETWEEN </text>
<text text-anchor="middle" x="324.5" y="-563.8" font-family="Times,serif" font-size="14.00" fill="#ffffff">&#39;1994&#45;01&#45;01&#39; AND &#39;1995&#45;01&#45;00&#39;</text>
<text text-anchor="middle" x="324.5" y="-532.8" font-family="Times,serif" font-size="14.00" fill="#ffffff">3 ms 830 µs </text>
</g>
<!-- 94449695644816&#45;&gt;94449696773568 -->
<g id="edge10" class="edge">
<title>94449695644816&#45;&gt;94449696773568</title>
<path fill="none" stroke="#ffffff" stroke-width="3" d="M326.9483,-624.3396C327.8429,-642.551 328.8385,-662.8196 329.6699,-679.7453"/>
<polygon fill="#ffffff" stroke="#ffffff" stroke-width="3" points="326.1775,-679.9874 330.164,-689.8036 333.1691,-679.6439 326.1775,-679.9874"/>
<text text-anchor="middle" x="464.5" y="-645.8" font-family="Times,serif" font-size="14.00" fill="#ffffff">227597 row(s)/15 chunk(s)/16.396MB</text>
</g>
<!-- 94450670335600 -->
<g id="node12" class="node">
<title>94450670335600</title>
<polygon fill="none" stroke="#ffffff" points="356,-466.5 275,-466.5 275,-397.5 356,-397.5 356,-466.5"/>
<text text-anchor="middle" x="315.5" y="-451.3" font-family="Times,serif" font-size="14.00" fill="#ffffff">GetTable</text>
<text text-anchor="middle" x="315.5" y="-436.3" font-family="Times,serif" font-size="14.00" fill="#ffffff">(orders)</text>
<text text-anchor="middle" x="315.5" y="-405.3" font-family="Times,serif" font-size="14.00" fill="#ffffff">0 ns</text>
</g>
<!-- 94450670335600&#45;&gt;94449695644816 -->
<g id="edge11" class="edge">
<title>94450670335600&#45;&gt;94449695644816</title>
<path fill="none" stroke="#ffffff" stroke-width="4" d="M317.7016,-466.8594C318.6153,-481.3251 319.7017,-498.5265 320.7349,-514.8865"/>
<polygon fill="#ffffff" stroke="#ffffff" stroke-width="4" points="317.246,-515.1728 321.3694,-524.9323 324.232,-514.7315 317.246,-515.1728"/>
<text text-anchor="middle" x="465.5" y="-495.8" font-family="Times,serif" font-size="14.00" fill="#ffffff">1500000 row(s)/15 chunk(s)/114.197MB</text>
</g>
<!-- 94449698595472 -->
<g id="node13" class="node">
<title>94449698595472</title>
<polygon fill="none" stroke="#ffffff" stroke-width="3" points="748,-759 509,-759 509,-675 748,-675 748,-759"/>
<text text-anchor="middle" x="628.5" y="-743.8" font-family="Times,serif" font-size="14.00" fill="#ffffff">JoinHash</text>
<text text-anchor="middle" x="628.5" y="-728.8" font-family="Times,serif" font-size="14.00" fill="#ffffff">(Inner Join where l_suppkey = </text>
<text text-anchor="middle" x="628.5" y="-713.8" font-family="Times,serif" font-size="14.00" fill="#ffffff">s_suppkey)</text>
<text text-anchor="middle" x="628.5" y="-682.8" font-family="Times,serif" font-size="14.00" fill="#ffffff">122 ms 989 µs </text>
</g>
<!-- 94449698595472&#45;&gt;94449698212432 -->
<g id="edge12" class="edge">
<title>94449698595472&#45;&gt;94449698212432</title>
<path fill="none" stroke="#ffffff" stroke-width="4" d="M620.7481,-759.1639C616.5997,-771.2823 610.2409,-783.5035 600.5,-792 579.8122,-810.0448 523.3945,-824.0247 467.7203,-833.9325"/>
<polygon fill="#ffffff" stroke="#ffffff" stroke-width="4" points="466.9607,-830.512 457.708,-835.6731 468.1597,-837.4086 466.9607,-830.512"/>
<text text-anchor="middle" x="754" y="-780.8" font-family="Times,serif" font-size="14.00" fill="#ffffff">1222276 row(s)/1 chunk(s)/107.561MB</text>
</g>
<!-- 94450670329472 -->
<g id="node14" class="node">
<title>94450670329472</title>
<polygon fill="none" stroke="#ffffff" stroke-width="2" points="680.5,-601.5 576.5,-601.5 576.5,-547.5 680.5,-547.5 680.5,-601.5"/>
<text text-anchor="middle" x="628.5" y="-586.3" font-family="Times,serif" font-size="14.00" fill="#ffffff">Projection</text>
<text text-anchor="middle" x="628.5" y="-555.3" font-family="Times,serif" font-size="14.00" fill="#ffffff">4 ms 289 µs</text>
</g>
<!-- 94450670329472&#45;&gt;94449698595472 -->
<g id="edge13" class="edge">
<title>94450670329472&#45;&gt;94449698595472</title>
<path fill="none" stroke="#ffffff" stroke-width="4" d="M628.5,-601.6386C628.5,-619.404 628.5,-643.2016 628.5,-664.5675"/>
<polygon fill="#ffffff" stroke="#ffffff" stroke-width="4" points="625.0001,-664.8237 628.5,-674.8237 632.0001,-664.8237 625.0001,-664.8237"/>
<text text-anchor="middle" x="773.5" y="-645.8" font-family="Times,serif" font-size="14.00" fill="#ffffff">6001215 row(s)/61 chunk(s)/156.234MB</text>
</g>
<!-- 94450670336912 -->
<g id="node15" class="node">
<title>94450670336912</title>
<polygon fill="none" stroke="#ffffff" points="671.5,-466.5 585.5,-466.5 585.5,-397.5 671.5,-397.5 671.5,-466.5"/>
<text text-anchor="middle" x="628.5" y="-451.3" font-family="Times,serif" font-size="14.00" fill="#ffffff">GetTable</text>
<text text-anchor="middle" x="628.5" y="-436.3" font-family="Times,serif" font-size="14.00" fill="#ffffff">(lineitem)</text>
<text text-anchor="middle" x="628.5" y="-405.3" font-family="Times,serif" font-size="14.00" fill="#ffffff">0 ns</text>
</g>
<!-- 94450670336912&#45;&gt;94450670329472 -->
<g id="edge14" class="edge">
<title>94450670336912&#45;&gt;94450670329472</title>
<path fill="none" stroke="#ffffff" stroke-width="4" d="M628.5,-466.8594C628.5,-488.1022 628.5,-515.2444 628.5,-536.9586"/>
<polygon fill="#ffffff" stroke="#ffffff" stroke-width="4" points="625.0001,-537.1326 628.5,-547.1326 632.0001,-537.1327 625.0001,-537.1326"/>
<text text-anchor="middle" x="773.5" y="-495.8" font-family="Times,serif" font-size="14.00" fill="#ffffff">6001215 row(s)/61 chunk(s)/500.660MB</text>
</g>
<!-- 94450796817344 -->
<g id="node16" class="node">
<title>94450796817344</title>
<polygon fill="none" stroke="#ffffff" stroke-width="2" points="1068,-616.5 815,-616.5 815,-532.5 1068,-532.5 1068,-616.5"/>
<text text-anchor="middle" x="941.5" y="-601.3" font-family="Times,serif" font-size="14.00" fill="#ffffff">JoinHash</text>
<text text-anchor="middle" x="941.5" y="-586.3" font-family="Times,serif" font-size="14.00" fill="#ffffff">(Inner Join where s_nationkey = </text>
<text text-anchor="middle" x="941.5" y="-571.3" font-family="Times,serif" font-size="14.00" fill="#ffffff">n_nationkey)</text>
<text text-anchor="middle" x="941.5" y="-540.3" font-family="Times,serif" font-size="14.00" fill="#ffffff">251 µs 0 ns </text>
</g>
<!-- 94450796817344&#45;&gt;94449698595472 -->
<g id="edge15" class="edge">
<title>94450796817344&#45;&gt;94449698595472</title>
<path fill="none" stroke="#ffffff" stroke-width="2" d="M939.129,-616.8756C936.2186,-631.4134 930.4931,-646.6191 919.5,-657 895.7774,-679.4016 824.439,-694.3149 758.3378,-703.6704"/>
<polygon fill="#ffffff" stroke="#ffffff" stroke-width="2" points="757.6345,-700.2342 748.2064,-705.0676 758.5909,-707.1686 757.6345,-700.2342"/>
<text text-anchor="middle" x="1055.5" y="-645.8" font-family="Times,serif" font-size="14.00" fill="#ffffff">2036 row(s)/1 chunk(s)/114.713KB</text>
</g>
<!-- 94449703318480 -->
<g id="node17" class="node">
<title>94449703318480</title>
<polygon fill="none" stroke="#ffffff" points="986.5,-459 896.5,-459 896.5,-405 986.5,-405 986.5,-459"/>
<text text-anchor="middle" x="941.5" y="-443.8" font-family="Times,serif" font-size="14.00" fill="#ffffff">Projection</text>
<text text-anchor="middle" x="941.5" y="-412.8" font-family="Times,serif" font-size="14.00" fill="#ffffff">21 µs 0 ns</text>
</g>
<!-- 94449703318480&#45;&gt;94450796817344 -->
<g id="edge16" class="edge">
<title>94449703318480&#45;&gt;94450796817344</title>
<path fill="none" stroke="#ffffff" stroke-width="2" d="M941.5,-459.1386C941.5,-476.904 941.5,-500.7016 941.5,-522.0675"/>
<polygon fill="#ffffff" stroke="#ffffff" stroke-width="2" points="938.0001,-522.3237 941.5,-532.3237 945.0001,-522.3237 938.0001,-522.3237"/>
<text text-anchor="middle" x="1071" y="-495.8" font-family="Times,serif" font-size="14.00" fill="#ffffff">10000 row(s)/1 chunk(s)/190.704KB</text>
</g>
<!-- 94450670321056 -->
<g id="node18" class="node">
<title>94450670321056</title>
<polygon fill="none" stroke="#ffffff" points="984.5,-339 898.5,-339 898.5,-270 984.5,-270 984.5,-339"/>
<text text-anchor="middle" x="941.5" y="-323.8" font-family="Times,serif" font-size="14.00" fill="#ffffff">GetTable</text>
<text text-anchor="middle" x="941.5" y="-308.8" font-family="Times,serif" font-size="14.00" fill="#ffffff">(supplier)</text>
<text text-anchor="middle" x="941.5" y="-277.8" font-family="Times,serif" font-size="14.00" fill="#ffffff">1 µs 0 ns</text>
</g>
<!-- 94450670321056&#45;&gt;94449703318480 -->
<g id="edge17" class="edge">
<title>94450670321056&#45;&gt;94449703318480</title>
<path fill="none" stroke="#ffffff" stroke-width="2" d="M941.5,-339.0033C941.5,-356.104 941.5,-376.7892 941.5,-394.3049"/>
<polygon fill="#ffffff" stroke="#ffffff" stroke-width="2" points="938.0001,-394.7409 941.5,-404.7409 945.0001,-394.741 938.0001,-394.7409"/>
<text text-anchor="middle" x="1064" y="-360.8" font-family="Times,serif" font-size="14.00" fill="#ffffff">10000 row(s)/1 chunk(s)/1.610MB</text>
</g>
<!-- 94450888065184 -->
<g id="node19" class="node">
<title>94450888065184</title>
<polygon fill="none" stroke="#ffffff" stroke-width="2" points="1351,-474 1096,-474 1096,-390 1351,-390 1351,-474"/>
<text text-anchor="middle" x="1223.5" y="-458.8" font-family="Times,serif" font-size="14.00" fill="#ffffff">JoinHash</text>
<text text-anchor="middle" x="1223.5" y="-443.8" font-family="Times,serif" font-size="14.00" fill="#ffffff">(Inner Join where n_regionkey = </text>
<text text-anchor="middle" x="1223.5" y="-428.8" font-family="Times,serif" font-size="14.00" fill="#ffffff">r_regionkey)</text>
<text text-anchor="middle" x="1223.5" y="-397.8" font-family="Times,serif" font-size="14.00" fill="#ffffff">111 µs 0 ns </text>
</g>
<!-- 94450888065184&#45;&gt;94450796817344 -->
<g id="edge18" class="edge">
<title>94450888065184&#45;&gt;94450796817344</title>
<path fill="none" stroke="#ffffff" d="M1219.019,-474.2063C1215.8272,-486.1821 1210.4646,-498.3119 1201.5,-507 1182.7419,-525.1796 1130.6112,-540.3744 1077.9082,-551.7154"/>
<polygon fill="#ffffff" stroke="#ffffff" points="1077.1325,-548.3019 1068.0687,-553.788 1078.5754,-555.1515 1077.1325,-548.3019"/>
<text text-anchor="middle" x="1302" y="-495.8" font-family="Times,serif" font-size="14.00" fill="#ffffff">5 row(s)/1 chunk(s)/765B</text>
</g>
<!-- 94450670332880 -->
<g id="node20" class="node">
<title>94450670332880</title>
<polygon fill="none" stroke="#ffffff" points="1261.5,-331.5 1171.5,-331.5 1171.5,-277.5 1261.5,-277.5 1261.5,-331.5"/>
<text text-anchor="middle" x="1216.5" y="-316.3" font-family="Times,serif" font-size="14.00" fill="#ffffff">Projection</text>
<text text-anchor="middle" x="1216.5" y="-285.3" font-family="Times,serif" font-size="14.00" fill="#ffffff">5 µs 0 ns</text>
</g>
<!-- 94450670332880&#45;&gt;94450888065184 -->
<g id="edge19" class="edge">
<title>94450670332880&#45;&gt;94450888065184</title>
<path fill="none" stroke="#ffffff" d="M1216.3782,-331.7786C1216.4587,-344.0769 1216.7423,-358.7781 1217.5,-372 1217.6441,-374.5149 1217.8141,-377.0871 1218.0039,-379.6836"/>
<polygon fill="#ffffff" stroke="#ffffff" points="1214.5233,-380.0654 1218.821,-389.7494 1221.5004,-379.499 1214.5233,-380.0654"/>
<text text-anchor="middle" x="1324.5" y="-360.8" font-family="Times,serif" font-size="14.00" fill="#ffffff">25 row(s)/1 chunk(s)/1.971KB</text>
</g>
<!-- 94450670322592 -->
<g id="node21" class="node">
<title>94450670322592</title>
<polygon fill="none" stroke="#ffffff" points="1257,-204 1176,-204 1176,-135 1257,-135 1257,-204"/>
<text text-anchor="middle" x="1216.5" y="-188.8" font-family="Times,serif" font-size="14.00" fill="#ffffff">GetTable</text>
<text text-anchor="middle" x="1216.5" y="-173.8" font-family="Times,serif" font-size="14.00" fill="#ffffff">(nation)</text>
<text text-anchor="middle" x="1216.5" y="-142.8" font-family="Times,serif" font-size="14.00" fill="#ffffff">0 ns</text>
</g>
<!-- 94450670322592&#45;&gt;94450670332880 -->
<g id="edge20" class="edge">
<title>94450670322592&#45;&gt;94450670332880</title>
<path fill="none" stroke="#ffffff" d="M1216.5,-204.2659C1216.5,-223.4703 1216.5,-247.3393 1216.5,-266.9668"/>
<polygon fill="#ffffff" stroke="#ffffff" points="1213.0001,-267.0867 1216.5,-277.0867 1220.0001,-267.0867 1213.0001,-267.0867"/>
<text text-anchor="middle" x="1323.5" y="-240.8" font-family="Times,serif" font-size="14.00" fill="#ffffff">25 row(s)/1 chunk(s)/2.869KB</text>
</g>
<!-- 94450275736320 -->
<g id="node22" class="node">
<title>94450275736320</title>
<polygon fill="none" stroke="#ffffff" points="1498.5,-331.5 1408.5,-331.5 1408.5,-277.5 1498.5,-277.5 1498.5,-331.5"/>
<text text-anchor="middle" x="1453.5" y="-316.3" font-family="Times,serif" font-size="14.00" fill="#ffffff">Projection</text>
<text text-anchor="middle" x="1453.5" y="-285.3" font-family="Times,serif" font-size="14.00" fill="#ffffff">2 µs 0 ns</text>
</g>
<!-- 94450275736320&#45;&gt;94450888065184 -->
<g id="edge21" class="edge">
<title>94450275736320&#45;&gt;94450888065184</title>
<path fill="none" stroke="#ffffff" d="M1450.6835,-331.696C1447.9064,-345.4712 1442.4019,-361.4651 1431.5,-372 1419.8047,-383.3016 1392.244,-393.8193 1360.882,-402.7914"/>
<polygon fill="#ffffff" stroke="#ffffff" points="1359.7386,-399.4765 1351.0403,-405.5254 1361.6123,-406.2211 1359.7386,-399.4765"/>
<text text-anchor="middle" x="1533" y="-360.8" font-family="Times,serif" font-size="14.00" fill="#ffffff">1 row(s)/1 chunk(s)/385B</text>
</g>
<!-- 94449695651088 -->
<g id="node23" class="node">
<title>94449695651088</title>
<polygon fill="none" stroke="#ffffff" points="1544,-219 1363,-219 1363,-120 1544,-120 1544,-219"/>
<text text-anchor="middle" x="1453.5" y="-203.8" font-family="Times,serif" font-size="14.00" fill="#ffffff">TableScan</text>
<text text-anchor="middle" x="1453.5" y="-188.8" font-family="Times,serif" font-size="14.00" fill="#ffffff">Impl: LiteralTableScan</text>
<text text-anchor="middle" x="1453.5" y="-173.8" font-family="Times,serif" font-size="14.00" fill="#ffffff">r_name = </text>
<text text-anchor="middle" x="1453.5" y="-158.8" font-family="Times,serif" font-size="14.00" fill="#ffffff">&#39;AMERICA&#39;</text>
<text text-anchor="middle" x="1453.5" y="-127.8" font-family="Times,serif" font-size="14.00" fill="#ffffff">36 µs 0 ns </text>
</g>
<!-- 94449695651088&#45;&gt;94450275736320 -->
<g id="edge22" class="edge">
<title>94449695651088&#45;&gt;94450275736320</title>
<path fill="none" stroke="#ffffff" d="M1453.5,-219.0024C1453.5,-234.8677 1453.5,-252.1639 1453.5,-267.0225"/>
<polygon fill="#ffffff" stroke="#ffffff" points="1450.0001,-267.3558 1453.5,-277.3558 1457.0001,-267.3558 1450.0001,-267.3558"/>
<text text-anchor="middle" x="1544" y="-240.8" font-family="Times,serif" font-size="14.00" fill="#ffffff">1 row(s)/1 chunk(s)/458B</text>
</g>
<!-- 94450274964192 -->
<g id="node24" class="node">
<title>94450274964192</title>
<polygon fill="none" stroke="#ffffff" points="1494,-69 1413,-69 1413,0 1494,0 1494,-69"/>
<text text-anchor="middle" x="1453.5" y="-53.8" font-family="Times,serif" font-size="14.00" fill="#ffffff">GetTable</text>
<text text-anchor="middle" x="1453.5" y="-38.8" font-family="Times,serif" font-size="14.00" fill="#ffffff">(region)</text>
<text text-anchor="middle" x="1453.5" y="-7.8" font-family="Times,serif" font-size="14.00" fill="#ffffff">0 ns</text>
</g>
<!-- 94450274964192&#45;&gt;94449695651088 -->
<g id="edge23" class="edge">
<title>94450274964192&#45;&gt;94449695651088</title>
<path fill="none" stroke="#ffffff" d="M1453.5,-69.2659C1453.5,-81.5301 1453.5,-95.6967 1453.5,-109.446"/>
<polygon fill="#ffffff" stroke="#ffffff" points="1450.0001,-109.8405 1453.5,-119.8405 1457.0001,-109.8406 1450.0001,-109.8405"/>
<text text-anchor="middle" x="1556" y="-90.8" font-family="Times,serif" font-size="14.00" fill="#ffffff">5 row(s)/1 chunk(s)/1.089KB</text>
</g>
</g>
</svg>
