<?xml version="1.0" encoding="UTF-8" standalone="no"?>
<!DOCTYPE svg PUBLIC "-//W3C//DTD SVG 1.1//EN"
 "http://www.w3.org/Graphics/SVG/1.1/DTD/svg11.dtd">
<!-- Generated by graphviz version 2.40.1 (20161225.0304)
 -->
<!-- Title: G Pages: 1 -->
<svg width="1367pt" height="1003pt"
 viewBox="0.00 0.00 1366.50 1003.00" xmlns="http://www.w3.org/2000/svg" xmlns:xlink="http://www.w3.org/1999/xlink">
<g id="graph0" class="graph" transform="scale(1 1) rotate(0) translate(4 999)">
<title>G</title>
<polygon fill="#000000" stroke="transparent" points="-4,4 -4,-999 1362.5,-999 1362.5,4 -4,4"/>
<!-- 94574237562624 -->
<g id="node1" class="node">
<title>94574237562624</title>
<polygon fill="none" stroke="#ffffff" points="1142,-995 765,-995 765,-942 1142,-942 1142,-995"/>
<text text-anchor="middle" x="953.5" y="-979.8" font-family="Times,serif" font-size="14.00" fill="#ffffff">Alias [c_custkey, c_name, SUM(l_extendedprice * </text>
<text text-anchor="middle" x="953.5" y="-964.8" font-family="Times,serif" font-size="14.00" fill="#ffffff">(1 &#45; l_discount)) AS revenue, c_acctbal, n_name, </text>
<text text-anchor="middle" x="953.5" y="-949.8" font-family="Times,serif" font-size="14.00" fill="#ffffff">c_address, c_phone, c_comment] </text>
</g>
<!-- 94574890012672 -->
<g id="node2" class="node">
<title>94574890012672</title>
<polygon fill="none" stroke="#ffffff" points="1151,-891 756,-891 756,-838 1151,-838 1151,-891"/>
<text text-anchor="middle" x="953.5" y="-875.8" font-family="Times,serif" font-size="14.00" fill="#ffffff">[Projection] c_custkey, c_name, </text>
<text text-anchor="middle" x="953.5" y="-860.8" font-family="Times,serif" font-size="14.00" fill="#ffffff">SUM(l_extendedprice * (1 &#45; l_discount)), </text>
<text text-anchor="middle" x="953.5" y="-845.8" font-family="Times,serif" font-size="14.00" fill="#ffffff">c_acctbal, n_name, c_address, c_phone, c_comment </text>
</g>
<!-- 94574890012672&#45;&gt;94574237562624 -->
<g id="edge1" class="edge">
<title>94574890012672&#45;&gt;94574237562624</title>
<path fill="none" stroke="#ffffff" stroke-width="4" d="M953.5,-891.0127C953.5,-903.2642 953.5,-918.0234 953.5,-931.3593"/>
<polygon fill="#ffffff" stroke="#ffffff" stroke-width="4" points="950.0001,-931.6741 953.5,-941.6741 957.0001,-931.6741 950.0001,-931.6741"/>
<text text-anchor="middle" x="1072.5" y="-912.8" font-family="Times,serif" font-size="14.00" fill="#ffffff"> 2000405.0 row(s) | 100.0% estd.</text>
</g>
<!-- 94574767942192 -->
<g id="node3" class="node">
<title>94574767942192</title>
<polygon fill="none" stroke="#ffffff" points="1129,-787 778,-787 778,-749 1129,-749 1129,-787"/>
<text text-anchor="middle" x="953.5" y="-771.8" font-family="Times,serif" font-size="14.00" fill="#ffffff">[Sort] SUM(l_extendedprice * (1 &#45; l_discount)) </text>
<text text-anchor="middle" x="953.5" y="-756.8" font-family="Times,serif" font-size="14.00" fill="#ffffff">(Descending) </text>
</g>
<!-- 94574767942192&#45;&gt;94574890012672 -->
<g id="edge2" class="edge">
<title>94574767942192&#45;&gt;94574890012672</title>
<path fill="none" stroke="#ffffff" stroke-width="4" d="M953.5,-787.0653C953.5,-798.6207 953.5,-813.7534 953.5,-827.5728"/>
<polygon fill="#ffffff" stroke="#ffffff" stroke-width="4" points="950.0001,-827.8035 953.5,-837.8035 957.0001,-827.8036 950.0001,-827.8035"/>
<text text-anchor="middle" x="1072.5" y="-808.8" font-family="Times,serif" font-size="14.00" fill="#ffffff"> 2000405.0 row(s) | 100.0% estd.</text>
</g>
<!-- 94574890013104 -->
<g id="node4" class="node">
<title>94574890013104</title>
<polygon fill="none" stroke="#ffffff" points="1153.5,-698 753.5,-698 753.5,-630 1153.5,-630 1153.5,-698"/>
<text text-anchor="middle" x="953.5" y="-682.8" font-family="Times,serif" font-size="14.00" fill="#ffffff">[Aggregate] GroupBy: [c_custkey, c_name, </text>
<text text-anchor="middle" x="953.5" y="-667.8" font-family="Times,serif" font-size="14.00" fill="#ffffff">c_acctbal, c_phone, n_name, c_address, c_comment] </text>
<text text-anchor="middle" x="953.5" y="-652.8" font-family="Times,serif" font-size="14.00" fill="#ffffff">Aggregates: [SUM(l_extendedprice * (1 &#45; </text>
<text text-anchor="middle" x="953.5" y="-637.8" font-family="Times,serif" font-size="14.00" fill="#ffffff">l_discount))] </text>
</g>
<!-- 94574890013104&#45;&gt;94574767942192 -->
<g id="edge3" class="edge">
<title>94574890013104&#45;&gt;94574767942192</title>
<path fill="none" stroke="#ffffff" stroke-width="4" d="M953.5,-698.0535C953.5,-711.1973 953.5,-726.0848 953.5,-738.7364"/>
<polygon fill="#ffffff" stroke="#ffffff" stroke-width="4" points="950.0001,-738.7505 953.5,-748.7505 957.0001,-738.7505 950.0001,-738.7505"/>
<text text-anchor="middle" x="1072.5" y="-719.8" font-family="Times,serif" font-size="14.00" fill="#ffffff"> 2000405.0 row(s) | 100.0% estd.</text>
</g>
<!-- 94574890012816 -->
<g id="node5" class="node">
<title>94574890012816</title>
<polygon fill="none" stroke="#ffffff" points="1138.5,-579 768.5,-579 768.5,-526 1138.5,-526 1138.5,-579"/>
<text text-anchor="middle" x="953.5" y="-563.8" font-family="Times,serif" font-size="14.00" fill="#ffffff">[Projection] l_extendedprice * (1 &#45; l_discount), </text>
<text text-anchor="middle" x="953.5" y="-548.8" font-family="Times,serif" font-size="14.00" fill="#ffffff">c_custkey, c_name, c_acctbal, c_phone, n_name, </text>
<text text-anchor="middle" x="953.5" y="-533.8" font-family="Times,serif" font-size="14.00" fill="#ffffff">c_address, c_comment </text>
</g>
<!-- 94574890012816&#45;&gt;94574890013104 -->
<g id="edge4" class="edge">
<title>94574890012816&#45;&gt;94574890013104</title>
<path fill="none" stroke="#ffffff" stroke-width="4" d="M953.5,-579.207C953.5,-591.3232 953.5,-605.9786 953.5,-619.6731"/>
<polygon fill="#ffffff" stroke="#ffffff" stroke-width="4" points="950.0001,-619.9001 953.5,-629.9001 957.0001,-619.9002 950.0001,-619.9001"/>
<text text-anchor="middle" x="1072.5" y="-600.8" font-family="Times,serif" font-size="14.00" fill="#ffffff"> 2000405.0 row(s) | 100.0% estd.</text>
</g>
<!-- 94574500716976 -->
<g id="node6" class="node">
<title>94574500716976</title>
<polygon fill="none" stroke="#ffffff" points="1118,-475 789,-475 789,-439 1118,-439 1118,-475"/>
<text text-anchor="middle" x="953.5" y="-453.3" font-family="Times,serif" font-size="14.00" fill="#ffffff">[Join] Mode: Inner l_orderkey = o_orderkey</text>
</g>
<!-- 94574500716976&#45;&gt;94574890012816 -->
<g id="edge5" class="edge">
<title>94574500716976&#45;&gt;94574890012816</title>
<path fill="none" stroke="#ffffff" stroke-width="4" d="M953.5,-475.4134C953.5,-486.816 953.5,-501.8627 953.5,-515.6338"/>
<polygon fill="#ffffff" stroke="#ffffff" stroke-width="4" points="950.0001,-515.8344 953.5,-525.8345 957.0001,-515.8345 950.0001,-515.8344"/>
<text text-anchor="middle" x="1063.5" y="-496.8" font-family="Times,serif" font-size="14.00" fill="#ffffff"> 2000405.0 row(s) | 0.0% estd.</text>
</g>
<!-- 94574500716800 -->
<g id="node7" class="node">
<title>94574500716800</title>
<polygon fill="none" stroke="#ffffff" points="946,-387 629,-387 629,-351 946,-351 946,-387"/>
<text text-anchor="middle" x="787.5" y="-365.3" font-family="Times,serif" font-size="14.00" fill="#ffffff">[Join] Mode: Inner c_custkey = o_custkey</text>
</g>
<!-- 94574500716800&#45;&gt;94574500716976 -->
<g id="edge6" class="edge">
<title>94574500716800&#45;&gt;94574500716976</title>
<path fill="none" stroke="#ffffff" stroke-width="4" d="M807.8054,-387.1322C820.7652,-398.0228 838.3071,-411.5528 855.5,-421 865.0473,-426.2461 875.5133,-431.0132 885.9404,-435.237"/>
<polygon fill="#ffffff" stroke="#ffffff" stroke-width="4" points="884.8898,-438.584 895.4779,-438.9614 887.4361,-432.0636 884.8898,-438.584"/>
<text text-anchor="middle" x="965.5" y="-409.8" font-family="Times,serif" font-size="14.00" fill="#ffffff"> 1500000.0 row(s) | 0.0% estd.</text>
</g>
<!-- 94574931312176 -->
<g id="node8" class="node">
<title>94574931312176</title>
<polygon fill="none" stroke="#ffffff" points="606.5,-299 260.5,-299 260.5,-263 606.5,-263 606.5,-299"/>
<text text-anchor="middle" x="433.5" y="-277.3" font-family="Times,serif" font-size="14.00" fill="#ffffff">[Join] Mode: Inner c_nationkey = n_nationkey</text>
</g>
<!-- 94574931312176&#45;&gt;94574500716800 -->
<g id="edge7" class="edge">
<title>94574931312176&#45;&gt;94574500716800</title>
<path fill="none" stroke="#ffffff" stroke-width="3" d="M479.5991,-299.0866C508.2826,-309.8142 546.1301,-323.0256 580.5,-332 605.4788,-338.5223 632.4528,-344.2645 658.4136,-349.16"/>
<polygon fill="#ffffff" stroke="#ffffff" stroke-width="3" points="657.837,-352.6126 668.3075,-350.9946 659.1133,-345.7299 657.837,-352.6126"/>
<text text-anchor="middle" x="686" y="-320.8" font-family="Times,serif" font-size="14.00" fill="#ffffff"> 150000.0 row(s) | 4.0% estd.</text>
</g>
<!-- 94574931206384 -->
<g id="node9" class="node">
<title>94574931206384</title>
<polygon fill="none" stroke="#ffffff" points="343,-212 0,-212 0,-174 343,-174 343,-212"/>
<text text-anchor="middle" x="171.5" y="-196.8" font-family="Times,serif" font-size="14.00" fill="#ffffff">[Projection] c_custkey, c_name, c_address, </text>
<text text-anchor="middle" x="171.5" y="-181.8" font-family="Times,serif" font-size="14.00" fill="#ffffff">c_nationkey, c_phone, c_acctbal, c_comment </text>
</g>
<!-- 94574931206384&#45;&gt;94574931312176 -->
<g id="edge8" class="edge">
<title>94574931206384&#45;&gt;94574931312176</title>
<path fill="none" stroke="#ffffff" stroke-width="3" d="M185.5334,-212.0721C194.9732,-223.4646 208.4196,-237.1952 223.5,-245 235.1006,-251.0039 256.2834,-256.435 280.8784,-261.1524"/>
<polygon fill="#ffffff" stroke="#ffffff" stroke-width="3" points="280.3693,-264.6175 290.8388,-262.993 281.6413,-257.7341 280.3693,-264.6175"/>
<text text-anchor="middle" x="338" y="-233.8" font-family="Times,serif" font-size="14.00" fill="#ffffff"> 150000.0 row(s) | 100.0% estd.</text>
</g>
<!-- 94573701343264 -->
<g id="node10" class="node">
<title>94573701343264</title>
<polygon fill="none" stroke="#ffffff" points="294,-123 49,-123 49,-87 294,-87 294,-123"/>
<text text-anchor="middle" x="171.5" y="-101.3" font-family="Times,serif" font-size="14.00" fill="#ffffff">[StoredTable] Name: &#39;customer&#39;</text>
</g>
<!-- 94573701343264&#45;&gt;94574931206384 -->
<g id="edge9" class="edge">
<title>94573701343264&#45;&gt;94574931206384</title>
<path fill="none" stroke="#ffffff" stroke-width="3" d="M171.5,-123.2337C171.5,-134.9125 171.5,-150.3308 171.5,-163.7022"/>
<polygon fill="#ffffff" stroke="#ffffff" stroke-width="3" points="168.0001,-163.8765 171.5,-173.8765 175.0001,-163.8765 168.0001,-163.8765"/>
<text text-anchor="middle" x="286" y="-144.8" font-family="Times,serif" font-size="14.00" fill="#ffffff"> 150000.0 row(s) | 100.0% estd.</text>
</g>
<!-- 94574890013392 -->
<g id="node11" class="node">
<title>94574890013392</title>
<polygon fill="none" stroke="#ffffff" points="616,-211 361,-211 361,-175 616,-175 616,-211"/>
<text text-anchor="middle" x="488.5" y="-189.3" font-family="Times,serif" font-size="14.00" fill="#ffffff">[Projection] n_nationkey, n_name</text>
</g>
<!-- 94574890013392&#45;&gt;94574931312176 -->
<g id="edge10" class="edge">
<title>94574890013392&#45;&gt;94574931312176</title>
<path fill="none" stroke="#ffffff" d="M477.104,-211.2337C469.3607,-223.6228 458.9874,-240.2201 450.3013,-254.118"/>
<polygon fill="#ffffff" stroke="#ffffff" points="447.2135,-252.4547 444.8814,-262.7897 453.1495,-256.1647 447.2135,-252.4547"/>
<text text-anchor="middle" x="561" y="-233.8" font-family="Times,serif" font-size="14.00" fill="#ffffff"> 25.0 row(s) | 100.0% estd.</text>
</g>
<!-- 94574454044112 -->
<g id="node12" class="node">
<title>94574454044112</title>
<polygon fill="none" stroke="#ffffff" points="600,-123 377,-123 377,-87 600,-87 600,-123"/>
<text text-anchor="middle" x="488.5" y="-101.3" font-family="Times,serif" font-size="14.00" fill="#ffffff">[StoredTable] Name: &#39;nation&#39;</text>
</g>
<!-- 94574454044112&#45;&gt;94574890013392 -->
<g id="edge11" class="edge">
<title>94574454044112&#45;&gt;94574890013392</title>
<path fill="none" stroke="#ffffff" d="M488.5,-123.2337C488.5,-135.1508 488.5,-150.9616 488.5,-164.5183"/>
<polygon fill="#ffffff" stroke="#ffffff" points="485.0001,-164.7897 488.5,-174.7897 492.0001,-164.7897 485.0001,-164.7897"/>
<text text-anchor="middle" x="585" y="-144.8" font-family="Times,serif" font-size="14.00" fill="#ffffff"> 25.0 row(s) | 100.0% estd.</text>
</g>
<!-- 94574931206240 -->
<g id="node13" class="node">
<title>94574931206240</title>
<polygon fill="none" stroke="#ffffff" points="984,-299 625,-299 625,-263 984,-263 984,-299"/>
<text text-anchor="middle" x="804.5" y="-277.3" font-family="Times,serif" font-size="14.00" fill="#ffffff">[Projection] o_orderkey, o_custkey, o_orderdate</text>
</g>
<!-- 94574931206240&#45;&gt;94574500716800 -->
<g id="edge12" class="edge">
<title>94574931206240&#45;&gt;94574500716800</title>
<path fill="none" stroke="#ffffff" stroke-width="4" d="M800.9776,-299.2337C798.6526,-311.2688 795.5605,-327.2751 792.9245,-340.9203"/>
<polygon fill="#ffffff" stroke="#ffffff" stroke-width="4" points="789.4783,-340.3073 791.0179,-350.7897 796.3512,-341.6351 789.4783,-340.3073"/>
<text text-anchor="middle" x="917.5" y="-320.8" font-family="Times,serif" font-size="14.00" fill="#ffffff"> 1500000.0 row(s) | 100.0% estd.</text>
</g>
<!-- 94574980167296 -->
<g id="node14" class="node">
<title>94574980167296</title>
<polygon fill="none" stroke="#ffffff" points="952.5,-211 656.5,-211 656.5,-175 952.5,-175 952.5,-211"/>
<text text-anchor="middle" x="804.5" y="-189.3" font-family="Times,serif" font-size="14.00" fill="#ffffff">[Predicate] o_orderdate &lt; &#39;1994&#45;01&#45;01&#39;</text>
</g>
<!-- 94574980167296&#45;&gt;94574931206240 -->
<g id="edge13" class="edge">
<title>94574980167296&#45;&gt;94574931206240</title>
<path fill="none" stroke="#ffffff" stroke-width="4" d="M804.5,-211.2337C804.5,-223.1508 804.5,-238.9616 804.5,-252.5183"/>
<polygon fill="#ffffff" stroke="#ffffff" stroke-width="4" points="801.0001,-252.7897 804.5,-262.7897 808.0001,-252.7897 801.0001,-252.7897"/>
<text text-anchor="middle" x="923.5" y="-233.8" font-family="Times,serif" font-size="14.00" fill="#ffffff"> 1500000.0 row(s) | 100.0% estd.</text>
</g>
<!-- 94574931206528 -->
<g id="node15" class="node">
<title>94574931206528</title>
<polygon fill="none" stroke="#ffffff" points="958.5,-123 650.5,-123 650.5,-87 958.5,-87 958.5,-123"/>
<text text-anchor="middle" x="804.5" y="-101.3" font-family="Times,serif" font-size="14.00" fill="#ffffff">[Predicate] o_orderdate &gt;= &#39;1993&#45;10&#45;01&#39;</text>
</g>
<!-- 94574931206528&#45;&gt;94574980167296 -->
<g id="edge14" class="edge">
<title>94574931206528&#45;&gt;94574980167296</title>
<path fill="none" stroke="#ffffff" stroke-width="4" d="M804.5,-123.2337C804.5,-135.1508 804.5,-150.9616 804.5,-164.5183"/>
<polygon fill="#ffffff" stroke="#ffffff" stroke-width="4" points="801.0001,-164.7897 804.5,-174.7897 808.0001,-164.7897 801.0001,-164.7897"/>
<text text-anchor="middle" x="923.5" y="-144.8" font-family="Times,serif" font-size="14.00" fill="#ffffff"> 1500000.0 row(s) | 100.0% estd.</text>
</g>
<!-- 94573847396944 -->
<g id="node16" class="node">
<title>94573847396944</title>
<polygon fill="none" stroke="#ffffff" points="916.5,-36 692.5,-36 692.5,0 916.5,0 916.5,-36"/>
<text text-anchor="middle" x="804.5" y="-14.3" font-family="Times,serif" font-size="14.00" fill="#ffffff">[StoredTable] Name: &#39;orders&#39;</text>
</g>
<!-- 94573847396944&#45;&gt;94574931206528 -->
<g id="edge15" class="edge">
<title>94573847396944&#45;&gt;94574931206528</title>
<path fill="none" stroke="#ffffff" stroke-width="4" d="M804.5,-36.0265C804.5,-47.8082 804.5,-63.4393 804.5,-76.8419"/>
<polygon fill="#ffffff" stroke="#ffffff" stroke-width="4" points="801.0001,-76.9966 804.5,-86.9966 808.0001,-76.9967 801.0001,-76.9966"/>
<text text-anchor="middle" x="923.5" y="-57.8" font-family="Times,serif" font-size="14.00" fill="#ffffff"> 1500000.0 row(s) | 100.0% estd.</text>
</g>
<!-- 94574931206096 -->
<g id="node17" class="node">
<title>94574931206096</title>
<polygon fill="none" stroke="#ffffff" points="1277,-388 964,-388 964,-350 1277,-350 1277,-388"/>
<text text-anchor="middle" x="1120.5" y="-372.8" font-family="Times,serif" font-size="14.00" fill="#ffffff">[Projection] l_orderkey, l_extendedprice, </text>
<text text-anchor="middle" x="1120.5" y="-357.8" font-family="Times,serif" font-size="14.00" fill="#ffffff">l_discount, l_returnflag </text>
</g>
<!-- 94574931206096&#45;&gt;94574500716976 -->
<g id="edge16" class="edge">
<title>94574931206096&#45;&gt;94574500716976</title>
<path fill="none" stroke="#ffffff" stroke-width="4" d="M1108.1956,-388.0289C1100.1241,-399.1134 1088.6487,-412.5314 1075.5,-421 1066.8473,-426.5729 1057.3016,-431.3098 1047.4748,-435.3305"/>
<polygon fill="#ffffff" stroke="#ffffff" stroke-width="4" points="1046.0703,-432.1205 1037.9871,-438.9697 1048.5773,-438.6561 1046.0703,-432.1205"/>
<text text-anchor="middle" x="1211.5" y="-409.8" font-family="Times,serif" font-size="14.00" fill="#ffffff"> 2000405.0 row(s) | 100.0% estd.</text>
</g>
<!-- 94574980167440 -->
<g id="node18" class="node">
<title>94574980167440</title>
<polygon fill="none" stroke="#ffffff" points="1232.5,-299 1008.5,-299 1008.5,-263 1232.5,-263 1232.5,-299"/>
<text text-anchor="middle" x="1120.5" y="-277.3" font-family="Times,serif" font-size="14.00" fill="#ffffff">[Predicate] l_returnflag = &#39;R&#39;</text>
</g>
<!-- 94574980167440&#45;&gt;94574931206096 -->
<g id="edge17" class="edge">
<title>94574980167440&#45;&gt;94574931206096</title>
<path fill="none" stroke="#ffffff" stroke-width="4" d="M1120.5,-299.2337C1120.5,-310.9125 1120.5,-326.3308 1120.5,-339.7022"/>
<polygon fill="#ffffff" stroke="#ffffff" stroke-width="4" points="1117.0001,-339.8765 1120.5,-349.8765 1124.0001,-339.8765 1117.0001,-339.8765"/>
<text text-anchor="middle" x="1235" y="-320.8" font-family="Times,serif" font-size="14.00" fill="#ffffff"> 2000405.0 row(s) | 33.3% estd.</text>
</g>
<!-- 94573854101424 -->
<g id="node19" class="node">
<title>94573854101424</title>
<polygon fill="none" stroke="#ffffff" points="1238.5,-211 1002.5,-211 1002.5,-175 1238.5,-175 1238.5,-211"/>
<text text-anchor="middle" x="1120.5" y="-189.3" font-family="Times,serif" font-size="14.00" fill="#ffffff">[StoredTable] Name: &#39;lineitem&#39;</text>
</g>
<!-- 94573854101424&#45;&gt;94574980167440 -->
<g id="edge18" class="edge">
<title>94573854101424&#45;&gt;94574980167440</title>
<path fill="none" stroke="#ffffff" stroke-width="4" d="M1120.5,-211.2337C1120.5,-223.1508 1120.5,-238.9616 1120.5,-252.5183"/>
<polygon fill="#ffffff" stroke="#ffffff" stroke-width="4" points="1117.0001,-252.7897 1120.5,-262.7897 1124.0001,-252.7897 1117.0001,-252.7897"/>
<text text-anchor="middle" x="1239.5" y="-233.8" font-family="Times,serif" font-size="14.00" fill="#ffffff"> 6001215.0 row(s) | 100.0% estd.</text>
</g>
</g>
</svg>
