<?xml version="1.0" encoding="UTF-8" standalone="no"?>
<!DOCTYPE svg PUBLIC "-//W3C//DTD SVG 1.1//EN"
 "http://www.w3.org/Graphics/SVG/1.1/DTD/svg11.dtd">
<!-- Generated by graphviz version 2.40.1 (20161225.0304)
 -->
<!-- Title: G Pages: 1 -->
<svg width="1428pt" height="916pt"
 viewBox="0.00 0.00 1427.50 916.00" xmlns="http://www.w3.org/2000/svg" xmlns:xlink="http://www.w3.org/1999/xlink">
<g id="graph0" class="graph" transform="scale(1 1) rotate(0) translate(4 912)">
<title>G</title>
<polygon fill="#000000" stroke="transparent" points="-4,4 -4,-912 1423.5,-912 1423.5,4 -4,4"/>
<!-- 94449936556272 -->
<g id="node1" class="node">
<title>94449936556272</title>
<polygon fill="none" stroke="#ffffff" points="1197,-908 820,-908 820,-855 1197,-855 1197,-908"/>
<text text-anchor="middle" x="1008.5" y="-892.8" font-family="Times,serif" font-size="14.00" fill="#ffffff">Alias [c_custkey, c_name, SUM(l_extendedprice * </text>
<text text-anchor="middle" x="1008.5" y="-877.8" font-family="Times,serif" font-size="14.00" fill="#ffffff">(1 &#45; l_discount)) AS revenue, c_acctbal, n_name, </text>
<text text-anchor="middle" x="1008.5" y="-862.8" font-family="Times,serif" font-size="14.00" fill="#ffffff">c_address, c_phone, c_comment] </text>
</g>
<!-- 94450639115600 -->
<g id="node2" class="node">
<title>94450639115600</title>
<polygon fill="none" stroke="#ffffff" points="1206,-804 811,-804 811,-751 1206,-751 1206,-804"/>
<text text-anchor="middle" x="1008.5" y="-788.8" font-family="Times,serif" font-size="14.00" fill="#ffffff">[Projection] c_custkey, c_name, </text>
<text text-anchor="middle" x="1008.5" y="-773.8" font-family="Times,serif" font-size="14.00" fill="#ffffff">SUM(l_extendedprice * (1 &#45; l_discount)), </text>
<text text-anchor="middle" x="1008.5" y="-758.8" font-family="Times,serif" font-size="14.00" fill="#ffffff">c_acctbal, n_name, c_address, c_phone, c_comment </text>
</g>
<!-- 94450639115600&#45;&gt;94449936556272 -->
<g id="edge1" class="edge">
<title>94450639115600&#45;&gt;94449936556272</title>
<path fill="none" stroke="#ffffff" stroke-width="4" d="M1008.5,-804.0127C1008.5,-816.2642 1008.5,-831.0234 1008.5,-844.3593"/>
<polygon fill="#ffffff" stroke="#ffffff" stroke-width="4" points="1005.0001,-844.6741 1008.5,-854.6741 1012.0001,-844.6741 1005.0001,-844.6741"/>
<text text-anchor="middle" x="1127.5" y="-825.8" font-family="Times,serif" font-size="14.00" fill="#ffffff"> 2000405.0 row(s) | 100.0% estd.</text>
</g>
<!-- 94450935121600 -->
<g id="node3" class="node">
<title>94450935121600</title>
<polygon fill="none" stroke="#ffffff" points="1184,-700 833,-700 833,-662 1184,-662 1184,-700"/>
<text text-anchor="middle" x="1008.5" y="-684.8" font-family="Times,serif" font-size="14.00" fill="#ffffff">[Sort] SUM(l_extendedprice * (1 &#45; l_discount)) </text>
<text text-anchor="middle" x="1008.5" y="-669.8" font-family="Times,serif" font-size="14.00" fill="#ffffff">(Descending) </text>
</g>
<!-- 94450935121600&#45;&gt;94450639115600 -->
<g id="edge2" class="edge">
<title>94450935121600&#45;&gt;94450639115600</title>
<path fill="none" stroke="#ffffff" stroke-width="4" d="M1008.5,-700.0653C1008.5,-711.6207 1008.5,-726.7534 1008.5,-740.5728"/>
<polygon fill="#ffffff" stroke="#ffffff" stroke-width="4" points="1005.0001,-740.8035 1008.5,-750.8035 1012.0001,-740.8036 1005.0001,-740.8035"/>
<text text-anchor="middle" x="1127.5" y="-721.8" font-family="Times,serif" font-size="14.00" fill="#ffffff"> 2000405.0 row(s) | 100.0% estd.</text>
</g>
<!-- 94450639116032 -->
<g id="node4" class="node">
<title>94450639116032</title>
<polygon fill="none" stroke="#ffffff" points="1208.5,-611 808.5,-611 808.5,-543 1208.5,-543 1208.5,-611"/>
<text text-anchor="middle" x="1008.5" y="-595.8" font-family="Times,serif" font-size="14.00" fill="#ffffff">[Aggregate] GroupBy: [c_custkey, c_name, </text>
<text text-anchor="middle" x="1008.5" y="-580.8" font-family="Times,serif" font-size="14.00" fill="#ffffff">c_acctbal, c_phone, n_name, c_address, c_comment] </text>
<text text-anchor="middle" x="1008.5" y="-565.8" font-family="Times,serif" font-size="14.00" fill="#ffffff">Aggregates: [SUM(l_extendedprice * (1 &#45; </text>
<text text-anchor="middle" x="1008.5" y="-550.8" font-family="Times,serif" font-size="14.00" fill="#ffffff">l_discount))] </text>
</g>
<!-- 94450639116032&#45;&gt;94450935121600 -->
<g id="edge3" class="edge">
<title>94450639116032&#45;&gt;94450935121600</title>
<path fill="none" stroke="#ffffff" stroke-width="4" d="M1008.5,-611.0535C1008.5,-624.1973 1008.5,-639.0848 1008.5,-651.7364"/>
<polygon fill="#ffffff" stroke="#ffffff" stroke-width="4" points="1005.0001,-651.7505 1008.5,-661.7505 1012.0001,-651.7505 1005.0001,-651.7505"/>
<text text-anchor="middle" x="1127.5" y="-632.8" font-family="Times,serif" font-size="14.00" fill="#ffffff"> 2000405.0 row(s) | 100.0% estd.</text>
</g>
<!-- 94450639115744 -->
<g id="node5" class="node">
<title>94450639115744</title>
<polygon fill="none" stroke="#ffffff" points="1193.5,-492 823.5,-492 823.5,-439 1193.5,-439 1193.5,-492"/>
<text text-anchor="middle" x="1008.5" y="-476.8" font-family="Times,serif" font-size="14.00" fill="#ffffff">[Projection] l_extendedprice * (1 &#45; l_discount), </text>
<text text-anchor="middle" x="1008.5" y="-461.8" font-family="Times,serif" font-size="14.00" fill="#ffffff">c_custkey, c_name, c_acctbal, c_phone, n_name, </text>
<text text-anchor="middle" x="1008.5" y="-446.8" font-family="Times,serif" font-size="14.00" fill="#ffffff">c_address, c_comment </text>
</g>
<!-- 94450639115744&#45;&gt;94450639116032 -->
<g id="edge4" class="edge">
<title>94450639115744&#45;&gt;94450639116032</title>
<path fill="none" stroke="#ffffff" stroke-width="4" d="M1008.5,-492.207C1008.5,-504.3232 1008.5,-518.9786 1008.5,-532.6731"/>
<polygon fill="#ffffff" stroke="#ffffff" stroke-width="4" points="1005.0001,-532.9001 1008.5,-542.9001 1012.0001,-532.9002 1005.0001,-532.9001"/>
<text text-anchor="middle" x="1127.5" y="-513.8" font-family="Times,serif" font-size="14.00" fill="#ffffff"> 2000405.0 row(s) | 100.0% estd.</text>
</g>
<!-- 94449702081488 -->
<g id="node6" class="node">
<title>94449702081488</title>
<polygon fill="none" stroke="#ffffff" points="1173,-388 844,-388 844,-352 1173,-352 1173,-388"/>
<text text-anchor="middle" x="1008.5" y="-366.3" font-family="Times,serif" font-size="14.00" fill="#ffffff">[Join] Mode: Inner l_orderkey = o_orderkey</text>
</g>
<!-- 94449702081488&#45;&gt;94450639115744 -->
<g id="edge5" class="edge">
<title>94449702081488&#45;&gt;94450639115744</title>
<path fill="none" stroke="#ffffff" stroke-width="4" d="M1008.5,-388.4134C1008.5,-399.816 1008.5,-414.8627 1008.5,-428.6338"/>
<polygon fill="#ffffff" stroke="#ffffff" stroke-width="4" points="1005.0001,-428.8344 1008.5,-438.8345 1012.0001,-428.8345 1005.0001,-428.8344"/>
<text text-anchor="middle" x="1118.5" y="-409.8" font-family="Times,serif" font-size="14.00" fill="#ffffff"> 2000405.0 row(s) | 0.0% estd.</text>
</g>
<!-- 94449702081312 -->
<g id="node7" class="node">
<title>94449702081312</title>
<polygon fill="none" stroke="#ffffff" points="1001,-300 684,-300 684,-264 1001,-264 1001,-300"/>
<text text-anchor="middle" x="842.5" y="-278.3" font-family="Times,serif" font-size="14.00" fill="#ffffff">[Join] Mode: Inner c_custkey = o_custkey</text>
</g>
<!-- 94449702081312&#45;&gt;94449702081488 -->
<g id="edge6" class="edge">
<title>94449702081312&#45;&gt;94449702081488</title>
<path fill="none" stroke="#ffffff" stroke-width="4" d="M863.157,-300.0929C876.3273,-310.9688 894.1295,-324.497 911.5,-334 921.0315,-339.2145 931.4738,-343.9745 941.8644,-348.2038"/>
<polygon fill="#ffffff" stroke="#ffffff" stroke-width="4" points="940.7773,-351.5371 951.3647,-351.9364 943.3372,-345.0219 940.7773,-351.5371"/>
<text text-anchor="middle" x="1021.5" y="-322.8" font-family="Times,serif" font-size="14.00" fill="#ffffff"> 1500000.0 row(s) | 0.0% estd.</text>
</g>
<!-- 94449695535552 -->
<g id="node8" class="node">
<title>94449695535552</title>
<polygon fill="none" stroke="#ffffff" points="644.5,-212 298.5,-212 298.5,-176 644.5,-176 644.5,-212"/>
<text text-anchor="middle" x="471.5" y="-190.3" font-family="Times,serif" font-size="14.00" fill="#ffffff">[Join] Mode: Inner c_nationkey = n_nationkey</text>
</g>
<!-- 94449695535552&#45;&gt;94449702081312 -->
<g id="edge7" class="edge">
<title>94449695535552&#45;&gt;94449702081312</title>
<path fill="none" stroke="#ffffff" stroke-width="3" d="M520.4976,-212.0522C550.9655,-222.767 591.1331,-235.9771 627.5,-245 653.7737,-251.5187 682.1354,-257.2816 709.3711,-262.2025"/>
<polygon fill="#ffffff" stroke="#ffffff" stroke-width="3" points="708.89,-265.6718 719.3484,-263.9772 710.1159,-258.7799 708.89,-265.6718"/>
<text text-anchor="middle" x="733" y="-233.8" font-family="Times,serif" font-size="14.00" fill="#ffffff"> 150000.0 row(s) | 4.0% estd.</text>
</g>
<!-- 94449695955008 -->
<g id="node9" class="node">
<title>94449695955008</title>
<polygon fill="none" stroke="#ffffff" points="343,-125 0,-125 0,-87 343,-87 343,-125"/>
<text text-anchor="middle" x="171.5" y="-109.8" font-family="Times,serif" font-size="14.00" fill="#ffffff">[Projection] c_custkey, c_name, c_address, </text>
<text text-anchor="middle" x="171.5" y="-94.8" font-family="Times,serif" font-size="14.00" fill="#ffffff">c_nationkey, c_phone, c_acctbal, c_comment </text>
</g>
<!-- 94449695955008&#45;&gt;94449695535552 -->
<g id="edge8" class="edge">
<title>94449695955008&#45;&gt;94449695535552</title>
<path fill="none" stroke="#ffffff" stroke-width="3" d="M192.9302,-125.0423C206.9295,-136.4232 226.1471,-150.1521 245.5,-158 259.7654,-163.7848 286.1019,-169.3661 315.8947,-174.337"/>
<polygon fill="#ffffff" stroke="#ffffff" stroke-width="3" points="315.6864,-177.8489 326.1184,-175.9987 316.8095,-170.9396 315.6864,-177.8489"/>
<text text-anchor="middle" x="360" y="-146.8" font-family="Times,serif" font-size="14.00" fill="#ffffff"> 150000.0 row(s) | 100.0% estd.</text>
</g>
<!-- 94450251521600 -->
<g id="node10" class="node">
<title>94450251521600</title>
<polygon fill="none" stroke="#ffffff" points="294,-36 49,-36 49,0 294,0 294,-36"/>
<text text-anchor="middle" x="171.5" y="-14.3" font-family="Times,serif" font-size="14.00" fill="#ffffff">[StoredTable] Name: &#39;customer&#39;</text>
</g>
<!-- 94450251521600&#45;&gt;94449695955008 -->
<g id="edge9" class="edge">
<title>94450251521600&#45;&gt;94449695955008</title>
<path fill="none" stroke="#ffffff" stroke-width="3" d="M171.5,-36.2337C171.5,-47.9125 171.5,-63.3308 171.5,-76.7022"/>
<polygon fill="#ffffff" stroke="#ffffff" stroke-width="3" points="168.0001,-76.8765 171.5,-86.8765 175.0001,-76.8765 168.0001,-76.8765"/>
<text text-anchor="middle" x="286" y="-57.8" font-family="Times,serif" font-size="14.00" fill="#ffffff"> 150000.0 row(s) | 100.0% estd.</text>
</g>
<!-- 94450639116320 -->
<g id="node11" class="node">
<title>94450639116320</title>
<polygon fill="none" stroke="#ffffff" points="616,-124 361,-124 361,-88 616,-88 616,-124"/>
<text text-anchor="middle" x="488.5" y="-102.3" font-family="Times,serif" font-size="14.00" fill="#ffffff">[Projection] n_nationkey, n_name</text>
</g>
<!-- 94450639116320&#45;&gt;94449695535552 -->
<g id="edge10" class="edge">
<title>94450639116320&#45;&gt;94449695535552</title>
<path fill="none" stroke="#ffffff" d="M484.9776,-124.2337C482.6526,-136.2688 479.5605,-152.2751 476.9245,-165.9203"/>
<polygon fill="#ffffff" stroke="#ffffff" points="473.4783,-165.3073 475.0179,-175.7897 480.3512,-166.6351 473.4783,-165.3073"/>
<text text-anchor="middle" x="578" y="-146.8" font-family="Times,serif" font-size="14.00" fill="#ffffff"> 25.0 row(s) | 100.0% estd.</text>
</g>
<!-- 94450929500032 -->
<g id="node12" class="node">
<title>94450929500032</title>
<polygon fill="none" stroke="#ffffff" points="600,-36 377,-36 377,0 600,0 600,-36"/>
<text text-anchor="middle" x="488.5" y="-14.3" font-family="Times,serif" font-size="14.00" fill="#ffffff">[StoredTable] Name: &#39;nation&#39;</text>
</g>
<!-- 94450929500032&#45;&gt;94450639116320 -->
<g id="edge11" class="edge">
<title>94450929500032&#45;&gt;94450639116320</title>
<path fill="none" stroke="#ffffff" d="M488.5,-36.2337C488.5,-48.1508 488.5,-63.9616 488.5,-77.5183"/>
<polygon fill="#ffffff" stroke="#ffffff" points="485.0001,-77.7897 488.5,-87.7897 492.0001,-77.7897 485.0001,-77.7897"/>
<text text-anchor="middle" x="585" y="-57.8" font-family="Times,serif" font-size="14.00" fill="#ffffff"> 25.0 row(s) | 100.0% estd.</text>
</g>
<!-- 94449695954864 -->
<g id="node13" class="node">
<title>94449695954864</title>
<polygon fill="none" stroke="#ffffff" points="1022,-212 663,-212 663,-176 1022,-176 1022,-212"/>
<text text-anchor="middle" x="842.5" y="-190.3" font-family="Times,serif" font-size="14.00" fill="#ffffff">[Projection] o_orderkey, o_custkey, o_orderdate</text>
</g>
<!-- 94449695954864&#45;&gt;94449702081312 -->
<g id="edge12" class="edge">
<title>94449695954864&#45;&gt;94449702081312</title>
<path fill="none" stroke="#ffffff" stroke-width="4" d="M842.5,-212.2337C842.5,-224.1508 842.5,-239.9616 842.5,-253.5183"/>
<polygon fill="#ffffff" stroke="#ffffff" stroke-width="4" points="839.0001,-253.7897 842.5,-263.7897 846.0001,-253.7897 839.0001,-253.7897"/>
<text text-anchor="middle" x="961.5" y="-233.8" font-family="Times,serif" font-size="14.00" fill="#ffffff"> 1500000.0 row(s) | 100.0% estd.</text>
</g>
<!-- 94449695955152 -->
<g id="node14" class="node">
<title>94449695955152</title>
<polygon fill="none" stroke="#ffffff" points="1046,-125 639,-125 639,-87 1046,-87 1046,-125"/>
<text text-anchor="middle" x="842.5" y="-109.8" font-family="Times,serif" font-size="14.00" fill="#ffffff">[Predicate] o_orderdate BETWEEN &#39;1993&#45;10&#45;01&#39; AND </text>
<text text-anchor="middle" x="842.5" y="-94.8" font-family="Times,serif" font-size="14.00" fill="#ffffff">&#39;1994&#45;01&#45;00&#39; </text>
</g>
<!-- 94449695955152&#45;&gt;94449695954864 -->
<g id="edge13" class="edge">
<title>94449695955152&#45;&gt;94449695954864</title>
<path fill="none" stroke="#ffffff" stroke-width="4" d="M842.5,-125.0947C842.5,-136.981 842.5,-152.483 842.5,-165.7725"/>
<polygon fill="#ffffff" stroke="#ffffff" stroke-width="4" points="839.0001,-165.8447 842.5,-175.8447 846.0001,-165.8448 839.0001,-165.8447"/>
<text text-anchor="middle" x="961.5" y="-146.8" font-family="Times,serif" font-size="14.00" fill="#ffffff"> 1500000.0 row(s) | 100.0% estd.</text>
</g>
<!-- 94450680697184 -->
<g id="node15" class="node">
<title>94450680697184</title>
<polygon fill="none" stroke="#ffffff" points="954.5,-36 730.5,-36 730.5,0 954.5,0 954.5,-36"/>
<text text-anchor="middle" x="842.5" y="-14.3" font-family="Times,serif" font-size="14.00" fill="#ffffff">[StoredTable] Name: &#39;orders&#39;</text>
</g>
<!-- 94450680697184&#45;&gt;94449695955152 -->
<g id="edge14" class="edge">
<title>94450680697184&#45;&gt;94449695955152</title>
<path fill="none" stroke="#ffffff" stroke-width="4" d="M842.5,-36.2337C842.5,-47.9125 842.5,-63.3308 842.5,-76.7022"/>
<polygon fill="#ffffff" stroke="#ffffff" stroke-width="4" points="839.0001,-76.8765 842.5,-86.8765 846.0001,-76.8765 839.0001,-76.8765"/>
<text text-anchor="middle" x="961.5" y="-57.8" font-family="Times,serif" font-size="14.00" fill="#ffffff"> 1500000.0 row(s) | 100.0% estd.</text>
</g>
<!-- 94450639116752 -->
<g id="node16" class="node">
<title>94450639116752</title>
<polygon fill="none" stroke="#ffffff" points="1333,-301 1020,-301 1020,-263 1333,-263 1333,-301"/>
<text text-anchor="middle" x="1176.5" y="-285.8" font-family="Times,serif" font-size="14.00" fill="#ffffff">[Projection] l_orderkey, l_extendedprice, </text>
<text text-anchor="middle" x="1176.5" y="-270.8" font-family="Times,serif" font-size="14.00" fill="#ffffff">l_discount, l_returnflag </text>
</g>
<!-- 94450639116752&#45;&gt;94449702081488 -->
<g id="edge15" class="edge">
<title>94450639116752&#45;&gt;94449702081488</title>
<path fill="none" stroke="#ffffff" stroke-width="4" d="M1164.2023,-301.0393C1156.1332,-312.1276 1144.6581,-325.5459 1131.5,-334 1122.8467,-339.5597 1113.3079,-344.2854 1103.4856,-348.297"/>
<polygon fill="#ffffff" stroke="#ffffff" stroke-width="4" points="1102.0886,-345.084 1094.0011,-351.9283 1104.5915,-351.6213 1102.0886,-345.084"/>
<text text-anchor="middle" x="1267.5" y="-322.8" font-family="Times,serif" font-size="14.00" fill="#ffffff"> 2000405.0 row(s) | 100.0% estd.</text>
</g>
<!-- 94449695955424 -->
<g id="node17" class="node">
<title>94449695955424</title>
<polygon fill="none" stroke="#ffffff" points="1293.5,-212 1069.5,-212 1069.5,-176 1293.5,-176 1293.5,-212"/>
<text text-anchor="middle" x="1181.5" y="-190.3" font-family="Times,serif" font-size="14.00" fill="#ffffff">[Predicate] l_returnflag = &#39;R&#39;</text>
</g>
<!-- 94449695955424&#45;&gt;94450639116752 -->
<g id="edge16" class="edge">
<title>94449695955424&#45;&gt;94450639116752</title>
<path fill="none" stroke="#ffffff" stroke-width="4" d="M1180.464,-212.2337C1179.8004,-223.9125 1178.9244,-239.3308 1178.1646,-252.7022"/>
<polygon fill="#ffffff" stroke="#ffffff" stroke-width="4" points="1174.6596,-252.694 1177.5866,-262.8765 1181.6483,-253.0912 1174.6596,-252.694"/>
<text text-anchor="middle" x="1293" y="-233.8" font-family="Times,serif" font-size="14.00" fill="#ffffff"> 2000405.0 row(s) | 33.3% estd.</text>
</g>
<!-- 94450589677152 -->
<g id="node18" class="node">
<title>94450589677152</title>
<polygon fill="none" stroke="#ffffff" points="1300.5,-124 1064.5,-124 1064.5,-88 1300.5,-88 1300.5,-124"/>
<text text-anchor="middle" x="1182.5" y="-102.3" font-family="Times,serif" font-size="14.00" fill="#ffffff">[StoredTable] Name: &#39;lineitem&#39;</text>
</g>
<!-- 94450589677152&#45;&gt;94449695955424 -->
<g id="edge17" class="edge">
<title>94450589677152&#45;&gt;94449695955424</title>
<path fill="none" stroke="#ffffff" stroke-width="4" d="M1182.2928,-124.2337C1182.1574,-136.1508 1181.9777,-151.9616 1181.8237,-165.5183"/>
<polygon fill="#ffffff" stroke="#ffffff" stroke-width="4" points="1178.3209,-165.7505 1181.7069,-175.7897 1185.3204,-165.8302 1178.3209,-165.7505"/>
<text text-anchor="middle" x="1300.5" y="-146.8" font-family="Times,serif" font-size="14.00" fill="#ffffff"> 6001215.0 row(s) | 100.0% estd.</text>
</g>
</g>
</svg>
