<?xml version="1.0" encoding="UTF-8" standalone="no"?>
<!DOCTYPE svg PUBLIC "-//W3C//DTD SVG 1.1//EN"
 "http://www.w3.org/Graphics/SVG/1.1/DTD/svg11.dtd">
<!-- Generated by graphviz version 2.40.1 (20161225.0304)
 -->
<!-- Title: G Pages: 1 -->
<svg width="478pt" height="962pt"
 viewBox="0.00 0.00 477.50 962.00" xmlns="http://www.w3.org/2000/svg" xmlns:xlink="http://www.w3.org/1999/xlink">
<g id="graph0" class="graph" transform="scale(1 1) rotate(0) translate(4 958)">
<title>G</title>
<polygon fill="#000000" stroke="transparent" points="-4,4 -4,-958 473.5,-958 473.5,4 -4,4"/>
<!-- 94450490006176 -->
<g id="node1" class="node">
<title>94450490006176</title>
<polygon fill="none" stroke="#ffffff" points="251.5,-954 107.5,-954 107.5,-900 251.5,-900 251.5,-954"/>
<text text-anchor="middle" x="179.5" y="-938.8" font-family="Times,serif" font-size="14.00" fill="#ffffff">Alias [REVENUE]</text>
<text text-anchor="middle" x="179.5" y="-907.8" font-family="Times,serif" font-size="14.00" fill="#ffffff">6 µs 0 ns</text>
</g>
<!-- 94449695423088 -->
<g id="node2" class="node">
<title>94449695423088</title>
<polygon fill="none" stroke="#ffffff" stroke-width="2" points="359,-849 0,-849 0,-780 359,-780 359,-849"/>
<text text-anchor="middle" x="179.5" y="-833.8" font-family="Times,serif" font-size="14.00" fill="#ffffff">[Aggregate] GroupBy ColumnIDs: &#160;Aggregates: </text>
<text text-anchor="middle" x="179.5" y="-818.8" font-family="Times,serif" font-size="14.00" fill="#ffffff">SUM(Column #0)</text>
<text text-anchor="middle" x="179.5" y="-787.8" font-family="Times,serif" font-size="14.00" fill="#ffffff">2 ms 161 µs </text>
</g>
<!-- 94449695423088&#45;&gt;94450490006176 -->
<g id="edge1" class="edge">
<title>94449695423088&#45;&gt;94450490006176</title>
<path fill="none" stroke="#ffffff" d="M179.5,-849.1717C179.5,-862.0092 179.5,-876.6141 179.5,-889.6774"/>
<polygon fill="#ffffff" stroke="#ffffff" points="176.0001,-889.7601 179.5,-899.7602 183.0001,-889.7602 176.0001,-889.7601"/>
<text text-anchor="middle" x="270" y="-870.8" font-family="Times,serif" font-size="14.00" fill="#ffffff">1 row(s)/1 chunk(s)/450B</text>
</g>
<!-- 94449873382352 -->
<g id="node3" class="node">
<title>94449873382352</title>
<polygon fill="none" stroke="#ffffff" stroke-width="3" points="236,-729 123,-729 123,-675 236,-675 236,-729"/>
<text text-anchor="middle" x="179.5" y="-713.8" font-family="Times,serif" font-size="14.00" fill="#ffffff">Projection</text>
<text text-anchor="middle" x="179.5" y="-682.8" font-family="Times,serif" font-size="14.00" fill="#ffffff">12 ms 861 µs</text>
</g>
<!-- 94449873382352&#45;&gt;94449695423088 -->
<g id="edge2" class="edge">
<title>94449873382352&#45;&gt;94449695423088</title>
<path fill="none" stroke="#ffffff" stroke-width="3" d="M179.5,-729.2331C179.5,-741.3589 179.5,-755.9621 179.5,-769.6298"/>
<polygon fill="#ffffff" stroke="#ffffff" stroke-width="3" points="176.0001,-769.8427 179.5,-779.8427 183.0001,-769.8428 176.0001,-769.8427"/>
<text text-anchor="middle" x="318" y="-750.8" font-family="Times,serif" font-size="14.00" fill="#ffffff">114160 row(s)/61 chunk(s)/474.836KB</text>
</g>
<!-- 94449703202448 -->
<g id="node4" class="node">
<title>94449703202448</title>
<polygon fill="none" stroke="#ffffff" points="224.5,-624 134.5,-624 134.5,-570 224.5,-570 224.5,-624"/>
<text text-anchor="middle" x="179.5" y="-608.8" font-family="Times,serif" font-size="14.00" fill="#ffffff">Projection</text>
<text text-anchor="middle" x="179.5" y="-577.8" font-family="Times,serif" font-size="14.00" fill="#ffffff">77 µs 0 ns</text>
</g>
<!-- 94449703202448&#45;&gt;94449873382352 -->
<g id="edge3" class="edge">
<title>94449703202448&#45;&gt;94449873382352</title>
<path fill="none" stroke="#ffffff" stroke-width="3" d="M179.5,-624.0401C179.5,-636.3143 179.5,-651.0382 179.5,-664.3683"/>
<polygon fill="#ffffff" stroke="#ffffff" stroke-width="3" points="176.0001,-664.6866 179.5,-674.6866 183.0001,-664.6866 176.0001,-664.6866"/>
<text text-anchor="middle" x="311" y="-645.8" font-family="Times,serif" font-size="14.00" fill="#ffffff">114160 row(s)/61 chunk(s)/3.674MB</text>
</g>
<!-- 94450670332224 -->
<g id="node5" class="node">
<title>94450670332224</title>
<polygon fill="none" stroke="#ffffff" stroke-width="2" points="298,-519 61,-519 61,-420 298,-420 298,-519"/>
<text text-anchor="middle" x="179.5" y="-503.8" font-family="Times,serif" font-size="14.00" fill="#ffffff">TableScan</text>
<text text-anchor="middle" x="179.5" y="-488.8" font-family="Times,serif" font-size="14.00" fill="#ffffff">Impl: BetweenScan</text>
<text text-anchor="middle" x="179.5" y="-473.8" font-family="Times,serif" font-size="14.00" fill="#ffffff">l_shipdate BETWEEN </text>
<text text-anchor="middle" x="179.5" y="-458.8" font-family="Times,serif" font-size="14.00" fill="#ffffff">&#39;1994&#45;01&#45;01&#39; AND &#39;1995&#45;01&#45;00&#39;</text>
<text text-anchor="middle" x="179.5" y="-427.8" font-family="Times,serif" font-size="14.00" fill="#ffffff">7 ms 130 µs </text>
</g>
<!-- 94450670332224&#45;&gt;94449703202448 -->
<g id="edge4" class="edge">
<title>94450670332224&#45;&gt;94449703202448</title>
<path fill="none" stroke="#ffffff" stroke-width="3" d="M179.5,-519.1599C179.5,-532.598 179.5,-546.9153 179.5,-559.5584"/>
<polygon fill="#ffffff" stroke="#ffffff" stroke-width="3" points="176.0001,-559.7287 179.5,-569.7287 183.0001,-559.7288 176.0001,-559.7287"/>
<text text-anchor="middle" x="315.5" y="-540.8" font-family="Times,serif" font-size="14.00" fill="#ffffff">114160 row(s)/61 chunk(s)/14.675MB</text>
</g>
<!-- 94449695646384 -->
<g id="node6" class="node">
<title>94449695646384</title>
<polygon fill="none" stroke="#ffffff" stroke-width="3" points="270,-369 89,-369 89,-270 270,-270 270,-369"/>
<text text-anchor="middle" x="179.5" y="-353.8" font-family="Times,serif" font-size="14.00" fill="#ffffff">TableScan</text>
<text text-anchor="middle" x="179.5" y="-338.8" font-family="Times,serif" font-size="14.00" fill="#ffffff">Impl: LiteralTableScan</text>
<text text-anchor="middle" x="179.5" y="-323.8" font-family="Times,serif" font-size="14.00" fill="#ffffff">l_quantity &lt; </text>
<text text-anchor="middle" x="179.5" y="-308.8" font-family="Times,serif" font-size="14.00" fill="#ffffff">24</text>
<text text-anchor="middle" x="179.5" y="-277.8" font-family="Times,serif" font-size="14.00" fill="#ffffff">14 ms 760 µs </text>
</g>
<!-- 94449695646384&#45;&gt;94450670332224 -->
<g id="edge5" class="edge">
<title>94449695646384&#45;&gt;94450670332224</title>
<path fill="none" stroke="#ffffff" stroke-width="3" d="M179.5,-369.0313C179.5,-382.0196 179.5,-396.1643 179.5,-409.63"/>
<polygon fill="#ffffff" stroke="#ffffff" stroke-width="3" points="176.0001,-409.7646 179.5,-419.7646 183.0001,-409.7646 176.0001,-409.7646"/>
<text text-anchor="middle" x="315.5" y="-390.8" font-family="Times,serif" font-size="14.00" fill="#ffffff">752249 row(s)/61 chunk(s)/96.350MB</text>
</g>
<!-- 94449695647952 -->
<g id="node7" class="node">
<title>94449695647952</title>
<polygon fill="none" stroke="#ffffff" stroke-width="3" points="269,-219 90,-219 90,-120 269,-120 269,-219"/>
<text text-anchor="middle" x="179.5" y="-203.8" font-family="Times,serif" font-size="14.00" fill="#ffffff">TableScan</text>
<text text-anchor="middle" x="179.5" y="-188.8" font-family="Times,serif" font-size="14.00" fill="#ffffff">Impl: BetweenScan</text>
<text text-anchor="middle" x="179.5" y="-173.8" font-family="Times,serif" font-size="14.00" fill="#ffffff">l_discount BETWEEN </text>
<text text-anchor="middle" x="179.5" y="-158.8" font-family="Times,serif" font-size="14.00" fill="#ffffff">0.05 AND 0.07001</text>
<text text-anchor="middle" x="179.5" y="-127.8" font-family="Times,serif" font-size="14.00" fill="#ffffff">22 ms 864 µs </text>
</g>
<!-- 94449695647952&#45;&gt;94449695646384 -->
<g id="edge6" class="edge">
<title>94449695647952&#45;&gt;94449695646384</title>
<path fill="none" stroke="#ffffff" stroke-width="4" d="M179.5,-219.0313C179.5,-232.0196 179.5,-246.1643 179.5,-259.63"/>
<polygon fill="#ffffff" stroke="#ffffff" stroke-width="4" points="176.0001,-259.7646 179.5,-269.7646 183.0001,-259.7646 176.0001,-259.7646"/>
<text text-anchor="middle" x="324.5" y="-240.8" font-family="Times,serif" font-size="14.00" fill="#ffffff">1637557 row(s)/61 chunk(s)/209.670MB</text>
</g>
<!-- 94449703202256 -->
<g id="node8" class="node">
<title>94449703202256</title>
<polygon fill="none" stroke="#ffffff" points="222.5,-69 136.5,-69 136.5,0 222.5,0 222.5,-69"/>
<text text-anchor="middle" x="179.5" y="-53.8" font-family="Times,serif" font-size="14.00" fill="#ffffff">GetTable</text>
<text text-anchor="middle" x="179.5" y="-38.8" font-family="Times,serif" font-size="14.00" fill="#ffffff">(lineitem)</text>
<text text-anchor="middle" x="179.5" y="-7.8" font-family="Times,serif" font-size="14.00" fill="#ffffff">0 ns</text>
</g>
<!-- 94449703202256&#45;&gt;94449695647952 -->
<g id="edge7" class="edge">
<title>94449703202256&#45;&gt;94449695647952</title>
<path fill="none" stroke="#ffffff" stroke-width="4" d="M179.5,-69.2659C179.5,-81.5301 179.5,-95.6967 179.5,-109.446"/>
<polygon fill="#ffffff" stroke="#ffffff" stroke-width="4" points="176.0001,-109.8405 179.5,-119.8405 183.0001,-109.8406 176.0001,-109.8405"/>
<text text-anchor="middle" x="324.5" y="-90.8" font-family="Times,serif" font-size="14.00" fill="#ffffff">6001215 row(s)/61 chunk(s)/500.660MB</text>
</g>
</g>
</svg>
