<?xml version="1.0" encoding="UTF-8" standalone="no"?>
<!DOCTYPE svg PUBLIC "-//W3C//DTD SVG 1.1//EN"
 "http://www.w3.org/Graphics/SVG/1.1/DTD/svg11.dtd">
<!-- Generated by graphviz version 2.40.1 (20161225.0304)
 -->
<!-- Title: G Pages: 1 -->
<svg width="997pt" height="1291pt"
 viewBox="0.00 0.00 997.00 1291.00" xmlns="http://www.w3.org/2000/svg" xmlns:xlink="http://www.w3.org/1999/xlink">
<g id="graph0" class="graph" transform="scale(1 1) rotate(0) translate(4 1287)">
<title>G</title>
<polygon fill="#000000" stroke="transparent" points="-4,4 -4,-1287 993,-1287 993,4 -4,4"/>
<!-- 94574245874848 -->
<g id="node1" class="node">
<title>94574245874848</title>
<polygon fill="none" stroke="#ffffff" points="756.5,-1283 517.5,-1283 517.5,-1247 756.5,-1247 756.5,-1283"/>
<text text-anchor="middle" x="637" y="-1261.3" font-family="Times,serif" font-size="14.00" fill="#ffffff">[Projection] s_name, s_address</text>
</g>
<!-- 94574809116240 -->
<g id="node2" class="node">
<title>94574809116240</title>
<polygon fill="none" stroke="#ffffff" points="740,-1196 534,-1196 534,-1160 740,-1160 740,-1196"/>
<text text-anchor="middle" x="637" y="-1174.3" font-family="Times,serif" font-size="14.00" fill="#ffffff">[Sort] s_name (Ascending)</text>
</g>
<!-- 94574809116240&#45;&gt;94574245874848 -->
<g id="edge1" class="edge">
<title>94574809116240&#45;&gt;94574245874848</title>
<path fill="none" stroke="#ffffff" stroke-width="2" d="M637,-1196.0265C637,-1207.8082 637,-1223.4393 637,-1236.8419"/>
<polygon fill="#ffffff" stroke="#ffffff" stroke-width="2" points="633.5001,-1236.9966 637,-1246.9966 640.5001,-1236.9967 633.5001,-1236.9966"/>
<text text-anchor="middle" x="738" y="-1217.8" font-family="Times,serif" font-size="14.00" fill="#ffffff"> 400.0 row(s) | 100.0% estd.</text>
</g>
<!-- 94574935820992 -->
<g id="node3" class="node">
<title>94574935820992</title>
<polygon fill="none" stroke="#ffffff" points="809.5,-1109 464.5,-1109 464.5,-1073 809.5,-1073 809.5,-1109"/>
<text text-anchor="middle" x="637" y="-1087.3" font-family="Times,serif" font-size="14.00" fill="#ffffff">[Join] Mode: Inner s_nationkey = n_nationkey</text>
</g>
<!-- 94574935820992&#45;&gt;94574809116240 -->
<g id="edge2" class="edge">
<title>94574935820992&#45;&gt;94574809116240</title>
<path fill="none" stroke="#ffffff" stroke-width="2" d="M637,-1109.0265C637,-1120.8082 637,-1136.4393 637,-1149.8419"/>
<polygon fill="#ffffff" stroke="#ffffff" stroke-width="2" points="633.5001,-1149.9966 637,-1159.9966 640.5001,-1149.9967 633.5001,-1149.9966"/>
<text text-anchor="middle" x="729" y="-1130.8" font-family="Times,serif" font-size="14.00" fill="#ffffff"> 400.0 row(s) | 4.0% estd.</text>
</g>
<!-- 94574245884032 -->
<g id="node4" class="node">
<title>94574245884032</title>
<polygon fill="none" stroke="#ffffff" points="647.5,-1022 316.5,-1022 316.5,-984 647.5,-984 647.5,-1022"/>
<text text-anchor="middle" x="482" y="-1006.8" font-family="Times,serif" font-size="14.00" fill="#ffffff">[Projection] s_suppkey, s_name, s_address, </text>
<text text-anchor="middle" x="482" y="-991.8" font-family="Times,serif" font-size="14.00" fill="#ffffff">s_nationkey </text>
</g>
<!-- 94574245884032&#45;&gt;94574935820992 -->
<g id="edge3" class="edge">
<title>94574245884032&#45;&gt;94574935820992</title>
<path fill="none" stroke="#ffffff" stroke-width="2" d="M497.398,-1022.2276C506.9582,-1033.1046 520.0531,-1046.2401 534,-1055 542.6308,-1060.421 552.1836,-1065.1535 561.8894,-1069.2475"/>
<polygon fill="#ffffff" stroke="#ffffff" stroke-width="2" points="560.6322,-1072.5141 571.2168,-1072.9786 563.2321,-1066.0148 560.6322,-1072.5141"/>
<text text-anchor="middle" x="644" y="-1043.8" font-family="Times,serif" font-size="14.00" fill="#ffffff"> 10000.0 row(s) | 100.0% estd.</text>
</g>
<!-- 94574549416928 -->
<g id="node5" class="node">
<title>94574549416928</title>
<polygon fill="none" stroke="#ffffff" points="652.5,-933 297.5,-933 297.5,-895 652.5,-895 652.5,-933"/>
<text text-anchor="middle" x="475" y="-917.8" font-family="Times,serif" font-size="14.00" fill="#ffffff">[Predicate] (s_suppkey) IN SUBSELECT (LQP, </text>
<text text-anchor="middle" x="475" y="-902.8" font-family="Times,serif" font-size="14.00" fill="#ffffff">0x5603b3e67380) </text>
</g>
<!-- 94574549416928&#45;&gt;94574245884032 -->
<g id="edge4" class="edge">
<title>94574549416928&#45;&gt;94574245884032</title>
<path fill="none" stroke="#ffffff" stroke-width="2" d="M476.5189,-933.3117C477.4454,-945.091 478.648,-960.3813 479.6906,-973.6372"/>
<polygon fill="#ffffff" stroke="#ffffff" stroke-width="2" points="476.2107,-974.0313 480.4841,-983.726 483.1891,-973.4823 476.2107,-974.0313"/>
<text text-anchor="middle" x="589" y="-954.8" font-family="Times,serif" font-size="14.00" fill="#ffffff"> 10000.0 row(s) | 100.0% estd.</text>
</g>
<!-- 94574986703600 -->
<g id="node6" class="node">
<title>94574986703600</title>
<polygon fill="none" stroke="#ffffff" points="399,-844 163,-844 163,-808 399,-808 399,-844"/>
<text text-anchor="middle" x="281" y="-822.3" font-family="Times,serif" font-size="14.00" fill="#ffffff">[StoredTable] Name: &#39;supplier&#39;</text>
</g>
<!-- 94574986703600&#45;&gt;94574549416928 -->
<g id="edge5" class="edge">
<title>94574986703600&#45;&gt;94574549416928</title>
<path fill="none" stroke="#ffffff" stroke-width="2" d="M274.1846,-844.4534C271.5263,-855.1133 270.6377,-868.1262 278,-877 282.7777,-882.7586 291.5094,-887.6266 302.7317,-891.7407"/>
<polygon fill="#ffffff" stroke="#ffffff" stroke-width="2" points="301.6446,-895.0676 312.2378,-894.8811 303.8405,-888.4209 301.6446,-895.0676"/>
<text text-anchor="middle" x="388" y="-865.8" font-family="Times,serif" font-size="14.00" fill="#ffffff"> 10000.0 row(s) | 100.0% estd.</text>
</g>
<!-- 94573903115136 -->
<g id="node7" class="node">
<title>94573903115136</title>
<polygon fill="none" stroke="#ffffff" points="618.5,-844 429.5,-844 429.5,-808 618.5,-808 618.5,-844"/>
<text text-anchor="middle" x="524" y="-822.3" font-family="Times,serif" font-size="14.00" fill="#ffffff">[Projection] ps_suppkey</text>
</g>
<!-- 94573903115136&#45;&gt;94574549416928 -->
<g id="edge6" class="edge">
<title>94573903115136&#45;&gt;94574549416928</title>
<path fill="none" stroke="#ffffff" stroke-dasharray="5,2" d="M517.2136,-844.4129C513.276,-854.3264 507.9291,-866.6164 502,-877 500.1566,-880.2284 498.086,-883.5115 495.9328,-886.7218"/>
<polygon fill="#ffffff" stroke="#ffffff" points="493.0277,-884.7683 490.139,-894.9617 498.7539,-888.7946 493.0277,-884.7683"/>
<text text-anchor="middle" x="592" y="-865.8" font-family="Times,serif" font-size="14.00" fill="#ffffff">uncorrelated subquery</text>
</g>
<!-- 94574492583904 -->
<g id="node8" class="node">
<title>94574492583904</title>
<polygon fill="none" stroke="#ffffff" points="717,-757 331,-757 331,-704 717,-704 717,-757"/>
<text text-anchor="middle" x="524" y="-741.8" font-family="Times,serif" font-size="14.00" fill="#ffffff">[Predicate] ps_availqty &gt; SUBSELECT (LQP, </text>
<text text-anchor="middle" x="524" y="-726.8" font-family="Times,serif" font-size="14.00" fill="#ffffff">0x5603ca598370, Parameters: [ps_suppkey, id=1], </text>
<text text-anchor="middle" x="524" y="-711.8" font-family="Times,serif" font-size="14.00" fill="#ffffff">[ps_partkey, id=0]) </text>
</g>
<!-- 94574492583904&#45;&gt;94573903115136 -->
<g id="edge7" class="edge">
<title>94574492583904&#45;&gt;94573903115136</title>
<path fill="none" stroke="#ffffff" stroke-width="3" d="M524,-757.1021C524,-769.7787 524,-784.9473 524,-797.8209"/>
<polygon fill="#ffffff" stroke="#ffffff" stroke-width="3" points="520.5001,-797.9898 524,-807.9898 527.5001,-797.9899 520.5001,-797.9898"/>
<text text-anchor="middle" x="638.5" y="-778.8" font-family="Times,serif" font-size="14.00" fill="#ffffff"> 800000.0 row(s) | 100.0% estd.</text>
</g>
<!-- 94573922716192 -->
<g id="node9" class="node">
<title>94573922716192</title>
<polygon fill="none" stroke="#ffffff" points="540.5,-653 175.5,-653 175.5,-617 540.5,-617 540.5,-653"/>
<text text-anchor="middle" x="358" y="-631.3" font-family="Times,serif" font-size="14.00" fill="#ffffff">[Projection] ps_partkey, ps_suppkey, ps_availqty</text>
</g>
<!-- 94573922716192&#45;&gt;94574492583904 -->
<g id="edge8" class="edge">
<title>94573922716192&#45;&gt;94574492583904</title>
<path fill="none" stroke="#ffffff" stroke-width="3" d="M376.6574,-653.1012C388.1972,-663.6363 403.6882,-676.6416 419,-686 426.9616,-690.8661 435.5505,-695.4486 444.2658,-699.6872"/>
<polygon fill="#ffffff" stroke="#ffffff" stroke-width="3" points="442.8347,-702.8819 453.3728,-703.9772 445.8178,-696.5493 442.8347,-702.8819"/>
<text text-anchor="middle" x="533.5" y="-674.8" font-family="Times,serif" font-size="14.00" fill="#ffffff"> 800000.0 row(s) | 100.0% estd.</text>
</g>
<!-- 94574245882400 -->
<g id="node10" class="node">
<title>94574245882400</title>
<polygon fill="none" stroke="#ffffff" points="531.5,-566 172.5,-566 172.5,-528 531.5,-528 531.5,-566"/>
<text text-anchor="middle" x="352" y="-550.8" font-family="Times,serif" font-size="14.00" fill="#ffffff">[Predicate] (ps_partkey) IN SUBSELECT (LQP, </text>
<text text-anchor="middle" x="352" y="-535.8" font-family="Times,serif" font-size="14.00" fill="#ffffff">0x5603b1d76c90) </text>
</g>
<!-- 94574245882400&#45;&gt;94573922716192 -->
<g id="edge9" class="edge">
<title>94574245882400&#45;&gt;94573922716192</title>
<path fill="none" stroke="#ffffff" stroke-width="3" d="M353.3019,-566.0947C354.1123,-577.981 355.1693,-593.483 356.0754,-606.7725"/>
<polygon fill="#ffffff" stroke="#ffffff" stroke-width="3" points="352.5899,-607.106 356.7621,-616.8447 359.5737,-606.6298 352.5899,-607.106"/>
<text text-anchor="middle" x="470.5" y="-587.8" font-family="Times,serif" font-size="14.00" fill="#ffffff"> 800000.0 row(s) | 100.0% estd.</text>
</g>
<!-- 94574461980272 -->
<g id="node11" class="node">
<title>94574461980272</title>
<polygon fill="none" stroke="#ffffff" points="242,-476 0,-476 0,-440 242,-440 242,-476"/>
<text text-anchor="middle" x="121" y="-454.3" font-family="Times,serif" font-size="14.00" fill="#ffffff">[StoredTable] Name: &#39;partsupp&#39;</text>
</g>
<!-- 94574461980272&#45;&gt;94574245882400 -->
<g id="edge10" class="edge">
<title>94574461980272&#45;&gt;94574245882400</title>
<path fill="none" stroke="#ffffff" stroke-width="3" d="M118.857,-476.2419C118.6078,-487.4553 120.3964,-501.2945 129,-510 135.5965,-516.6746 147.5108,-522.1466 162.526,-526.6325"/>
<polygon fill="#ffffff" stroke="#ffffff" stroke-width="3" points="161.6864,-530.0314 172.2559,-529.3001 163.5373,-523.2805 161.6864,-530.0314"/>
<text text-anchor="middle" x="243.5" y="-498.8" font-family="Times,serif" font-size="14.00" fill="#ffffff"> 800000.0 row(s) | 100.0% estd.</text>
</g>
<!-- 94573868575888 -->
<g id="node12" class="node">
<title>94573868575888</title>
<polygon fill="none" stroke="#ffffff" points="461.5,-476 284.5,-476 284.5,-440 461.5,-440 461.5,-476"/>
<text text-anchor="middle" x="373" y="-454.3" font-family="Times,serif" font-size="14.00" fill="#ffffff">[Projection] p_partkey</text>
</g>
<!-- 94573868575888&#45;&gt;94574245882400 -->
<g id="edge11" class="edge">
<title>94573868575888&#45;&gt;94574245882400</title>
<path fill="none" stroke="#ffffff" stroke-dasharray="5,2" d="M368.7503,-476.0105C365.9234,-487.9913 362.1461,-503.9999 358.8941,-517.7822"/>
<polygon fill="#ffffff" stroke="#ffffff" points="355.4242,-517.2477 356.5341,-527.7842 362.2371,-518.8553 355.4242,-517.2477"/>
<text text-anchor="middle" x="446" y="-498.8" font-family="Times,serif" font-size="14.00" fill="#ffffff">uncorrelated subquery</text>
</g>
<!-- 94573960615888 -->
<g id="node13" class="node">
<title>94573960615888</title>
<polygon fill="none" stroke="#ffffff" points="493,-388 253,-388 253,-352 493,-352 493,-388"/>
<text text-anchor="middle" x="373" y="-366.3" font-family="Times,serif" font-size="14.00" fill="#ffffff">[Projection] p_partkey, p_name</text>
</g>
<!-- 94573960615888&#45;&gt;94573868575888 -->
<g id="edge12" class="edge">
<title>94573960615888&#45;&gt;94573868575888</title>
<path fill="none" stroke="#ffffff" stroke-width="3" d="M373,-388.2337C373,-400.1508 373,-415.9616 373,-429.5183"/>
<polygon fill="#ffffff" stroke="#ffffff" stroke-width="3" points="369.5001,-429.7897 373,-439.7897 376.5001,-429.7897 369.5001,-429.7897"/>
<text text-anchor="middle" x="483" y="-409.8" font-family="Times,serif" font-size="14.00" fill="#ffffff"> 20000.0 row(s) | 100.0% estd.</text>
</g>
<!-- 94573850599776 -->
<g id="node14" class="node">
<title>94573850599776</title>
<polygon fill="none" stroke="#ffffff" points="505.5,-301 240.5,-301 240.5,-265 505.5,-265 505.5,-301"/>
<text text-anchor="middle" x="373" y="-279.3" font-family="Times,serif" font-size="14.00" fill="#ffffff">[Predicate] p_name LIKE &#39;forest%&#39;</text>
</g>
<!-- 94573850599776&#45;&gt;94573960615888 -->
<g id="edge13" class="edge">
<title>94573850599776&#45;&gt;94573960615888</title>
<path fill="none" stroke="#ffffff" stroke-width="3" d="M373,-301.0265C373,-312.8082 373,-328.4393 373,-341.8419"/>
<polygon fill="#ffffff" stroke="#ffffff" stroke-width="3" points="369.5001,-341.9966 373,-351.9966 376.5001,-341.9967 369.5001,-341.9966"/>
<text text-anchor="middle" x="478.5" y="-322.8" font-family="Times,serif" font-size="14.00" fill="#ffffff"> 20000.0 row(s) | 10.0% estd.</text>
</g>
<!-- 94574245891520 -->
<g id="node15" class="node">
<title>94574245891520</title>
<polygon fill="none" stroke="#ffffff" points="477,-213 269,-213 269,-177 477,-177 477,-213"/>
<text text-anchor="middle" x="373" y="-191.3" font-family="Times,serif" font-size="14.00" fill="#ffffff">[StoredTable] Name: &#39;part&#39;</text>
</g>
<!-- 94574245891520&#45;&gt;94573850599776 -->
<g id="edge14" class="edge">
<title>94574245891520&#45;&gt;94573850599776</title>
<path fill="none" stroke="#ffffff" stroke-width="3" d="M373,-213.2337C373,-225.1508 373,-240.9616 373,-254.5183"/>
<polygon fill="#ffffff" stroke="#ffffff" stroke-width="3" points="369.5001,-254.7897 373,-264.7897 376.5001,-254.7897 369.5001,-254.7897"/>
<text text-anchor="middle" x="487.5" y="-235.8" font-family="Times,serif" font-size="14.00" fill="#ffffff"> 200000.0 row(s) | 100.0% estd.</text>
</g>
<!-- 94574279754608 -->
<g id="node16" class="node">
<title>94574279754608</title>
<polygon fill="none" stroke="#ffffff" points="822.5,-653 559.5,-653 559.5,-617 822.5,-617 822.5,-653"/>
<text text-anchor="middle" x="691" y="-631.3" font-family="Times,serif" font-size="14.00" fill="#ffffff">[Projection] 0.5 * SUM(l_quantity)</text>
</g>
<!-- 94574279754608&#45;&gt;94574492583904 -->
<g id="edge15" class="edge">
<title>94574279754608&#45;&gt;94574492583904</title>
<path fill="none" stroke="#ffffff" stroke-dasharray="5,2" d="M679.3428,-653.1637C671.5928,-663.988 660.5527,-677.2746 648,-686 640.768,-691.027 632.9059,-695.5485 624.7671,-699.6029"/>
<polygon fill="#ffffff" stroke="#ffffff" points="623.0304,-696.5522 615.4793,-703.984 626.0168,-702.8832 623.0304,-696.5522"/>
<text text-anchor="middle" x="738" y="-674.8" font-family="Times,serif" font-size="14.00" fill="#ffffff">correlated subquery</text>
</g>
<!-- 94573936482976 -->
<g id="node17" class="node">
<title>94573936482976</title>
<polygon fill="none" stroke="#ffffff" points="834.5,-566 549.5,-566 549.5,-528 834.5,-528 834.5,-566"/>
<text text-anchor="middle" x="692" y="-550.8" font-family="Times,serif" font-size="14.00" fill="#ffffff">[Aggregate] GroupBy: [] Aggregates: </text>
<text text-anchor="middle" x="692" y="-535.8" font-family="Times,serif" font-size="14.00" fill="#ffffff">[SUM(l_quantity)] </text>
</g>
<!-- 94573936482976&#45;&gt;94574279754608 -->
<g id="edge16" class="edge">
<title>94573936482976&#45;&gt;94574279754608</title>
<path fill="none" stroke="#ffffff" d="M691.783,-566.0947C691.6479,-577.981 691.4718,-593.483 691.3208,-606.7725"/>
<polygon fill="#ffffff" stroke="#ffffff" points="687.8203,-606.8056 691.2063,-616.8447 694.8198,-606.8852 687.8203,-606.8056"/>
<text text-anchor="middle" x="783" y="-587.8" font-family="Times,serif" font-size="14.00" fill="#ffffff"> 0.0 row(s) | 100.0% estd.</text>
</g>
<!-- 94573701468656 -->
<g id="node18" class="node">
<title>94573701468656</title>
<polygon fill="none" stroke="#ffffff" points="861.5,-477 522.5,-477 522.5,-439 861.5,-439 861.5,-477"/>
<text text-anchor="middle" x="692" y="-461.8" font-family="Times,serif" font-size="14.00" fill="#ffffff">[Projection] l_partkey, l_suppkey, l_quantity, </text>
<text text-anchor="middle" x="692" y="-446.8" font-family="Times,serif" font-size="14.00" fill="#ffffff">l_shipdate </text>
</g>
<!-- 94573701468656&#45;&gt;94573936482976 -->
<g id="edge17" class="edge">
<title>94573701468656&#45;&gt;94573936482976</title>
<path fill="none" stroke="#ffffff" d="M692,-477.3117C692,-489.091 692,-504.3813 692,-517.6372"/>
<polygon fill="#ffffff" stroke="#ffffff" points="688.5001,-517.726 692,-527.726 695.5001,-517.726 688.5001,-517.726"/>
<text text-anchor="middle" x="784" y="-498.8" font-family="Times,serif" font-size="14.00" fill="#ffffff"> 0.0 row(s) | 100.0% estd.</text>
</g>
<!-- 94574672045968 -->
<g id="node19" class="node">
<title>94574672045968</title>
<polygon fill="none" stroke="#ffffff" points="834,-388 550,-388 550,-352 834,-352 834,-388"/>
<text text-anchor="middle" x="692" y="-366.3" font-family="Times,serif" font-size="14.00" fill="#ffffff">[Predicate] l_shipdate &lt; &#39;1995&#45;01&#45;01&#39;</text>
</g>
<!-- 94574672045968&#45;&gt;94573701468656 -->
<g id="edge18" class="edge">
<title>94574672045968&#45;&gt;94573701468656</title>
<path fill="none" stroke="#ffffff" d="M692,-388.2337C692,-399.9125 692,-415.3308 692,-428.7022"/>
<polygon fill="#ffffff" stroke="#ffffff" points="688.5001,-428.8765 692,-438.8765 695.5001,-428.8765 688.5001,-428.8765"/>
<text text-anchor="middle" x="784" y="-409.8" font-family="Times,serif" font-size="14.00" fill="#ffffff"> 0.0 row(s) | 100.0% estd.</text>
</g>
<!-- 94574554449776 -->
<g id="node20" class="node">
<title>94574554449776</title>
<polygon fill="none" stroke="#ffffff" points="840,-301 544,-301 544,-265 840,-265 840,-301"/>
<text text-anchor="middle" x="692" y="-279.3" font-family="Times,serif" font-size="14.00" fill="#ffffff">[Predicate] l_shipdate &gt;= &#39;1994&#45;01&#45;01&#39;</text>
</g>
<!-- 94574554449776&#45;&gt;94574672045968 -->
<g id="edge19" class="edge">
<title>94574554449776&#45;&gt;94574672045968</title>
<path fill="none" stroke="#ffffff" d="M692,-301.0265C692,-312.8082 692,-328.4393 692,-341.8419"/>
<polygon fill="#ffffff" stroke="#ffffff" points="688.5001,-341.9966 692,-351.9966 695.5001,-341.9967 688.5001,-341.9966"/>
<text text-anchor="middle" x="784" y="-322.8" font-family="Times,serif" font-size="14.00" fill="#ffffff"> 0.0 row(s) | 100.0% estd.</text>
</g>
<!-- 94574986702576 -->
<g id="node21" class="node">
<title>94574986702576</title>
<polygon fill="none" stroke="#ffffff" points="832.5,-214 551.5,-214 551.5,-176 832.5,-176 832.5,-214"/>
<text text-anchor="middle" x="692" y="-198.8" font-family="Times,serif" font-size="14.00" fill="#ffffff">[Predicate] l_suppkey = </text>
<text text-anchor="middle" x="692" y="-183.8" font-family="Times,serif" font-size="14.00" fill="#ffffff">Parameter[name=ps_suppkey;id=1] </text>
</g>
<!-- 94574986702576&#45;&gt;94574554449776 -->
<g id="edge20" class="edge">
<title>94574986702576&#45;&gt;94574554449776</title>
<path fill="none" stroke="#ffffff" d="M692,-214.0947C692,-225.981 692,-241.483 692,-254.7725"/>
<polygon fill="#ffffff" stroke="#ffffff" points="688.5001,-254.8447 692,-264.8447 695.5001,-254.8448 688.5001,-254.8447"/>
<text text-anchor="middle" x="775" y="-235.8" font-family="Times,serif" font-size="14.00" fill="#ffffff"> 0.0 row(s) | 0.0% estd.</text>
</g>
<!-- 94574718293040 -->
<g id="node22" class="node">
<title>94574718293040</title>
<polygon fill="none" stroke="#ffffff" points="830,-125 554,-125 554,-87 830,-87 830,-125"/>
<text text-anchor="middle" x="692" y="-109.8" font-family="Times,serif" font-size="14.00" fill="#ffffff">[Predicate] l_partkey = </text>
<text text-anchor="middle" x="692" y="-94.8" font-family="Times,serif" font-size="14.00" fill="#ffffff">Parameter[name=ps_partkey;id=0] </text>
</g>
<!-- 94574718293040&#45;&gt;94574986702576 -->
<g id="edge21" class="edge">
<title>94574718293040&#45;&gt;94574986702576</title>
<path fill="none" stroke="#ffffff" d="M692,-125.3117C692,-137.091 692,-152.3813 692,-165.6372"/>
<polygon fill="#ffffff" stroke="#ffffff" points="688.5001,-165.726 692,-175.726 695.5001,-165.726 688.5001,-165.726"/>
<text text-anchor="middle" x="779.5" y="-146.8" font-family="Times,serif" font-size="14.00" fill="#ffffff"> 30.0 row(s) | 0.0% estd.</text>
</g>
<!-- 94574986703952 -->
<g id="node23" class="node">
<title>94574986703952</title>
<polygon fill="none" stroke="#ffffff" points="810,-36 574,-36 574,0 810,0 810,-36"/>
<text text-anchor="middle" x="692" y="-14.3" font-family="Times,serif" font-size="14.00" fill="#ffffff">[StoredTable] Name: &#39;lineitem&#39;</text>
</g>
<!-- 94574986703952&#45;&gt;94574718293040 -->
<g id="edge22" class="edge">
<title>94574986703952&#45;&gt;94574718293040</title>
<path fill="none" stroke="#ffffff" stroke-width="4" d="M692,-36.2337C692,-47.9125 692,-63.3308 692,-76.7022"/>
<polygon fill="#ffffff" stroke="#ffffff" stroke-width="4" points="688.5001,-76.8765 692,-86.8765 695.5001,-76.8765 688.5001,-76.8765"/>
<text text-anchor="middle" x="811" y="-57.8" font-family="Times,serif" font-size="14.00" fill="#ffffff"> 6001215.0 row(s) | 100.0% estd.</text>
</g>
<!-- 94574549420144 -->
<g id="node24" class="node">
<title>94574549420144</title>
<polygon fill="none" stroke="#ffffff" points="921.5,-1021 666.5,-1021 666.5,-985 921.5,-985 921.5,-1021"/>
<text text-anchor="middle" x="794" y="-999.3" font-family="Times,serif" font-size="14.00" fill="#ffffff">[Projection] n_nationkey, n_name</text>
</g>
<!-- 94574549420144&#45;&gt;94574935820992 -->
<g id="edge23" class="edge">
<title>94574549420144&#45;&gt;94574935820992</title>
<path fill="none" stroke="#ffffff" d="M783.9475,-1021.2434C776.9094,-1032.4575 766.5376,-1046.2968 754,-1055 746.1608,-1060.4417 737.4721,-1065.082 728.4731,-1069.0346"/>
<polygon fill="#ffffff" stroke="#ffffff" points="726.9345,-1065.8824 719.0054,-1072.9094 729.586,-1072.3608 726.9345,-1065.8824"/>
<text text-anchor="middle" x="861" y="-1043.8" font-family="Times,serif" font-size="14.00" fill="#ffffff"> 1.0 row(s) | 100.0% estd.</text>
</g>
<!-- 94574891825200 -->
<g id="node25" class="node">
<title>94574891825200</title>
<polygon fill="none" stroke="#ffffff" points="921.5,-932 670.5,-932 670.5,-896 921.5,-896 921.5,-932"/>
<text text-anchor="middle" x="796" y="-910.3" font-family="Times,serif" font-size="14.00" fill="#ffffff">[Predicate] n_name = &#39;CANADA&#39;</text>
</g>
<!-- 94574891825200&#45;&gt;94574549420144 -->
<g id="edge24" class="edge">
<title>94574891825200&#45;&gt;94574549420144</title>
<path fill="none" stroke="#ffffff" d="M795.5953,-932.0105C795.3206,-944.2342 794.9517,-960.6505 794.6378,-974.6176"/>
<polygon fill="#ffffff" stroke="#ffffff" points="791.1366,-974.6347 794.411,-984.7108 798.1349,-974.792 791.1366,-974.6347"/>
<text text-anchor="middle" x="878" y="-954.8" font-family="Times,serif" font-size="14.00" fill="#ffffff"> 1.0 row(s) | 4.0% estd.</text>
</g>
<!-- 94574931448528 -->
<g id="node26" class="node">
<title>94574931448528</title>
<polygon fill="none" stroke="#ffffff" points="907.5,-844 684.5,-844 684.5,-808 907.5,-808 907.5,-844"/>
<text text-anchor="middle" x="796" y="-822.3" font-family="Times,serif" font-size="14.00" fill="#ffffff">[StoredTable] Name: &#39;nation&#39;</text>
</g>
<!-- 94574931448528&#45;&gt;94574891825200 -->
<g id="edge25" class="edge">
<title>94574931448528&#45;&gt;94574891825200</title>
<path fill="none" stroke="#ffffff" d="M796,-844.2337C796,-856.1508 796,-871.9616 796,-885.5183"/>
<polygon fill="#ffffff" stroke="#ffffff" points="792.5001,-885.7897 796,-895.7897 799.5001,-885.7897 792.5001,-885.7897"/>
<text text-anchor="middle" x="892.5" y="-865.8" font-family="Times,serif" font-size="14.00" fill="#ffffff"> 25.0 row(s) | 100.0% estd.</text>
</g>
</g>
</svg>
