<?xml version="1.0" encoding="UTF-8" standalone="no"?>
<!DOCTYPE svg PUBLIC "-//W3C//DTD SVG 1.1//EN"
 "http://www.w3.org/Graphics/SVG/1.1/DTD/svg11.dtd">
<!-- Generated by graphviz version 2.40.1 (20161225.0304)
 -->
<!-- Title: G Pages: 1 -->
<svg width="1172pt" height="1472pt"
 viewBox="0.00 0.00 1171.50 1472.00" xmlns="http://www.w3.org/2000/svg" xmlns:xlink="http://www.w3.org/1999/xlink">
<g id="graph0" class="graph" transform="scale(1 1) rotate(0) translate(4 1468)">
<title>G</title>
<polygon fill="#000000" stroke="transparent" points="-4,4 -4,-1468 1167.5,-1468 1167.5,4 -4,4"/>
<!-- 94573850790496 -->
<g id="node1" class="node">
<title>94573850790496</title>
<polygon fill="none" stroke="#ffffff" points="786.5,-1464 682.5,-1464 682.5,-1275 786.5,-1275 786.5,-1464"/>
<text text-anchor="middle" x="734.5" y="-1448.8" font-family="Times,serif" font-size="14.00" fill="#ffffff">Alias </text>
<text text-anchor="middle" x="734.5" y="-1433.8" font-family="Times,serif" font-size="14.00" fill="#ffffff">[c_custkey</text>
<text text-anchor="middle" x="734.5" y="-1418.8" font-family="Times,serif" font-size="14.00" fill="#ffffff">c_name</text>
<text text-anchor="middle" x="734.5" y="-1403.8" font-family="Times,serif" font-size="14.00" fill="#ffffff">revenue</text>
<text text-anchor="middle" x="734.5" y="-1388.8" font-family="Times,serif" font-size="14.00" fill="#ffffff">c_acctbal</text>
<text text-anchor="middle" x="734.5" y="-1373.8" font-family="Times,serif" font-size="14.00" fill="#ffffff">n_name</text>
<text text-anchor="middle" x="734.5" y="-1358.8" font-family="Times,serif" font-size="14.00" fill="#ffffff">c_address</text>
<text text-anchor="middle" x="734.5" y="-1343.8" font-family="Times,serif" font-size="14.00" fill="#ffffff">c_phone</text>
<text text-anchor="middle" x="734.5" y="-1328.8" font-family="Times,serif" font-size="14.00" fill="#ffffff">c_comment]</text>
<text text-anchor="middle" x="734.5" y="-1297.8" font-family="Times,serif" font-size="14.00" fill="#ffffff">2 </text>
<text text-anchor="middle" x="734.5" y="-1282.8" font-family="Times,serif" font-size="14.00" fill="#ffffff">µs 0 ns </text>
</g>
<!-- 94574798679840 -->
<g id="node2" class="node">
<title>94574798679840</title>
<polygon fill="none" stroke="#ffffff" points="779.5,-1224 689.5,-1224 689.5,-1170 779.5,-1170 779.5,-1224"/>
<text text-anchor="middle" x="734.5" y="-1208.8" font-family="Times,serif" font-size="14.00" fill="#ffffff">Projection</text>
<text text-anchor="middle" x="734.5" y="-1177.8" font-family="Times,serif" font-size="14.00" fill="#ffffff">24 µs 0 ns</text>
</g>
<!-- 94574798679840&#45;&gt;94573850790496 -->
<g id="edge1" class="edge">
<title>94574798679840&#45;&gt;94573850790496</title>
<path fill="none" stroke="#ffffff" stroke-width="3" d="M734.5,-1224.3331C734.5,-1235.6798 734.5,-1249.6323 734.5,-1264.3574"/>
<polygon fill="#ffffff" stroke="#ffffff" stroke-width="3" points="731.0001,-1264.6526 734.5,-1274.6526 738.0001,-1264.6527 731.0001,-1264.6526"/>
<text text-anchor="middle" x="857" y="-1245.8" font-family="Times,serif" font-size="14.00" fill="#ffffff">37967 row(s)/1 chunk(s)/6.987MB</text>
</g>
<!-- 94573936794400 -->
<g id="node3" class="node">
<title>94573936794400</title>
<polygon fill="none" stroke="#ffffff" stroke-width="3" points="791,-1119 678,-1119 678,-1065 791,-1065 791,-1119"/>
<text text-anchor="middle" x="734.5" y="-1103.8" font-family="Times,serif" font-size="14.00" fill="#ffffff">Sort</text>
<text text-anchor="middle" x="734.5" y="-1072.8" font-family="Times,serif" font-size="14.00" fill="#ffffff">66 ms 271 µs</text>
</g>
<!-- 94573936794400&#45;&gt;94574798679840 -->
<g id="edge2" class="edge">
<title>94573936794400&#45;&gt;94574798679840</title>
<path fill="none" stroke="#ffffff" stroke-width="3" d="M734.5,-1119.0401C734.5,-1131.3143 734.5,-1146.0382 734.5,-1159.3683"/>
<polygon fill="#ffffff" stroke="#ffffff" stroke-width="3" points="731.0001,-1159.6866 734.5,-1169.6866 738.0001,-1159.6866 731.0001,-1159.6866"/>
<text text-anchor="middle" x="857" y="-1140.8" font-family="Times,serif" font-size="14.00" fill="#ffffff">37967 row(s)/1 chunk(s)/6.987MB</text>
</g>
<!-- 94573697367824 -->
<g id="node4" class="node">
<title>94573697367824</title>
<polygon fill="none" stroke="#ffffff" stroke-width="3" points="920,-1014 549,-1014 549,-945 920,-945 920,-1014"/>
<text text-anchor="middle" x="734.5" y="-998.8" font-family="Times,serif" font-size="14.00" fill="#ffffff">[Aggregate] GroupBy ColumnIDs: 1, 2, 3, 4, 5, 6, </text>
<text text-anchor="middle" x="734.5" y="-983.8" font-family="Times,serif" font-size="14.00" fill="#ffffff">7 Aggregates: SUM(Column #0)</text>
<text text-anchor="middle" x="734.5" y="-952.8" font-family="Times,serif" font-size="14.00" fill="#ffffff">204 ms 701 µs </text>
</g>
<!-- 94573697367824&#45;&gt;94573936794400 -->
<g id="edge3" class="edge">
<title>94573697367824&#45;&gt;94573936794400</title>
<path fill="none" stroke="#ffffff" stroke-width="3" d="M734.5,-1014.1717C734.5,-1027.0092 734.5,-1041.6141 734.5,-1054.6774"/>
<polygon fill="#ffffff" stroke="#ffffff" stroke-width="3" points="731.0001,-1054.7601 734.5,-1064.7602 738.0001,-1054.7602 731.0001,-1054.7601"/>
<text text-anchor="middle" x="857" y="-1035.8" font-family="Times,serif" font-size="14.00" fill="#ffffff">37967 row(s)/1 chunk(s)/6.987MB</text>
</g>
<!-- 94573936793984 -->
<g id="node5" class="node">
<title>94573936793984</title>
<polygon fill="none" stroke="#ffffff" stroke-width="3" points="795.5,-894 673.5,-894 673.5,-840 795.5,-840 795.5,-894"/>
<text text-anchor="middle" x="734.5" y="-878.8" font-family="Times,serif" font-size="14.00" fill="#ffffff">Projection</text>
<text text-anchor="middle" x="734.5" y="-847.8" font-family="Times,serif" font-size="14.00" fill="#ffffff">174 ms 256 µs</text>
</g>
<!-- 94573936793984&#45;&gt;94573697367824 -->
<g id="edge4" class="edge">
<title>94573936793984&#45;&gt;94573697367824</title>
<path fill="none" stroke="#ffffff" stroke-width="3" d="M734.5,-894.2331C734.5,-906.3589 734.5,-920.9621 734.5,-934.6298"/>
<polygon fill="#ffffff" stroke="#ffffff" stroke-width="3" points="731.0001,-934.8427 734.5,-944.8427 738.0001,-934.8428 731.0001,-934.8427"/>
<text text-anchor="middle" x="866" y="-915.8" font-family="Times,serif" font-size="14.00" fill="#ffffff">114705 row(s)/8 chunk(s)/19.741MB</text>
</g>
<!-- 94574500717584 -->
<g id="node6" class="node">
<title>94574500717584</title>
<polygon fill="none" stroke="#ffffff" stroke-width="3" points="858.5,-789 610.5,-789 610.5,-705 858.5,-705 858.5,-789"/>
<text text-anchor="middle" x="734.5" y="-773.8" font-family="Times,serif" font-size="14.00" fill="#ffffff">JoinHash</text>
<text text-anchor="middle" x="734.5" y="-758.8" font-family="Times,serif" font-size="14.00" fill="#ffffff">(Inner Join where o_orderkey = </text>
<text text-anchor="middle" x="734.5" y="-743.8" font-family="Times,serif" font-size="14.00" fill="#ffffff">l_orderkey)</text>
<text text-anchor="middle" x="734.5" y="-712.8" font-family="Times,serif" font-size="14.00" fill="#ffffff">88 ms 872 µs </text>
</g>
<!-- 94574500717584&#45;&gt;94573936793984 -->
<g id="edge5" class="edge">
<title>94574500717584&#45;&gt;94573936793984</title>
<path fill="none" stroke="#ffffff" stroke-width="3" d="M734.5,-789.3075C734.5,-802.3814 734.5,-816.686 734.5,-829.4178"/>
<polygon fill="#ffffff" stroke="#ffffff" stroke-width="3" points="731.0001,-829.681 734.5,-839.681 738.0001,-829.6811 731.0001,-829.681"/>
<text text-anchor="middle" x="866" y="-810.8" font-family="Times,serif" font-size="14.00" fill="#ffffff">114705 row(s)/8 chunk(s)/14.690MB</text>
</g>
<!-- 94574985542208 -->
<g id="node7" class="node">
<title>94574985542208</title>
<polygon fill="none" stroke="#ffffff" stroke-width="3" points="716,-654 477,-654 477,-570 716,-570 716,-654"/>
<text text-anchor="middle" x="596.5" y="-638.8" font-family="Times,serif" font-size="14.00" fill="#ffffff">JoinHash</text>
<text text-anchor="middle" x="596.5" y="-623.8" font-family="Times,serif" font-size="14.00" fill="#ffffff">(Inner Join where c_custkey = </text>
<text text-anchor="middle" x="596.5" y="-608.8" font-family="Times,serif" font-size="14.00" fill="#ffffff">o_custkey)</text>
<text text-anchor="middle" x="596.5" y="-577.8" font-family="Times,serif" font-size="14.00" fill="#ffffff">19 ms 4 µs </text>
</g>
<!-- 94574985542208&#45;&gt;94574500717584 -->
<g id="edge6" class="edge">
<title>94574985542208&#45;&gt;94574500717584</title>
<path fill="none" stroke="#ffffff" stroke-width="3" d="M589.043,-654.1679C589.0682,-665.6039 591.1658,-677.4504 597.5,-687 600.0723,-690.878 602.9558,-694.5071 606.0945,-697.9031"/>
<polygon fill="#ffffff" stroke="#ffffff" stroke-width="3" points="603.7457,-700.5012 613.3513,-704.9715 608.6299,-695.4868 603.7457,-700.5012"/>
<text text-anchor="middle" x="724.5" y="-675.8" font-family="Times,serif" font-size="14.00" fill="#ffffff">57069 row(s)/16 chunk(s)/5.491MB</text>
</g>
<!-- 94574500717408 -->
<g id="node8" class="node">
<title>94574500717408</title>
<polygon fill="none" stroke="#ffffff" stroke-width="2" points="437.5,-511.5 183.5,-511.5 183.5,-427.5 437.5,-427.5 437.5,-511.5"/>
<text text-anchor="middle" x="310.5" y="-496.3" font-family="Times,serif" font-size="14.00" fill="#ffffff">JoinHash</text>
<text text-anchor="middle" x="310.5" y="-481.3" font-family="Times,serif" font-size="14.00" fill="#ffffff">(Inner Join where c_nationkey = </text>
<text text-anchor="middle" x="310.5" y="-466.3" font-family="Times,serif" font-size="14.00" fill="#ffffff">n_nationkey)</text>
<text text-anchor="middle" x="310.5" y="-435.3" font-family="Times,serif" font-size="14.00" fill="#ffffff">2 ms 523 µs </text>
</g>
<!-- 94574500717408&#45;&gt;94574985542208 -->
<g id="edge7" class="edge">
<title>94574500717408&#45;&gt;94574985542208</title>
<path fill="none" stroke="#ffffff" stroke-width="3" d="M311.3156,-511.6675C313.6958,-526.1827 318.8711,-541.4274 329.5,-552 349.6001,-571.9937 408.9881,-586.3857 466.6639,-596.0536"/>
<polygon fill="#ffffff" stroke="#ffffff" stroke-width="3" points="466.2152,-599.5266 476.6486,-597.6843 467.3435,-592.6182 466.2152,-599.5266"/>
<text text-anchor="middle" x="461" y="-540.8" font-family="Times,serif" font-size="14.00" fill="#ffffff">150000 row(s)/1 chunk(s)/10.800MB</text>
</g>
<!-- 94573936794960 -->
<g id="node9" class="node">
<title>94573936794960</title>
<polygon fill="none" stroke="#ffffff" stroke-width="2" points="99,-346.5 0,-346.5 0,-292.5 99,-292.5 99,-346.5"/>
<text text-anchor="middle" x="49.5" y="-331.3" font-family="Times,serif" font-size="14.00" fill="#ffffff">Projection</text>
<text text-anchor="middle" x="49.5" y="-300.3" font-family="Times,serif" font-size="14.00" fill="#ffffff">350 µs 0 ns</text>
</g>
<!-- 94573936794960&#45;&gt;94574500717408 -->
<g id="edge8" class="edge">
<title>94573936794960&#45;&gt;94574500717408</title>
<path fill="none" stroke="#ffffff" stroke-width="3" d="M44.0433,-346.5892C42.1062,-364.2928 42.9416,-386.8553 55.5,-402 71.7371,-421.5809 121.9011,-436.8785 173.4894,-447.9231"/>
<polygon fill="#ffffff" stroke="#ffffff" stroke-width="3" points="172.9689,-451.3898 183.4729,-450.0055 174.3983,-444.5373 172.9689,-451.3898"/>
<text text-anchor="middle" x="187" y="-390.8" font-family="Times,serif" font-size="14.00" fill="#ffffff">150000 row(s)/2 chunk(s)/25.329MB</text>
</g>
<!-- 94574205125296 -->
<g id="node10" class="node">
<title>94574205125296</title>
<polygon fill="none" stroke="#ffffff" points="97,-204 2,-204 2,-135 97,-135 97,-204"/>
<text text-anchor="middle" x="49.5" y="-188.8" font-family="Times,serif" font-size="14.00" fill="#ffffff">GetTable</text>
<text text-anchor="middle" x="49.5" y="-173.8" font-family="Times,serif" font-size="14.00" fill="#ffffff">(customer)</text>
<text text-anchor="middle" x="49.5" y="-142.8" font-family="Times,serif" font-size="14.00" fill="#ffffff">0 ns</text>
</g>
<!-- 94574205125296&#45;&gt;94573936794960 -->
<g id="edge9" class="edge">
<title>94574205125296&#45;&gt;94573936794960</title>
<path fill="none" stroke="#ffffff" stroke-width="3" d="M49.5,-204.29C49.5,-227.6608 49.5,-258.4273 49.5,-282.2872"/>
<polygon fill="#ffffff" stroke="#ffffff" stroke-width="3" points="46.0001,-282.3795 49.5,-292.3796 53.0001,-282.3796 46.0001,-282.3795"/>
<text text-anchor="middle" x="181" y="-240.8" font-family="Times,serif" font-size="14.00" fill="#ffffff">150000 row(s)/2 chunk(s)/25.479MB</text>
</g>
<!-- 94573936792640 -->
<g id="node11" class="node">
<title>94573936792640</title>
<polygon fill="none" stroke="#ffffff" points="380.5,-346.5 290.5,-346.5 290.5,-292.5 380.5,-292.5 380.5,-346.5"/>
<text text-anchor="middle" x="335.5" y="-331.3" font-family="Times,serif" font-size="14.00" fill="#ffffff">Projection</text>
<text text-anchor="middle" x="335.5" y="-300.3" font-family="Times,serif" font-size="14.00" fill="#ffffff">5 µs 0 ns</text>
</g>
<!-- 94573936792640&#45;&gt;94574500717408 -->
<g id="edge10" class="edge">
<title>94573936792640&#45;&gt;94574500717408</title>
<path fill="none" stroke="#ffffff" d="M330.9727,-346.6639C327.6977,-366.3139 323.1695,-393.4829 319.2043,-417.274"/>
<polygon fill="#ffffff" stroke="#ffffff" points="315.7364,-416.7922 317.5447,-427.2316 322.6412,-417.943 315.7364,-416.7922"/>
<text text-anchor="middle" x="431.5" y="-390.8" font-family="Times,serif" font-size="14.00" fill="#ffffff">25 row(s)/1 chunk(s)/1.851KB</text>
</g>
<!-- 94573701565856 -->
<g id="node12" class="node">
<title>94573701565856</title>
<polygon fill="none" stroke="#ffffff" points="376,-204 295,-204 295,-135 376,-135 376,-204"/>
<text text-anchor="middle" x="335.5" y="-188.8" font-family="Times,serif" font-size="14.00" fill="#ffffff">GetTable</text>
<text text-anchor="middle" x="335.5" y="-173.8" font-family="Times,serif" font-size="14.00" fill="#ffffff">(nation)</text>
<text text-anchor="middle" x="335.5" y="-142.8" font-family="Times,serif" font-size="14.00" fill="#ffffff">0 ns</text>
</g>
<!-- 94573701565856&#45;&gt;94573936792640 -->
<g id="edge11" class="edge">
<title>94573701565856&#45;&gt;94573936792640</title>
<path fill="none" stroke="#ffffff" d="M335.5,-204.29C335.5,-227.6608 335.5,-258.4273 335.5,-282.2872"/>
<polygon fill="#ffffff" stroke="#ffffff" points="332.0001,-282.3795 335.5,-292.3796 339.0001,-282.3796 332.0001,-282.3795"/>
<text text-anchor="middle" x="442.5" y="-240.8" font-family="Times,serif" font-size="14.00" fill="#ffffff">25 row(s)/1 chunk(s)/2.869KB</text>
</g>
<!-- 94574237562784 -->
<g id="node13" class="node">
<title>94574237562784</title>
<polygon fill="none" stroke="#ffffff" points="641.5,-496.5 551.5,-496.5 551.5,-442.5 641.5,-442.5 641.5,-496.5"/>
<text text-anchor="middle" x="596.5" y="-481.3" font-family="Times,serif" font-size="14.00" fill="#ffffff">Projection</text>
<text text-anchor="middle" x="596.5" y="-450.3" font-family="Times,serif" font-size="14.00" fill="#ffffff">12 µs 0 ns</text>
</g>
<!-- 94574237562784&#45;&gt;94574985542208 -->
<g id="edge12" class="edge">
<title>94574237562784&#45;&gt;94574985542208</title>
<path fill="none" stroke="#ffffff" stroke-width="3" d="M596.5,-496.6386C596.5,-514.404 596.5,-538.2016 596.5,-559.5675"/>
<polygon fill="#ffffff" stroke="#ffffff" stroke-width="3" points="593.0001,-559.8237 596.5,-569.8237 600.0001,-559.8237 593.0001,-559.8237"/>
<text text-anchor="middle" x="723.5" y="-540.8" font-family="Times,serif" font-size="14.00" fill="#ffffff">57069 row(s)/15 chunk(s)/1.374MB</text>
</g>
<!-- 94573703874928 -->
<g id="node14" class="node">
<title>94573703874928</title>
<polygon fill="none" stroke="#ffffff" stroke-width="2" points="687,-369 506,-369 506,-270 687,-270 687,-369"/>
<text text-anchor="middle" x="596.5" y="-353.8" font-family="Times,serif" font-size="14.00" fill="#ffffff">TableScan</text>
<text text-anchor="middle" x="596.5" y="-338.8" font-family="Times,serif" font-size="14.00" fill="#ffffff">Impl: LiteralTableScan</text>
<text text-anchor="middle" x="596.5" y="-323.8" font-family="Times,serif" font-size="14.00" fill="#ffffff">o_orderdate &lt; </text>
<text text-anchor="middle" x="596.5" y="-308.8" font-family="Times,serif" font-size="14.00" fill="#ffffff">&#39;1994&#45;01&#45;01&#39;</text>
<text text-anchor="middle" x="596.5" y="-277.8" font-family="Times,serif" font-size="14.00" fill="#ffffff">2 ms 41 µs </text>
</g>
<!-- 94573703874928&#45;&gt;94574237562784 -->
<g id="edge13" class="edge">
<title>94573703874928&#45;&gt;94574237562784</title>
<path fill="none" stroke="#ffffff" stroke-width="3" d="M596.5,-369.0313C596.5,-389.6238 596.5,-413.123 596.5,-432.2146"/>
<polygon fill="#ffffff" stroke="#ffffff" stroke-width="3" points="593.0001,-432.3212 596.5,-442.3212 600.0001,-432.3212 593.0001,-432.3212"/>
<text text-anchor="middle" x="723.5" y="-390.8" font-family="Times,serif" font-size="14.00" fill="#ffffff">57069 row(s)/15 chunk(s)/4.118MB</text>
</g>
<!-- 94573850676432 -->
<g id="node15" class="node">
<title>94573850676432</title>
<polygon fill="none" stroke="#ffffff" stroke-width="2" points="687,-219 506,-219 506,-120 687,-120 687,-219"/>
<text text-anchor="middle" x="596.5" y="-203.8" font-family="Times,serif" font-size="14.00" fill="#ffffff">TableScan</text>
<text text-anchor="middle" x="596.5" y="-188.8" font-family="Times,serif" font-size="14.00" fill="#ffffff">Impl: LiteralTableScan</text>
<text text-anchor="middle" x="596.5" y="-173.8" font-family="Times,serif" font-size="14.00" fill="#ffffff">o_orderdate &gt;= </text>
<text text-anchor="middle" x="596.5" y="-158.8" font-family="Times,serif" font-size="14.00" fill="#ffffff">&#39;1993&#45;10&#45;01&#39;</text>
<text text-anchor="middle" x="596.5" y="-127.8" font-family="Times,serif" font-size="14.00" fill="#ffffff">7 ms 991 µs </text>
</g>
<!-- 94573850676432&#45;&gt;94573703874928 -->
<g id="edge14" class="edge">
<title>94573850676432&#45;&gt;94573703874928</title>
<path fill="none" stroke="#ffffff" stroke-width="4" d="M596.5,-219.0313C596.5,-232.0196 596.5,-246.1643 596.5,-259.63"/>
<polygon fill="#ffffff" stroke="#ffffff" stroke-width="4" points="593.0001,-259.7646 596.5,-269.7646 600.0001,-259.7646 593.0001,-259.7646"/>
<text text-anchor="middle" x="737" y="-240.8" font-family="Times,serif" font-size="14.00" fill="#ffffff">1103335 row(s)/15 chunk(s)/79.449MB</text>
</g>
<!-- 94573706719952 -->
<g id="node16" class="node">
<title>94573706719952</title>
<polygon fill="none" stroke="#ffffff" points="637,-69 556,-69 556,0 637,0 637,-69"/>
<text text-anchor="middle" x="596.5" y="-53.8" font-family="Times,serif" font-size="14.00" fill="#ffffff">GetTable</text>
<text text-anchor="middle" x="596.5" y="-38.8" font-family="Times,serif" font-size="14.00" fill="#ffffff">(orders)</text>
<text text-anchor="middle" x="596.5" y="-7.8" font-family="Times,serif" font-size="14.00" fill="#ffffff">1 µs 0 ns</text>
</g>
<!-- 94573706719952&#45;&gt;94573850676432 -->
<g id="edge15" class="edge">
<title>94573706719952&#45;&gt;94573850676432</title>
<path fill="none" stroke="#ffffff" stroke-width="4" d="M596.5,-69.2659C596.5,-81.5301 596.5,-95.6967 596.5,-109.446"/>
<polygon fill="#ffffff" stroke="#ffffff" stroke-width="4" points="593.0001,-109.8405 596.5,-119.8405 600.0001,-109.8406 593.0001,-109.8405"/>
<text text-anchor="middle" x="741.5" y="-90.8" font-family="Times,serif" font-size="14.00" fill="#ffffff">1500000 row(s)/15 chunk(s)/114.197MB</text>
</g>
<!-- 94573850790128 -->
<g id="node17" class="node">
<title>94573850790128</title>
<polygon fill="none" stroke="#ffffff" points="918.5,-639 828.5,-639 828.5,-585 918.5,-585 918.5,-639"/>
<text text-anchor="middle" x="873.5" y="-623.8" font-family="Times,serif" font-size="14.00" fill="#ffffff">Projection</text>
<text text-anchor="middle" x="873.5" y="-592.8" font-family="Times,serif" font-size="14.00" fill="#ffffff">52 µs 0 ns</text>
</g>
<!-- 94573850790128&#45;&gt;94574500717584 -->
<g id="edge16" class="edge">
<title>94573850790128&#45;&gt;94574500717584</title>
<path fill="none" stroke="#ffffff" stroke-width="4" d="M870.8669,-639.1022C868.1568,-654.5736 862.6577,-673.5123 851.5,-687 848.1749,-691.0194 844.5112,-694.7993 840.5958,-698.3505"/>
<polygon fill="#ffffff" stroke="#ffffff" stroke-width="4" points="838.1959,-695.7952 832.7788,-704.9005 842.6917,-701.1606 838.1959,-695.7952"/>
<text text-anchor="middle" x="1001" y="-675.8" font-family="Times,serif" font-size="14.00" fill="#ffffff">1478870 row(s)/61 chunk(s)/47.345MB</text>
</g>
<!-- 94573703875792 -->
<g id="node18" class="node">
<title>94573703875792</title>
<polygon fill="none" stroke="#ffffff" stroke-width="3" points="964,-519 783,-519 783,-420 964,-420 964,-519"/>
<text text-anchor="middle" x="873.5" y="-503.8" font-family="Times,serif" font-size="14.00" fill="#ffffff">TableScan</text>
<text text-anchor="middle" x="873.5" y="-488.8" font-family="Times,serif" font-size="14.00" fill="#ffffff">Impl: LiteralTableScan</text>
<text text-anchor="middle" x="873.5" y="-473.8" font-family="Times,serif" font-size="14.00" fill="#ffffff">l_returnflag = </text>
<text text-anchor="middle" x="873.5" y="-458.8" font-family="Times,serif" font-size="14.00" fill="#ffffff">&#39;R&#39;</text>
<text text-anchor="middle" x="873.5" y="-427.8" font-family="Times,serif" font-size="14.00" fill="#ffffff">19 ms 770 µs </text>
</g>
<!-- 94573703875792&#45;&gt;94573850790128 -->
<g id="edge17" class="edge">
<title>94573703875792&#45;&gt;94573850790128</title>
<path fill="none" stroke="#ffffff" stroke-width="4" d="M873.5,-519.3396C873.5,-537.551 873.5,-557.8196 873.5,-574.7453"/>
<polygon fill="#ffffff" stroke="#ffffff" stroke-width="4" points="870.0001,-574.8036 873.5,-584.8036 877.0001,-574.8037 870.0001,-574.8036"/>
<text text-anchor="middle" x="1018.5" y="-540.8" font-family="Times,serif" font-size="14.00" fill="#ffffff">1478870 row(s)/61 chunk(s)/189.358MB</text>
</g>
<!-- 94573709547216 -->
<g id="node19" class="node">
<title>94573709547216</title>
<polygon fill="none" stroke="#ffffff" points="916.5,-354 830.5,-354 830.5,-285 916.5,-285 916.5,-354"/>
<text text-anchor="middle" x="873.5" y="-338.8" font-family="Times,serif" font-size="14.00" fill="#ffffff">GetTable</text>
<text text-anchor="middle" x="873.5" y="-323.8" font-family="Times,serif" font-size="14.00" fill="#ffffff">(lineitem)</text>
<text text-anchor="middle" x="873.5" y="-292.8" font-family="Times,serif" font-size="14.00" fill="#ffffff">1 µs 0 ns</text>
</g>
<!-- 94573709547216&#45;&gt;94573703875792 -->
<g id="edge18" class="edge">
<title>94573709547216&#45;&gt;94573703875792</title>
<path fill="none" stroke="#ffffff" stroke-width="4" d="M873.5,-354.29C873.5,-370.7963 873.5,-390.9918 873.5,-409.8376"/>
<polygon fill="#ffffff" stroke="#ffffff" stroke-width="4" points="870.0001,-409.8386 873.5,-419.8386 877.0001,-409.8386 870.0001,-409.8386"/>
<text text-anchor="middle" x="1018.5" y="-390.8" font-family="Times,serif" font-size="14.00" fill="#ffffff">6001215 row(s)/61 chunk(s)/500.660MB</text>
</g>
</g>
</svg>
