<?xml version="1.0" encoding="UTF-8" standalone="no"?>
<!DOCTYPE svg PUBLIC "-//W3C//DTD SVG 1.1//EN"
 "http://www.w3.org/Graphics/SVG/1.1/DTD/svg11.dtd">
<!-- Generated by graphviz version 2.40.1 (20161225.0304)
 -->
<!-- Title: G Pages: 1 -->
<svg width="444pt" height="746pt"
 viewBox="0.00 0.00 444.00 746.00" xmlns="http://www.w3.org/2000/svg" xmlns:xlink="http://www.w3.org/1999/xlink">
<g id="graph0" class="graph" transform="scale(1 1) rotate(0) translate(4 742)">
<title>G</title>
<polygon fill="#000000" stroke="transparent" points="-4,4 -4,-742 440,-742 440,4 -4,4"/>
<!-- 94574495749328 -->
<g id="node1" class="node">
<title>94574495749328</title>
<polygon fill="none" stroke="#ffffff" points="369,-738 27,-738 27,-700 369,-700 369,-738"/>
<text text-anchor="middle" x="198" y="-722.8" font-family="Times,serif" font-size="14.00" fill="#ffffff">Alias [SUM(l_extendedprice * l_discount) AS </text>
<text text-anchor="middle" x="198" y="-707.8" font-family="Times,serif" font-size="14.00" fill="#ffffff">REVENUE] </text>
</g>
<!-- 94573733613312 -->
<g id="node2" class="node">
<title>94573733613312</title>
<polygon fill="none" stroke="#ffffff" points="340.5,-649 55.5,-649 55.5,-611 340.5,-611 340.5,-649"/>
<text text-anchor="middle" x="198" y="-633.8" font-family="Times,serif" font-size="14.00" fill="#ffffff">[Aggregate] GroupBy: [] Aggregates: </text>
<text text-anchor="middle" x="198" y="-618.8" font-family="Times,serif" font-size="14.00" fill="#ffffff">[SUM(l_extendedprice * l_discount)] </text>
</g>
<!-- 94573733613312&#45;&gt;94574495749328 -->
<g id="edge1" class="edge">
<title>94573733613312&#45;&gt;94574495749328</title>
<path fill="none" stroke="#ffffff" stroke-width="3" d="M198,-649.3117C198,-661.091 198,-676.3813 198,-689.6372"/>
<polygon fill="#ffffff" stroke="#ffffff" stroke-width="3" points="194.5001,-689.726 198,-699.726 201.5001,-689.726 194.5001,-689.726"/>
<text text-anchor="middle" x="312.5" y="-670.8" font-family="Times,serif" font-size="14.00" fill="#ffffff"> 563661.0 row(s) | 100.0% estd.</text>
</g>
<!-- 94574235912016 -->
<g id="node3" class="node">
<title>94574235912016</title>
<polygon fill="none" stroke="#ffffff" points="353,-560 43,-560 43,-524 353,-524 353,-560"/>
<text text-anchor="middle" x="198" y="-538.3" font-family="Times,serif" font-size="14.00" fill="#ffffff">[Projection] l_extendedprice * l_discount</text>
</g>
<!-- 94574235912016&#45;&gt;94573733613312 -->
<g id="edge2" class="edge">
<title>94574235912016&#45;&gt;94573733613312</title>
<path fill="none" stroke="#ffffff" stroke-width="3" d="M198,-560.2337C198,-571.9125 198,-587.3308 198,-600.7022"/>
<polygon fill="#ffffff" stroke="#ffffff" stroke-width="3" points="194.5001,-600.8765 198,-610.8765 201.5001,-600.8765 194.5001,-600.8765"/>
<text text-anchor="middle" x="312.5" y="-581.8" font-family="Times,serif" font-size="14.00" fill="#ffffff"> 563661.0 row(s) | 100.0% estd.</text>
</g>
<!-- 94574027119248 -->
<g id="node4" class="node">
<title>94574027119248</title>
<polygon fill="none" stroke="#ffffff" points="352,-473 44,-473 44,-435 352,-435 352,-473"/>
<text text-anchor="middle" x="198" y="-457.8" font-family="Times,serif" font-size="14.00" fill="#ffffff">[Projection] l_quantity, l_extendedprice, </text>
<text text-anchor="middle" x="198" y="-442.8" font-family="Times,serif" font-size="14.00" fill="#ffffff">l_discount, l_shipdate </text>
</g>
<!-- 94574027119248&#45;&gt;94574235912016 -->
<g id="edge3" class="edge">
<title>94574027119248&#45;&gt;94574235912016</title>
<path fill="none" stroke="#ffffff" stroke-width="3" d="M198,-473.0947C198,-484.981 198,-500.483 198,-513.7725"/>
<polygon fill="#ffffff" stroke="#ffffff" stroke-width="3" points="194.5001,-513.8447 198,-523.8447 201.5001,-513.8448 194.5001,-513.8447"/>
<text text-anchor="middle" x="312.5" y="-494.8" font-family="Times,serif" font-size="14.00" fill="#ffffff"> 563661.0 row(s) | 100.0% estd.</text>
</g>
<!-- 94574027119040 -->
<g id="node5" class="node">
<title>94574027119040</title>
<polygon fill="none" stroke="#ffffff" points="340,-384 56,-384 56,-348 340,-348 340,-384"/>
<text text-anchor="middle" x="198" y="-362.3" font-family="Times,serif" font-size="14.00" fill="#ffffff">[Predicate] l_shipdate &lt; &#39;1995&#45;01&#45;01&#39;</text>
</g>
<!-- 94574027119040&#45;&gt;94574027119248 -->
<g id="edge4" class="edge">
<title>94574027119040&#45;&gt;94574027119248</title>
<path fill="none" stroke="#ffffff" stroke-width="3" d="M198,-384.2337C198,-395.9125 198,-411.3308 198,-424.7022"/>
<polygon fill="#ffffff" stroke="#ffffff" stroke-width="3" points="194.5001,-424.8765 198,-434.8765 201.5001,-424.8765 194.5001,-424.8765"/>
<text text-anchor="middle" x="312.5" y="-405.8" font-family="Times,serif" font-size="14.00" fill="#ffffff"> 563661.0 row(s) | 100.0% estd.</text>
</g>
<!-- 94574235253088 -->
<g id="node6" class="node">
<title>94574235253088</title>
<polygon fill="none" stroke="#ffffff" points="346,-297 50,-297 50,-261 346,-261 346,-297"/>
<text text-anchor="middle" x="198" y="-275.3" font-family="Times,serif" font-size="14.00" fill="#ffffff">[Predicate] l_shipdate &gt;= &#39;1994&#45;01&#45;01&#39;</text>
</g>
<!-- 94574235253088&#45;&gt;94574027119040 -->
<g id="edge5" class="edge">
<title>94574235253088&#45;&gt;94574027119040</title>
<path fill="none" stroke="#ffffff" stroke-width="3" d="M198,-297.0265C198,-308.8082 198,-324.4393 198,-337.8419"/>
<polygon fill="#ffffff" stroke="#ffffff" stroke-width="3" points="194.5001,-337.9966 198,-347.9966 201.5001,-337.9967 194.5001,-337.9966"/>
<text text-anchor="middle" x="312.5" y="-318.8" font-family="Times,serif" font-size="14.00" fill="#ffffff"> 563661.0 row(s) | 100.0% estd.</text>
</g>
<!-- 94573898914832 -->
<g id="node7" class="node">
<title>94573898914832</title>
<polygon fill="none" stroke="#ffffff" points="304,-210 92,-210 92,-174 304,-174 304,-210"/>
<text text-anchor="middle" x="198" y="-188.3" font-family="Times,serif" font-size="14.00" fill="#ffffff">[Predicate] l_quantity &lt; 24</text>
</g>
<!-- 94573898914832&#45;&gt;94574235253088 -->
<g id="edge6" class="edge">
<title>94573898914832&#45;&gt;94574235253088</title>
<path fill="none" stroke="#ffffff" stroke-width="3" d="M198,-210.0265C198,-221.8082 198,-237.4393 198,-250.8419"/>
<polygon fill="#ffffff" stroke="#ffffff" stroke-width="3" points="194.5001,-250.9966 198,-260.9966 201.5001,-250.9967 194.5001,-250.9966"/>
<text text-anchor="middle" x="308" y="-231.8" font-family="Times,serif" font-size="14.00" fill="#ffffff"> 563661.0 row(s) | 46.9% estd.</text>
</g>
<!-- 94574279253312 -->
<g id="node8" class="node">
<title>94574279253312</title>
<polygon fill="none" stroke="#ffffff" points="396,-123 0,-123 0,-87 396,-87 396,-123"/>
<text text-anchor="middle" x="198" y="-101.3" font-family="Times,serif" font-size="14.00" fill="#ffffff">[Predicate] l_discount BETWEEN 0.05 AND 0.07001</text>
</g>
<!-- 94574279253312&#45;&gt;94573898914832 -->
<g id="edge7" class="edge">
<title>94574279253312&#45;&gt;94573898914832</title>
<path fill="none" stroke="#ffffff" stroke-width="4" d="M198,-123.0265C198,-134.8082 198,-150.4393 198,-163.8419"/>
<polygon fill="#ffffff" stroke="#ffffff" stroke-width="4" points="194.5001,-163.9966 198,-173.9966 201.5001,-163.9967 194.5001,-163.9966"/>
<text text-anchor="middle" x="312.5" y="-144.8" font-family="Times,serif" font-size="14.00" fill="#ffffff"> 1200843.0 row(s) | 20.0% estd.</text>
</g>
<!-- 94573697554272 -->
<g id="node9" class="node">
<title>94573697554272</title>
<polygon fill="none" stroke="#ffffff" points="316,-36 80,-36 80,0 316,0 316,-36"/>
<text text-anchor="middle" x="198" y="-14.3" font-family="Times,serif" font-size="14.00" fill="#ffffff">[StoredTable] Name: &#39;lineitem&#39;</text>
</g>
<!-- 94573697554272&#45;&gt;94574279253312 -->
<g id="edge8" class="edge">
<title>94573697554272&#45;&gt;94574279253312</title>
<path fill="none" stroke="#ffffff" stroke-width="4" d="M198,-36.0265C198,-47.8082 198,-63.4393 198,-76.8419"/>
<polygon fill="#ffffff" stroke="#ffffff" stroke-width="4" points="194.5001,-76.9966 198,-86.9966 201.5001,-76.9967 194.5001,-76.9966"/>
<text text-anchor="middle" x="317" y="-57.8" font-family="Times,serif" font-size="14.00" fill="#ffffff"> 6001215.0 row(s) | 100.0% estd.</text>
</g>
</g>
</svg>
