<?xml version="1.0" encoding="UTF-8" standalone="no"?>
<!DOCTYPE svg PUBLIC "-//W3C//DTD SVG 1.1//EN"
 "http://www.w3.org/Graphics/SVG/1.1/DTD/svg11.dtd">
<!-- Generated by graphviz version 2.40.1 (20161225.0304)
 -->
<!-- Title: G Pages: 1 -->
<svg width="1665pt" height="1652pt"
 viewBox="0.00 0.00 1664.50 1652.00" xmlns="http://www.w3.org/2000/svg" xmlns:xlink="http://www.w3.org/1999/xlink">
<g id="graph0" class="graph" transform="scale(1 1) rotate(0) translate(4 1648)">
<title>G</title>
<polygon fill="#000000" stroke="transparent" points="-4,4 -4,-1648 1660.5,-1648 1660.5,4 -4,4"/>
<!-- 94574567385872 -->
<g id="node1" class="node">
<title>94574567385872</title>
<polygon fill="none" stroke="#ffffff" points="250,-1644 133,-1644 133,-1575 250,-1575 250,-1644"/>
<text text-anchor="middle" x="191.5" y="-1628.8" font-family="Times,serif" font-size="14.00" fill="#ffffff">Alias [n_name</text>
<text text-anchor="middle" x="191.5" y="-1613.8" font-family="Times,serif" font-size="14.00" fill="#ffffff">revenue]</text>
<text text-anchor="middle" x="191.5" y="-1582.8" font-family="Times,serif" font-size="14.00" fill="#ffffff">9 µs 0 ns</text>
</g>
<!-- 94574205012864 -->
<g id="node2" class="node">
<title>94574205012864</title>
<polygon fill="none" stroke="#ffffff" points="236.5,-1524 146.5,-1524 146.5,-1470 236.5,-1470 236.5,-1524"/>
<text text-anchor="middle" x="191.5" y="-1508.8" font-family="Times,serif" font-size="14.00" fill="#ffffff">Sort</text>
<text text-anchor="middle" x="191.5" y="-1477.8" font-family="Times,serif" font-size="14.00" fill="#ffffff">31 µs 0 ns</text>
</g>
<!-- 94574205012864&#45;&gt;94574567385872 -->
<g id="edge1" class="edge">
<title>94574205012864&#45;&gt;94574567385872</title>
<path fill="none" stroke="#ffffff" d="M191.5,-1524.2331C191.5,-1536.3589 191.5,-1550.9621 191.5,-1564.6298"/>
<polygon fill="#ffffff" stroke="#ffffff" points="188.0001,-1564.8427 191.5,-1574.8427 195.0001,-1564.8428 188.0001,-1564.8427"/>
<text text-anchor="middle" x="282" y="-1545.8" font-family="Times,serif" font-size="14.00" fill="#ffffff">5 row(s)/1 chunk(s)/831B</text>
</g>
<!-- 94573697361984 -->
<g id="node3" class="node">
<title>94573697361984</title>
<polygon fill="none" stroke="#ffffff" stroke-width="2" points="375.5,-1419 7.5,-1419 7.5,-1350 375.5,-1350 375.5,-1419"/>
<text text-anchor="middle" x="191.5" y="-1403.8" font-family="Times,serif" font-size="14.00" fill="#ffffff">[Aggregate] GroupBy ColumnIDs: 1 Aggregates: </text>
<text text-anchor="middle" x="191.5" y="-1388.8" font-family="Times,serif" font-size="14.00" fill="#ffffff">SUM(Column #0)</text>
<text text-anchor="middle" x="191.5" y="-1357.8" font-family="Times,serif" font-size="14.00" fill="#ffffff">680 µs 0 ns </text>
</g>
<!-- 94573697361984&#45;&gt;94574205012864 -->
<g id="edge2" class="edge">
<title>94573697361984&#45;&gt;94574205012864</title>
<path fill="none" stroke="#ffffff" d="M191.5,-1419.1717C191.5,-1432.0092 191.5,-1446.6141 191.5,-1459.6774"/>
<polygon fill="#ffffff" stroke="#ffffff" points="188.0001,-1459.7601 191.5,-1469.7602 195.0001,-1459.7602 188.0001,-1459.7601"/>
<text text-anchor="middle" x="282" y="-1440.8" font-family="Times,serif" font-size="14.00" fill="#ffffff">5 row(s)/1 chunk(s)/831B</text>
</g>
<!-- 94574246600240 -->
<g id="node4" class="node">
<title>94574246600240</title>
<polygon fill="none" stroke="#ffffff" stroke-width="3" points="248,-1299 135,-1299 135,-1245 248,-1245 248,-1299"/>
<text text-anchor="middle" x="191.5" y="-1283.8" font-family="Times,serif" font-size="14.00" fill="#ffffff">Projection</text>
<text text-anchor="middle" x="191.5" y="-1252.8" font-family="Times,serif" font-size="14.00" fill="#ffffff">18 ms 582 µs</text>
</g>
<!-- 94574246600240&#45;&gt;94573697361984 -->
<g id="edge3" class="edge">
<title>94574246600240&#45;&gt;94573697361984</title>
<path fill="none" stroke="#ffffff" stroke-width="2" d="M191.5,-1299.2331C191.5,-1311.3589 191.5,-1325.9621 191.5,-1339.6298"/>
<polygon fill="#ffffff" stroke="#ffffff" stroke-width="2" points="188.0001,-1339.8427 191.5,-1349.8427 195.0001,-1339.8428 188.0001,-1339.8427"/>
<text text-anchor="middle" x="321" y="-1320.8" font-family="Times,serif" font-size="14.00" fill="#ffffff">7375 row(s)/32 chunk(s)/280.500KB</text>
</g>
<!-- 94573697595600 -->
<g id="node5" class="node">
<title>94573697595600</title>
<polygon fill="none" stroke="#ffffff" stroke-width="2" points="291.5,-1194 91.5,-1194 91.5,-1095 291.5,-1095 291.5,-1194"/>
<text text-anchor="middle" x="191.5" y="-1178.8" font-family="Times,serif" font-size="14.00" fill="#ffffff">TableScan</text>
<text text-anchor="middle" x="191.5" y="-1163.8" font-family="Times,serif" font-size="14.00" fill="#ffffff">Impl: ColumnComparison</text>
<text text-anchor="middle" x="191.5" y="-1148.8" font-family="Times,serif" font-size="14.00" fill="#ffffff">c_nationkey = </text>
<text text-anchor="middle" x="191.5" y="-1133.8" font-family="Times,serif" font-size="14.00" fill="#ffffff">s_nationkey</text>
<text text-anchor="middle" x="191.5" y="-1102.8" font-family="Times,serif" font-size="14.00" fill="#ffffff">4 ms 486 µs </text>
</g>
<!-- 94573697595600&#45;&gt;94574246600240 -->
<g id="edge4" class="edge">
<title>94573697595600&#45;&gt;94574246600240</title>
<path fill="none" stroke="#ffffff" stroke-width="2" d="M191.5,-1194.1599C191.5,-1207.598 191.5,-1221.9153 191.5,-1234.5584"/>
<polygon fill="#ffffff" stroke="#ffffff" stroke-width="2" points="188.0001,-1234.7287 191.5,-1244.7287 195.0001,-1234.7288 188.0001,-1234.7287"/>
<text text-anchor="middle" x="321" y="-1215.8" font-family="Times,serif" font-size="14.00" fill="#ffffff">7375 row(s)/32 chunk(s)/977.039KB</text>
</g>
<!-- 94574283040288 -->
<g id="node6" class="node">
<title>94574283040288</title>
<polygon fill="none" stroke="#ffffff" stroke-width="3" points="311,-1044 72,-1044 72,-960 311,-960 311,-1044"/>
<text text-anchor="middle" x="191.5" y="-1028.8" font-family="Times,serif" font-size="14.00" fill="#ffffff">JoinHash</text>
<text text-anchor="middle" x="191.5" y="-1013.8" font-family="Times,serif" font-size="14.00" fill="#ffffff">(Inner Join where c_custkey = </text>
<text text-anchor="middle" x="191.5" y="-998.8" font-family="Times,serif" font-size="14.00" fill="#ffffff">o_custkey)</text>
<text text-anchor="middle" x="191.5" y="-967.8" font-family="Times,serif" font-size="14.00" fill="#ffffff">62 ms 871 µs </text>
</g>
<!-- 94574283040288&#45;&gt;94573697595600 -->
<g id="edge5" class="edge">
<title>94574283040288&#45;&gt;94573697595600</title>
<path fill="none" stroke="#ffffff" stroke-width="3" d="M191.5,-1044.3689C191.5,-1056.9866 191.5,-1071.0589 191.5,-1084.5734"/>
<polygon fill="#ffffff" stroke="#ffffff" stroke-width="3" points="188.0001,-1084.7659 191.5,-1094.7659 195.0001,-1084.766 188.0001,-1084.7659"/>
<text text-anchor="middle" x="327.5" y="-1065.8" font-family="Times,serif" font-size="14.00" fill="#ffffff">184970 row(s)/32 chunk(s)/23.709MB</text>
</g>
<!-- 94574205151232 -->
<g id="node7" class="node">
<title>94574205151232</title>
<polygon fill="none" stroke="#ffffff" stroke-width="2" points="101,-894 2,-894 2,-840 101,-840 101,-894"/>
<text text-anchor="middle" x="51.5" y="-878.8" font-family="Times,serif" font-size="14.00" fill="#ffffff">Projection</text>
<text text-anchor="middle" x="51.5" y="-847.8" font-family="Times,serif" font-size="14.00" fill="#ffffff">428 µs 0 ns</text>
</g>
<!-- 94574205151232&#45;&gt;94574283040288 -->
<g id="edge6" class="edge">
<title>94574205151232&#45;&gt;94574283040288</title>
<path fill="none" stroke="#ffffff" stroke-width="3" d="M46.8277,-894.2286C45.6869,-909.5548 46.9369,-928.3048 56.5,-942 59.1741,-945.8295 62.1509,-949.4178 65.3737,-952.7799"/>
<polygon fill="#ffffff" stroke="#ffffff" stroke-width="3" points="63.1241,-955.4692 72.8004,-959.7843 67.927,-950.3768 63.1241,-955.4692"/>
<text text-anchor="middle" x="183.5" y="-930.8" font-family="Times,serif" font-size="14.00" fill="#ffffff">150000 row(s)/2 chunk(s)/3.051MB</text>
</g>
<!-- 94574205140848 -->
<g id="node8" class="node">
<title>94574205140848</title>
<polygon fill="none" stroke="#ffffff" points="95,-766.5 0,-766.5 0,-697.5 95,-697.5 95,-766.5"/>
<text text-anchor="middle" x="47.5" y="-751.3" font-family="Times,serif" font-size="14.00" fill="#ffffff">GetTable</text>
<text text-anchor="middle" x="47.5" y="-736.3" font-family="Times,serif" font-size="14.00" fill="#ffffff">(customer)</text>
<text text-anchor="middle" x="47.5" y="-705.3" font-family="Times,serif" font-size="14.00" fill="#ffffff">1 µs 0 ns</text>
</g>
<!-- 94574205140848&#45;&gt;94574205151232 -->
<g id="edge7" class="edge">
<title>94574205140848&#45;&gt;94574205151232</title>
<path fill="none" stroke="#ffffff" stroke-width="3" d="M48.5301,-766.7659C49.0991,-785.9703 49.8063,-809.8393 50.3879,-829.4668"/>
<polygon fill="#ffffff" stroke="#ffffff" stroke-width="3" points="46.893,-829.6948 50.6878,-839.5867 53.89,-829.4874 46.893,-829.6948"/>
<text text-anchor="middle" x="182" y="-795.8" font-family="Times,serif" font-size="14.00" fill="#ffffff">150000 row(s)/2 chunk(s)/25.479MB</text>
</g>
<!-- 94573698009232 -->
<g id="node9" class="node">
<title>94573698009232</title>
<polygon fill="none" stroke="#ffffff" stroke-width="3" points="457.5,-909 209.5,-909 209.5,-825 457.5,-825 457.5,-909"/>
<text text-anchor="middle" x="333.5" y="-893.8" font-family="Times,serif" font-size="14.00" fill="#ffffff">JoinHash</text>
<text text-anchor="middle" x="333.5" y="-878.8" font-family="Times,serif" font-size="14.00" fill="#ffffff">(Inner Join where o_orderkey = </text>
<text text-anchor="middle" x="333.5" y="-863.8" font-family="Times,serif" font-size="14.00" fill="#ffffff">l_orderkey)</text>
<text text-anchor="middle" x="333.5" y="-832.8" font-family="Times,serif" font-size="14.00" fill="#ffffff">130 ms 16 µs </text>
</g>
<!-- 94573698009232&#45;&gt;94574283040288 -->
<g id="edge8" class="edge">
<title>94573698009232&#45;&gt;94574283040288</title>
<path fill="none" stroke="#ffffff" stroke-width="3" d="M326.8838,-909.2794C323.476,-920.8465 318.315,-932.7345 310.5,-942 307.0911,-946.0416 303.3427,-949.8397 299.3424,-953.4056"/>
<polygon fill="#ffffff" stroke="#ffffff" stroke-width="3" points="296.8549,-950.9201 291.3621,-959.9799 301.3058,-956.3228 296.8549,-950.9201"/>
<text text-anchor="middle" x="456.5" y="-930.8" font-family="Times,serif" font-size="14.00" fill="#ffffff">184970 row(s)/16 chunk(s)/20.731MB</text>
</g>
<!-- 94573707837424 -->
<g id="node10" class="node">
<title>94573707837424</title>
<polygon fill="none" stroke="#ffffff" points="376.5,-759 286.5,-759 286.5,-705 376.5,-705 376.5,-759"/>
<text text-anchor="middle" x="331.5" y="-743.8" font-family="Times,serif" font-size="14.00" fill="#ffffff">Projection</text>
<text text-anchor="middle" x="331.5" y="-712.8" font-family="Times,serif" font-size="14.00" fill="#ffffff">25 µs 0 ns</text>
</g>
<!-- 94573707837424&#45;&gt;94573698009232 -->
<g id="edge9" class="edge">
<title>94573707837424&#45;&gt;94573698009232</title>
<path fill="none" stroke="#ffffff" stroke-width="3" d="M331.9047,-759.3193C332.1408,-775.2545 332.4465,-795.8871 332.727,-814.8217"/>
<polygon fill="#ffffff" stroke="#ffffff" stroke-width="3" points="329.2274,-814.8819 332.8752,-824.8289 336.2266,-814.7781 329.2274,-814.8819"/>
<text text-anchor="middle" x="465" y="-795.8" font-family="Times,serif" font-size="14.00" fill="#ffffff">227597 row(s)/15 chunk(s)/5.466MB</text>
</g>
<!-- 94573697598736 -->
<g id="node11" class="node">
<title>94573697598736</title>
<polygon fill="none" stroke="#ffffff" stroke-width="2" points="417,-639 236,-639 236,-540 417,-540 417,-639"/>
<text text-anchor="middle" x="326.5" y="-623.8" font-family="Times,serif" font-size="14.00" fill="#ffffff">TableScan</text>
<text text-anchor="middle" x="326.5" y="-608.8" font-family="Times,serif" font-size="14.00" fill="#ffffff">Impl: LiteralTableScan</text>
<text text-anchor="middle" x="326.5" y="-593.8" font-family="Times,serif" font-size="14.00" fill="#ffffff">o_orderdate &lt; </text>
<text text-anchor="middle" x="326.5" y="-578.8" font-family="Times,serif" font-size="14.00" fill="#ffffff">&#39;1995&#45;01&#45;01&#39;</text>
<text text-anchor="middle" x="326.5" y="-547.8" font-family="Times,serif" font-size="14.00" fill="#ffffff">5 ms 318 µs </text>
</g>
<!-- 94573697598736&#45;&gt;94573707837424 -->
<g id="edge10" class="edge">
<title>94573697598736&#45;&gt;94573707837424</title>
<path fill="none" stroke="#ffffff" stroke-width="3" d="M328.2488,-639.3396C328.8878,-657.551 329.5989,-677.8196 330.1928,-694.7453"/>
<polygon fill="#ffffff" stroke="#ffffff" stroke-width="3" points="326.6971,-694.9325 330.5457,-704.8036 333.6928,-694.687 326.6971,-694.9325"/>
<text text-anchor="middle" x="465.5" y="-660.8" font-family="Times,serif" font-size="14.00" fill="#ffffff">227597 row(s)/15 chunk(s)/16.396MB</text>
</g>
<!-- 94573697592464 -->
<g id="node12" class="node">
<title>94573697592464</title>
<polygon fill="none" stroke="#ffffff" stroke-width="3" points="413,-489 232,-489 232,-390 413,-390 413,-489"/>
<text text-anchor="middle" x="322.5" y="-473.8" font-family="Times,serif" font-size="14.00" fill="#ffffff">TableScan</text>
<text text-anchor="middle" x="322.5" y="-458.8" font-family="Times,serif" font-size="14.00" fill="#ffffff">Impl: LiteralTableScan</text>
<text text-anchor="middle" x="322.5" y="-443.8" font-family="Times,serif" font-size="14.00" fill="#ffffff">o_orderdate &gt;= </text>
<text text-anchor="middle" x="322.5" y="-428.8" font-family="Times,serif" font-size="14.00" fill="#ffffff">&#39;1994&#45;01&#45;01&#39;</text>
<text text-anchor="middle" x="322.5" y="-397.8" font-family="Times,serif" font-size="14.00" fill="#ffffff">12 ms 405 µs </text>
</g>
<!-- 94573697592464&#45;&gt;94573697598736 -->
<g id="edge11" class="edge">
<title>94573697592464&#45;&gt;94573697598736</title>
<path fill="none" stroke="#ffffff" stroke-width="4" d="M323.8208,-489.0313C324.1672,-502.0196 324.5444,-516.1643 324.9035,-529.63"/>
<polygon fill="#ffffff" stroke="#ffffff" stroke-width="4" points="321.4083,-529.8615 325.1737,-539.7646 328.4058,-529.6748 321.4083,-529.8615"/>
<text text-anchor="middle" x="466" y="-510.8" font-family="Times,serif" font-size="14.00" fill="#ffffff">1046266 row(s)/15 chunk(s)/75.340MB</text>
</g>
<!-- 94574205159648 -->
<g id="node13" class="node">
<title>94574205159648</title>
<polygon fill="none" stroke="#ffffff" points="363,-339 282,-339 282,-270 363,-270 363,-339"/>
<text text-anchor="middle" x="322.5" y="-323.8" font-family="Times,serif" font-size="14.00" fill="#ffffff">GetTable</text>
<text text-anchor="middle" x="322.5" y="-308.8" font-family="Times,serif" font-size="14.00" fill="#ffffff">(orders)</text>
<text text-anchor="middle" x="322.5" y="-277.8" font-family="Times,serif" font-size="14.00" fill="#ffffff">0 ns</text>
</g>
<!-- 94574205159648&#45;&gt;94573697592464 -->
<g id="edge12" class="edge">
<title>94574205159648&#45;&gt;94573697592464</title>
<path fill="none" stroke="#ffffff" stroke-width="4" d="M322.5,-339.2659C322.5,-351.5301 322.5,-365.6967 322.5,-379.446"/>
<polygon fill="#ffffff" stroke="#ffffff" stroke-width="4" points="319.0001,-379.8405 322.5,-389.8405 326.0001,-379.8406 319.0001,-379.8405"/>
<text text-anchor="middle" x="467.5" y="-360.8" font-family="Times,serif" font-size="14.00" fill="#ffffff">1500000 row(s)/15 chunk(s)/114.197MB</text>
</g>
<!-- 94574199661872 -->
<g id="node14" class="node">
<title>94574199661872</title>
<polygon fill="none" stroke="#ffffff" stroke-width="3" points="746,-774 507,-774 507,-690 746,-690 746,-774"/>
<text text-anchor="middle" x="626.5" y="-758.8" font-family="Times,serif" font-size="14.00" fill="#ffffff">JoinHash</text>
<text text-anchor="middle" x="626.5" y="-743.8" font-family="Times,serif" font-size="14.00" fill="#ffffff">(Inner Join where l_suppkey = </text>
<text text-anchor="middle" x="626.5" y="-728.8" font-family="Times,serif" font-size="14.00" fill="#ffffff">s_suppkey)</text>
<text text-anchor="middle" x="626.5" y="-697.8" font-family="Times,serif" font-size="14.00" fill="#ffffff">160 ms 110 µs </text>
</g>
<!-- 94574199661872&#45;&gt;94573698009232 -->
<g id="edge13" class="edge">
<title>94574199661872&#45;&gt;94573698009232</title>
<path fill="none" stroke="#ffffff" stroke-width="4" d="M619.9261,-774.1134C616.1033,-786.2294 610.0584,-798.462 600.5,-807 579.9849,-825.325 523.3994,-839.3483 467.5728,-849.2122"/>
<polygon fill="#ffffff" stroke="#ffffff" stroke-width="4" points="466.7927,-845.7949 457.5332,-850.9439 467.9827,-852.6931 466.7927,-845.7949"/>
<text text-anchor="middle" x="753" y="-795.8" font-family="Times,serif" font-size="14.00" fill="#ffffff">1222276 row(s)/1 chunk(s)/107.561MB</text>
</g>
<!-- 94574205153520 -->
<g id="node15" class="node">
<title>94574205153520</title>
<polygon fill="none" stroke="#ffffff" stroke-width="2" points="678.5,-616.5 574.5,-616.5 574.5,-562.5 678.5,-562.5 678.5,-616.5"/>
<text text-anchor="middle" x="626.5" y="-601.3" font-family="Times,serif" font-size="14.00" fill="#ffffff">Projection</text>
<text text-anchor="middle" x="626.5" y="-570.3" font-family="Times,serif" font-size="14.00" fill="#ffffff">4 ms 212 µs</text>
</g>
<!-- 94574205153520&#45;&gt;94574199661872 -->
<g id="edge14" class="edge">
<title>94574205153520&#45;&gt;94574199661872</title>
<path fill="none" stroke="#ffffff" stroke-width="4" d="M626.5,-616.6386C626.5,-634.404 626.5,-658.2016 626.5,-679.5675"/>
<polygon fill="#ffffff" stroke="#ffffff" stroke-width="4" points="623.0001,-679.8237 626.5,-689.8237 630.0001,-679.8237 623.0001,-679.8237"/>
<text text-anchor="middle" x="771.5" y="-660.8" font-family="Times,serif" font-size="14.00" fill="#ffffff">6001215 row(s)/61 chunk(s)/156.234MB</text>
</g>
<!-- 94574205160960 -->
<g id="node16" class="node">
<title>94574205160960</title>
<polygon fill="none" stroke="#ffffff" points="669.5,-474 583.5,-474 583.5,-405 669.5,-405 669.5,-474"/>
<text text-anchor="middle" x="626.5" y="-458.8" font-family="Times,serif" font-size="14.00" fill="#ffffff">GetTable</text>
<text text-anchor="middle" x="626.5" y="-443.8" font-family="Times,serif" font-size="14.00" fill="#ffffff">(lineitem)</text>
<text text-anchor="middle" x="626.5" y="-412.8" font-family="Times,serif" font-size="14.00" fill="#ffffff">2 µs 0 ns</text>
</g>
<!-- 94574205160960&#45;&gt;94574205153520 -->
<g id="edge15" class="edge">
<title>94574205160960&#45;&gt;94574205153520</title>
<path fill="none" stroke="#ffffff" stroke-width="4" d="M626.5,-474.29C626.5,-497.6608 626.5,-528.4273 626.5,-552.2872"/>
<polygon fill="#ffffff" stroke="#ffffff" stroke-width="4" points="623.0001,-552.3795 626.5,-562.3796 630.0001,-552.3796 623.0001,-552.3795"/>
<text text-anchor="middle" x="771.5" y="-510.8" font-family="Times,serif" font-size="14.00" fill="#ffffff">6001215 row(s)/61 chunk(s)/500.660MB</text>
</g>
<!-- 94574641072576 -->
<g id="node17" class="node">
<title>94574641072576</title>
<polygon fill="none" stroke="#ffffff" stroke-width="2" points="1066,-631.5 813,-631.5 813,-547.5 1066,-547.5 1066,-631.5"/>
<text text-anchor="middle" x="939.5" y="-616.3" font-family="Times,serif" font-size="14.00" fill="#ffffff">JoinHash</text>
<text text-anchor="middle" x="939.5" y="-601.3" font-family="Times,serif" font-size="14.00" fill="#ffffff">(Inner Join where s_nationkey = </text>
<text text-anchor="middle" x="939.5" y="-586.3" font-family="Times,serif" font-size="14.00" fill="#ffffff">n_nationkey)</text>
<text text-anchor="middle" x="939.5" y="-555.3" font-family="Times,serif" font-size="14.00" fill="#ffffff">246 µs 0 ns </text>
</g>
<!-- 94574641072576&#45;&gt;94574199661872 -->
<g id="edge16" class="edge">
<title>94574641072576&#45;&gt;94574199661872</title>
<path fill="none" stroke="#ffffff" stroke-width="2" d="M937.129,-631.8756C934.2186,-646.4134 928.4931,-661.6191 917.5,-672 893.7774,-694.4016 822.439,-709.3149 756.3378,-718.6704"/>
<polygon fill="#ffffff" stroke="#ffffff" stroke-width="2" points="755.6345,-715.2342 746.2064,-720.0676 756.5909,-722.1686 755.6345,-715.2342"/>
<text text-anchor="middle" x="1053.5" y="-660.8" font-family="Times,serif" font-size="14.00" fill="#ffffff">2036 row(s)/1 chunk(s)/114.713KB</text>
</g>
<!-- 94574282481568 -->
<g id="node18" class="node">
<title>94574282481568</title>
<polygon fill="none" stroke="#ffffff" points="984.5,-466.5 894.5,-466.5 894.5,-412.5 984.5,-412.5 984.5,-466.5"/>
<text text-anchor="middle" x="939.5" y="-451.3" font-family="Times,serif" font-size="14.00" fill="#ffffff">Projection</text>
<text text-anchor="middle" x="939.5" y="-420.3" font-family="Times,serif" font-size="14.00" fill="#ffffff">22 µs 0 ns</text>
</g>
<!-- 94574282481568&#45;&gt;94574641072576 -->
<g id="edge17" class="edge">
<title>94574282481568&#45;&gt;94574641072576</title>
<path fill="none" stroke="#ffffff" stroke-width="2" d="M939.5,-466.6639C939.5,-486.2262 939.5,-513.2404 939.5,-536.9551"/>
<polygon fill="#ffffff" stroke="#ffffff" stroke-width="2" points="936.0001,-537.2315 939.5,-547.2316 943.0001,-537.2316 936.0001,-537.2315"/>
<text text-anchor="middle" x="1069" y="-510.8" font-family="Times,serif" font-size="14.00" fill="#ffffff">10000 row(s)/1 chunk(s)/190.704KB</text>
</g>
<!-- 94574205145104 -->
<g id="node19" class="node">
<title>94574205145104</title>
<polygon fill="none" stroke="#ffffff" points="982.5,-339 896.5,-339 896.5,-270 982.5,-270 982.5,-339"/>
<text text-anchor="middle" x="939.5" y="-323.8" font-family="Times,serif" font-size="14.00" fill="#ffffff">GetTable</text>
<text text-anchor="middle" x="939.5" y="-308.8" font-family="Times,serif" font-size="14.00" fill="#ffffff">(supplier)</text>
<text text-anchor="middle" x="939.5" y="-277.8" font-family="Times,serif" font-size="14.00" fill="#ffffff">1 µs 0 ns</text>
</g>
<!-- 94574205145104&#45;&gt;94574282481568 -->
<g id="edge18" class="edge">
<title>94574205145104&#45;&gt;94574282481568</title>
<path fill="none" stroke="#ffffff" stroke-width="2" d="M939.5,-339.2659C939.5,-358.4703 939.5,-382.3393 939.5,-401.9668"/>
<polygon fill="#ffffff" stroke="#ffffff" stroke-width="2" points="936.0001,-402.0867 939.5,-412.0867 943.0001,-402.0867 936.0001,-402.0867"/>
<text text-anchor="middle" x="1062" y="-360.8" font-family="Times,serif" font-size="14.00" fill="#ffffff">10000 row(s)/1 chunk(s)/1.610MB</text>
</g>
<!-- 94574417707808 -->
<g id="node20" class="node">
<title>94574417707808</title>
<polygon fill="none" stroke="#ffffff" points="1349,-481.5 1094,-481.5 1094,-397.5 1349,-397.5 1349,-481.5"/>
<text text-anchor="middle" x="1221.5" y="-466.3" font-family="Times,serif" font-size="14.00" fill="#ffffff">JoinHash</text>
<text text-anchor="middle" x="1221.5" y="-451.3" font-family="Times,serif" font-size="14.00" fill="#ffffff">(Inner Join where n_regionkey = </text>
<text text-anchor="middle" x="1221.5" y="-436.3" font-family="Times,serif" font-size="14.00" fill="#ffffff">r_regionkey)</text>
<text text-anchor="middle" x="1221.5" y="-405.3" font-family="Times,serif" font-size="14.00" fill="#ffffff">90 µs 0 ns </text>
</g>
<!-- 94574417707808&#45;&gt;94574641072576 -->
<g id="edge19" class="edge">
<title>94574417707808&#45;&gt;94574641072576</title>
<path fill="none" stroke="#ffffff" d="M1218.8397,-481.5769C1215.898,-496.0823 1210.2266,-511.3439 1199.5,-522 1180.9681,-540.4101 1128.8656,-555.6337 1076.1229,-566.9341"/>
<polygon fill="#ffffff" stroke="#ffffff" points="1075.3443,-563.5211 1066.2751,-568.9983 1076.7805,-570.3722 1075.3443,-563.5211"/>
<text text-anchor="middle" x="1301" y="-510.8" font-family="Times,serif" font-size="14.00" fill="#ffffff">5 row(s)/1 chunk(s)/765B</text>
</g>
<!-- 94574205156928 -->
<g id="node21" class="node">
<title>94574205156928</title>
<polygon fill="none" stroke="#ffffff" points="1259.5,-331.5 1169.5,-331.5 1169.5,-277.5 1259.5,-277.5 1259.5,-331.5"/>
<text text-anchor="middle" x="1214.5" y="-316.3" font-family="Times,serif" font-size="14.00" fill="#ffffff">Projection</text>
<text text-anchor="middle" x="1214.5" y="-285.3" font-family="Times,serif" font-size="14.00" fill="#ffffff">5 µs 0 ns</text>
</g>
<!-- 94574205156928&#45;&gt;94574417707808 -->
<g id="edge20" class="edge">
<title>94574205156928&#45;&gt;94574417707808</title>
<path fill="none" stroke="#ffffff" d="M1214.4464,-331.7749C1214.5401,-344.0725 1214.8151,-358.7741 1215.5,-372 1215.7529,-376.8833 1216.0818,-381.9601 1216.4554,-387.039"/>
<polygon fill="#ffffff" stroke="#ffffff" points="1212.9976,-387.7124 1217.2749,-397.4054 1219.9758,-387.1607 1212.9976,-387.7124"/>
<text text-anchor="middle" x="1322.5" y="-360.8" font-family="Times,serif" font-size="14.00" fill="#ffffff">25 row(s)/1 chunk(s)/1.971KB</text>
</g>
<!-- 94574205146640 -->
<g id="node22" class="node">
<title>94574205146640</title>
<polygon fill="none" stroke="#ffffff" points="1255,-204 1174,-204 1174,-135 1255,-135 1255,-204"/>
<text text-anchor="middle" x="1214.5" y="-188.8" font-family="Times,serif" font-size="14.00" fill="#ffffff">GetTable</text>
<text text-anchor="middle" x="1214.5" y="-173.8" font-family="Times,serif" font-size="14.00" fill="#ffffff">(nation)</text>
<text text-anchor="middle" x="1214.5" y="-142.8" font-family="Times,serif" font-size="14.00" fill="#ffffff">1 µs 0 ns</text>
</g>
<!-- 94574205146640&#45;&gt;94574205156928 -->
<g id="edge21" class="edge">
<title>94574205146640&#45;&gt;94574205156928</title>
<path fill="none" stroke="#ffffff" d="M1214.5,-204.2659C1214.5,-223.4703 1214.5,-247.3393 1214.5,-266.9668"/>
<polygon fill="#ffffff" stroke="#ffffff" points="1211.0001,-267.0867 1214.5,-277.0867 1218.0001,-267.0867 1211.0001,-267.0867"/>
<text text-anchor="middle" x="1321.5" y="-240.8" font-family="Times,serif" font-size="14.00" fill="#ffffff">25 row(s)/1 chunk(s)/2.869KB</text>
</g>
<!-- 94573697590896 -->
<g id="node23" class="node">
<title>94573697590896</title>
<polygon fill="none" stroke="#ffffff" points="1496.5,-331.5 1406.5,-331.5 1406.5,-277.5 1496.5,-277.5 1496.5,-331.5"/>
<text text-anchor="middle" x="1451.5" y="-316.3" font-family="Times,serif" font-size="14.00" fill="#ffffff">Projection</text>
<text text-anchor="middle" x="1451.5" y="-285.3" font-family="Times,serif" font-size="14.00" fill="#ffffff">3 µs 0 ns</text>
</g>
<!-- 94573697590896&#45;&gt;94574417707808 -->
<g id="edge22" class="edge">
<title>94573697590896&#45;&gt;94574417707808</title>
<path fill="none" stroke="#ffffff" d="M1448.5417,-331.5517C1445.7245,-345.286 1440.2268,-361.2868 1429.5,-372 1417.8757,-383.6095 1390.3381,-395.0841 1358.9754,-405.1881"/>
<polygon fill="#ffffff" stroke="#ffffff" points="1357.625,-401.9436 1349.1327,-408.2785 1359.722,-408.6221 1357.625,-401.9436"/>
<text text-anchor="middle" x="1530" y="-360.8" font-family="Times,serif" font-size="14.00" fill="#ffffff">1 row(s)/1 chunk(s)/385B</text>
</g>
<!-- 94573697597168 -->
<g id="node24" class="node">
<title>94573697597168</title>
<polygon fill="none" stroke="#ffffff" points="1542,-219 1361,-219 1361,-120 1542,-120 1542,-219"/>
<text text-anchor="middle" x="1451.5" y="-203.8" font-family="Times,serif" font-size="14.00" fill="#ffffff">TableScan</text>
<text text-anchor="middle" x="1451.5" y="-188.8" font-family="Times,serif" font-size="14.00" fill="#ffffff">Impl: LiteralTableScan</text>
<text text-anchor="middle" x="1451.5" y="-173.8" font-family="Times,serif" font-size="14.00" fill="#ffffff">r_name = </text>
<text text-anchor="middle" x="1451.5" y="-158.8" font-family="Times,serif" font-size="14.00" fill="#ffffff">&#39;AMERICA&#39;</text>
<text text-anchor="middle" x="1451.5" y="-127.8" font-family="Times,serif" font-size="14.00" fill="#ffffff">15 µs 0 ns </text>
</g>
<!-- 94573697597168&#45;&gt;94573697590896 -->
<g id="edge23" class="edge">
<title>94573697597168&#45;&gt;94573697590896</title>
<path fill="none" stroke="#ffffff" d="M1451.5,-219.0024C1451.5,-234.8677 1451.5,-252.1639 1451.5,-267.0225"/>
<polygon fill="#ffffff" stroke="#ffffff" points="1448.0001,-267.3558 1451.5,-277.3558 1455.0001,-267.3558 1448.0001,-267.3558"/>
<text text-anchor="middle" x="1542" y="-240.8" font-family="Times,serif" font-size="14.00" fill="#ffffff">1 row(s)/1 chunk(s)/458B</text>
</g>
<!-- 94574276912912 -->
<g id="node25" class="node">
<title>94574276912912</title>
<polygon fill="none" stroke="#ffffff" points="1492,-69 1411,-69 1411,0 1492,0 1492,-69"/>
<text text-anchor="middle" x="1451.5" y="-53.8" font-family="Times,serif" font-size="14.00" fill="#ffffff">GetTable</text>
<text text-anchor="middle" x="1451.5" y="-38.8" font-family="Times,serif" font-size="14.00" fill="#ffffff">(region)</text>
<text text-anchor="middle" x="1451.5" y="-7.8" font-family="Times,serif" font-size="14.00" fill="#ffffff">1 µs 0 ns</text>
</g>
<!-- 94574276912912&#45;&gt;94573697597168 -->
<g id="edge24" class="edge">
<title>94574276912912&#45;&gt;94573697597168</title>
<path fill="none" stroke="#ffffff" d="M1451.5,-69.2659C1451.5,-81.5301 1451.5,-95.6967 1451.5,-109.446"/>
<polygon fill="#ffffff" stroke="#ffffff" points="1448.0001,-109.8405 1451.5,-119.8405 1455.0001,-109.8406 1448.0001,-109.8405"/>
<text text-anchor="middle" x="1554" y="-90.8" font-family="Times,serif" font-size="14.00" fill="#ffffff">5 row(s)/1 chunk(s)/1.089KB</text>
</g>
</g>
</svg>
