<?xml version="1.0" encoding="UTF-8" standalone="no"?>
<!DOCTYPE svg PUBLIC "-//W3C//DTD SVG 1.1//EN"
 "http://www.w3.org/Graphics/SVG/1.1/DTD/svg11.dtd">
<!-- Generated by graphviz version 2.40.1 (20161225.0304)
 -->
<!-- Title: G Pages: 1 -->
<svg width="661pt" height="1412pt"
 viewBox="0.00 0.00 661.00 1412.00" xmlns="http://www.w3.org/2000/svg" xmlns:xlink="http://www.w3.org/1999/xlink">
<g id="graph0" class="graph" transform="scale(1 1) rotate(0) translate(4 1408)">
<title>G</title>
<polygon fill="#000000" stroke="transparent" points="-4,4 -4,-1408 657,-1408 657,4 -4,4"/>
<!-- 94449901529792 -->
<g id="node1" class="node">
<title>94449901529792</title>
<polygon fill="none" stroke="#ffffff" points="273,-1404 143,-1404 143,-1290 273,-1290 273,-1404"/>
<text text-anchor="middle" x="208" y="-1388.8" font-family="Times,serif" font-size="14.00" fill="#ffffff">Alias </text>
<text text-anchor="middle" x="208" y="-1373.8" font-family="Times,serif" font-size="14.00" fill="#ffffff">[l_shipmode</text>
<text text-anchor="middle" x="208" y="-1358.8" font-family="Times,serif" font-size="14.00" fill="#ffffff">high_line_count</text>
<text text-anchor="middle" x="208" y="-1343.8" font-family="Times,serif" font-size="14.00" fill="#ffffff">low_line_count]</text>
<text text-anchor="middle" x="208" y="-1312.8" font-family="Times,serif" font-size="14.00" fill="#ffffff">2 </text>
<text text-anchor="middle" x="208" y="-1297.8" font-family="Times,serif" font-size="14.00" fill="#ffffff">µs 0 ns </text>
</g>
<!-- 94449696248944 -->
<g id="node2" class="node">
<title>94449696248944</title>
<polygon fill="none" stroke="#ffffff" points="253,-1239 163,-1239 163,-1185 253,-1185 253,-1239"/>
<text text-anchor="middle" x="208" y="-1223.8" font-family="Times,serif" font-size="14.00" fill="#ffffff">Sort</text>
<text text-anchor="middle" x="208" y="-1192.8" font-family="Times,serif" font-size="14.00" fill="#ffffff">21 µs 0 ns</text>
</g>
<!-- 94449696248944&#45;&gt;94449901529792 -->
<g id="edge1" class="edge">
<title>94449696248944&#45;&gt;94449901529792</title>
<path fill="none" stroke="#ffffff" d="M208,-1239.3193C208,-1251.0368 208,-1265.2943 208,-1279.5489"/>
<polygon fill="#ffffff" stroke="#ffffff" points="204.5001,-1279.8915 208,-1289.8916 211.5001,-1279.8916 204.5001,-1279.8915"/>
<text text-anchor="middle" x="310.5" y="-1260.8" font-family="Times,serif" font-size="14.00" fill="#ffffff">2 row(s)/1 chunk(s)/1.041KB</text>
</g>
<!-- 94449695417312 -->
<g id="node3" class="node">
<title>94449695417312</title>
<polygon fill="none" stroke="#ffffff" stroke-width="2" points="392,-1134 24,-1134 24,-1065 392,-1065 392,-1134"/>
<text text-anchor="middle" x="208" y="-1118.8" font-family="Times,serif" font-size="14.00" fill="#ffffff">[Aggregate] GroupBy ColumnIDs: 2 Aggregates: </text>
<text text-anchor="middle" x="208" y="-1103.8" font-family="Times,serif" font-size="14.00" fill="#ffffff">SUM(Column #0), SUM(Column #1)</text>
<text text-anchor="middle" x="208" y="-1072.8" font-family="Times,serif" font-size="14.00" fill="#ffffff">2 ms 502 µs </text>
</g>
<!-- 94449695417312&#45;&gt;94449696248944 -->
<g id="edge2" class="edge">
<title>94449695417312&#45;&gt;94449696248944</title>
<path fill="none" stroke="#ffffff" d="M208,-1134.1717C208,-1147.0092 208,-1161.6141 208,-1174.6774"/>
<polygon fill="#ffffff" stroke="#ffffff" points="204.5001,-1174.7601 208,-1184.7602 211.5001,-1174.7602 204.5001,-1174.7601"/>
<text text-anchor="middle" x="310.5" y="-1155.8" font-family="Times,serif" font-size="14.00" fill="#ffffff">2 row(s)/1 chunk(s)/1.041KB</text>
</g>
<!-- 94450372063600 -->
<g id="node4" class="node">
<title>94450372063600</title>
<polygon fill="none" stroke="#ffffff" stroke-width="3" points="264.5,-1014 151.5,-1014 151.5,-960 264.5,-960 264.5,-1014"/>
<text text-anchor="middle" x="208" y="-998.8" font-family="Times,serif" font-size="14.00" fill="#ffffff">Projection</text>
<text text-anchor="middle" x="208" y="-967.8" font-family="Times,serif" font-size="14.00" fill="#ffffff">10 ms 980 µs</text>
</g>
<!-- 94450372063600&#45;&gt;94449695417312 -->
<g id="edge3" class="edge">
<title>94450372063600&#45;&gt;94449695417312</title>
<path fill="none" stroke="#ffffff" stroke-width="3" d="M208,-1014.2331C208,-1026.3589 208,-1040.9621 208,-1054.6298"/>
<polygon fill="#ffffff" stroke="#ffffff" stroke-width="3" points="204.5001,-1054.8427 208,-1064.8427 211.5001,-1054.8428 204.5001,-1054.8427"/>
<text text-anchor="middle" x="330.5" y="-1035.8" font-family="Times,serif" font-size="14.00" fill="#ffffff">30988 row(s)/8 chunk(s)/1.306MB</text>
</g>
<!-- 94450423799504 -->
<g id="node5" class="node">
<title>94450423799504</title>
<polygon fill="none" stroke="#ffffff" stroke-width="3" points="332,-909 84,-909 84,-825 332,-825 332,-909"/>
<text text-anchor="middle" x="208" y="-893.8" font-family="Times,serif" font-size="14.00" fill="#ffffff">JoinHash</text>
<text text-anchor="middle" x="208" y="-878.8" font-family="Times,serif" font-size="14.00" fill="#ffffff">(Inner Join where o_orderkey = </text>
<text text-anchor="middle" x="208" y="-863.8" font-family="Times,serif" font-size="14.00" fill="#ffffff">l_orderkey)</text>
<text text-anchor="middle" x="208" y="-832.8" font-family="Times,serif" font-size="14.00" fill="#ffffff">34 ms 211 µs </text>
</g>
<!-- 94450423799504&#45;&gt;94450372063600 -->
<g id="edge4" class="edge">
<title>94450423799504&#45;&gt;94450372063600</title>
<path fill="none" stroke="#ffffff" stroke-width="3" d="M208,-909.3075C208,-922.3814 208,-936.686 208,-949.4178"/>
<polygon fill="#ffffff" stroke="#ffffff" stroke-width="3" points="204.5001,-949.681 208,-959.681 211.5001,-949.6811 204.5001,-949.681"/>
<text text-anchor="middle" x="330.5" y="-930.8" font-family="Times,serif" font-size="14.00" fill="#ffffff">30988 row(s)/8 chunk(s)/1.739MB</text>
</g>
<!-- 94449991377856 -->
<g id="node6" class="node">
<title>94449991377856</title>
<polygon fill="none" stroke="#ffffff" stroke-width="2" points="104,-774 0,-774 0,-720 104,-720 104,-774"/>
<text text-anchor="middle" x="52" y="-758.8" font-family="Times,serif" font-size="14.00" fill="#ffffff">Projection</text>
<text text-anchor="middle" x="52" y="-727.8" font-family="Times,serif" font-size="14.00" fill="#ffffff">1 ms 226 µs</text>
</g>
<!-- 94449991377856&#45;&gt;94450423799504 -->
<g id="edge5" class="edge">
<title>94449991377856&#45;&gt;94450423799504</title>
<path fill="none" stroke="#ffffff" stroke-width="4" d="M46.7433,-774.1576C46.072,-785.2511 47.3732,-797.6445 54,-807 59.9708,-815.4293 67.3077,-822.6744 75.5084,-828.9016"/>
<polygon fill="#ffffff" stroke="#ffffff" stroke-width="4" points="73.7711,-831.9567 83.9785,-834.7957 77.7695,-826.2109 73.7711,-831.9567"/>
<text text-anchor="middle" x="194.5" y="-795.8" font-family="Times,serif" font-size="14.00" fill="#ffffff">1500000 row(s)/15 chunk(s)/31.509MB</text>
</g>
<!-- 94450714881648 -->
<g id="node7" class="node">
<title>94450714881648</title>
<polygon fill="none" stroke="#ffffff" points="90.5,-654 9.5,-654 9.5,-585 90.5,-585 90.5,-654"/>
<text text-anchor="middle" x="50" y="-638.8" font-family="Times,serif" font-size="14.00" fill="#ffffff">GetTable</text>
<text text-anchor="middle" x="50" y="-623.8" font-family="Times,serif" font-size="14.00" fill="#ffffff">(orders)</text>
<text text-anchor="middle" x="50" y="-592.8" font-family="Times,serif" font-size="14.00" fill="#ffffff">1 µs 0 ns</text>
</g>
<!-- 94450714881648&#45;&gt;94449991377856 -->
<g id="edge6" class="edge">
<title>94450714881648&#45;&gt;94449991377856</title>
<path fill="none" stroke="#ffffff" stroke-width="4" d="M50.5412,-654.0033C50.8095,-671.104 51.1339,-691.7892 51.4087,-709.3049"/>
<polygon fill="#ffffff" stroke="#ffffff" stroke-width="4" points="47.9159,-709.7971 51.5724,-719.7409 54.915,-709.6872 47.9159,-709.7971"/>
<text text-anchor="middle" x="197" y="-690.8" font-family="Times,serif" font-size="14.00" fill="#ffffff">1500000 row(s)/15 chunk(s)/114.197MB</text>
</g>
<!-- 94450458442368 -->
<g id="node8" class="node">
<title>94450458442368</title>
<polygon fill="none" stroke="#ffffff" points="407,-774 317,-774 317,-720 407,-720 407,-774"/>
<text text-anchor="middle" x="362" y="-758.8" font-family="Times,serif" font-size="14.00" fill="#ffffff">Projection</text>
<text text-anchor="middle" x="362" y="-727.8" font-family="Times,serif" font-size="14.00" fill="#ffffff">56 µs 0 ns</text>
</g>
<!-- 94450458442368&#45;&gt;94450423799504 -->
<g id="edge7" class="edge">
<title>94450458442368&#45;&gt;94450423799504</title>
<path fill="none" stroke="#ffffff" stroke-width="3" d="M356.3782,-774.2511C352.9235,-785.4912 347.4739,-797.9707 339,-807 334.9972,-811.2651 330.6328,-815.2517 326.0061,-818.975"/>
<polygon fill="#ffffff" stroke="#ffffff" stroke-width="3" points="323.8842,-816.1914 317.9897,-824.9951 328.0877,-821.7887 323.8842,-816.1914"/>
<text text-anchor="middle" x="476" y="-795.8" font-family="Times,serif" font-size="14.00" fill="#ffffff">30988 row(s)/61 chunk(s)/1.264MB</text>
</g>
<!-- 94449928296640 -->
<g id="node9" class="node">
<title>94449928296640</title>
<polygon fill="none" stroke="#ffffff" stroke-width="3" points="467,-669 259,-669 259,-570 467,-570 467,-669"/>
<text text-anchor="middle" x="363" y="-653.8" font-family="Times,serif" font-size="14.00" fill="#ffffff">TableScan</text>
<text text-anchor="middle" x="363" y="-638.8" font-family="Times,serif" font-size="14.00" fill="#ffffff">Impl: ExpressionEvaluator</text>
<text text-anchor="middle" x="363" y="-623.8" font-family="Times,serif" font-size="14.00" fill="#ffffff">(l_shipmode) </text>
<text text-anchor="middle" x="363" y="-608.8" font-family="Times,serif" font-size="14.00" fill="#ffffff">IN (&#39;MAIL&#39;, &#39;SHIP&#39;)</text>
<text text-anchor="middle" x="363" y="-577.8" font-family="Times,serif" font-size="14.00" fill="#ffffff">12 ms 532 µs </text>
</g>
<!-- 94449928296640&#45;&gt;94450458442368 -->
<g id="edge8" class="edge">
<title>94449928296640&#45;&gt;94450458442368</title>
<path fill="none" stroke="#ffffff" stroke-width="3" d="M362.6105,-669.1599C362.5051,-682.598 362.3928,-696.9153 362.2937,-709.5584"/>
<polygon fill="#ffffff" stroke="#ffffff" stroke-width="3" points="358.7925,-709.7015 362.2139,-719.7287 365.7923,-709.7565 358.7925,-709.7015"/>
<text text-anchor="middle" x="489" y="-690.8" font-family="Times,serif" font-size="14.00" fill="#ffffff">30988 row(s)/61 chunk(s)/4.029MB</text>
</g>
<!-- 94450424598896 -->
<g id="node10" class="node">
<title>94450424598896</title>
<polygon fill="none" stroke="#ffffff" stroke-width="2" points="481.5,-519 244.5,-519 244.5,-420 481.5,-420 481.5,-519"/>
<text text-anchor="middle" x="363" y="-503.8" font-family="Times,serif" font-size="14.00" fill="#ffffff">TableScan</text>
<text text-anchor="middle" x="363" y="-488.8" font-family="Times,serif" font-size="14.00" fill="#ffffff">Impl: BetweenScan</text>
<text text-anchor="middle" x="363" y="-473.8" font-family="Times,serif" font-size="14.00" fill="#ffffff">l_receiptdate BETWEEN </text>
<text text-anchor="middle" x="363" y="-458.8" font-family="Times,serif" font-size="14.00" fill="#ffffff">&#39;1994&#45;01&#45;01&#39; AND &#39;1995&#45;01&#45;00&#39;</text>
<text text-anchor="middle" x="363" y="-427.8" font-family="Times,serif" font-size="14.00" fill="#ffffff">4 ms 110 µs </text>
</g>
<!-- 94450424598896&#45;&gt;94449928296640 -->
<g id="edge9" class="edge">
<title>94450424598896&#45;&gt;94449928296640</title>
<path fill="none" stroke="#ffffff" stroke-width="3" d="M363,-519.0313C363,-532.0196 363,-546.1643 363,-559.63"/>
<polygon fill="#ffffff" stroke="#ffffff" stroke-width="3" points="359.5001,-559.7646 363,-569.7646 366.5001,-559.7646 359.5001,-559.7646"/>
<text text-anchor="middle" x="499" y="-540.8" font-family="Times,serif" font-size="14.00" fill="#ffffff">108434 row(s)/61 chunk(s)/13.942MB</text>
</g>
<!-- 94450804138944 -->
<g id="node11" class="node">
<title>94450804138944</title>
<polygon fill="none" stroke="#ffffff" stroke-width="3" points="463,-369 263,-369 263,-270 463,-270 463,-369"/>
<text text-anchor="middle" x="363" y="-353.8" font-family="Times,serif" font-size="14.00" fill="#ffffff">TableScan</text>
<text text-anchor="middle" x="363" y="-338.8" font-family="Times,serif" font-size="14.00" fill="#ffffff">Impl: ColumnComparison</text>
<text text-anchor="middle" x="363" y="-323.8" font-family="Times,serif" font-size="14.00" fill="#ffffff">l_shipdate &lt; </text>
<text text-anchor="middle" x="363" y="-308.8" font-family="Times,serif" font-size="14.00" fill="#ffffff">l_commitdate</text>
<text text-anchor="middle" x="363" y="-277.8" font-family="Times,serif" font-size="14.00" fill="#ffffff">192 ms 773 µs </text>
</g>
<!-- 94450804138944&#45;&gt;94450424598896 -->
<g id="edge10" class="edge">
<title>94450804138944&#45;&gt;94450424598896</title>
<path fill="none" stroke="#ffffff" stroke-width="3" d="M363,-369.0313C363,-382.0196 363,-396.1643 363,-409.63"/>
<polygon fill="#ffffff" stroke="#ffffff" stroke-width="3" points="359.5001,-409.7646 363,-419.7646 366.5001,-409.7646 359.5001,-409.7646"/>
<text text-anchor="middle" x="499" y="-390.8" font-family="Times,serif" font-size="14.00" fill="#ffffff">718639 row(s)/61 chunk(s)/92.048MB</text>
</g>
<!-- 94450422894128 -->
<g id="node12" class="node">
<title>94450422894128</title>
<polygon fill="none" stroke="#ffffff" stroke-width="3" points="463,-219 263,-219 263,-120 463,-120 463,-219"/>
<text text-anchor="middle" x="363" y="-203.8" font-family="Times,serif" font-size="14.00" fill="#ffffff">TableScan</text>
<text text-anchor="middle" x="363" y="-188.8" font-family="Times,serif" font-size="14.00" fill="#ffffff">Impl: ColumnComparison</text>
<text text-anchor="middle" x="363" y="-173.8" font-family="Times,serif" font-size="14.00" fill="#ffffff">l_commitdate &lt; </text>
<text text-anchor="middle" x="363" y="-158.8" font-family="Times,serif" font-size="14.00" fill="#ffffff">l_receiptdate</text>
<text text-anchor="middle" x="363" y="-127.8" font-family="Times,serif" font-size="14.00" fill="#ffffff">218 ms 50 µs </text>
</g>
<!-- 94450422894128&#45;&gt;94450804138944 -->
<g id="edge11" class="edge">
<title>94450422894128&#45;&gt;94450804138944</title>
<path fill="none" stroke="#ffffff" stroke-width="4" d="M363,-219.0313C363,-232.0196 363,-246.1643 363,-259.63"/>
<polygon fill="#ffffff" stroke="#ffffff" stroke-width="4" points="359.5001,-259.7646 363,-269.7646 366.5001,-259.7646 359.5001,-259.7646"/>
<text text-anchor="middle" x="508" y="-240.8" font-family="Times,serif" font-size="14.00" fill="#ffffff">3793296 row(s)/61 chunk(s)/485.604MB</text>
</g>
<!-- 94450893088608 -->
<g id="node13" class="node">
<title>94450893088608</title>
<polygon fill="none" stroke="#ffffff" points="406,-69 320,-69 320,0 406,0 406,-69"/>
<text text-anchor="middle" x="363" y="-53.8" font-family="Times,serif" font-size="14.00" fill="#ffffff">GetTable</text>
<text text-anchor="middle" x="363" y="-38.8" font-family="Times,serif" font-size="14.00" fill="#ffffff">(lineitem)</text>
<text text-anchor="middle" x="363" y="-7.8" font-family="Times,serif" font-size="14.00" fill="#ffffff">1 µs 0 ns</text>
</g>
<!-- 94450893088608&#45;&gt;94450422894128 -->
<g id="edge12" class="edge">
<title>94450893088608&#45;&gt;94450422894128</title>
<path fill="none" stroke="#ffffff" stroke-width="4" d="M363,-69.2659C363,-81.5301 363,-95.6967 363,-109.446"/>
<polygon fill="#ffffff" stroke="#ffffff" stroke-width="4" points="359.5001,-109.8405 363,-119.8405 366.5001,-109.8406 359.5001,-109.8405"/>
<text text-anchor="middle" x="508" y="-90.8" font-family="Times,serif" font-size="14.00" fill="#ffffff">6001215 row(s)/61 chunk(s)/500.660MB</text>
</g>
</g>
</svg>
