<?xml version="1.0" encoding="UTF-8" standalone="no"?>
<!DOCTYPE svg PUBLIC "-//W3C//DTD SVG 1.1//EN"
 "http://www.w3.org/Graphics/SVG/1.1/DTD/svg11.dtd">
<!-- Generated by graphviz version 2.40.1 (20161225.0304)
 -->
<!-- Title: G Pages: 1 -->
<svg width="768pt" height="898pt"
 viewBox="0.00 0.00 768.00 898.00" xmlns="http://www.w3.org/2000/svg" xmlns:xlink="http://www.w3.org/1999/xlink">
<g id="graph0" class="graph" transform="scale(1 1) rotate(0) translate(4 894)">
<title>G</title>
<polygon fill="#000000" stroke="transparent" points="-4,4 -4,-894 764,-894 764,4 -4,4"/>
<!-- 94450985148832 -->
<g id="node1" class="node">
<title>94450985148832</title>
<polygon fill="none" stroke="#ffffff" points="549.5,-890 174.5,-890 174.5,-852 549.5,-852 549.5,-890"/>
<text text-anchor="middle" x="362" y="-874.8" font-family="Times,serif" font-size="14.00" fill="#ffffff">Alias [SUM(l_extendedprice * (1 &#45; l_discount)) AS </text>
<text text-anchor="middle" x="362" y="-859.8" font-family="Times,serif" font-size="14.00" fill="#ffffff">revenue] </text>
</g>
<!-- 94450275175392 -->
<g id="node2" class="node">
<title>94450275175392</title>
<polygon fill="none" stroke="#ffffff" points="520,-801 204,-801 204,-763 520,-763 520,-801"/>
<text text-anchor="middle" x="362" y="-785.8" font-family="Times,serif" font-size="14.00" fill="#ffffff">[Aggregate] GroupBy: [] Aggregates: </text>
<text text-anchor="middle" x="362" y="-770.8" font-family="Times,serif" font-size="14.00" fill="#ffffff">[SUM(l_extendedprice * (1 &#45; l_discount))] </text>
</g>
<!-- 94450275175392&#45;&gt;94450985148832 -->
<g id="edge1" class="edge">
<title>94450275175392&#45;&gt;94450985148832</title>
<path fill="none" stroke="#ffffff" stroke-width="4" d="M362,-801.3117C362,-813.091 362,-828.3813 362,-841.6372"/>
<polygon fill="#ffffff" stroke="#ffffff" stroke-width="4" points="358.5001,-841.726 362,-851.726 365.5001,-841.726 358.5001,-841.726"/>
<text text-anchor="middle" x="481" y="-822.8" font-family="Times,serif" font-size="14.00" fill="#ffffff"> 1500303.6 row(s) | 100.0% estd.</text>
</g>
<!-- 94450458433520 -->
<g id="node3" class="node">
<title>94450458433520</title>
<polygon fill="none" stroke="#ffffff" points="533.5,-712 190.5,-712 190.5,-676 533.5,-676 533.5,-712"/>
<text text-anchor="middle" x="362" y="-690.3" font-family="Times,serif" font-size="14.00" fill="#ffffff">[Projection] l_extendedprice * (1 &#45; l_discount)</text>
</g>
<!-- 94450458433520&#45;&gt;94450275175392 -->
<g id="edge2" class="edge">
<title>94450458433520&#45;&gt;94450275175392</title>
<path fill="none" stroke="#ffffff" stroke-width="4" d="M362,-712.2337C362,-723.9125 362,-739.3308 362,-752.7022"/>
<polygon fill="#ffffff" stroke="#ffffff" stroke-width="4" points="358.5001,-752.8765 362,-762.8765 365.5001,-752.8765 358.5001,-752.8765"/>
<text text-anchor="middle" x="481" y="-733.8" font-family="Times,serif" font-size="14.00" fill="#ffffff"> 1500303.6 row(s) | 100.0% estd.</text>
</g>
<!-- 94450838138832 -->
<g id="node4" class="node">
<title>94450838138832</title>
<polygon fill="none" stroke="#ffffff" points="582,-625 142,-625 142,-452 582,-452 582,-625"/>
<text text-anchor="middle" x="362" y="-609.8" font-family="Times,serif" font-size="14.00" fill="#ffffff">[Predicate] ((((p_size BETWEEN 1 AND 15 AND </text>
<text text-anchor="middle" x="362" y="-594.8" font-family="Times,serif" font-size="14.00" fill="#ffffff">l_quantity BETWEEN 20 AND 30) AND (p_container) </text>
<text text-anchor="middle" x="362" y="-579.8" font-family="Times,serif" font-size="14.00" fill="#ffffff">IN (&#39;LG CASE&#39;, &#39;LG BOX&#39;, &#39;LG PACK&#39;, &#39;LG PKG&#39;)) </text>
<text text-anchor="middle" x="362" y="-564.8" font-family="Times,serif" font-size="14.00" fill="#ffffff">AND p_brand = &#39;Brand#34&#39;) OR (((p_size BETWEEN 1 </text>
<text text-anchor="middle" x="362" y="-549.8" font-family="Times,serif" font-size="14.00" fill="#ffffff">AND 5 AND l_quantity BETWEEN 1 AND 11) AND </text>
<text text-anchor="middle" x="362" y="-534.8" font-family="Times,serif" font-size="14.00" fill="#ffffff">(p_container) IN (&#39;SM CASE&#39;, &#39;SM BOX&#39;, &#39;SM PACK&#39;, </text>
<text text-anchor="middle" x="362" y="-519.8" font-family="Times,serif" font-size="14.00" fill="#ffffff">&#39;SM PKG&#39;)) AND p_brand = &#39;Brand#12&#39;)) OR </text>
<text text-anchor="middle" x="362" y="-504.8" font-family="Times,serif" font-size="14.00" fill="#ffffff">(((p_size BETWEEN 1 AND 10 AND l_quantity BETWEEN </text>
<text text-anchor="middle" x="362" y="-489.8" font-family="Times,serif" font-size="14.00" fill="#ffffff">10 AND 20) AND (p_container) IN (&#39;MED BAG&#39;, &#39;MED </text>
<text text-anchor="middle" x="362" y="-474.8" font-family="Times,serif" font-size="14.00" fill="#ffffff">BOX&#39;, &#39;MED PKG&#39;, &#39;MED PACK&#39;)) AND p_brand = </text>
<text text-anchor="middle" x="362" y="-459.8" font-family="Times,serif" font-size="14.00" fill="#ffffff">&#39;Brand#23&#39;) </text>
</g>
<!-- 94450838138832&#45;&gt;94450458433520 -->
<g id="edge3" class="edge">
<title>94450838138832&#45;&gt;94450458433520</title>
<path fill="none" stroke="#ffffff" stroke-width="4" d="M362,-625.3428C362,-639.8935 362,-654.0135 362,-665.6265"/>
<polygon fill="#ffffff" stroke="#ffffff" stroke-width="4" points="358.5001,-665.9246 362,-675.9246 365.5001,-665.9246 358.5001,-665.9246"/>
<text text-anchor="middle" x="481" y="-646.8" font-family="Times,serif" font-size="14.00" fill="#ffffff"> 1500303.6 row(s) | 100.0% estd.</text>
</g>
<!-- 94450362777008 -->
<g id="node5" class="node">
<title>94450362777008</title>
<polygon fill="none" stroke="#ffffff" points="518,-401 206,-401 206,-365 518,-365 518,-401"/>
<text text-anchor="middle" x="362" y="-379.3" font-family="Times,serif" font-size="14.00" fill="#ffffff">[Join] Mode: Inner p_partkey = l_partkey</text>
</g>
<!-- 94450362777008&#45;&gt;94450838138832 -->
<g id="edge4" class="edge">
<title>94450362777008&#45;&gt;94450838138832</title>
<path fill="none" stroke="#ffffff" stroke-width="4" d="M362,-401.1422C362,-411.7888 362,-426.1621 362,-441.6104"/>
<polygon fill="#ffffff" stroke="#ffffff" stroke-width="4" points="358.5001,-441.8889 362,-451.8889 365.5001,-441.889 358.5001,-441.8889"/>
<text text-anchor="middle" x="472" y="-422.8" font-family="Times,serif" font-size="14.00" fill="#ffffff"> 1500303.6 row(s) | 0.0% estd.</text>
</g>
<!-- 94450929365440 -->
<g id="node6" class="node">
<title>94450929365440</title>
<polygon fill="none" stroke="#ffffff" points="360.5,-314 29.5,-314 29.5,-261 360.5,-261 360.5,-314"/>
<text text-anchor="middle" x="195" y="-298.8" font-family="Times,serif" font-size="14.00" fill="#ffffff">[Projection] l_partkey, l_quantity, </text>
<text text-anchor="middle" x="195" y="-283.8" font-family="Times,serif" font-size="14.00" fill="#ffffff">l_extendedprice, l_discount, l_shipinstruct, </text>
<text text-anchor="middle" x="195" y="-268.8" font-family="Times,serif" font-size="14.00" fill="#ffffff">l_shipmode </text>
</g>
<!-- 94450929365440&#45;&gt;94450362777008 -->
<g id="edge5" class="edge">
<title>94450929365440&#45;&gt;94450362777008</title>
<path fill="none" stroke="#ffffff" stroke-width="4" d="M215.4163,-314.0957C225.3838,-325.567 238.1968,-338.3159 252,-347 260.6999,-352.4735 270.315,-357.1969 280.132,-361.2515"/>
<polygon fill="#ffffff" stroke="#ffffff" stroke-width="4" points="278.9946,-364.5646 289.5829,-364.9367 281.5376,-358.0429 278.9946,-364.5646"/>
<text text-anchor="middle" x="371" y="-335.8" font-family="Times,serif" font-size="14.00" fill="#ffffff"> 1500303.8 row(s) | 100.0% estd.</text>
</g>
<!-- 94450929365296 -->
<g id="node7" class="node">
<title>94450929365296</title>
<polygon fill="none" stroke="#ffffff" points="367.5,-210 22.5,-210 22.5,-174 367.5,-174 367.5,-210"/>
<text text-anchor="middle" x="195" y="-188.3" font-family="Times,serif" font-size="14.00" fill="#ffffff">[Predicate] (l_shipmode) IN (&#39;AIR&#39;, &#39;AIR REG&#39;)</text>
</g>
<!-- 94450929365296&#45;&gt;94450929365440 -->
<g id="edge6" class="edge">
<title>94450929365296&#45;&gt;94450929365440</title>
<path fill="none" stroke="#ffffff" stroke-width="4" d="M195,-210.4134C195,-221.816 195,-236.8627 195,-250.6338"/>
<polygon fill="#ffffff" stroke="#ffffff" stroke-width="4" points="191.5001,-250.8344 195,-260.8345 198.5001,-250.8345 191.5001,-250.8344"/>
<text text-anchor="middle" x="314" y="-231.8" font-family="Times,serif" font-size="14.00" fill="#ffffff"> 1500303.8 row(s) | 100.0% estd.</text>
</g>
<!-- 94450929365584 -->
<g id="node8" class="node">
<title>94450929365584</title>
<polygon fill="none" stroke="#ffffff" points="390,-123 0,-123 0,-87 390,-87 390,-123"/>
<text text-anchor="middle" x="195" y="-101.3" font-family="Times,serif" font-size="14.00" fill="#ffffff">[Predicate] l_shipinstruct = &#39;DELIVER IN PERSON&#39;</text>
</g>
<!-- 94450929365584&#45;&gt;94450929365296 -->
<g id="edge7" class="edge">
<title>94450929365584&#45;&gt;94450929365296</title>
<path fill="none" stroke="#ffffff" stroke-width="4" d="M195,-123.0265C195,-134.8082 195,-150.4393 195,-163.8419"/>
<polygon fill="#ffffff" stroke="#ffffff" stroke-width="4" points="191.5001,-163.9966 195,-173.9966 198.5001,-163.9967 191.5001,-163.9966"/>
<text text-anchor="middle" x="309.5" y="-144.8" font-family="Times,serif" font-size="14.00" fill="#ffffff"> 1500303.8 row(s) | 25.0% estd.</text>
</g>
<!-- 94450929559136 -->
<g id="node9" class="node">
<title>94450929559136</title>
<polygon fill="none" stroke="#ffffff" points="313,-36 77,-36 77,0 313,0 313,-36"/>
<text text-anchor="middle" x="195" y="-14.3" font-family="Times,serif" font-size="14.00" fill="#ffffff">[StoredTable] Name: &#39;lineitem&#39;</text>
</g>
<!-- 94450929559136&#45;&gt;94450929365584 -->
<g id="edge8" class="edge">
<title>94450929559136&#45;&gt;94450929365584</title>
<path fill="none" stroke="#ffffff" stroke-width="4" d="M195,-36.0265C195,-47.8082 195,-63.4393 195,-76.8419"/>
<polygon fill="#ffffff" stroke="#ffffff" stroke-width="4" points="191.5001,-76.9966 195,-86.9966 198.5001,-76.9967 191.5001,-76.9966"/>
<text text-anchor="middle" x="314" y="-57.8" font-family="Times,serif" font-size="14.00" fill="#ffffff"> 6001215.0 row(s) | 100.0% estd.</text>
</g>
<!-- 94450020434976 -->
<g id="node10" class="node">
<title>94450020434976</title>
<polygon fill="none" stroke="#ffffff" points="683.5,-306.5 378.5,-306.5 378.5,-268.5 683.5,-268.5 683.5,-306.5"/>
<text text-anchor="middle" x="531" y="-291.3" font-family="Times,serif" font-size="14.00" fill="#ffffff">[Projection] p_partkey, p_brand, p_size, </text>
<text text-anchor="middle" x="531" y="-276.3" font-family="Times,serif" font-size="14.00" fill="#ffffff">p_container </text>
</g>
<!-- 94450020434976&#45;&gt;94450362777008 -->
<g id="edge9" class="edge">
<title>94450020434976&#45;&gt;94450362777008</title>
<path fill="none" stroke="#ffffff" stroke-width="3" d="M522.3226,-306.5045C515.3643,-319.706 504.3878,-336.711 490,-347 482.3351,-352.4813 473.8602,-357.1299 465.0283,-361.072"/>
<polygon fill="#ffffff" stroke="#ffffff" stroke-width="3" points="463.614,-357.8694 455.7144,-364.9296 466.2927,-364.3366 463.614,-357.8694"/>
<text text-anchor="middle" x="620.5" y="-335.8" font-family="Times,serif" font-size="14.00" fill="#ffffff"> 200000.0 row(s) | 100.0% estd.</text>
</g>
<!-- 94450898670480 -->
<g id="node11" class="node">
<title>94450898670480</title>
<polygon fill="none" stroke="#ffffff" points="635,-210 427,-210 427,-174 635,-174 635,-210"/>
<text text-anchor="middle" x="531" y="-188.3" font-family="Times,serif" font-size="14.00" fill="#ffffff">[StoredTable] Name: &#39;part&#39;</text>
</g>
<!-- 94450898670480&#45;&gt;94450020434976 -->
<g id="edge10" class="edge">
<title>94450898670480&#45;&gt;94450020434976</title>
<path fill="none" stroke="#ffffff" stroke-width="3" d="M531,-210.4134C531,-223.9773 531,-242.6976 531,-258.2934"/>
<polygon fill="#ffffff" stroke="#ffffff" stroke-width="3" points="527.5001,-258.4895 531,-268.4895 534.5001,-258.4895 527.5001,-258.4895"/>
<text text-anchor="middle" x="645.5" y="-231.8" font-family="Times,serif" font-size="14.00" fill="#ffffff"> 200000.0 row(s) | 100.0% estd.</text>
</g>
</g>
</svg>
