<?xml version="1.0" encoding="UTF-8" standalone="no"?>
<!DOCTYPE svg PUBLIC "-//W3C//DTD SVG 1.1//EN"
 "http://www.w3.org/Graphics/SVG/1.1/DTD/svg11.dtd">
<!-- Generated by graphviz version 2.40.1 (20161225.0304)
 -->
<!-- Title: G Pages: 1 -->
<svg width="667pt" height="902pt"
 viewBox="0.00 0.00 666.50 902.00" xmlns="http://www.w3.org/2000/svg" xmlns:xlink="http://www.w3.org/1999/xlink">
<g id="graph0" class="graph" transform="scale(1 1) rotate(0) translate(4 898)">
<title>G</title>
<polygon fill="#000000" stroke="transparent" points="-4,4 -4,-898 662.5,-898 662.5,4 -4,4"/>
<!-- 94450276924096 -->
<g id="node1" class="node">
<title>94450276924096</title>
<polygon fill="none" stroke="#ffffff" points="345.5,-894 167.5,-894 167.5,-840 345.5,-840 345.5,-894"/>
<text text-anchor="middle" x="256.5" y="-878.8" font-family="Times,serif" font-size="14.00" fill="#ffffff">Alias [promo_revenue]</text>
<text text-anchor="middle" x="256.5" y="-847.8" font-family="Times,serif" font-size="14.00" fill="#ffffff">2 µs 0 ns</text>
</g>
<!-- 94450276925168 -->
<g id="node2" class="node">
<title>94450276925168</title>
<polygon fill="none" stroke="#ffffff" points="301.5,-789 211.5,-789 211.5,-735 301.5,-735 301.5,-789"/>
<text text-anchor="middle" x="256.5" y="-773.8" font-family="Times,serif" font-size="14.00" fill="#ffffff">Projection</text>
<text text-anchor="middle" x="256.5" y="-742.8" font-family="Times,serif" font-size="14.00" fill="#ffffff">71 µs 0 ns</text>
</g>
<!-- 94450276925168&#45;&gt;94450276924096 -->
<g id="edge1" class="edge">
<title>94450276925168&#45;&gt;94450276924096</title>
<path fill="none" stroke="#ffffff" d="M256.5,-789.0401C256.5,-801.3143 256.5,-816.0382 256.5,-829.3683"/>
<polygon fill="#ffffff" stroke="#ffffff" points="253.0001,-829.6866 256.5,-839.6866 260.0001,-829.6866 253.0001,-829.6866"/>
<text text-anchor="middle" x="347" y="-810.8" font-family="Times,serif" font-size="14.00" fill="#ffffff">1 row(s)/1 chunk(s)/552B</text>
</g>
<!-- 94450670329808 -->
<g id="node3" class="node">
<title>94450670329808</title>
<polygon fill="none" stroke="#ffffff" stroke-width="2" points="436,-684 77,-684 77,-615 436,-615 436,-684"/>
<text text-anchor="middle" x="256.5" y="-668.8" font-family="Times,serif" font-size="14.00" fill="#ffffff">[Aggregate] GroupBy ColumnIDs: &#160;Aggregates: </text>
<text text-anchor="middle" x="256.5" y="-653.8" font-family="Times,serif" font-size="14.00" fill="#ffffff">SUM(Column #0), SUM(Column #1)</text>
<text text-anchor="middle" x="256.5" y="-622.8" font-family="Times,serif" font-size="14.00" fill="#ffffff">2 ms 684 µs </text>
</g>
<!-- 94450670329808&#45;&gt;94450276925168 -->
<g id="edge2" class="edge">
<title>94450670329808&#45;&gt;94450276925168</title>
<path fill="none" stroke="#ffffff" d="M256.5,-684.1717C256.5,-697.0092 256.5,-711.6141 256.5,-724.6774"/>
<polygon fill="#ffffff" stroke="#ffffff" points="253.0001,-724.7601 256.5,-734.7602 260.0001,-724.7602 253.0001,-724.7601"/>
<text text-anchor="middle" x="347" y="-705.8" font-family="Times,serif" font-size="14.00" fill="#ffffff">1 row(s)/1 chunk(s)/719B</text>
</g>
<!-- 94450577647200 -->
<g id="node4" class="node">
<title>94450577647200</title>
<polygon fill="none" stroke="#ffffff" stroke-width="3" points="313,-564 200,-564 200,-510 313,-510 313,-564"/>
<text text-anchor="middle" x="256.5" y="-548.8" font-family="Times,serif" font-size="14.00" fill="#ffffff">Projection</text>
<text text-anchor="middle" x="256.5" y="-517.8" font-family="Times,serif" font-size="14.00" fill="#ffffff">28 ms 381 µs</text>
</g>
<!-- 94450577647200&#45;&gt;94450670329808 -->
<g id="edge3" class="edge">
<title>94450577647200&#45;&gt;94450670329808</title>
<path fill="none" stroke="#ffffff" stroke-width="3" d="M256.5,-564.2331C256.5,-576.3589 256.5,-590.9621 256.5,-604.6298"/>
<polygon fill="#ffffff" stroke="#ffffff" stroke-width="3" points="253.0001,-604.8427 256.5,-614.8427 260.0001,-604.8428 253.0001,-604.8427"/>
<text text-anchor="middle" x="390.5" y="-585.8" font-family="Times,serif" font-size="14.00" fill="#ffffff">75983 row(s)/16 chunk(s)/691.498KB</text>
</g>
<!-- 94450275185552 -->
<g id="node5" class="node">
<title>94450275185552</title>
<polygon fill="none" stroke="#ffffff" stroke-width="3" points="374,-459 139,-459 139,-375 374,-375 374,-459"/>
<text text-anchor="middle" x="256.5" y="-443.8" font-family="Times,serif" font-size="14.00" fill="#ffffff">JoinHash</text>
<text text-anchor="middle" x="256.5" y="-428.8" font-family="Times,serif" font-size="14.00" fill="#ffffff">(Inner Join where l_partkey = </text>
<text text-anchor="middle" x="256.5" y="-413.8" font-family="Times,serif" font-size="14.00" fill="#ffffff">p_partkey)</text>
<text text-anchor="middle" x="256.5" y="-382.8" font-family="Times,serif" font-size="14.00" fill="#ffffff">47 ms 84 µs </text>
</g>
<!-- 94450275185552&#45;&gt;94450577647200 -->
<g id="edge4" class="edge">
<title>94450275185552&#45;&gt;94450577647200</title>
<path fill="none" stroke="#ffffff" stroke-width="3" d="M256.5,-459.3075C256.5,-472.3814 256.5,-486.686 256.5,-499.4178"/>
<polygon fill="#ffffff" stroke="#ffffff" stroke-width="3" points="253.0001,-499.681 256.5,-509.681 260.0001,-499.6811 253.0001,-499.681"/>
<text text-anchor="middle" x="383.5" y="-480.8" font-family="Times,serif" font-size="14.00" fill="#ffffff">75983 row(s)/16 chunk(s)/3.654MB</text>
</g>
<!-- 94450422022432 -->
<g id="node6" class="node">
<title>94450422022432</title>
<polygon fill="none" stroke="#ffffff" points="163.5,-324 73.5,-324 73.5,-270 163.5,-270 163.5,-324"/>
<text text-anchor="middle" x="118.5" y="-308.8" font-family="Times,serif" font-size="14.00" fill="#ffffff">Projection</text>
<text text-anchor="middle" x="118.5" y="-277.8" font-family="Times,serif" font-size="14.00" fill="#ffffff">49 µs 0 ns</text>
</g>
<!-- 94450422022432&#45;&gt;94450275185552 -->
<g id="edge5" class="edge">
<title>94450422022432&#45;&gt;94450275185552</title>
<path fill="none" stroke="#ffffff" stroke-width="3" d="M112.8859,-324.2801C112.0919,-335.2667 113.2073,-347.5472 119.5,-357 122.9106,-362.1233 126.8641,-366.8122 131.2307,-371.1033"/>
<polygon fill="#ffffff" stroke="#ffffff" stroke-width="3" points="129.1454,-373.9324 138.9466,-377.9558 133.7937,-368.6984 129.1454,-373.9324"/>
<text text-anchor="middle" x="246.5" y="-345.8" font-family="Times,serif" font-size="14.00" fill="#ffffff">75983 row(s)/61 chunk(s)/2.453MB</text>
</g>
<!-- 94450634772784 -->
<g id="node7" class="node">
<title>94450634772784</title>
<polygon fill="none" stroke="#ffffff" stroke-width="2" points="237,-219 0,-219 0,-120 237,-120 237,-219"/>
<text text-anchor="middle" x="118.5" y="-203.8" font-family="Times,serif" font-size="14.00" fill="#ffffff">TableScan</text>
<text text-anchor="middle" x="118.5" y="-188.8" font-family="Times,serif" font-size="14.00" fill="#ffffff">Impl: BetweenScan</text>
<text text-anchor="middle" x="118.5" y="-173.8" font-family="Times,serif" font-size="14.00" fill="#ffffff">l_shipdate BETWEEN </text>
<text text-anchor="middle" x="118.5" y="-158.8" font-family="Times,serif" font-size="14.00" fill="#ffffff">&#39;1995&#45;09&#45;01&#39; AND &#39;1995&#45;10&#45;00&#39;</text>
<text text-anchor="middle" x="118.5" y="-127.8" font-family="Times,serif" font-size="14.00" fill="#ffffff">6 ms 275 µs </text>
</g>
<!-- 94450634772784&#45;&gt;94450422022432 -->
<g id="edge6" class="edge">
<title>94450634772784&#45;&gt;94450422022432</title>
<path fill="none" stroke="#ffffff" stroke-width="3" d="M118.5,-219.1599C118.5,-232.598 118.5,-246.9153 118.5,-259.5584"/>
<polygon fill="#ffffff" stroke="#ffffff" stroke-width="3" points="115.0001,-259.7287 118.5,-269.7287 122.0001,-259.7288 115.0001,-259.7287"/>
<text text-anchor="middle" x="245.5" y="-240.8" font-family="Times,serif" font-size="14.00" fill="#ffffff">75983 row(s)/61 chunk(s)/9.788MB</text>
</g>
<!-- 94450424595856 -->
<g id="node8" class="node">
<title>94450424595856</title>
<polygon fill="none" stroke="#ffffff" points="161.5,-69 75.5,-69 75.5,0 161.5,0 161.5,-69"/>
<text text-anchor="middle" x="118.5" y="-53.8" font-family="Times,serif" font-size="14.00" fill="#ffffff">GetTable</text>
<text text-anchor="middle" x="118.5" y="-38.8" font-family="Times,serif" font-size="14.00" fill="#ffffff">(lineitem)</text>
<text text-anchor="middle" x="118.5" y="-7.8" font-family="Times,serif" font-size="14.00" fill="#ffffff">0 ns</text>
</g>
<!-- 94450424595856&#45;&gt;94450634772784 -->
<g id="edge7" class="edge">
<title>94450424595856&#45;&gt;94450634772784</title>
<path fill="none" stroke="#ffffff" stroke-width="4" d="M118.5,-69.2659C118.5,-81.5301 118.5,-95.6967 118.5,-109.446"/>
<polygon fill="#ffffff" stroke="#ffffff" stroke-width="4" points="115.0001,-109.8405 118.5,-119.8405 122.0001,-109.8406 115.0001,-109.8405"/>
<text text-anchor="middle" x="263.5" y="-90.8" font-family="Times,serif" font-size="14.00" fill="#ffffff">6001215 row(s)/61 chunk(s)/500.660MB</text>
</g>
<!-- 94449992168656 -->
<g id="node9" class="node">
<title>94449992168656</title>
<polygon fill="none" stroke="#ffffff" stroke-width="2" points="445,-324 346,-324 346,-270 445,-270 445,-324"/>
<text text-anchor="middle" x="395.5" y="-308.8" font-family="Times,serif" font-size="14.00" fill="#ffffff">Projection</text>
<text text-anchor="middle" x="395.5" y="-277.8" font-family="Times,serif" font-size="14.00" fill="#ffffff">257 µs 0 ns</text>
</g>
<!-- 94449992168656&#45;&gt;94450275185552 -->
<g id="edge8" class="edge">
<title>94449992168656&#45;&gt;94450275185552</title>
<path fill="none" stroke="#ffffff" stroke-width="3" d="M390.1743,-324.0633C386.879,-335.2701 381.6593,-347.7755 373.5,-357 369.8608,-361.1144 365.872,-364.9854 361.6315,-368.6225"/>
<polygon fill="#ffffff" stroke="#ffffff" stroke-width="3" points="359.3777,-365.9432 353.748,-374.9185 363.7461,-371.4129 359.3777,-365.9432"/>
<text text-anchor="middle" x="509.5" y="-345.8" font-family="Times,serif" font-size="14.00" fill="#ffffff">200000 row(s)/2 chunk(s)/4.210MB</text>
</g>
<!-- 94450424594784 -->
<g id="node10" class="node">
<title>94450424594784</title>
<polygon fill="none" stroke="#ffffff" points="436,-204 355,-204 355,-135 436,-135 436,-204"/>
<text text-anchor="middle" x="395.5" y="-188.8" font-family="Times,serif" font-size="14.00" fill="#ffffff">GetTable</text>
<text text-anchor="middle" x="395.5" y="-173.8" font-family="Times,serif" font-size="14.00" fill="#ffffff">(part)</text>
<text text-anchor="middle" x="395.5" y="-142.8" font-family="Times,serif" font-size="14.00" fill="#ffffff">1 µs 0 ns</text>
</g>
<!-- 94450424594784&#45;&gt;94449992168656 -->
<g id="edge9" class="edge">
<title>94450424594784&#45;&gt;94449992168656</title>
<path fill="none" stroke="#ffffff" stroke-width="3" d="M395.5,-204.0033C395.5,-221.104 395.5,-241.7892 395.5,-259.3049"/>
<polygon fill="#ffffff" stroke="#ffffff" stroke-width="3" points="392.0001,-259.7409 395.5,-269.7409 399.0001,-259.741 392.0001,-259.7409"/>
<text text-anchor="middle" x="527" y="-240.8" font-family="Times,serif" font-size="14.00" fill="#ffffff">200000 row(s)/2 chunk(s)/18.202MB</text>
</g>
</g>
</svg>
