<?xml version="1.0" encoding="UTF-8" standalone="no"?>
<!DOCTYPE svg PUBLIC "-//W3C//DTD SVG 1.1//EN"
 "http://www.w3.org/Graphics/SVG/1.1/DTD/svg11.dtd">
<!-- Generated by graphviz version 2.40.1 (20161225.0304)
 -->
<!-- Title: G Pages: 1 -->
<svg width="1929pt" height="1098pt"
 viewBox="0.00 0.00 1928.50 1098.00" xmlns="http://www.w3.org/2000/svg" xmlns:xlink="http://www.w3.org/1999/xlink">
<g id="graph0" class="graph" transform="scale(1 1) rotate(0) translate(4 1094)">
<title>G</title>
<polygon fill="#000000" stroke="transparent" points="-4,4 -4,-1094 1924.5,-1094 1924.5,4 -4,4"/>
<!-- 94450670320176 -->
<g id="node1" class="node">
<title>94450670320176</title>
<polygon fill="none" stroke="#ffffff" points="457.5,-1090 131.5,-1090 131.5,-1052 457.5,-1052 457.5,-1090"/>
<text text-anchor="middle" x="294.5" y="-1074.8" font-family="Times,serif" font-size="14.00" fill="#ffffff">Alias [n_name, SUM(l_extendedprice * (1 &#45; </text>
<text text-anchor="middle" x="294.5" y="-1059.8" font-family="Times,serif" font-size="14.00" fill="#ffffff">l_discount)) AS revenue] </text>
</g>
<!-- 94450670332448 -->
<g id="node2" class="node">
<title>94450670332448</title>
<polygon fill="none" stroke="#ffffff" points="470,-1001 119,-1001 119,-963 470,-963 470,-1001"/>
<text text-anchor="middle" x="294.5" y="-985.8" font-family="Times,serif" font-size="14.00" fill="#ffffff">[Sort] SUM(l_extendedprice * (1 &#45; l_discount)) </text>
<text text-anchor="middle" x="294.5" y="-970.8" font-family="Times,serif" font-size="14.00" fill="#ffffff">(Descending) </text>
</g>
<!-- 94450670332448&#45;&gt;94450670320176 -->
<g id="edge1" class="edge">
<title>94450670332448&#45;&gt;94450670320176</title>
<path fill="none" stroke="#ffffff" stroke-width="3" d="M294.5,-1001.3117C294.5,-1013.091 294.5,-1028.3813 294.5,-1041.6372"/>
<polygon fill="#ffffff" stroke="#ffffff" stroke-width="3" points="291.0001,-1041.726 294.5,-1051.726 298.0001,-1041.726 291.0001,-1041.726"/>
<text text-anchor="middle" x="404.5" y="-1022.8" font-family="Times,serif" font-size="14.00" fill="#ffffff"> 48009.7 row(s) | 100.0% estd.</text>
</g>
<!-- 94449704621840 -->
<g id="node3" class="node">
<title>94449704621840</title>
<polygon fill="none" stroke="#ffffff" points="465,-912 124,-912 124,-874 465,-874 465,-912"/>
<text text-anchor="middle" x="294.5" y="-896.8" font-family="Times,serif" font-size="14.00" fill="#ffffff">[Aggregate] GroupBy: [n_name] Aggregates: </text>
<text text-anchor="middle" x="294.5" y="-881.8" font-family="Times,serif" font-size="14.00" fill="#ffffff">[SUM(l_extendedprice * (1 &#45; l_discount))] </text>
</g>
<!-- 94449704621840&#45;&gt;94450670332448 -->
<g id="edge2" class="edge">
<title>94449704621840&#45;&gt;94450670332448</title>
<path fill="none" stroke="#ffffff" stroke-width="3" d="M294.5,-912.3117C294.5,-924.091 294.5,-939.3813 294.5,-952.6372"/>
<polygon fill="#ffffff" stroke="#ffffff" stroke-width="3" points="291.0001,-952.726 294.5,-962.726 298.0001,-952.726 291.0001,-952.726"/>
<text text-anchor="middle" x="404.5" y="-933.8" font-family="Times,serif" font-size="14.00" fill="#ffffff"> 48009.7 row(s) | 100.0% estd.</text>
</g>
<!-- 94450796815616 -->
<g id="node4" class="node">
<title>94450796815616</title>
<polygon fill="none" stroke="#ffffff" points="470.5,-823 118.5,-823 118.5,-785 470.5,-785 470.5,-823"/>
<text text-anchor="middle" x="294.5" y="-807.8" font-family="Times,serif" font-size="14.00" fill="#ffffff">[Projection] l_extendedprice * (1 &#45; l_discount), </text>
<text text-anchor="middle" x="294.5" y="-792.8" font-family="Times,serif" font-size="14.00" fill="#ffffff">n_name </text>
</g>
<!-- 94450796815616&#45;&gt;94449704621840 -->
<g id="edge3" class="edge">
<title>94450796815616&#45;&gt;94449704621840</title>
<path fill="none" stroke="#ffffff" stroke-width="3" d="M294.5,-823.3117C294.5,-835.091 294.5,-850.3813 294.5,-863.6372"/>
<polygon fill="#ffffff" stroke="#ffffff" stroke-width="3" points="291.0001,-863.726 294.5,-873.726 298.0001,-863.726 291.0001,-863.726"/>
<text text-anchor="middle" x="404.5" y="-844.8" font-family="Times,serif" font-size="14.00" fill="#ffffff"> 48009.7 row(s) | 100.0% estd.</text>
</g>
<!-- 94450415755216 -->
<g id="node5" class="node">
<title>94450415755216</title>
<polygon fill="none" stroke="#ffffff" points="441,-734 148,-734 148,-698 441,-698 441,-734"/>
<text text-anchor="middle" x="294.5" y="-712.3" font-family="Times,serif" font-size="14.00" fill="#ffffff">[Predicate] c_nationkey = s_nationkey</text>
</g>
<!-- 94450415755216&#45;&gt;94450796815616 -->
<g id="edge4" class="edge">
<title>94450415755216&#45;&gt;94450796815616</title>
<path fill="none" stroke="#ffffff" stroke-width="3" d="M294.5,-734.2337C294.5,-745.9125 294.5,-761.3308 294.5,-774.7022"/>
<polygon fill="#ffffff" stroke="#ffffff" stroke-width="3" points="291.0001,-774.8765 294.5,-784.8765 298.0001,-774.8765 291.0001,-774.8765"/>
<text text-anchor="middle" x="395.5" y="-755.8" font-family="Times,serif" font-size="14.00" fill="#ffffff"> 48009.7 row(s) | 4.0% estd.</text>
</g>
<!-- 94449696771536 -->
<g id="node6" class="node">
<title>94449696771536</title>
<polygon fill="none" stroke="#ffffff" points="453,-647 136,-647 136,-611 453,-611 453,-647"/>
<text text-anchor="middle" x="294.5" y="-625.3" font-family="Times,serif" font-size="14.00" fill="#ffffff">[Join] Mode: Inner c_custkey = o_custkey</text>
</g>
<!-- 94449696771536&#45;&gt;94450415755216 -->
<g id="edge5" class="edge">
<title>94449696771536&#45;&gt;94450415755216</title>
<path fill="none" stroke="#ffffff" stroke-width="4" d="M294.5,-647.0265C294.5,-658.8082 294.5,-674.4393 294.5,-687.8419"/>
<polygon fill="#ffffff" stroke="#ffffff" stroke-width="4" points="291.0001,-687.9966 294.5,-697.9966 298.0001,-687.9967 291.0001,-687.9966"/>
<text text-anchor="middle" x="404.5" y="-668.8" font-family="Times,serif" font-size="14.00" fill="#ffffff"> 1200243.0 row(s) | 0.0% estd.</text>
</g>
<!-- 94449707252720 -->
<g id="node7" class="node">
<title>94449707252720</title>
<polygon fill="none" stroke="#ffffff" points="271,-560 0,-560 0,-524 271,-524 271,-560"/>
<text text-anchor="middle" x="135.5" y="-538.3" font-family="Times,serif" font-size="14.00" fill="#ffffff">[Projection] c_custkey, c_nationkey</text>
</g>
<!-- 94449707252720&#45;&gt;94449696771536 -->
<g id="edge6" class="edge">
<title>94449707252720&#45;&gt;94449696771536</title>
<path fill="none" stroke="#ffffff" stroke-width="3" d="M149.9088,-560.1888C159.32,-571.0226 172.4399,-584.3104 186.5,-593 195.2911,-598.4332 204.9967,-603.1488 214.8764,-607.2133"/>
<polygon fill="#ffffff" stroke="#ffffff" stroke-width="3" points="213.7895,-610.5459 224.3779,-610.9128 216.3293,-604.0229 213.7895,-610.5459"/>
<text text-anchor="middle" x="301" y="-581.8" font-family="Times,serif" font-size="14.00" fill="#ffffff"> 150000.0 row(s) | 100.0% estd.</text>
</g>
<!-- 94449696319024 -->
<g id="node8" class="node">
<title>94449696319024</title>
<polygon fill="none" stroke="#ffffff" points="257,-473 12,-473 12,-437 257,-437 257,-473"/>
<text text-anchor="middle" x="134.5" y="-451.3" font-family="Times,serif" font-size="14.00" fill="#ffffff">[StoredTable] Name: &#39;customer&#39;</text>
</g>
<!-- 94449696319024&#45;&gt;94449707252720 -->
<g id="edge7" class="edge">
<title>94449696319024&#45;&gt;94449707252720</title>
<path fill="none" stroke="#ffffff" stroke-width="3" d="M134.7072,-473.0265C134.8426,-484.8082 135.0223,-500.4393 135.1763,-513.8419"/>
<polygon fill="#ffffff" stroke="#ffffff" stroke-width="3" points="131.6783,-514.0376 135.2931,-523.9966 138.6778,-513.957 131.6783,-514.0376"/>
<text text-anchor="middle" x="250" y="-494.8" font-family="Times,serif" font-size="14.00" fill="#ffffff"> 150000.0 row(s) | 100.0% estd.</text>
</g>
<!-- 94450324845584 -->
<g id="node9" class="node">
<title>94450324845584</title>
<polygon fill="none" stroke="#ffffff" points="619,-560 290,-560 290,-524 619,-524 619,-560"/>
<text text-anchor="middle" x="454.5" y="-538.3" font-family="Times,serif" font-size="14.00" fill="#ffffff">[Join] Mode: Inner l_orderkey = o_orderkey</text>
</g>
<!-- 94450324845584&#45;&gt;94449696771536 -->
<g id="edge8" class="edge">
<title>94450324845584&#45;&gt;94449696771536</title>
<path fill="none" stroke="#ffffff" stroke-width="4" d="M444.44,-560.4272C437.6039,-571.3507 427.6136,-584.6491 415.5,-593 407.5984,-598.4472 398.8597,-603.0842 389.8015,-607.0288"/>
<polygon fill="#ffffff" stroke="#ffffff" stroke-width="4" points="388.2202,-603.8931 380.2678,-610.8938 390.8502,-610.3803 388.2202,-603.8931"/>
<text text-anchor="middle" x="541.5" y="-581.8" font-family="Times,serif" font-size="14.00" fill="#ffffff"> 1200243.0 row(s) | 0.0% estd.</text>
</g>
<!-- 94449698213056 -->
<g id="node10" class="node">
<title>94449698213056</title>
<polygon fill="none" stroke="#ffffff" points="634,-473 275,-473 275,-437 634,-437 634,-473"/>
<text text-anchor="middle" x="454.5" y="-451.3" font-family="Times,serif" font-size="14.00" fill="#ffffff">[Projection] o_orderkey, o_custkey, o_orderdate</text>
</g>
<!-- 94449698213056&#45;&gt;94450324845584 -->
<g id="edge9" class="edge">
<title>94449698213056&#45;&gt;94450324845584</title>
<path fill="none" stroke="#ffffff" stroke-width="4" d="M454.5,-473.0265C454.5,-484.8082 454.5,-500.4393 454.5,-513.8419"/>
<polygon fill="#ffffff" stroke="#ffffff" stroke-width="4" points="451.0001,-513.9966 454.5,-523.9966 458.0001,-513.9967 451.0001,-513.9966"/>
<text text-anchor="middle" x="573.5" y="-494.8" font-family="Times,serif" font-size="14.00" fill="#ffffff"> 1500000.0 row(s) | 100.0% estd.</text>
</g>
<!-- 94449978640304 -->
<g id="node11" class="node">
<title>94449978640304</title>
<polygon fill="none" stroke="#ffffff" points="658,-386 251,-386 251,-348 658,-348 658,-386"/>
<text text-anchor="middle" x="454.5" y="-370.8" font-family="Times,serif" font-size="14.00" fill="#ffffff">[Predicate] o_orderdate BETWEEN &#39;1994&#45;01&#45;01&#39; AND </text>
<text text-anchor="middle" x="454.5" y="-355.8" font-family="Times,serif" font-size="14.00" fill="#ffffff">&#39;1995&#45;01&#45;00&#39; </text>
</g>
<!-- 94449978640304&#45;&gt;94449698213056 -->
<g id="edge10" class="edge">
<title>94449978640304&#45;&gt;94449698213056</title>
<path fill="none" stroke="#ffffff" stroke-width="4" d="M454.5,-386.0947C454.5,-397.981 454.5,-413.483 454.5,-426.7725"/>
<polygon fill="#ffffff" stroke="#ffffff" stroke-width="4" points="451.0001,-426.8447 454.5,-436.8447 458.0001,-426.8448 451.0001,-426.8447"/>
<text text-anchor="middle" x="573.5" y="-407.8" font-family="Times,serif" font-size="14.00" fill="#ffffff"> 1500000.0 row(s) | 100.0% estd.</text>
</g>
<!-- 94449705020880 -->
<g id="node12" class="node">
<title>94449705020880</title>
<polygon fill="none" stroke="#ffffff" points="566.5,-297 342.5,-297 342.5,-261 566.5,-261 566.5,-297"/>
<text text-anchor="middle" x="454.5" y="-275.3" font-family="Times,serif" font-size="14.00" fill="#ffffff">[StoredTable] Name: &#39;orders&#39;</text>
</g>
<!-- 94449705020880&#45;&gt;94449978640304 -->
<g id="edge11" class="edge">
<title>94449705020880&#45;&gt;94449978640304</title>
<path fill="none" stroke="#ffffff" stroke-width="4" d="M454.5,-297.2337C454.5,-308.9125 454.5,-324.3308 454.5,-337.7022"/>
<polygon fill="#ffffff" stroke="#ffffff" stroke-width="4" points="451.0001,-337.8765 454.5,-347.8765 458.0001,-337.8765 451.0001,-337.8765"/>
<text text-anchor="middle" x="573.5" y="-318.8" font-family="Times,serif" font-size="14.00" fill="#ffffff"> 1500000.0 row(s) | 100.0% estd.</text>
</g>
<!-- 94449936559712 -->
<g id="node13" class="node">
<title>94449936559712</title>
<polygon fill="none" stroke="#ffffff" points="972.5,-473 652.5,-473 652.5,-437 972.5,-437 972.5,-473"/>
<text text-anchor="middle" x="812.5" y="-451.3" font-family="Times,serif" font-size="14.00" fill="#ffffff">[Join] Mode: Inner l_suppkey = s_suppkey</text>
</g>
<!-- 94449936559712&#45;&gt;94450324845584 -->
<g id="edge12" class="edge">
<title>94449936559712&#45;&gt;94450324845584</title>
<path fill="none" stroke="#ffffff" stroke-width="4" d="M778.1254,-473.0153C755.5055,-484.1347 724.929,-497.7959 696.5,-506 674.2708,-512.4149 650.5456,-517.7298 626.9671,-522.1223"/>
<polygon fill="#ffffff" stroke="#ffffff" stroke-width="4" points="626.0926,-518.7236 616.8759,-523.9488 627.3394,-525.6117 626.0926,-518.7236"/>
<text text-anchor="middle" x="846.5" y="-494.8" font-family="Times,serif" font-size="14.00" fill="#ffffff"> 1200243.0 row(s) | 0.0% estd.</text>
</g>
<!-- 94450421131008 -->
<g id="node14" class="node">
<title>94450421131008</title>
<polygon fill="none" stroke="#ffffff" points="946,-386 677,-386 677,-348 946,-348 946,-386"/>
<text text-anchor="middle" x="811.5" y="-370.8" font-family="Times,serif" font-size="14.00" fill="#ffffff">[Projection] l_orderkey, l_suppkey, </text>
<text text-anchor="middle" x="811.5" y="-355.8" font-family="Times,serif" font-size="14.00" fill="#ffffff">l_extendedprice, l_discount </text>
</g>
<!-- 94450421131008&#45;&gt;94449936559712 -->
<g id="edge13" class="edge">
<title>94450421131008&#45;&gt;94449936559712</title>
<path fill="none" stroke="#ffffff" stroke-width="4" d="M811.717,-386.0947C811.8521,-397.981 812.0282,-413.483 812.1792,-426.7725"/>
<polygon fill="#ffffff" stroke="#ffffff" stroke-width="4" points="808.6802,-426.8852 812.2937,-436.8447 815.6797,-426.8056 808.6802,-426.8852"/>
<text text-anchor="middle" x="931.5" y="-407.8" font-family="Times,serif" font-size="14.00" fill="#ffffff"> 6001215.0 row(s) | 100.0% estd.</text>
</g>
<!-- 94449695928272 -->
<g id="node15" class="node">
<title>94449695928272</title>
<polygon fill="none" stroke="#ffffff" points="929.5,-297 693.5,-297 693.5,-261 929.5,-261 929.5,-297"/>
<text text-anchor="middle" x="811.5" y="-275.3" font-family="Times,serif" font-size="14.00" fill="#ffffff">[StoredTable] Name: &#39;lineitem&#39;</text>
</g>
<!-- 94449695928272&#45;&gt;94450421131008 -->
<g id="edge14" class="edge">
<title>94449695928272&#45;&gt;94450421131008</title>
<path fill="none" stroke="#ffffff" stroke-width="4" d="M811.5,-297.2337C811.5,-308.9125 811.5,-324.3308 811.5,-337.7022"/>
<polygon fill="#ffffff" stroke="#ffffff" stroke-width="4" points="808.0001,-337.8765 811.5,-347.8765 815.0001,-337.8765 808.0001,-337.8765"/>
<text text-anchor="middle" x="930.5" y="-318.8" font-family="Times,serif" font-size="14.00" fill="#ffffff"> 6001215.0 row(s) | 100.0% estd.</text>
</g>
<!-- 94450452093680 -->
<g id="node16" class="node">
<title>94450452093680</title>
<polygon fill="none" stroke="#ffffff" points="1309,-385 964,-385 964,-349 1309,-349 1309,-385"/>
<text text-anchor="middle" x="1136.5" y="-363.3" font-family="Times,serif" font-size="14.00" fill="#ffffff">[Join] Mode: Inner s_nationkey = n_nationkey</text>
</g>
<!-- 94450452093680&#45;&gt;94449936559712 -->
<g id="edge15" class="edge">
<title>94450452093680&#45;&gt;94449936559712</title>
<path fill="none" stroke="#ffffff" stroke-width="2" d="M1113.847,-385.0388C1098.1055,-396.6162 1076.1431,-410.942 1054.5,-419 1038.8976,-424.809 1010.159,-430.436 977.7922,-435.4478"/>
<polygon fill="#ffffff" stroke="#ffffff" stroke-width="2" points="977.0055,-432.0269 967.6413,-436.9829 978.0523,-438.9482 977.0055,-432.0269"/>
<text text-anchor="middle" x="1180" y="-407.8" font-family="Times,serif" font-size="14.00" fill="#ffffff"> 2000.0 row(s) | 4.0% estd.</text>
</g>
<!-- 94450589978832 -->
<g id="node17" class="node">
<title>94450589978832</title>
<polygon fill="none" stroke="#ffffff" points="1234,-297 961,-297 961,-261 1234,-261 1234,-297"/>
<text text-anchor="middle" x="1097.5" y="-275.3" font-family="Times,serif" font-size="14.00" fill="#ffffff">[Projection] s_suppkey, s_nationkey</text>
</g>
<!-- 94450589978832&#45;&gt;94450452093680 -->
<g id="edge16" class="edge">
<title>94450589978832&#45;&gt;94450452093680</title>
<path fill="none" stroke="#ffffff" stroke-width="2" d="M1105.5808,-297.2337C1110.9669,-309.3868 1118.1475,-325.5893 1124.2331,-339.3209"/>
<polygon fill="#ffffff" stroke="#ffffff" stroke-width="2" points="1121.1779,-341.0654 1128.4295,-348.7897 1127.5776,-338.2292 1121.1779,-341.0654"/>
<text text-anchor="middle" x="1229.5" y="-318.8" font-family="Times,serif" font-size="14.00" fill="#ffffff"> 10000.0 row(s) | 100.0% estd.</text>
</g>
<!-- 94449699961568 -->
<g id="node18" class="node">
<title>94449699961568</title>
<polygon fill="none" stroke="#ffffff" points="1215.5,-210 979.5,-210 979.5,-174 1215.5,-174 1215.5,-210"/>
<text text-anchor="middle" x="1097.5" y="-188.3" font-family="Times,serif" font-size="14.00" fill="#ffffff">[StoredTable] Name: &#39;supplier&#39;</text>
</g>
<!-- 94449699961568&#45;&gt;94450589978832 -->
<g id="edge17" class="edge">
<title>94449699961568&#45;&gt;94450589978832</title>
<path fill="none" stroke="#ffffff" stroke-width="2" d="M1097.5,-210.0265C1097.5,-221.8082 1097.5,-237.4393 1097.5,-250.8419"/>
<polygon fill="#ffffff" stroke="#ffffff" stroke-width="2" points="1094.0001,-250.9966 1097.5,-260.9966 1101.0001,-250.9967 1094.0001,-250.9966"/>
<text text-anchor="middle" x="1207.5" y="-231.8" font-family="Times,serif" font-size="14.00" fill="#ffffff"> 10000.0 row(s) | 100.0% estd.</text>
</g>
<!-- 94450670336400 -->
<g id="node19" class="node">
<title>94450670336400</title>
<polygon fill="none" stroke="#ffffff" points="1598.5,-297 1252.5,-297 1252.5,-261 1598.5,-261 1598.5,-297"/>
<text text-anchor="middle" x="1425.5" y="-275.3" font-family="Times,serif" font-size="14.00" fill="#ffffff">[Join] Mode: Inner n_regionkey = r_regionkey</text>
</g>
<!-- 94450670336400&#45;&gt;94450452093680 -->
<g id="edge18" class="edge">
<title>94450670336400&#45;&gt;94450452093680</title>
<path fill="none" stroke="#ffffff" d="M1401.6696,-297.2214C1385.9558,-308.3509 1364.4719,-321.9467 1343.5,-330 1326.0869,-336.6867 1307.3789,-342.1781 1288.5865,-346.685"/>
<polygon fill="#ffffff" stroke="#ffffff" points="1287.7149,-343.2941 1278.7581,-348.9532 1289.289,-350.1148 1287.7149,-343.2941"/>
<text text-anchor="middle" x="1460" y="-318.8" font-family="Times,serif" font-size="14.00" fill="#ffffff"> 5.0 row(s) | 20.0% estd.</text>
</g>
<!-- 94450025927024 -->
<g id="node20" class="node">
<title>94450025927024</title>
<polygon fill="none" stroke="#ffffff" points="1593.5,-210 1241.5,-210 1241.5,-174 1593.5,-174 1593.5,-210"/>
<text text-anchor="middle" x="1417.5" y="-188.3" font-family="Times,serif" font-size="14.00" fill="#ffffff">[Projection] n_nationkey, n_name, n_regionkey</text>
</g>
<!-- 94450025927024&#45;&gt;94450670336400 -->
<g id="edge19" class="edge">
<title>94450025927024&#45;&gt;94450670336400</title>
<path fill="none" stroke="#ffffff" d="M1419.1576,-210.0265C1420.241,-221.8082 1421.6783,-237.4393 1422.9108,-250.8419"/>
<polygon fill="#ffffff" stroke="#ffffff" points="1419.4435,-251.3592 1423.8445,-260.9966 1426.414,-250.7181 1419.4435,-251.3592"/>
<text text-anchor="middle" x="1519" y="-231.8" font-family="Times,serif" font-size="14.00" fill="#ffffff"> 25.0 row(s) | 100.0% estd.</text>
</g>
<!-- 94449699952480 -->
<g id="node21" class="node">
<title>94449699952480</title>
<polygon fill="none" stroke="#ffffff" points="1529,-123 1306,-123 1306,-87 1529,-87 1529,-123"/>
<text text-anchor="middle" x="1417.5" y="-101.3" font-family="Times,serif" font-size="14.00" fill="#ffffff">[StoredTable] Name: &#39;nation&#39;</text>
</g>
<!-- 94449699952480&#45;&gt;94450025927024 -->
<g id="edge20" class="edge">
<title>94449699952480&#45;&gt;94450025927024</title>
<path fill="none" stroke="#ffffff" d="M1417.5,-123.0265C1417.5,-134.8082 1417.5,-150.4393 1417.5,-163.8419"/>
<polygon fill="#ffffff" stroke="#ffffff" points="1414.0001,-163.9966 1417.5,-173.9966 1421.0001,-163.9967 1414.0001,-163.9966"/>
<text text-anchor="middle" x="1514" y="-144.8" font-family="Times,serif" font-size="14.00" fill="#ffffff"> 25.0 row(s) | 100.0% estd.</text>
</g>
<!-- 94450796817552 -->
<g id="node22" class="node">
<title>94450796817552</title>
<polygon fill="none" stroke="#ffffff" points="1862,-210 1611,-210 1611,-174 1862,-174 1862,-210"/>
<text text-anchor="middle" x="1736.5" y="-188.3" font-family="Times,serif" font-size="14.00" fill="#ffffff">[Projection] r_regionkey, r_name</text>
</g>
<!-- 94450796817552&#45;&gt;94450670336400 -->
<g id="edge21" class="edge">
<title>94450796817552&#45;&gt;94450670336400</title>
<path fill="none" stroke="#ffffff" d="M1700.9407,-210.0283C1678.1571,-220.9393 1647.678,-234.3677 1619.5,-243 1599.354,-249.1717 1577.6895,-254.456 1556.3991,-258.9229"/>
<polygon fill="#ffffff" stroke="#ffffff" points="1555.4155,-255.5515 1546.3195,-260.9839 1556.8179,-262.4096 1555.4155,-255.5515"/>
<text text-anchor="middle" x="1751.5" y="-231.8" font-family="Times,serif" font-size="14.00" fill="#ffffff"> 1.0 row(s) | 100.0% estd.</text>
</g>
<!-- 94450639122928 -->
<g id="node23" class="node">
<title>94450639122928</title>
<polygon fill="none" stroke="#ffffff" points="1864.5,-123 1608.5,-123 1608.5,-87 1864.5,-87 1864.5,-123"/>
<text text-anchor="middle" x="1736.5" y="-101.3" font-family="Times,serif" font-size="14.00" fill="#ffffff">[Predicate] r_name = &#39;AMERICA&#39;</text>
</g>
<!-- 94450639122928&#45;&gt;94450796817552 -->
<g id="edge22" class="edge">
<title>94450639122928&#45;&gt;94450796817552</title>
<path fill="none" stroke="#ffffff" d="M1736.5,-123.0265C1736.5,-134.8082 1736.5,-150.4393 1736.5,-163.8419"/>
<polygon fill="#ffffff" stroke="#ffffff" points="1733.0001,-163.9966 1736.5,-173.9966 1740.0001,-163.9967 1733.0001,-163.9966"/>
<text text-anchor="middle" x="1824" y="-144.8" font-family="Times,serif" font-size="14.00" fill="#ffffff"> 1.0 row(s) | 20.0% estd.</text>
</g>
<!-- 94449700472256 -->
<g id="node24" class="node">
<title>94449700472256</title>
<polygon fill="none" stroke="#ffffff" points="1848.5,-36 1624.5,-36 1624.5,0 1848.5,0 1848.5,-36"/>
<text text-anchor="middle" x="1736.5" y="-14.3" font-family="Times,serif" font-size="14.00" fill="#ffffff">[StoredTable] Name: &#39;region&#39;</text>
</g>
<!-- 94449700472256&#45;&gt;94450639122928 -->
<g id="edge23" class="edge">
<title>94449700472256&#45;&gt;94450639122928</title>
<path fill="none" stroke="#ffffff" d="M1736.5,-36.0265C1736.5,-47.8082 1736.5,-63.4393 1736.5,-76.8419"/>
<polygon fill="#ffffff" stroke="#ffffff" points="1733.0001,-76.9966 1736.5,-86.9966 1740.0001,-76.9967 1733.0001,-76.9966"/>
<text text-anchor="middle" x="1828.5" y="-57.8" font-family="Times,serif" font-size="14.00" fill="#ffffff"> 5.0 row(s) | 100.0% estd.</text>
</g>
</g>
</svg>
