<?xml version="1.0" encoding="UTF-8" standalone="no"?>
<!DOCTYPE svg PUBLIC "-//W3C//DTD SVG 1.1//EN"
 "http://www.w3.org/Graphics/SVG/1.1/DTD/svg11.dtd">
<!-- Generated by graphviz version 2.40.1 (20161225.0304)
 -->
<!-- Title: G Pages: 1 -->
<svg width="676pt" height="855pt"
 viewBox="0.00 0.00 676.00 855.00" xmlns="http://www.w3.org/2000/svg" xmlns:xlink="http://www.w3.org/1999/xlink">
<g id="graph0" class="graph" transform="scale(1 1) rotate(0) translate(4 851)">
<title>G</title>
<polygon fill="#000000" stroke="transparent" points="-4,4 -4,-851 672,-851 672,4 -4,4"/>
<!-- 94573903111072 -->
<g id="node1" class="node">
<title>94573903111072</title>
<polygon fill="none" stroke="#ffffff" points="510.5,-847 79.5,-847 79.5,-779 510.5,-779 510.5,-847"/>
<text text-anchor="middle" x="295" y="-831.8" font-family="Times,serif" font-size="14.00" fill="#ffffff">Alias [(100 * SUM(CASE WHEN p_type LIKE &#39;PROMO%&#39; </text>
<text text-anchor="middle" x="295" y="-816.8" font-family="Times,serif" font-size="14.00" fill="#ffffff">THEN l_extendedprice * (1 &#45; l_discount) ELSE 0 </text>
<text text-anchor="middle" x="295" y="-801.8" font-family="Times,serif" font-size="14.00" fill="#ffffff">END)) / SUM(l_extendedprice * (1 &#45; l_discount)) </text>
<text text-anchor="middle" x="295" y="-786.8" font-family="Times,serif" font-size="14.00" fill="#ffffff">AS promo_revenue] </text>
</g>
<!-- 94573903111232 -->
<g id="node2" class="node">
<title>94573903111232</title>
<polygon fill="none" stroke="#ffffff" points="491.5,-728 98.5,-728 98.5,-660 491.5,-660 491.5,-728"/>
<text text-anchor="middle" x="295" y="-712.8" font-family="Times,serif" font-size="14.00" fill="#ffffff">[Projection] (100 * SUM(CASE WHEN p_type LIKE </text>
<text text-anchor="middle" x="295" y="-697.8" font-family="Times,serif" font-size="14.00" fill="#ffffff">&#39;PROMO%&#39; THEN l_extendedprice * (1 &#45; l_discount) </text>
<text text-anchor="middle" x="295" y="-682.8" font-family="Times,serif" font-size="14.00" fill="#ffffff">ELSE 0 END)) / SUM(l_extendedprice * (1 &#45; </text>
<text text-anchor="middle" x="295" y="-667.8" font-family="Times,serif" font-size="14.00" fill="#ffffff">l_discount)) </text>
</g>
<!-- 94573903111232&#45;&gt;94573903111072 -->
<g id="edge1" class="edge">
<title>94573903111232&#45;&gt;94573903111072</title>
<path fill="none" stroke="#ffffff" stroke-width="4" d="M295,-728.1006C295,-740.7979 295,-755.3949 295,-768.8643"/>
<polygon fill="#ffffff" stroke="#ffffff" stroke-width="4" points="291.5001,-768.8944 295,-778.8944 298.5001,-768.8944 291.5001,-768.8944"/>
<text text-anchor="middle" x="414" y="-749.8" font-family="Times,serif" font-size="14.00" fill="#ffffff"> 6001214.5 row(s) | 100.0% estd.</text>
</g>
<!-- 94574844202048 -->
<g id="node3" class="node">
<title>94574844202048</title>
<polygon fill="none" stroke="#ffffff" points="489,-609 101,-609 101,-541 489,-541 489,-609"/>
<text text-anchor="middle" x="295" y="-593.8" font-family="Times,serif" font-size="14.00" fill="#ffffff">[Aggregate] GroupBy: [] Aggregates: </text>
<text text-anchor="middle" x="295" y="-578.8" font-family="Times,serif" font-size="14.00" fill="#ffffff">[SUM(l_extendedprice * (1 &#45; l_discount)), </text>
<text text-anchor="middle" x="295" y="-563.8" font-family="Times,serif" font-size="14.00" fill="#ffffff">SUM(CASE WHEN p_type LIKE &#39;PROMO%&#39; THEN </text>
<text text-anchor="middle" x="295" y="-548.8" font-family="Times,serif" font-size="14.00" fill="#ffffff">l_extendedprice * (1 &#45; l_discount) ELSE 0 END)] </text>
</g>
<!-- 94574844202048&#45;&gt;94573903111232 -->
<g id="edge2" class="edge">
<title>94574844202048&#45;&gt;94573903111232</title>
<path fill="none" stroke="#ffffff" stroke-width="4" d="M295,-609.1006C295,-621.7979 295,-636.3949 295,-649.8643"/>
<polygon fill="#ffffff" stroke="#ffffff" stroke-width="4" points="291.5001,-649.8944 295,-659.8944 298.5001,-649.8944 291.5001,-649.8944"/>
<text text-anchor="middle" x="414" y="-630.8" font-family="Times,serif" font-size="14.00" fill="#ffffff"> 6001214.5 row(s) | 100.0% estd.</text>
</g>
<!-- 94574931449184 -->
<g id="node4" class="node">
<title>94574931449184</title>
<polygon fill="none" stroke="#ffffff" points="473,-490 117,-490 117,-437 473,-437 473,-490"/>
<text text-anchor="middle" x="295" y="-474.8" font-family="Times,serif" font-size="14.00" fill="#ffffff">[Projection] l_extendedprice * (1 &#45; l_discount), </text>
<text text-anchor="middle" x="295" y="-459.8" font-family="Times,serif" font-size="14.00" fill="#ffffff">CASE WHEN p_type LIKE &#39;PROMO%&#39; THEN </text>
<text text-anchor="middle" x="295" y="-444.8" font-family="Times,serif" font-size="14.00" fill="#ffffff">l_extendedprice * (1 &#45; l_discount) ELSE 0 END </text>
</g>
<!-- 94574931449184&#45;&gt;94574844202048 -->
<g id="edge3" class="edge">
<title>94574931449184&#45;&gt;94574844202048</title>
<path fill="none" stroke="#ffffff" stroke-width="4" d="M295,-490.207C295,-502.3232 295,-516.9786 295,-530.6731"/>
<polygon fill="#ffffff" stroke="#ffffff" stroke-width="4" points="291.5001,-530.9001 295,-540.9001 298.5001,-530.9002 291.5001,-530.9001"/>
<text text-anchor="middle" x="414" y="-511.8" font-family="Times,serif" font-size="14.00" fill="#ffffff"> 6001214.5 row(s) | 100.0% estd.</text>
</g>
<!-- 94574895177424 -->
<g id="node5" class="node">
<title>94574895177424</title>
<polygon fill="none" stroke="#ffffff" points="451,-386 139,-386 139,-350 451,-350 451,-386"/>
<text text-anchor="middle" x="295" y="-364.3" font-family="Times,serif" font-size="14.00" fill="#ffffff">[Join] Mode: Inner l_partkey = p_partkey</text>
</g>
<!-- 94574895177424&#45;&gt;94574931449184 -->
<g id="edge4" class="edge">
<title>94574895177424&#45;&gt;94574931449184</title>
<path fill="none" stroke="#ffffff" stroke-width="4" d="M295,-386.4134C295,-397.816 295,-412.8627 295,-426.6338"/>
<polygon fill="#ffffff" stroke="#ffffff" stroke-width="4" points="291.5001,-426.8344 295,-436.8345 298.5001,-426.8345 291.5001,-426.8344"/>
<text text-anchor="middle" x="405" y="-407.8" font-family="Times,serif" font-size="14.00" fill="#ffffff"> 6001214.5 row(s) | 0.0% estd.</text>
</g>
<!-- 94574718138688 -->
<g id="node6" class="node">
<title>94574718138688</title>
<polygon fill="none" stroke="#ffffff" points="304,-299 0,-299 0,-261 304,-261 304,-299"/>
<text text-anchor="middle" x="152" y="-283.8" font-family="Times,serif" font-size="14.00" fill="#ffffff">[Projection] l_partkey, l_extendedprice, </text>
<text text-anchor="middle" x="152" y="-268.8" font-family="Times,serif" font-size="14.00" fill="#ffffff">l_discount, l_shipdate </text>
</g>
<!-- 94574718138688&#45;&gt;94574895177424 -->
<g id="edge5" class="edge">
<title>94574718138688&#45;&gt;94574895177424</title>
<path fill="none" stroke="#ffffff" stroke-width="4" d="M155.0431,-299.2007C157.7369,-310.2063 162.7498,-323.4826 172,-332 177.74,-337.2853 189.5673,-342.3767 203.7155,-346.9838"/>
<polygon fill="#ffffff" stroke="#ffffff" stroke-width="4" points="202.7201,-350.3394 213.3073,-349.9385 204.7809,-343.6496 202.7201,-350.3394"/>
<text text-anchor="middle" x="291" y="-320.8" font-family="Times,serif" font-size="14.00" fill="#ffffff"> 6001215.0 row(s) | 100.0% estd.</text>
</g>
<!-- 94573706189360 -->
<g id="node7" class="node">
<title>94573706189360</title>
<polygon fill="none" stroke="#ffffff" points="294,-210 10,-210 10,-174 294,-174 294,-210"/>
<text text-anchor="middle" x="152" y="-188.3" font-family="Times,serif" font-size="14.00" fill="#ffffff">[Predicate] l_shipdate &lt; &#39;1995&#45;10&#45;01&#39;</text>
</g>
<!-- 94573706189360&#45;&gt;94574718138688 -->
<g id="edge6" class="edge">
<title>94573706189360&#45;&gt;94574718138688</title>
<path fill="none" stroke="#ffffff" stroke-width="4" d="M152,-210.2337C152,-221.9125 152,-237.3308 152,-250.7022"/>
<polygon fill="#ffffff" stroke="#ffffff" stroke-width="4" points="148.5001,-250.8765 152,-260.8765 155.5001,-250.8765 148.5001,-250.8765"/>
<text text-anchor="middle" x="271" y="-231.8" font-family="Times,serif" font-size="14.00" fill="#ffffff"> 6001215.0 row(s) | 100.0% estd.</text>
</g>
<!-- 94574718138544 -->
<g id="node8" class="node">
<title>94574718138544</title>
<polygon fill="none" stroke="#ffffff" points="300,-123 4,-123 4,-87 300,-87 300,-123"/>
<text text-anchor="middle" x="152" y="-101.3" font-family="Times,serif" font-size="14.00" fill="#ffffff">[Predicate] l_shipdate &gt;= &#39;1995&#45;09&#45;01&#39;</text>
</g>
<!-- 94574718138544&#45;&gt;94573706189360 -->
<g id="edge7" class="edge">
<title>94574718138544&#45;&gt;94573706189360</title>
<path fill="none" stroke="#ffffff" stroke-width="4" d="M152,-123.0265C152,-134.8082 152,-150.4393 152,-163.8419"/>
<polygon fill="#ffffff" stroke="#ffffff" stroke-width="4" points="148.5001,-163.9966 152,-173.9966 155.5001,-163.9967 148.5001,-163.9966"/>
<text text-anchor="middle" x="271" y="-144.8" font-family="Times,serif" font-size="14.00" fill="#ffffff"> 6001215.0 row(s) | 100.0% estd.</text>
</g>
<!-- 94574891835504 -->
<g id="node9" class="node">
<title>94574891835504</title>
<polygon fill="none" stroke="#ffffff" points="270,-36 34,-36 34,0 270,0 270,-36"/>
<text text-anchor="middle" x="152" y="-14.3" font-family="Times,serif" font-size="14.00" fill="#ffffff">[StoredTable] Name: &#39;lineitem&#39;</text>
</g>
<!-- 94574891835504&#45;&gt;94574718138544 -->
<g id="edge8" class="edge">
<title>94574891835504&#45;&gt;94574718138544</title>
<path fill="none" stroke="#ffffff" stroke-width="4" d="M152,-36.0265C152,-47.8082 152,-63.4393 152,-76.8419"/>
<polygon fill="#ffffff" stroke="#ffffff" stroke-width="4" points="148.5001,-76.9966 152,-86.9966 155.5001,-76.9967 148.5001,-76.9966"/>
<text text-anchor="middle" x="271" y="-57.8" font-family="Times,serif" font-size="14.00" fill="#ffffff"> 6001215.0 row(s) | 100.0% estd.</text>
</g>
<!-- 94573706189216 -->
<g id="node10" class="node">
<title>94573706189216</title>
<polygon fill="none" stroke="#ffffff" points="555.5,-298 322.5,-298 322.5,-262 555.5,-262 555.5,-298"/>
<text text-anchor="middle" x="439" y="-276.3" font-family="Times,serif" font-size="14.00" fill="#ffffff">[Projection] p_partkey, p_type</text>
</g>
<!-- 94573706189216&#45;&gt;94574895177424 -->
<g id="edge9" class="edge">
<title>94573706189216&#45;&gt;94574895177424</title>
<path fill="none" stroke="#ffffff" stroke-width="3" d="M432.8408,-298.2191C428.1885,-309.4234 420.7466,-323.2611 410,-332 403.4668,-337.3126 396.1452,-341.8446 388.4446,-345.7101"/>
<polygon fill="#ffffff" stroke="#ffffff" stroke-width="3" points="386.8699,-342.5819 379.2551,-349.9485 389.8017,-348.9384 386.8699,-342.5819"/>
<text text-anchor="middle" x="537.5" y="-320.8" font-family="Times,serif" font-size="14.00" fill="#ffffff"> 200000.0 row(s) | 100.0% estd.</text>
</g>
<!-- 94574640804976 -->
<g id="node11" class="node">
<title>94574640804976</title>
<polygon fill="none" stroke="#ffffff" points="543,-210 335,-210 335,-174 543,-174 543,-210"/>
<text text-anchor="middle" x="439" y="-188.3" font-family="Times,serif" font-size="14.00" fill="#ffffff">[StoredTable] Name: &#39;part&#39;</text>
</g>
<!-- 94574640804976&#45;&gt;94573706189216 -->
<g id="edge10" class="edge">
<title>94574640804976&#45;&gt;94573706189216</title>
<path fill="none" stroke="#ffffff" stroke-width="3" d="M439,-210.2337C439,-222.1508 439,-237.9616 439,-251.5183"/>
<polygon fill="#ffffff" stroke="#ffffff" stroke-width="3" points="435.5001,-251.7897 439,-261.7897 442.5001,-251.7897 435.5001,-251.7897"/>
<text text-anchor="middle" x="553.5" y="-231.8" font-family="Times,serif" font-size="14.00" fill="#ffffff"> 200000.0 row(s) | 100.0% estd.</text>
</g>
</g>
</svg>
