<?xml version="1.0" encoding="UTF-8" standalone="no"?>
<!DOCTYPE svg PUBLIC "-//W3C//DTD SVG 1.1//EN"
 "http://www.w3.org/Graphics/SVG/1.1/DTD/svg11.dtd">
<!-- Generated by graphviz version 2.40.1 (20161225.0304)
 -->
<!-- Title: G Pages: 1 -->
<svg width="776pt" height="1453pt"
 viewBox="0.00 0.00 775.50 1453.00" xmlns="http://www.w3.org/2000/svg" xmlns:xlink="http://www.w3.org/1999/xlink">
<g id="graph0" class="graph" transform="scale(1 1) rotate(0) translate(4 1449)">
<title>G</title>
<polygon fill="#000000" stroke="transparent" points="-4,4 -4,-1449 771.5,-1449 771.5,4 -4,4"/>
<!-- 94450577646640 -->
<g id="node1" class="node">
<title>94450577646640</title>
<polygon fill="none" stroke="#ffffff" points="461.5,-1445 371.5,-1445 371.5,-1391 461.5,-1391 461.5,-1445"/>
<text text-anchor="middle" x="416.5" y="-1429.8" font-family="Times,serif" font-size="14.00" fill="#ffffff">Projection</text>
<text text-anchor="middle" x="416.5" y="-1398.8" font-family="Times,serif" font-size="14.00" fill="#ffffff">3 µs 0 ns</text>
</g>
<!-- 94450577646480 -->
<g id="node2" class="node">
<title>94450577646480</title>
<polygon fill="none" stroke="#ffffff" stroke-width="2" points="466,-1340 367,-1340 367,-1286 466,-1286 466,-1340"/>
<text text-anchor="middle" x="416.5" y="-1324.8" font-family="Times,serif" font-size="14.00" fill="#ffffff">Sort</text>
<text text-anchor="middle" x="416.5" y="-1293.8" font-family="Times,serif" font-size="14.00" fill="#ffffff">744 µs 0 ns</text>
</g>
<!-- 94450577646480&#45;&gt;94450577646640 -->
<g id="edge1" class="edge">
<title>94450577646480&#45;&gt;94450577646640</title>
<path fill="none" stroke="#ffffff" stroke-width="2" d="M416.5,-1340.0401C416.5,-1352.3143 416.5,-1367.0382 416.5,-1380.3683"/>
<polygon fill="#ffffff" stroke="#ffffff" stroke-width="2" points="413.0001,-1380.6866 416.5,-1390.6866 420.0001,-1380.6866 413.0001,-1380.6866"/>
<text text-anchor="middle" x="532.5" y="-1361.8" font-family="Times,serif" font-size="14.00" fill="#ffffff">186 row(s)/1 chunk(s)/22.504KB</text>
</g>
<!-- 94450362787152 -->
<g id="node3" class="node">
<title>94450362787152</title>
<polygon fill="none" stroke="#ffffff" stroke-width="2" points="543,-1235 290,-1235 290,-1151 543,-1151 543,-1235"/>
<text text-anchor="middle" x="416.5" y="-1219.8" font-family="Times,serif" font-size="14.00" fill="#ffffff">JoinHash</text>
<text text-anchor="middle" x="416.5" y="-1204.8" font-family="Times,serif" font-size="14.00" fill="#ffffff">(Inner Join where s_nationkey = </text>
<text text-anchor="middle" x="416.5" y="-1189.8" font-family="Times,serif" font-size="14.00" fill="#ffffff">n_nationkey)</text>
<text text-anchor="middle" x="416.5" y="-1158.8" font-family="Times,serif" font-size="14.00" fill="#ffffff">140 µs 0 ns </text>
</g>
<!-- 94450362787152&#45;&gt;94450577646480 -->
<g id="edge2" class="edge">
<title>94450362787152&#45;&gt;94450577646480</title>
<path fill="none" stroke="#ffffff" stroke-width="2" d="M416.5,-1235.3075C416.5,-1248.3814 416.5,-1262.686 416.5,-1275.4178"/>
<polygon fill="#ffffff" stroke="#ffffff" stroke-width="2" points="413.0001,-1275.681 416.5,-1285.681 420.0001,-1275.6811 413.0001,-1275.681"/>
<text text-anchor="middle" x="528" y="-1256.8" font-family="Times,serif" font-size="14.00" fill="#ffffff">186 row(s)/1 chunk(s)/9.556KB</text>
</g>
<!-- 94450025011168 -->
<g id="node4" class="node">
<title>94450025011168</title>
<polygon fill="none" stroke="#ffffff" points="325.5,-1100 235.5,-1100 235.5,-1046 325.5,-1046 325.5,-1100"/>
<text text-anchor="middle" x="280.5" y="-1084.8" font-family="Times,serif" font-size="14.00" fill="#ffffff">Projection</text>
<text text-anchor="middle" x="280.5" y="-1053.8" font-family="Times,serif" font-size="14.00" fill="#ffffff">9 µs 0 ns</text>
</g>
<!-- 94450025011168&#45;&gt;94450362787152 -->
<g id="edge3" class="edge">
<title>94450025011168&#45;&gt;94450362787152</title>
<path fill="none" stroke="#ffffff" stroke-width="2" d="M274.9113,-1100.2633C274.1214,-1111.2471 275.233,-1123.5302 281.5,-1133 284.0368,-1136.8332 286.88,-1140.4238 289.9744,-1143.7869"/>
<polygon fill="#ffffff" stroke="#ffffff" stroke-width="2" points="287.5344,-1146.2963 297.1281,-1150.7919 292.4319,-1141.2948 287.5344,-1146.2963"/>
<text text-anchor="middle" x="406.5" y="-1121.8" font-family="Times,serif" font-size="14.00" fill="#ffffff">4397 row(s)/1 chunk(s)/141.203KB</text>
</g>
<!-- 94450422022992 -->
<g id="node5" class="node">
<title>94450422022992</title>
<polygon fill="none" stroke="#ffffff" stroke-width="4" points="435.5,-995 125.5,-995 125.5,-896 435.5,-896 435.5,-995"/>
<text text-anchor="middle" x="280.5" y="-979.8" font-family="Times,serif" font-size="14.00" fill="#ffffff">TableScan</text>
<text text-anchor="middle" x="280.5" y="-964.8" font-family="Times,serif" font-size="14.00" fill="#ffffff">Impl: ExpressionEvaluator</text>
<text text-anchor="middle" x="280.5" y="-949.8" font-family="Times,serif" font-size="14.00" fill="#ffffff">(s_suppkey) </text>
<text text-anchor="middle" x="280.5" y="-934.8" font-family="Times,serif" font-size="14.00" fill="#ffffff">IN SUBSELECT (PQP, 0x55e70cd48d20)</text>
<text text-anchor="middle" x="280.5" y="-903.8" font-family="Times,serif" font-size="14.00" fill="#ffffff">18 s 529 ms </text>
</g>
<!-- 94450422022992&#45;&gt;94450025011168 -->
<g id="edge4" class="edge">
<title>94450422022992&#45;&gt;94450025011168</title>
<path fill="none" stroke="#ffffff" stroke-width="2" d="M280.5,-995.1599C280.5,-1008.598 280.5,-1022.9153 280.5,-1035.5584"/>
<polygon fill="#ffffff" stroke="#ffffff" stroke-width="2" points="277.0001,-1035.7287 280.5,-1045.7287 284.0001,-1035.7288 277.0001,-1035.7287"/>
<text text-anchor="middle" x="405.5" y="-1016.8" font-family="Times,serif" font-size="14.00" fill="#ffffff">4397 row(s)/1 chunk(s)/246.924KB</text>
</g>
<!-- 94450025014800 -->
<g id="node6" class="node">
<title>94450025014800</title>
<polygon fill="none" stroke="#ffffff" points="98.5,-845 12.5,-845 12.5,-776 98.5,-776 98.5,-845"/>
<text text-anchor="middle" x="55.5" y="-829.8" font-family="Times,serif" font-size="14.00" fill="#ffffff">GetTable</text>
<text text-anchor="middle" x="55.5" y="-814.8" font-family="Times,serif" font-size="14.00" fill="#ffffff">(supplier)</text>
<text text-anchor="middle" x="55.5" y="-783.8" font-family="Times,serif" font-size="14.00" fill="#ffffff">0 ns</text>
</g>
<!-- 94450025014800&#45;&gt;94450422022992 -->
<g id="edge5" class="edge">
<title>94450025014800&#45;&gt;94450422022992</title>
<path fill="none" stroke="#ffffff" stroke-width="2" d="M46.3357,-845.0259C45.2872,-856.4939 46.5603,-868.6965 53.5,-878 62.872,-890.5644 86.7986,-901.6323 115.7784,-910.9806"/>
<polygon fill="#ffffff" stroke="#ffffff" stroke-width="2" points="114.7648,-914.3306 125.353,-913.955 116.8416,-907.6458 114.7648,-914.3306"/>
<text text-anchor="middle" x="176" y="-866.8" font-family="Times,serif" font-size="14.00" fill="#ffffff">10000 row(s)/1 chunk(s)/1.610MB</text>
</g>
<!-- 94450841062688 -->
<g id="node7" class="node">
<title>94450841062688</title>
<polygon fill="none" stroke="#ffffff" points="368.5,-828.5 278.5,-828.5 278.5,-792.5 368.5,-792.5 368.5,-828.5"/>
<text text-anchor="middle" x="323.5" y="-806.8" font-family="Times,serif" font-size="14.00" fill="#ffffff">Projection</text>
</g>
<!-- 94450841062688&#45;&gt;94450422022992 -->
<g id="edge6" class="edge">
<title>94450841062688&#45;&gt;94450422022992</title>
<path fill="none" stroke="#ffffff" stroke-dasharray="5,2" d="M317.7008,-828.7067C312.971,-843.5561 306.0122,-865.4037 299.3888,-886.1978"/>
<polygon fill="#ffffff" stroke="#ffffff" points="295.9775,-885.3756 296.2774,-895.9662 302.6474,-887.5001 295.9775,-885.3756"/>
<text text-anchor="middle" x="388.5" y="-866.8" font-family="Times,serif" font-size="14.00" fill="#ffffff">uncorrelated subquery</text>
</g>
<!-- 94450716342576 -->
<g id="node8" class="node">
<title>94450716342576</title>
<polygon fill="none" stroke="#ffffff" points="432,-739 215,-739 215,-671 432,-671 432,-739"/>
<text text-anchor="middle" x="323.5" y="-723.8" font-family="Times,serif" font-size="14.00" fill="#ffffff">TableScan</text>
<text text-anchor="middle" x="323.5" y="-708.8" font-family="Times,serif" font-size="14.00" fill="#ffffff">Impl: Unset</text>
<text text-anchor="middle" x="323.5" y="-693.8" font-family="Times,serif" font-size="14.00" fill="#ffffff">ps_availqty &gt; SUBSELECT </text>
<text text-anchor="middle" x="323.5" y="-678.8" font-family="Times,serif" font-size="14.00" fill="#ffffff">(PQP, 0x55e6f65966d0) </text>
</g>
<!-- 94450716342576&#45;&gt;94450841062688 -->
<g id="edge7" class="edge">
<title>94450716342576&#45;&gt;94450841062688</title>
<path fill="none" stroke="#ffffff" d="M323.5,-739.2528C323.5,-753.0724 323.5,-768.8312 323.5,-782.0083"/>
<polygon fill="#ffffff" stroke="#ffffff" points="320.0001,-782.3704 323.5,-792.3705 327.0001,-782.3705 320.0001,-782.3704"/>
</g>
<!-- 94450802301344 -->
<g id="node9" class="node">
<title>94450802301344</title>
<polygon fill="none" stroke="#ffffff" points="315.5,-620 225.5,-620 225.5,-584 315.5,-584 315.5,-620"/>
<text text-anchor="middle" x="270.5" y="-598.3" font-family="Times,serif" font-size="14.00" fill="#ffffff">Projection</text>
</g>
<!-- 94450802301344&#45;&gt;94450716342576 -->
<g id="edge8" class="edge">
<title>94450802301344&#45;&gt;94450716342576</title>
<path fill="none" stroke="#ffffff" d="M279.9753,-620.4143C285.8861,-631.9013 293.7565,-647.1965 301.1783,-661.6201"/>
<polygon fill="#ffffff" stroke="#ffffff" points="298.278,-663.6333 305.9656,-670.9237 304.5023,-660.4304 298.278,-663.6333"/>
</g>
<!-- 94450280296448 -->
<g id="node10" class="node">
<title>94450280296448</title>
<polygon fill="none" stroke="#ffffff" points="233,-547 0,-547 0,-479 233,-479 233,-547"/>
<text text-anchor="middle" x="116.5" y="-531.8" font-family="Times,serif" font-size="14.00" fill="#ffffff">TableScan</text>
<text text-anchor="middle" x="116.5" y="-516.8" font-family="Times,serif" font-size="14.00" fill="#ffffff">Impl: Unset</text>
<text text-anchor="middle" x="116.5" y="-501.8" font-family="Times,serif" font-size="14.00" fill="#ffffff">(ps_partkey) IN SUBSELECT </text>
<text text-anchor="middle" x="116.5" y="-486.8" font-family="Times,serif" font-size="14.00" fill="#ffffff">(PQP, 0x55e70cd49f90) </text>
</g>
<!-- 94450280296448&#45;&gt;94450802301344 -->
<g id="edge9" class="edge">
<title>94450280296448&#45;&gt;94450802301344</title>
<path fill="none" stroke="#ffffff" d="M175.6,-547.1552C193.9215,-557.7436 213.6744,-569.1592 230.3901,-578.8196"/>
<polygon fill="#ffffff" stroke="#ffffff" points="228.9264,-582.0161 239.3358,-583.9895 232.429,-575.9554 228.9264,-582.0161"/>
</g>
<!-- 94450459582320 -->
<g id="node11" class="node">
<title>94450459582320</title>
<polygon fill="none" stroke="#ffffff" points="102.5,-428 10.5,-428 10.5,-390 102.5,-390 102.5,-428"/>
<text text-anchor="middle" x="56.5" y="-412.8" font-family="Times,serif" font-size="14.00" fill="#ffffff">GetTable</text>
<text text-anchor="middle" x="56.5" y="-397.8" font-family="Times,serif" font-size="14.00" fill="#ffffff">(partsupp)</text>
</g>
<!-- 94450459582320&#45;&gt;94450280296448 -->
<g id="edge10" class="edge">
<title>94450459582320&#45;&gt;94450280296448</title>
<path fill="none" stroke="#ffffff" d="M67.5049,-428.0752C74.2849,-439.8271 83.2637,-455.3904 91.6813,-469.9809"/>
<polygon fill="#ffffff" stroke="#ffffff" points="88.7963,-471.9842 96.8252,-478.897 94.8596,-468.4861 88.7963,-471.9842"/>
</g>
<!-- 94450841067408 -->
<g id="node12" class="node">
<title>94450841067408</title>
<polygon fill="none" stroke="#ffffff" points="210.5,-427 120.5,-427 120.5,-391 210.5,-391 210.5,-427"/>
<text text-anchor="middle" x="165.5" y="-405.3" font-family="Times,serif" font-size="14.00" fill="#ffffff">Projection</text>
</g>
<!-- 94450841067408&#45;&gt;94450280296448 -->
<g id="edge11" class="edge">
<title>94450841067408&#45;&gt;94450280296448</title>
<path fill="none" stroke="#ffffff" stroke-dasharray="5,2" d="M156.9649,-427.1154C151.4244,-438.8748 143.9546,-454.729 136.9412,-469.6145"/>
<polygon fill="#ffffff" stroke="#ffffff" points="133.7508,-468.1744 132.6548,-478.7124 140.0831,-471.1579 133.7508,-468.1744"/>
<text text-anchor="middle" x="229.5" y="-449.8" font-family="Times,serif" font-size="14.00" fill="#ffffff">uncorrelated subquery</text>
</g>
<!-- 94449902457328 -->
<g id="node13" class="node">
<title>94449902457328</title>
<polygon fill="none" stroke="#ffffff" points="210.5,-337 120.5,-337 120.5,-301 210.5,-301 210.5,-337"/>
<text text-anchor="middle" x="165.5" y="-315.3" font-family="Times,serif" font-size="14.00" fill="#ffffff">Projection</text>
</g>
<!-- 94449902457328&#45;&gt;94450841067408 -->
<g id="edge12" class="edge">
<title>94449902457328&#45;&gt;94450841067408</title>
<path fill="none" stroke="#ffffff" d="M165.5,-337.2128C165.5,-349.6557 165.5,-366.3947 165.5,-380.5789"/>
<polygon fill="#ffffff" stroke="#ffffff" points="162.0001,-380.8142 165.5,-390.8142 169.0001,-380.8143 162.0001,-380.8142"/>
</g>
<!-- 94449699735744 -->
<g id="node14" class="node">
<title>94449699735744</title>
<polygon fill="none" stroke="#ffffff" points="256,-240.5 75,-240.5 75,-187.5 256,-187.5 256,-240.5"/>
<text text-anchor="middle" x="165.5" y="-225.3" font-family="Times,serif" font-size="14.00" fill="#ffffff">TableScan</text>
<text text-anchor="middle" x="165.5" y="-210.3" font-family="Times,serif" font-size="14.00" fill="#ffffff">Impl: Unset</text>
<text text-anchor="middle" x="165.5" y="-195.3" font-family="Times,serif" font-size="14.00" fill="#ffffff">p_name LIKE &#39;forest%&#39;</text>
</g>
<!-- 94449699735744&#45;&gt;94449902457328 -->
<g id="edge13" class="edge">
<title>94449699735744&#45;&gt;94449902457328</title>
<path fill="none" stroke="#ffffff" d="M165.5,-240.7676C165.5,-256.0714 165.5,-275.2509 165.5,-290.7892"/>
<polygon fill="#ffffff" stroke="#ffffff" points="162.0001,-290.8723 165.5,-300.8723 169.0001,-290.8724 162.0001,-290.8723"/>
</g>
<!-- 94450459584224 -->
<g id="node15" class="node">
<title>94450459584224</title>
<polygon fill="none" stroke="#ffffff" points="206,-128 125,-128 125,-90 206,-90 206,-128"/>
<text text-anchor="middle" x="165.5" y="-112.8" font-family="Times,serif" font-size="14.00" fill="#ffffff">GetTable</text>
<text text-anchor="middle" x="165.5" y="-97.8" font-family="Times,serif" font-size="14.00" fill="#ffffff">(part)</text>
</g>
<!-- 94450459584224&#45;&gt;94449699735744 -->
<g id="edge14" class="edge">
<title>94450459584224&#45;&gt;94449699735744</title>
<path fill="none" stroke="#ffffff" d="M165.5,-128.2586C165.5,-141.8571 165.5,-160.5102 165.5,-176.9462"/>
<polygon fill="#ffffff" stroke="#ffffff" points="162.0001,-177.3513 165.5,-187.3513 169.0001,-177.3514 162.0001,-177.3513"/>
</g>
<!-- 94450463893200 -->
<g id="node16" class="node">
<title>94450463893200</title>
<polygon fill="none" stroke="#ffffff" points="449.5,-620 359.5,-620 359.5,-584 449.5,-584 449.5,-620"/>
<text text-anchor="middle" x="404.5" y="-598.3" font-family="Times,serif" font-size="14.00" fill="#ffffff">Projection</text>
</g>
<!-- 94450463893200&#45;&gt;94450716342576 -->
<g id="edge15" class="edge">
<title>94450463893200&#45;&gt;94450716342576</title>
<path fill="none" stroke="#ffffff" stroke-dasharray="5,2" d="M390.0188,-620.4143C380.7273,-632.2295 368.2673,-648.0736 356.6438,-662.8541"/>
<polygon fill="#ffffff" stroke="#ffffff" points="353.7283,-660.8996 350.2978,-670.9237 359.2307,-665.2268 353.7283,-660.8996"/>
<text text-anchor="middle" x="449.5" y="-641.8" font-family="Times,serif" font-size="14.00" fill="#ffffff">correlated subquery</text>
</g>
<!-- 94449695420176 -->
<g id="node17" class="node">
<title>94449695420176</title>
<polygon fill="none" stroke="#ffffff" points="610,-532 251,-532 251,-494 610,-494 610,-532"/>
<text text-anchor="middle" x="430.5" y="-516.8" font-family="Times,serif" font-size="14.00" fill="#ffffff">[Aggregate] GroupBy ColumnIDs: &#160;Aggregates: </text>
<text text-anchor="middle" x="430.5" y="-501.8" font-family="Times,serif" font-size="14.00" fill="#ffffff">SUM(Column #2) </text>
</g>
<!-- 94449695420176&#45;&gt;94450463893200 -->
<g id="edge16" class="edge">
<title>94449695420176&#45;&gt;94450463893200</title>
<path fill="none" stroke="#ffffff" d="M424.8584,-532.3117C421.2879,-544.5336 416.6133,-560.5352 412.644,-574.1223"/>
<polygon fill="#ffffff" stroke="#ffffff" points="409.2208,-573.359 409.7762,-583.9393 415.94,-575.3219 409.2208,-573.359"/>
</g>
<!-- 94450463893360 -->
<g id="node18" class="node">
<title>94450463893360</title>
<polygon fill="none" stroke="#ffffff" points="475.5,-427 385.5,-427 385.5,-391 475.5,-391 475.5,-427"/>
<text text-anchor="middle" x="430.5" y="-405.3" font-family="Times,serif" font-size="14.00" fill="#ffffff">Projection</text>
</g>
<!-- 94450463893360&#45;&gt;94449695420176 -->
<g id="edge17" class="edge">
<title>94450463893360&#45;&gt;94449695420176</title>
<path fill="none" stroke="#ffffff" d="M430.5,-427.1154C430.5,-442.683 430.5,-465.4272 430.5,-483.5996"/>
<polygon fill="#ffffff" stroke="#ffffff" points="427.0001,-483.6821 430.5,-493.6821 434.0001,-483.6822 427.0001,-483.6821"/>
</g>
<!-- 94449699735072 -->
<g id="node19" class="node">
<title>94449699735072</title>
<polygon fill="none" stroke="#ffffff" points="551.5,-353 309.5,-353 309.5,-285 551.5,-285 551.5,-353"/>
<text text-anchor="middle" x="430.5" y="-337.8" font-family="Times,serif" font-size="14.00" fill="#ffffff">TableScan</text>
<text text-anchor="middle" x="430.5" y="-322.8" font-family="Times,serif" font-size="14.00" fill="#ffffff">Impl: Unset</text>
<text text-anchor="middle" x="430.5" y="-307.8" font-family="Times,serif" font-size="14.00" fill="#ffffff">l_shipdate BETWEEN </text>
<text text-anchor="middle" x="430.5" y="-292.8" font-family="Times,serif" font-size="14.00" fill="#ffffff">&#39;1994&#45;01&#45;01&#39; AND &#39;1995&#45;01&#45;00&#39; </text>
</g>
<!-- 94449699735072&#45;&gt;94450463893360 -->
<g id="edge18" class="edge">
<title>94449699735072&#45;&gt;94450463893360</title>
<path fill="none" stroke="#ffffff" d="M430.5,-353.0251C430.5,-362.0848 430.5,-371.7764 430.5,-380.5061"/>
<polygon fill="#ffffff" stroke="#ffffff" points="427.0001,-380.5699 430.5,-390.57 434.0001,-380.57 427.0001,-380.5699"/>
</g>
<!-- 94449699966848 -->
<g id="node20" class="node">
<title>94449699966848</title>
<polygon fill="none" stroke="#ffffff" points="571,-248 290,-248 290,-180 571,-180 571,-248"/>
<text text-anchor="middle" x="430.5" y="-232.8" font-family="Times,serif" font-size="14.00" fill="#ffffff">TableScan</text>
<text text-anchor="middle" x="430.5" y="-217.8" font-family="Times,serif" font-size="14.00" fill="#ffffff">Impl: Unset</text>
<text text-anchor="middle" x="430.5" y="-202.8" font-family="Times,serif" font-size="14.00" fill="#ffffff">l_suppkey = </text>
<text text-anchor="middle" x="430.5" y="-187.8" font-family="Times,serif" font-size="14.00" fill="#ffffff">Parameter[name=ps_suppkey;id=1] </text>
</g>
<!-- 94449699966848&#45;&gt;94449699735072 -->
<g id="edge19" class="edge">
<title>94449699966848&#45;&gt;94449699735072</title>
<path fill="none" stroke="#ffffff" d="M430.5,-248.0905C430.5,-256.5263 430.5,-265.6882 430.5,-274.538"/>
<polygon fill="#ffffff" stroke="#ffffff" points="427.0001,-274.7212 430.5,-284.7212 434.0001,-274.7213 427.0001,-274.7212"/>
</g>
<!-- 94450716343824 -->
<g id="node21" class="node">
<title>94450716343824</title>
<polygon fill="none" stroke="#ffffff" points="568.5,-143 292.5,-143 292.5,-75 568.5,-75 568.5,-143"/>
<text text-anchor="middle" x="430.5" y="-127.8" font-family="Times,serif" font-size="14.00" fill="#ffffff">TableScan</text>
<text text-anchor="middle" x="430.5" y="-112.8" font-family="Times,serif" font-size="14.00" fill="#ffffff">Impl: Unset</text>
<text text-anchor="middle" x="430.5" y="-97.8" font-family="Times,serif" font-size="14.00" fill="#ffffff">l_partkey = </text>
<text text-anchor="middle" x="430.5" y="-82.8" font-family="Times,serif" font-size="14.00" fill="#ffffff">Parameter[name=ps_partkey;id=0] </text>
</g>
<!-- 94450716343824&#45;&gt;94449699966848 -->
<g id="edge20" class="edge">
<title>94450716343824&#45;&gt;94449699966848</title>
<path fill="none" stroke="#ffffff" d="M430.5,-143.0905C430.5,-151.5263 430.5,-160.6882 430.5,-169.538"/>
<polygon fill="#ffffff" stroke="#ffffff" points="427.0001,-169.7212 430.5,-179.7212 434.0001,-169.7213 427.0001,-169.7212"/>
</g>
<!-- 94450459585808 -->
<g id="node22" class="node">
<title>94450459585808</title>
<polygon fill="none" stroke="#ffffff" points="473.5,-38 387.5,-38 387.5,0 473.5,0 473.5,-38"/>
<text text-anchor="middle" x="430.5" y="-22.8" font-family="Times,serif" font-size="14.00" fill="#ffffff">GetTable</text>
<text text-anchor="middle" x="430.5" y="-7.8" font-family="Times,serif" font-size="14.00" fill="#ffffff">(lineitem)</text>
</g>
<!-- 94450459585808&#45;&gt;94450716343824 -->
<g id="edge21" class="edge">
<title>94450459585808&#45;&gt;94450716343824</title>
<path fill="none" stroke="#ffffff" d="M430.5,-38.0867C430.5,-45.8926 430.5,-55.2767 430.5,-64.6248"/>
<polygon fill="#ffffff" stroke="#ffffff" points="427.0001,-64.6779 430.5,-74.678 434.0001,-64.678 427.0001,-64.6779"/>
</g>
<!-- 94449696248512 -->
<g id="node23" class="node">
<title>94449696248512</title>
<polygon fill="none" stroke="#ffffff" points="598.5,-1100 508.5,-1100 508.5,-1046 598.5,-1046 598.5,-1100"/>
<text text-anchor="middle" x="553.5" y="-1084.8" font-family="Times,serif" font-size="14.00" fill="#ffffff">Projection</text>
<text text-anchor="middle" x="553.5" y="-1053.8" font-family="Times,serif" font-size="14.00" fill="#ffffff">2 µs 0 ns</text>
</g>
<!-- 94449696248512&#45;&gt;94450362787152 -->
<g id="edge22" class="edge">
<title>94449696248512&#45;&gt;94450362787152</title>
<path fill="none" stroke="#ffffff" d="M548.1431,-1100.0357C544.8422,-1111.2377 539.6268,-1123.7468 531.5,-1133 527.8778,-1137.1243 523.9028,-1141.0071 519.675,-1144.6571"/>
<polygon fill="#ffffff" stroke="#ffffff" points="517.4141,-1141.9839 511.8136,-1150.9775 521.8002,-1147.4394 517.4141,-1141.9839"/>
<text text-anchor="middle" x="632" y="-1121.8" font-family="Times,serif" font-size="14.00" fill="#ffffff">1 row(s)/1 chunk(s)/385B</text>
</g>
<!-- 94450500016576 -->
<g id="node24" class="node">
<title>94450500016576</title>
<polygon fill="none" stroke="#ffffff" points="644,-995 463,-995 463,-896 644,-896 644,-995"/>
<text text-anchor="middle" x="553.5" y="-979.8" font-family="Times,serif" font-size="14.00" fill="#ffffff">TableScan</text>
<text text-anchor="middle" x="553.5" y="-964.8" font-family="Times,serif" font-size="14.00" fill="#ffffff">Impl: LiteralTableScan</text>
<text text-anchor="middle" x="553.5" y="-949.8" font-family="Times,serif" font-size="14.00" fill="#ffffff">n_name = </text>
<text text-anchor="middle" x="553.5" y="-934.8" font-family="Times,serif" font-size="14.00" fill="#ffffff">&#39;CANADA&#39;</text>
<text text-anchor="middle" x="553.5" y="-903.8" font-family="Times,serif" font-size="14.00" fill="#ffffff">16 µs 0 ns </text>
</g>
<!-- 94450500016576&#45;&gt;94449696248512 -->
<g id="edge23" class="edge">
<title>94450500016576&#45;&gt;94449696248512</title>
<path fill="none" stroke="#ffffff" d="M553.5,-995.1599C553.5,-1008.598 553.5,-1022.9153 553.5,-1035.5584"/>
<polygon fill="#ffffff" stroke="#ffffff" points="550.0001,-1035.7287 553.5,-1045.7287 557.0001,-1035.7288 550.0001,-1035.7287"/>
<text text-anchor="middle" x="644" y="-1016.8" font-family="Times,serif" font-size="14.00" fill="#ffffff">1 row(s)/1 chunk(s)/533B</text>
</g>
<!-- 94450459588016 -->
<g id="node25" class="node">
<title>94450459588016</title>
<polygon fill="none" stroke="#ffffff" points="594,-845 513,-845 513,-776 594,-776 594,-845"/>
<text text-anchor="middle" x="553.5" y="-829.8" font-family="Times,serif" font-size="14.00" fill="#ffffff">GetTable</text>
<text text-anchor="middle" x="553.5" y="-814.8" font-family="Times,serif" font-size="14.00" fill="#ffffff">(nation)</text>
<text text-anchor="middle" x="553.5" y="-783.8" font-family="Times,serif" font-size="14.00" fill="#ffffff">3 µs 0 ns</text>
</g>
<!-- 94450459588016&#45;&gt;94450500016576 -->
<g id="edge24" class="edge">
<title>94450459588016&#45;&gt;94450500016576</title>
<path fill="none" stroke="#ffffff" d="M553.5,-845.2659C553.5,-857.5301 553.5,-871.6967 553.5,-885.446"/>
<polygon fill="#ffffff" stroke="#ffffff" points="550.0001,-885.8405 553.5,-895.8405 557.0001,-885.8406 550.0001,-885.8405"/>
<text text-anchor="middle" x="660.5" y="-866.8" font-family="Times,serif" font-size="14.00" fill="#ffffff">25 row(s)/1 chunk(s)/2.869KB</text>
</g>
</g>
</svg>
