<?xml version="1.0" encoding="UTF-8" standalone="no"?>
<!DOCTYPE svg PUBLIC "-//W3C//DTD SVG 1.1//EN"
 "http://www.w3.org/Graphics/SVG/1.1/DTD/svg11.dtd">
<!-- Generated by graphviz version 2.40.1 (20161225.0304)
 -->
<!-- Title: G Pages: 1 -->
<svg width="1016pt" height="1206pt"
 viewBox="0.00 0.00 1016.00 1206.00" xmlns="http://www.w3.org/2000/svg" xmlns:xlink="http://www.w3.org/1999/xlink">
<g id="graph0" class="graph" transform="scale(1 1) rotate(0) translate(4 1202)">
<title>G</title>
<polygon fill="#000000" stroke="transparent" points="-4,4 -4,-1202 1012,-1202 1012,4 -4,4"/>
<!-- 94450716301616 -->
<g id="node1" class="node">
<title>94450716301616</title>
<polygon fill="none" stroke="#ffffff" points="775.5,-1198 536.5,-1198 536.5,-1162 775.5,-1162 775.5,-1198"/>
<text text-anchor="middle" x="656" y="-1176.3" font-family="Times,serif" font-size="14.00" fill="#ffffff">[Projection] s_name, s_address</text>
</g>
<!-- 94450841067568 -->
<g id="node2" class="node">
<title>94450841067568</title>
<polygon fill="none" stroke="#ffffff" points="759,-1111 553,-1111 553,-1075 759,-1075 759,-1111"/>
<text text-anchor="middle" x="656" y="-1089.3" font-family="Times,serif" font-size="14.00" fill="#ffffff">[Sort] s_name (Ascending)</text>
</g>
<!-- 94450841067568&#45;&gt;94450716301616 -->
<g id="edge1" class="edge">
<title>94450841067568&#45;&gt;94450716301616</title>
<path fill="none" stroke="#ffffff" stroke-width="2" d="M656,-1111.0265C656,-1122.8082 656,-1138.4393 656,-1151.8419"/>
<polygon fill="#ffffff" stroke="#ffffff" stroke-width="2" points="652.5001,-1151.9966 656,-1161.9966 659.5001,-1151.9967 652.5001,-1151.9966"/>
<text text-anchor="middle" x="757" y="-1132.8" font-family="Times,serif" font-size="14.00" fill="#ffffff"> 400.0 row(s) | 100.0% estd.</text>
</g>
<!-- 94450463896384 -->
<g id="node3" class="node">
<title>94450463896384</title>
<polygon fill="none" stroke="#ffffff" points="828.5,-1024 483.5,-1024 483.5,-988 828.5,-988 828.5,-1024"/>
<text text-anchor="middle" x="656" y="-1002.3" font-family="Times,serif" font-size="14.00" fill="#ffffff">[Join] Mode: Inner s_nationkey = n_nationkey</text>
</g>
<!-- 94450463896384&#45;&gt;94450841067568 -->
<g id="edge2" class="edge">
<title>94450463896384&#45;&gt;94450841067568</title>
<path fill="none" stroke="#ffffff" stroke-width="2" d="M656,-1024.0265C656,-1035.8082 656,-1051.4393 656,-1064.8419"/>
<polygon fill="#ffffff" stroke="#ffffff" stroke-width="2" points="652.5001,-1064.9966 656,-1074.9966 659.5001,-1064.9967 652.5001,-1064.9966"/>
<text text-anchor="middle" x="748" y="-1045.8" font-family="Times,serif" font-size="14.00" fill="#ffffff"> 400.0 row(s) | 4.0% estd.</text>
</g>
<!-- 94450424565200 -->
<g id="node4" class="node">
<title>94450424565200</title>
<polygon fill="none" stroke="#ffffff" points="666.5,-937 335.5,-937 335.5,-899 666.5,-899 666.5,-937"/>
<text text-anchor="middle" x="501" y="-921.8" font-family="Times,serif" font-size="14.00" fill="#ffffff">[Projection] s_suppkey, s_name, s_address, </text>
<text text-anchor="middle" x="501" y="-906.8" font-family="Times,serif" font-size="14.00" fill="#ffffff">s_nationkey </text>
</g>
<!-- 94450424565200&#45;&gt;94450463896384 -->
<g id="edge3" class="edge">
<title>94450424565200&#45;&gt;94450463896384</title>
<path fill="none" stroke="#ffffff" stroke-width="2" d="M516.398,-937.2276C525.9582,-948.1046 539.0531,-961.2401 553,-970 561.6308,-975.421 571.1836,-980.1535 580.8894,-984.2475"/>
<polygon fill="#ffffff" stroke="#ffffff" stroke-width="2" points="579.6322,-987.5141 590.2168,-987.9786 582.2321,-981.0148 579.6322,-987.5141"/>
<text text-anchor="middle" x="663" y="-958.8" font-family="Times,serif" font-size="14.00" fill="#ffffff"> 10000.0 row(s) | 100.0% estd.</text>
</g>
<!-- 94449703544880 -->
<g id="node5" class="node">
<title>94449703544880</title>
<polygon fill="none" stroke="#ffffff" points="671.5,-848 316.5,-848 316.5,-810 671.5,-810 671.5,-848"/>
<text text-anchor="middle" x="494" y="-832.8" font-family="Times,serif" font-size="14.00" fill="#ffffff">[Predicate] (s_suppkey) IN SUBSELECT (LQP, </text>
<text text-anchor="middle" x="494" y="-817.8" font-family="Times,serif" font-size="14.00" fill="#ffffff">0x55e704eedc00) </text>
</g>
<!-- 94449703544880&#45;&gt;94450424565200 -->
<g id="edge4" class="edge">
<title>94449703544880&#45;&gt;94450424565200</title>
<path fill="none" stroke="#ffffff" stroke-width="2" d="M495.5189,-848.3117C496.4454,-860.091 497.648,-875.3813 498.6906,-888.6372"/>
<polygon fill="#ffffff" stroke="#ffffff" stroke-width="2" points="495.2107,-889.0313 499.4841,-898.726 502.1891,-888.4823 495.2107,-889.0313"/>
<text text-anchor="middle" x="608" y="-869.8" font-family="Times,serif" font-size="14.00" fill="#ffffff"> 10000.0 row(s) | 100.0% estd.</text>
</g>
<!-- 94450276919184 -->
<g id="node6" class="node">
<title>94450276919184</title>
<polygon fill="none" stroke="#ffffff" points="418,-759 182,-759 182,-723 418,-723 418,-759"/>
<text text-anchor="middle" x="300" y="-737.3" font-family="Times,serif" font-size="14.00" fill="#ffffff">[StoredTable] Name: &#39;supplier&#39;</text>
</g>
<!-- 94450276919184&#45;&gt;94449703544880 -->
<g id="edge5" class="edge">
<title>94450276919184&#45;&gt;94449703544880</title>
<path fill="none" stroke="#ffffff" stroke-width="2" d="M293.1846,-759.4534C290.5263,-770.1133 289.6377,-783.1262 297,-792 301.7777,-797.7586 310.5094,-802.6266 321.7317,-806.7407"/>
<polygon fill="#ffffff" stroke="#ffffff" stroke-width="2" points="320.6446,-810.0676 331.2378,-809.8811 322.8405,-803.4209 320.6446,-810.0676"/>
<text text-anchor="middle" x="407" y="-780.8" font-family="Times,serif" font-size="14.00" fill="#ffffff"> 10000.0 row(s) | 100.0% estd.</text>
</g>
<!-- 94450708569088 -->
<g id="node7" class="node">
<title>94450708569088</title>
<polygon fill="none" stroke="#ffffff" points="637.5,-759 448.5,-759 448.5,-723 637.5,-723 637.5,-759"/>
<text text-anchor="middle" x="543" y="-737.3" font-family="Times,serif" font-size="14.00" fill="#ffffff">[Projection] ps_suppkey</text>
</g>
<!-- 94450708569088&#45;&gt;94449703544880 -->
<g id="edge6" class="edge">
<title>94450708569088&#45;&gt;94449703544880</title>
<path fill="none" stroke="#ffffff" stroke-dasharray="5,2" d="M536.2136,-759.4129C532.276,-769.3264 526.9291,-781.6164 521,-792 519.1566,-795.2284 517.086,-798.5115 514.9328,-801.7218"/>
<polygon fill="#ffffff" stroke="#ffffff" points="512.0277,-799.7683 509.139,-809.9617 517.7539,-803.7946 512.0277,-799.7683"/>
<text text-anchor="middle" x="611" y="-780.8" font-family="Times,serif" font-size="14.00" fill="#ffffff">uncorrelated subquery</text>
</g>
<!-- 94450276926976 -->
<g id="node8" class="node">
<title>94450276926976</title>
<polygon fill="none" stroke="#ffffff" points="732.5,-672 353.5,-672 353.5,-619 732.5,-619 732.5,-672"/>
<text text-anchor="middle" x="543" y="-656.8" font-family="Times,serif" font-size="14.00" fill="#ffffff">[Predicate] ps_availqty &gt; SUBSELECT (LQP, </text>
<text text-anchor="middle" x="543" y="-641.8" font-family="Times,serif" font-size="14.00" fill="#ffffff">0x55e6fb0f2bc0, Parameters: [ps_suppkey, id=1], </text>
<text text-anchor="middle" x="543" y="-626.8" font-family="Times,serif" font-size="14.00" fill="#ffffff">[ps_partkey, id=0]) </text>
</g>
<!-- 94450276926976&#45;&gt;94450708569088 -->
<g id="edge7" class="edge">
<title>94450276926976&#45;&gt;94450708569088</title>
<path fill="none" stroke="#ffffff" stroke-width="3" d="M543,-672.1021C543,-684.7787 543,-699.9473 543,-712.8209"/>
<polygon fill="#ffffff" stroke="#ffffff" stroke-width="3" points="539.5001,-712.9898 543,-722.9898 546.5001,-712.9899 539.5001,-712.9898"/>
<text text-anchor="middle" x="657.5" y="-693.8" font-family="Times,serif" font-size="14.00" fill="#ffffff"> 800000.0 row(s) | 100.0% estd.</text>
</g>
<!-- 94449699742496 -->
<g id="node9" class="node">
<title>94449699742496</title>
<polygon fill="none" stroke="#ffffff" points="559.5,-568 194.5,-568 194.5,-532 559.5,-532 559.5,-568"/>
<text text-anchor="middle" x="377" y="-546.3" font-family="Times,serif" font-size="14.00" fill="#ffffff">[Projection] ps_partkey, ps_suppkey, ps_availqty</text>
</g>
<!-- 94449699742496&#45;&gt;94450276926976 -->
<g id="edge8" class="edge">
<title>94449699742496&#45;&gt;94450276926976</title>
<path fill="none" stroke="#ffffff" stroke-width="3" d="M395.6574,-568.1012C407.1972,-578.6363 422.6882,-591.6416 438,-601 445.9616,-605.8661 454.5505,-610.4486 463.2658,-614.6872"/>
<polygon fill="#ffffff" stroke="#ffffff" stroke-width="3" points="461.8347,-617.8819 472.3728,-618.9772 464.8178,-611.5493 461.8347,-617.8819"/>
<text text-anchor="middle" x="552.5" y="-589.8" font-family="Times,serif" font-size="14.00" fill="#ffffff"> 800000.0 row(s) | 100.0% estd.</text>
</g>
<!-- 94450670091616 -->
<g id="node10" class="node">
<title>94450670091616</title>
<polygon fill="none" stroke="#ffffff" points="550.5,-481 191.5,-481 191.5,-443 550.5,-443 550.5,-481"/>
<text text-anchor="middle" x="371" y="-465.8" font-family="Times,serif" font-size="14.00" fill="#ffffff">[Predicate] (ps_partkey) IN SUBSELECT (LQP, </text>
<text text-anchor="middle" x="371" y="-450.8" font-family="Times,serif" font-size="14.00" fill="#ffffff">0x55e703435b90) </text>
</g>
<!-- 94450670091616&#45;&gt;94449699742496 -->
<g id="edge9" class="edge">
<title>94450670091616&#45;&gt;94449699742496</title>
<path fill="none" stroke="#ffffff" stroke-width="3" d="M372.3019,-481.0947C373.1123,-492.981 374.1693,-508.483 375.0754,-521.7725"/>
<polygon fill="#ffffff" stroke="#ffffff" stroke-width="3" points="371.5899,-522.106 375.7621,-531.8447 378.5737,-521.6298 371.5899,-522.106"/>
<text text-anchor="middle" x="489.5" y="-502.8" font-family="Times,serif" font-size="14.00" fill="#ffffff"> 800000.0 row(s) | 100.0% estd.</text>
</g>
<!-- 94449902464320 -->
<g id="node11" class="node">
<title>94449902464320</title>
<polygon fill="none" stroke="#ffffff" points="242,-391 0,-391 0,-355 242,-355 242,-391"/>
<text text-anchor="middle" x="121" y="-369.3" font-family="Times,serif" font-size="14.00" fill="#ffffff">[StoredTable] Name: &#39;partsupp&#39;</text>
</g>
<!-- 94449902464320&#45;&gt;94450670091616 -->
<g id="edge10" class="edge">
<title>94449902464320&#45;&gt;94450670091616</title>
<path fill="none" stroke="#ffffff" stroke-width="3" d="M122.5951,-391.0624C124.5869,-402.4974 129.0448,-416.6513 139,-425 147.4549,-432.0905 162.7,-437.8366 181.4872,-442.4899"/>
<polygon fill="#ffffff" stroke="#ffffff" stroke-width="3" points="180.7659,-445.9153 191.2971,-444.756 182.3415,-439.095 180.7659,-445.9153"/>
<text text-anchor="middle" x="253.5" y="-413.8" font-family="Times,serif" font-size="14.00" fill="#ffffff"> 800000.0 row(s) | 100.0% estd.</text>
</g>
<!-- 94450680552336 -->
<g id="node12" class="node">
<title>94450680552336</title>
<polygon fill="none" stroke="#ffffff" points="461.5,-391 284.5,-391 284.5,-355 461.5,-355 461.5,-391"/>
<text text-anchor="middle" x="373" y="-369.3" font-family="Times,serif" font-size="14.00" fill="#ffffff">[Projection] p_partkey</text>
</g>
<!-- 94450680552336&#45;&gt;94450670091616 -->
<g id="edge11" class="edge">
<title>94450680552336&#45;&gt;94450670091616</title>
<path fill="none" stroke="#ffffff" stroke-dasharray="5,2" d="M372.5953,-391.0105C372.326,-402.9913 371.9663,-418.9999 371.6566,-432.7822"/>
<polygon fill="#ffffff" stroke="#ffffff" points="368.1575,-432.7081 371.4318,-442.7842 375.1557,-432.8654 368.1575,-432.7081"/>
<text text-anchor="middle" x="455" y="-413.8" font-family="Times,serif" font-size="14.00" fill="#ffffff">uncorrelated subquery</text>
</g>
<!-- 94449992163120 -->
<g id="node13" class="node">
<title>94449992163120</title>
<polygon fill="none" stroke="#ffffff" points="493,-302 253,-302 253,-266 493,-266 493,-302"/>
<text text-anchor="middle" x="373" y="-280.3" font-family="Times,serif" font-size="14.00" fill="#ffffff">[Projection] p_partkey, p_name</text>
</g>
<!-- 94449992163120&#45;&gt;94450680552336 -->
<g id="edge12" class="edge">
<title>94449992163120&#45;&gt;94450680552336</title>
<path fill="none" stroke="#ffffff" stroke-width="3" d="M373,-302.0105C373,-314.2342 373,-330.6505 373,-344.6176"/>
<polygon fill="#ffffff" stroke="#ffffff" stroke-width="3" points="369.5001,-344.7108 373,-354.7108 376.5001,-344.7109 369.5001,-344.7108"/>
<text text-anchor="middle" x="483" y="-324.8" font-family="Times,serif" font-size="14.00" fill="#ffffff"> 20000.0 row(s) | 100.0% estd.</text>
</g>
<!-- 94450895854224 -->
<g id="node14" class="node">
<title>94450895854224</title>
<polygon fill="none" stroke="#ffffff" points="505.5,-213 240.5,-213 240.5,-177 505.5,-177 505.5,-213"/>
<text text-anchor="middle" x="373" y="-191.3" font-family="Times,serif" font-size="14.00" fill="#ffffff">[Predicate] p_name LIKE &#39;forest%&#39;</text>
</g>
<!-- 94450895854224&#45;&gt;94449992163120 -->
<g id="edge13" class="edge">
<title>94450895854224&#45;&gt;94449992163120</title>
<path fill="none" stroke="#ffffff" stroke-width="3" d="M373,-213.0105C373,-225.2342 373,-241.6505 373,-255.6176"/>
<polygon fill="#ffffff" stroke="#ffffff" stroke-width="3" points="369.5001,-255.7108 373,-265.7108 376.5001,-255.7109 369.5001,-255.7108"/>
<text text-anchor="middle" x="478.5" y="-235.8" font-family="Times,serif" font-size="14.00" fill="#ffffff"> 20000.0 row(s) | 10.0% estd.</text>
</g>
<!-- 94450577645216 -->
<g id="node15" class="node">
<title>94450577645216</title>
<polygon fill="none" stroke="#ffffff" points="477,-124 269,-124 269,-88 477,-88 477,-124"/>
<text text-anchor="middle" x="373" y="-102.3" font-family="Times,serif" font-size="14.00" fill="#ffffff">[StoredTable] Name: &#39;part&#39;</text>
</g>
<!-- 94450577645216&#45;&gt;94450895854224 -->
<g id="edge14" class="edge">
<title>94450577645216&#45;&gt;94450895854224</title>
<path fill="none" stroke="#ffffff" stroke-width="3" d="M373,-124.0105C373,-136.2342 373,-152.6505 373,-166.6176"/>
<polygon fill="#ffffff" stroke="#ffffff" stroke-width="3" points="369.5001,-166.7108 373,-176.7108 376.5001,-166.7109 369.5001,-166.7108"/>
<text text-anchor="middle" x="487.5" y="-146.8" font-family="Times,serif" font-size="14.00" fill="#ffffff"> 200000.0 row(s) | 100.0% estd.</text>
</g>
<!-- 94450542914496 -->
<g id="node16" class="node">
<title>94450542914496</title>
<polygon fill="none" stroke="#ffffff" points="841.5,-568 578.5,-568 578.5,-532 841.5,-532 841.5,-568"/>
<text text-anchor="middle" x="710" y="-546.3" font-family="Times,serif" font-size="14.00" fill="#ffffff">[Projection] 0.5 * SUM(l_quantity)</text>
</g>
<!-- 94450542914496&#45;&gt;94450276926976 -->
<g id="edge15" class="edge">
<title>94450542914496&#45;&gt;94450276926976</title>
<path fill="none" stroke="#ffffff" stroke-dasharray="5,2" d="M698.3428,-568.1637C690.5928,-578.988 679.5527,-592.2746 667,-601 659.768,-606.027 651.9059,-610.5485 643.7671,-614.6029"/>
<polygon fill="#ffffff" stroke="#ffffff" points="642.0304,-611.5522 634.4793,-618.984 645.0168,-617.8832 642.0304,-611.5522"/>
<text text-anchor="middle" x="757" y="-589.8" font-family="Times,serif" font-size="14.00" fill="#ffffff">correlated subquery</text>
</g>
<!-- 94450422061328 -->
<g id="node17" class="node">
<title>94450422061328</title>
<polygon fill="none" stroke="#ffffff" points="853.5,-481 568.5,-481 568.5,-443 853.5,-443 853.5,-481"/>
<text text-anchor="middle" x="711" y="-465.8" font-family="Times,serif" font-size="14.00" fill="#ffffff">[Aggregate] GroupBy: [] Aggregates: </text>
<text text-anchor="middle" x="711" y="-450.8" font-family="Times,serif" font-size="14.00" fill="#ffffff">[SUM(l_quantity)] </text>
</g>
<!-- 94450422061328&#45;&gt;94450542914496 -->
<g id="edge16" class="edge">
<title>94450422061328&#45;&gt;94450542914496</title>
<path fill="none" stroke="#ffffff" d="M710.783,-481.0947C710.6479,-492.981 710.4718,-508.483 710.3208,-521.7725"/>
<polygon fill="#ffffff" stroke="#ffffff" points="706.8203,-521.8056 710.2063,-531.8447 713.8198,-521.8852 706.8203,-521.8056"/>
<text text-anchor="middle" x="802" y="-502.8" font-family="Times,serif" font-size="14.00" fill="#ffffff"> 0.0 row(s) | 100.0% estd.</text>
</g>
<!-- 94450362790928 -->
<g id="node18" class="node">
<title>94450362790928</title>
<polygon fill="none" stroke="#ffffff" points="880.5,-392 541.5,-392 541.5,-354 880.5,-354 880.5,-392"/>
<text text-anchor="middle" x="711" y="-376.8" font-family="Times,serif" font-size="14.00" fill="#ffffff">[Projection] l_partkey, l_suppkey, l_quantity, </text>
<text text-anchor="middle" x="711" y="-361.8" font-family="Times,serif" font-size="14.00" fill="#ffffff">l_shipdate </text>
</g>
<!-- 94450362790928&#45;&gt;94450422061328 -->
<g id="edge17" class="edge">
<title>94450362790928&#45;&gt;94450422061328</title>
<path fill="none" stroke="#ffffff" d="M711,-392.3117C711,-404.091 711,-419.3813 711,-432.6372"/>
<polygon fill="#ffffff" stroke="#ffffff" points="707.5001,-432.726 711,-442.726 714.5001,-432.726 707.5001,-432.726"/>
<text text-anchor="middle" x="803" y="-413.8" font-family="Times,serif" font-size="14.00" fill="#ffffff"> 0.0 row(s) | 100.0% estd.</text>
</g>
<!-- 94450835610528 -->
<g id="node19" class="node">
<title>94450835610528</title>
<polygon fill="none" stroke="#ffffff" points="908.5,-303 513.5,-303 513.5,-265 908.5,-265 908.5,-303"/>
<text text-anchor="middle" x="711" y="-287.8" font-family="Times,serif" font-size="14.00" fill="#ffffff">[Predicate] l_shipdate BETWEEN &#39;1994&#45;01&#45;01&#39; AND </text>
<text text-anchor="middle" x="711" y="-272.8" font-family="Times,serif" font-size="14.00" fill="#ffffff">&#39;1995&#45;01&#45;00&#39; </text>
</g>
<!-- 94450835610528&#45;&gt;94450362790928 -->
<g id="edge18" class="edge">
<title>94450835610528&#45;&gt;94450362790928</title>
<path fill="none" stroke="#ffffff" d="M711,-303.3117C711,-315.091 711,-330.3813 711,-343.6372"/>
<polygon fill="#ffffff" stroke="#ffffff" points="707.5001,-343.726 711,-353.726 714.5001,-343.726 707.5001,-343.726"/>
<text text-anchor="middle" x="803" y="-324.8" font-family="Times,serif" font-size="14.00" fill="#ffffff"> 0.0 row(s) | 100.0% estd.</text>
</g>
<!-- 94450716250720 -->
<g id="node20" class="node">
<title>94450716250720</title>
<polygon fill="none" stroke="#ffffff" points="851.5,-214 570.5,-214 570.5,-176 851.5,-176 851.5,-214"/>
<text text-anchor="middle" x="711" y="-198.8" font-family="Times,serif" font-size="14.00" fill="#ffffff">[Predicate] l_suppkey = </text>
<text text-anchor="middle" x="711" y="-183.8" font-family="Times,serif" font-size="14.00" fill="#ffffff">Parameter[name=ps_suppkey;id=1] </text>
</g>
<!-- 94450716250720&#45;&gt;94450835610528 -->
<g id="edge19" class="edge">
<title>94450716250720&#45;&gt;94450835610528</title>
<path fill="none" stroke="#ffffff" d="M711,-214.3117C711,-226.091 711,-241.3813 711,-254.6372"/>
<polygon fill="#ffffff" stroke="#ffffff" points="707.5001,-254.726 711,-264.726 714.5001,-254.726 707.5001,-254.726"/>
<text text-anchor="middle" x="794" y="-235.8" font-family="Times,serif" font-size="14.00" fill="#ffffff"> 0.0 row(s) | 0.0% estd.</text>
</g>
<!-- 94449935134832 -->
<g id="node21" class="node">
<title>94449935134832</title>
<polygon fill="none" stroke="#ffffff" points="849,-125 573,-125 573,-87 849,-87 849,-125"/>
<text text-anchor="middle" x="711" y="-109.8" font-family="Times,serif" font-size="14.00" fill="#ffffff">[Predicate] l_partkey = </text>
<text text-anchor="middle" x="711" y="-94.8" font-family="Times,serif" font-size="14.00" fill="#ffffff">Parameter[name=ps_partkey;id=0] </text>
</g>
<!-- 94449935134832&#45;&gt;94450716250720 -->
<g id="edge20" class="edge">
<title>94449935134832&#45;&gt;94450716250720</title>
<path fill="none" stroke="#ffffff" d="M711,-125.3117C711,-137.091 711,-152.3813 711,-165.6372"/>
<polygon fill="#ffffff" stroke="#ffffff" points="707.5001,-165.726 711,-175.726 714.5001,-165.726 707.5001,-165.726"/>
<text text-anchor="middle" x="798.5" y="-146.8" font-family="Times,serif" font-size="14.00" fill="#ffffff"> 30.0 row(s) | 0.0% estd.</text>
</g>
<!-- 94450495267952 -->
<g id="node22" class="node">
<title>94450495267952</title>
<polygon fill="none" stroke="#ffffff" points="829,-36 593,-36 593,0 829,0 829,-36"/>
<text text-anchor="middle" x="711" y="-14.3" font-family="Times,serif" font-size="14.00" fill="#ffffff">[StoredTable] Name: &#39;lineitem&#39;</text>
</g>
<!-- 94450495267952&#45;&gt;94449935134832 -->
<g id="edge21" class="edge">
<title>94450495267952&#45;&gt;94449935134832</title>
<path fill="none" stroke="#ffffff" stroke-width="4" d="M711,-36.2337C711,-47.9125 711,-63.3308 711,-76.7022"/>
<polygon fill="#ffffff" stroke="#ffffff" stroke-width="4" points="707.5001,-76.8765 711,-86.8765 714.5001,-76.8765 707.5001,-76.8765"/>
<text text-anchor="middle" x="830" y="-57.8" font-family="Times,serif" font-size="14.00" fill="#ffffff"> 6001215.0 row(s) | 100.0% estd.</text>
</g>
<!-- 94450838894944 -->
<g id="node23" class="node">
<title>94450838894944</title>
<polygon fill="none" stroke="#ffffff" points="940.5,-936 685.5,-936 685.5,-900 940.5,-900 940.5,-936"/>
<text text-anchor="middle" x="813" y="-914.3" font-family="Times,serif" font-size="14.00" fill="#ffffff">[Projection] n_nationkey, n_name</text>
</g>
<!-- 94450838894944&#45;&gt;94450463896384 -->
<g id="edge22" class="edge">
<title>94450838894944&#45;&gt;94450463896384</title>
<path fill="none" stroke="#ffffff" d="M802.9475,-936.2434C795.9094,-947.4575 785.5376,-961.2968 773,-970 765.1608,-975.4417 756.4721,-980.082 747.4731,-984.0346"/>
<polygon fill="#ffffff" stroke="#ffffff" points="745.9345,-980.8824 738.0054,-987.9094 748.586,-987.3608 745.9345,-980.8824"/>
<text text-anchor="middle" x="880" y="-958.8" font-family="Times,serif" font-size="14.00" fill="#ffffff"> 1.0 row(s) | 100.0% estd.</text>
</g>
<!-- 94450984505072 -->
<g id="node24" class="node">
<title>94450984505072</title>
<polygon fill="none" stroke="#ffffff" points="940.5,-847 689.5,-847 689.5,-811 940.5,-811 940.5,-847"/>
<text text-anchor="middle" x="815" y="-825.3" font-family="Times,serif" font-size="14.00" fill="#ffffff">[Predicate] n_name = &#39;CANADA&#39;</text>
</g>
<!-- 94450984505072&#45;&gt;94450838894944 -->
<g id="edge23" class="edge">
<title>94450984505072&#45;&gt;94450838894944</title>
<path fill="none" stroke="#ffffff" d="M814.5953,-847.0105C814.3206,-859.2342 813.9517,-875.6505 813.6378,-889.6176"/>
<polygon fill="#ffffff" stroke="#ffffff" points="810.1366,-889.6347 813.411,-899.7108 817.1349,-889.792 810.1366,-889.6347"/>
<text text-anchor="middle" x="897" y="-869.8" font-family="Times,serif" font-size="14.00" fill="#ffffff"> 1.0 row(s) | 4.0% estd.</text>
</g>
<!-- 94449902463952 -->
<g id="node25" class="node">
<title>94449902463952</title>
<polygon fill="none" stroke="#ffffff" points="926.5,-759 703.5,-759 703.5,-723 926.5,-723 926.5,-759"/>
<text text-anchor="middle" x="815" y="-737.3" font-family="Times,serif" font-size="14.00" fill="#ffffff">[StoredTable] Name: &#39;nation&#39;</text>
</g>
<!-- 94449902463952&#45;&gt;94450984505072 -->
<g id="edge24" class="edge">
<title>94449902463952&#45;&gt;94450984505072</title>
<path fill="none" stroke="#ffffff" d="M815,-759.2337C815,-771.1508 815,-786.9616 815,-800.5183"/>
<polygon fill="#ffffff" stroke="#ffffff" points="811.5001,-800.7897 815,-810.7897 818.5001,-800.7897 811.5001,-800.7897"/>
<text text-anchor="middle" x="911.5" y="-780.8" font-family="Times,serif" font-size="14.00" fill="#ffffff"> 25.0 row(s) | 100.0% estd.</text>
</g>
</g>
</svg>
